<svg xmlns="http://www.w3.org/2000/svg" xmlns:xlink="http://www.w3.org/1999/xlink" width="1240" height="513" viewBox="0 0 1240 513">
  <defs>
    <linearGradient id="linear-gradient" x1="20.676" y1="1.885" x2="22.624" y2="2.739" gradientUnits="objectBoundingBox">
      <stop offset="0.101" stop-color="#fff"/>
      <stop offset="1" stop-color="#231f20" stop-opacity="0"/>
    </linearGradient>
    <linearGradient id="linear-gradient-2" x1="7.248" y1="0.395" x2="8.165" y2="2.21" xlink:href="#linear-gradient"/>
    <linearGradient id="linear-gradient-3" x1="13.861" y1="0.247" x2="14.932" y2="-2.525" gradientUnits="objectBoundingBox">
      <stop offset="0" stop-color="#fff"/>
      <stop offset="1" stop-color="#231f20" stop-opacity="0"/>
    </linearGradient>
  </defs>
  <g id="Grupo_91685" data-name="Grupo 91685" transform="translate(-180 -4689)">
    <g id="Grupo_88915" data-name="Grupo 88915" transform="translate(0 1026)">
      <rect id="Rectángulo_35342" data-name="Rectángulo 35342" width="1240" height="513" rx="21" transform="translate(180 3663)" fill="#e8f6fa"/>
      <g id="Grupo_88906" data-name="Grupo 88906" transform="translate(2389.478 3633)">
        <g id="Grupo_87630" data-name="Grupo 87630" transform="translate(-2208.706 30)" style="mix-blend-mode: overlay;isolation: isolate">
          <path id="Trazado_101404" data-name="Trazado 101404" d="M-2212.052,187.515v1.766l111.9-111.9a28.979,28.979,0,0,0,0-40.939L-2136.588,0h-1.766l37.322,37.321a27.726,27.726,0,0,1,0,39.174Z" transform="translate(2212.052)" fill="#fff"/>
        </g>
        <path id="Trazado_101405" data-name="Trazado 101405" d="M-2206.478,163.426V529.06l164.37-164.371a26.1,26.1,0,0,0,0-36.893Z" transform="translate(-3 -11.788)" opacity="0.61" fill="url(#linear-gradient)"/>
        <path id="Trazado_101406" data-name="Trazado 101406" d="M-1584.256,458.122h351.948L-1390.526,299.9a25.117,25.117,0,0,0-35.512,0Z" transform="translate(214.698 83.033)" opacity="0.61" fill="url(#linear-gradient-2)"/>
        <path id="Trazado_101407" data-name="Trazado 101407" d="M-1590.727.979l70.218,70.218a39.549,39.549,0,0,0,55.937,0L-1394.354.979Z" transform="translate(168.841 29.021)" opacity="0.61" fill="url(#linear-gradient-3)"/>
      </g>
      <rect id="Rectángulo_35345" data-name="Rectángulo 35345" width="126" height="126" rx="15" transform="translate(1232.179 3943.267) rotate(45)" fill="#96d6e8"/>
      <rect id="Rectángulo_35346" data-name="Rectángulo 35346" width="59.371" height="59.371" rx="15" transform="translate(1238.198 3711.785) rotate(45)" fill="#b9e4ef"/>
    </g>
    <g id="CF1_grafico_1_copia_3" data-name="CF1_grafico 1 copia 3" transform="translate(845.483 4700.234)">
      <rect id="Rectángulo_35596" data-name="Rectángulo 35596" width="338.67" height="338.67" rx="30.3" transform="translate(10.516 245.265) rotate(-45)" fill="#bfe6f1"/>
      <g id="Grupo_89706" data-name="Grupo 89706">
        <circle id="Elipse_4091" data-name="Elipse 4091" cx="31.9" cy="31.9" r="31.9" transform="matrix(0.909, -0.418, 0.418, 0.909, 412.898, 91.628)" fill="#b1b4bb"/>
        <path id="Trazado_113831" data-name="Trazado 113831" d="M469.7,108.27a6.082,6.082,0,0,1-1.13.1l-3.1.08c-2.63,0-6.3.08-10.43.09h-.28V106.2c0-4.62,0-8.81.08-11.83,0-1.43.07-2.63.09-3.59a5.469,5.469,0,0,1,.11-1.31,6.832,6.832,0,0,1,.1,1.31c0,1,.06,2.16.09,3.59,0,3,.08,7.21.08,11.83v2.07L455,108c4.13,0,7.8,0,10.43.09l3.1.09a4.46,4.46,0,0,1,1.17.09Z" fill="#fafafa"/>
        <path id="Trazado_113832" data-name="Trazado 113832" d="M455.13,80.63a6.55,6.55,0,0,1,.28,2.68,6.55,6.55,0,0,1-.28,2.68,6.87,6.87,0,0,1-.27-2.68,6.87,6.87,0,0,1,.27-2.68Z" fill="#fafafa"/>
        <path id="Trazado_113833" data-name="Trazado 113833" d="M469.67,84.93c.11.11-.64,1-1.67,2.06a6.4,6.4,0,0,1-2.07,1.67,7.642,7.642,0,0,1,1.68-2.06C468.65,85.54,469.56,84.82,469.67,84.93Z" fill="#fafafa"/>
        <path id="Trazado_113834" data-name="Trazado 113834" d="M478.17,94.21c.07.14-.93.78-2.17,1.53A8,8,0,0,1,473.65,97c-.09-.13.81-.93,2.07-1.69a5.7,5.7,0,0,1,2.45-1.1Z" fill="#fafafa"/>
        <path id="Trazado_113835" data-name="Trazado 113835" d="M483.15,108a24.87,24.87,0,0,1-7.31,0,24,24,0,0,1,7.31,0Z" fill="#fafafa"/>
        <path id="Trazado_113836" data-name="Trazado 113836" d="M432.48,107.5a21.39,21.39,0,0,1-6.9,0,22.179,22.179,0,0,1,6.9,0Z" fill="#fafafa"/>
        <path id="Trazado_113837" data-name="Trazado 113837" d="M436.06,117.76a11.29,11.29,0,0,1-2.56,2.42,11.589,11.589,0,0,1-2.91,2,11.59,11.59,0,0,1,2.56-2.42,11.209,11.209,0,0,1,2.91-2Z" fill="#fafafa"/>
        <path id="Trazado_113838" data-name="Trazado 113838" d="M444.9,125.69a15.348,15.348,0,0,1-1.71,3.11,16,16,0,0,1-1.94,3,9,9,0,0,1,1.47-3.26,9.22,9.22,0,0,1,2.18-2.85Z" fill="#fafafa"/>
        <path id="Trazado_113839" data-name="Trazado 113839" d="M455.13,135.92a12.57,12.57,0,0,1-.27-3.65,12.611,12.611,0,0,1,.27-3.66,12,12,0,0,1,.28,3.66,12,12,0,0,1-.28,3.65Z" fill="#fafafa"/>
        <path id="Trazado_113840" data-name="Trazado 113840" d="M470.88,131.05a13.65,13.65,0,0,1-5.46-4.76,19.791,19.791,0,0,1,2.77,2.33,20,20,0,0,1,2.69,2.43Z" fill="#fafafa"/>
        <path id="Trazado_113841" data-name="Trazado 113841" d="M478.27,123.09a9.55,9.55,0,0,1-2.46-2.08,9.32,9.32,0,0,1-2.08-2.47,10,10,0,0,1,2.47,2.08A9.58,9.58,0,0,1,478.27,123.09Z" fill="#fafafa"/>
        <path id="Trazado_113842" data-name="Trazado 113842" d="M435.73,97.68a7.59,7.59,0,0,1-2.19-1.8c-1.09-1.1-1.9-2.07-1.79-2.18s1.09.69,2.18,1.79S435.84,97.57,435.73,97.68Z" fill="#fafafa"/>
        <path id="Trazado_113843" data-name="Trazado 113843" d="M444.85,88.07c-.11.11-1.07-.68-2.15-1.75a7.18,7.18,0,0,1-1.76-2.14c.11-.11,1.07.67,2.15,1.75S445,88,444.85,88.07Z" fill="#fafafa"/>
      </g>
      <path id="Trazado_113844" data-name="Trazado 113844" d="M493,466.74c0,.15-102.33.27-228.54.27s-228.57-.12-228.57-.27,102.32-.28,228.57-.28S493,466.59,493,466.74Z" fill="#20242d"/>
      <g id="Grupo_89708" data-name="Grupo 89708">
        <g id="Grupo_89707" data-name="Grupo 89707">
          <rect id="Rectángulo_35597" data-name="Rectángulo 35597" width="200.24" height="183.4" transform="translate(193.67 64.97)" fill="#fafafa"/>
          <path id="Trazado_113845" data-name="Trazado 113845" d="M394.43,248.9H193.14V64.44H394.43ZM194.2,247.84H393.37V65.5H194.2Z" fill="#20242d"/>
        </g>
        <rect id="Rectángulo_35598" data-name="Rectángulo 35598" width="208.49" height="11.69" transform="translate(189.04 53.93)" fill="#20242d"/>
        <path id="Trazado_113846" data-name="Trazado 113846" d="M194.12,65.63,393.45,85.19l-.1-19.56Z" fill="#e1e1e1"/>
      </g>
      <g id="Grupo_89721" data-name="Grupo 89721">
        <rect id="Rectángulo_35599" data-name="Rectángulo 35599" width="6.72" height="75.04" transform="translate(224.82 126.8)" fill="#5591ba"/>
        <rect id="Rectángulo_35600" data-name="Rectángulo 35600" width="6.72" height="49.55" transform="translate(237.79 152.29)" fill="#5591ba"/>
        <rect id="Rectángulo_35601" data-name="Rectángulo 35601" width="6.72" height="66.09" transform="translate(250.76 136.13)" fill="#5591ba"/>
        <rect id="Rectángulo_35602" data-name="Rectángulo 35602" width="6.72" height="72.14" transform="translate(263.73 129.7)" fill="#5591ba"/>
        <rect id="Rectángulo_35603" data-name="Rectángulo 35603" width="6.72" height="48.03" transform="translate(276.7 153.81)" fill="#5591ba"/>
        <rect id="Rectángulo_35604" data-name="Rectángulo 35604" width="6.72" height="38.61" transform="translate(289.67 163.23)" fill="#5591ba"/>
        <rect id="Rectángulo_35605" data-name="Rectángulo 35605" width="6.72" height="67.33" transform="translate(302.64 134.5)" fill="#5591ba"/>
        <rect id="Rectángulo_35606" data-name="Rectángulo 35606" width="6.72" height="55.19" transform="translate(315.61 146.64)" fill="#5591ba"/>
        <rect id="Rectángulo_35607" data-name="Rectángulo 35607" width="6.72" height="64.89" transform="translate(328.58 136.94)" fill="#5591ba"/>
        <rect id="Rectángulo_35608" data-name="Rectángulo 35608" width="6.72" height="44.21" transform="translate(341.56 157.62)" fill="#5591ba"/>
        <rect id="Rectángulo_35609" data-name="Rectángulo 35609" width="6.72" height="52.62" transform="translate(354.53 149.21)" fill="#5591ba"/>
        <path id="Trazado_113847" data-name="Trazado 113847" d="M357.09,143.81a2,2,0,0,1-.44-.07l-1.25-.25a19.893,19.893,0,0,0-2.06-.33,26.368,26.368,0,0,0-2.82-.24,33,33,0,0,0-7.73.67,34,34,0,0,0-9.58,3.63,39.14,39.14,0,0,0-9.7,7.72,74.318,74.318,0,0,0-8.18,11.74c-2.63,4.31-5.31,9-9.19,13a24,24,0,0,1-6.77,5.06A14.23,14.23,0,0,1,295.2,186a13.751,13.751,0,0,1-4.43-.15,18.07,18.07,0,0,1-7.7-4,36,36,0,0,1-5.71-6.23c-3.31-4.46-5.67-9.27-8.18-13.65a56.479,56.479,0,0,0-8.18-11.7,22.12,22.12,0,0,0-5.05-4,22.771,22.771,0,0,0-2.73-1.32,21.53,21.53,0,0,0-2.79-.83,20.25,20.25,0,0,0-10.13.28,22.91,22.91,0,0,0-7,3.35,25.594,25.594,0,0,0-3.65,3.27l-.85,1a2,2,0,0,1-.3.31,3,3,0,0,1,.26-.35l.81-1a23.861,23.861,0,0,1,3.61-3.38,22.869,22.869,0,0,1,7-3.46,20.39,20.39,0,0,1,10.3-.37,21.32,21.32,0,0,1,10.82,6.19,56.9,56.9,0,0,1,8.29,11.77c2.53,4.39,4.89,9.17,8.17,13.58a35.791,35.791,0,0,0,5.63,6.13,17.52,17.52,0,0,0,7.47,3.92,12.8,12.8,0,0,0,4.23.14,13.67,13.67,0,0,0,4-1.22,23.81,23.81,0,0,0,6.62-5c3.82-3.93,6.49-8.57,9.14-12.87a73.274,73.274,0,0,1,8.27-11.79,39.47,39.47,0,0,1,9.85-7.76,34.061,34.061,0,0,1,9.71-3.58,32,32,0,0,1,7.8-.58,23.558,23.558,0,0,1,2.84.29,16.591,16.591,0,0,1,2.05.38l1.25.31a2.52,2.52,0,0,1,.47.13Z" fill="#20242d"/>
        <path id="Trazado_113848" data-name="Trazado 113848" d="M217.42,207.06c-.15,0-.28-21.39-.28-47.78s.13-47.79.28-47.79.28,21.39.28,47.79S217.57,207.06,217.42,207.06Z" fill="#20242d"/>
        <path id="Trazado_113849" data-name="Trazado 113849" d="M364,207.06c0,.16-31.87.28-71.18.28s-71.18-.12-71.18-.28,31.87-.27,71.18-.27S364,206.91,364,207.06Z" fill="#20242d"/>
        <path id="Trazado_113850" data-name="Trazado 113850" d="M234.4,213a23.19,23.19,0,0,1-5,.27,23.13,23.13,0,0,1-5-.27,22.729,22.729,0,0,1,5-.28,22.78,22.78,0,0,1,5,.28Z" fill="#20242d"/>
        <path id="Trazado_113851" data-name="Trazado 113851" d="M250.94,213.27a32.46,32.46,0,0,1-6,.28,32.459,32.459,0,0,1-6-.28,32.459,32.459,0,0,1,6-.28,32.462,32.462,0,0,1,6,.28Z" fill="#20242d"/>
        <path id="Trazado_113852" data-name="Trazado 113852" d="M265.05,213.27a32.459,32.459,0,0,1-6,.28,32.37,32.37,0,0,1-6-.28,32.37,32.37,0,0,1,6-.28,32.46,32.46,0,0,1,6,.28Z" fill="#20242d"/>
        <path id="Trazado_113853" data-name="Trazado 113853" d="M279.15,213.27a32.46,32.46,0,0,1-6,.28,32.46,32.46,0,0,1-6-.28,32.46,32.46,0,0,1,6-.28,32.46,32.46,0,0,1,6,.28Z" fill="#20242d"/>
        <path id="Trazado_113854" data-name="Trazado 113854" d="M293.26,213.27a32.46,32.46,0,0,1-6,.28,32.459,32.459,0,0,1-6-.28,32.461,32.461,0,0,1,6-.28,32.46,32.46,0,0,1,6,.28Z" fill="#20242d"/>
        <path id="Trazado_113855" data-name="Trazado 113855" d="M307.37,213.27a63.571,63.571,0,0,1-11.92,0A63.571,63.571,0,0,1,307.37,213.27Z" fill="#20242d"/>
        <path id="Trazado_113856" data-name="Trazado 113856" d="M321.47,213.27a63.571,63.571,0,0,1-11.92,0,63.571,63.571,0,0,1,11.92,0Z" fill="#20242d"/>
        <path id="Trazado_113857" data-name="Trazado 113857" d="M335.58,213.27a63.571,63.571,0,0,1-11.92,0A63.571,63.571,0,0,1,335.58,213.27Z" fill="#20242d"/>
        <path id="Trazado_113858" data-name="Trazado 113858" d="M349.69,213.27a63.571,63.571,0,0,1-11.92,0,63.571,63.571,0,0,1,11.92,0Z" fill="#20242d"/>
        <path id="Trazado_113859" data-name="Trazado 113859" d="M363.79,213.27a63.571,63.571,0,0,1-11.92,0,63.571,63.571,0,0,1,11.92,0Z" fill="#20242d"/>
        <path id="Trazado_113860" data-name="Trazado 113860" d="M270.73,162.44c0-.08.61.13.8,1a2,2,0,0,1-.15,1.42,1.23,1.23,0,0,1-.72.61,1.3,1.3,0,0,1-1-.12,1.67,1.67,0,0,1-.86-1.57,1.71,1.71,0,0,1,.69-1.27,1.14,1.14,0,0,1,.94-.24c.23.07.31.18.29.21a1.26,1.26,0,0,0-1,.32,1.45,1.45,0,0,0-.43,1,1.2,1.2,0,0,0,.61,1.06.73.73,0,0,0,1-.26,1.81,1.81,0,0,0,.21-1.09,2.53,2.53,0,0,0-.38-1.07Z" fill="#20242d"/>
        <path id="Trazado_113861" data-name="Trazado 113861" d="M335.67,144.33a.623.623,0,0,1,.43,0,1.68,1.68,0,0,1,.88.76,2.2,2.2,0,0,1,.22,1.73,1.82,1.82,0,0,1-1.69,1.35,1.49,1.49,0,0,1-1.08-.56,2.41,2.41,0,0,1-.45-1,2.23,2.23,0,0,1,.28-1.72c.61-.86,1.36-.81,1.33-.75a2.278,2.278,0,0,0-1,.95,2,2,0,0,0-.12,1.4c.14.51.53,1.09,1.06,1.09a1.35,1.35,0,0,0,1.18-1,1.83,1.83,0,0,0-.08-1.39,2,2,0,0,0-.96-.86Z" fill="#20242d"/>
        <g id="Grupo_89709" data-name="Grupo 89709">
          <path id="Trazado_113862" data-name="Trazado 113862" d="M336.72,108.87c-.15,0-.27-.35-.27-.79s.12-.8.27-.8.28.36.28.8S336.88,108.87,336.72,108.87Z" fill="#20242d"/>
          <path id="Trazado_113863" data-name="Trazado 113863" d="M336.72,115.85c-.15,0-.27-.78-.27-1.74s.12-1.75.27-1.75.28.78.28,1.75S336.88,115.85,336.72,115.85Z" fill="#20242d"/>
          <path id="Trazado_113864" data-name="Trazado 113864" d="M336.72,122.83c-.15,0-.27-.78-.27-1.74s.12-1.75.27-1.75.28.78.28,1.75S336.88,122.83,336.72,122.83Z" fill="#20242d"/>
          <path id="Trazado_113865" data-name="Trazado 113865" d="M336.72,129.81c-.15,0-.27-.78-.27-1.75s.12-1.74.27-1.74.28.78.28,1.74S336.88,129.81,336.72,129.81Z" fill="#20242d"/>
          <path id="Trazado_113866" data-name="Trazado 113866" d="M336.72,136.79c-.15,0-.27-.78-.27-1.75s.12-1.74.27-1.74.28.78.28,1.74S336.88,136.79,336.72,136.79Z" fill="#20242d"/>
          <path id="Trazado_113867" data-name="Trazado 113867" d="M336.72,141.87c-.15,0-.27-.36-.27-.8s.12-.79.27-.79.28.35.28.79S336.88,141.87,336.72,141.87Z" fill="#20242d"/>
        </g>
        <path id="Trazado_113868" data-name="Trazado 113868" d="M384.53,95.45c0,.15-11,.28-24.62.28s-24.61-.13-24.61-.28,11-.28,24.61-.28S384.53,95.3,384.53,95.45Z" fill="#20242d"/>
        <path id="Trazado_113869" data-name="Trazado 113869" d="M367.71,88.56c0,.15-7.09.27-15.83.27S336,88.71,336,88.56s7.09-.28,15.84-.28S367.71,88.4,367.71,88.56Z" fill="#20242d"/>
        <g id="Grupo_89710" data-name="Grupo 89710" opacity="0.3">
          <rect id="Rectángulo_35610" data-name="Rectángulo 35610" width="6.72" height="75.04" transform="translate(224.82 126.8)" fill="#fff"/>
        </g>
        <g id="Grupo_89711" data-name="Grupo 89711" opacity="0.3">
          <rect id="Rectángulo_35611" data-name="Rectángulo 35611" width="6.72" height="49.55" transform="translate(237.79 152.29)" fill="#fff"/>
        </g>
        <g id="Grupo_89712" data-name="Grupo 89712" opacity="0.3">
          <rect id="Rectángulo_35612" data-name="Rectángulo 35612" width="6.72" height="66.09" transform="translate(250.76 136.13)" fill="#fff"/>
        </g>
        <g id="Grupo_89713" data-name="Grupo 89713" opacity="0.3">
          <rect id="Rectángulo_35613" data-name="Rectángulo 35613" width="6.72" height="72.14" transform="translate(263.73 129.7)" fill="#fff"/>
        </g>
        <g id="Grupo_89714" data-name="Grupo 89714" opacity="0.3">
          <rect id="Rectángulo_35614" data-name="Rectángulo 35614" width="6.72" height="48.03" transform="translate(276.7 153.81)" fill="#fff"/>
        </g>
        <g id="Grupo_89715" data-name="Grupo 89715" opacity="0.3">
          <rect id="Rectángulo_35615" data-name="Rectángulo 35615" width="6.72" height="38.61" transform="translate(289.67 163.23)" fill="#fff"/>
        </g>
        <g id="Grupo_89716" data-name="Grupo 89716" opacity="0.3">
          <rect id="Rectángulo_35616" data-name="Rectángulo 35616" width="6.72" height="67.33" transform="translate(302.64 134.5)" fill="#fff"/>
        </g>
        <g id="Grupo_89717" data-name="Grupo 89717" opacity="0.3">
          <rect id="Rectángulo_35617" data-name="Rectángulo 35617" width="6.72" height="55.19" transform="translate(315.61 146.64)" fill="#fff"/>
        </g>
        <g id="Grupo_89718" data-name="Grupo 89718" opacity="0.3">
          <rect id="Rectángulo_35618" data-name="Rectángulo 35618" width="6.72" height="64.89" transform="translate(328.58 136.94)" fill="#fff"/>
        </g>
        <g id="Grupo_89719" data-name="Grupo 89719" opacity="0.3">
          <rect id="Rectángulo_35619" data-name="Rectángulo 35619" width="6.72" height="44.21" transform="translate(341.56 157.62)" fill="#fff"/>
        </g>
        <g id="Grupo_89720" data-name="Grupo 89720" opacity="0.3">
          <rect id="Rectángulo_35620" data-name="Rectángulo 35620" width="6.72" height="52.62" transform="translate(354.53 149.21)" fill="#fff"/>
        </g>
      </g>
      <g id="Grupo_89724" data-name="Grupo 89724">
        <g id="Grupo_89723" data-name="Grupo 89723">
          <g id="Grupo_89722" data-name="Grupo 89722">
            <rect id="Rectángulo_35621" data-name="Rectángulo 35621" width="7.33" height="87.89" transform="translate(443.56 453.18) rotate(180)" fill="#30616f"/>
            <path id="Trazado_113870" data-name="Trazado 113870" d="M388,369.27H492.91a11.39,11.39,0,0,0-11.39-11.39H399.38A11.39,11.39,0,0,0,388,369.27Z" fill="#30616f"/>
            <path id="Trazado_113871" data-name="Trazado 113871" d="M432.77,369.49a76.822,76.822,0,0,0,12.87,0,76.819,76.819,0,0,0-12.87,0Z" fill="#20242d"/>
          </g>
          <path id="Trazado_113872" data-name="Trazado 113872" d="M407.81,461.14h1a31.21,31.21,0,0,1,62.42,0h1a32.25,32.25,0,0,0-64.5,0Z" fill="#30616f"/>
          <path id="Trazado_113873" data-name="Trazado 113873" d="M467,462.74a4.84,4.84,0,1,0,4.84-4.84,4.84,4.84,0,0,0-4.84,4.84Z" fill="#20242d"/>
          <path id="Trazado_113874" data-name="Trazado 113874" d="M403.25,462.07a4.84,4.84,0,1,0,4.84-4.83,4.84,4.84,0,0,0-4.84,4.83Z" fill="#30616f"/>
          <path id="Trazado_113875" data-name="Trazado 113875" d="M408.12,453.18c0,.15,14,.27,31.34.27s31.35-.12,31.35-.27-14-.27-31.35-.27S408.12,453,408.12,453.18Z" fill="#30616f"/>
        </g>
        <path id="Trazado_113876" data-name="Trazado 113876" d="M496,278.29V343a15.36,15.36,0,0,1-15.37,15.36H430.77l6.77-80a6.85,6.85,0,0,1,6.85-6.85h44.75a6.85,6.85,0,0,1,6.86,6.78Z" fill="#30616f"/>
        <path id="Trazado_113877" data-name="Trazado 113877" d="M478.37,357.88s0-.07.11-.19l.37-.53c.33-.46.8-1.14,1.37-2.05a34.32,34.32,0,0,0,4.95-14.36,64.238,64.238,0,0,0,.19-7.19V317.03c0-11.72.06-22.32.08-30,0-3.81.06-6.9.08-9.11,0-1,0-1.86.05-2.47a8.073,8.073,0,0,1,.05-.86,4.729,4.729,0,0,1,.06.86c0,.61,0,1.44,0,2.47,0,2.21,0,5.3.08,9.11,0,7.73,0,18.33.07,30v16.53a62.741,62.741,0,0,1-.24,7.24,33.133,33.133,0,0,1-1.32,6.17,32.632,32.632,0,0,1-3.89,8.25c-.6.89-1.1,1.57-1.46,2a4.93,4.93,0,0,1-.55.66Z" fill="#20242d"/>
        <path id="Trazado_113878" data-name="Trazado 113878" d="M451.22,357.92a8.423,8.423,0,0,1,1.59-.09l4.32-.06h14.25c2.78,0,5.44,0,7.85.09a25.422,25.422,0,0,1,6.4.7,9.82,9.82,0,0,1,3.84,2,6.489,6.489,0,0,1,.84.84,1.409,1.409,0,0,1,.25.33c-.05,0-.41-.4-1.21-1a10.37,10.37,0,0,0-3.82-1.81,26.219,26.219,0,0,0-6.31-.58l-7.85-.05c-5.56,0-10.6-.1-14.25-.18l-4.31-.11a10.81,10.81,0,0,1-1.59-.08Z" fill="#20242d"/>
      </g>
      <g id="Grupo_89746" data-name="Grupo 89746">
        <path id="Trazado_113879" data-name="Trazado 113879" d="M405.32,209.8c-1.47,4.52-3,9.15-2.86,13.9.05,2.2.41,4.56-.67,6.48-.75,1.33-2.08,2.21-3.13,3.32a9.83,9.83,0,0,0-1.74,10.56,6.73,6.73,0,0,0,2.51,3,9.58,9.58,0,0,0,4.4,1,72.93,72.93,0,0,0,15.13-.68c2.39-.36,5-1,6.46-2.88,1.33-1.71,1.42-4,1.34-6.21a59,59,0,0,0-5.95-23.71" fill="#20242d"/>
        <path id="Trazado_113880" data-name="Trazado 113880" d="M439.23,204.89a3.74,3.74,0,1,1-.49,6.94c2.43-.42,4.76,1.42,5.89,3.62s1.4,4.71,2,7.11,1.63,4.89,3.74,6.17,4.85,1.27,6.15,3.23.16,4.82.73,7.19,2.73,3.94,4.65,5.43,3.89,3.46,3.79,5.89a5.52,5.52,0,0,1-3.32,4.47,14.481,14.481,0,0,1-5.7,1.11,83.87,83.87,0,0,1-28.46-3.67,7.81,7.81,0,0,1-3.93-2.18c-1.46-1.81-1.11-4.42-.69-6.71,1.33-7.24,2.68-14.51,5.05-21.48s5.82-13.68,10.92-19" fill="#20242d"/>
        <g id="Grupo_89726" data-name="Grupo 89726">
          <path id="Trazado_113881" data-name="Trazado 113881" d="M453.6,274.69h11.33l-4-20.19c-3-16.52-26.12-17.65-26.12-17.65l-18.18-.3s-13.47-1.81-21.79,7.57c-1.7,1.92-3.49,3.92-5.25,5.88l-19.72,20.62-2.09-25.88-16.88,2.65,2.36,32.5a13.3,13.3,0,0,0,8.92,11.52c3.65,1.16,7.37.14,11.07-1.71,9.84-4.9,28.27-20.5,29.69-21.7a23.651,23.651,0,0,0-2.55,9.45c0,5.38,5.52,9.41,5.52,9.41l1.72,16.38-5.7,26.44,59.35-2.38a59,59,0,0,0-8.75-24.94ZM403,267.92a1.15,1.15,0,0,1-.2-.4l.64-.45A4.3,4.3,0,0,0,403,267.92Z" fill="#d57271"/>
          <g id="Grupo_89725" data-name="Grupo 89725">
            <path id="Trazado_113882" data-name="Trazado 113882" d="M427,320.51a100.241,100.241,0,0,1-9.61,5.83c-4.21,2-4.4,1.63-4.57,1.11-.44-1.42,7.27-3.8,5.29-4.24s-9,4-9.45,2.51c-.52-2,7.6-4.3,8.27-4.55s.3-1.22-.29-1c-.85.37-9.9,4-10.43,2.12-.29-1.06,1.68-1.36,1.68-1.36s8.74-2.81,8.46-3.7-5.47.57-7.18,1.19-2.7.07-2.36-.9c.22-.66,5.41-2.69,7.12-3.26s6.43-2.07,3.45-3.21-4.84-3.1-5-4,1.05-1.35,1.74-.65a12.048,12.048,0,0,0,2.73,1.68,7.91,7.91,0,0,0,2.47.73c.74.09,1.4.14,2,.18l6.31.48,3.18,8.35Z" fill="#ffbf9d"/>
            <path id="Trazado_113883" data-name="Trazado 113883" d="M454.68,244.37a22.15,22.15,0,0,1,7.47,11.17c1.4,4.58,5.42,20.1,8.38,31.65a14.8,14.8,0,0,1-9.69,17.73L427.43,323,422,308.85l29.3-19.26-7.08-26.23c-1.16-4-1.67-8.05-.21-11.94S448.53,243.62,454.68,244.37Z" fill="#df9595"/>
            <path id="Trazado_113884" data-name="Trazado 113884" d="M352,248.33l-2-6.49c-.95-4.64,2.72-5.39,3.34-6.08a9.78,9.78,0,0,1,3.27-2.65l-.29-1.87a45.129,45.129,0,0,1-1.06-6.09c0-1.11,2-1.19,2.34-.11.66,2.45,1.81,6.61,2.43,8.14.81,2,2.61,7.29,4.51,4a15.719,15.719,0,0,0,2-6.2c.3-1.02,2.71-1.27,2.25.95-.19.93-.31,2.58-.89,4.81-.26,1-.81,2.22-1.09,3.21-.32,1.16-.47,5.46-.64,6.31Z" fill="#ffbf9d"/>
            <path id="Trazado_113885" data-name="Trazado 113885" d="M353,237a14.83,14.83,0,0,1,.51,1.91,14.005,14.005,0,0,0,.74,2,4,4,0,0,1,.42,1.29,1.37,1.37,0,0,1-.77,1.4,1.64,1.64,0,0,1-1.54-.3,3.8,3.8,0,0,1-.93-1,5.72,5.72,0,0,1-.8-2.08,5.309,5.309,0,0,1-.13-2,11.281,11.281,0,0,1,.51,1.91,6.079,6.079,0,0,0,.84,1.89,3.841,3.841,0,0,0,.82.84,1.18,1.18,0,0,0,1,.23.84.84,0,0,0,.43-.86,3.53,3.53,0,0,0-.35-1.12,11.641,11.641,0,0,1-.65-2.09A4.68,4.68,0,0,1,353,237Z" fill="#ff9a6c"/>
            <path id="Trazado_113886" data-name="Trazado 113886" d="M356,234.86a12,12,0,0,1,1,2.46c.27.84.58,1.74.9,2.72.15.52.35,1,.49,1.64a1.92,1.92,0,0,1-.05,1,1.56,1.56,0,0,1-.72.82,2,2,0,0,1-2-.11,3.2,3.2,0,0,1-1.17-1.38,19.166,19.166,0,0,1-.86-2.77,13.361,13.361,0,0,1-.58-2.57,11.8,11.8,0,0,1,.95,2.46,26.357,26.357,0,0,0,.95,2.65,2.69,2.69,0,0,0,1,1.15,1.4,1.4,0,0,0,1.45.08,1.07,1.07,0,0,0,.51-1.26c-.11-.52-.31-1.08-.45-1.59-.28-1-.54-1.91-.79-2.75a13,13,0,0,1-.63-2.55Z" fill="#ff9a6c"/>
            <path id="Trazado_113887" data-name="Trazado 113887" d="M367.28,276.66a10.48,10.48,0,0,1,1.05-3.2,10.19,10.19,0,0,1,1.56-3,10.478,10.478,0,0,1-1.05,3.2,10.781,10.781,0,0,1-1.56,3Z" fill="#20242d"/>
            <path id="Trazado_113888" data-name="Trazado 113888" d="M393.85,272.75a17.64,17.64,0,0,1-3-.69l-3.19-.9a19,19,0,0,1-3.81-1.54,8.43,8.43,0,0,1-3-2.82,6,6,0,0,1-.89-3.26,18.765,18.765,0,0,0-.08-2.22,6.856,6.856,0,0,1-.12-.8,2.033,2.033,0,0,1,.33.76,12.211,12.211,0,0,1,.26,2.24,5.81,5.81,0,0,0,.93,3,8.32,8.32,0,0,0,2.88,2.61,19.2,19.2,0,0,0,3.68,1.53l3.15,1A16,16,0,0,1,393.85,272.75Z" fill="#e1e1e1"/>
            <path id="Trazado_113889" data-name="Trazado 113889" d="M443.48,313.84c-.09,0,0-1-.27-2.43a14.75,14.75,0,0,0-2.34-5.31c-.63-1-1.29-1.84-1.9-2.64a16.741,16.741,0,0,0-1.68-2,2.57,2.57,0,0,0-1.52-.68c-.41,0-.63.07-.65,0s.19-.2.64-.24a2.58,2.58,0,0,1,1.78.59,13.593,13.593,0,0,1,1.83,2,32.384,32.384,0,0,1,2,2.64,13.39,13.39,0,0,1,2.27,5.56A5,5,0,0,1,443.48,313.84Z" fill="#e1e1e1"/>
            <path id="Trazado_113890" data-name="Trazado 113890" d="M461.63,256.25a4.878,4.878,0,0,1-.82-.23l-2.33-.75a28.59,28.59,0,0,0-8.78-1.54,14.18,14.18,0,0,0-5.92,1.39,28.9,28.9,0,0,0-5.83,4,68.457,68.457,0,0,1-6.2,4.92,16.31,16.31,0,0,1-8,2.89,9.16,9.16,0,0,1-4.3-.86,10.9,10.9,0,0,1-3.4-2.54,73.179,73.179,0,0,1-4.77-6.31,18.2,18.2,0,0,0-10.87-7,19,19,0,0,0-8.85.13c-2,.54-3.08,1.12-3.11,1.06a13,13,0,0,1,3.06-1.27,18.72,18.72,0,0,1,9-.31,19.3,19.3,0,0,1,5.85,2.24,18,18,0,0,1,5.34,4.8c1.55,2,2.91,4.28,4.76,6.25a9.32,9.32,0,0,0,7.29,3.22,16,16,0,0,0,7.74-2.79,72.321,72.321,0,0,0,6.17-4.86,28.8,28.8,0,0,1,6-4,14.54,14.54,0,0,1,6.11-1.37,27.22,27.22,0,0,1,8.85,1.73c1,.34,1.78.64,2.3.84a4.86,4.86,0,0,1,.71.36Z" fill="#e1e1e1"/>
            <path id="Trazado_113891" data-name="Trazado 113891" d="M448.45,284a10.93,10.93,0,0,0-1.91-.44,10.76,10.76,0,0,0-5.15,1.19A60.646,60.646,0,0,1,434,288a30.281,30.281,0,0,1-9.77,1.42,29.37,29.37,0,0,1-9.71-1.84,29.791,29.791,0,0,1-7.11-3.8,28,28,0,0,1-4.08-3.59c-.44-.46-.76-.85-1-1.11a2.419,2.419,0,0,1-.3-.42s.5.5,1.42,1.38a33.58,33.58,0,0,0,4.15,3.43,31.21,31.21,0,0,0,7.07,3.64,29.7,29.7,0,0,0,9.54,1.76,30.51,30.51,0,0,0,9.61-1.36,66.7,66.7,0,0,0,7.37-3.1,10.38,10.38,0,0,1,5.32-1A4.42,4.42,0,0,1,448.45,284Z" fill="#e1e1e1"/>
            <path id="Trazado_113892" data-name="Trazado 113892" d="M468.51,279.53a2.38,2.38,0,0,1-.26.8,10.262,10.262,0,0,1-1.18,2,10.82,10.82,0,0,1-6.29,4,18.36,18.36,0,0,1-7.52-.19,14.28,14.28,0,0,1-3-.8,22.319,22.319,0,0,1,3.07.42,20.2,20.2,0,0,0,7.32,0,11.08,11.08,0,0,0,6.11-3.75A27.112,27.112,0,0,0,468.51,279.53Z" fill="#e1e1e1"/>
            <path id="Trazado_113893" data-name="Trazado 113893" d="M443.67,261.11a3.729,3.729,0,0,1,.15.51c.09.37.21.87.37,1.5.33,1.35.8,3.27,1.39,5.7,1.22,4.9,3,11.9,5.26,20.27v.16l-.14.1-24.7,17-3.91,2.69.1-.33c1.95,4.89,3.81,9.57,5.55,13.95l-.35-.14c10.24-5.06,18.87-9.68,24.94-13l7.08-3.93,1.89-1a4.38,4.38,0,0,1,.67-.34,7.344,7.344,0,0,1-.63.41l-1.84,1.12c-1.62,1-4,2.35-7,4.06-6,3.41-14.63,8.1-24.87,13.2l-.25.12-.11-.26c-1.75-4.37-3.62-9.05-5.58-13.93l-.08-.21.18-.12,3.91-2.69,24.74-17-.09.26c-2.2-8.4-3.93-15.41-5.07-20.34-.57-2.46-1-4.4-1.27-5.73-.12-.64-.22-1.14-.29-1.52a4,4,0,0,1-.05-.51Z" fill="#20242d"/>
            <path id="Trazado_113894" data-name="Trazado 113894" d="M458.67,291.6a26.192,26.192,0,0,0-3.87-1.81,12.251,12.251,0,0,0-2.93-.56c-.76,0-1.25,0-1.26-.08s.45-.25,1.26-.31a8.69,8.69,0,0,1,3.1.43C457.35,290,458.79,291.5,458.67,291.6Z" fill="#20242d"/>
          </g>
        </g>
        <g id="Grupo_89730" data-name="Grupo 89730">
          <g id="Grupo_89728" data-name="Grupo 89728">
            <path id="Trazado_113895" data-name="Trazado 113895" d="M334.9,405.88l4.39-9.1,17.11,8.11-6.28,13.38-1.09-.43c-4.85-2-24.5-10.39-27.2-12.84C318.82,402.26,334.9,405.88,334.9,405.88Z" fill="#5591ba"/>
            <g id="Grupo_89727" data-name="Grupo 89727" opacity="0.5">
              <path id="Trazado_113896" data-name="Trazado 113896" d="M344,415.2a6.56,6.56,0,0,1,3.91-2.61,6.37,6.37,0,0,1,4.59.65L350.22,418Z" fill="#fff"/>
            </g>
          </g>
          <g id="Grupo_89729" data-name="Grupo 89729" opacity="0.4">
            <path id="Trazado_113897" data-name="Trazado 113897" d="M326.92,404.37s-5.79-.95-5.55.19,19.78,10.39,28.75,13.71l.15-.39-22.88-10.59S327.9,404.88,326.92,404.37Z" fill="#fff"/>
          </g>
          <path id="Trazado_113898" data-name="Trazado 113898" d="M350.55,418l-.31-.11-.87-.35-3.17-1.34c-2.68-1.15-6.35-2.78-10.36-4.68s-7.61-3.69-10.19-5l-3-1.61-.82-.44a1.535,1.535,0,0,1-.28-.18l.3.13.84.42,3.08,1.53c2.6,1.3,6.21,3.07,10.22,5s7.67,3.56,10.32,4.74l3.14,1.41.86.39Z" fill="#20242d"/>
          <path id="Trazado_113899" data-name="Trazado 113899" d="M327.27,407.56a7.088,7.088,0,0,0,.12-1.76,7.571,7.571,0,0,0-.49-1.7,2.65,2.65,0,0,1,.72,1.67A2.56,2.56,0,0,1,327.27,407.56Z" fill="#20242d"/>
          <path id="Trazado_113900" data-name="Trazado 113900" d="M333.53,407.38a2.12,2.12,0,0,1-.23-.91,2.09,2.09,0,0,1,0-.94c.07,0,.17.4.23.91S333.6,407.38,333.53,407.38Z" fill="#20242d"/>
          <path id="Trazado_113901" data-name="Trazado 113901" d="M335.27,407.31a1.674,1.674,0,0,1-.42-.69c-.17-.4-.26-.75-.2-.78s.25.29.41.69a1.62,1.62,0,0,1,.21.78Z" fill="#20242d"/>
          <path id="Trazado_113902" data-name="Trazado 113902" d="M336.91,406.11a2.35,2.35,0,0,1-1-.31c-.5-.23-.88-.46-.85-.52a2.221,2.221,0,0,1,.95.31C336.55,405.82,336.93,406.05,336.91,406.11Z" fill="#20242d"/>
          <path id="Trazado_113903" data-name="Trazado 113903" d="M337.75,405.11a2,2,0,0,1-1.14-.18,2.414,2.414,0,0,1-1-.63,7.417,7.417,0,0,1,1,.41,6,6,0,0,1,1.14.4Z" fill="#20242d"/>
          <path id="Trazado_113904" data-name="Trazado 113904" d="M333.66,405.62a3.76,3.76,0,0,1-1.1-.53,7.281,7.281,0,0,1-1.05-.81,3.541,3.541,0,0,1-.53-.6.65.65,0,0,1-.12-.47.5.5,0,0,1,.38-.36,2.23,2.23,0,0,1,2.21,1.77,2.17,2.17,0,0,1,0,.91c-.05.2-.1.31-.12.31a3.4,3.4,0,0,0-.05-1.18,2.21,2.21,0,0,0-.65-1.05,1.87,1.87,0,0,0-1.36-.53c-.23,0-.26.28-.12.49a3.171,3.171,0,0,0,.49.55,8.213,8.213,0,0,0,1,.83C333.26,405.38,333.68,405.58,333.66,405.62Z" fill="#20242d"/>
          <path id="Trazado_113905" data-name="Trazado 113905" d="M333.35,405.54a1.23,1.23,0,0,1,.23-.83,2.05,2.05,0,0,1,.68-.66,1.23,1.23,0,0,1,1.18-.13.49.49,0,0,1,.1.67,1.14,1.14,0,0,1-.42.4,3.239,3.239,0,0,1-.83.42,1.63,1.63,0,0,1-.84.15,6.74,6.74,0,0,0,.78-.3,3.909,3.909,0,0,0,.77-.44c.26-.16.56-.53.31-.71s-.67,0-.94.13a1.82,1.82,0,0,0-.65.56,3.757,3.757,0,0,0-.37.74Z" fill="#20242d"/>
          <path id="Trazado_113906" data-name="Trazado 113906" d="M352.41,413.15a7.1,7.1,0,0,0-1.28-.56,6.2,6.2,0,0,0-3.3-.16,6.1,6.1,0,0,0-2.87,1.62c-.61.61-.87,1.09-.91,1.06a1.169,1.169,0,0,1,.17-.34,4.847,4.847,0,0,1,.62-.84,5.75,5.75,0,0,1,6.34-1.49,4.9,4.9,0,0,1,.93.47C352.32,413.05,352.42,413.14,352.41,413.15Z" fill="#20242d"/>
          <path id="Trazado_113907" data-name="Trazado 113907" d="M354,405.19a33.3,33.3,0,0,1-1.51,3.58,31.946,31.946,0,0,1-1.73,3.49,32.3,32.3,0,0,1,1.52-3.58,30.917,30.917,0,0,1,1.72-3.49Z" fill="#20242d"/>
          <path id="Trazado_113908" data-name="Trazado 113908" d="M342.62,412.51a10.832,10.832,0,0,1-2.62-.93,11,11,0,0,1-2.41-1.39c0-.05,1.12.54,2.51,1.18S342.64,412.45,342.62,412.51Z" fill="#20242d"/>
          <path id="Trazado_113909" data-name="Trazado 113909" d="M346,414.09c0,.07-.2.2-.43.4s-.41.4-.47.37,0-.31.32-.54S346,414,346,414.09Z" fill="#20242d"/>
          <path id="Trazado_113910" data-name="Trazado 113910" d="M348,413.12c0,.06-.17.19-.43.28s-.49.13-.52.07.18-.19.44-.29S348,413.06,348,413.12Z" fill="#20242d"/>
          <path id="Trazado_113911" data-name="Trazado 113911" d="M350.13,413.26c0,.05-.26-.06-.56-.09a3,3,0,0,0-.56,0,.721.721,0,0,1,.59-.19C349.96,413.02,350.17,413.21,350.13,413.26Z" fill="#20242d"/>
          <path id="Trazado_113912" data-name="Trazado 113912" d="M351.58,413.53c0,.06-.15.1-.31.09s-.3-.07-.3-.14.14-.1.31-.09S351.58,413.46,351.58,413.53Z" fill="#20242d"/>
        </g>
        <g id="Grupo_89734" data-name="Grupo 89734">
          <g id="Grupo_89732" data-name="Grupo 89732">
            <path id="Trazado_113913" data-name="Trazado 113913" d="M385.83,461l-.21-10.1,18.93-.51.46,14.78-1.18.1c-5.21.43-26.54,1.82-30.06.86C369.85,465.06,385.83,461,385.83,461Z" fill="#5591ba"/>
            <g id="Grupo_89731" data-name="Grupo 89731" opacity="0.5">
              <path id="Trazado_113914" data-name="Trazado 113914" d="M398.14,465.21a6.58,6.58,0,0,1,2.31-4.1,6.33,6.33,0,0,1,4.38-1.49l.15,5.29Z" fill="#fff"/>
            </g>
          </g>
          <g id="Grupo_89733" data-name="Grupo 89733" opacity="0.4">
            <path id="Trazado_113915" data-name="Trazado 113915" d="M378,463.27s-5.6,1.78-4.87,2.69,22.34.31,31.85-.78l-.05-.43-25.19.91S379.13,463.29,378,463.27Z" fill="#fff"/>
          </g>
          <path id="Trazado_113916" data-name="Trazado 113916" d="M405.26,464.73a1.192,1.192,0,0,1-.32,0l-.94.08-3.43.24c-2.9.19-6.92.39-11.35.52s-8.46.15-11.37.13l-3.44-.05h3.44c2.91,0,6.93-.07,11.36-.19s8.45-.31,11.35-.45l3.44-.17h.93Z" fill="#20242d"/>
          <path id="Trazado_113917" data-name="Trazado 113917" d="M379.78,466a8,8,0,0,0-.69-1.63,7.581,7.581,0,0,0-1.21-1.28,2.44,2.44,0,0,1,1.4,1.16,2.53,2.53,0,0,1,.5,1.75Z" fill="#20242d"/>
          <path id="Trazado_113918" data-name="Trazado 113918" d="M385.29,463a2.344,2.344,0,0,1-.62-.71c-.29-.43-.48-.8-.43-.84s.33.28.62.71S385.34,462.93,385.29,463Z" fill="#20242d"/>
          <path id="Trazado_113919" data-name="Trazado 113919" d="M386.8,462.12c-.05.05-.35-.15-.68-.43s-.57-.55-.53-.6.34.14.68.43S386.84,462.07,386.8,462.12Z" fill="#20242d"/>
          <path id="Trazado_113920" data-name="Trazado 113920" d="M387.72,460.3a2.09,2.09,0,0,1-1,.16,2.27,2.27,0,0,1-1-.08,2.3,2.3,0,0,1,1-.15,2.43,2.43,0,0,1,1,.07Z" fill="#20242d"/>
          <path id="Trazado_113921" data-name="Trazado 113921" d="M388,459a2.78,2.78,0,0,1-2.23.23,5.2,5.2,0,0,1,1.12-.11A5.3,5.3,0,0,1,388,459Z" fill="#20242d"/>
          <path id="Trazado_113922" data-name="Trazado 113922" d="M384.6,461.34a3.819,3.819,0,0,1-1.22,0,6.682,6.682,0,0,1-1.3-.25,3.651,3.651,0,0,1-.75-.28.68.68,0,0,1-.31-.37.47.47,0,0,1,.17-.49,2.23,2.23,0,0,1,2.78.57,2.16,2.16,0,0,1,.41.8.76.76,0,0,1,.05.33,3.711,3.711,0,0,0-.59-1,2.17,2.17,0,0,0-1-.65,1.92,1.92,0,0,0-1.45.14c-.19.15-.11.37.11.5a3.807,3.807,0,0,0,.69.27,7.634,7.634,0,0,0,1.26.29C384.13,461.31,384.6,461.3,384.6,461.34Z" fill="#20242d"/>
          <path id="Trazado_113923" data-name="Trazado 113923" d="M384.29,461.41a1.21,1.21,0,0,1-.17-.85,1.91,1.91,0,0,1,.31-.89,1.21,1.21,0,0,1,1-.65.49.49,0,0,1,.4.55,1.341,1.341,0,0,1-.2.55,3.642,3.642,0,0,1-.55.75c-.37.38-.67.54-.68.51s.23-.22.56-.62a4.308,4.308,0,0,0,.49-.74c.16-.26.26-.73-.05-.77s-.61.29-.78.53a2,2,0,0,0-.33.8A4,4,0,0,0,384.29,461.41Z" fill="#20242d"/>
          <path id="Trazado_113924" data-name="Trazado 113924" d="M404.73,459.57s-.54,0-1.39.08a6,6,0,0,0-4.85,4.09c-.27.82-.28,1.37-.32,1.36s0-.13,0-.38a6.392,6.392,0,0,1,.18-1,5.77,5.77,0,0,1,5-4.2,5.072,5.072,0,0,1,1,0C404.6,459.52,404.73,459.55,404.73,459.57Z" fill="#20242d"/>
          <path id="Trazado_113925" data-name="Trazado 113925" d="M402.55,451.75a29.843,29.843,0,0,1,.27,3.88,34.174,34.174,0,0,1,.05,3.89,30.254,30.254,0,0,1-.27-3.88,34.166,34.166,0,0,1-.05-3.89Z" fill="#20242d"/>
          <path id="Trazado_113926" data-name="Trazado 113926" d="M395.71,463.43a10.479,10.479,0,0,1-2.76.35,10.8,10.8,0,0,1-2.77-.14c0-.07,1.24,0,2.76-.09A25.253,25.253,0,0,1,395.71,463.43Z" fill="#20242d"/>
          <path id="Trazado_113927" data-name="Trazado 113927" d="M399.42,463.32a4.49,4.49,0,0,1-.22.56c-.12.29-.18.54-.24.53s-.11-.29,0-.62S399.37,463.28,399.42,463.32Z" fill="#20242d"/>
          <path id="Trazado_113928" data-name="Trazado 113928" d="M400.77,461.55a1.2,1.2,0,0,1-.26.44c-.19.2-.39.34-.43.3s.07-.25.26-.45S400.72,461.5,400.77,461.55Z" fill="#20242d"/>
          <path id="Trazado_113929" data-name="Trazado 113929" d="M402.74,460.7c0,.06-.26.07-.53.17s-.47.26-.53.22.1-.31.45-.43S402.76,460.64,402.74,460.7Z" fill="#20242d"/>
          <path id="Trazado_113930" data-name="Trazado 113930" d="M404.16,460.28c0,.06-.08.16-.24.23s-.3.07-.32,0,.08-.16.23-.22S404.13,460.22,404.16,460.28Z" fill="#20242d"/>
        </g>
        <g id="Grupo_89736" data-name="Grupo 89736">
          <path id="Trazado_113931" data-name="Trazado 113931" d="M400.71,275.26a15.8,15.8,0,0,1,.72-2.73c.25-.83.55-1.82.93-2.91.19-.55.4-1.12.64-1.7.14-.32.3-.59.39-.85a2.7,2.7,0,0,0,.1-.87,11.944,11.944,0,0,0-.28-1.86c-.11-.61-.22-1.2-.33-1.78-.19-1.07-.36-2.08-.52-3a13.819,13.819,0,0,1-.34-2.8,12.892,12.892,0,0,1,.74,2.72c.2.91.42,1.91.65,3q.18.85.36,1.77a11.331,11.331,0,0,1,.31,2,3.23,3.23,0,0,1-.14,1.06,9.728,9.728,0,0,1-.41.89c-.24.57-.46,1.13-.66,1.66l-1.05,2.86A11.861,11.861,0,0,1,400.71,275.26Z" fill="#20242d"/>
          <g id="Grupo_89735" data-name="Grupo 89735" opacity="0.3">
            <path id="Trazado_113932" data-name="Trazado 113932" d="M442.67,258.15c.73,11.26,1.87,23.9,2.09,35.18,1.73-.78,5.85-3.76,5.85-4.18C450.61,289.15,445.23,270.28,442.67,258.15Z"/>
          </g>
        </g>
        <g id="Grupo_89738" data-name="Grupo 89738">
          <g id="Grupo_89737" data-name="Grupo 89737">
            <path id="Trazado_113933" data-name="Trazado 113933" d="M461.43,324.65S383.82,308.39,376.3,312s-42.16,89.21-42.16,89.21l23.37,8.58,31.73-71.06s57.16,21.55,66.65,19.58S461.43,324.65,461.43,324.65Z" fill="#20242d"/>
            <path id="Trazado_113934" data-name="Trazado 113934" d="M426.74,329.21c-1.19.4-46.08,18.85-49.25,24.79s4.61,104.43,4.61,104.43h25.54l-1.58-87.54,49.83-12.63Z" fill="#20242d"/>
            <path id="Trazado_113935" data-name="Trazado 113935" d="M456.15,358.46a3.361,3.361,0,0,1-.74-.09l-2.09-.37c-1.81-.33-4.42-.85-7.64-1.53-6.45-1.37-15.32-3.42-25-6.19-4.83-1.4-9.4-2.86-13.52-4.28s-7.78-2.83-10.82-4.12c-1.52-.62-2.88-1.23-4.07-1.78s-2.22-1-3-1.42l-1.9-1a3,3,0,0,1-.64-.37,3.928,3.928,0,0,1,.69.26l1.94.86c.84.39,1.87.83,3.08,1.33s2.57,1.1,4.1,1.69c3,1.25,6.73,2.57,10.84,4s8.68,2.83,13.5,4.22c9.65,2.77,18.5,4.89,24.91,6.35l7.61,1.72,2.07.47a3.751,3.751,0,0,1,.68.25Z" fill="#30616f"/>
            <path id="Trazado_113936" data-name="Trazado 113936" d="M377.5,376.63a7.571,7.571,0,0,1-.23-1.48c-.12-1.07-.26-2.42-.43-4s-.35-3.77-.56-6a27.448,27.448,0,0,1,0-7.42,11.55,11.55,0,0,1,3.73-6.42,19.551,19.551,0,0,1,5.11-3.29,38.7,38.7,0,0,1,3.79-1.49,6.92,6.92,0,0,1,1.43-.42c0,.11-2,.81-5,2.29a20.07,20.07,0,0,0-4.92,3.3,11.24,11.24,0,0,0-3.52,6.14,28.112,28.112,0,0,0,0,7.27c.16,2.23.31,4.26.43,6s.18,3,.24,4.05a7,7,0,0,1-.07,1.47Z" fill="#30616f"/>
            <path id="Trazado_113937" data-name="Trazado 113937" d="M399.9,368.16a9.74,9.74,0,0,1,3.14,1.07,9.891,9.891,0,0,1,2.91,1.59,9.3,9.3,0,0,1-3.14-1.06,9.531,9.531,0,0,1-2.91-1.6Z" fill="#20242d"/>
            <path id="Trazado_113938" data-name="Trazado 113938" d="M402.15,365.47a34.626,34.626,0,0,1,2,2.88c1.15,1.55,2.32,2.61,2.22,2.75a9.21,9.21,0,0,1-4.26-5.63Z" fill="#20242d"/>
          </g>
          <path id="Trazado_113939" data-name="Trazado 113939" d="M412,369.51a.922.922,0,0,1-.4.4,3,3,0,0,1-1.48.35,19.487,19.487,0,0,0-2.12.06,1.49,1.49,0,0,0-1.27,1.62c0,3.74-.15,6.83-.32,6.82a40.124,40.124,0,0,1-.26-6.85,2.36,2.36,0,0,1,.48-1.45,2,2,0,0,1,1.28-.67,11.877,11.877,0,0,1,2.22.06A3.65,3.65,0,0,0,412,369.51Z" fill="#20242d"/>
        </g>
        <g id="Grupo_89745" data-name="Grupo 89745">
          <path id="Trazado_113940" data-name="Trazado 113940" d="M407.2,189.25c-3.88,1.25-8.39,3.83-6.16,16,1,5.34,2.24,10.79,5.82,14.87a2.55,2.55,0,0,0,2.07,1.15,2.61,2.61,0,0,0,1.44-1c4.07-4.44,7.54-9.68,8.64-15.6s-.55-12.59-5.21-16.41" fill="#20242d"/>
          <g id="Grupo_89744" data-name="Grupo 89744">
            <g id="Grupo_89743" data-name="Grupo 89743">
              <path id="Trazado_113941" data-name="Trazado 113941" d="M414.64,242c-.13-5.58-.37-11.58-.37-11.58s-8.5-1.07-8.86-9.74-.46-23.87-.46-23.87l16.6-12.3,11.65,16,.29,41.17a9.42,9.42,0,0,1-9.43,9.49h0a9.43,9.43,0,0,1-9.42-9.17Z" fill="#ffbf9d"/>
              <path id="Trazado_113942" data-name="Trazado 113942" d="M414.27,230.4a20.66,20.66,0,0,0,11.26-3.68s-2.65,6.32-11.11,5.81Z" fill="#ff9a6c"/>
              <path id="Trazado_113943" data-name="Trazado 113943" d="M415,220.3a1.06,1.06,0,0,1,.1-1,1,1,0,0,1,.93-.41,1.61,1.61,0,0,1,1.63-1.42,1.81,1.81,0,0,1,1.64,1.47,2.11,2.11,0,0,1-.92,2.06,2.51,2.51,0,0,1-2.29.17,1.8,1.8,0,0,1-1.15-1.37" fill="#ff9a6c"/>
              <g id="Grupo_89742" data-name="Grupo 89742">
                <g id="Grupo_89741" data-name="Grupo 89741">
                  <g id="Grupo_89739" data-name="Grupo 89739">
                    <path id="Trazado_113944" data-name="Trazado 113944" d="M406.7,207.31a1.19,1.19,0,0,0,1.15,1.2,1.14,1.14,0,0,0,1.23-1.08,1.2,1.2,0,0,0-1.15-1.2,1.16,1.16,0,0,0-1.23,1.08Z" fill="#20242d"/>
                    <path id="Trazado_113945" data-name="Trazado 113945" d="M406.76,206.33c.15.15,1.05-.51,2.33-.51s2.22.64,2.36.49-.08-.35-.49-.65a3.21,3.21,0,0,0-1.89-.58,3.07,3.07,0,0,0-1.86.6C406.82,206,406.69,206.26,406.76,206.33Z" fill="#20242d"/>
                  </g>
                  <g id="Grupo_89740" data-name="Grupo 89740">
                    <path id="Trazado_113946" data-name="Trazado 113946" d="M419.56,207.43a1.2,1.2,0,0,0,1.15,1.2,1.14,1.14,0,0,0,1.23-1.08,1.2,1.2,0,0,0-1.15-1.2A1.16,1.16,0,0,0,419.56,207.43Z" fill="#20242d"/>
                    <path id="Trazado_113947" data-name="Trazado 113947" d="M419.35,206.57c.15.15,1-.52,2.33-.51s2.22.64,2.36.49-.08-.35-.49-.65a3.19,3.19,0,0,0-1.89-.58,3.08,3.08,0,0,0-1.85.59C419.41,206.22,419.28,206.5,419.35,206.57Z" fill="#20242d"/>
                  </g>
                  <path id="Trazado_113948" data-name="Trazado 113948" d="M414.7,216.07a8.73,8.73,0,0,0-2.08-.38c-.33,0-.64-.1-.69-.32a1.63,1.63,0,0,1,.22-1c.3-.79.63-1.62,1-2.49a43.306,43.306,0,0,0,2.17-6.52,41.943,41.943,0,0,0-2.69,6.33c-.33.87-.64,1.71-.93,2.51a1.89,1.89,0,0,0-.17,1.28.85.85,0,0,0,.54.48,2.431,2.431,0,0,0,.55.08A8.38,8.38,0,0,0,414.7,216.07Z" fill="#20242d"/>
                  <path id="Trazado_113949" data-name="Trazado 113949" d="M418.47,217c-.21,0-.21,1.38-1.4,2.37s-2.67.83-2.68,1,.33.27,1,.29a3.46,3.46,0,0,0,2.23-.78,3,3,0,0,0,1.09-2C418.72,217.29,418.57,217,418.47,217Z" fill="#20242d"/>
                </g>
                <path id="Trazado_113950" data-name="Trazado 113950" d="M418.78,203.71c.12.34,1.4.18,2.9.36s2.72.59,2.92.28c.09-.15-.12-.48-.61-.82a5,5,0,0,0-2.16-.75,4.91,4.91,0,0,0-2.28.26C419,203.27,418.72,203.54,418.78,203.71Z" fill="#20242d"/>
                <path id="Trazado_113951" data-name="Trazado 113951" d="M407.23,202.62c.22.29,1.11,0,2.17,0s2,.2,2.17-.1-.06-.44-.45-.72a3.12,3.12,0,0,0-3.49.11C407.25,202.18,407.13,202.48,407.23,202.62Z" fill="#20242d"/>
              </g>
            </g>
            <path id="Trazado_113952" data-name="Trazado 113952" d="M425.5,203a6.7,6.7,0,0,0,4.22-1.51c.77,2.05.75,4.31,1.46,6.39s1.39,22,3.56,21.68c2-.29,4.35-20.31,4.86-22.25,1.4-5.37-.36-11.28-3.93-15.53-4.23-5-11.29-9.34-17.86-8.87a14.74,14.74,0,0,0-8.14,2.86s-3.54,2.74-3.24,6.22c.41,4.86,7.49,8,12.36,7.84l.7.67a8.44,8.44,0,0,0,6.01,2.5Z" fill="#20242d"/>
            <path id="Trazado_113953" data-name="Trazado 113953" d="M404.9,201.42a7.22,7.22,0,0,0,2.42-3.89,21.709,21.709,0,0,0,.57-4.62c0-.45-.05-1-.48-1.15s-.77.32-1,.71a15,15,0,0,0-1.53,9.39c.09-.08-.29.25-.2.16" fill="#20242d"/>
          </g>
        </g>
      </g>
      <g id="Grupo_89766" data-name="Grupo 89766">
        <g id="Grupo_89750" data-name="Grupo 89750">
          <g id="Grupo_89748" data-name="Grupo 89748">
            <path id="Trazado_113954" data-name="Trazado 113954" d="M284.62,462.54l.06-10.39-19.46-.24-.25,15.2,1.2.09c5.37.37,27.32,1.47,30.93.43C301.12,466.46,284.62,462.54,284.62,462.54Z" fill="#5591ba"/>
            <g id="Grupo_89747" data-name="Grupo 89747" opacity="0.4">
              <path id="Trazado_113955" data-name="Trazado 113955" d="M272,467a6.77,6.77,0,0,0-2.44-4.18,6.6,6.6,0,0,0-4.53-1.47l-.07,5.44Z"/>
            </g>
          </g>
          <g id="Grupo_89749" data-name="Grupo 89749" opacity="0.4">
            <path id="Trazado_113956" data-name="Trazado 113956" d="M292.68,464.74s5.77,1.75,5,2.69-23,.66-32.75-.32v-.43l25.92.55S291.54,464.78,292.68,464.74Z"/>
          </g>
          <path id="Trazado_113957" data-name="Trazado 113957" d="M264.7,466.66h.33l1,.07,3.54.2c3,.15,7.12.29,11.68.35s8.69,0,11.68,0l3.54-.1h1.33a1.3,1.3,0,0,0-.34,0H281.24c-4.56,0-8.69-.18-11.67-.29l-3.54-.12h-1a1.8,1.8,0,0,0-.33-.11Z" fill="#20242d"/>
          <path id="Trazado_113958" data-name="Trazado 113958" d="M290.92,467.53a7.52,7.52,0,0,1,.68-1.68,7.858,7.858,0,0,1,1.22-1.34,3.13,3.13,0,0,0-1.9,3Z" fill="#20242d"/>
          <path id="Trazado_113959" data-name="Trazado 113959" d="M285.21,464.54a2.54,2.54,0,0,0,.62-.74,2.17,2.17,0,0,0,.43-.86,2.382,2.382,0,0,0-.62.74,2.17,2.17,0,0,0-.43.86Z" fill="#20242d"/>
          <path id="Trazado_113960" data-name="Trazado 113960" d="M283.64,463.69c.05.05.36-.15.7-.45s.58-.58.53-.63-.35.16-.69.45S283.6,463.64,283.64,463.69Z" fill="#20242d"/>
          <path id="Trazado_113961" data-name="Trazado 113961" d="M282.67,461.84a2.19,2.19,0,0,0,1,.14,2.24,2.24,0,0,0,1-.09,2.143,2.143,0,0,0-1-.14,2.3,2.3,0,0,0-1,.09Z" fill="#20242d"/>
          <path id="Trazado_113962" data-name="Trazado 113962" d="M282.35,460.54a1.88,1.88,0,0,0,1.12.34,2,2,0,0,0,1.18-.14,7.868,7.868,0,0,0-1.15-.09,7.271,7.271,0,0,0-1.15-.11Z" fill="#20242d"/>
          <path id="Trazado_113963" data-name="Trazado 113963" d="M285.89,462.85a3.291,3.291,0,0,0,1.25,0,7.057,7.057,0,0,0,1.34-.27,3.934,3.934,0,0,0,.76-.31.65.65,0,0,0,.32-.38.51.51,0,0,0-.18-.51,2.32,2.32,0,0,0-3.27,1.47c-.05.21-.05.33,0,.34a3.261,3.261,0,0,1,.58-1.06,2.21,2.21,0,0,1,1.08-.68,1.89,1.89,0,0,1,1.49.12c.19.15.11.38-.11.51a4.408,4.408,0,0,1-.71.29,8,8,0,0,1-1.29.32C286.37,462.82,285.89,462.82,285.89,462.85Z" fill="#20242d"/>
          <path id="Trazado_113964" data-name="Trazado 113964" d="M286.21,462.92a1.22,1.22,0,0,0,.16-.87,2,2,0,0,0-.33-.91,1.29,1.29,0,0,0-1-.66.52.52,0,0,0-.4.58,1.34,1.34,0,0,0,.21.56,3.769,3.769,0,0,0,.58.76,1.93,1.93,0,0,0,.71.52,7.8,7.8,0,0,1-.59-.63,4.538,4.538,0,0,1-.51-.76c-.17-.26-.28-.74,0-.79s.63.29.82.54a2.21,2.21,0,0,1,.35.82A4.72,4.72,0,0,1,286.21,462.92Z" fill="#20242d"/>
          <path id="Trazado_113965" data-name="Trazado 113965" d="M265.16,461.34s.56,0,1.44.07a6.3,6.3,0,0,1,3.12,1.33,6.39,6.39,0,0,1,1.93,2.8c.28.84.31,1.4.35,1.39a1.491,1.491,0,0,0,0-.39,5.8,5.8,0,0,0-.2-1.05,5.94,5.94,0,0,0-5.19-4.25,5.089,5.089,0,0,0-1.07,0A1.352,1.352,0,0,0,265.16,461.34Z" fill="#20242d"/>
          <path id="Trazado_113966" data-name="Trazado 113966" d="M267.29,453.27a31,31,0,0,0-.22,4,35.234,35.234,0,0,0,0,4,31,31,0,0,0,.22-4,35.235,35.235,0,0,0,0-4Z" fill="#20242d"/>
          <path id="Trazado_113967" data-name="Trazado 113967" d="M274.5,465.18a11.449,11.449,0,0,0,2.84.32,10.731,10.731,0,0,0,2.85-.2c0-.06-1.28,0-2.85,0S274.51,465.11,274.5,465.18Z" fill="#20242d"/>
          <path id="Trazado_113968" data-name="Trazado 113968" d="M270.69,465.12c-.05.05.1.27.22.57s.2.55.26.55.11-.31,0-.65S270.73,465.08,270.69,465.12Z" fill="#20242d"/>
          <path id="Trazado_113969" data-name="Trazado 113969" d="M269.27,463.32a1.254,1.254,0,0,0,.28.45c.2.2.39.34.44.29s-.07-.24-.27-.45S269.32,463.27,269.27,463.32Z" fill="#20242d"/>
          <path id="Trazado_113970" data-name="Trazado 113970" d="M267.23,462.47c0,.07.27.07.55.17s.49.26.54.22-.11-.31-.46-.44S267.21,462.41,267.23,462.47Z" fill="#20242d"/>
          <path id="Trazado_113971" data-name="Trazado 113971" d="M265.77,462.07c0,.06.08.16.24.22s.31.07.34,0-.09-.16-.25-.22S265.79,462,265.77,462.07Z" fill="#20242d"/>
        </g>
        <g id="Grupo_89754" data-name="Grupo 89754">
          <g id="Grupo_89752" data-name="Grupo 89752">
            <path id="Trazado_113972" data-name="Trazado 113972" d="M209,462.54V452.15l19.46-.24.25,15.2-1.21.09c-5.36.37-27.31,1.47-30.92.43C192.53,466.46,209,462.54,209,462.54Z" fill="#5591ba"/>
            <g id="Grupo_89751" data-name="Grupo 89751" opacity="0.4">
              <path id="Trazado_113973" data-name="Trazado 113973" d="M221.62,467a6.76,6.76,0,0,1,2.43-4.18,6.62,6.62,0,0,1,4.54-1.47l.07,5.44Z"/>
            </g>
          </g>
          <g id="Grupo_89753" data-name="Grupo 89753" opacity="0.4">
            <path id="Trazado_113974" data-name="Trazado 113974" d="M201,464.74s-5.78,1.75-5,2.69,23,.66,32.75-.32v-.43l-25.92.55S202.1,464.78,201,464.74Z"/>
          </g>
          <path id="Trazado_113975" data-name="Trazado 113975" d="M229,466.66h-.34l-1,.07-3.53.2c-3,.15-7.12.29-11.68.35s-8.7,0-11.69,0l-3.54-.1h-1.33a1.189,1.189,0,0,1,.33,0h16.22c4.56,0,8.68-.18,11.67-.29l3.54-.12h1A1.8,1.8,0,0,1,229,466.66Z" fill="#20242d"/>
          <path id="Trazado_113976" data-name="Trazado 113976" d="M202.73,467.53a8.15,8.15,0,0,0-.68-1.68,7.858,7.858,0,0,0-1.22-1.34,3.13,3.13,0,0,1,1.9,3Z" fill="#20242d"/>
          <path id="Trazado_113977" data-name="Trazado 113977" d="M208.44,464.54a2.341,2.341,0,0,1-.63-.74c-.29-.45-.48-.83-.42-.86s.33.29.62.74A2.17,2.17,0,0,1,208.44,464.54Z" fill="#20242d"/>
          <path id="Trazado_113978" data-name="Trazado 113978" d="M210,463.69c0,.05-.35-.15-.69-.45s-.58-.58-.53-.63.35.16.69.45S210.05,463.64,210,463.69Z" fill="#20242d"/>
          <path id="Trazado_113979" data-name="Trazado 113979" d="M211,461.84a2.231,2.231,0,0,1-1,.14,2.3,2.3,0,0,1-1-.09,2.23,2.23,0,0,1,1-.14,2.3,2.3,0,0,1,1,.09Z" fill="#20242d"/>
          <path id="Trazado_113980" data-name="Trazado 113980" d="M211.3,460.54a1.89,1.89,0,0,1-1.13.34,2,2,0,0,1-1.17-.14,7.869,7.869,0,0,1,1.15-.09,7.27,7.27,0,0,1,1.15-.11Z" fill="#20242d"/>
          <path id="Trazado_113981" data-name="Trazado 113981" d="M207.76,462.85a3.291,3.291,0,0,1-1.25,0,7.056,7.056,0,0,1-1.34-.27,4.268,4.268,0,0,1-.77-.31.67.67,0,0,1-.31-.38.51.51,0,0,1,.18-.51,2.32,2.32,0,0,1,3.27,1.47c.05.21.05.33,0,.34a3.26,3.26,0,0,0-.58-1.06,2.21,2.21,0,0,0-1.08-.68,1.89,1.89,0,0,0-1.49.12c-.19.15-.11.38.11.51a4.063,4.063,0,0,0,.71.29,7.791,7.791,0,0,0,1.29.32C207.28,462.82,207.76,462.82,207.76,462.85Z" fill="#20242d"/>
          <path id="Trazado_113982" data-name="Trazado 113982" d="M207.43,462.92a1.32,1.32,0,0,1-.15-.87,1.91,1.91,0,0,1,.33-.91,1.27,1.27,0,0,1,1-.66.5.5,0,0,1,.39.58,1.33,1.33,0,0,1-.2.56,3.771,3.771,0,0,1-.58.76,1.93,1.93,0,0,1-.71.52s.24-.23.58-.63a4,4,0,0,0,.52-.76c.17-.26.28-.74,0-.79s-.63.29-.81.54a2.05,2.05,0,0,0-.35.82,4.29,4.29,0,0,0-.02.84Z" fill="#20242d"/>
          <path id="Trazado_113983" data-name="Trazado 113983" d="M228.48,461.34s-.55,0-1.43.07a6.1,6.1,0,0,0-5.05,4.13c-.29.84-.31,1.4-.35,1.39s0-.14,0-.39a5.8,5.8,0,0,1,.2-1.05,5.94,5.94,0,0,1,5.19-4.25,5.09,5.09,0,0,1,1.07,0A1.119,1.119,0,0,1,228.48,461.34Z" fill="#20242d"/>
          <path id="Trazado_113984" data-name="Trazado 113984" d="M226.36,453.27a31,31,0,0,1,.22,4,35.227,35.227,0,0,1,0,4,31,31,0,0,1-.22-4,35.234,35.234,0,0,1,0-4Z" fill="#20242d"/>
          <path id="Trazado_113985" data-name="Trazado 113985" d="M219.15,465.18a11.449,11.449,0,0,1-2.84.32,10.731,10.731,0,0,1-2.85-.2c0-.06,1.28,0,2.84,0S219.14,465.11,219.15,465.18Z" fill="#20242d"/>
          <path id="Trazado_113986" data-name="Trazado 113986" d="M223,465.12a4.126,4.126,0,0,1-.23.57c-.13.3-.19.55-.26.55s-.1-.31.05-.65S222.92,465.08,223,465.12Z" fill="#20242d"/>
          <path id="Trazado_113987" data-name="Trazado 113987" d="M224.38,463.32a1.254,1.254,0,0,1-.28.45c-.2.2-.4.34-.44.29s.07-.24.27-.45S224.33,463.27,224.38,463.32Z" fill="#20242d"/>
          <path id="Trazado_113988" data-name="Trazado 113988" d="M226.42,462.47c0,.07-.27.07-.55.17s-.49.26-.54.22.1-.31.46-.44S226.44,462.41,226.42,462.47Z" fill="#20242d"/>
          <path id="Trazado_113989" data-name="Trazado 113989" d="M227.88,462.07c0,.06-.08.16-.24.22s-.31.07-.34,0,.09-.16.25-.22S227.86,462,227.88,462.07Z" fill="#20242d"/>
        </g>
        <g id="Grupo_89755" data-name="Grupo 89755">
          <path id="Trazado_113990" data-name="Trazado 113990" d="M297.75,263.51,290.29,458.6l-30.31.64,5.03-169.04-34.1,170.33H202.1l37.12-196.62Z" fill="#20242d"/>
          <path id="Trazado_113991" data-name="Trazado 113991" d="M272,270.61a18.222,18.222,0,0,1-.34,3.22c-.29,2-.71,4.7-1.22,7.7a33.248,33.248,0,0,1-.86,4.23,6,6,0,0,1-2,3,4.64,4.64,0,0,1-2.2,1,1.781,1.781,0,0,1-.89,0,5.44,5.44,0,0,0,4.6-4.1,37.336,37.336,0,0,0,.8-4.17c.51-3,1-5.72,1.37-7.67A20.422,20.422,0,0,1,272,270.61Z" fill="#20242d"/>
          <path id="Trazado_113992" data-name="Trazado 113992" d="M265.69,271.55c.06.05-.18.36,0,.88a1.05,1.05,0,0,0,.51.65.85.85,0,0,0,.9-.18.83.83,0,0,0,.29-.87,1,1,0,0,0-.58-.59c-.49-.21-.83,0-.87-.08s.28-.44,1-.28a1.32,1.32,0,0,1,.92.77,1.37,1.37,0,0,1-1.88,1.66,1.33,1.33,0,0,1-.65-1C265.21,271.77,265.67,271.48,265.69,271.55Z" fill="#20242d"/>
          <path id="Trazado_113993" data-name="Trazado 113993" d="M249.41,274.33a5.68,5.68,0,0,1,.58-5.41c.14.06-.3,1.21-.45,2.69S249.56,274.3,249.41,274.33Z" fill="#20242d"/>
          <path id="Trazado_113994" data-name="Trazado 113994" d="M253.05,274.1a6.67,6.67,0,0,1,.4-5.65,27.548,27.548,0,0,1-.3,2.82A21.775,21.775,0,0,1,253.05,274.1Z" fill="#20242d"/>
          <path id="Trazado_113995" data-name="Trazado 113995" d="M284.38,274.89a18.669,18.669,0,0,1,.17-2.93,18.615,18.615,0,0,1,.13-2.93,5.47,5.47,0,0,1,.41,3A5.38,5.38,0,0,1,284.38,274.89Z" fill="#20242d"/>
          <path id="Trazado_113996" data-name="Trazado 113996" d="M288.34,274.67c-.14-.06.33-1.33.43-3s-.16-3,0-3a6.27,6.27,0,0,1-.42,6Z" fill="#20242d"/>
        </g>
        <g id="Grupo_89763" data-name="Grupo 89763">
          <g id="Grupo_89762" data-name="Grupo 89762">
            <g id="Grupo_89756" data-name="Grupo 89756">
              <path id="Trazado_113997" data-name="Trazado 113997" d="M255.52,182.35l18.72-1.49c.11-2.19,0-10.64,0-10.64s7.78-1.21,7.88-9-1.25-25.66-1.25-25.66h0A27.07,27.07,0,0,0,253.64,139l-1.15.89Z" fill="#ffbf9d"/>
              <path id="Trazado_113998" data-name="Trazado 113998" d="M274.21,170.11a18.09,18.09,0,0,1-10.15-2.89s2.4,5.61,10.17,4.91Z" fill="#ff9a6c"/>
            </g>
            <g id="Grupo_89757" data-name="Grupo 89757">
              <path id="Trazado_113999" data-name="Trazado 113999" d="M253.44,147.93c-.13-.05-5.34-1.58-5.17,3.74s5.47,4.06,5.48,3.9S253.44,147.93,253.44,147.93Z" fill="#ffbf9d"/>
              <path id="Trazado_114000" data-name="Trazado 114000" d="M252.06,153.61a1.273,1.273,0,0,1-.25.14.87.87,0,0,1-.69,0,2.31,2.31,0,0,1-1.13-2,3.05,3.05,0,0,1,.22-1.34,1.07,1.07,0,0,1,.67-.73.48.48,0,0,1,.56.23,1,1,0,0,1,.07.27.319.319,0,0,0,.07-.32.69.69,0,0,0-.22-.32.7.7,0,0,0-.52-.12,1.29,1.29,0,0,0-.94.85,3.17,3.17,0,0,0-.28,1.5,2.39,2.39,0,0,0,1.43,2.25,1,1,0,0,0,.84-.16C252.05,153.74,252.08,153.62,252.06,153.61Z" fill="#ff9a6c"/>
            </g>
            <g id="Grupo_89761" data-name="Grupo 89761">
              <g id="Grupo_89760" data-name="Grupo 89760">
                <g id="Grupo_89758" data-name="Grupo 89758">
                  <path id="Trazado_114001" data-name="Trazado 114001" d="M279.11,147.77a1.12,1.12,0,0,1-1.07,1.12,1.07,1.07,0,0,1-1.15-1,1.11,1.11,0,0,1,1.07-1.12,1.07,1.07,0,0,1,1.15,1Z" fill="#20242d"/>
                  <path id="Trazado_114002" data-name="Trazado 114002" d="M279.35,146.52c-.14.14-1-.48-2.17-.48s-2.08.6-2.21.45.08-.32.46-.6a3,3,0,0,1,1.77-.54,2.85,2.85,0,0,1,1.73.56C279.3,146.19,279.42,146.45,279.35,146.52Z" fill="#20242d"/>
                </g>
                <g id="Grupo_89759" data-name="Grupo 89759">
                  <path id="Trazado_114003" data-name="Trazado 114003" d="M267.39,148.05a1.12,1.12,0,0,1-1.07,1.12,1.06,1.06,0,0,1-1.14-1,1.12,1.12,0,0,1,1.07-1.13,1.06,1.06,0,0,1,1.14,1.01Z" fill="#20242d"/>
                  <path id="Trazado_114004" data-name="Trazado 114004" d="M267.59,146.74c-.13.14-1-.48-2.17-.48s-2.08.6-2.21.46.08-.33.46-.61a3.15,3.15,0,0,1,1.77-.54,2.91,2.91,0,0,1,1.73.56C267.54,146.41,267.66,146.67,267.59,146.74Z" fill="#20242d"/>
                </g>
                <path id="Trazado_114005" data-name="Trazado 114005" d="M271.93,155.61a7.711,7.711,0,0,1,1.95-.35c.3,0,.59-.09.64-.3a1.49,1.49,0,0,0-.2-.91c-.29-.74-.59-1.51-.9-2.32a38.407,38.407,0,0,1-2-6.09,40.439,40.439,0,0,1,2.51,5.91q.45,1.23.87,2.34a1.84,1.84,0,0,1,.16,1.2.81.81,0,0,1-.51.45,2,2,0,0,1-.52.07A7.91,7.91,0,0,1,271.93,155.61Z" fill="#20242d"/>
                <path id="Trazado_114006" data-name="Trazado 114006" d="M268.41,156.44c.2,0,.2,1.29,1.31,2.21s2.5.78,2.51,1-.31.25-.9.27a3.26,3.26,0,0,1-2.09-.73,2.84,2.84,0,0,1-1-1.85C268.18,156.75,268.33,156.43,268.41,156.44Z" fill="#20242d"/>
              </g>
              <path id="Trazado_114007" data-name="Trazado 114007" d="M267.9,142.05c-.12.33-1.31.17-2.71.34s-2.54.55-2.73.26.11-.45.57-.76a4.73,4.73,0,0,1,2-.71,4.56,4.56,0,0,1,2.13.25C267.69,141.64,268,141.9,267.9,142.05Z" fill="#20242d"/>
              <path id="Trazado_114008" data-name="Trazado 114008" d="M278.91,143.05c-.21.27-1,0-2,0s-1.83.18-2-.1.05-.41.42-.67a2.76,2.76,0,0,1,1.64-.45,2.83,2.83,0,0,1,1.62.55C278.89,142.64,279,142.92,278.91,143.05Z" fill="#20242d"/>
            </g>
          </g>
          <path id="Trazado_114009" data-name="Trazado 114009" d="M284.62,130.65a2.9,2.9,0,0,0-1.06-2.57,2,2,0,0,0-2.64.2,2.39,2.39,0,0,0-2.05-2.89c-1.27-.08-2.35.88-3.58,1.22a5.78,5.78,0,0,1-3.63-.42c-1.15-.46-2.23-1.11-3.4-1.53a9.94,9.94,0,0,0-12.73,5.84,4.44,4.44,0,0,0-4.69,1.78,7.25,7.25,0,0,0-1.11,5.11,16.408,16.408,0,0,0,.89,3.49q0,.15,0,.3c.08,4.28.57,9.31,2.39,9.33,3.19.05,2.43-5.94,2.43-5.94,3.91-1.51,2.45-7.37,3.43-8.25s3-3,11.2,1.22a15.73,15.73,0,0,0,9.7,1.05h.3a7.9,7.9,0,0,0,2.1-.89,4.2,4.2,0,0,0,1.73-1.93,2.27,2.27,0,0,0-.45-2.43A5,5,0,0,0,284.62,130.65Z" fill="#20242d"/>
        </g>
        <g id="Grupo_89765" data-name="Grupo 89765">
          <g id="Grupo_89764" data-name="Grupo 89764">
            <path id="Trazado_114010" data-name="Trazado 114010" d="M246.52,179.42c2.62-.5,5.18-1.45,8.26-1.58h0a33.13,33.13,0,0,0,20,0c.81.1,1.94.21,3.35.38,8.67,1,12,2.85,18.22,9l-.68,35.08s2.09,39.92,1.94,46.37H238.33l-.05-27.07v-7.37l-19.5,7.08,1.78-10.23s8.73-33.91,10.09-38.48C232.31,187,238.26,181,246.52,179.42Z" fill="#5591ba"/>
            <path id="Trazado_114011" data-name="Trazado 114011" d="M227.72,231.64l29.2-4.15,5.55,9.94-27.14,12.24a11.79,11.79,0,0,1-4.82,1h0a11.719,11.719,0,0,1-10.839-7.268l-.881-2.142Z" fill="#5591ba"/>
            <path id="Trazado_114012" data-name="Trazado 114012" d="M283.22,222.71l-.64-.47a14.56,14.56,0,0,0-11.49-2.66h0a20.06,20.06,0,0,0-8.94,4.2l-5,4.12,5.33,9.53,3.61-5.07s3.38,4.59,4,4.11a7.91,7.91,0,0,0,1.32-1.93L269,231.16l5.79,1.2,8.45-3.86-3.62-4.58,3.62,1.21Z" fill="#ffbf9d"/>
            <path id="Trazado_114013" data-name="Trazado 114013" d="M287.37,180.46s8.25,2.81,11.72,10.74c2.26,5.18,5.58,30.1,5.58,30.1l4.19,8.08a13.57,13.57,0,0,1,1.53,6.27v1.23a13.6,13.6,0,0,1-3.06,8.6h0a13.6,13.6,0,0,1-9.36,5c-4.18.37-9.24.54-10.32-.7-1.91-2.18-4.77-8-4.77-8l12.2-6.48-5.25-9.73Z" fill="#5591ba"/>
            <path id="Trazado_114014" data-name="Trazado 114014" d="M237.36,248.75a2,2,0,0,1,.47-.27l1.4-.67,5.24-2.45,17.89-8.17-.12.37c-1.11-2-2.25-4-3.43-6.12-.73-1.31-1.44-2.6-2.13-3.82l.26.14-21.38,2.09-6.36.57-1.72.13a2.11,2.11,0,0,1-.6,0,4.091,4.091,0,0,1,.59-.11l1.71-.22,6.34-.73,21.37-2.27h.17l.09.15,2.13,3.81,3.41,6.13.14.25-.26.12-18,8-5.3,2.3-1.44.6a2.942,2.942,0,0,1-.47.17Z" fill="#20242d"/>
            <path id="Trazado_114015" data-name="Trazado 114015" d="M242.54,228.76c-.14,0-.26-5.22-.26-11.66s.12-11.66.26-11.66.27,5.22.27,11.66S242.69,228.76,242.54,228.76Z" fill="#20242d"/>
            <path id="Trazado_114016" data-name="Trazado 114016" d="M292.79,236.55a2.35,2.35,0,0,1,.89-.14,8.27,8.27,0,0,1,2.46.15,2.91,2.91,0,0,1,1.55.87,4.06,4.06,0,0,1,.8,1.86,4.27,4.27,0,0,1-.2,2.22,4.15,4.15,0,0,1-1.47,1.9,11.21,11.21,0,0,1-4.23,1.51,19.281,19.281,0,0,1-3.62.35,6.73,6.73,0,0,1-3.29-.57,17.172,17.172,0,0,0,3.28.19,22.242,22.242,0,0,0,3.53-.46,11.23,11.23,0,0,0,4-1.45,3.79,3.79,0,0,0,.84-5.27,2.6,2.6,0,0,0-1.3-.79,9.79,9.79,0,0,0-2.36-.3A3.2,3.2,0,0,1,292.79,236.55Z" fill="#20242d"/>
            <path id="Trazado_114017" data-name="Trazado 114017" d="M297.63,250.66a6,6,0,0,1-2.09.25,13.39,13.39,0,0,1-5.05-.84,10.86,10.86,0,0,1-2.51-1.33,6.16,6.16,0,0,1-1.55-1.75,4.581,4.581,0,0,1-.75-2c.09,0,.36.73,1.07,1.78a6.18,6.18,0,0,0,1.52,1.56,11.922,11.922,0,0,0,2.42,1.24,15.72,15.72,0,0,0,4.85.95,13,13,0,0,1,2.09.14Z" fill="#20242d"/>
            <path id="Trazado_114018" data-name="Trazado 114018" d="M303.46,225.37A9.4,9.4,0,0,1,302,227.1c-.93,1-2.26,2.43-3.74,4s-2.84,2.87-3.85,3.84a9.729,9.729,0,0,1-1.7,1.48,9.21,9.21,0,0,1,1.43-1.75c.94-1,2.26-2.42,3.74-4a53.2,53.2,0,0,1,5.58-5.3Z" fill="#20242d"/>
            <path id="Trazado_114019" data-name="Trazado 114019" d="M290.17,219.93a41.169,41.169,0,0,1-.27-6.66,41.241,41.241,0,0,1,.27-6.67,41.241,41.241,0,0,1,.27,6.67,41.17,41.17,0,0,1-.27,6.66Z" fill="#20242d"/>
            <path id="Trazado_114020" data-name="Trazado 114020" d="M298.21,191.33c0,.15-14.95.27-33.39.27s-33.39-.12-33.39-.27,14.94-.27,33.39-.27S298.21,191.18,298.21,191.33Z" fill="#e1e1e1"/>
            <path id="Trazado_114021" data-name="Trazado 114021" d="M299.93,196.65c0,.15-15.76.26-35.19.26s-35.19-.11-35.19-.26,15.75-.27,35.19-.27S299.93,196.5,299.93,196.65Z" fill="#e1e1e1"/>
            <path id="Trazado_114022" data-name="Trazado 114022" d="M295.55,186.48c0,.15-13.73.27-30.65.27s-30.66-.12-30.66-.27,13.72-.26,30.66-.26S295.55,186.33,295.55,186.48Z" fill="#e1e1e1"/>
            <path id="Trazado_114023" data-name="Trazado 114023" d="M298.35,266.75c0,.15-13.43.27-30,.27s-30-.12-30-.27,13.44-.27,30-.27S298.35,266.6,298.35,266.75Z" fill="#e1e1e1"/>
            <path id="Trazado_114024" data-name="Trazado 114024" d="M298,263.34c0,.14-13.25.26-29.6.26s-29.6-.12-29.6-.26,13.25-.27,29.6-.27S298,263.19,298,263.34Z" fill="#e1e1e1"/>
            <path id="Trazado_114025" data-name="Trazado 114025" d="M297.35,258.92c0,.15-13.21.27-29.5.27s-29.51-.12-29.51-.27,13.21-.27,29.51-.27S297.35,258.77,297.35,258.92Z" fill="#e1e1e1"/>
            <path id="Trazado_114026" data-name="Trazado 114026" d="M254.29,240.65a5.32,5.32,0,0,1-1.49-1.39,14.05,14.05,0,0,1-3.24-9.18,5.44,5.44,0,0,1,.28-2,18.21,18.21,0,0,0,4.45,12.6Z" fill="#e1e1e1"/>
            <path id="Trazado_114027" data-name="Trazado 114027" d="M251.55,242.29a6.26,6.26,0,0,1-1.62-1.54,15.53,15.53,0,0,1-3.49-10,6.42,6.42,0,0,1,.31-2.21,19.38,19.38,0,0,0,4.8,13.79Z" fill="#e1e1e1"/>
            <path id="Trazado_114028" data-name="Trazado 114028" d="M248.92,243.62a6.43,6.43,0,0,1-1.81-1.54,14,14,0,0,1-3.5-10.7,6.25,6.25,0,0,1,.55-2.31c.09,0-.11.9-.17,2.34a15.576,15.576,0,0,0,3.4,10.43C248.3,243,249,243.55,248.92,243.62Z" fill="#e1e1e1"/>
            <path id="Trazado_114029" data-name="Trazado 114029" d="M286.55,245.76a7.27,7.27,0,0,0,.9.56,6.58,6.58,0,0,0,2.74.69,23.06,23.06,0,0,0,4.27-.28,6.65,6.65,0,0,0,4.47-2.19,6.33,6.33,0,0,0,1.33-4.76,6.72,6.72,0,0,0-1.85-3.68,10.17,10.17,0,0,0-3.27-2.13,2.74,2.74,0,0,1,1.05.27,7.53,7.53,0,0,1,2.49,1.59,7,7,0,0,1,2.07,3.88,6.71,6.71,0,0,1-1.4,5.17,5.9,5.9,0,0,1-2.29,1.7,9.7,9.7,0,0,1-2.53.64,20.779,20.779,0,0,1-4.37.16,6.08,6.08,0,0,1-2.82-.88,2.41,2.41,0,0,1-.79-.74Z" fill="#e1e1e1"/>
            <path id="Trazado_114030" data-name="Trazado 114030" d="M297.19,232.29h.32a3.73,3.73,0,0,1,.93.16,5.9,5.9,0,0,1,2.74,2.07,14,14,0,0,1,2.28,4.55,8.59,8.59,0,0,1,.34,3,6.74,6.74,0,0,1-1.1,3.1,9.5,9.5,0,0,1-5,3.66,15.251,15.251,0,0,1-5.06.58,32.1,32.1,0,0,1-3.39-.36,5.33,5.33,0,0,1-1.22-.27c0-.1,1.77.19,4.62.25a15.4,15.4,0,0,0,4.89-.67,9.2,9.2,0,0,0,4.75-3.48,6.24,6.24,0,0,0,1-2.86,7.92,7.92,0,0,0-.29-2.85,14.169,14.169,0,0,0-2.1-4.45,6,6,0,0,0-2.51-2.1C297.64,232.34,297.18,232.35,297.19,232.29Z" fill="#e1e1e1"/>
            <path id="Trazado_114031" data-name="Trazado 114031" d="M274.3,221.84l-18.58,22.5,1.42,1.54,30.16-4.59,14.95-22.5-1.39-1.25Z" fill="#20242d"/>
            <path id="Trazado_114032" data-name="Trazado 114032" d="M294,227.78h0a2.85,2.85,0,0,0-2.68,1.83c-.45,1.16-1.1,2.52-1.83,2.92-1.34.73-3.65,1.31-4.87.72s-6.09-5-6.94-4.5-1.59,1.59-.73,2.56,5.36,3.9,4.5,4.87-10.35-3.31-11.81-2.93-2.32,1.27-1.46,1.86,7.3,3,7.67,3.88c0,0-9.75-2.56-10.11-2s-1,1.58,0,2,9.38,2.55,10.11,2.92a18,18,0,0,0,3.76,1.09,40.19,40.19,0,0,1,3.92,1.25,8.61,8.61,0,0,0,6.06-.16l1-.4a3.88,3.88,0,0,0,2.4-3.82l-.2-3.32,1.06-2.74Z" fill="#ffbf9d"/>
          </g>
          <path id="Trazado_114033" data-name="Trazado 114033" d="M302.29,218.9a2.7,2.7,0,0,1-.56.14l-1.61.28-5.94,1-8.83,1.34-5.2.79a10,10,0,0,0-5,2.05,32.451,32.451,0,0,0-3.67,4.22c-1.15,1.42-2.25,2.8-3.3,4.11l-5.61,7-3.82,4.65-1.06,1.25a2.46,2.46,0,0,1-.39.41,1.879,1.879,0,0,1,.31-.48l1-1.31,3.68-4.76c1.59-2,3.46-4.39,5.52-7,1.05-1.31,2.14-2.7,3.28-4.13a32.786,32.786,0,0,1,3.74-4.3,10.38,10.38,0,0,1,5.3-2.15l5.22-.76,8.84-1.24,6-.78,1.63-.19A2.05,2.05,0,0,1,302.29,218.9Z" fill="#30616f"/>
          <path id="Trazado_114034" data-name="Trazado 114034" d="M288.19,223.83a2.651,2.651,0,0,0-.84.68.87.87,0,0,0,0,1,.94.94,0,0,0,1.25,0,1.27,1.27,0,0,0,.48-.72.85.85,0,0,0-.26-.81.68.68,0,0,0-.82,0" fill="#fafafa"/>
        </g>
      </g>
      <g id="Grupo_89794" data-name="Grupo 89794">
        <g id="Grupo_89770" data-name="Grupo 89770">
          <rect id="Rectángulo_35622" data-name="Rectángulo 35622" width="48.68" height="98.17" transform="translate(40.46 249.43)" fill="#30616f"/>
          <path id="Trazado_114035" data-name="Trazado 114035" d="M42.72,347.37h0a7.59,7.59,0,0,1-7.59-7.59V257a7.6,7.6,0,0,1,7.59-7.6h0a7.6,7.6,0,0,1,7.6,7.6v82.75a7.59,7.59,0,0,1-7.6,7.62Z" fill="#30616f"/>
          <path id="Trazado_114036" data-name="Trazado 114036" d="M46.69,253.38a1,1,0,0,1,0,.25l.08.71c0,.68.13,1.61.22,2.77.18,2.46.43,5.92.73,10.18.57,8.65,1.35,20.51,2.21,33.61s1.58,25,2,33.63a26.27,26.27,0,0,1-1.26,10.12,13,13,0,0,1-1.24,2.5l-.41.59c-.1.13-.15.2-.16.19a19.13,19.13,0,0,0,1.6-3.35,26.84,26.84,0,0,0,1.08-10c-.56-8.64-1.32-20.5-2.17-33.6s-1.51-25-2-33.62c-.23-4.27-.42-7.74-.55-10.19,0-1.17-.1-2.1-.13-2.78v-.72A1,1,0,0,1,46.69,253.38Z" fill="#20242d"/>
          <g id="Grupo_89769" data-name="Grupo 89769">
            <g id="Grupo_89768" data-name="Grupo 89768">
              <g id="Grupo_89767" data-name="Grupo 89767">
                <rect id="Rectángulo_35623" data-name="Rectángulo 35623" width="7.85" height="94.01" transform="translate(84.77 359.79)" fill="#30616f"/>
                <path id="Trazado_114037" data-name="Trazado 114037" d="M143.47,359.79H31.25a12.18,12.18,0,0,1,12.18-12.18h87.86A12.18,12.18,0,0,1,143.47,359.79Z" fill="#30616f"/>
                <path id="Trazado_114038" data-name="Trazado 114038" d="M95.58,360a41.15,41.15,0,0,1-6.89.29,41.08,41.08,0,0,1-6.88-.29,41.083,41.083,0,0,1,6.88-.29A41.15,41.15,0,0,1,95.58,360Z" fill="#20242d"/>
              </g>
              <path id="Trazado_114039" data-name="Trazado 114039" d="M123,462.32h-1.1a33.39,33.39,0,0,0-66.78,0H54a34.5,34.5,0,0,1,69,0Z" fill="#30616f"/>
              <circle id="Elipse_4092" data-name="Elipse 4092" cx="5.17" cy="5.17" r="5.17" transform="translate(49.41 456.52)" fill="#20242d"/>
              <path id="Trazado_114040" data-name="Trazado 114040" d="M127.85,461.93a5.17,5.17,0,1,1-1.511-3.662,5.17,5.17,0,0,1,1.511,3.662Z" fill="#30616f"/>
              <path id="Trazado_114041" data-name="Trazado 114041" d="M122.68,453.8c0,.16-15,.29-33.52.29s-33.53-.13-33.53-.29,15-.29,33.53-.29S122.68,453.64,122.68,453.8Z" fill="#30616f"/>
            </g>
            <path id="Trazado_114042" data-name="Trazado 114042" d="M76.58,347.4a9.611,9.611,0,0,1-1.7.12l-4.61.13c-3.9.07-9.29.14-15.24.19l-8.39.05a28.819,28.819,0,0,0-6.76.61,11.051,11.051,0,0,0-4.08,1.95c-.87.65-1.25,1.12-1.3,1.08s.08-.14.27-.36a7.291,7.291,0,0,1,.89-.89,10.609,10.609,0,0,1,4.12-2.16,26.778,26.778,0,0,1,6.84-.74c2.58-.07,5.42-.07,8.4-.1H70.26l4.63.06A9.436,9.436,0,0,1,76.58,347.4Z" fill="#20242d"/>
          </g>
        </g>
        <g id="Grupo_89793" data-name="Grupo 89793">
          <g id="Grupo_89778" data-name="Grupo 89778">
            <g id="Grupo_89776" data-name="Grupo 89776">
              <g id="Grupo_89771" data-name="Grupo 89771">
                <path id="Trazado_114043" data-name="Trazado 114043" d="M73.27,244.73h0c5.84,0,10.69-3.81,10.77-21.56,0-3.57-.1-6.66-.1-6.66s8.43-.77,9-8.94.15-27.13.15-27.13h0A29.19,29.19,0,0,0,64,182.36l-1.3.86.4,40.17C63.13,229,67.52,244.73,73.27,244.73Z" fill="#c78976"/>
                <path id="Trazado_114044" data-name="Trazado 114044" d="M84,216.39a19.67,19.67,0,0,1-10.69-3.68s2.2,6,10.58,5.81Z" fill="#bf654e"/>
              </g>
              <g id="Grupo_89775" data-name="Grupo 89775">
                <g id="Grupo_89774" data-name="Grupo 89774">
                  <g id="Grupo_89772" data-name="Grupo 89772">
                    <path id="Trazado_114045" data-name="Trazado 114045" d="M91.14,193.62A1.15,1.15,0,0,1,90,194.77a1.1,1.1,0,0,1-1.2-1,1.16,1.16,0,0,1,1.12-1.16,1.11,1.11,0,0,1,1.22,1.01Z" fill="#20242d"/>
                    <path id="Trazado_114046" data-name="Trazado 114046" d="M91.4,192.33c-.15.15-1-.49-2.3-.49s-2.18.62-2.31.47.08-.34.48-.63a3.34,3.34,0,0,1,1.86-.56,3.17,3.17,0,0,1,1.82.58C91.34,192,91.47,192.26,91.4,192.33Z" fill="#20242d"/>
                  </g>
                  <g id="Grupo_89773" data-name="Grupo 89773">
                    <path id="Trazado_114047" data-name="Trazado 114047" d="M78.81,193.91a1.15,1.15,0,0,1-1.13,1.15,1.1,1.1,0,0,1-1.2-1,1.16,1.16,0,0,1,1.12-1.16,1.11,1.11,0,0,1,1.21,1.01Z" fill="#20242d"/>
                    <path id="Trazado_114048" data-name="Trazado 114048" d="M79,192.56c-.15.15-1-.49-2.29-.49s-2.18.62-2.32.47.08-.34.48-.63a3.36,3.36,0,0,1,1.86-.56,3.17,3.17,0,0,1,1.82.58C79,192.22,79.09,192.49,79,192.56Z" fill="#20242d"/>
                  </g>
                  <path id="Trazado_114049" data-name="Trazado 114049" d="M83.59,201.71a8,8,0,0,1,2-.36c.33,0,.63-.1.68-.31a1.6,1.6,0,0,0-.21-.94l-.95-2.4A41,41,0,0,1,83,191.43a41,41,0,0,1,2.65,6.09l.91,2.41a1.84,1.84,0,0,1,.17,1.24.83.83,0,0,1-.53.46,1.92,1.92,0,0,1-.55.07A8.451,8.451,0,0,1,83.59,201.71Z" fill="#20242d"/>
                  <path id="Trazado_114050" data-name="Trazado 114050" d="M79.88,202.56c.21,0,.21,1.33,1.38,2.28s2.63.8,2.64,1-.33.26-.94.27a3.38,3.38,0,0,1-2.2-.75,2.87,2.87,0,0,1-1.07-1.91C79.64,202.88,79.79,202.55,79.88,202.56Z" fill="#20242d"/>
                </g>
                <path id="Trazado_114051" data-name="Trazado 114051" d="M79.34,187.73c-.12.33-1.38.17-2.85.35s-2.68.57-2.87.26c-.09-.14.12-.46.6-.78a5,5,0,0,1,2.13-.73,4.84,4.84,0,0,1,2.23.26C79.13,187.3,79.4,187.57,79.34,187.73Z" fill="#20242d"/>
                <path id="Trazado_114052" data-name="Trazado 114052" d="M90.93,188.76c-.22.28-1.09,0-2.13,0s-1.93.19-2.13-.1c-.09-.14,0-.42.44-.69a3.11,3.11,0,0,1,3.43.11C90.91,188.33,91,188.62,90.93,188.76Z" fill="#20242d"/>
              </g>
            </g>
            <path id="Trazado_114053" data-name="Trazado 114053" d="M93.4,178.85a8.61,8.61,0,0,0-1.27-3.57,3.55,3.55,0,0,0-.44-3.66,3.61,3.61,0,0,0-4.94-.27h-.06a1.94,1.94,0,0,0-.6-2.32,4.49,4.49,0,0,0-2.89-.68c-1.88,0-6.31,1.52-9.71,2.79a2.867,2.867,0,0,0-.65.12,17.88,17.88,0,0,0-7.77,3.35,16.63,16.63,0,0,0-4.86,8.59c-.87,3.25-.88,6.66-.21,12.18,1-.9,4.6-3.17,5.13-1.92a7.3,7.3,0,0,1,.28,2.3,2,2,0,0,0,1.17,1.84,1.56,1.56,0,0,0,1.61-.71,3.57,3.57,0,0,0,.51-1.78c.21-2.55-.43-5.13,0-7.65a9.39,9.39,0,0,1,11.1-7.72c1.53.31,3,1,4.57.94,2.23-.09,4.52-1.7,6.54-.73.4.19.8.38,1.18.6.76.45,1.14.9,1.33.49A7.72,7.72,0,0,0,93.4,178.85Z" fill="#20242d"/>
            <g id="Grupo_89777" data-name="Grupo 89777">
              <path id="Trazado_114054" data-name="Trazado 114054" d="M64.82,192.26c-.15-.06-5.28-.71-4.79,5.22s6.44,3.49,6.43,3.32S64.82,192.26,64.82,192.26Z" fill="#c78976"/>
              <path id="Trazado_114055" data-name="Trazado 114055" d="M64.44,198.86a2.511,2.511,0,0,1-.27.18,1.06,1.06,0,0,1-.79.07A2.54,2.54,0,0,1,62,196.92a3.39,3.39,0,0,1,.17-1.51,1.19,1.19,0,0,1,.73-.85.53.53,0,0,1,.64.23c.1.16.07.28.1.29s.12-.11.06-.35a.67.67,0,0,0-.27-.35.81.81,0,0,0-.6-.11,1.46,1.46,0,0,0-1,1,3.43,3.43,0,0,0-.24,1.68,2.71,2.71,0,0,0,1.75,2.44,1.14,1.14,0,0,0,1-.23C64.44,199,64.46,198.87,64.44,198.86Z" fill="#bf654e"/>
            </g>
          </g>
          <g id="Grupo_89784" data-name="Grupo 89784">
            <g id="Grupo_89782" data-name="Grupo 89782">
              <g id="Grupo_89780" data-name="Grupo 89780">
                <path id="Trazado_114056" data-name="Trazado 114056" d="M121.2,442.19l4.62-6.47L108,423.26l-7.37,10,1,.87c4.57,3.85,23.49,19.28,27.38,20.74C133.42,456.49,121.2,442.19,121.2,442.19Z" fill="#5591ba"/>
                <g id="Grupo_89779" data-name="Grupo 89779" opacity="0.5">
                  <path id="Trazado_114057" data-name="Trazado 114057" d="M107,437.85a7.45,7.45,0,0,0,.71-5.29,6.41,6.41,0,0,0-3.36-4.33l-3.51,4.8Z" fill="#fff"/>
                </g>
              </g>
              <g id="Grupo_89781" data-name="Grupo 89781" opacity="0.5">
                <path id="Trazado_114058" data-name="Trazado 114058" d="M127,449.43s4,5.33,2.78,5.68-21-14.54-29.09-21.85l.32-.36,22.82,17.55S126,448.71,127,449.43Z" fill="#fff"/>
              </g>
              <path id="Trazado_114059" data-name="Trazado 114059" d="M100.72,432.68a2,2,0,0,0,.28.26l.81.69,3,2.5c2.58,2.1,6.18,4.95,10.22,8s7.76,5.75,10.48,7.66l3.23,2.24.89.6a1.538,1.538,0,0,0,.32.19l-.29-.24-.86-.63-3.19-2.31c-2.69-1.95-6.38-4.66-10.42-7.72S107.56,438.05,105,436l-3.09-2.43-.84-.66Z" fill="#20242d"/>
              <path id="Trazado_114060" data-name="Trazado 114060" d="M123.61,450.71a8.779,8.779,0,0,1,1.69-1,9,9,0,0,1,2-.37,2.88,2.88,0,0,0-2.05.13,2.82,2.82,0,0,0-1.64,1.24Z" fill="#20242d"/>
              <path id="Trazado_114061" data-name="Trazado 114061" d="M120.43,444.34a2.38,2.38,0,0,0,1-.24c.54-.2,1-.41.94-.48s-.49,0-1,.24S120.41,444.27,120.43,444.34Z" fill="#20242d"/>
              <path id="Trazado_114062" data-name="Trazado 114062" d="M119.58,442.56c0,.07.42.1.91.06s.89-.13.89-.2-.42-.1-.91-.06S119.58,442.49,119.58,442.56Z" fill="#20242d"/>
              <path id="Trazado_114063" data-name="Trazado 114063" d="M119.91,440.29a3.2,3.2,0,0,0,.81.8,2.73,2.73,0,0,0,1,.59,3.4,3.4,0,0,0-.81-.8,2.83,2.83,0,0,0-1-.59Z" fill="#20242d"/>
              <path id="Trazado_114064" data-name="Trazado 114064" d="M120.45,438.94a2.34,2.34,0,0,0,.79,1.05c.55.48,1.11.71,1.14.64s-.45-.37-1-.84S120.51,438.9,120.45,438.94Z" fill="#20242d"/>
              <path id="Trazado_114065" data-name="Trazado 114065" d="M122.13,443.3a3.87,3.87,0,0,0,1.12.84,8.468,8.468,0,0,0,1.37.63,4.162,4.162,0,0,0,.88.24.77.77,0,0,0,.53-.13.53.53,0,0,0,.16-.56,2.58,2.58,0,0,0-3-1.32,2.32,2.32,0,0,0-.91.45c-.19.16-.27.26-.25.27a3.709,3.709,0,0,1,1.2-.54,2.55,2.55,0,0,1,1.4.11,2.26,2.26,0,0,1,1.26,1.09c.08.26-.14.41-.43.38a4.12,4.12,0,0,1-.82-.21,11.4,11.4,0,0,1-1.36-.57C122.58,443.59,122.16,443.27,122.13,443.3Z" fill="#20242d"/>
              <path id="Trazado_114066" data-name="Trazado 114066" d="M122.38,443.58a1.5,1.5,0,0,0,.7-.66,2.15,2.15,0,0,0,.29-1,1.4,1.4,0,0,0-.5-1.26.54.54,0,0,0-.72.25,1.5,1.5,0,0,0-.18.63,4,4,0,0,0,0,1.05,2,2,0,0,0,.3.92s-.07-.36-.12-.94a4.93,4.93,0,0,1,0-1c0-.35.23-.84.54-.68a1.23,1.23,0,0,1,.38,1,2.07,2.07,0,0,1-.22.94,5.3,5.3,0,0,1-.47.75Z" fill="#20242d"/>
              <path id="Trazado_114067" data-name="Trazado 114067" d="M104.57,428.33a7.989,7.989,0,0,1,1.24,1,7,7,0,0,1,1.93,3.23,6.84,6.84,0,0,1-.08,3.72c-.28.92-.63,1.42-.58,1.45a1.36,1.36,0,0,0,.26-.34,6.171,6.171,0,0,0,.5-1.05,6.57,6.57,0,0,0,.15-3.85,6.76,6.76,0,0,0-2.06-3.29,5.668,5.668,0,0,0-1-.69C104.72,428.37,104.58,428.31,104.57,428.33Z" fill="#20242d"/>
              <path id="Trazado_114068" data-name="Trazado 114068" d="M110.45,437.84a12.289,12.289,0,0,0,2.33,2.15,13.3,13.3,0,0,0,2.67,1.71c0-.07-1.14-.85-2.51-1.92S110.5,437.78,110.45,437.84Z" fill="#20242d"/>
              <path id="Trazado_114069" data-name="Trazado 114069" d="M107.07,435.28c-.07,0-.08.3-.16.64s-.18.61-.12.66.29-.2.37-.6S107.14,435.27,107.07,435.28Z" fill="#20242d"/>
              <path id="Trazado_114070" data-name="Trazado 114070" d="M107,432.76c-.07,0-.09.27,0,.58s.14.56.21.55.09-.27.05-.58A1.076,1.076,0,0,0,107,432.76Z" fill="#20242d"/>
              <path id="Trazado_114071" data-name="Trazado 114071" d="M105.68,430.67c0,.07.2.24.39.52s.27.55.34.55.11-.35-.13-.69S105.71,430.61,105.68,430.67Z" fill="#20242d"/>
              <path id="Trazado_114072" data-name="Trazado 114072" d="M104.64,429.36c-.06,0,0,.2.07.36s.24.26.3.23,0-.2-.08-.36S104.7,429.32,104.64,429.36Z" fill="#20242d"/>
            </g>
            <g id="Grupo_89783" data-name="Grupo 89783" opacity="0.3">
              <path id="Trazado_114073" data-name="Trazado 114073" d="M105.08,427.27l17.98,12.39.52-.69L106.1,425.83Z"/>
            </g>
          </g>
          <g id="Grupo_89790" data-name="Grupo 89790">
            <g id="Grupo_89788" data-name="Grupo 89788">
              <g id="Grupo_89786" data-name="Grupo 89786">
                <path id="Trazado_114074" data-name="Trazado 114074" d="M207.52,462.7l-1.66-7.59-20.67,4.73,2.42,11.88,1.3-.17c5.78-.78,29.34-4.38,33-6.25C225.88,463.22,207.52,462.7,207.52,462.7Z" fill="#5591ba"/>
                <g id="Grupo_89785" data-name="Grupo 89785" opacity="0.5">
                  <path id="Trazado_114075" data-name="Trazado 114075" d="M195.1,470.12a7.27,7.27,0,0,0-3.37-4,6.23,6.23,0,0,0-5.33-.4l1.18,5.68Z" fill="#fff"/>
                </g>
              </g>
              <g id="Grupo_89787" data-name="Grupo 89787" opacity="0.5">
                <path id="Trazado_114076" data-name="Trazado 114076" d="M216.55,463.25s6.51.57,5.93,1.71-24.26,5.66-34.87,6.76l-.05-.46,27.66-5S215.35,463.53,216.55,463.25Z" fill="#fff"/>
              </g>
              <path id="Trazado_114077" data-name="Trazado 114077" d="M187.23,471.3a1.61,1.61,0,0,0,.36,0l1-.13,3.8-.56c3.2-.49,7.62-1.24,12.48-2.16s9.25-1.85,12.41-2.57l3.74-.87,1-.25a1.628,1.628,0,0,0,.35-.11l-.36.06-1,.21-3.76.79c-3.17.67-7.55,1.57-12.41,2.5s-9.27,1.69-12.47,2.23l-3.79.63-1,.18Z" fill="#20242d"/>
              <path id="Trazado_114078" data-name="Trazado 114078" d="M215.27,466.54a8.43,8.43,0,0,1,.37-1.9,8.16,8.16,0,0,1,1-1.66,2.82,2.82,0,0,0-1.26,1.57,2.78,2.78,0,0,0-.11,1.99Z" fill="#20242d"/>
              <path id="Trazado_114079" data-name="Trazado 114079" d="M208.57,464.66a2.305,2.305,0,0,0,.51-.9,2.34,2.34,0,0,0,.27-1,2.441,2.441,0,0,0-.51.91A2.31,2.31,0,0,0,208.57,464.66Z" fill="#20242d"/>
              <path id="Trazado_114080" data-name="Trazado 114080" d="M206.73,464.11a2.082,2.082,0,0,0,.64-.61c.3-.38.49-.73.44-.77s-.35.23-.64.61S206.67,464.07,206.73,464.11Z" fill="#20242d"/>
              <path id="Trazado_114081" data-name="Trazado 114081" d="M205.3,462.4a2.641,2.641,0,0,0,1.11-.07c.6-.11,1.08-.25,1.06-.32a2.41,2.41,0,0,0-1.1.07,2.59,2.59,0,0,0-1.07.32Z" fill="#20242d"/>
              <path id="Trazado_114082" data-name="Trazado 114082" d="M204.68,461.11a2.13,2.13,0,0,0,1.27.12,2.21,2.21,0,0,0,1.22-.4,6.119,6.119,0,0,0-1.24.15,7.474,7.474,0,0,0-1.25.13Z" fill="#20242d"/>
              <path id="Trazado_114083" data-name="Trazado 114083" d="M208.94,462.76a4.209,4.209,0,0,0,1.33-.27,7.661,7.661,0,0,0,1.36-.57,3.832,3.832,0,0,0,.75-.49.68.68,0,0,0,.25-.47.52.52,0,0,0-.3-.48,2.52,2.52,0,0,0-2.89,1.28,2.621,2.621,0,0,0-.27.95q0,.36,0,.36a3.73,3.73,0,0,1,.39-1.23,2.47,2.47,0,0,1,1-.94,2.15,2.15,0,0,1,1.61-.2c.24.12.21.38,0,.56a3.893,3.893,0,0,1-.69.45,10,10,0,0,1-1.31.62C209.44,462.62,208.93,462.72,208.94,462.76Z" fill="#20242d"/>
              <path id="Trazado_114084" data-name="Trazado 114084" d="M209.3,462.75a1.32,1.32,0,0,0,0-.93,2.23,2.23,0,0,0-.55-.89,1.38,1.38,0,0,0-1.23-.45.52.52,0,0,0-.3.68,1.39,1.39,0,0,0,.34.54,3.83,3.83,0,0,0,.78.67,1.87,1.87,0,0,0,.86.38,7.668,7.668,0,0,1-.75-.52,4.061,4.061,0,0,1-.71-.68c-.24-.24-.46-.71-.13-.84a1.24,1.24,0,0,1,1,.39,2.2,2.2,0,0,1,.54.78A5.62,5.62,0,0,1,209.3,462.75Z" fill="#20242d"/>
              <path id="Trazado_114085" data-name="Trazado 114085" d="M186.59,465.67a8.328,8.328,0,0,1,1.54-.24,6.859,6.859,0,0,1,3.6.71,6.66,6.66,0,0,1,2.64,2.49A13.308,13.308,0,0,1,195,470a1.755,1.755,0,0,0-.07-.41,5.22,5.22,0,0,0-.44-1.06,6.37,6.37,0,0,0-2.68-2.62,6.62,6.62,0,0,0-3.73-.67,5.676,5.676,0,0,0-1.14.25A1,1,0,0,0,186.59,465.67Z" fill="#20242d"/>
              <path id="Trazado_114086" data-name="Trazado 114086" d="M197.33,467.64a12.86,12.86,0,0,0,3.08-.28,12.621,12.621,0,0,0,3-.82c0-.07-1.36.27-3,.57S197.32,467.57,197.33,467.64Z" fill="#20242d"/>
              <path id="Trazado_114087" data-name="Trazado 114087" d="M193.26,468.41a3.124,3.124,0,0,0,.37.54c.2.28.32.53.39.51s0-.34-.19-.66S193.3,468.35,193.26,468.41Z" fill="#20242d"/>
              <path id="Trazado_114088" data-name="Trazado 114088" d="M191.38,466.83a.866.866,0,0,0,.39.42c.26.17.49.26.53.21s-.13-.25-.39-.42S191.42,466.78,191.38,466.83Z" fill="#20242d"/>
              <path id="Trazado_114089" data-name="Trazado 114089" d="M189,466.4c0,.06.31,0,.63.06s.57.16.62.1-.18-.3-.58-.35S189,466.34,189,466.4Z" fill="#20242d"/>
              <path id="Trazado_114090" data-name="Trazado 114090" d="M187.39,466.29c0,.07.12.15.31.18s.34,0,.35-.06-.12-.15-.31-.18S187.4,466.22,187.39,466.29Z" fill="#20242d"/>
            </g>
            <g id="Grupo_89789" data-name="Grupo 89789" opacity="0.3">
              <path id="Trazado_114091" data-name="Trazado 114091" d="M186.16,464.61l20.75-4.91-.16-.83-20.96,4.05Z"/>
            </g>
          </g>
          <path id="Trazado_114092" data-name="Trazado 114092" d="M153.72,278.65a20.33,20.33,0,0,1,4.14-3.94c.57-.19,10.95-4.51,11.14-4s1.44,2.84-.67,4l-1.64.54,6,.48s6.63,4.9,6.54,6-1,1.73-1.54,1.25,1.54,3.36,1.54,3.36,0,1.64-.87,1.35a8.089,8.089,0,0,1-2.21-1.83s1.25,2,.87,2.4-2.31.48-2.5,0-.48-1.34-.48-1.34l-1.16.09v1.58l-17.58.54Z" fill="#bf654e"/>
          <g id="Grupo_89791" data-name="Grupo 89791">
            <path id="Trazado_114093" data-name="Trazado 114093" d="M85.57,230.13l5.37,6.35,21.48,37.59,41.88,4.14.92,12.12-48.24,4.56L80.05,246.15Z" fill="#e1e1e1"/>
            <path id="Trazado_114094" data-name="Trazado 114094" d="M89.81,248.46l-4.15-15.68-.09-5.11L62.26,217.09l-4.48,5.57.54.28c-1.83,1.93-15.4,16.59-14.59,27.41C44.46,260.09,65,321.51,65,321.51l46.77-13.68Z" fill="#ececec"/>
            <path id="Trazado_114095" data-name="Trazado 114095" d="M85.15,233l-1.31,6.42,3.42,6.43v4.76l24.5,57.23,7.25,2.44,1.23-4.91s-20.4-34.82-23.93-44.64-8.74-23.93-8.74-23.93Z" fill="#5591ba"/>
            <path id="Trazado_114096" data-name="Trazado 114096" d="M47.94,261.84c0,.61,42.25,41.43,42.25,41.43l57.08-11.17-1.83-12.19-39,1.06a11.51,11.51,0,0,1-10.25-4.63c-8.36-10.85-26.48-34.39-26.95-35C68.66,240.51,47.94,261.84,47.94,261.84Z" fill="#ececec"/>
            <path id="Trazado_114097" data-name="Trazado 114097" d="M145.44,279.91s.06.25.14.77.22,1.31.38,2.32c.33,2.08.8,5.12,1.43,9.08v.11h-.11L101.73,301l-3.75.72a17.15,17.15,0,0,1-3.94.35,15.8,15.8,0,0,1-11-5c-1-1-1.86-2.11-2.8-3.19l-5.71-6.55L50.11,259.3h0c-.05-.14-.11-.29-.17-.44a18.43,18.43,0,0,1-1.37-6.57,12,12,0,0,1,1.63-6.43,13.52,13.52,0,0,1,4.69-4.55,14.6,14.6,0,0,1,6.11-2,11.65,11.65,0,0,1,6.22,1.11A16.08,16.08,0,0,1,72,244.17,49.909,49.909,0,0,1,75.7,249q1.72,2.42,3.41,4.78,6.81,9.375,13.38,17.39l3.23,3.9a34.3,34.3,0,0,0,3.24,3.6,7.65,7.65,0,0,0,4.17,1.7,33.358,33.358,0,0,0,4.46.12l27.75-.43,7.51-.09h1.96l-2,.06-7.55.19-27.64.63a32.692,32.692,0,0,1-4.51-.11,8,8,0,0,1-4.39-1.78,34.6,34.6,0,0,1-3.31-3.63l-3.24-3.9c-4.36-5.33-8.88-11.13-13.44-17.38l-3.43-4.78a51.293,51.293,0,0,0-3.64-4.73,15.72,15.72,0,0,0-4.69-3.73,11.1,11.1,0,0,0-5.94-1,14,14,0,0,0-10.38,6.32,11.47,11.47,0,0,0-1.55,6.14,17.94,17.94,0,0,0,1.33,6.38c.06.15.12.29.17.43v-.07L74.9,287c1.93,2.23,3.83,4.41,5.69,6.57.94,1.06,1.85,2.16,2.79,3.17a14.939,14.939,0,0,0,3.16,2.58,15.42,15.42,0,0,0,7.52,2.28,16.9,16.9,0,0,0,3.83-.33l3.75-.71L147.25,292l-.09.13c-.57-3.94-1-7-1.29-9.05-.15-1-.25-1.8-.33-2.34S145.44,279.91,145.44,279.91Z" fill="#30616f"/>
            <path id="Trazado_114098" data-name="Trazado 114098" d="M85.57,227.67c.06,0-.16,1.05-.37,2.87a71.388,71.388,0,0,1-1,7.56l-.07.32-.29-.17-8.34-4.8c-4.8-2.79-9.14-5.34-12.26-7.21L59.55,224a8,8,0,0,1-1.31-.89,9.419,9.419,0,0,1,1.42.7l3.77,2.09c3.18,1.79,7.54,4.29,12.35,7.08l8.3,4.85-.35.16c.69-3,.86-5.67,1.19-7.49.15-.91.3-1.62.42-2.1a3.1,3.1,0,0,1,.23-.73Z" fill="#30616f"/>
          </g>
          <path id="Trazado_114099" data-name="Trazado 114099" d="M169.92,279.94l-10.18-2.79-8.46,4.23h-4.8l-.77.31,1.37,9.12,1.21.17a11.64,11.64,0,0,0,4.05,1.54c2.69.58,6.63-1.15,6.63-1.15l5.38-3,3.85-1.09,2.88,1.67a11.069,11.069,0,0,1,.29,1.53c0,.39,1,.87,1.63.87s.77-1.35.77-1.35l-.68-2.87,1.35,1.24h3.36v-2.11Z" fill="#c78976"/>
          <g id="Grupo_89792" data-name="Grupo 89792">
            <path id="Trazado_114100" data-name="Trazado 114100" d="M147.27,346.83l-43.89,78.15,23.46,15.91,38.79-68.86-6.53-25.2Z" fill="#20242d"/>
            <path id="Trazado_114101" data-name="Trazado 114101" d="M65,321.51s-5,21.23,8.63,25.55,84.81,6.56,84.81,6.56l26.43,109.19,22.63-3.21L188,342.58a19.8,19.8,0,0,0-16-16.08c-21.09-3.77-59.31-10.69-59.83-11.47-.72-1.08-3.59-7.2-3.59-7.2Z" fill="#20242d"/>
            <path id="Trazado_114102" data-name="Trazado 114102" d="M166.92,387a2.251,2.251,0,0,1-.22-.56c-.14-.37-.32-.93-.53-1.65-.42-1.45-.94-3.58-1.49-6.21s-1.19-5.8-1.9-9.26a50.91,50.91,0,0,0-3.29-11c-.89-1.78-2.08-3.5-3.89-4.08a30.5,30.5,0,0,0-5.39-1.18c-3.52-.48-6.71-.71-9.4-.88s-4.86-.25-6.36-.31l-1.73-.07a2.31,2.31,0,0,1-.6-.06,2.121,2.121,0,0,1,.6-.05h1.74c1.5,0,3.68,0,6.38.13s5.89.31,9.44.77a28.8,28.8,0,0,1,5.51,1.18,7.2,7.2,0,0,1,1.36.68,6.769,6.769,0,0,1,1.15,1.05,12.121,12.121,0,0,1,1.68,2.61,49.44,49.44,0,0,1,3.3,11.14c.71,3.49,1.27,6.65,1.78,9.29s1,4.77,1.32,6.23S167,387,166.92,387Z" fill="#30616f"/>
          </g>
        </g>
      </g>
      <path id="Trazado_114103" data-name="Trazado 114103" d="M425.27,295.49l-282.49-1.02-.03,8.39,16.76.06-.58,163.37,5.92.02.59-163.37,233.42.84-.59,163.37,5.92.02.59-163.37,20.46.08Z" fill="#30616f"/>
      <g id="Grupo_89795" data-name="Grupo 89795">
        <path id="Trazado_114104" data-name="Trazado 114104" d="M328.24,249.14l15.67,45.79h70.96l-.53-2.36-28.69-.88-13.22-42.57Z" fill="#e1e1e1"/>
        <path id="Trazado_114105" data-name="Trazado 114105" d="M359.68,270.65c.47,1.87-.33,3.71-1.79,4.1s-3-.81-3.49-2.69.33-3.71,1.79-4.1S359.21,268.77,359.68,270.65Z" fill="#fff"/>
      </g>
      <g id="Grupo_89796" data-name="Grupo 89796">
        <path id="Trazado_114106" data-name="Trazado 114106" d="M258.42,247.85l-15.67,45.8H171.8l.52-2.36,28.69-.89,13.22-42.57Z" fill="#e1e1e1"/>
        <path id="Trazado_114107" data-name="Trazado 114107" d="M227,269.36c-.47,1.88.34,3.72,1.8,4.11s3-.82,3.49-2.69-.34-3.72-1.8-4.11S227.45,267.49,227,269.36Z" fill="#fff"/>
      </g>
      <g id="Grupo_89797" data-name="Grupo 89797">
        <circle id="Elipse_4093" data-name="Elipse 4093" cx="8.69" cy="8.69" r="8.69" transform="translate(277.231 284.797) rotate(-80.76)" fill="#30616f"/>
        <rect id="Rectángulo_35624" data-name="Rectángulo 35624" width="56.73" height="20.74" transform="translate(258.85 274.19)" fill="#e1e1e1"/>
        <path id="Trazado_114108" data-name="Trazado 114108" d="M280.66,279.91a75.571,75.571,0,0,1-9.26.28,75.316,75.316,0,0,1-9.25-.28,79.215,79.215,0,0,1,9.25-.27A79.46,79.46,0,0,1,280.66,279.91Z" fill="#20242d"/>
        <path id="Trazado_114109" data-name="Trazado 114109" d="M280.66,282.89a78,78,0,0,1-9.26.28,77.779,77.779,0,0,1-9.25-.28,77.778,77.778,0,0,1,9.25-.28,78,78,0,0,1,9.26.28Z" fill="#20242d"/>
        <path id="Trazado_114110" data-name="Trazado 114110" d="M280.66,285.87a79.453,79.453,0,0,1-9.26.27,79.215,79.215,0,0,1-9.25-.27,77.778,77.778,0,0,1,9.25-.28,78.005,78.005,0,0,1,9.26.28Z" fill="#20242d"/>
        <path id="Trazado_114111" data-name="Trazado 114111" d="M280.66,288.85a79.466,79.466,0,0,1-9.26.27,79.215,79.215,0,0,1-9.25-.27,75.316,75.316,0,0,1,9.25-.28A75.558,75.558,0,0,1,280.66,288.85Z" fill="#20242d"/>
        <path id="Trazado_114112" data-name="Trazado 114112" d="M291,294.44a90.174,90.174,0,0,1-.28-10,90.173,90.173,0,0,1,.28-10,91.835,91.835,0,0,1,.27,10,91.835,91.835,0,0,1-.27,10Z" fill="#20242d"/>
      </g>
      <text id="Objetivos" transform="translate(262.72 104.63)" fill="#12263f" font-size="16" font-family="Roboto-Regular, Roboto"><tspan x="0" y="0">Objeti</tspan><tspan y="0" letter-spacing="-0.01em">v</tspan><tspan y="0">os</tspan></text>
      <text id="Metas" transform="translate(309.63 229.06)" fill="#12263f" font-size="16" font-family="Roboto-Regular, Roboto"><tspan x="0" y="0">Metas</tspan></text>
    </g>
  </g>
</svg>
