<svg xmlns="http://www.w3.org/2000/svg" width="189.257" height="189.258" viewBox="0 0 189.257 189.258">
  <g id="Grupo_91721" data-name="Grupo 91721" transform="translate(-282.879 -9788.879)">
    <g id="Grupo_88936" data-name="Grupo 88936" transform="translate(-422.492 8791)">
      <rect id="Rect치ngulo_33009" data-name="Rect치ngulo 33009" width="130.825" height="130.825" rx="22" transform="translate(707.493 1092.508) rotate(-45)" fill="#fff" stroke="#3b4453" stroke-width="3"/>
    </g>
    <g id="CF1_ico_1" data-name="CF1_ico 1" transform="translate(333 9829)">
      <path id="Trazado_113535" data-name="Trazado 113535" d="M90.71,58.71h0a1,1,0,0,0-.12-.16,6.59,6.59,0,0,0-9.21-1c-3.49,2.84-8.8,7.12-12,9.68a13.86,13.86,0,0,1-8.23,3.09l-9,.3a1,1,0,0,1-.88-.48l-1-1.71A.929.929,0,0,1,50.9,67l9.31-1.77a6.45,6.45,0,0,0,5.2-7.07,6.37,6.37,0,0,0-6.35-5.66h-.31L46.29,52a28.46,28.46,0,0,0-14.21,3.17l-6.53,3.18a5.4,5.4,0,0,0-4.92-3.12H13.42A5.49,5.49,0,0,0,7.9,60.6V87.43a5.55,5.55,0,0,0,5.52,5.48h7.21a5.47,5.47,0,0,0,5.43-5.48V85.61L33,84.34A28.61,28.61,0,0,1,39,84l19,.85h1.16A27.454,27.454,0,0,0,76.7,78.516L89.82,67.64h0a6.46,6.46,0,0,0,.89-8.93ZM22.5,87.46a1.92,1.92,0,0,1-1.92,1.92H13.29a1.93,1.93,0,0,1-1.92-1.92V60.62a1.93,1.93,0,0,1,1.92-1.92h7.29a1.92,1.92,0,0,1,1.92,1.92Zm65-22.5L74.43,75.82a23.91,23.91,0,0,1-16.34,5.5l-18.94-.88a31.35,31.35,0,0,0-6.72.41.1.1,0,0,0-.07,0L26,82V62l7.55-3.65a25.32,25.32,0,0,1,12.54-2.84L58.66,56H59a2.9,2.9,0,0,1,.51,5.75L50.2,63.51a4.53,4.53,0,0,0-3.62,5.28,4.4,4.4,0,0,0,.55,1.46l1,1.73a4.49,4.49,0,0,0,4.06,2.2l9-.3A17.38,17.38,0,0,0,71.57,70c3.17-2.56,8.5-6.86,12-9.7a2.92,2.92,0,0,1,2.17-.64,3,3,0,0,1,2,1l.13.15A2.89,2.89,0,0,1,87.53,65Z" fill="#3b4454"/>
      <path id="Trazado_113536" data-name="Trazado 113536" d="M83.65,40.14l-9.59,6.21H61.83V42.12H74.58a2,2,0,0,0,1-.37l10-7.25a1.76,1.76,0,1,0-2-2.86h0L74,38.59H61.83V34H74.58a1.65,1.65,0,0,0,1.1-.35l10-7.9A1.77,1.77,0,1,0,83.51,23L74,30.47H61.83v-4.4H74.58a1.79,1.79,0,0,0,1.2-.43l10-9.26a1.73,1.73,0,0,0,.11-2.45,1.68,1.68,0,0,0-1.31-.56H72.54V13.3a1.82,1.82,0,0,0-1.64-1.17H51a1.82,1.82,0,0,0-1.2.51l-.74.73H36.49a1.78,1.78,0,0,0-1.2.46l-10,9.27a1.69,1.69,0,0,0-.46,1.9,1.72,1.72,0,0,0,1.64,1.08h11.9v4.4H26.47a1.77,1.77,0,0,0,0,3.53h11.9V38.6H26.47a1.77,1.77,0,0,0,0,3.53h11.9v4.23H26.47a1.77,1.77,0,0,0,0,3.53H74.58a1.76,1.76,0,0,0,1-.25l10-6.53a1.781,1.781,0,1,0-1.92-3ZM80.11,16.89,73.9,22.54H64.16l6.17-5.65ZM31,22.54l6.22-5.65h8.05l-6.18,5.65ZM58.3,24V46.35H41.9V24.74l9.76-9.08H66.4l-7.51,7A1.79,1.79,0,0,0,58.3,24Z" fill="#3b4454"/>
      <rect id="Rect치ngulo_35555" data-name="Rect치ngulo 35555" width="100" height="100" fill="none"/>
    </g>
  </g>
</svg>
