<svg xmlns="http://www.w3.org/2000/svg" width="122.091" height="99.961" viewBox="0 0 122.091 99.961">
  <g id="Grupo_91714" data-name="Grupo 91714" transform="translate(-750.043 -2408.26)">
    <line id="Línea_137" data-name="Línea 137" x2="21.177" transform="translate(849.957 2456.215)" fill="none" stroke="#6dc5db" stroke-linecap="round" stroke-width="2"/>
    <g id="CF1_ico_excel_copia_6" data-name="CF1_ico excel copia 6" transform="translate(750 2408.26)">
      <path id="Trazado_113576" data-name="Trazado 113576" d="M50,3a3.63,3.63,0,0,1,2.6,1.08L95.92,47.4a3.67,3.67,0,0,1,0,5.2L52.6,95.92a3.67,3.67,0,0,1-5.2,0L4.08,52.6a3.67,3.67,0,0,1,0-5.2L47.4,4.08A3.63,3.63,0,0,1,50,3" fill="#fff"/>
      <path id="Trazado_113577" data-name="Trazado 113577" d="M50,3a3.63,3.63,0,0,1,2.6,1.08L95.92,47.4a3.67,3.67,0,0,1,0,5.2L52.6,95.92a3.67,3.67,0,0,1-5.2,0L4.08,52.6a3.67,3.67,0,0,1,0-5.2L47.4,4.08A3.63,3.63,0,0,1,50,3m0-3a6.62,6.62,0,0,0-4.72,2L2,45.28a6.67,6.67,0,0,0,0,9.44L45.28,98a6.66,6.66,0,0,0,9.44,0L98,54.72a6.67,6.67,0,0,0,0-9.44L54.72,2A6.62,6.62,0,0,0,50,0Z" fill="#3b4454"/>
      <g id="Grupo_89663" data-name="Grupo 89663">
        <path id="Trazado_113578" data-name="Trazado 113578" d="M71.33,31.13H28.67a4.11,4.11,0,0,0-4.1,4.1V64.77a4.11,4.11,0,0,0,4.1,4.1H71.33a4.11,4.11,0,0,0,4.1-4.1V35.23a4.11,4.11,0,0,0-4.1-4.1ZM26.74,66.28a2.41,2.41,0,0,1-.53-1.51V64h4.42ZM49.18,39.34v3.28H42.62V39.34Zm8.2,0v3.28H50.82V39.34Zm8.21,0v3.28H59V39.34Zm8.2,0v3.28H67.23V39.34Zm-41,13.12H28.35l4.42-2.65Zm1.64-3.28H41v3.28H34.41Zm0,4.92H41v3.28H34.41Zm-1.64,3.28H28.35l4.42-2.65Zm9.85-3.28H49.2v3.28H42.62Zm0-1.64V49.18H49.2v3.28Zm8.2-3.28H57.4v3.28H50.82Zm8.2,0h6.57v3.28H59Zm0-1.64V44.26h6.57v3.28Zm-1.64,0H50.82V44.26h6.56Zm-8.2,0H42.62V44.26h6.56Zm-8.2,0H34.41V44.26H41Zm-8.21,0H28.35l4.42-2.65Zm-6.56-3.28h4.42l-4.42,2.65Zm2.14-1.64L32.77,40v2.66Zm-2.14,6.56h4.42l-4.42,2.65Zm0,4.92h4.42l-4.42,2.65Zm0,4.92h4.42l-4.42,2.66Zm6.56.63v2.66H28.35ZM34.41,59H41v3.29H34.41Zm8.21,0h6.56v3.29H42.62Zm8.2,0h6.56v3.29H50.82Zm0-1.64V54.1h6.56v3.28ZM59,54.1h6.57v3.28H59Zm8.21,0h6.56v3.28H67.23Zm0-1.64V49.18h6.56v3.28Zm0-4.92V44.26h6.56v3.28ZM41,42.62H34.41V39.34H41ZM26.21,42V39.34h4.42ZM41,64v3.28H34.41V64Zm1.64,0H49.2v3.28H42.62Zm8.2,0H57.4v3.28H50.82ZM59,64h6.57v3.28H59Zm0-1.64V59h6.57v3.29ZM67.23,59h6.56v3.29H67.23ZM28.67,32.77H71.33a2.46,2.46,0,0,1,2.46,2.46v2.46H26.21V35.23A2.46,2.46,0,0,1,28.67,32.77Zm-.29,34.44,4.39-2.64v2.66h-4.1Zm43,0h-4.1V64h6.56v.82a2.46,2.46,0,0,1-2.51,2.41Z" fill="#3b4454"/>
        <path id="Trazado_113579" data-name="Trazado 113579" d="M28.67,36.05h1.64a.82.82,0,1,0,0-1.64H28.67a.82.82,0,0,0,0,1.64Z" fill="#3b4454"/>
        <path id="Trazado_113580" data-name="Trazado 113580" d="M36.87,36.05h1.65a.82.82,0,1,0,0-1.64H36.87a.82.82,0,0,0,0,1.64Z" fill="#3b4454"/>
        <path id="Trazado_113581" data-name="Trazado 113581" d="M45.08,36.05h1.64a.82.82,0,1,0,0-1.64H45.08a.82.82,0,0,0,0,1.64Z" fill="#3b4454"/>
        <path id="Trazado_113582" data-name="Trazado 113582" d="M53.28,36.05h1.64a.82.82,0,1,0,0-1.64H53.28a.82.82,0,0,0,0,1.64Z" fill="#3b4454"/>
        <path id="Trazado_113583" data-name="Trazado 113583" d="M53.28,41.8h1.64a.82.82,0,0,0,0-1.64H53.28a.82.82,0,1,0,0,1.64Z" fill="#3b4454"/>
        <path id="Trazado_113584" data-name="Trazado 113584" d="M53.28,46.72h1.64a.82.82,0,1,0,0-1.64H53.28a.82.82,0,0,0,0,1.64Z" fill="#3b4454"/>
        <path id="Trazado_113585" data-name="Trazado 113585" d="M46.72,50H45.08a.82.82,0,0,0,0,1.64h1.64a.82.82,0,1,0,0-1.64Z" fill="#3b4454"/>
        <path id="Trazado_113586" data-name="Trazado 113586" d="M63.13,54.92H61.48a.82.82,0,0,0,0,1.64h1.65a.82.82,0,0,0,0-1.64Z" fill="#3b4454"/>
        <path id="Trazado_113587" data-name="Trazado 113587" d="M38.52,54.92H36.87a.82.82,0,1,0,0,1.64h1.65a.82.82,0,0,0,0-1.64Z" fill="#3b4454"/>
        <path id="Trazado_113588" data-name="Trazado 113588" d="M38.52,59.84H36.87a.82.82,0,1,0,0,1.64h1.65a.82.82,0,0,0,0-1.64Z" fill="#3b4454"/>
        <path id="Trazado_113589" data-name="Trazado 113589" d="M54.92,59.84H53.28a.82.82,0,1,0,0,1.64h1.64a.82.82,0,0,0,0-1.64Z" fill="#3b4454"/>
        <path id="Trazado_113590" data-name="Trazado 113590" d="M71.33,45.08H69.69a.82.82,0,0,0,0,1.64h1.64a.82.82,0,1,0,0-1.64Z" fill="#3b4454"/>
        <path id="Trazado_113591" data-name="Trazado 113591" d="M61.48,36.05h1.65a.82.82,0,1,0,0-1.64H61.48a.82.82,0,0,0,0,1.64Z" fill="#3b4454"/>
        <path id="Trazado_113592" data-name="Trazado 113592" d="M69.69,36.05h1.64a.82.82,0,1,0,0-1.64H69.69a.82.82,0,0,0,0,1.64Z" fill="#3b4454"/>
      </g>
    </g>
  </g>
</svg>
