<svg xmlns="http://www.w3.org/2000/svg" width="120.781" height="99.961" viewBox="0 0 120.781 99.961">
  <g id="Grupo_91711" data-name="Grupo 91711" transform="translate(-729.176 -1916.647)">
    <line id="Línea_89" data-name="Línea 89" x2="21.177" transform="translate(730.176 1967.637)" fill="none" stroke="#6dc5db" stroke-linecap="round" stroke-width="2"/>
    <g id="CF1_ico_excel_copia_3" data-name="CF1_ico excel copia 3" transform="translate(750 1916.647)">
      <path id="Trazado_113557" data-name="Trazado 113557" d="M50,3a3.63,3.63,0,0,1,2.6,1.08L95.92,47.4a3.67,3.67,0,0,1,0,5.2L52.6,95.92a3.67,3.67,0,0,1-5.2,0L4.08,52.6a3.67,3.67,0,0,1,0-5.2L47.4,4.08A3.63,3.63,0,0,1,50,3" fill="#fff"/>
      <path id="Trazado_113558" data-name="Trazado 113558" d="M50,3a3.63,3.63,0,0,1,2.6,1.08L95.92,47.4a3.67,3.67,0,0,1,0,5.2L52.6,95.92a3.67,3.67,0,0,1-5.2,0L4.08,52.6a3.67,3.67,0,0,1,0-5.2L47.4,4.08A3.63,3.63,0,0,1,50,3m0-3a6.62,6.62,0,0,0-4.72,2L2,45.28a6.67,6.67,0,0,0,0,9.44L45.28,98a6.66,6.66,0,0,0,9.44,0L98,54.72a6.67,6.67,0,0,0,0-9.44L54.72,2A6.62,6.62,0,0,0,50,0Z" fill="#60c1dd"/>
      <path id="Trazado_113559" data-name="Trazado 113559" d="M53,45.67H47a.76.76,0,0,0-.75.75v21a.75.75,0,0,0,.75.75h6a.75.75,0,0,0,.75-.75v-21A.76.76,0,0,0,53,45.67Zm-.75,21h-4.5V47.17h4.5Z" fill="#60c1dd"/>
      <path id="Trazado_113560" data-name="Trazado 113560" d="M71,42.67H65a.76.76,0,0,0-.75.75v24a.75.75,0,0,0,.75.75h6a.74.74,0,0,0,.75-.75v-24A.75.75,0,0,0,71,42.67Zm-.75,24h-4.5V44.17h4.5Z" fill="#60c1dd"/>
      <path id="Trazado_113561" data-name="Trazado 113561" d="M62,59.17H56a.76.76,0,0,0-.75.75v7.5a.75.75,0,0,0,.75.75h6a.74.74,0,0,0,.75-.75v-7.5a.75.75,0,0,0-.75-.75Zm-.75,7.5h-4.5v-6h4.5Z" fill="#60c1dd"/>
      <path id="Trazado_113562" data-name="Trazado 113562" d="M35,48.67H29a.75.75,0,0,0-.75.75v18a.74.74,0,0,0,.75.75h6a.75.75,0,0,0,.75-.75v-18A.76.76,0,0,0,35,48.67Zm-.75,18h-4.5V50.17h4.5Z" fill="#60c1dd"/>
      <path id="Trazado_113563" data-name="Trazado 113563" d="M44,53.17H38a.75.75,0,0,0-.75.75v13.5a.74.74,0,0,0,.75.75h6a.75.75,0,0,0,.75-.75V53.92a.76.76,0,0,0-.75-.75Zm-.75,13.5h-4.5v-12h4.5Z" fill="#60c1dd"/>
      <path id="Trazado_113564" data-name="Trazado 113564" d="M68.05,29.88A3,3,0,0,0,66,35.1L59.73,46.52A2.71,2.71,0,0,0,58,46.6l-5.79-8.69a3,3,0,1,0-4.93-.71L42.74,41a3,3,0,0,0-4,.47l-3.82-1.91a3,3,0,1,0-3.56,2.3,2.65,2.65,0,0,0,.63.07,3,3,0,0,0,2.25-1l3.82,1.91a3,3,0,1,0,5.63-.64l4.55-3.79a2.93,2.93,0,0,0,2.73.39l5.79,8.69a3,3,0,1,0,4.27-.2l6.23-11.42a2.62,2.62,0,0,0,.73.1,3,3,0,1,0,0-6ZM32,40.42a1.5,1.5,0,1,1,1.5-1.5A1.5,1.5,0,0,1,32,40.42Zm9,4.5a1.5,1.5,0,1,1,1.5-1.5A1.5,1.5,0,0,1,41,44.92Zm9-7.5a1.5,1.5,0,1,1,1.5-1.5,1.5,1.5,0,0,1-1.5,1.5Zm9,13.5a1.5,1.5,0,1,1,1.5-1.5,1.5,1.5,0,0,1-1.5,1.5Zm9-16.5a1.5,1.5,0,1,1,1.5-1.5A1.5,1.5,0,0,1,68,34.42Z" fill="#60c1dd"/>
      <path id="Trazado_113565" data-name="Trazado 113565" d="M71.75,68.92H28.25a.75.75,0,0,0-.75.75v3a.75.75,0,0,0,.75.75h43.5a.75.75,0,0,0,.75-.75v-3A.75.75,0,0,0,71.75,68.92Zm-.75,3H29v-1.5H71Z" fill="#60c1dd"/>
      <g id="Grupo_89661" data-name="Grupo 89661">
        <path id="Trazado_113566" data-name="Trazado 113566" d="M48.79,23.19a3.73,3.73,0,1,1,3.72-3.73A3.73,3.73,0,0,1,48.79,23.19Zm0-6a2.245,2.245,0,1,1,0,.04Z" fill="#60c1dd"/>
        <path id="Trazado_113567" data-name="Trazado 113567" d="M50,29.14H47.6a1.47,1.47,0,0,1-1.48-1.34l-.19-1.89a6.39,6.39,0,0,1-1.29-.75l-1.74.78a1.47,1.47,0,0,1-1.9-.61l-1.19-2a1.48,1.48,0,0,1,.42-2l1.53-1.1a5.94,5.94,0,0,1,0-.76,5.781,5.781,0,0,1,0-.75L40.23,17.6a1.47,1.47,0,0,1-.42-2L41,13.59A1.48,1.48,0,0,1,42.9,13l1.74.79A6.39,6.39,0,0,1,45.93,13l.19-1.9A1.48,1.48,0,0,1,47.6,9.78H50a1.48,1.48,0,0,1,1.48,1.34l.19,1.9a6.39,6.39,0,0,1,1.29.75L54.67,13a1.49,1.49,0,0,1,1.91.61l1.18,2.06a1.47,1.47,0,0,1-.42,2l-1.53,1.11a5.781,5.781,0,0,1,0,.75,5.94,5.94,0,0,1,0,.76l1.53,1.1a1.48,1.48,0,0,1,.42,2l-1.18,2a1.49,1.49,0,0,1-1.91.61l-1.74-.78a6.39,6.39,0,0,1-1.29.75l-.19,1.89A1.47,1.47,0,0,1,50,29.14Zm-5.23-5.59a.74.74,0,0,1,.48.18,5.53,5.53,0,0,0,1.66,1,.74.74,0,0,1,.48.62l.24,2.34H50l.24-2.34a.76.76,0,0,1,.48-.62,5.66,5.66,0,0,0,1.66-1,.72.72,0,0,1,.78-.11l2.15,1,1.19-2.06-1.9-1.37a.74.74,0,0,1-.3-.73,5.23,5.23,0,0,0,.1-1,5,5,0,0,0-.1-1,.76.76,0,0,1,.3-.74l1.9-1.36L55.32,14.3l-2.15,1a.75.75,0,0,1-.79-.11,5.33,5.33,0,0,0-1.66-1,.76.76,0,0,1-.48-.63L50,11.27H47.6l-.24,2.34a.75.75,0,0,1-.48.63,5.45,5.45,0,0,0-1.66,1,.76.76,0,0,1-.78.11l-2.15-1L41.1,16.39,43,17.76a.75.75,0,0,1,.3.74,5,5,0,0,0-.1,1,5.23,5.23,0,0,0,.1,1,.75.75,0,0,1-.3.73L41.1,22.6l1.18,2.06,2.15-1a.7.7,0,0,1,.31-.11Z" fill="#60c1dd"/>
      </g>
    </g>
  </g>
</svg>
