<svg xmlns="http://www.w3.org/2000/svg" width="189.257" height="189.258" viewBox="0 0 189.257 189.258">
  <g id="Grupo_91722" data-name="Grupo 91722" transform="translate(-702.879 -9788.879)">
    <g id="Grupo_88938" data-name="Grupo 88938" transform="translate(-245.485 8781.951)">
      <rect id="Rect치ngulo_33010" data-name="Rect치ngulo 33010" width="130.825" height="130.825" rx="22" transform="translate(950.485 1101.557) rotate(-45)" fill="#fff" stroke="#60c1dd" stroke-width="3"/>
    </g>
    <g id="CF1_ico_2" data-name="CF1_ico 2" transform="translate(750 9834)">
      <rect id="Rect치ngulo_35556" data-name="Rect치ngulo 35556" width="100" height="100" fill="none"/>
      <path id="Trazado_113537" data-name="Trazado 113537" d="M65.61,50.33a1.82,1.82,0,0,1,0-3.64h4a1.82,1.82,0,0,1,0,3.64Z" fill="#4891a6"/>
      <path id="Trazado_113538" data-name="Trazado 113538" d="M71.25,90.16a19,19,0,0,1-13.46-5.61H28.85A7.09,7.09,0,0,1,22,79.31l-7.8-29a4.45,4.45,0,0,1-4.37-4.44V40.61a4.46,4.46,0,0,1,4.45-4.45h6.09v-14a9.72,9.72,0,0,1,9.71-9.71H31.3a4.42,4.42,0,0,1,4-2.63h29a4.43,4.43,0,0,1,4,2.63h1.22a9.72,9.72,0,0,1,9.71,9.71v14h6.09a4.46,4.46,0,0,1,4.45,4.45v5.27a4.45,4.45,0,0,1-4.37,4.44l-1.78,6.62A18.92,18.92,0,0,1,71.25,90.16Zm-.37-34.57a15.3,15.3,0,1,0,15.29,15.3A15.3,15.3,0,0,0,70.88,55.59ZM25.51,78.37a3.46,3.46,0,0,0,3.33,2.55h26A19.12,19.12,0,0,1,53,77a5.73,5.73,0,0,1-5.53.42,5.79,5.79,0,0,1-3.38-5.18V59a5.77,5.77,0,0,1,11.53,0v.75a18.93,18.93,0,0,1,24.94-5.17l1.16-4.29H77.46a1.82,1.82,0,0,1,0-3.64h7.9a.81.81,0,0,0,.81-.81V40.61a.82.82,0,0,0-.81-.82H14.27a.82.82,0,0,0-.81.82v5.27a.81.81,0,0,0,.81.81H59a1.82,1.82,0,0,1,0,3.64H18Zm24.3-21.46A2.13,2.13,0,0,0,47.68,59V72.2a2.14,2.14,0,1,0,4.27,0V59a2.13,2.13,0,0,0-2.14-2.09ZM75.64,36.16v-14a6.09,6.09,0,0,0-6.08-6.08H68.35a4.46,4.46,0,0,1-4,2.63h-29a4.46,4.46,0,0,1-4-2.63H30.07A6.09,6.09,0,0,0,24,22.18v14ZM35.33,13.47a.81.81,0,0,0-.81.81.82.82,0,0,0,.81.82h29a.82.82,0,0,0,.82-.82.81.81,0,0,0-.82-.81Z" fill="#4891a6"/>
      <path id="Trazado_113539" data-name="Trazado 113539" d="M34,78a5.78,5.78,0,0,1-5.77-5.77V59a5.77,5.77,0,0,1,11.53,0V72.2A5.77,5.77,0,0,1,34,78Zm0-21.06A2.13,2.13,0,0,0,31.89,59V72.2a2.13,2.13,0,0,0,4.26,0V59A2.13,2.13,0,0,0,34,56.91Z" fill="#4891a6"/>
      <path id="Trazado_113540" data-name="Trazado 113540" d="M66.27,68.75A3.79,3.79,0,1,1,70.06,65a3.79,3.79,0,0,1-3.79,3.75Zm0-3.94a.155.155,0,1,0,.16.15.16.16,0,0,0-.16-.15Z" fill="#4891a6"/>
      <path id="Trazado_113541" data-name="Trazado 113541" d="M75.48,79.28a3.79,3.79,0,1,1,3.79-3.79A3.79,3.79,0,0,1,75.48,79.28Zm0-3.94a.15.15,0,0,0-.15.15.155.155,0,1,0,.15-.15Z" fill="#4891a6"/>
      <path id="Trazado_113542" data-name="Trazado 113542" d="M64.29,79.29A1.81,1.81,0,0,1,63,78.76a1.83,1.83,0,0,1,0-2.58L76.17,63a1.78,1.78,0,0,1,1.29-.54,1.83,1.83,0,0,1,1.29,3.11L65.58,78.76A1.81,1.81,0,0,1,64.29,79.29Z" fill="#4891a6"/>
    </g>
  </g>
</svg>
