<svg xmlns="http://www.w3.org/2000/svg" width="99.914" height="99.961" viewBox="0 0 99.914 99.961">
  <g id="Grupo_91688" data-name="Grupo 91688" transform="translate(-750.043 -2080.09)">
    <g id="CF1_ico_excel_copia_4" data-name="CF1_ico excel copia 4" transform="translate(750 2080.09)">
      <path id="Trazado_113568" data-name="Trazado 113568" d="M50,3a3.63,3.63,0,0,1,2.6,1.08L95.92,47.4a3.67,3.67,0,0,1,0,5.2L52.6,95.92a3.67,3.67,0,0,1-5.2,0L4.08,52.6a3.67,3.67,0,0,1,0-5.2L47.4,4.08A3.63,3.63,0,0,1,50,3" fill="#fff"/>
      <path id="Trazado_113569" data-name="Trazado 113569" d="M50,3a3.63,3.63,0,0,1,2.6,1.08L95.92,47.4a3.67,3.67,0,0,1,0,5.2L52.6,95.92a3.67,3.67,0,0,1-5.2,0L4.08,52.6a3.67,3.67,0,0,1,0-5.2L47.4,4.08A3.63,3.63,0,0,1,50,3m0-3a6.62,6.62,0,0,0-4.72,2L2,45.28a6.67,6.67,0,0,0,0,9.44L45.28,98a6.66,6.66,0,0,0,9.44,0L98,54.72a6.67,6.67,0,0,0,0-9.44L54.72,2A6.62,6.62,0,0,0,50,0Z" fill="#3b4454"/>
      <g id="Grupo_89662" data-name="Grupo 89662">
        <path id="Trazado_113570" data-name="Trazado 113570" d="M68.61,32.55a26,26,0,0,0-33.09-3,1.014,1.014,0,0,0,1.15,1.67,23.91,23.91,0,1,1-6.18,6.17,1.014,1.014,0,1,0-1.67-1.15,26,26,0,1,0,39.79-3.65Z" fill="#3b4454"/>
        <path id="Trazado_113571" data-name="Trazado 113571" d="M42.44,63.62a2.07,2.07,0,0,1-1.77-1l-.34-.57a1,1,0,1,0-1.74,1l.33.56a4.1,4.1,0,0,0,7.57-1.46l2.24-14.44h2.05a1,1,0,0,0,0-2H49L49.93,40a2.044,2.044,0,0,1,3.78-.75l.33.56a1.008,1.008,0,1,0,1.75-1l-.34-.56a4.063,4.063,0,0,0-7.52,1.47l-.93,6H44.94a1,1,0,0,0,0,2h1.73L44.48,61.88a2,2,0,0,1-2,1.74Z" fill="#3b4454"/>
        <path id="Trazado_113572" data-name="Trazado 113572" d="M61.13,51.3a1,1,0,0,0-1.43.2l-2.34,3.11L55,51.5a1.017,1.017,0,0,0-1.62,1.23l2.71,3.57-3,4a1.017,1.017,0,1,0,1.62,1.23L57.37,58l2.83,3.74a1.017,1.017,0,1,0,1.62-1.23l-3.18-4.2,2.69-3.56a1,1,0,0,0-.2-1.43Z" fill="#3b4454"/>
        <circle id="Elipse_4072" data-name="Elipse 4072" cx="1.02" cy="1.02" r="1.02" transform="translate(31.56 32.24)" fill="#3b4454"/>
      </g>
    </g>
  </g>
</svg>
