<svg xmlns="http://www.w3.org/2000/svg" width="121.303" height="99.961" viewBox="0 0 121.303 99.961">
  <g id="Grupo_91710" data-name="Grupo 91710" transform="translate(-750.043 -1755.804)">
    <line id="Línea_88" data-name="Línea 88" x2="21.177" transform="translate(849.169 1805.785)" fill="none" stroke="#6dc5db" stroke-linecap="round" stroke-width="2"/>
    <g id="CF1_ico_excel_copia_2" data-name="CF1_ico excel copia 2" transform="translate(750 1755.804)">
      <path id="Trazado_113550" data-name="Trazado 113550" d="M50,3a3.63,3.63,0,0,1,2.6,1.08L95.92,47.4a3.67,3.67,0,0,1,0,5.2L52.6,95.92a3.67,3.67,0,0,1-5.2,0L4.08,52.6a3.67,3.67,0,0,1,0-5.2L47.4,4.08A3.63,3.63,0,0,1,50,3" fill="#fff"/>
      <path id="Trazado_113551" data-name="Trazado 113551" d="M50,3a3.63,3.63,0,0,1,2.6,1.08L95.92,47.4a3.67,3.67,0,0,1,0,5.2L52.6,95.92a3.67,3.67,0,0,1-5.2,0L4.08,52.6a3.67,3.67,0,0,1,0-5.2L47.4,4.08A3.63,3.63,0,0,1,50,3m0-3a6.62,6.62,0,0,0-4.72,2L2,45.28a6.67,6.67,0,0,0,0,9.44L45.28,98a6.66,6.66,0,0,0,9.44,0L98,54.72a6.67,6.67,0,0,0,0-9.44L54.72,2A6.62,6.62,0,0,0,50,0Z" fill="#3b4454"/>
      <g id="Grupo_89660" data-name="Grupo 89660">
        <path id="Trazado_113552" data-name="Trazado 113552" d="M30.26,70.52H24.1a1,1,0,0,1-1-1V51a1,1,0,0,1,1-1c7,0,10.67,2.35,10.82,2.45a1,1,0,0,1,.43,1.11l-4.1,16.18A1,1,0,0,1,30.26,70.52Zm-5.13-2h4.33l3.71-14.63a20.28,20.28,0,0,0-8-1.77Z" fill="#20242d"/>
        <path id="Trazado_113553" data-name="Trazado 113553" d="M49.75,74.62c-4.83,0-14.2-4.07-19.36-6.5a1.024,1.024,0,0,1,.88-1.85c8.5,4,15.24,6.3,18.48,6.3,5,0,16.75-5.86,20.14-7.61a4.47,4.47,0,0,0-3.73-1.62,24.8,24.8,0,0,0-6.61,1.49,26,26,0,0,1-7.24,1.58c-4.23,0-9.86-2-10.09-2.11a1.022,1.022,0,1,1,.7-1.92s5.52,2,9.39,2a24.78,24.78,0,0,0,6.62-1.49,26,26,0,0,1,7.23-1.59,6.2,6.2,0,0,1,6.11,3.78,1,1,0,0,1-.49,1.24C71.14,66.63,56.09,74.62,49.75,74.62Z" fill="#20242d"/>
        <path id="Trazado_113554" data-name="Trazado 113554" d="M56.93,65.57a1,1,0,0,1-1-1v-1a3,3,0,0,0-2.34-3L33.75,55.76a1.028,1.028,0,1,1,.48-2L54,58.54a5.09,5.09,0,0,1,3.93,5v1a1,1,0,0,1-1,1Z" fill="#20242d"/>
        <g id="Grupo_89659" data-name="Grupo 89659">
          <path id="Trazado_113555" data-name="Trazado 113555" d="M59,43.84a5.13,5.13,0,1,1,5.13-5.12A5.13,5.13,0,0,1,59,43.84Zm0-8.2a3.08,3.08,0,1,0,3.08,3.08A3.08,3.08,0,0,0,59,35.64Z" fill="#20242d"/>
          <path id="Trazado_113556" data-name="Trazado 113556" d="M60.62,52.05H57.34a2,2,0,0,1-2-1.85L55,47.6a9.89,9.89,0,0,1-1.77-1l-2.4,1.08a2,2,0,0,1-2.62-.84L46.62,44a2,2,0,0,1,.57-2.69l2.12-1.52a8.5,8.5,0,0,1-.07-1,8.24,8.24,0,0,1,.07-1l-2.12-1.52a2,2,0,0,1-.57-2.7l1.63-2.83a2,2,0,0,1,2.62-.84l2.4,1.08a9.27,9.27,0,0,1,1.77-1l.27-2.61a2,2,0,0,1,2-1.85h3.28a2,2,0,0,1,2,1.85l.26,2.61a9.35,9.35,0,0,1,1.78,1l2.39-1.08a2,2,0,0,1,2.62.84l1.64,2.83a2,2,0,0,1-.58,2.69l-2.11,1.52a7.84,7.84,0,0,1,0,2.09l2.11,1.51a2.05,2.05,0,0,1,.58,2.7L69.71,46.8a2,2,0,0,1-2.62.84L64.7,46.56a9.35,9.35,0,0,1-1.78,1l-.26,2.62a2,2,0,0,1-2,1.84Zm-7.21-7.7a1,1,0,0,1,.66.24,7.87,7.87,0,0,0,2.28,1.33,1,1,0,0,1,.67.86L57.34,50h3.28l.32-3.22a1,1,0,0,1,.67-.86,7.61,7.61,0,0,0,2.28-1.33A1,1,0,0,1,65,44.44l3,1.34,1.64-2.84L67,41.06a1,1,0,0,1-.41-1,7.411,7.411,0,0,0,.14-1.33,7.22,7.22,0,0,0-.14-1.33,1,1,0,0,1,.41-1l2.62-1.88-1.63-2.83L65,33a1,1,0,0,1-1.09-.14,7.41,7.41,0,0,0-2.28-1.33,1,1,0,0,1-.67-.86l-.32-3.23h-3.3L57,30.65a1,1,0,0,1-.66.87,7.75,7.75,0,0,0-2.29,1.32A1,1,0,0,1,53,33l-3-1.34L48.36,34.5,51,36.37a1,1,0,0,1,.41,1,8.45,8.45,0,0,0-.13,1.34A8.2,8.2,0,0,0,51.42,40a1,1,0,0,1-.41,1l-2.62,1.88L50,45.78l3-1.34a1.06,1.06,0,0,1,.41-.09Z" fill="#20242d"/>
        </g>
      </g>
    </g>
  </g>
</svg>
