<svg xmlns="http://www.w3.org/2000/svg" width="120.781" height="99.961" viewBox="0 0 120.781 99.961">
  <g id="Grupo_91713" data-name="Grupo 91713" transform="translate(-729.176 -2240.351)">
    <line id="Línea_92" data-name="Línea 92" x2="21.177" transform="translate(730.176 2290.331)" fill="none" stroke="#6dc5db" stroke-linecap="round" stroke-width="2"/>
    <g id="CF1_ico_excel_copia_5" data-name="CF1_ico excel copia 5" transform="translate(750 2240.351)">
      <path id="Trazado_113573" data-name="Trazado 113573" d="M50,3a3.63,3.63,0,0,1,2.6,1.08L95.92,47.4a3.67,3.67,0,0,1,0,5.2L52.6,95.92a3.67,3.67,0,0,1-5.2,0L4.08,52.6a3.67,3.67,0,0,1,0-5.2L47.4,4.08A3.63,3.63,0,0,1,50,3" fill="#fff"/>
      <path id="Trazado_113574" data-name="Trazado 113574" d="M50,3a3.63,3.63,0,0,1,2.6,1.08L95.92,47.4a3.67,3.67,0,0,1,0,5.2L52.6,95.92a3.67,3.67,0,0,1-5.2,0L4.08,52.6a3.67,3.67,0,0,1,0-5.2L47.4,4.08A3.63,3.63,0,0,1,50,3m0-3a6.62,6.62,0,0,0-4.72,2L2,45.28a6.67,6.67,0,0,0,0,9.44L45.28,98a6.66,6.66,0,0,0,9.44,0L98,54.72a6.67,6.67,0,0,0,0-9.44L54.72,2A6.62,6.62,0,0,0,50,0Z" fill="#60c1dd"/>
      <path id="Trazado_113575" data-name="Trazado 113575" d="M79.15,53.82a1,1,0,0,1-.91.27l-.24.73a1,1,0,0,1-.24.39L75,58a1,1,0,0,1-1.29.09,1,1,0,0,1-.1,1.3L55.21,77.76a1,1,0,0,1-1.4,0L48.7,72.65A3.83,3.83,0,0,1,47.58,75a3.73,3.73,0,0,1-.47.41,3.934,3.934,0,0,1-5.09-6,3.87,3.87,0,0,1,2.33-1.13l-5.11-5.1a1,1,0,0,1,0-1.4l6.94-6.94a1,1,0,0,1,1.4,0,2.78,2.78,0,0,1,.82,2,1.92,1.92,0,0,0,.6,1.48,2,2,0,0,0,1.49.57,1.9,1.9,0,0,0,1.27-.58.93.93,0,0,0,.16-.18,2,2,0,0,0,0-2.33,1.92,1.92,0,0,0-1.6-.8,2.83,2.83,0,0,1-2.06-.82,1,1,0,0,1,0-1.4l.69-.7a.99.99,0,0,1,1.66.94,3.89,3.89,0,0,1,2.93,1.62,3.93,3.93,0,0,1-.09,4.73,3.52,3.52,0,0,1-.31.35,3.93,3.93,0,0,1-6.7-2.32l-5.1,5.1L46.88,68a1,1,0,0,1,0,1.4,2.8,2.8,0,0,1-2,.82,1.88,1.88,0,0,0-1.44.57,1.95,1.95,0,0,0,.18,2.92,2,2,0,0,0,2.34.05,1.571,1.571,0,0,0,.24-.21,1.86,1.86,0,0,0,.56-1.41,2.8,2.8,0,0,1,.83-2.06,1,1,0,0,1,1.4,0l5.54,5.55L65.28,64.88a2.17,2.17,0,0,1-.37-.31,2.37,2.37,0,0,1-.69-1.39,2.4,2.4,0,0,1-1.39-.69,2.37,2.37,0,0,1-.69-1.39A2.43,2.43,0,0,1,60.06,59a2.37,2.37,0,0,1-1.39-.69,2.46,2.46,0,0,1,0-3.48L63.52,50l-4.85-4.84-2.09,2.08.08.1a4,4,0,0,1-.09,4.74,3.39,3.39,0,0,1-.31.34,4,4,0,0,1-2.57,1.16,3.95,3.95,0,0,1-4.13-3.48l-7.18,7.19a1,1,0,0,1-1.41,0L36.6,52.92a1,1,0,0,1-.12,1.25L33.7,56.94a.88.88,0,0,1-.39.24l-.73.25a1,1,0,0,1-.26.9l-2.78,2.78a1,1,0,0,1-1.4,0l-9.71-9.72a1,1,0,0,1,0-1.4l2.77-2.77a1,1,0,0,1,1.4,0l.39-.4V45.14a1,1,0,0,1,.29-.7l21.51-21.5a1,1,0,0,1,1.4,0L51.3,28a3.85,3.85,0,0,1,1.12-2.33,4,4,0,0,1,.48-.41,3.945,3.945,0,1,1,2.76,7.13l5.1,5.1a1,1,0,0,1,0,1.41l-6.84,6.84A3.74,3.74,0,0,1,55,46l3-3a1,1,0,0,1,1.4,0l3.81,3.81,2.08-2.07a1,1,0,0,1,.7-.29h1.67l.39-.4a1,1,0,0,1,0-1.39l2.78-2.78a1,1,0,0,1,1.4,0l9.71,9.72a1,1,0,0,1,0,1.4ZM66.31,62.49a.481.481,0,0,0,.68.68l5.2-5.2a1,1,0,0,1,1.3-.09,1,1,0,0,1,.09-1.3L76.19,54l.62-1.86a1.51,1.51,0,0,1,.15-.28,1,1,0,0,1-1.3-.09L69.43,45.5l-.69.69a1,1,0,0,1-.7.29H66.37l-1.79,1.79.34.33A1,1,0,1,1,66.31,50l-6.24,6.24a.481.481,0,0,0,.68.68l4.85-4.86A1,1,0,0,1,67,53.48l-4.85,4.85a.481.481,0,1,0,.68.68l4.85-4.85a1,1,0,1,1,1.41,1.4l-4.86,4.85a.481.481,0,0,0,.68.68l4.86-4.85a.99.99,0,0,1,1.4,1.4ZM79.82,50.35,71.51,42l-1.38,1.38,6.93,6.93a1,1,0,0,1,.1,1.3.82.82,0,0,1,.36-.18,1,1,0,0,1,.92.26ZM49.3,47.56a1,1,0,0,1,1.4,0,2.8,2.8,0,0,1,.82,2A1.88,1.88,0,0,0,52.09,51a1.92,1.92,0,0,0,1.49.57A1.94,1.94,0,0,0,54.85,51l.16-.18a1.95,1.95,0,0,0-1.57-3.15,2.83,2.83,0,0,1-2.06-.82,1,1,0,0,1,0-1.4l7.28-7.28-5.54-5.54a1,1,0,0,1,0-1.4,2.78,2.78,0,0,1,2-.82,1.94,1.94,0,0,0,2-2.06,2,2,0,0,0-3.09-1.48l-.24.21a2,2,0,0,0-.56,1.41,2.83,2.83,0,0,1-.82,2.06,1,1,0,0,1-1.4,0L45.49,25,28.16,42.37l.33.33,4.85-4.85a2.45,2.45,0,0,1,4.17,1.39,2.43,2.43,0,0,1,2.09,2.09A2.47,2.47,0,0,1,41,42a2.55,2.55,0,0,1,.69,1.4,2.43,2.43,0,0,1,1.39.69,2.46,2.46,0,0,1,0,3.48l-4.5,4.5,3.1,3.11ZM35.08,52.77a1,1,0,0,1,1.3-.09,1,1,0,0,1,.08-1.3l5.21-5.2A.48.48,0,0,0,41,45.5l-4.86,4.85a1,1,0,1,1-1.4-1.4L39.6,44.1a.5.5,0,0,0,0-.68.48.48,0,0,0-.68,0l-4.86,4.85a1,1,0,1,1-1.4-1.4L37.51,42a.481.481,0,0,0-.68-.68L32,46.19a1,1,0,0,1-1.4-1.4l4.85-4.86a.48.48,0,0,0,0-.68.5.5,0,0,0-.68,0L28.5,45.5a1,1,0,0,1-1.41-1.4l-.33-.33L25,45.55v1.67a1,1,0,0,1-.29.7l-.68.69,6.23,6.24a1,1,0,0,1,.1,1.3.69.69,0,0,1,.28-.15l1.86-.62Zm-4.87,4.86a1.008,1.008,0,0,1-.08-1.29,1,1,0,0,1-1.3-.09L21.9,49.32l-1.37,1.37L28.84,59Z" fill="#60c1dd"/>
    </g>
  </g>
</svg>
