<svg xmlns="http://www.w3.org/2000/svg" width="120.781" height="99.961" viewBox="0 0 120.781 99.961">
  <g id="Grupo_91709" data-name="Grupo 91709" transform="translate(-729.176 -1594.961)">
    <line id="Línea_87" data-name="Línea 87" x2="21.177" transform="translate(730.176 1644.941)" fill="none" stroke="#6dc5db" stroke-linecap="round" stroke-width="2"/>
    <g id="CF1_ico_excel_copia" data-name="CF1_ico excel copia" transform="translate(750 1594.961)">
      <path id="Trazado_113597" data-name="Trazado 113597" d="M50,3a3.63,3.63,0,0,1,2.6,1.08L95.92,47.4a3.67,3.67,0,0,1,0,5.2L52.6,95.92a3.67,3.67,0,0,1-5.2,0L4.08,52.6a3.67,3.67,0,0,1,0-5.2L47.4,4.08A3.63,3.63,0,0,1,50,3" fill="#fff"/>
      <path id="Trazado_113598" data-name="Trazado 113598" d="M50,3a3.63,3.63,0,0,1,2.6,1.08L95.92,47.4a3.67,3.67,0,0,1,0,5.2L52.6,95.92a3.67,3.67,0,0,1-5.2,0L4.08,52.6a3.67,3.67,0,0,1,0-5.2L47.4,4.08A3.63,3.63,0,0,1,50,3m0-3a6.62,6.62,0,0,0-4.72,2L2,45.28a6.67,6.67,0,0,0,0,9.44L45.28,98a6.66,6.66,0,0,0,9.44,0L98,54.72a6.67,6.67,0,0,0,0-9.44L54.72,2A6.62,6.62,0,0,0,50,0Z" fill="#60c1dd"/>
      <g id="Grupo_89664" data-name="Grupo 89664">
        <path id="Trazado_113599" data-name="Trazado 113599" d="M49.1,40.5h-5a1.25,1.25,0,0,0,0,2.49h5a1.25,1.25,0,1,0,0-2.49Z" fill="#60c1dd"/>
        <path id="Trazado_113600" data-name="Trazado 113600" d="M49.1,50.72h-5a1.25,1.25,0,0,0,0,2.49h5a1.25,1.25,0,1,0,0-2.49Z" fill="#60c1dd"/>
        <path id="Trazado_113601" data-name="Trazado 113601" d="M49.1,61.18h-5a1.25,1.25,0,0,0,0,2.49h5a1.25,1.25,0,1,0,0-2.49Z" fill="#60c1dd"/>
        <path id="Trazado_113602" data-name="Trazado 113602" d="M73.78,52.08a13.22,13.22,0,0,0-10.37-5h-.6V31.35c0-1.42-.9-3.45-5.21-5a33.54,33.54,0,0,0-11.05-1.67,33.48,33.48,0,0,0-11,1.67c-4.32,1.56-5.22,3.59-5.22,5v31c0,1.43.9,3.46,5.22,5A33.78,33.78,0,0,0,46.56,69a39.291,39.291,0,0,0,6.5-.51A13.22,13.22,0,1,0,73.78,52.08ZM46.56,27.16c9,0,13.78,2.73,13.78,4.19s-4.74,4.2-13.78,4.2-13.79-2.73-13.79-4.2S37.51,27.16,46.56,27.16Zm0,18.69c-9,0-13.77-2.73-13.77-4.19V35.07a15.51,15.51,0,0,0,2.73,1.3A33.5,33.5,0,0,0,46.56,38a33.48,33.48,0,0,0,11-1.67,15.09,15.09,0,0,0,2.72-1.3v6.59c.04,1.5-4.68,4.23-13.73,4.23Zm13.77-.48v2.06a13.32,13.32,0,0,0-9.39,8.48,37.529,37.529,0,0,1-4.37.25c-9.05,0-13.78-2.73-13.78-4.2V45.37a14.88,14.88,0,0,0,2.73,1.31,33.78,33.78,0,0,0,11.05,1.66,33.72,33.72,0,0,0,11-1.66,14.491,14.491,0,0,0,2.75-1.31ZM46.56,66.53A31.05,31.05,0,0,1,36.36,65c-2.64-1-3.58-2-3.58-2.67V55.68A15.51,15.51,0,0,0,35.51,57a33.5,33.5,0,0,0,11.05,1.67c1.28,0,2.54-.06,3.76-.17a13.16,13.16,0,0,0,1.27,7.73,38.5,38.5,0,0,1-5.03.3ZM63.42,71A10.74,10.74,0,1,1,74.16,60.3,10.74,10.74,0,0,1,63.42,71Z" fill="#60c1dd"/>
        <path id="Trazado_113603" data-name="Trazado 113603" d="M68.19,58.29l-3.92-3.64a1.24,1.24,0,0,0-1.7,0l-3.92,3.64a1.25,1.25,0,0,0,1.7,1.83h0l1.84-1.7V65a1.25,1.25,0,0,0,2.49,0V58.42l1.82,1.7a1.24,1.24,0,0,0,1.76-.07A1.26,1.26,0,0,0,68.19,58.29Z" fill="#60c1dd"/>
      </g>
    </g>
  </g>
</svg>
