<svg xmlns="http://www.w3.org/2000/svg" width="99.914" height="99.961" viewBox="0 0 99.914 99.961">
  <g id="Grupo_91691" data-name="Grupo 91691" transform="translate(-750.043 -2557.02)">
    <g id="CF1_ico_excel_copia_7" data-name="CF1_ico excel copia 7" transform="translate(750 2557.02)">
      <path id="Trazado_113593" data-name="Trazado 113593" d="M50,3a3.63,3.63,0,0,1,2.6,1.08L95.92,47.4a3.67,3.67,0,0,1,0,5.2L52.6,95.92a3.67,3.67,0,0,1-5.2,0L4.08,52.6a3.67,3.67,0,0,1,0-5.2L47.4,4.08A3.63,3.63,0,0,1,50,3" fill="#fff"/>
      <path id="Trazado_113594" data-name="Trazado 113594" d="M50,3a3.63,3.63,0,0,1,2.6,1.08L95.92,47.4a3.67,3.67,0,0,1,0,5.2L52.6,95.92a3.67,3.67,0,0,1-5.2,0L4.08,52.6a3.67,3.67,0,0,1,0-5.2L47.4,4.08A3.63,3.63,0,0,1,50,3m0-3a6.62,6.62,0,0,0-4.72,2L2,45.28a6.67,6.67,0,0,0,0,9.44L45.28,98a6.66,6.66,0,0,0,9.44,0L98,54.72a6.67,6.67,0,0,0,0-9.44L54.72,2A6.62,6.62,0,0,0,50,0Z" fill="#60c1dd"/>
      <rect id="Rectángulo_35558" data-name="Rectángulo 35558" width="19.01" height="19.01" rx="4.82" transform="translate(60.41 47.18)" fill="none" stroke="#60c1dd" stroke-miterlimit="10" stroke-width="2"/>
      <path id="Trazado_113595" data-name="Trazado 113595" d="M26.58,35.82A6.28,6.28,0,0,1,32.78,40a13,13,0,0,1,.83,4.86,16.59,16.59,0,0,1-1,5.89,7.45,7.45,0,0,1-2.79,3.81,7.51,7.51,0,0,1-4.13,1.14,7.77,7.77,0,0,1-3.1-.62,5.74,5.74,0,0,1-2.34-1.88,8.42,8.42,0,0,1-1.31-2.93,14.57,14.57,0,0,1-.41-3.46,17.44,17.44,0,0,1,1-5.8,7.43,7.43,0,0,1,2.86-4,7.62,7.62,0,0,1,4.19-1.19ZM26.38,39a2.6,2.6,0,0,0-1.94.93,6.18,6.18,0,0,0-1.34,2.83,17.59,17.59,0,0,0-.47,4.18,8.19,8.19,0,0,0,.87,4.27,2.56,2.56,0,0,0,2.26,1.37,2.53,2.53,0,0,0,1-.21,2.87,2.87,0,0,0,1-.82,6.17,6.17,0,0,0,.92-1.7,11.36,11.36,0,0,0,.61-2.43,18.67,18.67,0,0,0,.19-2.73,8.1,8.1,0,0,0-.89-4.26A2.61,2.61,0,0,0,26.38,39Zm.25,28.12,9-15.76,8.47-15.2c.67,0,1.32.05,1.94.05s1.17,0,1.88-.05L41.71,47,32.36,63.74l-1.77,3.38c-.68,0-1.3-.05-1.86-.05S27.57,67.09,26.63,67.12ZM48.89,47.57a6.93,6.93,0,0,1,3.74,1,6.55,6.55,0,0,1,2.44,3,12.18,12.18,0,0,1,.9,5,19.49,19.49,0,0,1-.47,4.22A11.6,11.6,0,0,1,54,64.44a5.94,5.94,0,0,1-2.58,2.31,8.13,8.13,0,0,1-3.41.71,7.08,7.08,0,0,1-3.84-1,6.33,6.33,0,0,1-2.44-3,12.41,12.41,0,0,1-.86-4.95,17,17,0,0,1,1-5.84,7.42,7.42,0,0,1,2.85-3.94,7.55,7.55,0,0,1,4.17-1.16Zm-.13,3.18a2.56,2.56,0,0,0-2,1,6.53,6.53,0,0,0-1.29,2.83A17.6,17.6,0,0,0,45,58.65a10.76,10.76,0,0,0,.39,3.25,4,4,0,0,0,1.11,1.8,2.43,2.43,0,0,0,1.65.63,2.53,2.53,0,0,0,1-.21,2.7,2.7,0,0,0,1-.79,5.82,5.82,0,0,0,.92-1.71,10.5,10.5,0,0,0,.61-2.44,20.191,20.191,0,0,0,.18-2.73A8.58,8.58,0,0,0,51,52.18a2.53,2.53,0,0,0-2.24-1.43Z" fill="#60c1dd"/>
      <path id="Trazado_113596" data-name="Trazado 113596" d="M65.57,56.68s2.87,5.41,4.14,4.14L84.6,45.93" fill="none" stroke="#60c1dd" stroke-miterlimit="10" stroke-width="2"/>
    </g>
  </g>
</svg>
