<svg xmlns="http://www.w3.org/2000/svg" width="1148" height="293.388" viewBox="0 0 1148 293.388">
  <g id="Grupo_91693" data-name="Grupo 91693" transform="translate(-226 -2717.612)">
    <rect id="Rectángulo_35028" data-name="Rectángulo 35028" width="273" height="214" rx="16" transform="translate(226 2797)" fill="#3b4454"/>
    <rect id="Rectángulo_35338" data-name="Rectángulo 35338" width="273" height="214" rx="16" transform="translate(809 2797)" fill="#3b4454"/>
    <rect id="Rectángulo_35030" data-name="Rectángulo 35030" width="273" height="214" rx="16" transform="translate(518 2797)" fill="#d7eff6"/>
    <rect id="Rectángulo_35336" data-name="Rectángulo 35336" width="273" height="214" rx="16" transform="translate(1101 2797)" fill="#d7eff6"/>
    <g id="Grupo_88412" data-name="Grupo 88412" transform="translate(294.447 2719.733)">
      <rect id="Rectángulo_33009" data-name="Rectángulo 33009" width="96.15" height="96.15" rx="13" transform="translate(0 67.988) rotate(-45)" fill="#fff" stroke="#3b4453" stroke-width="3"/>
    </g>
    <g id="Grupo_88898" data-name="Grupo 88898" transform="translate(876.94 2719.733)">
      <rect id="Rectángulo_33009-2" data-name="Rectángulo 33009" width="96.15" height="96.15" rx="13" transform="translate(0 67.988) rotate(-45)" fill="#fff" stroke="#3b4453" stroke-width="3"/>
    </g>
    <rect id="Rectángulo_35029" data-name="Rectángulo 35029" width="216" height="63" transform="translate(255 2919)" fill="#fff"/>
    <rect id="Rectángulo_35339" data-name="Rectángulo 35339" width="217" height="63" transform="translate(838 2919)" fill="#fff"/>
    <rect id="Rectángulo_35031" data-name="Rectángulo 35031" width="217" height="63" transform="translate(546 2919)" fill="#fff"/>
    <rect id="Rectángulo_35337" data-name="Rectángulo 35337" width="216" height="63" transform="translate(1130 2919)" fill="#fff"/>
    <path id="Trazado_119974" data-name="Trazado 119974" d="M6.727-3.023A1.127,1.127,0,0,0,6.3-3.961a5.292,5.292,0,0,0-1.5-.7,14.353,14.353,0,0,1-1.75-.7A3.314,3.314,0,0,1,.844-8.336,2.676,2.676,0,0,1,1.395-10a3.562,3.562,0,0,1,1.559-1.125,6.065,6.065,0,0,1,2.266-.4,5.305,5.305,0,0,1,2.2.438A3.482,3.482,0,0,1,8.93-9.848,3.254,3.254,0,0,1,9.469-8H6.734a1.375,1.375,0,0,0-.426-1.078,1.66,1.66,0,0,0-1.152-.383A1.872,1.872,0,0,0,4-9.137a1,1,0,0,0-.426.824,1,1,0,0,0,.469.793,5.911,5.911,0,0,0,1.648.734,10.1,10.1,0,0,1,1.938.816,3.256,3.256,0,0,1,1.844,2.93A2.778,2.778,0,0,1,8.344-.7,5,5,0,0,1,5.258.156a6.122,6.122,0,0,1-2.5-.5A3.775,3.775,0,0,1,1.066-1.7,3.542,3.542,0,0,1,.5-3.687H3.25A1.744,1.744,0,0,0,3.723-2.34a2.234,2.234,0,0,0,1.535.434A1.765,1.765,0,0,0,6.332-2.2.967.967,0,0,0,6.727-3.023ZM14.844.156A4.345,4.345,0,0,1,11.7-1a4.006,4.006,0,0,1-1.2-3.02v-.219a5.191,5.191,0,0,1,.48-2.289,3.516,3.516,0,0,1,1.4-1.535,4.233,4.233,0,0,1,2.188-.543A3.659,3.659,0,0,1,17.375-7.5a4.344,4.344,0,0,1,1.031,3.082V-3.4H13.172a1.9,1.9,0,0,0,.617,1.117,1.836,1.836,0,0,0,1.234.406,2.366,2.366,0,0,0,1.953-.875l1.2,1.422A3.363,3.363,0,0,1,16.785-.246,4.713,4.713,0,0,1,14.844.156Zm-.3-6.734q-1.156,0-1.375,1.531h2.656v-.2a1.3,1.3,0,0,0-.32-.98A1.275,1.275,0,0,0,14.547-6.578ZM26.227,0H23.586V-8.453h2.641Zm-2.8-10.633a1.175,1.175,0,0,1,.406-.922,1.533,1.533,0,0,1,1.055-.359,1.533,1.533,0,0,1,1.055.359,1.175,1.175,0,0,1,.406.922,1.175,1.175,0,0,1-.406.922,1.533,1.533,0,0,1-1.055.359,1.533,1.533,0,0,1-1.055-.359A1.175,1.175,0,0,1,23.43-10.633Zm6.836,2.18.086.992a2.867,2.867,0,0,1,2.414-1.148,2.412,2.412,0,0,1,1.973.789,3.757,3.757,0,0,1,.676,2.375V0H32.773V-5.336a1.426,1.426,0,0,0-.258-.941,1.193,1.193,0,0,0-.937-.3,1.256,1.256,0,0,0-1.148.609V0H27.8V-8.453ZM39.648,0H37.008V-8.453h2.641Zm-2.8-10.633a1.175,1.175,0,0,1,.406-.922,1.533,1.533,0,0,1,1.055-.359,1.533,1.533,0,0,1,1.055.359,1.175,1.175,0,0,1,.406.922,1.175,1.175,0,0,1-.406.922,1.533,1.533,0,0,1-1.055.359,1.533,1.533,0,0,1-1.055-.359A1.175,1.175,0,0,1,36.852-10.633Zm7.992,8.758a1.171,1.171,0,0,0,.859-.3,1.1,1.1,0,0,0,.3-.84h2.469a2.922,2.922,0,0,1-1,2.281,3.705,3.705,0,0,1-2.566.891A3.751,3.751,0,0,1,42-1a4.556,4.556,0,0,1-1.062-3.2v-.109a5.149,5.149,0,0,1,.473-2.262,3.441,3.441,0,0,1,1.363-1.508,4.065,4.065,0,0,1,2.109-.527A3.658,3.658,0,0,1,47.5-7.7a3.242,3.242,0,0,1,.969,2.477H46a1.445,1.445,0,0,0-.32-1.008,1.106,1.106,0,0,0-.859-.352q-1.023,0-1.2,1.3a9.206,9.206,0,0,0-.055,1.141,3.616,3.616,0,0,0,.3,1.766A1.055,1.055,0,0,0,44.844-1.875ZM52.359,0H49.719V-8.453h2.641Zm-2.8-10.633a1.175,1.175,0,0,1,.406-.922,1.533,1.533,0,0,1,1.055-.359,1.533,1.533,0,0,1,1.055.359,1.175,1.175,0,0,1,.406.922,1.175,1.175,0,0,1-.406.922,1.533,1.533,0,0,1-1.055.359,1.533,1.533,0,0,1-1.055-.359A1.175,1.175,0,0,1,49.563-10.633ZM58.742,0a2.973,2.973,0,0,1-.25-.758,2.448,2.448,0,0,1-2.031.914A3,3,0,0,1,54.43-.566a2.3,2.3,0,0,1-.836-1.816,2.364,2.364,0,0,1,1.016-2.078,5.174,5.174,0,0,1,2.953-.7h.813v-.448q0-1.17-1.008-1.17a.824.824,0,0,0-.937.926H53.8a2.36,2.36,0,0,1,1.043-1.99,4.383,4.383,0,0,1,2.66-.765,3.843,3.843,0,0,1,2.555.789,2.743,2.743,0,0,1,.961,2.164v3.742a3.832,3.832,0,0,0,.359,1.781V0ZM57.094-1.719a1.469,1.469,0,0,0,.816-.211,1.322,1.322,0,0,0,.465-.477V-3.758h-.766q-1.375,0-1.375,1.234a.754.754,0,0,0,.242.582A.876.876,0,0,0,57.094-1.719ZM70.547.156A4.345,4.345,0,0,1,67.4-1a4.006,4.006,0,0,1-1.2-3.02v-.219a5.191,5.191,0,0,1,.48-2.289,3.516,3.516,0,0,1,1.4-1.535,4.233,4.233,0,0,1,2.188-.543A3.659,3.659,0,0,1,73.078-7.5a4.344,4.344,0,0,1,1.031,3.082V-3.4H68.875a1.9,1.9,0,0,0,.617,1.117,1.836,1.836,0,0,0,1.234.406A2.366,2.366,0,0,0,72.68-2.75l1.2,1.422A3.363,3.363,0,0,1,72.488-.246,4.713,4.713,0,0,1,70.547.156Zm-.3-6.734q-1.156,0-1.375,1.531h2.656v-.2a1.3,1.3,0,0,0-.32-.98A1.275,1.275,0,0,0,70.25-6.578ZM77.945,0H75.3V-12h2.641Zm9.18-1.875a1.171,1.171,0,0,0,.859-.3,1.1,1.1,0,0,0,.3-.84H90.75a2.922,2.922,0,0,1-1,2.281,3.705,3.705,0,0,1-2.566.891A3.751,3.751,0,0,1,84.281-1a4.556,4.556,0,0,1-1.062-3.2v-.109a5.149,5.149,0,0,1,.473-2.262,3.441,3.441,0,0,1,1.363-1.508,4.065,4.065,0,0,1,2.109-.527,3.658,3.658,0,0,1,2.617.914,3.242,3.242,0,0,1,.969,2.477H88.281a1.445,1.445,0,0,0-.32-1.008,1.106,1.106,0,0,0-.859-.352q-1.023,0-1.2,1.3a9.206,9.206,0,0,0-.055,1.141,3.616,3.616,0,0,0,.3,1.766A1.055,1.055,0,0,0,87.125-1.875ZM94.641,0H92V-8.453h2.641Zm-2.8-10.633a1.175,1.175,0,0,1,.406-.922,1.533,1.533,0,0,1,1.055-.359,1.533,1.533,0,0,1,1.055.359,1.175,1.175,0,0,1,.406.922,1.175,1.175,0,0,1-.406.922,1.533,1.533,0,0,1-1.055.359,1.533,1.533,0,0,1-1.055-.359A1.175,1.175,0,0,1,91.844-10.633Zm7.992,8.758a1.171,1.171,0,0,0,.859-.3,1.1,1.1,0,0,0,.3-.84h2.469a2.922,2.922,0,0,1-1,2.281A3.705,3.705,0,0,1,99.9.156,3.751,3.751,0,0,1,96.992-1,4.556,4.556,0,0,1,95.93-4.2v-.109A5.149,5.149,0,0,1,96.4-6.574a3.441,3.441,0,0,1,1.363-1.508,4.065,4.065,0,0,1,2.109-.527,3.658,3.658,0,0,1,2.617.914,3.242,3.242,0,0,1,.969,2.477h-2.469a1.445,1.445,0,0,0-.32-1.008,1.106,1.106,0,0,0-.859-.352q-1.023,0-1.2,1.3a9.206,9.206,0,0,0-.055,1.141,3.616,3.616,0,0,0,.3,1.766A1.055,1.055,0,0,0,99.836-1.875ZM107.352,0h-2.641V-12h2.641Zm1.289-4.3a4.989,4.989,0,0,1,.492-2.254,3.52,3.52,0,0,1,1.414-1.52,4.259,4.259,0,0,1,2.164-.531A3.887,3.887,0,0,1,115.7-7.434a4.512,4.512,0,0,1,1.094,3.2v.094A4.378,4.378,0,0,1,115.7-1a3.9,3.9,0,0,1-2.973,1.16,3.942,3.942,0,0,1-2.9-1.082,4.232,4.232,0,0,1-1.18-2.934Zm2.633.164a3.145,3.145,0,0,0,.367,1.719,1.223,1.223,0,0,0,1.086.547q1.406,0,1.438-2.164V-4.3q0-2.273-1.453-2.273-1.32,0-1.43,1.961Zm14.242,2.266a1.171,1.171,0,0,0,.859-.3,1.1,1.1,0,0,0,.3-.84h2.469a2.922,2.922,0,0,1-1,2.281,3.705,3.705,0,0,1-2.566.891A3.751,3.751,0,0,1,122.672-1a4.556,4.556,0,0,1-1.062-3.2v-.109a5.149,5.149,0,0,1,.473-2.262,3.441,3.441,0,0,1,1.363-1.508,4.065,4.065,0,0,1,2.109-.527,3.658,3.658,0,0,1,2.617.914,3.242,3.242,0,0,1,.969,2.477h-2.469a1.445,1.445,0,0,0-.32-1.008,1.106,1.106,0,0,0-.859-.352q-1.023,0-1.2,1.3a9.206,9.206,0,0,0-.055,1.141,3.616,3.616,0,0,0,.3,1.766A1.055,1.055,0,0,0,125.516-1.875Zm4.406-2.43a4.989,4.989,0,0,1,.492-2.254,3.52,3.52,0,0,1,1.414-1.52,4.259,4.259,0,0,1,2.164-.531,3.887,3.887,0,0,1,2.992,1.176,4.512,4.512,0,0,1,1.094,3.2v.094A4.378,4.378,0,0,1,136.98-1a3.9,3.9,0,0,1-2.973,1.16,3.942,3.942,0,0,1-2.9-1.082,4.232,4.232,0,0,1-1.18-2.934Zm2.633.164a3.145,3.145,0,0,0,.367,1.719,1.223,1.223,0,0,0,1.086.547q1.406,0,1.438-2.164V-4.3q0-2.273-1.453-2.273-1.32,0-1.43,1.961Zm9.1-4.312.086.992a2.867,2.867,0,0,1,2.414-1.148,2.412,2.412,0,0,1,1.973.789,3.757,3.757,0,0,1,.676,2.375V0h-2.641V-5.336a1.426,1.426,0,0,0-.258-.941,1.193,1.193,0,0,0-.937-.3,1.256,1.256,0,0,0-1.148.609V0h-2.633V-8.453Z" transform="translate(289 2897)" fill="#fff"/>
    <path id="Trazado_119976" data-name="Trazado 119976" d="M6.727-3.023A1.127,1.127,0,0,0,6.3-3.961a5.292,5.292,0,0,0-1.5-.7,14.353,14.353,0,0,1-1.75-.7A3.314,3.314,0,0,1,.844-8.336,2.676,2.676,0,0,1,1.395-10a3.562,3.562,0,0,1,1.559-1.125,6.065,6.065,0,0,1,2.266-.4,5.305,5.305,0,0,1,2.2.438A3.482,3.482,0,0,1,8.93-9.848,3.254,3.254,0,0,1,9.469-8H6.734a1.375,1.375,0,0,0-.426-1.078,1.66,1.66,0,0,0-1.152-.383A1.872,1.872,0,0,0,4-9.137a1,1,0,0,0-.426.824,1,1,0,0,0,.469.793,5.911,5.911,0,0,0,1.648.734,10.1,10.1,0,0,1,1.938.816,3.256,3.256,0,0,1,1.844,2.93A2.778,2.778,0,0,1,8.344-.7,5,5,0,0,1,5.258.156a6.122,6.122,0,0,1-2.5-.5A3.775,3.775,0,0,1,1.066-1.7,3.542,3.542,0,0,1,.5-3.687H3.25A1.744,1.744,0,0,0,3.723-2.34a2.234,2.234,0,0,0,1.535.434A1.765,1.765,0,0,0,6.332-2.2.967.967,0,0,0,6.727-3.023ZM14.844.156A4.345,4.345,0,0,1,11.7-1a4.006,4.006,0,0,1-1.2-3.02v-.219a5.191,5.191,0,0,1,.48-2.289,3.516,3.516,0,0,1,1.4-1.535,4.233,4.233,0,0,1,2.188-.543A3.659,3.659,0,0,1,17.375-7.5a4.344,4.344,0,0,1,1.031,3.082V-3.4H13.172a1.9,1.9,0,0,0,.617,1.117,1.836,1.836,0,0,0,1.234.406,2.366,2.366,0,0,0,1.953-.875l1.2,1.422A3.363,3.363,0,0,1,16.785-.246,4.713,4.713,0,0,1,14.844.156Zm-.3-6.734q-1.156,0-1.375,1.531h2.656v-.2a1.3,1.3,0,0,0-.32-.98A1.275,1.275,0,0,0,14.547-6.578ZM31.3-4.164A5.1,5.1,0,0,1,30.41-1.02,2.843,2.843,0,0,1,28.016.156,2.437,2.437,0,0,1,26.1-.7V3.25H23.469v-11.7H25.93l.078.781A2.437,2.437,0,0,1,28-8.609a2.866,2.866,0,0,1,2.43,1.152A5.16,5.16,0,0,1,31.3-4.289Zm-2.633-.164q0-2.25-1.312-2.25a1.239,1.239,0,0,0-1.25.672v3.328a1.279,1.279,0,0,0,1.266.7q1.258,0,1.3-2.172ZM37.57-6.07,36.7-6.133a1.558,1.558,0,0,0-1.594.781V0H32.477V-8.453h2.469l.086,1.086a2.039,2.039,0,0,1,1.852-1.242,2.567,2.567,0,0,1,.734.094ZM42.609.156A4.345,4.345,0,0,1,39.461-1a4.006,4.006,0,0,1-1.2-3.02v-.219a5.191,5.191,0,0,1,.48-2.289,3.516,3.516,0,0,1,1.4-1.535,4.233,4.233,0,0,1,2.188-.543A3.659,3.659,0,0,1,45.141-7.5a4.344,4.344,0,0,1,1.031,3.082V-3.4H40.938a1.9,1.9,0,0,0,.617,1.117,1.836,1.836,0,0,0,1.234.406,2.366,2.366,0,0,0,1.953-.875l1.2,1.422A3.363,3.363,0,0,1,44.551-.246,4.713,4.713,0,0,1,42.609.156Zm-.3-6.734q-1.156,0-1.375,1.531h2.656v-.2a1.3,1.3,0,0,0-.32-.98A1.275,1.275,0,0,0,42.313-6.578Zm9.344,4.2a.608.608,0,0,0-.352-.539,5.348,5.348,0,0,0-1.336-.422,6.092,6.092,0,0,1-1.625-.574,2.722,2.722,0,0,1-.977-.863,2.061,2.061,0,0,1-.336-1.164,2.336,2.336,0,0,1,.961-1.918,3.958,3.958,0,0,1,2.516-.754,4.386,4.386,0,0,1,2.688.758,2.37,2.37,0,0,1,1.016,1.992H51.57q0-1.016-1.07-1.016a1.061,1.061,0,0,0-.7.23.714.714,0,0,0-.281.574.655.655,0,0,0,.344.57,3.248,3.248,0,0,0,1.1.359,9.485,9.485,0,0,1,1.324.336A2.406,2.406,0,0,1,54.2-2.453,2.214,2.214,0,0,1,53.168-.57a4.505,4.505,0,0,1-2.66.727A4.6,4.6,0,0,1,48.57-.234,3.24,3.24,0,0,1,47.242-1.3a2.406,2.406,0,0,1-.477-1.414h2.461a1.017,1.017,0,0,0,.391.855,1.607,1.607,0,0,0,.961.27,1.264,1.264,0,0,0,.809-.219A.7.7,0,0,0,51.656-2.375ZM59.516.156A4.345,4.345,0,0,1,56.367-1a4.006,4.006,0,0,1-1.2-3.02v-.219a5.191,5.191,0,0,1,.48-2.289,3.516,3.516,0,0,1,1.4-1.535,4.233,4.233,0,0,1,2.188-.543A3.659,3.659,0,0,1,62.047-7.5a4.344,4.344,0,0,1,1.031,3.082V-3.4H57.844a1.9,1.9,0,0,0,.617,1.117,1.836,1.836,0,0,0,1.234.406,2.366,2.366,0,0,0,1.953-.875l1.2,1.422A3.363,3.363,0,0,1,61.457-.246,4.713,4.713,0,0,1,59.516.156Zm-.3-6.734q-1.156,0-1.375,1.531H60.5v-.2a1.3,1.3,0,0,0-.32-.98A1.275,1.275,0,0,0,59.219-6.578Zm7.336-1.875.086.992a2.867,2.867,0,0,1,2.414-1.148,2.412,2.412,0,0,1,1.973.789A3.757,3.757,0,0,1,71.7-5.445V0H69.063V-5.336a1.426,1.426,0,0,0-.258-.941,1.193,1.193,0,0,0-.937-.3,1.256,1.256,0,0,0-1.148.609V0H64.086V-8.453Zm9.672-2.1v2.1h1.391v1.828H76.227v3.867a.987.987,0,0,0,.172.664.922.922,0,0,0,.68.188,3.862,3.862,0,0,0,.656-.047V-.07A4.859,4.859,0,0,1,76.25.156a2.758,2.758,0,0,1-2.008-.641,2.626,2.626,0,0,1-.648-1.945v-4.2H72.516V-8.453h1.078v-2.1ZM83.414,0a2.973,2.973,0,0,1-.25-.758,2.448,2.448,0,0,1-2.031.914A3,3,0,0,1,79.1-.566a2.3,2.3,0,0,1-.836-1.816,2.364,2.364,0,0,1,1.016-2.078,5.174,5.174,0,0,1,2.953-.7h.813v-.448q0-1.17-1.008-1.17a.824.824,0,0,0-.937.926H78.469a2.36,2.36,0,0,1,1.043-1.99,4.383,4.383,0,0,1,2.66-.765,3.843,3.843,0,0,1,2.555.789,2.743,2.743,0,0,1,.961,2.164v3.742a3.832,3.832,0,0,0,.359,1.781V0ZM81.766-1.719a1.469,1.469,0,0,0,.816-.211,1.322,1.322,0,0,0,.465-.477V-3.758h-.766q-1.375,0-1.375,1.234a.754.754,0,0,0,.242.582A.876.876,0,0,0,81.766-1.719Zm7.8-6.734.086.992a2.867,2.867,0,0,1,2.414-1.148,2.412,2.412,0,0,1,1.973.789,3.757,3.757,0,0,1,.676,2.375V0H92.07V-5.336a1.426,1.426,0,0,0-.258-.941,1.193,1.193,0,0,0-.937-.3,1.256,1.256,0,0,0-1.148.609V0H87.094V-8.453Zm13.961,5.32,1.336-5.32h2.773L104.875,0h-2.687L99.43-8.453h2.781ZM112.508.156A4.345,4.345,0,0,1,109.359-1a4.006,4.006,0,0,1-1.2-3.02v-.219a5.191,5.191,0,0,1,.48-2.289,3.516,3.516,0,0,1,1.4-1.535,4.233,4.233,0,0,1,2.188-.543A3.659,3.659,0,0,1,115.039-7.5a4.344,4.344,0,0,1,1.031,3.082V-3.4h-5.234a1.9,1.9,0,0,0,.617,1.117,1.836,1.836,0,0,0,1.234.406,2.366,2.366,0,0,0,1.953-.875l1.2,1.422a3.363,3.363,0,0,1-1.395,1.082A4.713,4.713,0,0,1,112.508.156Zm-.3-6.734q-1.156,0-1.375,1.531h2.656v-.2a1.3,1.3,0,0,0-.32-.98A1.275,1.275,0,0,0,112.211-6.578Zm7.336-1.875.086.992a2.867,2.867,0,0,1,2.414-1.148,2.412,2.412,0,0,1,1.973.789,3.757,3.757,0,0,1,.676,2.375V0h-2.641V-5.336a1.426,1.426,0,0,0-.258-.941,1.193,1.193,0,0,0-.937-.3,1.256,1.256,0,0,0-1.148.609V0h-2.633V-8.453Zm9.672-2.1v2.1h1.391v1.828h-1.391v3.867a.987.987,0,0,0,.172.664.922.922,0,0,0,.68.188,3.862,3.862,0,0,0,.656-.047V-.07a4.859,4.859,0,0,1-1.484.227,2.758,2.758,0,0,1-2.008-.641,2.626,2.626,0,0,1-.648-1.945v-4.2h-1.078V-8.453h1.078v-2.1ZM136.406,0a2.973,2.973,0,0,1-.25-.758,2.448,2.448,0,0,1-2.031.914,3,3,0,0,1-2.031-.723,2.3,2.3,0,0,1-.836-1.816,2.364,2.364,0,0,1,1.016-2.078,5.174,5.174,0,0,1,2.953-.7h.813v-.448q0-1.17-1.008-1.17a.824.824,0,0,0-.937.926h-2.633a2.36,2.36,0,0,1,1.043-1.99,4.383,4.383,0,0,1,2.66-.765,3.843,3.843,0,0,1,2.555.789,2.743,2.743,0,0,1,.961,2.164v3.742a3.832,3.832,0,0,0,.359,1.781V0Zm-1.648-1.719a1.469,1.469,0,0,0,.816-.211,1.322,1.322,0,0,0,.465-.477V-3.758h-.766q-1.375,0-1.375,1.234a.754.754,0,0,0,.242.582A.876.876,0,0,0,134.758-1.719Zm9.8-.656a.608.608,0,0,0-.352-.539,5.348,5.348,0,0,0-1.336-.422,6.092,6.092,0,0,1-1.625-.574,2.722,2.722,0,0,1-.977-.863,2.061,2.061,0,0,1-.336-1.164,2.336,2.336,0,0,1,.961-1.918,3.958,3.958,0,0,1,2.516-.754,4.386,4.386,0,0,1,2.688.758,2.37,2.37,0,0,1,1.016,1.992h-2.641q0-1.016-1.07-1.016a1.061,1.061,0,0,0-.7.23.714.714,0,0,0-.281.574.655.655,0,0,0,.344.57,3.248,3.248,0,0,0,1.1.359A9.485,9.485,0,0,1,145.2-4.8,2.406,2.406,0,0,1,147.1-2.453,2.214,2.214,0,0,1,146.074-.57a4.505,4.505,0,0,1-2.66.727,4.6,4.6,0,0,1-1.937-.391A3.24,3.24,0,0,1,140.148-1.3a2.406,2.406,0,0,1-.477-1.414h2.461a1.017,1.017,0,0,0,.391.855,1.607,1.607,0,0,0,.961.27,1.264,1.264,0,0,0,.809-.219A.7.7,0,0,0,144.563-2.375Zm15.6-1.789a5.1,5.1,0,0,1-.887,3.145A2.843,2.843,0,0,1,156.883.156,2.437,2.437,0,0,1,154.969-.7V3.25h-2.633v-11.7H154.8l.078.781a2.437,2.437,0,0,1,1.992-.937,2.866,2.866,0,0,1,2.43,1.152,5.16,5.16,0,0,1,.867,3.168Zm-2.633-.164q0-2.25-1.312-2.25a1.239,1.239,0,0,0-1.25.672v3.328a1.279,1.279,0,0,0,1.266.7q1.258,0,1.3-2.172Zm3.461.023a4.989,4.989,0,0,1,.492-2.254,3.52,3.52,0,0,1,1.414-1.52,4.259,4.259,0,0,1,2.164-.531,3.887,3.887,0,0,1,2.992,1.176,4.512,4.512,0,0,1,1.094,3.2v.094A4.378,4.378,0,0,1,168.051-1a3.9,3.9,0,0,1-2.973,1.16,3.942,3.942,0,0,1-2.9-1.082A4.232,4.232,0,0,1,161-3.859Zm2.633.164a3.145,3.145,0,0,0,.367,1.719,1.223,1.223,0,0,0,1.086.547q1.406,0,1.438-2.164V-4.3q0-2.273-1.453-2.273-1.32,0-1.43,1.961Zm11.8-1.93-.867-.062a1.558,1.558,0,0,0-1.594.781V0h-2.633V-8.453H172.8l.086,1.086a2.039,2.039,0,0,1,1.852-1.242,2.567,2.567,0,0,1,.734.094Z" transform="translate(857 2897)" fill="#fff"/>
    <path id="Trazado_119975" data-name="Trazado 119975" d="M6.727-3.023A1.127,1.127,0,0,0,6.3-3.961a5.292,5.292,0,0,0-1.5-.7,14.353,14.353,0,0,1-1.75-.7A3.314,3.314,0,0,1,.844-8.336,2.676,2.676,0,0,1,1.395-10a3.562,3.562,0,0,1,1.559-1.125,6.065,6.065,0,0,1,2.266-.4,5.305,5.305,0,0,1,2.2.438A3.482,3.482,0,0,1,8.93-9.848,3.254,3.254,0,0,1,9.469-8H6.734a1.375,1.375,0,0,0-.426-1.078,1.66,1.66,0,0,0-1.152-.383A1.872,1.872,0,0,0,4-9.137a1,1,0,0,0-.426.824,1,1,0,0,0,.469.793,5.911,5.911,0,0,0,1.648.734,10.1,10.1,0,0,1,1.938.816,3.256,3.256,0,0,1,1.844,2.93A2.778,2.778,0,0,1,8.344-.7,5,5,0,0,1,5.258.156a6.122,6.122,0,0,1-2.5-.5A3.775,3.775,0,0,1,1.066-1.7,3.542,3.542,0,0,1,.5-3.687H3.25A1.744,1.744,0,0,0,3.723-2.34a2.234,2.234,0,0,0,1.535.434A1.765,1.765,0,0,0,6.332-2.2.967.967,0,0,0,6.727-3.023ZM14.844.156A4.345,4.345,0,0,1,11.7-1a4.006,4.006,0,0,1-1.2-3.02v-.219a5.191,5.191,0,0,1,.48-2.289,3.516,3.516,0,0,1,1.4-1.535,4.233,4.233,0,0,1,2.188-.543A3.659,3.659,0,0,1,17.375-7.5a4.344,4.344,0,0,1,1.031,3.082V-3.4H13.172a1.9,1.9,0,0,0,.617,1.117,1.836,1.836,0,0,0,1.234.406,2.366,2.366,0,0,0,1.953-.875l1.2,1.422A3.363,3.363,0,0,1,16.785-.246,4.713,4.713,0,0,1,14.844.156Zm-.3-6.734q-1.156,0-1.375,1.531h2.656v-.2a1.3,1.3,0,0,0-.32-.98A1.275,1.275,0,0,0,14.547-6.578ZM31.3-4.164A5.1,5.1,0,0,1,30.41-1.02,2.843,2.843,0,0,1,28.016.156,2.437,2.437,0,0,1,26.1-.7V3.25H23.469v-11.7H25.93l.078.781A2.437,2.437,0,0,1,28-8.609a2.866,2.866,0,0,1,2.43,1.152A5.16,5.16,0,0,1,31.3-4.289Zm-2.633-.164q0-2.25-1.312-2.25a1.239,1.239,0,0,0-1.25.672v3.328a1.279,1.279,0,0,0,1.266.7q1.258,0,1.3-2.172ZM37.57-6.07,36.7-6.133a1.558,1.558,0,0,0-1.594.781V0H32.477V-8.453h2.469l.086,1.086a2.039,2.039,0,0,1,1.852-1.242,2.567,2.567,0,0,1,.734.094ZM42.609.156A4.345,4.345,0,0,1,39.461-1a4.006,4.006,0,0,1-1.2-3.02v-.219a5.191,5.191,0,0,1,.48-2.289,3.516,3.516,0,0,1,1.4-1.535,4.233,4.233,0,0,1,2.188-.543A3.659,3.659,0,0,1,45.141-7.5a4.344,4.344,0,0,1,1.031,3.082V-3.4H40.938a1.9,1.9,0,0,0,.617,1.117,1.836,1.836,0,0,0,1.234.406,2.366,2.366,0,0,0,1.953-.875l1.2,1.422A3.363,3.363,0,0,1,44.551-.246,4.713,4.713,0,0,1,42.609.156Zm-.3-6.734q-1.156,0-1.375,1.531h2.656v-.2a1.3,1.3,0,0,0-.32-.98A1.275,1.275,0,0,0,42.313-6.578Zm9.344,4.2a.608.608,0,0,0-.352-.539,5.348,5.348,0,0,0-1.336-.422,6.092,6.092,0,0,1-1.625-.574,2.722,2.722,0,0,1-.977-.863,2.061,2.061,0,0,1-.336-1.164,2.336,2.336,0,0,1,.961-1.918,3.958,3.958,0,0,1,2.516-.754,4.386,4.386,0,0,1,2.688.758,2.37,2.37,0,0,1,1.016,1.992H51.57q0-1.016-1.07-1.016a1.061,1.061,0,0,0-.7.23.714.714,0,0,0-.281.574.655.655,0,0,0,.344.57,3.248,3.248,0,0,0,1.1.359,9.485,9.485,0,0,1,1.324.336A2.406,2.406,0,0,1,54.2-2.453,2.214,2.214,0,0,1,53.168-.57a4.505,4.505,0,0,1-2.66.727A4.6,4.6,0,0,1,48.57-.234,3.24,3.24,0,0,1,47.242-1.3a2.406,2.406,0,0,1-.477-1.414h2.461a1.017,1.017,0,0,0,.391.855,1.607,1.607,0,0,0,.961.27,1.264,1.264,0,0,0,.809-.219A.7.7,0,0,0,51.656-2.375ZM59.516.156A4.345,4.345,0,0,1,56.367-1a4.006,4.006,0,0,1-1.2-3.02v-.219a5.191,5.191,0,0,1,.48-2.289,3.516,3.516,0,0,1,1.4-1.535,4.233,4.233,0,0,1,2.188-.543A3.659,3.659,0,0,1,62.047-7.5a4.344,4.344,0,0,1,1.031,3.082V-3.4H57.844a1.9,1.9,0,0,0,.617,1.117,1.836,1.836,0,0,0,1.234.406,2.366,2.366,0,0,0,1.953-.875l1.2,1.422A3.363,3.363,0,0,1,61.457-.246,4.713,4.713,0,0,1,59.516.156Zm-.3-6.734q-1.156,0-1.375,1.531H60.5v-.2a1.3,1.3,0,0,0-.32-.98A1.275,1.275,0,0,0,59.219-6.578Zm7.336-1.875.086.992a2.867,2.867,0,0,1,2.414-1.148,2.412,2.412,0,0,1,1.973.789A3.757,3.757,0,0,1,71.7-5.445V0H69.063V-5.336a1.426,1.426,0,0,0-.258-.941,1.193,1.193,0,0,0-.937-.3,1.256,1.256,0,0,0-1.148.609V0H64.086V-8.453Zm9.672-2.1v2.1h1.391v1.828H76.227v3.867a.987.987,0,0,0,.172.664.922.922,0,0,0,.68.188,3.862,3.862,0,0,0,.656-.047V-.07A4.859,4.859,0,0,1,76.25.156a2.758,2.758,0,0,1-2.008-.641,2.626,2.626,0,0,1-.648-1.945v-4.2H72.516V-8.453h1.078v-2.1ZM83.414,0a2.973,2.973,0,0,1-.25-.758,2.448,2.448,0,0,1-2.031.914A3,3,0,0,1,79.1-.566a2.3,2.3,0,0,1-.836-1.816,2.364,2.364,0,0,1,1.016-2.078,5.174,5.174,0,0,1,2.953-.7h.813v-.448q0-1.17-1.008-1.17a.824.824,0,0,0-.937.926H78.469a2.36,2.36,0,0,1,1.043-1.99,4.383,4.383,0,0,1,2.66-.765,3.843,3.843,0,0,1,2.555.789,2.743,2.743,0,0,1,.961,2.164v3.742a3.832,3.832,0,0,0,.359,1.781V0ZM81.766-1.719a1.469,1.469,0,0,0,.816-.211,1.322,1.322,0,0,0,.465-.477V-3.758h-.766q-1.375,0-1.375,1.234a.754.754,0,0,0,.242.582A.876.876,0,0,0,81.766-1.719Zm7.8-6.734.086.992a2.867,2.867,0,0,1,2.414-1.148,2.412,2.412,0,0,1,1.973.789,3.757,3.757,0,0,1,.676,2.375V0H92.07V-5.336a1.426,1.426,0,0,0-.258-.941,1.193,1.193,0,0,0-.937-.3,1.256,1.256,0,0,0-1.148.609V0H87.094V-8.453Zm14.164,6.578a1.171,1.171,0,0,0,.859-.3,1.1,1.1,0,0,0,.3-.84h2.469a2.922,2.922,0,0,1-1,2.281,3.705,3.705,0,0,1-2.566.891A3.751,3.751,0,0,1,100.883-1,4.556,4.556,0,0,1,99.82-4.2v-.109a5.149,5.149,0,0,1,.473-2.262,3.441,3.441,0,0,1,1.363-1.508,4.065,4.065,0,0,1,2.109-.527,3.658,3.658,0,0,1,2.617.914,3.242,3.242,0,0,1,.969,2.477h-2.469a1.445,1.445,0,0,0-.32-1.008,1.106,1.106,0,0,0-.859-.352q-1.023,0-1.2,1.3a9.206,9.206,0,0,0-.055,1.141,3.616,3.616,0,0,0,.3,1.766A1.055,1.055,0,0,0,103.727-1.875Zm4.406-2.43a4.989,4.989,0,0,1,.492-2.254,3.52,3.52,0,0,1,1.414-1.52,4.259,4.259,0,0,1,2.164-.531A3.887,3.887,0,0,1,115.2-7.434a4.512,4.512,0,0,1,1.094,3.2v.094A4.378,4.378,0,0,1,115.191-1a3.9,3.9,0,0,1-2.973,1.16,3.942,3.942,0,0,1-2.9-1.082,4.232,4.232,0,0,1-1.18-2.934Zm2.633.164a3.145,3.145,0,0,0,.367,1.719,1.223,1.223,0,0,0,1.086.547q1.406,0,1.438-2.164V-4.3q0-2.273-1.453-2.273-1.32,0-1.43,1.961Zm9.172-4.312.086.992a2.906,2.906,0,0,1,2.414-1.148A2.14,2.14,0,0,1,124.6-7.336a2.813,2.813,0,0,1,2.484-1.273q2.57,0,2.641,3.109V0h-2.641V-5.336a1.611,1.611,0,0,0-.219-.945.931.931,0,0,0-.8-.3,1.247,1.247,0,0,0-1.164.7l.008.109V0h-2.641V-5.32a1.694,1.694,0,0,0-.211-.961.929.929,0,0,0-.8-.3,1.263,1.263,0,0,0-1.156.7V0h-2.633V-8.453Zm19.141,4.289a5.1,5.1,0,0,1-.887,3.145A2.843,2.843,0,0,1,135.8.156,2.437,2.437,0,0,1,133.883-.7V3.25H131.25v-11.7h2.461l.078.781a2.437,2.437,0,0,1,1.992-.937,2.866,2.866,0,0,1,2.43,1.152,5.16,5.16,0,0,1,.867,3.168Zm-2.633-.164q0-2.25-1.312-2.25a1.239,1.239,0,0,0-1.25.672v3.328a1.279,1.279,0,0,0,1.266.7q1.258,0,1.3-2.172Zm8.906-1.742-.867-.062a1.558,1.558,0,0,0-1.594.781V0h-2.633V-8.453h2.469l.086,1.086a2.039,2.039,0,0,1,1.852-1.242,2.567,2.567,0,0,1,.734.094ZM150.828,0a2.973,2.973,0,0,1-.25-.758,2.448,2.448,0,0,1-2.031.914,3,3,0,0,1-2.031-.723,2.3,2.3,0,0,1-.836-1.816A2.364,2.364,0,0,1,146.7-4.461a5.174,5.174,0,0,1,2.953-.7h.813v-.448q0-1.17-1.008-1.17a.824.824,0,0,0-.937.926h-2.633a2.36,2.36,0,0,1,1.043-1.99,4.383,4.383,0,0,1,2.66-.765,3.843,3.843,0,0,1,2.555.789,2.743,2.743,0,0,1,.961,2.164v3.742a3.832,3.832,0,0,0,.359,1.781V0ZM149.18-1.719A1.469,1.469,0,0,0,150-1.93a1.322,1.322,0,0,0,.465-.477V-3.758H149.7q-1.375,0-1.375,1.234a.754.754,0,0,0,.242.582A.876.876,0,0,0,149.18-1.719Zm9.8-.656a.608.608,0,0,0-.352-.539,5.348,5.348,0,0,0-1.336-.422,6.092,6.092,0,0,1-1.625-.574,2.722,2.722,0,0,1-.977-.863,2.061,2.061,0,0,1-.336-1.164,2.336,2.336,0,0,1,.961-1.918,3.958,3.958,0,0,1,2.516-.754,4.386,4.386,0,0,1,2.688.758,2.37,2.37,0,0,1,1.016,1.992H158.9q0-1.016-1.07-1.016a1.061,1.061,0,0,0-.7.23.714.714,0,0,0-.281.574.655.655,0,0,0,.344.57,3.248,3.248,0,0,0,1.1.359,9.485,9.485,0,0,1,1.324.336,2.406,2.406,0,0,1,1.906,2.352A2.214,2.214,0,0,1,160.5-.57a4.505,4.505,0,0,1-2.66.727A4.6,4.6,0,0,1,155.9-.234,3.24,3.24,0,0,1,154.57-1.3a2.406,2.406,0,0,1-.477-1.414h2.461a1.017,1.017,0,0,0,.391.855,1.607,1.607,0,0,0,.961.27,1.264,1.264,0,0,0,.809-.219A.7.7,0,0,0,158.984-2.375Zm15.6-1.789A5.1,5.1,0,0,1,173.7-1.02,2.843,2.843,0,0,1,171.3.156,2.437,2.437,0,0,1,169.391-.7V3.25h-2.633v-11.7h2.461l.078.781a2.437,2.437,0,0,1,1.992-.937,2.866,2.866,0,0,1,2.43,1.152,5.16,5.16,0,0,1,.867,3.168Zm-2.633-.164q0-2.25-1.312-2.25a1.239,1.239,0,0,0-1.25.672v3.328a1.279,1.279,0,0,0,1.266.7q1.258,0,1.3-2.172Zm3.461.023a4.989,4.989,0,0,1,.492-2.254,3.52,3.52,0,0,1,1.414-1.52,4.259,4.259,0,0,1,2.164-.531,3.887,3.887,0,0,1,2.992,1.176,4.512,4.512,0,0,1,1.094,3.2v.094A4.378,4.378,0,0,1,182.473-1,3.9,3.9,0,0,1,179.5.156a3.942,3.942,0,0,1-2.9-1.082,4.232,4.232,0,0,1-1.18-2.934Zm2.633.164a3.145,3.145,0,0,0,.367,1.719,1.223,1.223,0,0,0,1.086.547q1.406,0,1.438-2.164V-4.3q0-2.273-1.453-2.273-1.32,0-1.43,1.961Zm11.8-1.93-.867-.062a1.558,1.558,0,0,0-1.594.781V0H184.75V-8.453h2.469l.086,1.086a2.039,2.039,0,0,1,1.852-1.242,2.567,2.567,0,0,1,.734.094Z" transform="translate(561 2897)" fill="#3b4454"/>
    <path id="Trazado_119977" data-name="Trazado 119977" d="M6.727-3.023A1.127,1.127,0,0,0,6.3-3.961a5.292,5.292,0,0,0-1.5-.7,14.353,14.353,0,0,1-1.75-.7A3.314,3.314,0,0,1,.844-8.336,2.676,2.676,0,0,1,1.395-10a3.562,3.562,0,0,1,1.559-1.125,6.065,6.065,0,0,1,2.266-.4,5.305,5.305,0,0,1,2.2.438A3.482,3.482,0,0,1,8.93-9.848,3.254,3.254,0,0,1,9.469-8H6.734a1.375,1.375,0,0,0-.426-1.078,1.66,1.66,0,0,0-1.152-.383A1.872,1.872,0,0,0,4-9.137a1,1,0,0,0-.426.824,1,1,0,0,0,.469.793,5.911,5.911,0,0,0,1.648.734,10.1,10.1,0,0,1,1.938.816,3.256,3.256,0,0,1,1.844,2.93A2.778,2.778,0,0,1,8.344-.7,5,5,0,0,1,5.258.156a6.122,6.122,0,0,1-2.5-.5A3.775,3.775,0,0,1,1.066-1.7,3.542,3.542,0,0,1,.5-3.687H3.25A1.744,1.744,0,0,0,3.723-2.34a2.234,2.234,0,0,0,1.535.434A1.765,1.765,0,0,0,6.332-2.2.967.967,0,0,0,6.727-3.023ZM14.844.156A4.345,4.345,0,0,1,11.7-1a4.006,4.006,0,0,1-1.2-3.02v-.219a5.191,5.191,0,0,1,.48-2.289,3.516,3.516,0,0,1,1.4-1.535,4.233,4.233,0,0,1,2.188-.543A3.659,3.659,0,0,1,17.375-7.5a4.344,4.344,0,0,1,1.031,3.082V-3.4H13.172a1.9,1.9,0,0,0,.617,1.117,1.836,1.836,0,0,0,1.234.406,2.366,2.366,0,0,0,1.953-.875l1.2,1.422A3.363,3.363,0,0,1,16.785-.246,4.713,4.713,0,0,1,14.844.156Zm-.3-6.734q-1.156,0-1.375,1.531h2.656v-.2a1.3,1.3,0,0,0-.32-.98A1.275,1.275,0,0,0,14.547-6.578ZM31.3-4.164A5.1,5.1,0,0,1,30.41-1.02,2.843,2.843,0,0,1,28.016.156,2.437,2.437,0,0,1,26.1-.7V3.25H23.469v-11.7H25.93l.078.781A2.437,2.437,0,0,1,28-8.609a2.866,2.866,0,0,1,2.43,1.152A5.16,5.16,0,0,1,31.3-4.289Zm-2.633-.164q0-2.25-1.312-2.25a1.239,1.239,0,0,0-1.25.672v3.328a1.279,1.279,0,0,0,1.266.7q1.258,0,1.3-2.172ZM37.57-6.07,36.7-6.133a1.558,1.558,0,0,0-1.594.781V0H32.477V-8.453h2.469l.086,1.086a2.039,2.039,0,0,1,1.852-1.242,2.567,2.567,0,0,1,.734.094ZM42.609.156A4.345,4.345,0,0,1,39.461-1a4.006,4.006,0,0,1-1.2-3.02v-.219a5.191,5.191,0,0,1,.48-2.289,3.516,3.516,0,0,1,1.4-1.535,4.233,4.233,0,0,1,2.188-.543A3.659,3.659,0,0,1,45.141-7.5a4.344,4.344,0,0,1,1.031,3.082V-3.4H40.938a1.9,1.9,0,0,0,.617,1.117,1.836,1.836,0,0,0,1.234.406,2.366,2.366,0,0,0,1.953-.875l1.2,1.422A3.363,3.363,0,0,1,44.551-.246,4.713,4.713,0,0,1,42.609.156Zm-.3-6.734q-1.156,0-1.375,1.531h2.656v-.2a1.3,1.3,0,0,0-.32-.98A1.275,1.275,0,0,0,42.313-6.578Zm9.344,4.2a.608.608,0,0,0-.352-.539,5.348,5.348,0,0,0-1.336-.422,6.092,6.092,0,0,1-1.625-.574,2.722,2.722,0,0,1-.977-.863,2.061,2.061,0,0,1-.336-1.164,2.336,2.336,0,0,1,.961-1.918,3.958,3.958,0,0,1,2.516-.754,4.386,4.386,0,0,1,2.688.758,2.37,2.37,0,0,1,1.016,1.992H51.57q0-1.016-1.07-1.016a1.061,1.061,0,0,0-.7.23.714.714,0,0,0-.281.574.655.655,0,0,0,.344.57,3.248,3.248,0,0,0,1.1.359,9.485,9.485,0,0,1,1.324.336A2.406,2.406,0,0,1,54.2-2.453,2.214,2.214,0,0,1,53.168-.57a4.505,4.505,0,0,1-2.66.727A4.6,4.6,0,0,1,48.57-.234,3.24,3.24,0,0,1,47.242-1.3a2.406,2.406,0,0,1-.477-1.414h2.461a1.017,1.017,0,0,0,.391.855,1.607,1.607,0,0,0,.961.27,1.264,1.264,0,0,0,.809-.219A.7.7,0,0,0,51.656-2.375ZM59.516.156A4.345,4.345,0,0,1,56.367-1a4.006,4.006,0,0,1-1.2-3.02v-.219a5.191,5.191,0,0,1,.48-2.289,3.516,3.516,0,0,1,1.4-1.535,4.233,4.233,0,0,1,2.188-.543A3.659,3.659,0,0,1,62.047-7.5a4.344,4.344,0,0,1,1.031,3.082V-3.4H57.844a1.9,1.9,0,0,0,.617,1.117,1.836,1.836,0,0,0,1.234.406,2.366,2.366,0,0,0,1.953-.875l1.2,1.422A3.363,3.363,0,0,1,61.457-.246,4.713,4.713,0,0,1,59.516.156Zm-.3-6.734q-1.156,0-1.375,1.531H60.5v-.2a1.3,1.3,0,0,0-.32-.98A1.275,1.275,0,0,0,59.219-6.578Zm7.336-1.875.086.992a2.867,2.867,0,0,1,2.414-1.148,2.412,2.412,0,0,1,1.973.789A3.757,3.757,0,0,1,71.7-5.445V0H69.063V-5.336a1.426,1.426,0,0,0-.258-.941,1.193,1.193,0,0,0-.937-.3,1.256,1.256,0,0,0-1.148.609V0H64.086V-8.453Zm9.672-2.1v2.1h1.391v1.828H76.227v3.867a.987.987,0,0,0,.172.664.922.922,0,0,0,.68.188,3.862,3.862,0,0,0,.656-.047V-.07A4.859,4.859,0,0,1,76.25.156a2.758,2.758,0,0,1-2.008-.641,2.626,2.626,0,0,1-.648-1.945v-4.2H72.516V-8.453h1.078v-2.1ZM83.414,0a2.973,2.973,0,0,1-.25-.758,2.448,2.448,0,0,1-2.031.914A3,3,0,0,1,79.1-.566a2.3,2.3,0,0,1-.836-1.816,2.364,2.364,0,0,1,1.016-2.078,5.174,5.174,0,0,1,2.953-.7h.813v-.448q0-1.17-1.008-1.17a.824.824,0,0,0-.937.926H78.469a2.36,2.36,0,0,1,1.043-1.99,4.383,4.383,0,0,1,2.66-.765,3.843,3.843,0,0,1,2.555.789,2.743,2.743,0,0,1,.961,2.164v3.742a3.832,3.832,0,0,0,.359,1.781V0ZM81.766-1.719a1.469,1.469,0,0,0,.816-.211,1.322,1.322,0,0,0,.465-.477V-3.758h-.766q-1.375,0-1.375,1.234a.754.754,0,0,0,.242.582A.876.876,0,0,0,81.766-1.719Zm7.8-6.734.086.992a2.867,2.867,0,0,1,2.414-1.148,2.412,2.412,0,0,1,1.973.789,3.757,3.757,0,0,1,.676,2.375V0H92.07V-5.336a1.426,1.426,0,0,0-.258-.941,1.193,1.193,0,0,0-.937-.3,1.256,1.256,0,0,0-1.148.609V0H87.094V-8.453ZM99.844-4.289a5.708,5.708,0,0,1,.422-2.266,3.4,3.4,0,0,1,1.211-1.52,3.192,3.192,0,0,1,1.836-.535,2.538,2.538,0,0,1,2.063.891l.094-.734h2.391V-.32a3.564,3.564,0,0,1-.52,1.941,3.334,3.334,0,0,1-1.5,1.266,5.528,5.528,0,0,1-2.281.441,4.769,4.769,0,0,1-1.8-.352,3.251,3.251,0,0,1-1.332-.914l1.1-1.547a2.414,2.414,0,0,0,1.938.867,1.568,1.568,0,0,0,1.75-1.8V-.68A2.472,2.472,0,0,1,103.3.156a3.055,3.055,0,0,1-2.5-1.184A4.9,4.9,0,0,1,99.844-4.2Zm2.641.164a3.007,3.007,0,0,0,.391,1.645,1.232,1.232,0,0,0,1.094.605,1.4,1.4,0,0,0,1.242-.57V-6a1.363,1.363,0,0,0-1.227-.578,1.241,1.241,0,0,0-1.1.629A3.429,3.429,0,0,0,102.484-4.125ZM114.117,0a2.973,2.973,0,0,1-.25-.758,2.448,2.448,0,0,1-2.031.914A3,3,0,0,1,109.8-.566a2.3,2.3,0,0,1-.836-1.816,2.364,2.364,0,0,1,1.016-2.078,5.174,5.174,0,0,1,2.953-.7h.813v-.448q0-1.17-1.008-1.17a.824.824,0,0,0-.937.926h-2.633a2.36,2.36,0,0,1,1.043-1.99,4.383,4.383,0,0,1,2.66-.765,3.843,3.843,0,0,1,2.555.789,2.743,2.743,0,0,1,.961,2.164v3.742a3.832,3.832,0,0,0,.359,1.781V0Zm-1.648-1.719a1.469,1.469,0,0,0,.816-.211,1.322,1.322,0,0,0,.465-.477V-3.758h-.766q-1.375,0-1.375,1.234a.754.754,0,0,0,.242.582A.876.876,0,0,0,112.469-1.719Zm9.8-.656a.608.608,0,0,0-.352-.539,5.348,5.348,0,0,0-1.336-.422,6.092,6.092,0,0,1-1.625-.574,2.722,2.722,0,0,1-.977-.863,2.061,2.061,0,0,1-.336-1.164,2.336,2.336,0,0,1,.961-1.918,3.958,3.958,0,0,1,2.516-.754,4.386,4.386,0,0,1,2.688.758,2.37,2.37,0,0,1,1.016,1.992h-2.641q0-1.016-1.07-1.016a1.061,1.061,0,0,0-.7.23.714.714,0,0,0-.281.574.655.655,0,0,0,.344.57,3.248,3.248,0,0,0,1.1.359,9.486,9.486,0,0,1,1.324.336,2.406,2.406,0,0,1,1.906,2.352A2.214,2.214,0,0,1,123.785-.57a4.505,4.505,0,0,1-2.66.727,4.6,4.6,0,0,1-1.937-.391A3.24,3.24,0,0,1,117.859-1.3a2.406,2.406,0,0,1-.477-1.414h2.461a1.017,1.017,0,0,0,.391.855,1.607,1.607,0,0,0,.961.27A1.264,1.264,0,0,0,122-1.8.7.7,0,0,0,122.273-2.375Zm6.836-8.18v2.1H130.5v1.828h-1.391v3.867a.987.987,0,0,0,.172.664.922.922,0,0,0,.68.188,3.862,3.862,0,0,0,.656-.047V-.07a4.859,4.859,0,0,1-1.484.227,2.758,2.758,0,0,1-2.008-.641,2.626,2.626,0,0,1-.648-1.945v-4.2H125.4V-8.453h1.078v-2.1Zm1.859,6.25a4.989,4.989,0,0,1,.492-2.254,3.52,3.52,0,0,1,1.414-1.52,4.259,4.259,0,0,1,2.164-.531,3.887,3.887,0,0,1,2.992,1.176,4.512,4.512,0,0,1,1.094,3.2v.094A4.378,4.378,0,0,1,138.027-1a3.9,3.9,0,0,1-2.973,1.16,3.942,3.942,0,0,1-2.9-1.082,4.232,4.232,0,0,1-1.18-2.934Zm2.633.164a3.145,3.145,0,0,0,.367,1.719,1.223,1.223,0,0,0,1.086.547q1.406,0,1.438-2.164V-4.3q0-2.273-1.453-2.273-1.32,0-1.43,1.961Zm11.109,1.766a.608.608,0,0,0-.352-.539,5.348,5.348,0,0,0-1.336-.422A6.092,6.092,0,0,1,141.4-3.91a2.722,2.722,0,0,1-.977-.863,2.061,2.061,0,0,1-.336-1.164,2.336,2.336,0,0,1,.961-1.918,3.958,3.958,0,0,1,2.516-.754,4.386,4.386,0,0,1,2.688.758,2.37,2.37,0,0,1,1.016,1.992h-2.641q0-1.016-1.07-1.016a1.061,1.061,0,0,0-.7.23.714.714,0,0,0-.281.574.655.655,0,0,0,.344.57,3.248,3.248,0,0,0,1.1.359,9.485,9.485,0,0,1,1.324.336,2.406,2.406,0,0,1,1.906,2.352A2.214,2.214,0,0,1,146.223-.57a4.505,4.505,0,0,1-2.66.727,4.6,4.6,0,0,1-1.937-.391A3.24,3.24,0,0,1,140.3-1.3a2.406,2.406,0,0,1-.477-1.414h2.461a1.017,1.017,0,0,0,.391.855,1.607,1.607,0,0,0,.961.27,1.264,1.264,0,0,0,.809-.219A.7.7,0,0,0,144.711-2.375Z" transform="translate(1165 2897)" fill="#3b4454"/>
    <path id="Trazado_119978" data-name="Trazado 119978" d="M5.852-2.563a1.423,1.423,0,0,0-.441-1.06A3.944,3.944,0,0,0,3.924-4.4,4.766,4.766,0,0,1,1.8-5.561a2.555,2.555,0,0,1-.667-1.815,2.628,2.628,0,0,1,.653-1.839,2.774,2.774,0,0,1,1.794-.854v-1.5H4.6v1.5A2.635,2.635,0,0,1,6.388-9.1a3.464,3.464,0,0,1,.639,2.208H5.77a2.381,2.381,0,0,0-.458-1.536A1.5,1.5,0,0,0,4.074-9a1.707,1.707,0,0,0-1.244.421A1.567,1.567,0,0,0,2.4-7.4a1.432,1.432,0,0,0,.455,1.113,4.188,4.188,0,0,0,1.5.753,6.3,6.3,0,0,1,1.627.746,2.617,2.617,0,0,1,.861.947,2.737,2.737,0,0,1,.277,1.265A2.534,2.534,0,0,1,6.422-.718,3.077,3.077,0,0,1,4.478.116V1.422H3.466V.116A2.948,2.948,0,0,1,1.473-.79,3.056,3.056,0,0,1,.752-2.933H2.017a2.012,2.012,0,0,0,.5,1.463,1.884,1.884,0,0,0,1.415.513,2.123,2.123,0,0,0,1.408-.431A1.454,1.454,0,0,0,5.852-2.563ZM16.311,0H15.039V-8.429l-2.55.937V-8.641L16.112-10h.2ZM20.1,1.982l-.718-.492a3.3,3.3,0,0,0,.67-1.846V-1.5h1.237v.991A3.114,3.114,0,0,1,20.956.875,3.233,3.233,0,0,1,20.1,1.982ZM29-4.245a5.784,5.784,0,0,1-.759,3.3A2.7,2.7,0,0,1,25.874.137,2.718,2.718,0,0,1,23.516-.919a5.49,5.49,0,0,1-.793-3.155V-5.763a5.655,5.655,0,0,1,.759-3.261A2.719,2.719,0,0,1,25.86-10.09a2.744,2.744,0,0,1,2.365,1.029A5.458,5.458,0,0,1,29-5.886ZM27.74-5.975a4.634,4.634,0,0,0-.451-2.341,1.553,1.553,0,0,0-1.429-.735,1.532,1.532,0,0,0-1.415.731,4.525,4.525,0,0,0-.458,2.249v2.023a4.708,4.708,0,0,0,.468,2.382A1.55,1.55,0,0,0,25.874-.9a1.529,1.529,0,0,0,1.391-.725A4.538,4.538,0,0,0,27.74-3.9Zm9.126,1.729a5.784,5.784,0,0,1-.759,3.3A2.7,2.7,0,0,1,33.735.137,2.718,2.718,0,0,1,31.377-.919a5.49,5.49,0,0,1-.793-3.155V-5.763a5.655,5.655,0,0,1,.759-3.261,2.719,2.719,0,0,1,2.379-1.066,2.744,2.744,0,0,1,2.365,1.029,5.458,5.458,0,0,1,.779,3.175ZM35.6-5.975a4.634,4.634,0,0,0-.451-2.341,1.553,1.553,0,0,0-1.429-.735,1.532,1.532,0,0,0-1.415.731,4.525,4.525,0,0,0-.458,2.249v2.023a4.708,4.708,0,0,0,.468,2.382A1.55,1.55,0,0,0,33.735-.9a1.529,1.529,0,0,0,1.391-.725A4.538,4.538,0,0,0,35.6-3.9Zm9.126,1.729a5.784,5.784,0,0,1-.759,3.3A2.7,2.7,0,0,1,41.6.137,2.718,2.718,0,0,1,39.238-.919a5.49,5.49,0,0,1-.793-3.155V-5.763A5.655,5.655,0,0,1,39.2-9.023a2.719,2.719,0,0,1,2.379-1.066,2.744,2.744,0,0,1,2.365,1.029,5.458,5.458,0,0,1,.779,3.175ZM43.463-5.975a4.634,4.634,0,0,0-.451-2.341,1.553,1.553,0,0,0-1.429-.735,1.532,1.532,0,0,0-1.415.731A4.525,4.525,0,0,0,39.71-6.07v2.023a4.708,4.708,0,0,0,.468,2.382A1.55,1.55,0,0,0,41.6-.9a1.529,1.529,0,0,0,1.391-.725A4.538,4.538,0,0,0,43.463-3.9Zm2.974,7.957-.718-.492a3.3,3.3,0,0,0,.67-1.846V-1.5h1.237v.991A3.114,3.114,0,0,1,47.288.875,3.233,3.233,0,0,1,46.437,1.982Zm8.9-6.228a5.784,5.784,0,0,1-.759,3.3A2.7,2.7,0,0,1,52.206.137,2.718,2.718,0,0,1,49.848-.919a5.49,5.49,0,0,1-.793-3.155V-5.763a5.655,5.655,0,0,1,.759-3.261,2.719,2.719,0,0,1,2.379-1.066,2.744,2.744,0,0,1,2.365,1.029,5.458,5.458,0,0,1,.779,3.175ZM54.072-5.975a4.634,4.634,0,0,0-.451-2.341,1.553,1.553,0,0,0-1.429-.735,1.532,1.532,0,0,0-1.415.731,4.525,4.525,0,0,0-.458,2.249v2.023a4.708,4.708,0,0,0,.468,2.382A1.55,1.55,0,0,0,52.206-.9,1.529,1.529,0,0,0,53.6-1.62,4.538,4.538,0,0,0,54.072-3.9ZM63.2-4.245a5.784,5.784,0,0,1-.759,3.3A2.7,2.7,0,0,1,60.067.137,2.718,2.718,0,0,1,57.709-.919a5.49,5.49,0,0,1-.793-3.155V-5.763a5.655,5.655,0,0,1,.759-3.261,2.719,2.719,0,0,1,2.379-1.066,2.744,2.744,0,0,1,2.365,1.029A5.458,5.458,0,0,1,63.2-5.886ZM61.934-5.975a4.634,4.634,0,0,0-.451-2.341,1.553,1.553,0,0,0-1.429-.735,1.532,1.532,0,0,0-1.415.731,4.525,4.525,0,0,0-.458,2.249v2.023a4.708,4.708,0,0,0,.468,2.382A1.55,1.55,0,0,0,60.067-.9a1.529,1.529,0,0,0,1.391-.725A4.538,4.538,0,0,0,61.934-3.9ZM71.06-4.245a5.784,5.784,0,0,1-.759,3.3A2.7,2.7,0,0,1,67.929.137,2.718,2.718,0,0,1,65.57-.919a5.49,5.49,0,0,1-.793-3.155V-5.763a5.655,5.655,0,0,1,.759-3.261,2.719,2.719,0,0,1,2.379-1.066A2.744,2.744,0,0,1,70.28-9.061a5.458,5.458,0,0,1,.779,3.175ZM69.795-5.975a4.634,4.634,0,0,0-.451-2.341,1.553,1.553,0,0,0-1.429-.735,1.532,1.532,0,0,0-1.415.731,4.525,4.525,0,0,0-.458,2.249v2.023a4.708,4.708,0,0,0,.468,2.382A1.55,1.55,0,0,0,67.929-.9,1.529,1.529,0,0,0,69.32-1.62,4.538,4.538,0,0,0,69.795-3.9Z" transform="translate(330 2956)" fill="#12263f"/>
    <path id="Trazado_119980" data-name="Trazado 119980" d="M5.852-2.563a1.423,1.423,0,0,0-.441-1.06A3.944,3.944,0,0,0,3.924-4.4,4.766,4.766,0,0,1,1.8-5.561a2.555,2.555,0,0,1-.667-1.815,2.628,2.628,0,0,1,.653-1.839,2.774,2.774,0,0,1,1.794-.854v-1.5H4.6v1.5A2.635,2.635,0,0,1,6.388-9.1a3.464,3.464,0,0,1,.639,2.208H5.77a2.381,2.381,0,0,0-.458-1.536A1.5,1.5,0,0,0,4.074-9a1.707,1.707,0,0,0-1.244.421A1.567,1.567,0,0,0,2.4-7.4a1.432,1.432,0,0,0,.455,1.113,4.188,4.188,0,0,0,1.5.753,6.3,6.3,0,0,1,1.627.746,2.617,2.617,0,0,1,.861.947,2.737,2.737,0,0,1,.277,1.265A2.534,2.534,0,0,1,6.422-.718,3.077,3.077,0,0,1,4.478.116V1.422H3.466V.116A2.948,2.948,0,0,1,1.473-.79,3.056,3.056,0,0,1,.752-2.933H2.017a2.012,2.012,0,0,0,.5,1.463,1.884,1.884,0,0,0,1.415.513,2.123,2.123,0,0,0,1.408-.431A1.454,1.454,0,0,0,5.852-2.563ZM18.676,0H12.154V-.909L15.6-4.737a8.185,8.185,0,0,0,1.056-1.412,2.356,2.356,0,0,0,.291-1.125,1.786,1.786,0,0,0-.472-1.278,1.649,1.649,0,0,0-1.258-.5,1.953,1.953,0,0,0-1.466.537,2.05,2.05,0,0,0-.523,1.494H11.963a2.936,2.936,0,0,1,.885-2.222,3.282,3.282,0,0,1,2.369-.848,3.153,3.153,0,0,1,2.194.728,2.483,2.483,0,0,1,.807,1.938q0,1.47-1.873,3.5L13.679-1.032h5ZM20.6-4.99,21.1-9.953h5.1v1.169H22.176l-.3,2.714A3.212,3.212,0,0,1,23.536-6.5a2.746,2.746,0,0,1,2.16.9,3.523,3.523,0,0,1,.8,2.43,3.4,3.4,0,0,1-.831,2.423,3.027,3.027,0,0,1-2.321.885,3.146,3.146,0,0,1-2.153-.731,2.919,2.919,0,0,1-.95-2.023h1.2a2.009,2.009,0,0,0,.608,1.289,1.892,1.892,0,0,0,1.3.434,1.706,1.706,0,0,0,1.384-.6,2.515,2.515,0,0,0,.5-1.661,2.308,2.308,0,0,0-.543-1.6,1.849,1.849,0,0,0-1.446-.6,2.085,2.085,0,0,0-1.3.362l-.335.273Zm13.521.745a5.784,5.784,0,0,1-.759,3.3A2.7,2.7,0,0,1,30.987.137,2.718,2.718,0,0,1,28.629-.919a5.49,5.49,0,0,1-.793-3.155V-5.763a5.655,5.655,0,0,1,.759-3.261,2.719,2.719,0,0,1,2.379-1.066,2.744,2.744,0,0,1,2.365,1.029,5.458,5.458,0,0,1,.779,3.175ZM32.854-5.975A4.634,4.634,0,0,0,32.4-8.316a1.553,1.553,0,0,0-1.429-.735,1.532,1.532,0,0,0-1.415.731A4.525,4.525,0,0,0,29.1-6.07v2.023a4.708,4.708,0,0,0,.468,2.382A1.55,1.55,0,0,0,30.987-.9a1.529,1.529,0,0,0,1.391-.725A4.538,4.538,0,0,0,32.854-3.9Zm2.974,7.957-.718-.492a3.3,3.3,0,0,0,.67-1.846V-1.5h1.237v.991A3.114,3.114,0,0,1,36.678.875,3.233,3.233,0,0,1,35.827,1.982Zm8.9-6.228a5.784,5.784,0,0,1-.759,3.3A2.7,2.7,0,0,1,41.6.137,2.718,2.718,0,0,1,39.238-.919a5.49,5.49,0,0,1-.793-3.155V-5.763A5.655,5.655,0,0,1,39.2-9.023a2.719,2.719,0,0,1,2.379-1.066,2.744,2.744,0,0,1,2.365,1.029,5.458,5.458,0,0,1,.779,3.175ZM43.463-5.975a4.634,4.634,0,0,0-.451-2.341,1.553,1.553,0,0,0-1.429-.735,1.532,1.532,0,0,0-1.415.731A4.525,4.525,0,0,0,39.71-6.07v2.023a4.708,4.708,0,0,0,.468,2.382A1.55,1.55,0,0,0,41.6-.9a1.529,1.529,0,0,0,1.391-.725A4.538,4.538,0,0,0,43.463-3.9Zm9.126,1.729a5.784,5.784,0,0,1-.759,3.3A2.7,2.7,0,0,1,49.458.137,2.718,2.718,0,0,1,47.1-.919a5.49,5.49,0,0,1-.793-3.155V-5.763a5.655,5.655,0,0,1,.759-3.261,2.719,2.719,0,0,1,2.379-1.066A2.744,2.744,0,0,1,51.81-9.061a5.458,5.458,0,0,1,.779,3.175ZM51.324-5.975a4.634,4.634,0,0,0-.451-2.341,1.553,1.553,0,0,0-1.429-.735,1.532,1.532,0,0,0-1.415.731,4.525,4.525,0,0,0-.458,2.249v2.023a4.708,4.708,0,0,0,.468,2.382A1.55,1.55,0,0,0,49.458-.9a1.529,1.529,0,0,0,1.391-.725A4.538,4.538,0,0,0,51.324-3.9ZM60.45-4.245a5.784,5.784,0,0,1-.759,3.3A2.7,2.7,0,0,1,57.319.137,2.718,2.718,0,0,1,54.961-.919a5.49,5.49,0,0,1-.793-3.155V-5.763a5.655,5.655,0,0,1,.759-3.261,2.719,2.719,0,0,1,2.379-1.066,2.744,2.744,0,0,1,2.365,1.029,5.458,5.458,0,0,1,.779,3.175ZM59.186-5.975a4.634,4.634,0,0,0-.451-2.341,1.553,1.553,0,0,0-1.429-.735,1.532,1.532,0,0,0-1.415.731,4.525,4.525,0,0,0-.458,2.249v2.023A4.708,4.708,0,0,0,55.9-1.665,1.55,1.55,0,0,0,57.319-.9,1.529,1.529,0,0,0,58.71-1.62,4.538,4.538,0,0,0,59.186-3.9Z" transform="translate(914 2956)" fill="#12263f"/>
    <path id="Trazado_119979" data-name="Trazado 119979" d="M5.852-2.563a1.423,1.423,0,0,0-.441-1.06A3.944,3.944,0,0,0,3.924-4.4,4.766,4.766,0,0,1,1.8-5.561a2.555,2.555,0,0,1-.667-1.815,2.628,2.628,0,0,1,.653-1.839,2.774,2.774,0,0,1,1.794-.854v-1.5H4.6v1.5A2.635,2.635,0,0,1,6.388-9.1a3.464,3.464,0,0,1,.639,2.208H5.77a2.381,2.381,0,0,0-.458-1.536A1.5,1.5,0,0,0,4.074-9a1.707,1.707,0,0,0-1.244.421A1.567,1.567,0,0,0,2.4-7.4a1.432,1.432,0,0,0,.455,1.113,4.188,4.188,0,0,0,1.5.753,6.3,6.3,0,0,1,1.627.746,2.617,2.617,0,0,1,.861.947,2.737,2.737,0,0,1,.277,1.265A2.534,2.534,0,0,1,6.422-.718,3.077,3.077,0,0,1,4.478.116V1.422H3.466V.116A2.948,2.948,0,0,1,1.473-.79,3.056,3.056,0,0,1,.752-2.933H2.017a2.012,2.012,0,0,0,.5,1.463,1.884,1.884,0,0,0,1.415.513,2.123,2.123,0,0,0,1.408-.431A1.454,1.454,0,0,0,5.852-2.563ZM18.676,0H12.154V-.909L15.6-4.737a8.185,8.185,0,0,0,1.056-1.412,2.356,2.356,0,0,0,.291-1.125,1.786,1.786,0,0,0-.472-1.278,1.649,1.649,0,0,0-1.258-.5,1.953,1.953,0,0,0-1.466.537,2.05,2.05,0,0,0-.523,1.494H11.963a2.936,2.936,0,0,1,.885-2.222,3.282,3.282,0,0,1,2.369-.848,3.153,3.153,0,0,1,2.194.728,2.483,2.483,0,0,1,.807,1.938q0,1.47-1.873,3.5L13.679-1.032h5Zm7.581-4.245a5.784,5.784,0,0,1-.759,3.3A2.7,2.7,0,0,1,23.126.137,2.718,2.718,0,0,1,20.768-.919a5.49,5.49,0,0,1-.793-3.155V-5.763a5.655,5.655,0,0,1,.759-3.261,2.719,2.719,0,0,1,2.379-1.066,2.744,2.744,0,0,1,2.365,1.029,5.458,5.458,0,0,1,.779,3.175ZM24.992-5.975a4.634,4.634,0,0,0-.451-2.341,1.553,1.553,0,0,0-1.429-.735,1.532,1.532,0,0,0-1.415.731,4.525,4.525,0,0,0-.458,2.249v2.023a4.708,4.708,0,0,0,.468,2.382A1.55,1.55,0,0,0,23.126-.9a1.529,1.529,0,0,0,1.391-.725A4.538,4.538,0,0,0,24.992-3.9Zm9.126,1.729a5.784,5.784,0,0,1-.759,3.3A2.7,2.7,0,0,1,30.987.137,2.718,2.718,0,0,1,28.629-.919a5.49,5.49,0,0,1-.793-3.155V-5.763a5.655,5.655,0,0,1,.759-3.261,2.719,2.719,0,0,1,2.379-1.066,2.744,2.744,0,0,1,2.365,1.029,5.458,5.458,0,0,1,.779,3.175ZM32.854-5.975A4.634,4.634,0,0,0,32.4-8.316a1.553,1.553,0,0,0-1.429-.735,1.532,1.532,0,0,0-1.415.731A4.525,4.525,0,0,0,29.1-6.07v2.023a4.708,4.708,0,0,0,.468,2.382A1.55,1.55,0,0,0,30.987-.9a1.529,1.529,0,0,0,1.391-.725A4.538,4.538,0,0,0,32.854-3.9Zm2.974,7.957-.718-.492a3.3,3.3,0,0,0,.67-1.846V-1.5h1.237v.991A3.114,3.114,0,0,1,36.678.875,3.233,3.233,0,0,1,35.827,1.982Zm8.9-6.228a5.784,5.784,0,0,1-.759,3.3A2.7,2.7,0,0,1,41.6.137,2.718,2.718,0,0,1,39.238-.919a5.49,5.49,0,0,1-.793-3.155V-5.763A5.655,5.655,0,0,1,39.2-9.023a2.719,2.719,0,0,1,2.379-1.066,2.744,2.744,0,0,1,2.365,1.029,5.458,5.458,0,0,1,.779,3.175ZM43.463-5.975a4.634,4.634,0,0,0-.451-2.341,1.553,1.553,0,0,0-1.429-.735,1.532,1.532,0,0,0-1.415.731A4.525,4.525,0,0,0,39.71-6.07v2.023a4.708,4.708,0,0,0,.468,2.382A1.55,1.55,0,0,0,41.6-.9a1.529,1.529,0,0,0,1.391-.725A4.538,4.538,0,0,0,43.463-3.9Zm9.126,1.729a5.784,5.784,0,0,1-.759,3.3A2.7,2.7,0,0,1,49.458.137,2.718,2.718,0,0,1,47.1-.919a5.49,5.49,0,0,1-.793-3.155V-5.763a5.655,5.655,0,0,1,.759-3.261,2.719,2.719,0,0,1,2.379-1.066A2.744,2.744,0,0,1,51.81-9.061a5.458,5.458,0,0,1,.779,3.175ZM51.324-5.975a4.634,4.634,0,0,0-.451-2.341,1.553,1.553,0,0,0-1.429-.735,1.532,1.532,0,0,0-1.415.731,4.525,4.525,0,0,0-.458,2.249v2.023a4.708,4.708,0,0,0,.468,2.382A1.55,1.55,0,0,0,49.458-.9a1.529,1.529,0,0,0,1.391-.725A4.538,4.538,0,0,0,51.324-3.9ZM60.45-4.245a5.784,5.784,0,0,1-.759,3.3A2.7,2.7,0,0,1,57.319.137,2.718,2.718,0,0,1,54.961-.919a5.49,5.49,0,0,1-.793-3.155V-5.763a5.655,5.655,0,0,1,.759-3.261,2.719,2.719,0,0,1,2.379-1.066,2.744,2.744,0,0,1,2.365,1.029,5.458,5.458,0,0,1,.779,3.175ZM59.186-5.975a4.634,4.634,0,0,0-.451-2.341,1.553,1.553,0,0,0-1.429-.735,1.532,1.532,0,0,0-1.415.731,4.525,4.525,0,0,0-.458,2.249v2.023A4.708,4.708,0,0,0,55.9-1.665,1.55,1.55,0,0,0,57.319-.9,1.529,1.529,0,0,0,58.71-1.62,4.538,4.538,0,0,0,59.186-3.9Z" transform="translate(618 2956)" fill="#12263f"/>
    <path id="Trazado_119981" data-name="Trazado 119981" d="M5.852-2.563a1.423,1.423,0,0,0-.441-1.06A3.944,3.944,0,0,0,3.924-4.4,4.766,4.766,0,0,1,1.8-5.561a2.555,2.555,0,0,1-.667-1.815,2.628,2.628,0,0,1,.653-1.839,2.774,2.774,0,0,1,1.794-.854v-1.5H4.6v1.5A2.635,2.635,0,0,1,6.388-9.1a3.464,3.464,0,0,1,.639,2.208H5.77a2.381,2.381,0,0,0-.458-1.536A1.5,1.5,0,0,0,4.074-9a1.707,1.707,0,0,0-1.244.421A1.567,1.567,0,0,0,2.4-7.4a1.432,1.432,0,0,0,.455,1.113,4.188,4.188,0,0,0,1.5.753,6.3,6.3,0,0,1,1.627.746,2.617,2.617,0,0,1,.861.947,2.737,2.737,0,0,1,.277,1.265A2.534,2.534,0,0,1,6.422-.718,3.077,3.077,0,0,1,4.478.116V1.422H3.466V.116A2.948,2.948,0,0,1,1.473-.79,3.056,3.056,0,0,1,.752-2.933H2.017a2.012,2.012,0,0,0,.5,1.463,1.884,1.884,0,0,0,1.415.513,2.123,2.123,0,0,0,1.408-.431A1.454,1.454,0,0,0,5.852-2.563ZM16.311,0H15.039V-8.429l-2.55.937V-8.641L16.112-10h.2Zm9.946-4.245a5.784,5.784,0,0,1-.759,3.3A2.7,2.7,0,0,1,23.126.137,2.718,2.718,0,0,1,20.768-.919a5.49,5.49,0,0,1-.793-3.155V-5.763a5.655,5.655,0,0,1,.759-3.261,2.719,2.719,0,0,1,2.379-1.066,2.744,2.744,0,0,1,2.365,1.029,5.458,5.458,0,0,1,.779,3.175ZM24.992-5.975a4.634,4.634,0,0,0-.451-2.341,1.553,1.553,0,0,0-1.429-.735,1.532,1.532,0,0,0-1.415.731,4.525,4.525,0,0,0-.458,2.249v2.023a4.708,4.708,0,0,0,.468,2.382A1.55,1.55,0,0,0,23.126-.9a1.529,1.529,0,0,0,1.391-.725A4.538,4.538,0,0,0,24.992-3.9Zm2.974,7.957-.718-.492a3.3,3.3,0,0,0,.67-1.846V-1.5h1.237v.991A3.114,3.114,0,0,1,28.817.875,3.233,3.233,0,0,1,27.966,1.982Zm8.9-6.228a5.784,5.784,0,0,1-.759,3.3A2.7,2.7,0,0,1,33.735.137,2.718,2.718,0,0,1,31.377-.919a5.49,5.49,0,0,1-.793-3.155V-5.763a5.655,5.655,0,0,1,.759-3.261,2.719,2.719,0,0,1,2.379-1.066,2.744,2.744,0,0,1,2.365,1.029,5.458,5.458,0,0,1,.779,3.175ZM35.6-5.975a4.634,4.634,0,0,0-.451-2.341,1.553,1.553,0,0,0-1.429-.735,1.532,1.532,0,0,0-1.415.731,4.525,4.525,0,0,0-.458,2.249v2.023a4.708,4.708,0,0,0,.468,2.382A1.55,1.55,0,0,0,33.735-.9a1.529,1.529,0,0,0,1.391-.725A4.538,4.538,0,0,0,35.6-3.9Zm9.126,1.729a5.784,5.784,0,0,1-.759,3.3A2.7,2.7,0,0,1,41.6.137,2.718,2.718,0,0,1,39.238-.919a5.49,5.49,0,0,1-.793-3.155V-5.763A5.655,5.655,0,0,1,39.2-9.023a2.719,2.719,0,0,1,2.379-1.066,2.744,2.744,0,0,1,2.365,1.029,5.458,5.458,0,0,1,.779,3.175ZM43.463-5.975a4.634,4.634,0,0,0-.451-2.341,1.553,1.553,0,0,0-1.429-.735,1.532,1.532,0,0,0-1.415.731A4.525,4.525,0,0,0,39.71-6.07v2.023a4.708,4.708,0,0,0,.468,2.382A1.55,1.55,0,0,0,41.6-.9a1.529,1.529,0,0,0,1.391-.725A4.538,4.538,0,0,0,43.463-3.9Zm9.126,1.729a5.784,5.784,0,0,1-.759,3.3A2.7,2.7,0,0,1,49.458.137,2.718,2.718,0,0,1,47.1-.919a5.49,5.49,0,0,1-.793-3.155V-5.763a5.655,5.655,0,0,1,.759-3.261,2.719,2.719,0,0,1,2.379-1.066A2.744,2.744,0,0,1,51.81-9.061a5.458,5.458,0,0,1,.779,3.175ZM51.324-5.975a4.634,4.634,0,0,0-.451-2.341,1.553,1.553,0,0,0-1.429-.735,1.532,1.532,0,0,0-1.415.731,4.525,4.525,0,0,0-.458,2.249v2.023a4.708,4.708,0,0,0,.468,2.382A1.55,1.55,0,0,0,49.458-.9a1.529,1.529,0,0,0,1.391-.725A4.538,4.538,0,0,0,51.324-3.9Z" transform="translate(1201 2956)" fill="#12263f"/>
    <g id="Grupo_88873" data-name="Grupo 88873" transform="translate(586.593 2720.162)">
      <rect id="Rectángulo_33010" data-name="Rectángulo 33010" width="95.543" height="95.543" rx="10" transform="translate(0 67.559) rotate(-45)" fill="#fff" stroke="#60c1dd" stroke-width="3"/>
    </g>
    <g id="Grupo_88896" data-name="Grupo 88896" transform="translate(1169.086 2720.162)">
      <rect id="Rectángulo_33010-2" data-name="Rectángulo 33010" width="95.543" height="95.543" rx="10" transform="translate(0 67.559) rotate(-45)" fill="#fff" stroke="#60c1dd" stroke-width="3"/>
    </g>
    <g id="Grupo_88893" data-name="Grupo 88893" transform="translate(338.882 2766.461)">
      <path id="Trazado_100539" data-name="Trazado 100539" d="M1323.122,521.635l-4.652-4.142a4.507,4.507,0,0,1,6-6.723l13.506,12.005a4.5,4.5,0,0,1,.367,6.356,4.453,4.453,0,0,1-.367.367L1324.473,541.5a4.507,4.507,0,1,1-6-6.723l4.652-4.142h-24.161a4.5,4.5,0,0,1,0-9Z" transform="translate(-1292.958 -508.123)" fill="#60c1dd"/>
      <path id="Trazado_100540" data-name="Trazado 100540" d="M1318.3,540.967a6,6,0,0,1-4-10.487l1.7-1.519h-20.217a6,6,0,1,1,0-12.006H1316l-1.708-1.519a6.008,6.008,0,1,1,8-8.968l13.506,12.006a6,6,0,0,1,.5,8.474,5.893,5.893,0,0,1-.5.5l-13.506,12.005A5.978,5.978,0,0,1,1318.3,540.967Zm-22.51-21.01a3,3,0,1,0,0,6h24.161a1.5,1.5,0,0,1,1,2.623l-4.649,4.139a3,3,0,0,0-.246,4.237l.009.01a3.118,3.118,0,0,0,4.241.24L1333.8,525.2a3.017,3.017,0,0,0,.215-4.26c-.068-.075-.14-.147-.215-.215L1320.3,508.723a3,3,0,0,0-4.007,4.469l4.652,4.142a1.5,1.5,0,0,1-1,2.623Z" transform="translate(-1289.782 -504.944)" fill="#3b4454"/>
    </g>
    <g id="Grupo_88899" data-name="Grupo 88899" transform="translate(630.592 2766.461)">
      <path id="Trazado_100539-2" data-name="Trazado 100539" d="M1323.122,521.635l-4.652-4.142a4.507,4.507,0,0,1,6-6.723l13.506,12.005a4.5,4.5,0,0,1,.367,6.356,4.453,4.453,0,0,1-.367.367L1324.473,541.5a4.507,4.507,0,1,1-6-6.723l4.652-4.142h-24.161a4.5,4.5,0,0,1,0-9Z" transform="translate(-1292.958 -508.123)" fill="#60c1dd"/>
      <path id="Trazado_100540-2" data-name="Trazado 100540" d="M1318.3,540.967a6,6,0,0,1-4-10.487l1.7-1.519h-20.217a6,6,0,1,1,0-12.006H1316l-1.708-1.519a6.008,6.008,0,1,1,8-8.968l13.506,12.006a6,6,0,0,1,.5,8.474,5.893,5.893,0,0,1-.5.5l-13.506,12.005A5.978,5.978,0,0,1,1318.3,540.967Zm-22.51-21.01a3,3,0,1,0,0,6h24.161a1.5,1.5,0,0,1,1,2.623l-4.649,4.139a3,3,0,0,0-.246,4.237l.009.01a3.118,3.118,0,0,0,4.241.24L1333.8,525.2a3.017,3.017,0,0,0,.215-4.26c-.068-.075-.14-.147-.215-.215L1320.3,508.723a3,3,0,0,0-4.007,4.469l4.652,4.142a1.5,1.5,0,0,1-1,2.623Z" transform="translate(-1289.782 -504.944)" fill="#3b4454"/>
    </g>
    <g id="Grupo_88900" data-name="Grupo 88900" transform="translate(920.913 2766.461)">
      <path id="Trazado_100539-3" data-name="Trazado 100539" d="M1323.122,521.635l-4.652-4.142a4.507,4.507,0,0,1,6-6.723l13.506,12.005a4.5,4.5,0,0,1,.367,6.356,4.453,4.453,0,0,1-.367.367L1324.473,541.5a4.507,4.507,0,1,1-6-6.723l4.652-4.142h-24.161a4.5,4.5,0,0,1,0-9Z" transform="translate(-1292.958 -508.123)" fill="#60c1dd"/>
      <path id="Trazado_100540-3" data-name="Trazado 100540" d="M1318.3,540.967a6,6,0,0,1-4-10.487l1.7-1.519h-20.217a6,6,0,1,1,0-12.006H1316l-1.708-1.519a6.008,6.008,0,1,1,8-8.968l13.506,12.006a6,6,0,0,1,.5,8.474,5.893,5.893,0,0,1-.5.5l-13.506,12.005A5.978,5.978,0,0,1,1318.3,540.967Zm-22.51-21.01a3,3,0,1,0,0,6h24.161a1.5,1.5,0,0,1,1,2.623l-4.649,4.139a3,3,0,0,0-.246,4.237l.009.01a3.118,3.118,0,0,0,4.241.24L1333.8,525.2a3.017,3.017,0,0,0,.215-4.26c-.068-.075-.14-.147-.215-.215L1320.3,508.723a3,3,0,0,0-4.007,4.469l4.652,4.142a1.5,1.5,0,0,1-1,2.623Z" transform="translate(-1289.782 -504.944)" fill="#3b4454"/>
    </g>
    <g id="Grupo_88901" data-name="Grupo 88901" transform="translate(1209.443 2766.461)">
      <path id="Trazado_100539-4" data-name="Trazado 100539" d="M1323.122,521.635l-4.652-4.142a4.507,4.507,0,0,1,6-6.723l13.506,12.005a4.5,4.5,0,0,1,.367,6.356,4.453,4.453,0,0,1-.367.367L1324.473,541.5a4.507,4.507,0,1,1-6-6.723l4.652-4.142h-24.161a4.5,4.5,0,0,1,0-9Z" transform="translate(-1292.958 -508.123)" fill="#60c1dd"/>
      <path id="Trazado_100540-4" data-name="Trazado 100540" d="M1318.3,540.967a6,6,0,0,1-4-10.487l1.7-1.519h-20.217a6,6,0,1,1,0-12.006H1316l-1.708-1.519a6.008,6.008,0,1,1,8-8.968l13.506,12.006a6,6,0,0,1,.5,8.474,5.893,5.893,0,0,1-.5.5l-13.506,12.005A5.978,5.978,0,0,1,1318.3,540.967Zm-22.51-21.01a3,3,0,1,0,0,6h24.161a1.5,1.5,0,0,1,1,2.623l-4.649,4.139a3,3,0,0,0-.246,4.237l.009.01a3.118,3.118,0,0,0,4.241.24L1333.8,525.2a3.017,3.017,0,0,0,.215-4.26c-.068-.075-.14-.147-.215-.215L1320.3,508.723a3,3,0,0,0-4.007,4.469l4.652,4.142a1.5,1.5,0,0,1-1,2.623Z" transform="translate(-1289.782 -504.944)" fill="#3b4454"/>
    </g>
  </g>
</svg>
