<svg xmlns="http://www.w3.org/2000/svg" width="240" height="241.792" viewBox="0 0 240 241.792">
  <g id="Grupo_91697" data-name="Grupo 91697" transform="translate(-950 -5691.663)">
    <g id="CF1_paso_copia" data-name="CF1_paso copia" transform="translate(950 5691.663)">
      <rect id="Rectángulo_35523" data-name="Rectángulo 35523" width="166.54" height="166.54" rx="14.9" transform="translate(2.234 124.03) rotate(-45)" fill="#bfe6f1"/>
      <rect id="Rectángulo_35524" data-name="Rectángulo 35524" width="240" height="240" fill="none"/>
      <g id="Grupo_89511" data-name="Grupo 89511">
        <g id="Grupo_89503" data-name="Grupo 89503">
          <g id="Grupo_89496" data-name="Grupo 89496">
            <path id="Trazado_112936" data-name="Trazado 112936" d="M87.35,53.11a1.81,1.81,0,0,1-.73-3c-.92-.51-.66-2,.06-2.72a14.537,14.537,0,0,0,2.31-2.12,2.15,2.15,0,0,1-2.57-1.87,1.76,1.76,0,0,1-1.12-3.22c-1-.08-.9-1.71-.08-2.26s1.91-.5,2.8-.92a11.61,11.61,0,0,1,6.17-3.62l-4-3a2.35,2.35,0,0,1-.81-.85c-.35-.8.28-1.69.94-2.25a9.4,9.4,0,0,1,5-2.19c.59-.07,1.35,0,1.53.58a8.38,8.38,0,0,1,4.08-.45,3.19,3.19,0,0,1,2.17.66,6.18,6.18,0,0,0-1.43-1.8,2.73,2.73,0,0,1-.93-2c.07-.77,1-1.44,1.64-1-.71-.34-.62-1.49,0-2a3.55,3.55,0,0,1,2.25-.56c.55,0,1.25.08,1.4.61a1.55,1.55,0,0,1,2.81-.23,1.91,1.91,0,0,1,2.75.21A2.44,2.44,0,0,1,115,20.36l-2.14-3.59c-.4-.67-.47-1.94.32-1.86-1.13,0-1.77-1.54-1.23-2.52a2.94,2.94,0,0,1,2.94-1.22l1,1.42a2.23,2.23,0,0,1,3.41,2.48,1.14,1.14,0,0,1,1.69.34,3.23,3.23,0,0,1,.32,1.93,1.91,1.91,0,0,1,3,1.57,6.24,6.24,0,0,1,3.23-.67,2.19,2.19,0,0,1,2.85-3.11,2.17,2.17,0,0,1,2.79-1.76c.35-1.31,2.07-2.27,3.11-1.41s.5,2.62-.16,3.85-1.44,2.67-2.15,4l7-3.75a1.22,1.22,0,0,1,.7-.21c.34,0,.58.35.88.5a9,9,0,0,0,1.39.25c1.23.37,1.21,2.26.37,3.24s-2.14,1.44-3.1,2.3l3.11.59a3.18,3.18,0,0,1,4.1-2.15c.42-1.15,2-1.29,3.18-1.24a4.49,4.49,0,0,1,3.08.91,3.06,3.06,0,0,1,0,3.85,8.91,8.91,0,0,1-3.4,2.41c.21.93,1.42,1.21,2.36,1.07a5.92,5.92,0,0,1,2.82-.17c1.21.46,1.72,2,2.94,2.47a4.67,4.67,0,0,1,1.11.37,2.16,2.16,0,0,1,.75,1.44l.45,2a2.37,2.37,0,0,1,.09,1c-.22,1.1-1.76,1.33-2.79.91s-1.93-1.24-3-1.41a8.45,8.45,0,0,1,3.81,2.95c.82,1.41.49,3.61-1.05,4.16s-3.09-.79-4.22-2-2.75-2.49-4.26-1.8" fill="#3b4454"/>
            <path id="Trazado_112937" data-name="Trazado 112937" d="M89.59,52.14a2,2,0,0,0-3,1.74A4.16,4.16,0,0,0,85,61.07c.92.78,2.74.81,2.93-.38a3.27,3.27,0,0,0,2.3,2,3.15,3.15,0,0,0,1.27,4.45,3.34,3.34,0,0,0,.58,5.54,2.563,2.563,0,1,0,4.68,2.09,5.41,5.41,0,0,0,1.7,2.56,1.89,1.89,0,0,0,2.71-.46,3.51,3.51,0,0,0,5,2.11,2.27,2.27,0,1,0,4.47.79l5.87.45a21.07,21.07,0,0,0,3.89,0,10.45,10.45,0,0,0,4.64-1.68,2.48,2.48,0,0,1,3.19-.28A9.49,9.49,0,0,0,137.46,77a4.6,4.6,0,0,1,1.27-.84,4.11,4.11,0,0,1,1.75-.09,17.3,17.3,0,0,0,4.31-.25A4.54,4.54,0,0,0,148,74.07c.66-1,.14-2.81-1.09-2.89a2.66,2.66,0,0,1,.84-2.17,1.61,1.61,0,0,1,2.18.09,1.16,1.16,0,0,1-.69,1.83c1.24,1,3.41-.08,3.58-1.69A3.16,3.16,0,0,0,149.86,66a7.36,7.36,0,0,0,.4-3.54,2.62,2.62,0,0,0,3.51.71,4.54,4.54,0,0,0,2.73,2.34,2.69,2.69,0,0,0,3.11-1.37A1.94,1.94,0,0,0,158,61.51,2.33,2.33,0,0,0,156.22,58a3.63,3.63,0,0,0-1.87-4,1.9,1.9,0,0,0,2.78-.81c.65,1.24,2.49,1.11,3.75.51a2.55,2.55,0,0,0,1.81-2.62,2.89,2.89,0,0,0-.9-1.75,7.08,7.08,0,0,0-4.31-1.47,19,19,0,0,1-1.3-6,3.61,3.61,0,0,0,3.92-2.6L151.61,34s-19.65-3-20.35-3S89.48,52.07,89.48,52.07a2.34,2.34,0,0,1-3.5-.64,3.8,3.8,0,0,1,.33-3.9,11.41,11.41,0,0,1,3-2.79,5.53,5.53,0,0,1-3.69-1.17,2.08,2.08,0,0,1-.56-2.27c.47-1.13,1.78-1,2.62-1.7a4.8,4.8,0,0,0,1.08-1.5" fill="#3b4454"/>
          </g>
          <g id="Grupo_89500" data-name="Grupo 89500">
            <path id="Trazado_112938" data-name="Trazado 112938" d="M139.65,96.28c0,.37-5.88-4.53-5.88-4.53v-7.7s8.95-1.55,10.73-13.27c.89-5.82.53-15.36,0-23.16-.49-7-5.2-15.6-12.19-14.81L110.5,38.48a4.11,4.11,0,0,0-3.65,4.2l2.23,47.09L104,92.35l6.18,11.91,16.24,2.85,13.86,1.11-.81-7.33.18-4.61Z" fill="#d18771"/>
            <g id="Grupo_89499" data-name="Grupo 89499">
              <g id="Grupo_89498" data-name="Grupo 89498">
                <g id="Grupo_89497" data-name="Grupo 89497">
                  <path id="Trazado_112939" data-name="Trazado 112939" d="M141,54.89a1.49,1.49,0,0,1-1.43,1.52A1.43,1.43,0,0,1,138,55.07a1.5,1.5,0,0,1,1.43-1.53A1.43,1.43,0,0,1,141,54.89Z" fill="#3b4454"/>
                  <path id="Trazado_112940" data-name="Trazado 112940" d="M142.45,52.65c-.18.2-1.33-.64-2.94-.62s-2.79.83-3,.63.1-.44.61-.82a4.1,4.1,0,0,1,2.38-.75,4,4,0,0,1,2.34.74C142.37,52.21,142.54,52.56,142.45,52.65Z" fill="#3b4454"/>
                </g>
                <path id="Trazado_112941" data-name="Trazado 112941" d="M126.49,55.73c-.18.2-1.33-.63-2.94-.62s-2.79.83-3,.64.1-.45.62-.82a4,4,0,0,1,2.37-.75,3.92,3.92,0,0,1,2.34.73C126.41,55.29,126.58,55.64,126.49,55.73Z" fill="#3b4454"/>
                <path id="Trazado_112942" data-name="Trazado 112942" d="M132.52,65a10.94,10.94,0,0,1,2.62-.49c.41,0,.8-.13.87-.41a2.08,2.08,0,0,0-.28-1.22c-.4-1-.81-2-1.24-3.13-1.73-4.46-3-8.13-2.8-8.19s1.72,3.49,3.45,8c.41,1.1.81,2.14,1.19,3.15a2.33,2.33,0,0,1,.22,1.61,1,1,0,0,1-.67.61,2.74,2.74,0,0,1-.7.1,10,10,0,0,1-2.66-.03Z" fill="#3b4454"/>
                <path id="Trazado_112943" data-name="Trazado 112943" d="M133.77,84.1a29.75,29.75,0,0,1-15.7-4.1s4,8.13,15.7,7Z" fill="#b94b25"/>
                <path id="Trazado_112944" data-name="Trazado 112944" d="M132.71,68.64a4.07,4.07,0,0,0-3.35-1.78,2.434,2.434,0,0,0-2.08,3.83,2.53,2.53,0,0,0,2.68,1,5.86,5.86,0,0,0,2.4-1.51,1.84,1.84,0,0,0,.52-.62.84.84,0,0,0-.08-.84" fill="#b94b25"/>
                <path id="Trazado_112945" data-name="Trazado 112945" d="M127.78,66.14c.26,0,.27,1.74,1.78,3s3.38,1,3.39,1.28-.41.34-1.2.37a4.36,4.36,0,0,1-2.83-1,3.75,3.75,0,0,1-1.38-2.49C127.46,66.57,127.66,66.13,127.78,66.14Z" fill="#3b4454"/>
              </g>
              <path id="Trazado_112946" data-name="Trazado 112946" d="M127.29,51.19c-.16.44-1.77.24-3.67.48s-3.42.77-3.67.38c-.12-.19.15-.6.76-1a6.38,6.38,0,0,1,5.59-.66C127,50.64,127.35,51,127.29,51.19Z" fill="#3b4454"/>
              <path id="Trazado_112947" data-name="Trazado 112947" d="M141.82,48c-.28.37-1.39,0-2.73,0s-2.47.26-2.73-.12c-.12-.19.06-.56.55-.91a4,4,0,0,1,4.41.11C141.79,47.42,142,47.8,141.82,48Z" fill="#3b4454"/>
            </g>
          </g>
          <path id="Trazado_112948" data-name="Trazado 112948" d="M106.79,54.73a2,2,0,0,0,.56,2.24,1.34,1.34,0,0,0,1.91-.53c.51.69,1.69,0,1.53-.91.63.36,1.46-.49,1.26-1.29.73.29,1.17-.9,1.56-1.69a12.281,12.281,0,0,1,.75-1.21,8.16,8.16,0,0,0,1.22-4.41c1-1.09,1.2-2.77,1.4-4.33l.36-2.91c.19-.22.37-.45.55-.67a1.57,1.57,0,0,0,1,1.51,3.43,3.43,0,0,0,1.77,0l1.74-.33,1.09.32a4.3,4.3,0,0,0,.31,2.83,2.75,2.75,0,0,0,1,1.59A.82.82,0,0,0,126,44a.9.9,0,0,0,1.41-.21,3,3,0,0,0,.4-1.8,7.65,7.65,0,0,0-1.38-4.23l3,2.85a1.38,1.38,0,0,0,.73.46A.81.81,0,0,0,131,42a2.1,2.1,0,0,0,1.13-.76c.74-.77,1.52-2.08.87-3a.65.65,0,0,0,.29-1L136.74,40c-.35-.2-.73.33-.65.78a1.81,1.81,0,0,0,.71,1,2.6,2.6,0,0,0-.4,1.62c-.62-.55-1.55.47-1.36,1.36a1.94,1.94,0,0,0,1.81,1.42,1.35,1.35,0,0,0,1.54-1c.75.16,1.48-.87,1.22-1.72.54.36,1-.61,1-1.35a10.39,10.39,0,0,0-.58-4c0,.2.19.36.33.25a.29.29,0,0,0,0-.45l1.92,4.73a11.06,11.06,0,0,1,1,3.93c0,.56.07,1.33.54,1.39a.75.75,0,0,0,.38-.1,7.1,7.1,0,0,0,3.11-3.59,5.5,5.5,0,0,0,.48-1.65,23.232,23.232,0,0,0-.47-3.59,12.171,12.171,0,0,0-.1-1.6A4.82,4.82,0,0,0,146,35.32c-1.84-2.15-3.78-4.37-6.26-5.25-1.51-.53-3.13-.52-4.65-1a27.7,27.7,0,0,1-2.72-1.26,23.16,23.16,0,0,0-11.88-1.67,19,19,0,0,0-6.6,1.53,23.18,23.18,0,0,0-6.2,4.73,35.11,35.11,0,0,0-7.29,9.77,17.2,17.2,0,0,0-1.76,9.66c.48,3.31,2.53,6.42,5.3,7.11l1.09-1.25" fill="#3b4454"/>
          <g id="Grupo_89501" data-name="Grupo 89501">
            <path id="Trazado_112949" data-name="Trazado 112949" d="M110,57c-.16-.07-6.52-2.09-6.46,4.44s6.6,5.13,6.61,4.94S110,57,110,57Z" fill="#d18771"/>
            <path id="Trazado_112950" data-name="Trazado 112950" d="M108.13,63.89a2.688,2.688,0,0,1-.31.17,1.14,1.14,0,0,1-.85,0,2.82,2.82,0,0,1-1.32-2.52,3.74,3.74,0,0,1,.3-1.63,1.33,1.33,0,0,1,.85-.88.57.57,0,0,1,.67.31c.09.18,0,.31.09.32s.14-.11.08-.38a.73.73,0,0,0-.26-.41.93.93,0,0,0-.63-.16,1.61,1.61,0,0,0-1.18,1,4,4,0,0,0-.38,1.82,3,3,0,0,0,1.69,2.81,1.23,1.23,0,0,0,1-.19C108.12,64.05,108.15,63.91,108.13,63.89Z" fill="#b94b25"/>
          </g>
          <g id="Grupo_89502" data-name="Grupo 89502">
            <path id="Trazado_112951" data-name="Trazado 112951" d="M131.35,55a15.711,15.711,0,0,0-.3-1.88,7.7,7.7,0,0,0-2.82-4.19A7.59,7.59,0,0,0,125,47.49a7.67,7.67,0,0,0-4,.34,7,7,0,0,0-1.92,1,6.88,6.88,0,0,0-1.61,1.62,7.55,7.55,0,0,0,0,9A7.74,7.74,0,0,0,121,62.12a7.63,7.63,0,0,0,7.21-1.07,7.76,7.76,0,0,0,2.82-4.2,15.771,15.771,0,0,0,.3-1.87,3,3,0,0,1,0,.49,3.4,3.4,0,0,1,0,.6,4.7,4.7,0,0,1-.15.81,7.68,7.68,0,0,1-2.8,4.33,7.8,7.8,0,0,1-7.44,1.16,7.35,7.35,0,0,1-2-1.06,7.56,7.56,0,0,1-1.67-1.67,7.84,7.84,0,0,1,0-9.33,7.56,7.56,0,0,1,1.67-1.67,7.35,7.35,0,0,1,2-1.06,7.91,7.91,0,0,1,4.14-.33,7.78,7.78,0,0,1,6.1,5.82,4.7,4.7,0,0,1,.15.81,3.45,3.45,0,0,1,0,.6,3.15,3.15,0,0,1,.02.52Z" fill="#30616f"/>
            <path id="Trazado_112952" data-name="Trazado 112952" d="M149.78,55a15.708,15.708,0,0,0-.3-1.88,7.76,7.76,0,0,0-2.82-4.19,7.59,7.59,0,0,0-3.22-1.42,7.7,7.7,0,0,0-4,.34,7.33,7.33,0,0,0-1.92,1,7,7,0,0,0-1.6,1.62,7.55,7.55,0,0,0,0,9,7.19,7.19,0,0,0,1.6,1.61,7.33,7.33,0,0,0,1.92,1,7.65,7.65,0,0,0,7.22-1.07,7.81,7.81,0,0,0,2.82-4.2,15.771,15.771,0,0,0,.3-1.87,3,3,0,0,1,0,.49,3.529,3.529,0,0,1-.05.6,5.747,5.747,0,0,1-.14.81,7.792,7.792,0,0,1-10.24,5.49,7.56,7.56,0,0,1-2-1.06,7.78,7.78,0,0,1-1.67-1.67,7.88,7.88,0,0,1,0-9.33,8,8,0,0,1,1.67-1.67,7.559,7.559,0,0,1,2-1.06,7.91,7.91,0,0,1,4.14-.33,7.81,7.81,0,0,1,6.1,5.82,5.752,5.752,0,0,1,.14.81,3.61,3.61,0,0,1,.05.6,3.15,3.15,0,0,1,0,.56Z" fill="#30616f"/>
            <path id="Trazado_112953" data-name="Trazado 112953" d="M134.63,53.16c0,.08-.78-.23-1.75-.25s-1.73.21-1.76.13a2.61,2.61,0,0,1,1.77-.43,2.68,2.68,0,0,1,1.74.55Z" fill="#30616f"/>
            <path id="Trazado_112954" data-name="Trazado 112954" d="M115.81,55.74a12.31,12.31,0,0,1-3.26.83,12.7,12.7,0,0,1-3.36.24c0-.08,1.49-.23,3.31-.53S115.79,55.66,115.81,55.74Z" fill="#30616f"/>
            <path id="Trazado_112955" data-name="Trazado 112955" d="M130.53,53.76a4.12,4.12,0,0,1-.07,1.46,9.37,9.37,0,0,1-1.29,3.29A7.94,7.94,0,0,1,126.71,61a1.85,1.85,0,0,1-1.43.32,3.65,3.65,0,0,0,1.32-.5,8.81,8.81,0,0,0,2.32-2.51,10.32,10.32,0,0,0,1.33-3.17C130.45,54.31,130.48,53.75,130.53,53.76Z" fill="#fff"/>
            <path id="Trazado_112956" data-name="Trazado 112956" d="M147.39,58.73a8.64,8.64,0,0,1,.62-1.22,6.241,6.241,0,0,0,.52-1.36,4.7,4.7,0,0,0,0-1.76,9.05,9.05,0,0,0-.92-3.11,11.719,11.719,0,0,0-.76-1.13,1.274,1.274,0,0,1,.3.22,4,4,0,0,1,.64.8,8.24,8.24,0,0,1,1,3.18,4.8,4.8,0,0,1-.06,1.86,5.08,5.08,0,0,1-.6,1.4,5,5,0,0,1-.74,1.12Z" fill="#fff"/>
          </g>
          <path id="Trazado_112957" data-name="Trazado 112957" d="M105.38,66.13a2.947,2.947,0,0,0-.43.27,2.15,2.15,0,0,0-.74,1.09,1.83,1.83,0,0,0,.39,1.82,2.18,2.18,0,0,0,2.17.64A2.35,2.35,0,0,0,108,66.38a2.78,2.78,0,0,0-1-.91,3.76,3.76,0,0,1-.46-.24,1.22,1.22,0,0,1,.51.13,2.72,2.72,0,0,1,1.11.9,2.5,2.5,0,0,1,.46,2.06,2.59,2.59,0,0,1-1.72,1.92,2.47,2.47,0,0,1-2.47-.74,2.14,2.14,0,0,1-.49-1.06,2.21,2.21,0,0,1,.11-1,2.07,2.07,0,0,1,.88-1.12.91.91,0,0,1,.45-.19Z" fill="#30616f"/>
          <path id="Trazado_112958" data-name="Trazado 112958" d="M132.47,36.24a1.61,1.61,0,0,0,.44-.84,1.15,1.15,0,0,0-.29-1,1.22,1.22,0,0,0-1.25-.32l-.27.09.11-.27a1.226,1.226,0,0,0-1.96-1.39l-.22-.2a.42.42,0,0,0,.09-.16.72.72,0,0,0-.1-.62.81.81,0,0,0-.53-.33,1.34,1.34,0,0,0-.66,0,1.88,1.88,0,0,1-.73.16c-.31-.06-.45-.29-.61-.39a2.29,2.29,0,0,0-.51-.32,2.71,2.71,0,0,0-1-.24,2.87,2.87,0,0,0-1.52.37c-.33.19-.47.34-.49.32s.11-.19.43-.42a2.82,2.82,0,0,1,1.59-.48,2.86,2.86,0,0,1,1.14.23,3,3,0,0,1,.57.33c.19.14.33.32.49.33a1.83,1.83,0,0,0,.61-.17,1.78,1.78,0,0,1,.8,0,1.14,1.14,0,0,1,.71.46,1,1,0,0,1,.14.87.72.72,0,0,1-.14.26l-.22-.2a1.5,1.5,0,0,1,2.4,1.71l-.15-.17a1.44,1.44,0,0,1,1.48.42,1.27,1.27,0,0,1,.28,1.15,1.23,1.23,0,0,1-.36.66C132.56,36.21,132.48,36.25,132.47,36.24Z" fill="#30616f"/>
          <path id="Trazado_112959" data-name="Trazado 112959" d="M139.76,38.13a1.86,1.86,0,0,0,.56-.81,1.45,1.45,0,0,0-.07-1.11,1.49,1.49,0,0,0-1.14-.83h-.21l.14-.16a1.84,1.84,0,0,0,.5-1.6,1,1,0,0,0-.59-.66.77.77,0,0,0-.86.12l-.84.88.61-1a1.5,1.5,0,0,0,.08-1.28,1.36,1.36,0,0,0-1-.86,1.46,1.46,0,0,0-1,.09l-.35.17.15-.35a1,1,0,0,0-.82-1.16,2.49,2.49,0,0,0-1.55.39l-.28.15.09-.3a1.08,1.08,0,0,0-.36-1.05,2,2,0,0,0-1-.44,5.21,5.21,0,0,0-1.87,0,8,8,0,0,0-1.58.57,1.27,1.27,0,0,1,.37-.26,4.63,4.63,0,0,1,1.17-.46,5,5,0,0,1,1.95-.11,2.2,2.2,0,0,1,1.13.48,1.31,1.31,0,0,1,.44,1.3l-.19-.15a2.74,2.74,0,0,1,1.72-.44,1.41,1.41,0,0,1,.86.52,1,1,0,0,1,.19,1l-.2-.19a1.75,1.75,0,0,1,1.17-.12,1.71,1.71,0,0,1,1.22,1.05,1.79,1.79,0,0,1-.11,1.52l-.23-.17a1.06,1.06,0,0,1,1.18-.17,1.24,1.24,0,0,1,.73.85,2,2,0,0,1-.59,1.81l-.06-.19a1.72,1.72,0,0,1,1.28,1,1.64,1.64,0,0,1,0,1.23,1.52,1.52,0,0,1-.4.61C139.86,38.11,139.77,38.14,139.76,38.13Z" fill="#30616f"/>
          <path id="Trazado_112960" data-name="Trazado 112960" d="M155.49,39.5a1,1,0,0,0-.38-.8,1.41,1.41,0,0,0-1-.36,4.47,4.47,0,0,0-1.4.33l-.16.06v-.17a1.26,1.26,0,0,0-1-1.23,3.66,3.66,0,0,0-2.08.33l-.92.34.79-.58a1,1,0,0,0-.08-1.49,2.37,2.37,0,0,0-1.83-.44h-.66l.48-.32a1.11,1.11,0,0,0-.13-1.76,1.68,1.68,0,0,0-1.87.18l-.61.47.41-.65a2.54,2.54,0,0,0,0-2.57,2.39,2.39,0,0,0-1.73-1.11A2.71,2.71,0,0,0,142,30c-.31.13-.45.24-.46.23s0,0,.09-.1a2.821,2.821,0,0,1,.33-.21,2.66,2.66,0,0,1,1.44-.26,2.53,2.53,0,0,1,1.9,1.15,2.75,2.75,0,0,1,.05,2.83l-.2-.17a1.94,1.94,0,0,1,2.2-.22,1.42,1.42,0,0,1,.63,1.07,1.25,1.25,0,0,1-.5,1.19l-.1-.27h.1a2.61,2.61,0,0,1,2.05.52,1.45,1.45,0,0,1,.44,1,1.08,1.08,0,0,1-.4,1l-.13-.24a3.82,3.82,0,0,1,2.24-.31,1.46,1.46,0,0,1,1.17,1.5l-.14-.12a4.35,4.35,0,0,1,1.47-.29,1.48,1.48,0,0,1,1.05.43,1.06,1.06,0,0,1,.33.64A1.106,1.106,0,0,1,155.49,39.5Z" fill="#30616f"/>
          <path id="Trazado_112961" data-name="Trazado 112961" d="M147.25,24.52a.987.987,0,0,1-.38.14,4.76,4.76,0,0,1-1.15.06,3.4,3.4,0,0,0-1.64.25,1,1,0,0,0-.58.71.78.78,0,0,0,.3.87l-.2.14c-.06-.38-.53-.62-.95-.87a4.9,4.9,0,0,0-1.37-.59,1.78,1.78,0,0,0-1.4.21,1.19,1.19,0,0,0-.61,1.09v.36l-.28-.24a3.26,3.26,0,0,0-1.92-.79,3.72,3.72,0,0,0-1.64.23,5,5,0,0,0-1.27.81,1.1,1.1,0,0,1,.25-.32,3.15,3.15,0,0,1,.95-.64,3.6,3.6,0,0,1,1.73-.31,3.41,3.41,0,0,1,2.08.81l-.22.12a1.44,1.44,0,0,1,.72-1.36,2.08,2.08,0,0,1,1.62-.26,5.2,5.2,0,0,1,1.46.63,6.288,6.288,0,0,1,.64.41,1.12,1.12,0,0,1,.44.67v.27l-.25-.13a1,1,0,0,1-.42-1.17,1.31,1.31,0,0,1,.72-.86,3.56,3.56,0,0,1,1.76-.21,6.21,6.21,0,0,0,1.12,0C147.11,24.55,147.25,24.51,147.25,24.52Z" fill="#30616f"/>
          <path id="Trazado_112962" data-name="Trazado 112962" d="M132.66,18.87a3,3,0,0,0-.77.11,2,2,0,0,0-.74.46,1.71,1.71,0,0,0-.47,1v.16l-.15-.05a1,1,0,0,0-1.08.61,2.84,2.84,0,0,0-.05,1.62l.08.58-.35-.48-.06-.07a1.25,1.25,0,0,0-1-.42,1.38,1.38,0,0,0-1,.42,2.25,2.25,0,0,0-.6,1.74,4,4,0,0,0,.33,1.27,2.24,2.24,0,0,1,.18.46,1.33,1.33,0,0,1-.28-.41,3.56,3.56,0,0,1-.43-1.3,2.38,2.38,0,0,1,.6-1.95,1.65,1.65,0,0,1,2.4,0l.07.1-.27.1a3.21,3.21,0,0,1,.1-1.79,1.21,1.21,0,0,1,1.41-.71l-.17.1A1.83,1.83,0,0,1,131,19.3a2,2,0,0,1,.84-.46,1.5,1.5,0,0,1,.61,0C132.6,18.83,132.66,18.86,132.66,18.87Z" fill="#30616f"/>
          <path id="Trazado_112963" data-name="Trazado 112963" d="M119.79,27.81a.93.93,0,0,1-.38-.09,2.41,2.41,0,0,1-.89-.63,2.58,2.58,0,0,1-.67-1.48,1.34,1.34,0,0,0-.2-.8c-.17-.21-.52-.34-.75-.68a1.5,1.5,0,0,1,.38-2v.22A4.79,4.79,0,0,1,116,20.61a1.87,1.87,0,0,1-.2-.8s.12.28.35.73a5.2,5.2,0,0,0,1.29,1.61l.14.12-.16.1a1.22,1.22,0,0,0-.28,1.6c.15.25.47.37.72.65a1.55,1.55,0,0,1,.25,1,2.45,2.45,0,0,0,.56,1.36,3.85,3.85,0,0,0,1.12.83Z" fill="#30616f"/>
          <path id="Trazado_112964" data-name="Trazado 112964" d="M116,30.4a.75.75,0,0,1-.24,0,2.79,2.79,0,0,1-.7-.06,4,4,0,0,1-2.18-1.24h.19a2.55,2.55,0,0,1-1.73.92,2.79,2.79,0,0,1-1.1-.13,1.65,1.65,0,0,1-.94-.74,2.389,2.389,0,0,1-.11-.42.67.67,0,0,0-.19-.28,1.76,1.76,0,0,0-.68-.3,2.13,2.13,0,0,1-.75-.31.82.82,0,0,1-.42-.73l.18.13a2.58,2.58,0,0,1-1.79.05,2.86,2.86,0,0,1-1.19-.74,2.47,2.47,0,0,1-.48-.76.94.94,0,0,1-.08-.31,4.26,4.26,0,0,0,.68.95,2.67,2.67,0,0,0,1.13.64,2.42,2.42,0,0,0,1.63-.07l.2-.08v.21a.6.6,0,0,0,.31.48,2,2,0,0,0,.68.26,2.07,2.07,0,0,1,.79.36.84.84,0,0,1,.28.41,1.06,1.06,0,0,0,.1.39,1.39,1.39,0,0,0,.77.58,2.34,2.34,0,0,0,1,.12,2.28,2.28,0,0,0,1.56-.78l.09-.12.1.11a4,4,0,0,0,2,1.26C115.66,30.38,116,30.36,116,30.4Z" fill="#30616f"/>
          <path id="Trazado_112965" data-name="Trazado 112965" d="M92.73,39.46v-.11a1.41,1.41,0,0,1,0-.3,3.2,3.2,0,0,1,.14-1.17,6.829,6.829,0,0,1,.79-1.66,6.191,6.191,0,0,1,.66-.93,1.71,1.71,0,0,1,.51-.4.79.79,0,0,1,.72,0l-.18.13a2,2,0,0,1,3.19-1.71l-.23.12a1.35,1.35,0,0,1,.54-1.11,1.29,1.29,0,0,1,1.26-.15,1.32,1.32,0,0,1,.58.44l-.27.1a.86.86,0,0,1,.32-.7,1.08,1.08,0,0,1,.66-.27,2.59,2.59,0,0,1,1.26.32h-.18a2.16,2.16,0,0,1,1.28-.89,3,3,0,0,1,1.44,0,7.62,7.62,0,0,1,2.23,1.11l-.16.13a.54.54,0,0,1,.06-.51.89.89,0,0,1,.37-.28,1.43,1.43,0,0,1,.78-.11,4.18,4.18,0,0,1,1.17.35,3.84,3.84,0,0,1,.67.39c.14.11.21.17.2.18a7.888,7.888,0,0,0-.91-.46,4.76,4.76,0,0,0-1.15-.3,1.4,1.4,0,0,0-.68.13c-.23.1-.42.31-.31.53l.16.32-.32-.19a7.21,7.21,0,0,0-2.16-1,2.68,2.68,0,0,0-1.32,0,1.81,1.81,0,0,0-1.1.77l-.07.11h-.11a2.47,2.47,0,0,0-1.13-.29.7.7,0,0,0-.7.65v.52l-.31-.42a1.057,1.057,0,0,0-1.45-.22,1.07,1.07,0,0,0-.43.86v.32l-.25-.21A1.69,1.69,0,0,0,95.54,35v.25l-.21-.13c-.32-.18-.7.07-.95.34a6.641,6.641,0,0,0-.65.88,6.91,6.91,0,0,0-.82,1.59,4.07,4.07,0,0,0-.18,1.53Z" fill="#30616f"/>
          <path id="Trazado_112966" data-name="Trazado 112966" d="M94.38,48.09a1.837,1.837,0,0,1-.15-.18,4.37,4.37,0,0,1-.35-.6,2.11,2.11,0,0,1-.23-1.08,1.47,1.47,0,0,1,.22-.67,1.14,1.14,0,0,1,.65-.5l-.06.16a1.39,1.39,0,0,1-.06-1.46,1.41,1.41,0,0,1,1.53-.65l-.14.21a1.1,1.1,0,0,1,0-1.31,1.63,1.63,0,0,1,1.25-.59h.66a.56.56,0,0,0,.41-.36,2.52,2.52,0,0,1,.38-.63,1.29,1.29,0,0,1,.7-.39,7.57,7.57,0,0,1,1.57,0,1.68,1.68,0,0,0,1.27-.37,6.086,6.086,0,0,0,.41-.57,1.44,1.44,0,0,1,.59-.45,1.52,1.52,0,0,1,1.38.07l-.17.18a1.15,1.15,0,0,1,.16-1.35,1.62,1.62,0,0,1,1.1-.55,5.22,5.22,0,0,1,1.93.24,6.58,6.58,0,0,1,1.16.46,1.78,1.78,0,0,1,.37.23,14.73,14.73,0,0,0-1.57-.54,5.09,5.09,0,0,0-1.86-.18,1.5,1.5,0,0,0-1,.48,1,1,0,0,0-.13,1.07l.32.46-.49-.28a1.3,1.3,0,0,0-1.14,0,1.24,1.24,0,0,0-.48.37,6.063,6.063,0,0,1-.42.6,1.62,1.62,0,0,1-.7.39,3.43,3.43,0,0,1-.78.07,7.58,7.58,0,0,0-1.51,0,1,1,0,0,0-.54.3,2.2,2.2,0,0,0-.34.57.84.84,0,0,1-.62.5,5.591,5.591,0,0,1-.7,0,1.36,1.36,0,0,0-1,.46.85.85,0,0,0-.06,1l.23.3-.37-.09a1.14,1.14,0,0,0-1.23,1.73l.08.13h-.14a1.13,1.13,0,0,0-.76,1,2,2,0,0,0,.18,1C94.22,47.8,94.4,48.08,94.38,48.09Z" fill="#30616f"/>
          <path id="Trazado_112967" data-name="Trazado 112967" d="M94.87,66.05a.71.71,0,0,1-.28-.09,2.19,2.19,0,0,1-.68-.54,2,2,0,0,1-.49-1.24,2.25,2.25,0,0,1,.6-1.65v.16a4.19,4.19,0,0,1-.77-1.47,1.68,1.68,0,0,1,.07-.94,1.24,1.24,0,0,1,.7-.74v.26a1.67,1.67,0,0,1-.73-1.53,1.85,1.85,0,0,1,.3-1,1.66,1.66,0,0,1,.76-.61c.28-.12.41-.25.42-.54a2.57,2.57,0,0,1,.2-.86A3,3,0,0,1,96,54.11c.4-.28.76-.56,1.11-.79a4.89,4.89,0,0,1,1.8-.85,1.92,1.92,0,0,1,.55,0h.18a2.961,2.961,0,0,0-.7.12,5.53,5.53,0,0,0-1.71.91l-1.08.82a2.77,2.77,0,0,0-1,1.09,2.17,2.17,0,0,0-.17.78.79.79,0,0,1-.16.48,1.23,1.23,0,0,1-.41.3,1.41,1.41,0,0,0-.9,1.32,1.43,1.43,0,0,0,.6,1.28l.25.16-.28.1a1.17,1.17,0,0,0-.6,1.34,3.91,3.91,0,0,0,.7,1.38l.06.09-.07.07A2.009,2.009,0,0,0,94,65.34,3.17,3.17,0,0,0,94.87,66.05Z" fill="#30616f"/>
          <path id="Trazado_112968" data-name="Trazado 112968" d="M104.1,58.38a1.38,1.38,0,0,1-.4-.09,3.42,3.42,0,0,1-1-.54,3.83,3.83,0,0,1-1.18-1.38,1.53,1.53,0,0,1-.2-1.13.75.75,0,0,1,.45-.5.62.62,0,0,1,.72.12l-.22.13a2,2,0,0,1-.2-1.13.89.89,0,0,1,.35-.56.83.83,0,0,1,.68-.1,1,1,0,0,0,.51.07c.1,0,.13-.17.11-.39a1.85,1.85,0,0,1,.5-1.25,2,2,0,0,1,2-.57l-.19.18a1.66,1.66,0,0,1,.31-1.63,1,1,0,0,1,.79-.25.75.75,0,0,1,.66.48h-.25a3.94,3.94,0,0,1,.51-2.15,4.05,4.05,0,0,1,1.1-1.3,3.24,3.24,0,0,1,1-.53,1.09,1.09,0,0,1,.37-.1,6,6,0,0,0-1.23.75,4.3,4.3,0,0,0-1,1.28,3.88,3.88,0,0,0-.43,2l.07,1.07-.32-1c-.11-.35-.73-.4-1-.11a1.4,1.4,0,0,0-.22,1.35l.07.27-.26-.09a1.64,1.64,0,0,0-1.69.5,1.48,1.48,0,0,0-.42,1,1.1,1.1,0,0,1,0,.35.47.47,0,0,1-.28.32,1.3,1.3,0,0,1-.68-.07.53.53,0,0,0-.45.05.67.67,0,0,0-.24.39,1.83,1.83,0,0,0,.17,1l.28.71-.5-.58c-.19-.23-.68,0-.74.28a1.39,1.39,0,0,0,.16,1,4,4,0,0,0,1.08,1.35,6,6,0,0,0,1.21.8Z" fill="#30616f"/>
          <path id="Trazado_112969" data-name="Trazado 112969" d="M118.89,40.18a2.12,2.12,0,0,1-.88-.35,2.42,2.42,0,0,1-.79-.68,1.64,1.64,0,0,1-.29-1.29,1.34,1.34,0,0,1,.12-.3l.07.2a1.4,1.4,0,0,1-.73-1,1.29,1.29,0,0,1,.19-1c.32-.47.7-.52.7-.49a1.808,1.808,0,0,0-.53.59,1.12,1.12,0,0,0-.1.8,1.17,1.17,0,0,0,.6.77l.13.06-.07.14a1.567,1.567,0,0,0-.09.23,1.39,1.39,0,0,0,.23,1.06,2.39,2.39,0,0,0,.68.67,4.71,4.71,0,0,1,.76.59Z" fill="#30616f"/>
          <path id="Trazado_112970" data-name="Trazado 112970" d="M125.75,37a1.82,1.82,0,0,0,.21-1.08,1.24,1.24,0,0,0-.7-.93,1.35,1.35,0,0,0-1.41.22l-.18.18v-.25a2.33,2.33,0,0,0-.34-.87,1.11,1.11,0,0,0-.73-.53c-.47-.06-1,.37-.87.76l-.28.06a2.27,2.27,0,0,0-.81-1.47,2.31,2.31,0,0,0-1.26-.49,3.2,3.2,0,0,0-1.24.23.864.864,0,0,1,.29-.2,2.29,2.29,0,0,1,2.36.27,2.45,2.45,0,0,1,.94,1.63l-.28.05a.82.82,0,0,1,.3-.85,1.11,1.11,0,0,1,.88-.28,1.37,1.37,0,0,1,1,.66,2.49,2.49,0,0,1,.36,1l-.23-.08a1.55,1.55,0,0,1,1.7-.23,1.4,1.4,0,0,1,.77,1.12,1.46,1.46,0,0,1-.17.86C125.85,37,125.76,37,125.75,37Z" fill="#30616f"/>
        </g>
        <g id="Grupo_89504" data-name="Grupo 89504">
          <path id="Trazado_112971" data-name="Trazado 112971" d="M57.57,207c-2.38-16.71,9.69-88.7,9.69-88.7S20.61,99,18.58,91.07c-1.43-5.63,25.9-7.59,25.9-7.59S74.24,83,83.25,87.89c0,0,3.68-2,5.7-1.19s1.78,1.19,1.78,1.19-1.9-3.83,2-2.45,4,2.45,4,2.45L109,87.61l.14,2.61c-2.25,2.49-8.53,9.36-8.53,9.36l-5.22,18.8-18.91,77.1" fill="#30616f"/>
          <path id="Trazado_112972" data-name="Trazado 112972" d="M133.77,91.75s8.5,1.61,11.24,3.65,9.29,8.39,9.29,8.39,4.58-.35,4.35,4.27c0,0,15.09,7,16.06,9.48s26,42.3,25.75,44.46-5.38,18.44-12.29,16.31-24.88-21.59-24.88-21.59,8,69.65-2.17,75.92l-13.23-9.42-2.38-56.4Z" fill="#30616f"/>
          <path id="Trazado_112973" data-name="Trazado 112973" d="M133.77,91.75c2.1,9.85-5.94,13.85-14.66,12s-10-14.4-10-14.4L98.84,92.88l-9.19,20.85-13.2,81.75,70.74,17.59L143,97.13Z" fill="#f5f5f5"/>
          <path id="Trazado_112974" data-name="Trazado 112974" d="M59.57,85.72S45.25,77.92,41,77.35c-7.29-1-22-2.22-25,5.17s11,18.51,29.56,19a17.58,17.58,0,0,1,8.34,2.14Z" fill="#30616f"/>
          <path id="Trazado_112975" data-name="Trazado 112975" d="M88.13,99.8a47.86,47.86,0,0,0-1.77-6.22,47.411,47.411,0,0,0-3.06-5.7,6.05,6.05,0,0,1,1.27,1.45,19.32,19.32,0,0,1,2.25,4.07A19.929,19.929,0,0,1,88,97.88,6.3,6.3,0,0,1,88.13,99.8Z" fill="#3b4454"/>
          <path id="Trazado_112976" data-name="Trazado 112976" d="M89.86,99.6A31.731,31.731,0,0,0,91,93.36a32.19,32.19,0,0,0-.63-6.3A5.49,5.49,0,0,1,91,88.83a15.92,15.92,0,0,1,.47,4.55,15.72,15.72,0,0,1-.83,4.5A5.52,5.52,0,0,1,89.86,99.6Z" fill="#3b4454"/>
          <path id="Trazado_112977" data-name="Trazado 112977" d="M91.16,108.64a3.71,3.71,0,0,1,.3-.89c.23-.57.57-1.38,1-2.37.86-2,2.09-4.73,3.46-7.74s2.56-5.8,4-7.53a8.86,8.86,0,0,1,1.87-1.8,2.6,2.6,0,0,1,.84-.45,13.11,13.11,0,0,0-2.43,2.46c-1.29,1.72-2.4,4.52-3.79,7.52s-2.65,5.73-3.59,7.68c-.48,1-.86,1.77-1.14,2.3A3.46,3.46,0,0,1,91.16,108.64Z" fill="#3b4454"/>
          <path id="Trazado_112978" data-name="Trazado 112978" d="M41.8,77.55l.4.14,1.13.48c1,.43,2.43,1.08,4.23,2a118.48,118.48,0,0,1,14.19,8.31l.16.11-.09.18L54.1,103.83,54,104l-.21-.09-.53-.25c-1.28-.56-2.47-1.24-3.73-1.69a8.42,8.42,0,0,0-3.81-.66,53.5,53.5,0,0,1-7.59,0,25.13,25.13,0,0,1-6.62-1.84A43.431,43.431,0,0,1,26.09,97a30.53,30.53,0,0,1-6.87-5.24A18.832,18.832,0,0,1,17.67,90a5,5,0,0,1-.48-.66,4.49,4.49,0,0,1,.56.6,23.211,23.211,0,0,0,1.61,1.7,31.84,31.84,0,0,0,6.9,5.06,40.511,40.511,0,0,0,5.39,2.49,25,25,0,0,0,6.52,1.77,54.19,54.19,0,0,0,7.52-.06c2.77-.25,5.31,1.27,7.77,2.39l.53.24-.32.11c2.79-5.41,5.42-10.54,7.76-15.07l.07.29a126.67,126.67,0,0,0-14.06-8.45c-1.77-.92-3.19-1.61-4.16-2.08l-1.11-.53A1.89,1.89,0,0,1,41.8,77.55Z" fill="#3b4454"/>
          <path id="Trazado_112979" data-name="Trazado 112979" d="M143.55,112.64a14.579,14.579,0,0,1-.23-3c-.06-1.84,0-4.38-.13-7.17-.05-1.4-.14-2.73-.29-3.92a9.51,9.51,0,0,0-.76-3.06,4.14,4.14,0,0,0-1.33-1.6c-.41-.29-.69-.38-.67-.41s.3,0,.77.25a4,4,0,0,1,1.54,1.6,9,9,0,0,1,.89,3.16,35.889,35.889,0,0,1,.34,4c.1,2.81,0,5.35,0,7.19A22.6,22.6,0,0,1,143.55,112.64Z" fill="#3b4454"/>
          <path id="Trazado_112980" data-name="Trazado 112980" d="M158.92,108.51a52.751,52.751,0,0,1-6.47-3.24,54.283,54.283,0,0,1-6.23-3.67,53.072,53.072,0,0,1,6.46,3.24,54.36,54.36,0,0,1,6.24,3.67Z" fill="#3b4454"/>
          <path id="Trazado_112981" data-name="Trazado 112981" d="M55.87,85.33a21.7,21.7,0,0,0-2.46,1.21,11.75,11.75,0,0,0-4.19,4.93,17.12,17.12,0,0,0-1.39,6.41c0,1.69.05,2.75,0,2.76a2.38,2.38,0,0,1-.16-.73,15.62,15.62,0,0,1-.15-2,15.42,15.42,0,0,1,1.29-6.6,11.17,11.17,0,0,1,4.45-5,8.05,8.05,0,0,1,1.9-.8A2,2,0,0,1,55.87,85.33Z" fill="#3b4454"/>
          <path id="Trazado_112982" data-name="Trazado 112982" d="M52.43,97.53a4.71,4.71,0,0,1-2.51-.43,4.77,4.77,0,0,1-2.21-1.28,11.819,11.819,0,0,1,2.37.82,11.13,11.13,0,0,1,2.35.89Z" fill="#3b4454"/>
          <path id="Trazado_112983" data-name="Trazado 112983" d="M53.08,94.42a6.24,6.24,0,0,1-2.47-.76,5.75,5.75,0,0,1-2.2-1.33,8.25,8.25,0,0,1,2.4.89,8.15,8.15,0,0,1,2.27,1.2Z" fill="#3b4454"/>
          <path id="Trazado_112984" data-name="Trazado 112984" d="M54.54,91.53a5.87,5.87,0,0,1-2.2-1,6.16,6.16,0,0,1-2-1.37,6,6,0,0,1,2.21,1C53.73,90.8,54.61,91.41,54.54,91.53Z" fill="#3b4454"/>
          <path id="Trazado_112985" data-name="Trazado 112985" d="M57.1,89.54c-.12.08-.82-.83-1.94-1.66S53,86.62,53,86.49a3.92,3.92,0,0,1,2.42,1A4,4,0,0,1,57.1,89.54Z" fill="#3b4454"/>
          <path id="Trazado_112986" data-name="Trazado 112986" d="M135.77,93.73s-.14.61-.35,1.72-.38,2.74-.87,4.72a9.12,9.12,0,0,1-1.37,3.07,7.9,7.9,0,0,1-3,2.44,15.764,15.764,0,0,1-21.05-7.64,15.29,15.29,0,0,1-1.33-4.62c-.06-.57-.09-1-.09-1.31a1.38,1.38,0,0,1,0-.46c.05,0,.06.63.24,1.74a16.79,16.79,0,0,0,1.47,4.5,16,16,0,0,0,4.35,5.44A15.72,15.72,0,0,0,130,105.28a7.56,7.56,0,0,0,2.87-2.28,9.09,9.09,0,0,0,1.37-2.92c.52-1.93.72-3.57,1-4.67.14-.55.26-1,.36-1.26A1.986,1.986,0,0,1,135.77,93.73Z" fill="#3b4454"/>
        </g>
        <g id="Grupo_89510" data-name="Grupo 89510">
          <g id="Grupo_89506" data-name="Grupo 89506">
            <g id="Grupo_89505" data-name="Grupo 89505">
              <path id="Trazado_112987" data-name="Trazado 112987" d="M27.39,110.07H190.5a13,13,0,0,1,13,13v92.55a13,13,0,0,1-13,13H27.39a12,12,0,0,1-12-12v-94.6a12,12,0,0,1,12-12Z" transform="translate(13.99 -8.26) rotate(4.62)" fill="#f4dcdc"/>
              <path id="Trazado_112988" data-name="Trazado 112988" d="M175.15,158.23c0,.13-25.77-1.77-57.54-4.24s-57.52-4.6-57.51-4.73,25.77,1.76,57.55,4.24S175.17,158.09,175.15,158.23Z" fill="#fff"/>
            </g>
            <path id="Trazado_112989" data-name="Trazado 112989" d="M64.56,116.88c0,.14-5.78-.42-12.88-1.24s-12.84-1.6-12.83-1.73,5.79.42,12.89,1.24S64.58,116.75,64.56,116.88Z" fill="#fff"/>
          </g>
          <g id="Grupo_89507" data-name="Grupo 89507">
            <path id="Trazado_112990" data-name="Trazado 112990" d="M210.37,156v-3.22a4,4,0,0,0-4.4-3.53l-6.36.63L196,152.11a1.88,1.88,0,0,0,1.85,2.09L193,156a1.8,1.8,0,0,0,1.92,2.39l-2,1.07a2.43,2.43,0,0,0,2.85,2.77s-1.46,1.47,1.85,2.24a24.321,24.321,0,0,0,4.36.76l2,2.62-.19,2.37s3.17.36,3.78-.89a11.26,11.26,0,0,0,.62-3.79,2.53,2.53,0,0,0,2.23-2.69,3.94,3.94,0,0,0,.66-4.77,19.626,19.626,0,0,1-.71-2.08Z" fill="#d18771"/>
            <path id="Trazado_112991" data-name="Trazado 112991" d="M207.73,165c-.07,0-.42-.67-1.15-1.66a6.38,6.38,0,0,0-1.53-1.48,4.41,4.41,0,0,0-2.41-.75c-.92,0-1.84.2-2.67.26a17.13,17.13,0,0,0-2.15.36,12.459,12.459,0,0,1-2,.45,6.06,6.06,0,0,1,1.89-.78,13.109,13.109,0,0,1,2.19-.48c.83-.09,1.71-.27,2.72-.3a4.57,4.57,0,0,1,2.66.87,6,6,0,0,1,1.56,1.65,5.12,5.12,0,0,1,.89,1.86Z" fill="#b94b25"/>
            <path id="Trazado_112992" data-name="Trazado 112992" d="M209.79,161.42a15.168,15.168,0,0,1-1.63-2.07,13.541,13.541,0,0,0-1.75-2.17,2.59,2.59,0,0,0-1.39-.64,5.31,5.31,0,0,0-1.71.12c-2.39.59-4.57,1.15-6.15,1.5a14,14,0,0,1-2.58.49,14.552,14.552,0,0,1,2.49-.82c1.57-.45,3.73-1.06,6.14-1.65a5.41,5.41,0,0,1,1.88-.11,3,3,0,0,1,1.61.77,11.839,11.839,0,0,1,1.75,2.32,13.429,13.429,0,0,1,1.34,2.26Z" fill="#b94b25"/>
            <path id="Trazado_112993" data-name="Trazado 112993" d="M209.52,155.37a4.09,4.09,0,0,1-1.59-1.22,6.53,6.53,0,0,0-1.62-1.29,3.84,3.84,0,0,0-2.44-.14,52.288,52.288,0,0,1-6.58,1.59,8.32,8.32,0,0,1,1.86-.71c1.18-.37,2.79-.91,4.63-1.36a4.09,4.09,0,0,1,2.73.22,6,6,0,0,1,1.67,1.45C209,154.86,209.55,155.31,209.52,155.37Z" fill="#b94b25"/>
          </g>
          <g id="Grupo_89509" data-name="Grupo 89509">
            <g id="Grupo_89508" data-name="Grupo 89508">
              <path id="Trazado_112994" data-name="Trazado 112994" d="M52.51,98l4.33,1.54s2.89,9.61,4.43,9.81,3.46,2.11,5,.38c0,0,2.21,1.73,3.46-.19,0,0,4.62.86,5.1-.48l.48-1.35s7.5,9.43,9,9.43,1.92-.87,1.35-2-8-13.28-9.72-15.3-9.48-11.53-16.6-11.53c0,0-5.09,2.31-6.34,5.87S52.51,98,52.51,98Z" fill="#d18771"/>
              <path id="Trazado_112995" data-name="Trazado 112995" d="M60.65,88A25.24,25.24,0,0,0,58,89.13,10.35,10.35,0,0,0,52.77,101a23.44,23.44,0,0,0,1,2.74,3.426,3.426,0,0,1-.48-.64,8.8,8.8,0,0,1-.87-2A10.18,10.18,0,0,1,57.8,88.83a8.8,8.8,0,0,1,2.06-.72,2.25,2.25,0,0,1,.79-.11Z" fill="#3b4454"/>
            </g>
            <path id="Trazado_112996" data-name="Trazado 112996" d="M73.73,105a6.15,6.15,0,0,1,1,1.16c.59.75,1.38,1.78,2.25,2.93l2.2,3a7.369,7.369,0,0,1,.86,1.27c-.13.12-1.73-1.63-3.45-3.94S73.59,105.1,73.73,105Z" fill="#b94b25"/>
            <path id="Trazado_112997" data-name="Trazado 112997" d="M68.78,108.27c.11-.08.43.16.72.53s.43.75.32.83-.43-.16-.71-.53S68.68,108.35,68.78,108.27Z" fill="#b94b25"/>
            <path id="Trazado_112998" data-name="Trazado 112998" d="M65.29,109.06a.645.645,0,0,1,.44.32c.14.2.23.42.14.53s-.36,0-.54-.25S65.16,109.1,65.29,109.06Z" fill="#b94b25"/>
            <path id="Trazado_112999" data-name="Trazado 112999" d="M76.21,101.83c.07,0,.17.15.17.44a1.392,1.392,0,0,1-1.57,1.31c-.29,0-.43-.18-.41-.24a2.44,2.44,0,0,0,1.17-.45C76.07,102.44,76.08,101.85,76.21,101.83Z" fill="#b94b25"/>
            <path id="Trazado_113000" data-name="Trazado 113000" d="M71.47,105.5c.06,0,.07.21,0,.47a1.77,1.77,0,0,1-.8.78,1.73,1.73,0,0,1-1.1.15c-.28-.07-.42-.19-.4-.25a4.542,4.542,0,0,0,1.29-.34C71.1,105.97,71.34,105.46,71.47,105.5Z" fill="#b94b25"/>
          </g>
        </g>
      </g>
      <g id="Grupo_89518" data-name="Grupo 89518">
        <g id="Grupo_89512" data-name="Grupo 89512">
          <path id="Trazado_113001" data-name="Trazado 113001" d="M162.74,149.18l-.15-.07a21.46,21.46,0,0,0-5.17-1.7,11.34,11.34,0,0,0-5.16.48c-1.07.34-1.47.63-3.15,1.35h0a32.616,32.616,0,0,0-3.08-1.51,11.16,11.16,0,0,0-5.13-.76,21.65,21.65,0,0,0-5.25,1.42l-.16.06a13.09,13.09,0,0,0,5.69,2.67,9.628,9.628,0,0,0,1.61.14,10,10,0,0,0-2.35,2.2,14.41,14.41,0,0,0-2.51,7l.19-.06a22.361,22.361,0,0,0,5.78-2.63,9.45,9.45,0,0,0,1.43-1.23,2.725,2.725,0,0,0,.06.7A26.09,26.09,0,0,0,149,168.06c.87-2.24,2.75-6.85,3.12-9.94.06-.46.1-.92.13-1.38a9.108,9.108,0,0,0,1.09,1,14.27,14.27,0,0,0,7,2.51l-.06-.19a22.2,22.2,0,0,0-2.63-5.78,10.28,10.28,0,0,0-2.83-2.71,9.84,9.84,0,0,0,2.17,0,13.23,13.23,0,0,0,5.75-2.39Z" fill="#ca4f4e"/>
          <path id="Trazado_113002" data-name="Trazado 113002" d="M149.91,142.19c-.11,0-.54,3.91-.95,8.75s-.67,8.77-.56,8.78.54-3.9.95-8.75S150,142.2,149.91,142.19Z" fill="#0b1d2a"/>
          <path id="Trazado_113003" data-name="Trazado 113003" d="M149.09,151.47a4.45,4.45,0,0,0-1.64.89c-.83.58-1.46,1.13-1.4,1.22a4.54,4.54,0,0,0,1.63-.89C148.52,152.1,149.15,151.56,149.09,151.47Z" fill="#0b1d2a"/>
          <path id="Trazado_113004" data-name="Trazado 113004" d="M148.77,153.32c-.06.1.41.48,1,1s1,.91,1.08.84-.23-.62-.82-1.14S148.82,153.23,148.77,153.32Z" fill="#0b1d2a"/>
        </g>
        <g id="Grupo_89513" data-name="Grupo 89513">
          <path id="Trazado_113005" data-name="Trazado 113005" d="M105.45,145.55l-.12-.09a19.33,19.33,0,0,0-4-2.69,10,10,0,0,0-4.55-.81,28.812,28.812,0,0,0-3,.41h0a28,28,0,0,0-2.28-2,10.07,10.07,0,0,0-4.23-1.87,19.179,19.179,0,0,0-4.85,0h-.15a11.84,11.84,0,0,0,4.25,3.64,8.211,8.211,0,0,0,1.36.5,8.77,8.77,0,0,0-2.55,1.34,12.71,12.71,0,0,0-3.81,5.39h.17a20,20,0,0,0,5.59-.89,8.889,8.889,0,0,0,1.53-.71,4.38,4.38,0,0,1-.12.61,23.35,23.35,0,0,0,.48,10.16c1.28-1.72,4-5.23,5-7.8.16-.38.3-.77.44-1.16a9.732,9.732,0,0,0,.7,1.1,12.75,12.75,0,0,0,5.41,3.81v-.17a20,20,0,0,0-.88-5.59,9.49,9.49,0,0,0-1.79-3,8.7,8.7,0,0,0,1.86.51,11.63,11.63,0,0,0,5.54-.69Z" fill="#ca4f4e"/>
          <path id="Trazado_113006" data-name="Trazado 113006" d="M96.08,136.51c-.09,0-1.39,3.23-2.89,7.28s-2.66,7.38-2.57,7.41,1.39-3.22,2.9-7.28S96.17,136.54,96.08,136.51Z" fill="#0b1d2a"/>
          <path id="Trazado_113007" data-name="Trazado 113007" d="M93.17,144.28a4.08,4.08,0,0,0-1.61.38,3.9,3.9,0,0,0-1.5.71,4,4,0,0,0,1.61-.38,4.07,4.07,0,0,0,1.5-.71Z" fill="#0b1d2a"/>
          <path id="Trazado_113008" data-name="Trazado 113008" d="M92.46,145.79c-.08.07.24.51.59,1.06a3.913,3.913,0,0,0,.73,1c.09,0,0-.59-.43-1.17S92.52,145.73,92.46,145.79Z" fill="#0b1d2a"/>
        </g>
        <g id="Grupo_89514" data-name="Grupo 89514">
          <path id="Trazado_113009" data-name="Trazado 113009" d="M60.42,132.74l-.08-.12a19.14,19.14,0,0,0-3-3.86,10.21,10.21,0,0,0-4-2.23,28.782,28.782,0,0,0-3-.6h0a27.669,27.669,0,0,0-1.5-2.65,10.17,10.17,0,0,0-3.39-3.14,19.18,19.18,0,0,0-4.59-1.59h-.14a11.74,11.74,0,0,0,2.84,4.83,9.881,9.881,0,0,0,1.12.91,8.78,8.78,0,0,0-2.84.44,12.83,12.83,0,0,0-5.35,3.87l.17.05a19.529,19.529,0,0,0,5.57,1,8.369,8.369,0,0,0,1.67-.18l-.31.54a23.6,23.6,0,0,0-2.83,9.77c1.78-1.22,5.47-3.66,7.3-5.75a12.022,12.022,0,0,0,.79-1,7.84,7.84,0,0,0,.31,1.27,12.65,12.65,0,0,0,3.88,5.35l.05-.16a20,20,0,0,0,1-5.58,9.42,9.42,0,0,0-.72-3.41,8.689,8.689,0,0,0,1.6,1.09A11.9,11.9,0,0,0,60.42,132.74Z" fill="#ca4f4e"/>
          <path id="Trazado_113010" data-name="Trazado 113010" d="M54.48,121.15c-.08-.06-2.36,2.61-5.09,6s-4.9,6.12-4.82,6.19,2.35-2.61,5.09-6S54.55,121.21,54.48,121.15Z" fill="#0b1d2a"/>
          <path id="Trazado_113011" data-name="Trazado 113011" d="M49.21,127.57a3.77,3.77,0,0,0-1.64-.17,4,4,0,0,0-1.65.19,3.93,3.93,0,0,0,1.65.16,4,4,0,0,0,1.64-.18Z" fill="#0b1d2a"/>
          <path id="Trazado_113012" data-name="Trazado 113012" d="M48.05,128.77c-.09,0,.06.56.22,1.2s.28,1.16.38,1.15.13-.57,0-1.24S48.13,128.73,48.05,128.77Z" fill="#0b1d2a"/>
        </g>
        <g id="Grupo_89515" data-name="Grupo 89515">
          <path id="Trazado_113013" data-name="Trazado 113013" d="M179,157.93s-11.24-2.92-7.57-14.7C171.38,143.23,182.76,147.43,179,157.93Z" fill="#30616f"/>
          <path id="Trazado_113014" data-name="Trazado 113014" d="M169.87,139.9a69.51,69.51,0,0,0,3.19,6.73,67.324,67.324,0,0,0,3.56,6.54,69.507,69.507,0,0,0-3.19-6.73,70,70,0,0,0-3.56-6.54Z" fill="#0b1d2a"/>
          <path id="Trazado_113015" data-name="Trazado 113015" d="M177.47,150.69c.05-.1-.52-.47-1.26-.82s-1.39-.55-1.44-.44.52.46,1.26.81S177.42,150.79,177.47,150.69Z" fill="#0b1d2a"/>
          <path id="Trazado_113016" data-name="Trazado 113016" d="M173,145.93a3.479,3.479,0,0,0-.51,1.53,3.26,3.26,0,0,0-.1,1.61,3.476,3.476,0,0,0,.5-1.53,3.34,3.34,0,0,0,.11-1.61Z" fill="#0b1d2a"/>
        </g>
        <g id="Grupo_89516" data-name="Grupo 89516">
          <path id="Trazado_113017" data-name="Trazado 113017" d="M115,160.05s-3.41-11.1,8.55-14.16C123.59,145.89,126,157.79,115,160.05Z" fill="#30616f"/>
          <path id="Trazado_113018" data-name="Trazado 113018" d="M125.63,142.86a69.373,69.373,0,0,0-4,6.25,65.856,65.856,0,0,0-3.71,6.46,68.08,68.08,0,0,0,4.06-6.25,66.9,66.9,0,0,0,3.65-6.46Z" fill="#0b1d2a"/>
          <path id="Trazado_113019" data-name="Trazado 113019" d="M120.43,155c.11,0,.13-.68,0-1.5s-.26-1.47-.37-1.45-.12.68,0,1.5S120.32,155,120.43,155Z" fill="#0b1d2a"/>
          <path id="Trazado_113020" data-name="Trazado 113020" d="M122.14,148.7c0-.11-.74.06-1.57.37s-1.47.64-1.43.75a3.4,3.4,0,0,0,1.57-.37C121.54,149.14,122.18,148.8,122.14,148.7Z" fill="#0b1d2a"/>
        </g>
        <g id="Grupo_89517" data-name="Grupo 89517">
          <path id="Trazado_113021" data-name="Trazado 113021" d="M63.67,146.68s-3.41-11.1,8.55-14.16C72.22,132.52,74.61,144.41,63.67,146.68Z" fill="#30616f"/>
          <path id="Trazado_113022" data-name="Trazado 113022" d="M74.26,129.49a70,70,0,0,0-4.05,6.24,69.919,69.919,0,0,0-3.71,6.46A67,67,0,0,0,70.56,136a66.9,66.9,0,0,0,3.7-6.51Z" fill="#0b1d2a"/>
          <path id="Trazado_113023" data-name="Trazado 113023" d="M69.06,141.62c.11,0,.13-.69,0-1.5s-.26-1.47-.37-1.46-.12.69,0,1.5A4.457,4.457,0,0,0,69.06,141.62Z" fill="#0b1d2a"/>
          <path id="Trazado_113024" data-name="Trazado 113024" d="M70.77,135.32c0-.11-.74.06-1.57.37s-1.47.65-1.43.75a3.4,3.4,0,0,0,1.57-.37C70.17,135.76,70.81,135.42,70.77,135.32Z" fill="#0b1d2a"/>
        </g>
        <path id="Trazado_113025" data-name="Trazado 113025" d="M26.1,104.56l.39.28,1.11.84L29.4,107l1.15.87c.41.31.86.62,1.33,1L35,111.11c1.17.8,2.45,1.63,3.82,2.55s2.88,1.83,4.47,2.82,3.3,2,5.09,3,3.73,2,5.72,3.12c1,.55,2,1,3.08,1.57s2.13,1.07,3.23,1.6l3.38,1.55c.57.26,1.15.54,1.73.79l1.79.75c1.2.51,2.4,1,3.64,1.53l3.79,1.47c1.27.52,2.59,1,3.91,1.43s2.66,1,4,1.38L86.86,136l4.26,1.23c5.75,1.59,11.78,3,18,4.12s12.38,1.87,18.33,2.37l4.42.32,4.35.19c1.44.08,2.86.08,4.26.1s2.8.06,4.17,0l4.06-.07c1.34,0,2.65-.11,3.95-.17l1.93-.09c.64,0,1.28-.09,1.9-.14l3.72-.29c1.21-.11,2.4-.25,3.57-.37s2.32-.23,3.44-.41c2.24-.33,4.41-.57,6.45-1s4-.66,5.82-1.06,3.56-.7,5.16-1.11,3.1-.72,4.47-1.07l3.73-1,1.58-.43,1.38-.42,2.17-.66,1.33-.4.46-.13-.45.16-1.33.42-2.15.68-1.38.43c-.49.15-1,.29-1.58.45l-3.73,1c-1.37.36-2.86.7-4.46,1.09s-3.34.73-5.17,1.12-3.78.72-5.82,1.08-4.21.64-6.45,1c-1.12.17-2.28.27-3.45.41s-2.36.27-3.58.38l-3.71.3-1.9.14-1.94.09c-1.3.06-2.62.14-4,.18l-4.07.07c-1.37.05-2.76,0-4.17,0s-2.83,0-4.27-.1l-4.35-.18-4.43-.33c-6-.49-12.11-1.26-18.35-2.36s-12.28-2.54-18-4.14l-4.27-1.23-4.15-1.33c-1.38-.42-2.71-.92-4-1.39s-2.64-.91-3.91-1.43l-3.79-1.47c-1.24-.51-2.45-1-3.65-1.54l-1.78-.76-1.74-.79L60.35,126c-1.1-.53-2.17-1.08-3.23-1.6s-2.09-1-3.08-1.58c-2-1.09-3.94-2.08-5.72-3.15s-3.51-2-5.09-3-3.1-1.9-4.45-2.84S36.12,112,35,111.21L31.83,109c-.47-.34-.92-.66-1.33-1l-1.15-.88-1.78-1.38-1.1-.86C26.22,104.67,26.1,104.56,26.1,104.56Z" fill="#0b1d2a"/>
      </g>
      <g id="Grupo_89519" data-name="Grupo 89519">
        <path id="Trazado_113026" data-name="Trazado 113026" d="M82.61,129l-1.55-.13,1-11.78,1.55.12Z" fill="#12263f"/>
        <path id="Trazado_113027" data-name="Trazado 113027" d="M87.34,120.55v1.11a3.2,3.2,0,0,1,2.73-1q2.77.23,2.54,3.36l-.46,5.78-1.5-.12.47-5.79a2.07,2.07,0,0,0-.32-1.44,1.77,1.77,0,0,0-1.29-.56,2.17,2.17,0,0,0-1.31.29,2.6,2.6,0,0,0-.94,1l-.5,6.24-1.5-.12.71-8.76Z" fill="#12263f"/>
        <path id="Trazado_113028" data-name="Trazado 113028" d="M97.42,128.14l2.71-6.55,1.53.12-3.85,8.51-1.14-.1-2.46-9,1.53.12Z" fill="#12263f"/>
        <path id="Trazado_113029" data-name="Trazado 113029" d="M103.3,119.51a.89.89,0,0,1,.27-.6.83.83,0,0,1,.68-.2.85.85,0,0,1,.64.3.9.9,0,0,1,.18.64.88.88,0,0,1-.27.59,1,1,0,0,1-1.33-.11.87.87,0,0,1-.17-.62Zm.72,11.21-1.5-.12.71-8.76,1.5.12Z" fill="#12263f"/>
        <path id="Trazado_113030" data-name="Trazado 113030" d="M109.33,120.2l-.17,2.12,1.63.13-.09,1.16-1.64-.14-.44,5.44a1.29,1.29,0,0,0,.16.81.88.88,0,0,0,.72.32,3.209,3.209,0,0,0,.72,0l-.09,1.21a4.26,4.26,0,0,1-1.17.07,1.86,1.86,0,0,1-1.46-.73,2.61,2.61,0,0,1-.37-1.77l.44-5.43-1.6-.13.1-1.15,1.59.13.17-2.12Z" fill="#12263f"/>
        <path id="Trazado_113031" data-name="Trazado 113031" d="M117.24,131.79a3.32,3.32,0,0,1-.14-.94,3.36,3.36,0,0,1-2.58.88,3.06,3.06,0,0,1-2.06-.91,2.35,2.35,0,0,1-.68-1.92,2.49,2.49,0,0,1,1.21-2,4.92,4.92,0,0,1,3-.52l1.45.12.06-.69a1.7,1.7,0,0,0-.37-1.29,1.87,1.87,0,0,0-1.34-.58,2.21,2.21,0,0,0-1.38.3,1.2,1.2,0,0,0-.62.93l-1.51-.12a2.17,2.17,0,0,1,.57-1.23,3.14,3.14,0,0,1,1.34-.86,4.2,4.2,0,0,1,1.78-.22,3.46,3.46,0,0,1,2.31,1,2.75,2.75,0,0,1,.72,2.16l-.32,4a4.79,4.79,0,0,0,.15,1.94v.13Zm-2.39-1.35a2.58,2.58,0,0,0,1.36-.25,2.19,2.19,0,0,0,1-.88l.15-1.79-1.17-.1c-1.84-.15-2.8.32-2.89,1.39a1.4,1.4,0,0,0,.38,1.14,1.84,1.84,0,0,0,1.17.49Z" fill="#12263f"/>
        <path id="Trazado_113032" data-name="Trazado 113032" d="M124.45,131.3a2.2,2.2,0,0,0,1.44-.37,1.72,1.72,0,0,0,.76-1.16l1.42.11a2.72,2.72,0,0,1-.64,1.39,3.31,3.31,0,0,1-1.36,1,3.9,3.9,0,0,1-4.47-1.15,4.77,4.77,0,0,1-.79-3.35v-.25a5.39,5.39,0,0,1,.65-2.24,3.6,3.6,0,0,1,1.48-1.44,3.86,3.86,0,0,1,2.12-.38,3.51,3.51,0,0,1,2.37,1.08,3.14,3.14,0,0,1,.86,2.37l-1.42-.11a2.08,2.08,0,0,0-.53-1.45,2,2,0,0,0-1.38-.66,2.13,2.13,0,0,0-1.84.68,3.92,3.92,0,0,0-.82,2.32v.29a3.81,3.81,0,0,0,.43,2.38,2.13,2.13,0,0,0,1.72.94Z" fill="#12263f"/>
        <path id="Trazado_113033" data-name="Trazado 113033" d="M130.43,121.7a.89.89,0,0,1,.27-.6.85.85,0,0,1,.68-.2.88.88,0,0,1,.65.31.91.91,0,0,1,.17.63.8.8,0,0,1-.95.78.82.82,0,0,1-.82-.92Zm.73,11.21-1.5-.12.71-8.76,1.49.12Z" fill="#12263f"/>
        <path id="Trazado_113034" data-name="Trazado 113034" d="M133.51,128.61a5.18,5.18,0,0,1,.7-2.27,3.81,3.81,0,0,1,1.53-1.48,3.94,3.94,0,0,1,2.11-.39,3.73,3.73,0,0,1,2.79,1.47,4.81,4.81,0,0,1,.84,3.39v.1a5.25,5.25,0,0,1-.67,2.26,3.73,3.73,0,0,1-1.53,1.47,3.83,3.83,0,0,1-2.14.39,3.65,3.65,0,0,1-2.78-1.47,4.73,4.73,0,0,1-.84-3.36Zm1.5.3a3.75,3.75,0,0,0,.48,2.39,2.3,2.3,0,0,0,3.63.28,4.15,4.15,0,0,0,.87-2.45,3.8,3.8,0,0,0-.49-2.39,2.19,2.19,0,0,0-1.75-1,2.16,2.16,0,0,0-1.86.74,4,4,0,0,0-.89,2.43Zm3.8-7.9,1.82.15-2.37,2.2-1.2-.1Z" fill="#12263f"/>
        <path id="Trazado_113035" data-name="Trazado 113035" d="M145.13,125.22v1.11a3.18,3.18,0,0,1,2.72-1q2.77.23,2.55,3.36l-.47,5.78-1.49-.12.46-5.79a2,2,0,0,0-.32-1.44,1.73,1.73,0,0,0-1.28-.56,2.16,2.16,0,0,0-1.31.29,2.6,2.6,0,0,0-.94,1L144.5,134l-1.49-.12.7-8.76Z" fill="#12263f"/>
      </g>
      <g id="Grupo_89522" data-name="Grupo 89522">
        <g id="Grupo_89521" data-name="Grupo 89521">
          <g id="Grupo_89520" data-name="Grupo 89520">
            <path id="Trazado_113036" data-name="Trazado 113036" d="M133.13,173c-2.2-10.93-3.38-13.73-3.38-13.73s-12.53-4-22,5.15c0,0,1.31,23.75,15.85,23.34l6.19,23.77s-6.75,4.75-6.15,5.93l17-4.05c-.91-1.76-8.29-2.38-8.29-2.38l-5.76-24.34S135.33,183.89,133.13,173Z" fill="#fff"/>
            <path id="Trazado_113037" data-name="Trazado 113037" d="M133.13,173l.06.27a6.475,6.475,0,0,0,.14.83,8.631,8.631,0,0,1,.16,1.36,11.541,11.541,0,0,1,0,1.88,10.64,10.64,0,0,1-1.46,5,10.8,10.8,0,0,1-5.34,4.49l.1-.18c1.55,6.49,3.54,14.78,5.82,24.34l-.19-.17a38.727,38.727,0,0,1,4.28.62,16,16,0,0,1,2.18.58,3.73,3.73,0,0,1,2,1.29l.16.25-.31.07-17,4.07h-.19l-.08-.17a.81.81,0,0,1,0-.71,2.76,2.76,0,0,1,.3-.5,8.079,8.079,0,0,1,.72-.83,20.638,20.638,0,0,1,1.62-1.47c1.12-.95,2.31-1.86,3.54-2.73l-.1.26c-.67-2.58-1.38-5.32-2.11-8.09-1.39-5.37-2.76-10.62-4.07-15.68l.24.18a11.71,11.71,0,0,1-7.89-2.73,18.82,18.82,0,0,1-4.7-6.51,37,37,0,0,1-2.4-7.24,47.549,47.549,0,0,1-1.07-7.09v-.1l.07-.06a23.37,23.37,0,0,1,5.6-3.88,23.07,23.07,0,0,1,6-1.82,24,24,0,0,1,5.63-.24,23.279,23.279,0,0,1,4.93.82h.06v.06a54.7,54.7,0,0,1,1.61,5.79c.41,1.7.71,3.16,1,4.34s.41,2.07.53,2.71c.05.29.09.52.13.7a.358.358,0,0,1,0,.24,1,1,0,0,1-.07-.24,4,4,0,0,0-.16-.69l-.6-2.69c-.27-1.18-.6-2.63-1-4.32a59.5,59.5,0,0,0-1.66-5.73l.09.07a25.35,25.35,0,0,0-10.42-.49,23.06,23.06,0,0,0-5.87,1.82,23.341,23.341,0,0,0-5.47,3.83l.06-.16a48,48,0,0,0,1.08,7,36.1,36.1,0,0,0,2.39,7.14,18.45,18.45,0,0,0,4.6,6.35,11.22,11.22,0,0,0,7.56,2.61h.2v.19l4.17,15.7c.72,2.78,1.44,5.51,2.11,8.09v.17l-.14.1c-1.21.86-2.4,1.77-3.51,2.7-.55.47-1.09.94-1.58,1.44a7,7,0,0,0-.68.78c-.19.24-.37.61-.3.7l-.27-.13,17-4-.14.32a3.67,3.67,0,0,0-1.77-1.08,17.411,17.411,0,0,0-2.12-.56,38,38,0,0,0-4.22-.62h-.16v-.15c-2.24-9.56-4.18-17.86-5.69-24.36v-.13h.12a10.39,10.39,0,0,0,6.73-9.22,13.3,13.3,0,0,0,0-1.87,9.08,9.08,0,0,0-.13-1.35,6.275,6.275,0,0,0-.1-.83A1.19,1.19,0,0,1,133.13,173Z" fill="#0b1d2a"/>
          </g>
          <path id="Trazado_113038" data-name="Trazado 113038" d="M129.75,159a6.068,6.068,0,0,1-.72.58c-.24.17-.54.39-.89.61s-.76.49-1.22.75a29.142,29.142,0,0,1-3.35,1.65,31.571,31.571,0,0,1-4.34,1.42,32,32,0,0,1-4.51.74,28.256,28.256,0,0,1-3.73.07,14.149,14.149,0,0,1-1.42-.1,6.139,6.139,0,0,1-1.08-.13,4,4,0,0,1-.9-.18,5.74,5.74,0,0,1,.92.05c.29,0,.65.06,1.07.07s.89.06,1.42.06a33.176,33.176,0,0,0,3.69-.15,34.429,34.429,0,0,0,4.46-.76,31.739,31.739,0,0,0,7.65-2.95c.47-.24.87-.49,1.24-.7s.67-.4.91-.56a4.47,4.47,0,0,1,.8-.47Z" fill="#0b1d2a"/>
        </g>
        <path id="Trazado_113039" data-name="Trazado 113039" d="M111,174a27.85,27.85,0,0,0,4.28,7.62,9.86,9.86,0,0,0,7.65,3.68c3.4-.19,6.36-2.86,7.5-6.07a15.62,15.62,0,0,0,.11-10.49.75.75,0,0,0-.74-.55,4.69,4.69,0,0,0-2.15.23,9.109,9.109,0,0,0-1.44,1.19c-2.1,1.82-5.1,2-7.87,2.14s-5-.23-7.34,2.25" fill="#652827"/>
      </g>
      <g id="Grupo_89525" data-name="Grupo 89525">
        <g id="Grupo_89524" data-name="Grupo 89524">
          <g id="Grupo_89523" data-name="Grupo 89523">
            <path id="Trazado_113040" data-name="Trazado 113040" d="M100.14,180.71c6.42-9.11,7.64-11.89,7.64-11.89S102,157,89,156.42c0,0-16.35,17.27-6.06,27.55l-13,20.84s-8.09-1.64-8.53-.39L76,214c.66-1.87-4-7.65-4-7.65l13.72-20.92S93.72,189.81,100.14,180.71Z" fill="#fff"/>
            <path id="Trazado_113041" data-name="Trazado 113041" d="M100.14,180.71l-.16.23-.5.67a8.56,8.56,0,0,1-.88,1.06,11.488,11.488,0,0,1-1.36,1.3,10.62,10.62,0,0,1-4.63,2.38,10.83,10.83,0,0,1-6.93-.79l.2-.05-13.67,21v-.25a41.056,41.056,0,0,1,2.5,3.53,19.69,19.69,0,0,1,1.08,2,3.85,3.85,0,0,1,.44,2.36l-.06.29-.27-.18-14.65-9.57-.17-.11.07-.17a.83.83,0,0,1,.55-.46,2.8,2.8,0,0,1,.56-.12,8.1,8.1,0,0,1,1.1,0,19.976,19.976,0,0,1,2.18.16c1.47.17,2.94.41,4.42.7l-.25.11,4.42-7.1,8.59-13.74v.3a11.65,11.65,0,0,1-3.44-7.6,18.79,18.79,0,0,1,1.5-7.89,36.821,36.821,0,0,1,3.61-6.72,48.818,48.818,0,0,1,4.41-5.65l.07-.07H89a21.06,21.06,0,0,1,12.09,4.49,24.811,24.811,0,0,1,4,3.92,23.149,23.149,0,0,1,2.79,4.14V169a57.28,57.28,0,0,1-3.09,5.15c-1,1.46-1.81,2.68-2.49,3.67L100.71,180l-.42.57-.15.19s0-.08.12-.21l.39-.59,1.55-2.29c.66-1,1.49-2.24,2.43-3.71q1.628-2.493,3-5.14v.11a25.27,25.27,0,0,0-6.81-7.91A20.72,20.72,0,0,0,89,156.62l.16-.06a48.209,48.209,0,0,0-4.35,5.61,37.22,37.22,0,0,0-3.55,6.64,18.56,18.56,0,0,0-1.45,7.7,11.25,11.25,0,0,0,3.31,7.29l.14.14-.1.16-8.58,13.75c-1.52,2.42-3,4.83-4.43,7.09l-.09.14H69.9c-1.47-.29-2.94-.53-4.38-.7-.72-.08-1.44-.14-2.14-.15a7,7,0,0,0-1,0c-.3,0-.7.16-.71.26l-.1-.28L76.2,213.8l-.33.12a3.6,3.6,0,0,0-.43-2,16.42,16.42,0,0,0-1-1.94,37.943,37.943,0,0,0-2.45-3.49l-.09-.12.08-.13,13.78-20.88.07-.11.12.06a10.39,10.39,0,0,0,11.32-1.45,13.737,13.737,0,0,0,1.38-1.26,10.1,10.1,0,0,0,.9-1l.53-.64C100.07,180.78,100.13,180.7,100.14,180.71Z" fill="#0b1d2a"/>
          </g>
          <path id="Trazado_113042" data-name="Trazado 113042" d="M108,168.64a3.83,3.83,0,0,1-.91-.13,5.277,5.277,0,0,1-1.06-.22c-.41-.1-.88-.21-1.38-.37a29.1,29.1,0,0,1-3.5-1.3,31.939,31.939,0,0,1-4-2.17,32.659,32.659,0,0,1-3.64-2.77A29.282,29.282,0,0,1,90.85,159c-.36-.39-.64-.77-.9-1.1s-.48-.63-.65-.87a5.3,5.3,0,0,1-.49-.78,5.479,5.479,0,0,1,.6.7c.18.23.4.51.68.83s.57.69.94,1.07a32.9,32.9,0,0,0,2.64,2.58,34.451,34.451,0,0,0,3.62,2.71,31.8,31.8,0,0,0,7.4,3.53c.5.18,1,.29,1.36.42s.75.21,1,.28a5.359,5.359,0,0,1,.95.27Z" fill="#0b1d2a"/>
        </g>
        <path id="Trazado_113043" data-name="Trazado 113043" d="M84.17,165.3a28,28,0,0,0-2.6,8.35,9.84,9.84,0,0,0,2.59,8.08c2.47,2.35,6.44,2.66,9.56,1.29a15.64,15.64,0,0,0,7.69-7.14.72.72,0,0,0-.11-.91,4.49,4.49,0,0,0-1.64-1.4,8.17,8.17,0,0,0-1.86-.23c-2.76-.28-5-2.32-7-4.25s-3.27-3.79-6.67-3.79" fill="#652827"/>
      </g>
      <line id="Línea_166" data-name="Línea 166" y1="7.48" transform="translate(107.59 146.77)" fill="none" stroke="#12263f" stroke-miterlimit="10" stroke-width="0.75"/>
      <line id="Línea_167" data-name="Línea 167" x1="5.36" y1="6.44" transform="translate(93.64 147.81)" fill="none" stroke="#12263f" stroke-miterlimit="10" stroke-width="0.75"/>
      <line id="Línea_168" data-name="Línea 168" y1="5" x2="7.56" transform="translate(116.96 149.25)" fill="none" stroke="#12263f" stroke-miterlimit="10" stroke-width="0.75"/>
      <line id="Línea_169" data-name="Línea 169" x2="5.71" y2="1.75" transform="translate(121.16 160.16)" fill="none" stroke="#12263f" stroke-miterlimit="10" stroke-width="0.75"/>
      <line id="Línea_170" data-name="Línea 170" x1="9.79" y2="3.11" transform="translate(88.17 159.74)" fill="none" stroke="#12263f" stroke-miterlimit="10" stroke-width="0.75"/>
    </g>
  </g>
</svg>
