<svg xmlns="http://www.w3.org/2000/svg" width="478.954" height="479.609" viewBox="0 0 478.954 479.609">
  <g id="Grupo_91686" data-name="Grupo 91686" transform="translate(-856 -4157.695)">
    <g id="CF1_grafico_1_copia_2" data-name="CF1_grafico 1 copia 2" transform="translate(845.477 4144.385)">
      <rect id="Rectángulo_35565" data-name="Rectángulo 35565" width="338.67" height="338.67" rx="30.3" transform="translate(10.523 253.442) rotate(-45)" fill="#bfe6f1"/>
      <path id="Trazado_113632" data-name="Trazado 113632" d="M68.67,95.24l-6.04-10.5L56.6,74.23,50.52,84.71,44.44,95.19l8.37.01-.08,40.49,7.48.01.08-40.48Z" fill="#e1e1e1"/>
      <path id="Trazado_113633" data-name="Trazado 113633" d="M44.82,121.86l-3.65-6.34-3.65-6.35-3.67,6.33-3.67,6.33,5.06.01-.05,24.48,4.52.01.05-24.48Z" fill="#e1e1e1"/>
      <g id="Grupo_89679" data-name="Grupo 89679">
        <g id="Grupo_89677" data-name="Grupo 89677">
          <rect id="Rectángulo_35566" data-name="Rectángulo 35566" width="307.37" height="239.17" transform="translate(84.61 110.28)" fill="#fff"/>
          <path id="Trazado_113634" data-name="Trazado 113634" d="M392,349.45c0-1.79-.09-94.79-.22-239.17l.22.22H84.66l.26-.26V349.41l-.24-.23,307.37.23-307.37.24h-.23V110H392.29v.21C392.06,254.66,392,347.66,392,349.45Z" fill="#20242d"/>
        </g>
        <g id="Grupo_89678" data-name="Grupo 89678">
          <path id="Trazado_113635" data-name="Trazado 113635" d="M169.13,329.37c-.15,0-.26-26-.26-58.07s.11-58.06.26-58.06.26,26,.26,58.06S169.27,329.37,169.13,329.37Z" fill="#20242d"/>
          <path id="Trazado_113636" data-name="Trazado 113636" d="M302.52,329.37c-.14,0-.26-26-.26-58.07s.12-58.06.26-58.06.26,26,.26,58.06S302.66,329.37,302.52,329.37Z" fill="#20242d"/>
          <path id="Trazado_113637" data-name="Trazado 113637" d="M214.67,329.37c-.15,0-.26-33.24-.26-74.23s.11-74.24.26-74.24.26,33.23.26,74.24S214.81,329.37,214.67,329.37Z" fill="#20242d"/>
          <path id="Trazado_113638" data-name="Trazado 113638" d="M122.36,329.37c-.15,0-.26-33.24-.26-74.23s.11-74.24.26-74.24.26,33.23.26,74.24S122.5,329.37,122.36,329.37Z" fill="#20242d"/>
          <path id="Trazado_113639" data-name="Trazado 113639" d="M354.88,329.37c-.15,0-.27-33.24-.27-74.23s.12-74.24.27-74.24.26,33.23.26,74.24S355,329.37,354.88,329.37Z" fill="#20242d"/>
          <path id="Trazado_113640" data-name="Trazado 113640" d="M254.6,329.37c-.14,0-.26-38.38-.26-85.71s.12-85.71.26-85.71.26,38.37.26,85.71S254.74,329.37,254.6,329.37Z" fill="#20242d"/>
          <path id="Trazado_113641" data-name="Trazado 113641" d="M170.22,213.24a1.09,1.09,0,1,1-1.09-1.09,1.09,1.09,0,0,1,1.09,1.09Z" fill="#20242d"/>
          <circle id="Elipse_4086" data-name="Elipse 4086" cx="1.09" cy="1.09" r="1.09" transform="translate(213.58 179.81)" fill="#20242d"/>
          <path id="Trazado_113642" data-name="Trazado 113642" d="M214.67,184.73a3.83,3.83,0,1,1,3.82-3.82,3.83,3.83,0,0,1-3.82,3.82Zm0-7.4a3.58,3.58,0,1,0,3.57,3.58,3.58,3.58,0,0,0-3.57-3.58Z" fill="#20242d"/>
          <circle id="Elipse_4087" data-name="Elipse 4087" cx="1.09" cy="1.09" r="1.09" transform="translate(253.51 156.86)" fill="#20242d"/>
          <circle id="Elipse_4088" data-name="Elipse 4088" cx="1.09" cy="1.09" r="1.09" transform="translate(301.43 213.24)" fill="#20242d"/>
          <circle id="Elipse_4089" data-name="Elipse 4089" cx="1.09" cy="1.09" r="1.09" transform="translate(353.81 179.81)" fill="#20242d"/>
          <path id="Trazado_113643" data-name="Trazado 113643" d="M123.45,182a1.09,1.09,0,1,1-1.09-1.09,1.09,1.09,0,0,1,1.09,1.09Z" fill="#20242d"/>
          <path id="Trazado_113644" data-name="Trazado 113644" d="M365.19,233.45a4.819,4.819,0,0,1-.86.28,17.531,17.531,0,0,0-2.47.84,23.871,23.871,0,0,0-7.94,6c-3,3.21-5.94,7.7-9.68,12.73a61.54,61.54,0,0,1-6.58,7.64,36.417,36.417,0,0,1-4.27,3.53,27.74,27.74,0,0,1-17.47,4.89,34,34,0,0,1-6.63-.83,17.27,17.27,0,0,1-6.42-2.83,20.911,20.911,0,0,1-5-5.22c-1.38-2-2.62-4.12-3.82-6.28-2.39-4.33-4.88-8.69-7.71-13.06s-5.34-9.11-8.22-13.71a65.569,65.569,0,0,0-10.06-13,29.38,29.38,0,0,0-6.76-4.84,22.579,22.579,0,0,0-8-2.36,28.3,28.3,0,0,0-16.65,3.57,42.11,42.11,0,0,0-12.68,11.82,129.918,129.918,0,0,0-9.06,14.57,148.877,148.877,0,0,1-8.78,14.26,70.509,70.509,0,0,1-10.63,12.12,43.831,43.831,0,0,1-6.35,4.59,28.651,28.651,0,0,1-7.09,2.91,23.4,23.4,0,0,1-3.7.69,12.81,12.81,0,0,1-1.86.11h-1.85a28.3,28.3,0,0,1-7.09-1.31,48,48,0,0,1-12-6.27c-3.56-2.45-6.81-5-10-7.28a53.591,53.591,0,0,0-9.5-5.75,31.309,31.309,0,0,0-9.45-2.68,23.351,23.351,0,0,0-8.49.54,13.646,13.646,0,0,0-1.84.6,11.687,11.687,0,0,0-1.71.67,21.3,21.3,0,0,0-3,1.67,31.719,31.719,0,0,0-4.52,3.61l-1.57,1.72a16.873,16.873,0,0,0-1.26,1.46L102.6,261c-.36.46-.56.7-.59.68a5,5,0,0,1,.46-.77l1.47-2.2a13.573,13.573,0,0,1,1.22-1.53l1.53-1.79a31.449,31.449,0,0,1,4.51-3.79,21.621,21.621,0,0,1,3-1.77,12,12,0,0,1,1.76-.73,13.839,13.839,0,0,1,1.88-.64,23.71,23.71,0,0,1,8.78-.7,32.1,32.1,0,0,1,9.77,2.64,54.34,54.34,0,0,1,9.73,5.76c3.22,2.28,6.5,4.79,10,7.19a47.1,47.1,0,0,0,11.71,6,27.09,27.09,0,0,0,6.75,1.22h1.75a11.56,11.56,0,0,0,1.76-.11,21.383,21.383,0,0,0,3.5-.67,31.94,31.94,0,0,0,12.83-7.25,69,69,0,0,0,10.36-11.9,150.484,150.484,0,0,0,8.66-14.14,131,131,0,0,1,9.15-14.76,43.5,43.5,0,0,1,13.16-12.25,30.25,30.25,0,0,1,8.56-3.25,29.771,29.771,0,0,1,9-.5,23.84,23.84,0,0,1,8.58,2.52,30.77,30.77,0,0,1,7.11,5.11,66.589,66.589,0,0,1,10.28,13.3c2.89,4.65,5.45,9.34,8.17,13.74s5.33,8.84,7.69,13.15,4.73,8.53,8.39,11.12a16.08,16.08,0,0,0,6,2.66,31.631,31.631,0,0,0,6.38.84,26.64,26.64,0,0,0,16.83-4.55,35,35,0,0,0,4.18-3.38,63.274,63.274,0,0,0,6.57-7.44c3.77-5,6.84-9.43,9.93-12.63a23.31,23.31,0,0,1,8.26-5.9,15,15,0,0,1,2.56-.71,3.329,3.329,0,0,1,.95-.12Z" fill="#2a75a9"/>
          <path id="Trazado_113645" data-name="Trazado 113645" d="M355.14,210a5.582,5.582,0,0,1-1,.27,23,23,0,0,0-2.77.85,26.779,26.779,0,0,0-8.91,6c-3.33,3.21-6.67,7.7-10.87,12.73a63.84,63.84,0,0,1-7.38,7.64,39.545,39.545,0,0,1-4.79,3.53,34,34,0,0,1-5.78,2.81,36,36,0,0,1-13.83,2.08,42.58,42.58,0,0,1-7.44-.83,20.49,20.49,0,0,1-7.2-2.83,22.05,22.05,0,0,1-5.62-5.22,73.188,73.188,0,0,1-4.29-6.28c-2.69-4.33-5.48-8.69-8.65-13.06s-6-9.11-9.23-13.71a67.23,67.23,0,0,0-11.29-13,33.12,33.12,0,0,0-7.59-4.84,27.7,27.7,0,0,0-9-2.36,36,36,0,0,0-9.6.49,34.66,34.66,0,0,0-9.1,3.08,45.63,45.63,0,0,0-14.23,11.82,130.777,130.777,0,0,0-10.17,14.57A147,147,0,0,1,176.57,228a73.19,73.19,0,0,1-11.93,12.12c-1.13.85-2.25,1.71-3.46,2.45a39.355,39.355,0,0,1-3.67,2.13,33.821,33.821,0,0,1-7.94,2.92,29.589,29.589,0,0,1-4.16.69,16.171,16.171,0,0,1-2.09.11h-2.07a35.131,35.131,0,0,1-8-1.31,56.67,56.67,0,0,1-13.45-6.27c-4-2.45-7.65-5-11.22-7.28A62.11,62.11,0,0,0,98,227.86a39,39,0,0,0-10.61-2.69,29.62,29.62,0,0,0-9.53.55,16.918,16.918,0,0,0-2.06.6,14,14,0,0,0-1.92.67,25.193,25.193,0,0,0-3.37,1.67,35.141,35.141,0,0,0-5.07,3.61L63.64,234a15.648,15.648,0,0,0-1.41,1.46l-1.79,2.1c-.41.46-.63.7-.66.68a4.4,4.4,0,0,1,.52-.77l1.65-2.2a13.761,13.761,0,0,1,1.36-1.53c.53-.54,1.1-1.14,1.72-1.79a35,35,0,0,1,5.06-3.79,25.572,25.572,0,0,1,3.43-1.77,13.859,13.859,0,0,1,2-.73,16.906,16.906,0,0,1,2.12-.65,30,30,0,0,1,9.85-.69,39.41,39.41,0,0,1,11,2.64,62.78,62.78,0,0,1,10.93,5.76c3.62,2.28,7.29,4.79,11.26,7.18a55.14,55.14,0,0,0,13.13,6,33.331,33.331,0,0,0,7.58,1.21h2a14.6,14.6,0,0,0,2-.11,26.11,26.11,0,0,0,3.92-.67,37,37,0,0,0,14.4-7.26,71.2,71.2,0,0,0,11.63-11.89A147.6,147.6,0,0,0,184.92,213a130.242,130.242,0,0,1,10.27-14.76A47.3,47.3,0,0,1,210,186a36.571,36.571,0,0,1,9.61-3.25,37.379,37.379,0,0,1,10.12-.5,29.151,29.151,0,0,1,9.62,2.52,34.731,34.731,0,0,1,8,5.1,68.16,68.16,0,0,1,11.54,13.31c3.24,4.65,6.12,9.34,9.18,13.73s6,8.85,8.62,13.16,5.31,8.53,9.42,11.12a19.12,19.12,0,0,0,6.69,2.66,40.421,40.421,0,0,0,7.15.84,34.58,34.58,0,0,0,13.31-1.89,32.62,32.62,0,0,0,5.58-2.66,38.768,38.768,0,0,0,4.69-3.38,63.675,63.675,0,0,0,7.37-7.45c4.24-5,7.69-9.42,11.15-12.62a26.21,26.21,0,0,1,9.27-5.9,18.712,18.712,0,0,1,2.87-.71A4.23,4.23,0,0,1,355.14,210Z" fill="#983b3b"/>
          <rect id="Rectángulo_35567" data-name="Rectángulo 35567" width="53.59" height="2.98" transform="translate(121.27 137.13)" fill="#20242d"/>
          <rect id="Rectángulo_35568" data-name="Rectángulo 35568" width="26.48" height="2.98" transform="translate(121.27 144.11)" fill="#20242d"/>
          <path id="Trazado_113646" data-name="Trazado 113646" d="M88.75,90.77H387.47A4.51,4.51,0,0,1,392,95.28v15H84.25v-15a4.51,4.51,0,0,1,4.5-4.51Z" fill="#20242d"/>
          <path id="Trazado_113647" data-name="Trazado 113647" d="M100.2,100.9a2.1,2.1,0,1,1-2.1-2.1A2.1,2.1,0,0,1,100.2,100.9Z" fill="#fff"/>
          <path id="Trazado_113648" data-name="Trazado 113648" d="M109.36,100.9a2.1,2.1,0,1,1-2.1-2.1A2.1,2.1,0,0,1,109.36,100.9Z" fill="#fff"/>
          <path id="Trazado_113649" data-name="Trazado 113649" d="M118.52,100.9a2.1,2.1,0,1,1-2.1-2.1,2.1,2.1,0,0,1,2.1,2.1Z" fill="#fff"/>
        </g>
      </g>
      <g id="Grupo_89680" data-name="Grupo 89680">
        <rect id="Rectángulo_35569" data-name="Rectángulo 35569" width="126.21" height="35.39" rx="3.23" transform="translate(20.59 251.02)" fill="#e6e6e6"/>
        <path id="Trazado_113650" data-name="Trazado 113650" d="M47.19,274.62A7.69,7.69,0,1,1,46,263.81a7.69,7.69,0,0,1,1.19,10.81Z" fill="#fff"/>
        <path id="Trazado_113651" data-name="Trazado 113651" d="M45.52,267.19a35.52,35.52,0,0,1-4.16,4.43l-1,1-.18.17-.18-.18a25,25,0,0,1-3.11-3.47,25.511,25.511,0,0,1,3.47,3.12H40l1-1a35.791,35.791,0,0,1,4.52-4.07Z" fill="#20242d"/>
        <path id="Trazado_113652" data-name="Trazado 113652" d="M134.48,266.12c0,.15-16,.26-35.83.26s-35.83-.11-35.83-.26,16-.26,35.83-.26S134.48,266,134.48,266.12Z" fill="#20242d"/>
        <path id="Trazado_113653" data-name="Trazado 113653" d="M105.09,273.12c0,.14-9.28.26-20.71.26s-20.72-.12-20.72-.26,9.27-.26,20.72-.26S105.09,273,105.09,273.12Z" fill="#20242d"/>
      </g>
      <g id="Grupo_89683" data-name="Grupo 89683">
        <rect id="Rectángulo_35570" data-name="Rectángulo 35570" width="124.43" height="73.81" rx="2.62" transform="translate(313.8 379.23)" fill="#e1e1e1"/>
        <g id="Grupo_89681" data-name="Grupo 89681">
          <path id="Trazado_113654" data-name="Trazado 113654" d="M339.65,417.7a5.8,5.8,0,1,1-5.8-5.8,5.8,5.8,0,0,1,5.8,5.8Z" fill="#2a75a9"/>
          <rect id="Rectángulo_35571" data-name="Rectángulo 35571" width="40.42" height="2.24" transform="translate(345.45 413.69)" fill="#2a75a9"/>
          <rect id="Rectángulo_35572" data-name="Rectángulo 35572" width="78.62" height="2.24" transform="translate(345.45 418.79)" fill="#fff"/>
        </g>
        <g id="Grupo_89682" data-name="Grupo 89682">
          <path id="Trazado_113655" data-name="Trazado 113655" d="M339.65,435.53a5.8,5.8,0,1,1-5.8-5.8,5.8,5.8,0,0,1,5.8,5.8Z" fill="#2a75a9"/>
          <rect id="Rectángulo_35573" data-name="Rectángulo 35573" width="20.64" height="2.24" transform="translate(345.45 431.52)" fill="#2a75a9"/>
          <rect id="Rectángulo_35574" data-name="Rectángulo 35574" width="78.62" height="2.24" transform="translate(345.45 436.62)" fill="#fff"/>
        </g>
      </g>
      <g id="Grupo_89690" data-name="Grupo 89690">
        <rect id="Rectángulo_35575" data-name="Rectángulo 35575" width="160.54" height="68.24" rx="3.96" transform="translate(174.03 13.31)" fill="#e1e1e1"/>
        <g id="Grupo_89689" data-name="Grupo 89689">
          <g id="Grupo_89686" data-name="Grupo 89686">
            <path id="Trazado_113656" data-name="Trazado 113656" d="M203.4,46.28l-.09-13.84a17.68,17.68,0,0,0-11.42,4.45,16.38,16.38,0,0,0-5.5,14.34,18.211,18.211,0,0,0,.32,2h0l16.68-3.76Z" fill="#2a75a9"/>
            <g id="Grupo_89685" data-name="Grupo 89685">
              <path id="Trazado_113657" data-name="Trazado 113657" d="M220.59,42a16.4,16.4,0,0,0-13.46-9.42l-.53-.05h-1.43l.09,13.84v3.25L222,53.23h0a15.891,15.891,0,0,0,.37-3.58A17.9,17.9,0,0,0,220.59,42Z" fill="#2a75a9"/>
              <g id="Grupo_89684" data-name="Grupo 89684" opacity="0.2">
                <path id="Trazado_113658" data-name="Trazado 113658" d="M220.59,42a16.4,16.4,0,0,0-13.46-9.42l-.53-.05h-1.43l.09,13.84v3.25L222,53.23h0a15.891,15.891,0,0,0,.37-3.58A17.9,17.9,0,0,0,220.59,42Z"/>
              </g>
            </g>
          </g>
          <g id="Grupo_89688" data-name="Grupo 89688">
            <path id="Trazado_113659" data-name="Trazado 113659" d="M204.29,51.26,187.62,55A17.09,17.09,0,0,0,221,54.9l-16.68-3.64" fill="#2a75a9"/>
            <g id="Grupo_89687" data-name="Grupo 89687" opacity="0.1">
              <path id="Trazado_113660" data-name="Trazado 113660" d="M204.29,51.26,187.62,55A17.09,17.09,0,0,0,221,54.9l-16.68-3.64"/>
            </g>
          </g>
        </g>
        <rect id="Rectángulo_35576" data-name="Rectángulo 35576" width="84.73" height="3.84" transform="translate(233.53 36.58)" fill="#fff"/>
        <rect id="Rectángulo_35577" data-name="Rectángulo 35577" width="84.73" height="3.84" transform="translate(233.53 46.7)" fill="#fff"/>
        <rect id="Rectángulo_35578" data-name="Rectángulo 35578" width="45.8" height="3.84" transform="translate(233.53 57.89)" fill="#fff"/>
      </g>
      <g id="Grupo_89693" data-name="Grupo 89693">
        <rect id="Rectángulo_35579" data-name="Rectángulo 35579" width="167.39" height="161.17" rx="8.41" transform="translate(113.01 302.64)" fill="#e6e6e6"/>
        <g id="Grupo_89692" data-name="Grupo 89692">
          <g id="Grupo_89691" data-name="Grupo 89691">
            <rect id="Rectángulo_35580" data-name="Rectángulo 35580" width="5.49" height="1.58" transform="translate(124.71 413.05)" fill="#20242d"/>
            <rect id="Rectángulo_35581" data-name="Rectángulo 35581" width="7.03" height="1.58" transform="translate(137.14 421.52)" fill="#20242d"/>
            <rect id="Rectángulo_35582" data-name="Rectángulo 35582" width="7.03" height="1.58" transform="translate(161.59 421.52)" fill="#20242d"/>
            <rect id="Rectángulo_35583" data-name="Rectángulo 35583" width="7.03" height="1.58" transform="translate(186.05 421.52)" fill="#20242d"/>
            <rect id="Rectángulo_35584" data-name="Rectángulo 35584" width="7.03" height="1.58" transform="translate(210.51 421.52)" fill="#20242d"/>
            <rect id="Rectángulo_35585" data-name="Rectángulo 35585" width="7.03" height="1.58" transform="translate(234.96 421.52)" fill="#20242d"/>
            <rect id="Rectángulo_35586" data-name="Rectángulo 35586" width="7.03" height="1.58" transform="translate(259.42 421.52)" fill="#20242d"/>
            <rect id="Rectángulo_35587" data-name="Rectángulo 35587" width="5.49" height="1.58" transform="translate(124.71 391.91)" fill="#20242d"/>
            <rect id="Rectángulo_35588" data-name="Rectángulo 35588" width="5.49" height="1.58" transform="translate(124.71 352.11)" fill="#20242d"/>
            <rect id="Rectángulo_35589" data-name="Rectángulo 35589" width="5.49" height="1.58" transform="translate(124.71 332.12)" fill="#20242d"/>
            <rect id="Rectángulo_35590" data-name="Rectángulo 35590" width="5.49" height="1.58" transform="translate(124.99 372.01)" fill="#20242d"/>
            <path id="Trazado_113661" data-name="Trazado 113661" d="M266.25,414.64h-2.32l-6.64.05-24.45.08-80.66.08H132.81v-.25c0-27,.07-50.71.09-67.72,0-8.49.06-15.29.07-20,0-2.33,0-4.14.05-5.38v5.38c0,4.71,0,11.51.07,20,0,17,.06,40.74.09,67.72l-.25-.26h19.11l80.66.07,24.45.08,6.64.05h1.73Z" fill="#20242d"/>
            <path id="Trazado_113662" data-name="Trazado 113662" d="M267.8,372.8c0,.15-29,.26-64.71.26s-64.71-.11-64.71-.26,29-.26,64.71-.26S267.8,372.66,267.8,372.8Z" fill="#20242d"/>
            <path id="Trazado_113663" data-name="Trazado 113663" d="M267.8,352.9c0,.15-29,.27-64.71.27s-64.71-.12-64.71-.27,29-.26,64.71-.26S267.8,352.76,267.8,352.9Z" fill="#20242d"/>
            <path id="Trazado_113664" data-name="Trazado 113664" d="M267.8,332.91c0,.14-29,.26-64.71.26s-64.71-.12-64.71-.26,29-.26,64.71-.26S267.8,332.76,267.8,332.91Z" fill="#20242d"/>
            <path id="Trazado_113665" data-name="Trazado 113665" d="M267.8,392.7c0,.14-29,.26-64.71.26s-64.71-.12-64.71-.26,29-.26,64.71-.26S267.8,392.56,267.8,392.7Z" fill="#20242d"/>
            <path id="Trazado_113666" data-name="Trazado 113666" d="M139.71,410.35V392.7l11-17.08,7.46,5.73,15.33-23.81,9,6.37,12.57-22,10.22,8.33,15.33-29.13,16.5,32.56,13.36-16.3,15.72-4.49v77.44Z" fill="#2a75a9"/>
          </g>
          <path id="Trazado_113667" data-name="Trazado 113667" d="M267.8,326.64h-4.29l-12.06.06h.11l-12.92,16.89-.06.08h-.1l-32.36.05.21-.13-13.6,22.66c-4.64,7.7-9.13,15.16-13.36,22.2l-.2.32-.22-.3c-6.39-8.8-12.3-16.92-17.53-24.11h.35l-16,24.91-4.46,6.89-1.18,1.8c-.27.4-.43.6-.43.6s.12-.22.37-.64.65-1,1.13-1.83c1-1.61,2.49-4,4.37-6.95l15.83-25,.17-.26.18.25,17.6,24.06h-.42L192.28,366l13.62-22.64.07-.12h32.51l-.17.08,13-16.82v-.06h.07l12.06.07h4.01Z" fill="#20242d"/>
          <path id="Trazado_113668" data-name="Trazado 113668" d="M166.9,369.92a1.25,1.25,0,1,1-1.24-1.19A1.23,1.23,0,0,1,166.9,369.92Z" fill="#20242d"/>
          <path id="Trazado_113669" data-name="Trazado 113669" d="M204.22,348.71a1.24,1.24,0,1,1-1.24-1.24,1.24,1.24,0,0,1,1.24,1.24Z" fill="#20242d"/>
          <path id="Trazado_113670" data-name="Trazado 113670" d="M233.24,343.5a1.24,1.24,0,1,1-1.24-1.2,1.21,1.21,0,0,1,1.24,1.2Z" fill="#20242d"/>
        </g>
        <ellipse id="Elipse_4090" data-name="Elipse 4090" cx="8.03" cy="7.73" rx="8.03" ry="7.73" transform="translate(137.13 434.94)" fill="#fff"/>
        <rect id="Rectángulo_35591" data-name="Rectángulo 35591" width="94.32" height="2.89" transform="translate(165.11 437.49)" fill="#fff"/>
        <rect id="Rectángulo_35592" data-name="Rectángulo 35592" width="39.16" height="2.89" transform="translate(165.11 444.72)" fill="#fff"/>
      </g>
      <g id="Grupo_89695" data-name="Grupo 89695">
        <rect id="Rectángulo_35593" data-name="Rectángulo 35593" width="114" height="31.96" rx="3.23" transform="translate(197.92 120.59)" fill="#2a75a9"/>
        <g id="Grupo_89694" data-name="Grupo 89694">
          <path id="Trazado_113671" data-name="Trazado 113671" d="M222,141.9a6.95,6.95,0,1,1-1.07-9.76A6.95,6.95,0,0,1,222,141.9Z" fill="#fff"/>
          <path id="Trazado_113672" data-name="Trazado 113672" d="M216.52,144.53a6.971,6.971,0,0,1-.75-13.9,6.811,6.811,0,0,1,.78,0,6.93,6.93,0,0,1,4.34,1.54,7,7,0,0,1,1.08,9.8h0a6.94,6.94,0,0,1-4.68,2.57A6.676,6.676,0,0,0,216.52,144.53Zm0-13.9a6.489,6.489,0,0,0-.77.05,6.939,6.939,0,1,0,6.18,11.25h0a6.93,6.93,0,0,0-5.38-11.26Z" fill="#20242d"/>
        </g>
        <path id="Trazado_113673" data-name="Trazado 113673" d="M220.44,135.2a29.611,29.611,0,0,1-3.74,4l-.92.89-.18.17-.18-.18a19.221,19.221,0,0,1-2.79-3.15,20.9,20.9,0,0,1,3.15,2.79h-.36l.91-.89a28.12,28.12,0,0,1,4.11-3.63Z" fill="#2a75a9"/>
        <path id="Trazado_113674" data-name="Trazado 113674" d="M300.8,134.23c0,.14-14.5.26-32.37.26s-32.36-.12-32.36-.26,14.48-.26,32.36-.26S300.8,134.09,300.8,134.23Z" fill="#fff"/>
        <path id="Trazado_113675" data-name="Trazado 113675" d="M274.25,140.55c0,.14-8.38.26-18.71.26s-18.72-.12-18.72-.26,8.38-.26,18.72-.26S274.25,140.41,274.25,140.55Z" fill="#fff"/>
      </g>
      <g id="Grupo_89705" data-name="Grupo 89705">
        <g id="Grupo_89697" data-name="Grupo 89697">
          <g id="Grupo_89696" data-name="Grupo 89696">
            <path id="Trazado_113676" data-name="Trazado 113676" d="M137.61,448.22l-.22-9.17-17.18.3.18,13.43,1.07.05c4.74.18,24.14.57,27.3-.44C152.27,451.25,137.61,448.22,137.61,448.22Z" fill="#2a75a9"/>
            <path id="Trazado_113677" data-name="Trazado 113677" d="M126.54,452.56a6,6,0,0,0-2.25-3.63,5.83,5.83,0,0,0-4-1.18l.08,4.81Z" fill="#20242d"/>
          </g>
          <path id="Trazado_113678" data-name="Trazado 113678" d="M144.78,450s5.15,1.38,4.52,2.24-20.24,1.19-28.91.58v-.39l22.89-.19S143.78,450,144.78,450Z" fill="#20242d"/>
          <path id="Trazado_113679" data-name="Trazado 113679" d="M120.14,452.39h4.3c2.64,0,6.29,0,10.31-.05s7.68-.19,10.31-.28l3.13-.12h.85a1.29,1.29,0,0,1,.29,0h-.29l-.85.06-3.12.18c-2.64.14-6.28.28-10.31.35s-7.68,0-10.32,0l-3.12-.08h-.85Z" fill="#30616f"/>
          <path id="Trazado_113680" data-name="Trazado 113680" d="M143.3,452.46a2.79,2.79,0,0,1,1.6-2.71,4.56,4.56,0,0,0-1.6,2.71Z" fill="#30616f"/>
          <path id="Trazado_113681" data-name="Trazado 113681" d="M138.19,450a1.84,1.84,0,0,1,.35-.78c.25-.4.48-.7.53-.67s-.11.38-.35.78A2.294,2.294,0,0,1,138.19,450Z" fill="#30616f"/>
          <path id="Trazado_113682" data-name="Trazado 113682" d="M136.78,449.26a2.786,2.786,0,0,1,.46-.56c.29-.27.56-.46.6-.42s-.17.3-.46.57S136.82,449.31,136.78,449.26Z" fill="#30616f"/>
          <path id="Trazado_113683" data-name="Trazado 113683" d="M135.87,447.66a3.91,3.91,0,0,1,1.8-.01,2.31,2.31,0,0,1-.9.11A2.05,2.05,0,0,1,135.87,447.66Z" fill="#30616f"/>
          <path id="Trazado_113684" data-name="Trazado 113684" d="M135.55,446.52a4.659,4.659,0,0,1,1,.07,5.217,5.217,0,0,1,1,.05,1.77,1.77,0,0,1-1,.15,1.75,1.75,0,0,1-1-.27Z" fill="#30616f"/>
          <path id="Trazado_113685" data-name="Trazado 113685" d="M138.74,448.47a4.8,4.8,0,0,0,1.08-.17A8.309,8.309,0,0,0,141,448a3.145,3.145,0,0,0,.62-.27c.19-.12.26-.33.08-.46a1.73,1.73,0,0,0-1.32-.07,2,2,0,0,0-.93.63,3.36,3.36,0,0,0-.49.95.71.71,0,0,1,0-.29,1.91,1.91,0,0,1,.34-.75,2,2,0,0,1,2.5-.63.41.41,0,0,1,.17.44.61.61,0,0,1-.26.34,3.157,3.157,0,0,1-.67.29,6.308,6.308,0,0,1-1.17.28,3.209,3.209,0,0,1-1.13.01Z" fill="#30616f"/>
          <path id="Trazado_113686" data-name="Trazado 113686" d="M139,448.52a4.68,4.68,0,0,0,0-.75,1.88,1.88,0,0,0-.33-.71c-.17-.22-.46-.49-.73-.46s-.17.48,0,.71a4.059,4.059,0,0,0,.47.65c.31.35.56.51.54.54a1.48,1.48,0,0,1-.64-.44,3.05,3.05,0,0,1-.54-.65,1.259,1.259,0,0,1-.19-.49.43.43,0,0,1,.33-.52,1.12,1.12,0,0,1,.93.55,1.79,1.79,0,0,1,.31.8,1.1,1.1,0,0,1-.15.77Z" fill="#30616f"/>
          <path id="Trazado_113687" data-name="Trazado 113687" d="M120.41,447.68a1,1,0,0,1,.34-.08,4.179,4.179,0,0,1,.94-.05,5.41,5.41,0,0,1,2.91,1.08,5.33,5.33,0,0,1,1.78,2.53,4.771,4.771,0,0,1,.2.93.89.89,0,0,1,0,.34,6.258,6.258,0,0,0-.35-1.22,5.57,5.57,0,0,0-1.77-2.41,5.49,5.49,0,0,0-2.79-1.1C120.9,447.62,120.41,447.72,120.41,447.68Z" fill="#30616f"/>
          <path id="Trazado_113688" data-name="Trazado 113688" d="M122.07,440.5a29.688,29.688,0,0,1,.12,3.53,28.82,28.82,0,0,1-.09,3.53A29.693,29.693,0,0,1,122,444a28.817,28.817,0,0,1,.07-3.5Z" fill="#30616f"/>
          <path id="Trazado_113689" data-name="Trazado 113689" d="M128.75,450.82c0-.06,1.13,0,2.51,0a17.455,17.455,0,0,1,2.51,0,9.821,9.821,0,0,1-2.51.25,10.05,10.05,0,0,1-2.51-.25Z" fill="#30616f"/>
          <path id="Trazado_113690" data-name="Trazado 113690" d="M125.38,450.87a.867.867,0,0,1,.41.4c.14.29.11.57,0,.57s-.12-.22-.24-.48S125.34,450.91,125.38,450.87Z" fill="#30616f"/>
          <path id="Trazado_113691" data-name="Trazado 113691" d="M124.09,449.31a1.109,1.109,0,0,1,.4.25c.18.18.29.35.25.4s-.22-.07-.4-.25S124.05,449.36,124.09,449.31Z" fill="#30616f"/>
          <path id="Trazado_113692" data-name="Trazado 113692" d="M122.26,448.62c0-.05.24-.16.56-.06s.46.34.42.38-.23-.1-.49-.18S122.27,448.68,122.26,448.62Z" fill="#30616f"/>
          <path id="Trazado_113693" data-name="Trazado 113693" d="M121,448.31c0-.06.15-.06.29,0s.25.14.23.2-.15.05-.3,0S120.94,448.36,121,448.31Z" fill="#30616f"/>
        </g>
        <g id="Grupo_89699" data-name="Grupo 89699">
          <path id="Trazado_113694" data-name="Trazado 113694" d="M197.81,190.85s14.67-15.15,16-14.47-5.38,6.83-4.49,7.63,8,6.18-3.42,14.69Z" fill="#f4bbac"/>
          <path id="Trazado_113695" data-name="Trazado 113695" d="M210.44,186.46a3,3,0,0,1-.24.45c-.23.38-.47.76-.71,1.17l-1.08,1.73a2.41,2.41,0,0,1-.86.88,1.07,1.07,0,0,1-1.31-.19,1.17,1.17,0,0,1,.08-1.32l.65-1,1.12-1.71.76-1.13a2.55,2.55,0,0,1,.31-.41,3,3,0,0,1-.24.45c-.23.38-.46.77-.71,1.17-.34.56-.7,1.13-1.07,1.73l-.64,1c-.19.34-.35.79-.1,1.09a.89.89,0,0,0,1.06.14,2.36,2.36,0,0,0,.79-.81l1.12-1.7.76-1.14A2.15,2.15,0,0,1,210.44,186.46Z" fill="#ef8876"/>
          <path id="Trazado_113696" data-name="Trazado 113696" d="M211.18,188.12a1.71,1.71,0,0,1-.05.43,6.1,6.1,0,0,1-1.33,2.62,2.729,2.729,0,0,1-.8.7.94.94,0,0,1-1.15-.11,1.13,1.13,0,0,1-.15-1.15,4.67,4.67,0,0,1,.55-.91,15.919,15.919,0,0,0,.94-1.46c.26-.46.49-.76.65-1a1.791,1.791,0,0,1,.28-.33,2.44,2.44,0,0,1-.21.38l-.59,1a14.333,14.333,0,0,1-.91,1.5,4.26,4.26,0,0,0-.52.87.93.93,0,0,0,.11.94.73.73,0,0,0,.9.06,2.46,2.46,0,0,0,.76-.63,6.75,6.75,0,0,0,1-1.43A13.351,13.351,0,0,0,211.18,188.12Z" fill="#ef8876"/>
          <g id="Grupo_89698" data-name="Grupo 89698">
            <path id="Trazado_113697" data-name="Trazado 113697" d="M202.34,187.73l5.38-.36a.57.57,0,0,1,.29,0c.29.1.33.49.26.78a3,3,0,0,1-1.86,2,9,9,0,0,1-2.77.47l-2.57.16" fill="#f4bbac"/>
            <path id="Trazado_113698" data-name="Trazado 113698" d="M201.07,190.76a2.689,2.689,0,0,1,.57-.08l1.58-.13a16.605,16.605,0,0,0,2.32-.26,3.66,3.66,0,0,0,2.33-1.43c.24-.4.45-.94.23-1.28-.1-.16-.33-.11-.56-.1h-.68l-2.35.14-1.58.07a4.52,4.52,0,0,1-.59,0,2.889,2.889,0,0,1,.58-.08l1.58-.14,2.34-.18.68-.05h.36a.49.49,0,0,1,.39.2,1,1,0,0,1,.09.79,2.73,2.73,0,0,1-.32.72,3.76,3.76,0,0,1-2.45,1.51,15.679,15.679,0,0,1-2.36.22l-1.58.06A4.328,4.328,0,0,1,201.07,190.76Z" fill="#ef8876"/>
          </g>
          <path id="Trazado_113699" data-name="Trazado 113699" d="M212.09,189.6a1.749,1.749,0,0,1-.12.32,6.4,6.4,0,0,0-.28.89,4.4,4.4,0,0,1-.5,1.31,1.77,1.77,0,0,1-.6.62.69.69,0,0,1-.48.11.6.6,0,0,1-.42-.28,1,1,0,0,1-.06-.94c.1-.28.22-.52.32-.76l.58-1.26a7.19,7.19,0,0,1,.58-1.15,8.642,8.642,0,0,1-.45,1.2l-.53,1.28c-.17.47-.57,1-.27,1.51a.42.42,0,0,0,.63.11A1.74,1.74,0,0,0,211,192a5.288,5.288,0,0,0,.52-1.25A2.79,2.79,0,0,1,212.09,189.6Z" fill="#ef8876"/>
          <path id="Trazado_113700" data-name="Trazado 113700" d="M205.29,195.05c-.06,0,.22-1,.29-2.28s-.07-2.3,0-2.31a5.88,5.88,0,0,1,.21,2.32,6.13,6.13,0,0,1-.5,2.27Z" fill="#ef8876"/>
        </g>
        <g id="Grupo_89702" data-name="Grupo 89702">
          <path id="Trazado_113701" data-name="Trazado 113701" d="M135.56,185.8a11.43,11.43,0,0,0,5.44,9.72,25.077,25.077,0,0,1,2.69,1.6,3.41,3.41,0,0,1,1.45,2.65c-.07,1.63-1.72,2.67-3.18,3.42a4.042,4.042,0,0,1-5.83,5.6,7.47,7.47,0,0,1-5.48,6.62,10.42,10.42,0,0,1-8.71-1.79,17.53,17.53,0,0,1-5.54-7.2" fill="#20242d"/>
          <path id="Trazado_113702" data-name="Trazado 113702" d="M128.13,214.4c-.26-1.55.36-8.05.36-8.05s5.94-.63,6.3-6.51,0-19.45,0-19.45L124,175.1l-11.89,9,1.8,29.42Z" fill="#f4bbac"/>
          <g id="Grupo_89700" data-name="Grupo 89700">
            <path id="Trazado_113703" data-name="Trazado 113703" d="M133.61,190.28a.76.76,0,1,1-.76-.76A.76.76,0,0,1,133.61,190.28Z" fill="#20242d"/>
            <path id="Trazado_113704" data-name="Trazado 113704" d="M134.34,189.46c-.1.09-.66-.38-1.47-.42s-1.42.34-1.5.24.06-.23.32-.42a2.02,2.02,0,0,1,2.37.15C134.3,189.22,134.38,189.41,134.34,189.46Z" fill="#20242d"/>
          </g>
          <g id="Grupo_89701" data-name="Grupo 89701">
            <path id="Trazado_113705" data-name="Trazado 113705" d="M124.88,190.28a.76.76,0,1,1-.75-.76.76.76,0,0,1,.75.76Z" fill="#20242d"/>
            <path id="Trazado_113706" data-name="Trazado 113706" d="M125.35,189.46c-.1.09-.66-.38-1.47-.42s-1.42.34-1.5.24.06-.23.33-.42a2,2,0,0,1,1.2-.31,1.94,1.94,0,0,1,1.16.46C125.32,189.22,125.4,189.41,125.35,189.46Z" fill="#20242d"/>
          </g>
          <path id="Trazado_113707" data-name="Trazado 113707" d="M128.27,196.25a6,6,0,0,1,1.32-.16c.21,0,.42,0,.47-.19a1.12,1.12,0,0,0-.11-.65c-.19-.55-.37-1.1-.56-1.67-.39-1.19-.72-2.27-.94-3.05a5.64,5.64,0,0,1-.31-1.3,5.721,5.721,0,0,1,.52,1.23c.28.77.64,1.84,1,3,.18.57.35,1.12.53,1.67a1.22,1.22,0,0,1,.07.85.66.66,0,0,1-.69.3A4.84,4.84,0,0,1,128.27,196.25Z" fill="#20242d"/>
          <path id="Trazado_113708" data-name="Trazado 113708" d="M125.6,197.07c-.83-.54,2.26,1.35,3.92,1.35a2.25,2.25,0,0,1-2.69.76C125.1,198.45,125.6,197.07,125.6,197.07Z" fill="#fff"/>
          <path id="Trazado_113709" data-name="Trazado 113709" d="M128.49,206.35a14.73,14.73,0,0,1-7.79-2.63s1.77,4.32,7.67,4.07Z" fill="#ef8876"/>
          <path id="Trazado_113710" data-name="Trazado 113710" d="M132.31,176.07c-5.83-6.07-9.84-4.81-12.12-4.81a18.37,18.37,0,0,0-12.75,7.37h0c-1.63,1.7-4,7.21-4.22,9.16a46.188,46.188,0,0,0,.06,5.88,7.066,7.066,0,0,1-1.94,5.39c-.93.82-2.24,1.3-2.8,2.41a3.12,3.12,0,0,0,1.3,3.77,7,7,0,0,0,4.2.86,5.93,5.93,0,0,0,4.79,6.32,5.71,5.71,0,0,0,4.22-1.11,32.438,32.438,0,0,0,3.13,2.7c.25-8.56.06-17.14-.54-25.68,3.93-.7,11-2.82,12.2-9.11,1.56,3.59,3.94,5.54,7.11,8.25C135,187.46,138.14,182.13,132.31,176.07Z" fill="#20242d"/>
          <path id="Trazado_113711" data-name="Trazado 113711" d="M116.08,186a10.529,10.529,0,0,1,2.4,0,12.6,12.6,0,0,0,5.58-.65,5.27,5.27,0,0,0,2.33-1.89,6.63,6.63,0,0,0,.94-2.32c.27-1.43.13-2.35.23-2.36a4.87,4.87,0,0,1,.13,2.42,6.42,6.42,0,0,1-.9,2.52,5.49,5.49,0,0,1-2.52,2.1,11.5,11.5,0,0,1-5.82.55A12.051,12.051,0,0,1,116.08,186Z" fill="#20242d"/>
          <path id="Trazado_113712" data-name="Trazado 113712" d="M100.75,200.45a3.381,3.381,0,0,0,1-.14,2.59,2.59,0,0,0,1.59-1.91,6.46,6.46,0,0,0-.72-3.81,15,15,0,0,1-.83-2.29,7.75,7.75,0,0,1-.17-2.64,10.79,10.79,0,0,1,1.76-4.74,17.859,17.859,0,0,1,2.66-3.14c.84-.8,1.56-1.4,2.06-1.81a3.339,3.339,0,0,1,.83-.59c0,.06-1,1-2.63,2.67a19,19,0,0,0-2.52,3.13,10.77,10.77,0,0,0-1.64,4.53,7.51,7.51,0,0,0,.15,2.47,14.31,14.31,0,0,0,.78,2.23,6.62,6.62,0,0,1,.63,4.08,2.77,2.77,0,0,1-1.89,2,1.61,1.61,0,0,1-.77,0A.5.5,0,0,1,100.75,200.45Z" fill="#20242d"/>
          <path id="Trazado_113713" data-name="Trazado 113713" d="M143.49,192a1.128,1.128,0,0,1,.19.71,2.22,2.22,0,0,1-1,1.72,3,3,0,0,1-2.95,0,6.32,6.32,0,0,1-2.49-2.6,16.16,16.16,0,0,1-2.06-6.08,8.29,8.29,0,0,1,0-2.66c.09,0,.12,1,.41,2.6a17.79,17.79,0,0,0,2.14,5.87,6,6,0,0,0,2.26,2.44,2.7,2.7,0,0,0,2.54.08,2.14,2.14,0,0,0,1-1.43C143.54,192.3,143.45,192.05,143.49,192Z" fill="#20242d"/>
        </g>
        <path id="Trazado_113714" data-name="Trazado 113714" d="M134.39,284.57s20.05,65.07,18.78,86.09-15.94,73.2-15.94,73.2Z" fill="#20242d"/>
        <path id="Trazado_113715" data-name="Trazado 113715" d="M106.08,273.49c-.45-.13-9.24,12.79-9.54,23.9a30.186,30.186,0,0,0,.13,3.27A40.61,40.61,0,0,0,99.44,312c7.43,18.77,15.1,41,15.22,46.11.39,15.62,3.44,87.45,3.44,87.45L139.71,444,139,358.09l-5.27-85.31Z" fill="#20242d"/>
        <path id="Trazado_113716" data-name="Trazado 113716" d="M117.88,273.12c.13,0,.19,2.4.19,6.75s-.21,10.67.08,18.46c.09,1.94.15,4,.32,6.1s.33,4.33.57,6.61c.47,4.55,1.12,9.41,1.94,14.49s1.73,10.43,2.5,16,1.4,11.34,1.72,17.28.28,11.76.38,17.36.22,11,.37,16.17c.3,10.3.67,19.58,1,27.37l.67,18.45c.07,2.16.12,3.84.16,5s0,1.75,0,1.75c-.06-1.41-.4-9.93-1-25.22-.32-7.78-.7-17.06-1-27.36-.16-5.16-.29-10.56-.38-16.17s0-11.42-.39-17.36-.93-11.71-1.71-17.26-1.69-10.88-2.49-16-1.46-9.94-1.93-14.5c-.22-2.29-.42-4.49-.55-6.62s-.23-4.16-.31-6.11c-.27-7.79,0-14.1,0-18.46v-5a7.68,7.68,0,0,0-.14-1.73Z" fill="#30616f"/>
        <rect id="Rectángulo_35594" data-name="Rectángulo 35594" width="21.72" height="3.27" transform="translate(117.98 442.45)" fill="#30616f"/>
        <g id="Grupo_89703" data-name="Grupo 89703">
          <path id="Trazado_113717" data-name="Trazado 113717" d="M119.35,273.77c-.06,0-.11-.22-.12-.49s0-.5.09-.5.11.22.12.49S119.41,273.77,119.35,273.77Z" fill="#30616f"/>
          <path id="Trazado_113718" data-name="Trazado 113718" d="M119.41,275.77c-.06,0-.11-.22-.12-.49s0-.5.09-.51.11.22.12.5S119.47,275.77,119.41,275.77Z" fill="#30616f"/>
          <path id="Trazado_113719" data-name="Trazado 113719" d="M119.47,277.77c-.06,0-.11-.22-.12-.49s0-.5.09-.51.11.22.12.5S119.52,277.77,119.47,277.77Z" fill="#30616f"/>
          <path id="Trazado_113720" data-name="Trazado 113720" d="M119.52,279.77a1.217,1.217,0,0,1-.11-.49c0-.27,0-.51.09-.51s.11.22.11.5S119.58,279.77,119.52,279.77Z" fill="#30616f"/>
          <path id="Trazado_113721" data-name="Trazado 113721" d="M119.58,281.77a1.345,1.345,0,0,1-.12-.5c-.01-.28,0-.5.09-.5s.11.22.12.5S119.64,281.77,119.58,281.77Z" fill="#30616f"/>
          <path id="Trazado_113722" data-name="Trazado 113722" d="M119.64,283.77c-.06,0-.11-.22-.12-.5s0-.5.09-.5.11.22.12.5S119.7,283.77,119.64,283.77Z" fill="#30616f"/>
          <path id="Trazado_113723" data-name="Trazado 113723" d="M119.7,285.77c-.06,0-.11-.22-.12-.5s0-.5.09-.5.11.22.12.5S119.76,285.77,119.7,285.77Z" fill="#30616f"/>
          <path id="Trazado_113724" data-name="Trazado 113724" d="M119.76,287.77c-.06,0-.11-.22-.12-.5s0-.5.09-.5.11.22.12.5S119.82,287.77,119.76,287.77Z" fill="#30616f"/>
          <path id="Trazado_113725" data-name="Trazado 113725" d="M119.82,289.77c-.06,0-.11-.22-.12-.5s0-.5.09-.5.11.22.12.5S119.87,289.77,119.82,289.77Z" fill="#30616f"/>
          <path id="Trazado_113726" data-name="Trazado 113726" d="M119.88,291.77c-.06,0-.12-.22-.12-.5s0-.5.09-.5.11.22.11.49S119.93,291.77,119.88,291.77Z" fill="#30616f"/>
          <path id="Trazado_113727" data-name="Trazado 113727" d="M119.93,293.77c-.05,0-.11-.22-.11-.5s0-.5.08-.5.12.22.12.49S120,293.76,119.93,293.77Z" fill="#30616f"/>
          <path id="Trazado_113728" data-name="Trazado 113728" d="M119.94,295.77a1.335,1.335,0,0,1-.1-.5c0-.28,0-.5.1-.5s.1.22.11.5S120,295.77,119.94,295.77Z" fill="#30616f"/>
          <path id="Trazado_113729" data-name="Trazado 113729" d="M120,297.77c-.06,0-.11-.22-.11-.5s0-.5.1-.5.1.22.11.5A1.141,1.141,0,0,1,120,297.77Z" fill="#30616f"/>
          <path id="Trazado_113730" data-name="Trazado 113730" d="M120,299.78c-.06,0-.11-.22-.12-.5s0-.5.09-.5.11.22.12.49S120.07,299.78,120,299.78Z" fill="#30616f"/>
          <path id="Trazado_113731" data-name="Trazado 113731" d="M120.08,301.78c-.06,0-.11-.22-.12-.5s0-.5.09-.5.11.22.12.49S120.14,301.78,120.08,301.78Z" fill="#30616f"/>
          <path id="Trazado_113732" data-name="Trazado 113732" d="M120.17,303.78c-.06,0-.12-.22-.13-.5s0-.5.08-.5.12.22.13.5S120.23,303.78,120.17,303.78Z" fill="#30616f"/>
          <path id="Trazado_113733" data-name="Trazado 113733" d="M120.27,305.78a1.463,1.463,0,0,1-.13-.49c-.02-.27,0-.51.08-.51s.12.22.13.49S120.33,305.78,120.27,305.78Z" fill="#30616f"/>
          <path id="Trazado_113734" data-name="Trazado 113734" d="M120.4,307.78c-.05,0-.12-.22-.13-.5s0-.5.07-.5.12.22.13.49S120.46,307.77,120.4,307.78Z" fill="#30616f"/>
          <path id="Trazado_113735" data-name="Trazado 113735" d="M120.55,309.77a1.27,1.27,0,0,1-.14-.49c-.02-.28,0-.5.07-.5s.12.21.14.49S120.61,309.77,120.55,309.77Z" fill="#30616f"/>
          <path id="Trazado_113736" data-name="Trazado 113736" d="M120.73,311.77c-.06,0-.13-.22-.15-.49s0-.51.06-.51.12.21.15.49S120.79,311.76,120.73,311.77Z" fill="#30616f"/>
          <path id="Trazado_113737" data-name="Trazado 113737" d="M120.92,313.76a1.486,1.486,0,0,1-.15-.49,2.475,2.475,0,0,1,0-.51,1.209,1.209,0,0,1,.16.49C120.96,313.53,121,313.75,120.92,313.76Z" fill="#30616f"/>
          <path id="Trazado_113738" data-name="Trazado 113738" d="M121.14,315.75a1.376,1.376,0,0,1-.16-.49,2.475,2.475,0,0,1,0-.51,1.209,1.209,0,0,1,.16.49C121.17,315.52,121.2,315.74,121.14,315.75Z" fill="#30616f"/>
          <path id="Trazado_113739" data-name="Trazado 113739" d="M121.38,317.73a1.281,1.281,0,0,1-.16-.48,2.442,2.442,0,0,1,0-.51,1.281,1.281,0,0,1,.16.48C121.41,317.49,121.44,317.72,121.38,317.73Z" fill="#30616f"/>
          <path id="Trazado_113740" data-name="Trazado 113740" d="M121.64,319.71c-.06,0-.13-.21-.17-.48a1.861,1.861,0,0,1,0-.51,1.306,1.306,0,0,1,.17.48C121.68,319.47,121.7,319.7,121.64,319.71Z" fill="#30616f"/>
          <path id="Trazado_113741" data-name="Trazado 113741" d="M121.92,321.68c-.06,0-.13-.2-.17-.47a1.861,1.861,0,0,1,0-.51,1.217,1.217,0,0,1,.17.48C121.96,321.46,122,321.68,121.92,321.68Z" fill="#30616f"/>
          <path id="Trazado_113742" data-name="Trazado 113742" d="M122.22,323.66c-.06,0-.14-.21-.18-.48a1.861,1.861,0,0,1,0-.51,1.217,1.217,0,0,1,.17.48C122.25,323.43,122.27,323.65,122.22,323.66Z" fill="#30616f"/>
          <path id="Trazado_113743" data-name="Trazado 113743" d="M122.53,325.63c-.06,0-.14-.2-.19-.48a1.473,1.473,0,0,1,0-.51,1.22,1.22,0,0,1,.18.48C122.56,325.39,122.58,325.62,122.53,325.63Z" fill="#30616f"/>
          <path id="Trazado_113744" data-name="Trazado 113744" d="M122.85,327.6c-.06,0-.14-.2-.19-.47a1.493,1.493,0,0,1,0-.51,1.23,1.23,0,0,1,.19.47C122.9,327.36,122.9,327.59,122.85,327.6Z" fill="#30616f"/>
          <path id="Trazado_113745" data-name="Trazado 113745" d="M123.18,329.57c-.06,0-.14-.2-.19-.47a1.493,1.493,0,0,1,0-.51,1.23,1.23,0,0,1,.19.47C123.23,329.33,123.23,329.56,123.18,329.57Z" fill="#30616f"/>
          <path id="Trazado_113746" data-name="Trazado 113746" d="M123.51,331.54c-.06,0-.14-.2-.19-.48a1.386,1.386,0,0,1,0-.5,1.329,1.329,0,0,1,.19.47C123.56,331.3,123.57,331.53,123.51,331.54Z" fill="#30616f"/>
          <path id="Trazado_113747" data-name="Trazado 113747" d="M123.84,333.5a1.217,1.217,0,0,1-.18-.47,1.861,1.861,0,0,1,0-.51,1.14,1.14,0,0,1,.18.48C123.88,333.28,123.9,333.5,123.84,333.5Z" fill="#30616f"/>
          <path id="Trazado_113748" data-name="Trazado 113748" d="M124.18,335.47c-.06,0-.14-.2-.19-.47a1.493,1.493,0,0,1,0-.51,1.23,1.23,0,0,1,.19.47C124.23,335.23,124.23,335.46,124.18,335.47Z" fill="#30616f"/>
          <path id="Trazado_113749" data-name="Trazado 113749" d="M124.5,337.44c-.06,0-.14-.21-.18-.48a1.861,1.861,0,0,1,0-.51,1.22,1.22,0,0,1,.18.48C124.54,337.2,124.56,337.43,124.5,337.44Z" fill="#30616f"/>
          <path id="Trazado_113750" data-name="Trazado 113750" d="M124.81,339.41a1.552,1.552,0,0,1-.18-.48,1.493,1.493,0,0,1,0-.51,1.22,1.22,0,0,1,.18.48C124.85,339.17,124.87,339.4,124.81,339.41Z" fill="#30616f"/>
          <path id="Trazado_113751" data-name="Trazado 113751" d="M125.12,341.38c-.06,0-.14-.21-.18-.48a1.861,1.861,0,0,1,0-.51,1.306,1.306,0,0,1,.17.48C125.15,341.14,125.17,341.37,125.12,341.38Z" fill="#30616f"/>
          <path id="Trazado_113752" data-name="Trazado 113752" d="M125.4,343.35c-.06,0-.13-.21-.17-.48a1.861,1.861,0,0,1,0-.51,1.306,1.306,0,0,1,.17.48C125.44,343.11,125.46,343.34,125.4,343.35Z" fill="#30616f"/>
          <path id="Trazado_113753" data-name="Trazado 113753" d="M125.67,345.33c-.06,0-.14-.21-.17-.48a2.475,2.475,0,0,1,0-.51,1.2,1.2,0,0,1,.16.48C125.69,345.09,125.72,345.32,125.67,345.33Z" fill="#30616f"/>
          <path id="Trazado_113754" data-name="Trazado 113754" d="M125.91,347.31a1.288,1.288,0,0,1-.16-.49,2.3,2.3,0,0,1,0-.5,1.405,1.405,0,0,1,.17.48C125.96,347.07,126,347.3,125.91,347.31Z" fill="#30616f"/>
          <path id="Trazado_113755" data-name="Trazado 113755" d="M126.14,349.29c-.06,0-.13-.21-.16-.48a2.442,2.442,0,0,1,0-.51,1.281,1.281,0,0,1,.16.48C126.17,349.05,126.2,349.28,126.14,349.29Z" fill="#30616f"/>
          <path id="Trazado_113756" data-name="Trazado 113756" d="M126.34,351.28c-.06,0-.12-.22-.15-.49a2.475,2.475,0,0,1,0-.51,1.209,1.209,0,0,1,.16.49C126.38,351.05,126.4,351.27,126.34,351.28Z" fill="#30616f"/>
          <path id="Trazado_113757" data-name="Trazado 113757" d="M126.52,353.27a1.35,1.35,0,0,1-.14-.49c-.02-.27,0-.5.06-.51s.12.21.14.49S126.58,353.26,126.52,353.27Z" fill="#30616f"/>
          <path id="Trazado_113758" data-name="Trazado 113758" d="M126.68,355.26c-.06,0-.12-.22-.14-.49s0-.5.06-.51.13.22.15.49S126.74,355.25,126.68,355.26Z" fill="#30616f"/>
          <path id="Trazado_113759" data-name="Trazado 113759" d="M126.82,357.25c-.06,0-.12-.21-.14-.49s0-.5.07-.5.12.21.14.49S126.87,357.25,126.82,357.25Z" fill="#30616f"/>
          <path id="Trazado_113760" data-name="Trazado 113760" d="M126.93,359.24c-.06,0-.12-.22-.13-.49s0-.5.07-.5.12.21.13.49S127,359.24,126.93,359.24Z" fill="#30616f"/>
          <path id="Trazado_113761" data-name="Trazado 113761" d="M127,361.23c-.06,0-.12-.22-.13-.49s0-.5.09-.5.11.22.12.49S127.08,361.23,127,361.23Z" fill="#30616f"/>
          <path id="Trazado_113762" data-name="Trazado 113762" d="M127.09,363.23c-.06,0-.11-.22-.12-.5s0-.5.09-.5.11.22.12.5S127.14,363.23,127.09,363.23Z" fill="#30616f"/>
          <path id="Trazado_113763" data-name="Trazado 113763" d="M127.14,365.23c-.06,0-.11-.22-.12-.5s0-.5.09-.5.11.22.12.5S127.19,365.23,127.14,365.23Z" fill="#30616f"/>
          <path id="Trazado_113764" data-name="Trazado 113764" d="M127.17,367.23c-.06,0-.11-.23-.11-.5s0-.5.09-.5.11.22.11.5S127.22,367.23,127.17,367.23Z" fill="#30616f"/>
          <path id="Trazado_113765" data-name="Trazado 113765" d="M127.18,369.23c-.06,0-.11-.22-.11-.5s.05-.5.1-.5.11.22.11.5S127.24,369.23,127.18,369.23Z" fill="#30616f"/>
          <path id="Trazado_113766" data-name="Trazado 113766" d="M127.2,371.23c-.06,0-.11-.22-.11-.5s0-.5.1-.5.1.22.11.5S127.26,371.23,127.2,371.23Z" fill="#30616f"/>
          <path id="Trazado_113767" data-name="Trazado 113767" d="M127.22,373.23c-.06,0-.11-.22-.11-.5s0-.5.1-.5.11.22.11.5S127.28,373.23,127.22,373.23Z" fill="#30616f"/>
          <path id="Trazado_113768" data-name="Trazado 113768" d="M127.25,375.23c-.06,0-.11-.22-.11-.5s0-.5.09-.5.11.22.11.5S127.3,375.23,127.25,375.23Z" fill="#30616f"/>
          <path id="Trazado_113769" data-name="Trazado 113769" d="M127.28,377.23c-.06,0-.11-.22-.11-.5s0-.5.09-.5.11.22.11.5S127.34,377.23,127.28,377.23Z" fill="#30616f"/>
          <path id="Trazado_113770" data-name="Trazado 113770" d="M127.31,379.23a1.464,1.464,0,0,1-.11-.5c-.01-.28,0-.5.1-.5s.1.22.11.5S127.37,379.23,127.31,379.23Z" fill="#30616f"/>
          <path id="Trazado_113771" data-name="Trazado 113771" d="M127.35,381.23a1.464,1.464,0,0,1-.11-.5c-.01-.28,0-.5.09-.5s.11.22.12.5S127.41,381.23,127.35,381.23Z" fill="#30616f"/>
          <path id="Trazado_113772" data-name="Trazado 113772" d="M127.4,383.23c-.06,0-.11-.22-.12-.5s0-.5.1-.5.1.22.11.5S127.45,383.23,127.4,383.23Z" fill="#30616f"/>
          <path id="Trazado_113773" data-name="Trazado 113773" d="M127.44,385.23a1.235,1.235,0,0,1-.11-.5c0-.28,0-.5.09-.5s.11.22.12.49S127.5,385.23,127.44,385.23Z" fill="#30616f"/>
          <path id="Trazado_113774" data-name="Trazado 113774" d="M127.49,387.23a1.3,1.3,0,0,1-.11-.5c0-.27,0-.5.09-.5s.11.22.12.49S127.55,387.22,127.49,387.23Z" fill="#30616f"/>
          <path id="Trazado_113775" data-name="Trazado 113775" d="M127.55,389.23c-.06,0-.11-.23-.12-.5s0-.5.09-.5.11.22.12.49S127.61,389.22,127.55,389.23Z" fill="#30616f"/>
          <path id="Trazado_113776" data-name="Trazado 113776" d="M127.6,391.22a1.217,1.217,0,0,1-.11-.49c0-.27,0-.5.09-.51s.11.23.11.5S127.66,391.22,127.6,391.22Z" fill="#30616f"/>
          <path id="Trazado_113777" data-name="Trazado 113777" d="M127.66,393.22a1.217,1.217,0,0,1-.11-.49c0-.27,0-.5.08-.51s.12.22.12.5S127.72,393.22,127.66,393.22Z" fill="#30616f"/>
          <path id="Trazado_113778" data-name="Trazado 113778" d="M127.73,395.22c-.06,0-.11-.22-.12-.49s0-.51.09-.51.11.22.12.5S127.78,395.22,127.73,395.22Z" fill="#30616f"/>
          <path id="Trazado_113779" data-name="Trazado 113779" d="M127.79,397.22c-.06,0-.11-.22-.12-.49s0-.51.09-.51.11.22.12.5S127.85,397.22,127.79,397.22Z" fill="#30616f"/>
          <path id="Trazado_113780" data-name="Trazado 113780" d="M127.86,399.22c-.06,0-.11-.22-.12-.5s0-.5.08-.5.12.22.13.5S127.92,399.22,127.86,399.22Z" fill="#30616f"/>
          <path id="Trazado_113781" data-name="Trazado 113781" d="M127.93,401.22c-.06,0-.11-.22-.12-.5s0-.5.08-.5.11.22.12.5S128,401.22,127.93,401.22Z" fill="#30616f"/>
          <path id="Trazado_113782" data-name="Trazado 113782" d="M128,403.22c-.06,0-.11-.22-.12-.5s0-.5.08-.5.11.22.12.49S128.06,403.22,128,403.22Z" fill="#30616f"/>
          <path id="Trazado_113783" data-name="Trazado 113783" d="M128.07,405.22c-.06,0-.11-.22-.12-.5s0-.5.08-.5.12.22.13.49S128.13,405.21,128.07,405.22Z" fill="#30616f"/>
          <path id="Trazado_113784" data-name="Trazado 113784" d="M128.14,407.22a1.345,1.345,0,0,1-.12-.5c-.01-.28,0-.5.09-.5s.11.22.12.49S128.2,407.21,128.14,407.22Z" fill="#30616f"/>
          <path id="Trazado_113785" data-name="Trazado 113785" d="M128.22,409.21c-.06,0-.11-.22-.12-.49s0-.5.08-.51.12.22.13.5S128.28,409.21,128.22,409.21Z" fill="#30616f"/>
          <path id="Trazado_113786" data-name="Trazado 113786" d="M128.3,411.21c-.06,0-.12-.22-.13-.49s0-.5.09-.51.11.22.12.5S128.35,411.21,128.3,411.21Z" fill="#30616f"/>
          <path id="Trazado_113787" data-name="Trazado 113787" d="M128.37,413.21c-.05,0-.11-.22-.12-.49s0-.51.09-.51.11.22.12.5S128.43,413.21,128.37,413.21Z" fill="#30616f"/>
          <path id="Trazado_113788" data-name="Trazado 113788" d="M128.45,415.21a1.345,1.345,0,0,1-.12-.5c-.01-.28,0-.5.08-.5s.12.22.13.5S128.51,415.21,128.45,415.21Z" fill="#30616f"/>
          <path id="Trazado_113789" data-name="Trazado 113789" d="M128.53,417.21c-.06,0-.11-.22-.12-.5s0-.5.08-.5.12.22.13.49S128.59,417.21,128.53,417.21Z" fill="#30616f"/>
          <path id="Trazado_113790" data-name="Trazado 113790" d="M128.61,419.21c-.06,0-.11-.22-.12-.5s0-.5.08-.5.11.22.13.49S128.67,419.2,128.61,419.21Z" fill="#30616f"/>
          <path id="Trazado_113791" data-name="Trazado 113791" d="M128.69,421.2c-.06,0-.11-.21-.12-.49s0-.5.08-.5.11.22.12.49S128.75,421.2,128.69,421.2Z" fill="#30616f"/>
          <path id="Trazado_113792" data-name="Trazado 113792" d="M128.77,423.2c-.06,0-.11-.22-.12-.49s0-.5.08-.51.11.22.12.5S128.83,423.2,128.77,423.2Z" fill="#30616f"/>
          <path id="Trazado_113793" data-name="Trazado 113793" d="M128.85,425.2c-.06,0-.11-.22-.12-.49s0-.51.08-.51.11.22.12.5S128.91,425.2,128.85,425.2Z" fill="#30616f"/>
          <path id="Trazado_113794" data-name="Trazado 113794" d="M128.93,427.2c-.06,0-.11-.22-.13-.5s0-.5.09-.5.11.22.12.5S129,427.2,128.93,427.2Z" fill="#30616f"/>
          <path id="Trazado_113795" data-name="Trazado 113795" d="M129,429.2c-.06,0-.12-.22-.13-.5s0-.5.09-.5.11.22.12.5S129.06,429.2,129,429.2Z" fill="#30616f"/>
          <path id="Trazado_113796" data-name="Trazado 113796" d="M129.08,431.2c-.05,0-.11-.22-.12-.5s0-.5.09-.5.11.22.12.49S129.14,431.2,129.08,431.2Z" fill="#30616f"/>
          <path id="Trazado_113797" data-name="Trazado 113797" d="M129.16,433.2c-.06,0-.11-.22-.12-.5s0-.5.08-.5.11.22.13.49S129.22,433.19,129.16,433.2Z" fill="#30616f"/>
          <path id="Trazado_113798" data-name="Trazado 113798" d="M129.23,435.19a1.329,1.329,0,0,1-.12-.49c-.01-.27,0-.5.09-.5s.11.21.12.49S129.29,435.19,129.23,435.19Z" fill="#30616f"/>
          <path id="Trazado_113799" data-name="Trazado 113799" d="M129.31,437.19c-.06,0-.11-.22-.12-.49s0-.5.08-.51.11.22.12.5S129.37,437.19,129.31,437.19Z" fill="#30616f"/>
          <path id="Trazado_113800" data-name="Trazado 113800" d="M129.38,439.19c-.06,0-.11-.22-.12-.49s0-.51.08-.51.12.22.13.5S129.44,439.19,129.38,439.19Z" fill="#30616f"/>
          <path id="Trazado_113801" data-name="Trazado 113801" d="M129.45,441.2c-.06,0-.11-.22-.12-.5s0-.5.08-.5.12.22.13.49S129.51,441.2,129.45,441.2Z" fill="#30616f"/>
          <path id="Trazado_113802" data-name="Trazado 113802" d="M129.52,443.2c-.06,0-.11-.22-.12-.49s0-.51.08-.51.12.22.12.5S129.57,443.2,129.52,443.2Z" fill="#30616f"/>
          <path id="Trazado_113803" data-name="Trazado 113803" d="M129.56,444.65c-.05,0-.1-.1-.11-.22s0-.23.1-.23.11.1.11.22S129.62,444.65,129.56,444.65Z" fill="#30616f"/>
        </g>
        <path id="Trazado_113804" data-name="Trazado 113804" d="M135.27,295.64a1,1,0,0,1-.92.05,1.84,1.84,0,0,1-.88-.67,3.18,3.18,0,0,1-.47-1.39c-.17-2.14-.31-5.09-.5-8.36s-.31-6.07-.42-8.36l-.11-2.53v-.69a.869.869,0,0,1,0-.24.919.919,0,0,1,0,.24,3.255,3.255,0,0,0,.05.68c0,.72.11,1.56.17,2.53.14,2.29.3,5.17.49,8.36s.32,6.07.44,8.36a3,3,0,0,0,.42,1.33,1.69,1.69,0,0,0,.81.66A1.24,1.24,0,0,0,135.27,295.64Z" fill="#30616f"/>
        <path id="Trazado_113805" data-name="Trazado 113805" d="M99.3,311a3.59,3.59,0,0,0,.79-.24,3.15,3.15,0,0,0,1.47-1.63,7.88,7.88,0,0,0,.36-3.3,34.65,34.65,0,0,0-2.34-11.21h.09l-2.36.39-.64.09h-.23l.22-.06.63-.13,2.35-.46h.06v.06a32.309,32.309,0,0,1,2,7.12,33.549,33.549,0,0,1,.4,4.14,7.89,7.89,0,0,1-.41,3.37,3.07,3.07,0,0,1-1.58,1.64,1.781,1.781,0,0,1-.81.22Z" fill="#30616f"/>
        <path id="Trazado_113806" data-name="Trazado 113806" d="M100.42,297.63a10.308,10.308,0,0,1-1.91.53,9.1,9.1,0,0,1-2,.33,10,10,0,0,1,1.9-.53A9.05,9.05,0,0,1,100.42,297.63Z" fill="#30616f"/>
        <path id="Trazado_113807" data-name="Trazado 113807" d="M208.73,199.12l-11.21-9.18c-30.44,27.47-69.68,24.34-69.68,24.34v.07c-1.75-.29-11-1.77-14.06-1.83-2.39,0-7.92-.48-11.83,3.21h0l-.29.28c-3.54,3.46-39,38.39-35.21,47,4,9.11,37.64,28.9,37.64,28.9l8.16-14.82s-2.55-1.67-6-4l27.5-.7,1.22-20.6s4.69-5.24,4.69-9c0-2.62-1.44-6.94-3.3-11.43C179.69,227.74,208.73,199.12,208.73,199.12Zm-121.89,59c.32-1.08,7.37-8.78,13.73-15.59,2.21,13.46,5.19,29,5.48,30.48-7.65-5.2-19.61-13.56-19.21-14.91Z" fill="#30616f"/>
        <path id="Trazado_113808" data-name="Trazado 113808" d="M138,247.33h-1a10.69,10.69,0,0,1-2.89-.35,5.38,5.38,0,0,1-3.53-2.81,3.24,3.24,0,0,1,0-2.85,2.87,2.87,0,0,1,2.65-1.71,3,3,0,0,1,2.52,2.35,4.4,4.4,0,0,1-1,3.7,8.79,8.79,0,0,1-7.64,3.14,9.1,9.1,0,0,1-4.36-1.49,6.86,6.86,0,0,1-2.89-3.81A4,4,0,0,1,120,241a3.46,3.46,0,0,1,1.86-1.75,2.51,2.51,0,0,1,2.55.32,2.79,2.79,0,0,1,.89,2.45,5.51,5.51,0,0,1-.87,2.47,8.47,8.47,0,0,1-1.77,1.86,9.63,9.63,0,0,1-4.61,1.89,9.17,9.17,0,0,1-8.53-3.14,4.8,4.8,0,0,1-.94-2.05,3.62,3.62,0,0,1,.27-2.18,2.66,2.66,0,0,1,1.59-1.44,2.87,2.87,0,0,1,2.06.19,3.58,3.58,0,0,1,2.13,3.11A4.66,4.66,0,0,1,113.3,246a7.16,7.16,0,0,1-5.58,2.15,8.65,8.65,0,0,1-4.36-1.41,7.451,7.451,0,0,1-2.11-2,5.9,5.9,0,0,1-.52-.87s.18.3.57.83a7.77,7.77,0,0,0,2.12,1.94,8.68,8.68,0,0,0,4.3,1.33,7,7,0,0,0,5.42-2.12,4.42,4.42,0,0,0,1.29-3.1,3.37,3.37,0,0,0-2-2.89,2.63,2.63,0,0,0-1.87-.16,2.37,2.37,0,0,0-1.42,1.29,3.41,3.41,0,0,0-.24,2,4.44,4.44,0,0,0,.89,1.92,8.89,8.89,0,0,0,8.26,3,9.41,9.41,0,0,0,4.46-1.83,8,8,0,0,0,1.7-1.79A5.22,5.22,0,0,0,125,242a2.5,2.5,0,0,0-.78-2.19,2.19,2.19,0,0,0-2.23-.27,3.14,3.14,0,0,0-1.7,1.58,3.65,3.65,0,0,0-.12,2.31A6.6,6.6,0,0,0,123,247.1a8.74,8.74,0,0,0,4.22,1.44,8.5,8.5,0,0,0,7.41-3,4.21,4.21,0,0,0,.95-3.48,2.74,2.74,0,0,0-2.3-2.19,2.68,2.68,0,0,0-2.46,1.57,3.05,3.05,0,0,0,0,2.7,5.29,5.29,0,0,0,3.41,2.77,11.679,11.679,0,0,0,2.85.4h.76a.927.927,0,0,1,.16.02Z" fill="#fff"/>
        <path id="Trazado_113809" data-name="Trazado 113809" d="M134.09,266.31a5.768,5.768,0,0,1-.49.34c-.33.22-.82.54-1.46.93a12.43,12.43,0,0,1-2.45,1.2,8,8,0,0,1-3.6.32,6.76,6.76,0,0,1-4.06-1.61,3.71,3.71,0,0,1-1.12-2.21,2.62,2.62,0,0,1,1-2.4,2.38,2.38,0,0,1,1.32-.5,2,2,0,0,1,1.36.48,2.86,2.86,0,0,1,.86,2.72,4.69,4.69,0,0,1-1.65,2.49,9.12,9.12,0,0,1-2.64,1.53,10.11,10.11,0,0,1-5.94.37,7.35,7.35,0,0,1-4.63-3,2.83,2.83,0,0,1-.24-2.6,2.58,2.58,0,0,1,2-1.46,1.63,1.63,0,0,1,1.17.34,1.75,1.75,0,0,1,.62,1,2.53,2.53,0,0,1-.42,2.09,6.11,6.11,0,0,1-3,2.06,7.43,7.43,0,0,1-2.7.42,7.258,7.258,0,0,1-1.71-.26,3,3,0,0,1-.56-.21,9,9,0,0,0,2.27.34,7.38,7.38,0,0,0,2.64-.45,6.06,6.06,0,0,0,2.85-2,2.35,2.35,0,0,0,.37-1.9,1.44,1.44,0,0,0-1.54-1.14,2.37,2.37,0,0,0-1.77,1.31,2.58,2.58,0,0,0,.25,2.34,7.06,7.06,0,0,0,4.45,2.86,9.83,9.83,0,0,0,5.76-.36,9,9,0,0,0,2.55-1.48,4.38,4.38,0,0,0,1.55-2.31,2.57,2.57,0,0,0-.75-2.43,1.79,1.79,0,0,0-2.31,0,2.33,2.33,0,0,0-.92,2.14,3.45,3.45,0,0,0,1,2.05,6.58,6.58,0,0,0,3.9,1.58,8.071,8.071,0,0,0,3.53-.26,12.731,12.731,0,0,0,2.44-1.15l1.48-.87C133.9,266.4,134.09,266.31,134.09,266.31Z" fill="#fff"/>
        <path id="Trazado_113810" data-name="Trazado 113810" d="M149.15,213a4.109,4.109,0,0,1,1.11.77,5.3,5.3,0,0,1,1.65,3.26,5.63,5.63,0,0,1-.31,2.55,5.73,5.73,0,0,1-1.74,2.37,6.14,6.14,0,0,1-3,1.32,5.361,5.361,0,0,1-1.74,0,2.45,2.45,0,0,1-1.59-.89,1.19,1.19,0,0,1-.18-1,1.44,1.44,0,0,1,.57-.77,2.77,2.77,0,0,1,1.69-.5,4.19,4.19,0,0,1,3,1.32,4.43,4.43,0,0,1,1.15,2.71,5.45,5.45,0,0,1-.45,2.53,6.18,6.18,0,0,1-2.46,2.71,6.428,6.428,0,0,1-.89.46,1.621,1.621,0,0,1-.33.11,9.827,9.827,0,0,0,1.16-.67,6.34,6.34,0,0,0,2.32-2.7,5.28,5.28,0,0,0,.39-2.42,4.16,4.16,0,0,0-1.1-2.53,3.86,3.86,0,0,0-2.76-1.21,2.46,2.46,0,0,0-1.51.44.93.93,0,0,0-.31,1.31,2.12,2.12,0,0,0,1.39.76,4.76,4.76,0,0,0,1.64,0,5.81,5.81,0,0,0,2.84-1.23,5.26,5.26,0,0,0,.5-7.87A7.013,7.013,0,0,0,149.15,213Z" fill="#fff"/>
        <path id="Trazado_113811" data-name="Trazado 113811" d="M163.76,209.42a1.72,1.72,0,0,1,.66,1.52,3.38,3.38,0,0,1-.41,1.16,11,11,0,0,1-1.83,2.54,20.081,20.081,0,0,0-2.46,2.87,10.87,10.87,0,0,0-1.64,6.51,16.331,16.331,0,0,0,.52,2.8,2.64,2.64,0,0,1-.3-.71,9.561,9.561,0,0,1-.44-2.07,10.64,10.64,0,0,1,1.6-6.7,18.68,18.68,0,0,1,2.51-2.89,11.711,11.711,0,0,0,1.85-2.46,3.16,3.16,0,0,0,.42-1.07,1.54,1.54,0,0,0-.1-.85C163.94,209.64,163.73,209.44,163.76,209.42Z" fill="#fff"/>
        <path id="Trazado_113812" data-name="Trazado 113812" d="M174.79,221.23a3.2,3.2,0,0,1-1.49.3,4.3,4.3,0,0,1-3.59-1.91,6.47,6.47,0,0,1-.21-6,7.34,7.34,0,0,1,2.22-2.93,4.34,4.34,0,0,1,3.82-.78,3.016,3.016,0,0,1,2.23,3.08,2.41,2.41,0,0,1-.83,1.73,2.83,2.83,0,0,1-1.73.63,4.36,4.36,0,0,1-3.09-1.19,5.49,5.49,0,0,1-1.49-2.48,5.87,5.87,0,0,1,.25-4.12,3.85,3.85,0,0,1,.85-1.26,8.231,8.231,0,0,0-.74,1.31,5.88,5.88,0,0,0-.15,4,5.32,5.32,0,0,0,1.46,2.36,4.08,4.08,0,0,0,2.9,1.09,2.48,2.48,0,0,0,1.54-.57,2.11,2.11,0,0,0,.73-1.52,2.75,2.75,0,0,0-2-2.76,4,4,0,0,0-3.55.73,7,7,0,0,0-2.13,2.8,6.26,6.26,0,0,0,.12,5.79,4.26,4.26,0,0,0,3.41,1.91,6.808,6.808,0,0,0,1.47-.21Z" fill="#fff"/>
        <path id="Trazado_113813" data-name="Trazado 113813" d="M182.7,201a2.081,2.081,0,0,1,.61.25,7.61,7.61,0,0,1,3.22,3,10.24,10.24,0,0,1,1.14,3.08,9.83,9.83,0,0,1-.67,5.85,8.9,8.9,0,0,1-.9,1.56,2.431,2.431,0,0,1-.43.5,18,18,0,0,0,1.12-2.14,10.1,10.1,0,0,0-.51-8.7,7.69,7.69,0,0,0-1.61-2A15.37,15.37,0,0,0,182.7,201Z" fill="#fff"/>
        <path id="Trazado_113814" data-name="Trazado 113814" d="M199.09,207.05a3.839,3.839,0,0,1-1.28.3,4.34,4.34,0,0,1-1.54-.14,3.76,3.76,0,0,1-1.73-1.1,6.1,6.1,0,0,1-1.52-5,3.83,3.83,0,0,1,1.61-2.69,3.16,3.16,0,0,1,1.62-.54,2.51,2.51,0,0,1,1.67.57,2.42,2.42,0,0,1,.89,1.53,2.2,2.2,0,0,1-.51,1.65,3.29,3.29,0,0,1-2.93,1.07A5.93,5.93,0,0,1,191,200a3.28,3.28,0,0,1-.59-2,4.2,4.2,0,0,1,.42-1.49c.17-.38.31-.67.41-.87a1.519,1.519,0,0,1,.17-.3,1.289,1.289,0,0,1-.11.32l-.36.9a4.52,4.52,0,0,0-.36,1.45,3.16,3.16,0,0,0,.6,1.83,5.73,5.73,0,0,0,4.25,2.59,3,3,0,0,0,2.67-1,1.86,1.86,0,0,0,.44-1.41,2.07,2.07,0,0,0-.78-1.33,2.42,2.42,0,0,0-2.92,0,3.58,3.58,0,0,0-1.5,2.48,6,6,0,0,0,1.41,4.78,3.74,3.74,0,0,0,3.1,1.27,9.6,9.6,0,0,0,1.24-.17Z" fill="#fff"/>
        <path id="Trazado_113815" data-name="Trazado 113815" d="M134.22,256.54a4.489,4.489,0,0,1-.93.83,8.819,8.819,0,0,1-3.11,1.4,15,15,0,0,1-5.05.29,42.418,42.418,0,0,1-6.06-1.21,31.845,31.845,0,0,0-6-1,13,13,0,0,0-4.91.69,8.7,8.7,0,0,0-2.88,1.69c-.59.54-.85.9-.88.88a5.289,5.289,0,0,1,.79-1,8.42,8.42,0,0,1,2.89-1.8,12.64,12.64,0,0,1,5-.78,30.351,30.351,0,0,1,6.1,1,46.369,46.369,0,0,0,6,1.23,15.509,15.509,0,0,0,5-.23A9.63,9.63,0,0,0,134.22,256.54Z" fill="#fff"/>
        <path id="Trazado_113816" data-name="Trazado 113816" d="M91.88,226a2.39,2.39,0,0,1,1.86-.37,5.18,5.18,0,0,1,2.05,1c.73.52,1.46,1.19,2.34,1.87s1.68,1.6,2.69,2.39a8.81,8.81,0,0,0,3.7,1.65,16.87,16.87,0,0,0,9.19-1.33c3.12-1.25,6-2.75,8.84-3.52a14.461,14.461,0,0,1,4.13-.59,11.58,11.58,0,0,1,3.57.64,8,8,0,0,1,4.19,3.07,4.471,4.471,0,0,1,.4.72,2.659,2.659,0,0,1,.23.56,3.357,3.357,0,0,1,.14.48,9.56,9.56,0,0,0-.87-1.69,8,8,0,0,0-4.16-2.93,11.51,11.51,0,0,0-3.51-.59,14.479,14.479,0,0,0-4,.61c-2.8.77-5.65,2.27-8.79,3.53a17,17,0,0,1-9.37,1.32,9,9,0,0,1-3.8-1.72c-1-.82-1.84-1.72-2.68-2.43s-1.59-1.38-2.29-1.9a5,5,0,0,0-2-1A2.92,2.92,0,0,0,91.88,226Z" fill="#fff"/>
        <path id="Trazado_113817" data-name="Trazado 113817" d="M137.31,214.27a4.35,4.35,0,0,1,.15.8,6.74,6.74,0,0,1-.15,2.35,8.1,8.1,0,0,1-1.65,3.32,7.06,7.06,0,0,1-4.23,2.45,7.93,7.93,0,0,1-5.76-1.27,6.34,6.34,0,0,1-2.22-2.52,1.81,1.81,0,0,1,.19-1.78,2.34,2.34,0,0,1,1.65-.84,2.2,2.2,0,0,1,1.79.6,2.71,2.71,0,0,1,.77,1.77,4.06,4.06,0,0,1-1.63,3.48,10.33,10.33,0,0,1-3.66,1.67,12.06,12.06,0,0,1-4.12.52,7,7,0,0,1-3.89-1.44,4.62,4.62,0,0,1-1.8-3.57,3.63,3.63,0,0,1,1.81-3.36,3.34,3.34,0,0,1,3.64.4,3,3,0,0,1,.57,3.42,4.62,4.62,0,0,1-2.38,2.33,10.85,10.85,0,0,1-5.9.76,12.54,12.54,0,0,1-7.54-4,11.169,11.169,0,0,1-1.39-1.9c-.25-.47-.37-.73-.37-.73a13.879,13.879,0,0,0,1.85,2.54,12.58,12.58,0,0,0,7.48,3.83,10.71,10.71,0,0,0,5.76-.78,4.39,4.39,0,0,0,2.24-2.21,2.73,2.73,0,0,0-.51-3.09,3,3,0,0,0-3.31-.35,3.35,3.35,0,0,0-1.65,3.09,4.33,4.33,0,0,0,1.7,3.32,6.61,6.61,0,0,0,3.71,1.38,12,12,0,0,0,4-.51,9.87,9.87,0,0,0,3.56-1.61,3.8,3.8,0,0,0,1.53-3.22,2.54,2.54,0,0,0-.69-1.59,1.9,1.9,0,0,0-1.56-.51,2.06,2.06,0,0,0-1.45.72,1.51,1.51,0,0,0-.15,1.51,6,6,0,0,0,2.11,2.41A7.74,7.74,0,0,0,131.4,223a6.93,6.93,0,0,0,4.12-2.35,7.92,7.92,0,0,0,1.67-3.24,7.81,7.81,0,0,0,.12-3.14Z" fill="#fff"/>
        <path id="Trazado_113818" data-name="Trazado 113818" d="M86.29,231.74a2.3,2.3,0,0,1,.39-.16c.27-.09.66-.23,1.18-.37a7,7,0,0,1,4.47.19,6.57,6.57,0,0,1,2.58,1.79,5.34,5.34,0,0,1,1.36,3.33,4.9,4.9,0,0,1-5.53,5,3.53,3.53,0,0,1-2-.9,2.1,2.1,0,0,1-.65-2,3.11,3.11,0,0,1,1.22-1.69,4.81,4.81,0,0,1,1.8-.82,6.81,6.81,0,0,1,8.44,5.56,5.17,5.17,0,0,1,0,1.66,11.44,11.44,0,0,0-.14-1.64,7,7,0,0,0-2.13-3.82,6.76,6.76,0,0,0-6.12-1.48,4.61,4.61,0,0,0-1.7.78,2.83,2.83,0,0,0-1.09,1.52,1.76,1.76,0,0,0,.57,1.74,3.21,3.21,0,0,0,1.84.82,4.62,4.62,0,0,0,5.2-4.67,5,5,0,0,0-1.27-3.16,6.39,6.39,0,0,0-2.46-1.76,7,7,0,0,0-4.37-.27c-.51.12-.91.24-1.18.31A1.9,1.9,0,0,1,86.29,231.74Z" fill="#fff"/>
        <path id="Trazado_113819" data-name="Trazado 113819" d="M90.57,253.44a1.75,1.75,0,0,0,.1-.87,5.3,5.3,0,0,0-1-2.18,3.25,3.25,0,0,0-3.1-1.25c-1.34.06-2.8.65-4.44.53a5.37,5.37,0,0,1-5.1-5.52,4.3,4.3,0,0,1,.63-2.39,2,2,0,0,1,.64-.64,5.47,5.47,0,0,0-.54.71,4.25,4.25,0,0,0-.51,2.31,5.63,5.63,0,0,0,1.14,3.3,5.44,5.44,0,0,0,3.77,1.91c1.54.13,3-.45,4.39-.49a4.56,4.56,0,0,1,2,.29,2.73,2.73,0,0,1,1.33,1.11,5.09,5.09,0,0,1,.9,2.3,1.09,1.09,0,0,1-.21.88Z" fill="#fff"/>
        <path id="Trazado_113820" data-name="Trazado 113820" d="M79.53,275.77a3.87,3.87,0,0,0,1.37-.36,2.45,2.45,0,0,0,1.1-1.15,4.15,4.15,0,0,0,.22-2.15,14.57,14.57,0,0,0-.66-2.62,7.61,7.61,0,0,0-1.33-2.73,3,3,0,0,0-2.92-1.08,1.8,1.8,0,0,0-1.2,1.08,2.45,2.45,0,0,0,0,1.73,2.82,2.82,0,0,0,2.76,1.78A4.81,4.81,0,0,0,82,269.13a14.46,14.46,0,0,0,3.5-4.55,11,11,0,0,0,1.12-3.72c.09-.92,0-1.43.07-1.43a5.78,5.78,0,0,1,0,1.44,10.68,10.68,0,0,1-1,3.81,14.53,14.53,0,0,1-3.52,4.68,5.09,5.09,0,0,1-3.26,1.21,3.59,3.59,0,0,1-1.82-.48,2.64,2.64,0,0,1-1.24-1.5,2.81,2.81,0,0,1,0-1.94,2.11,2.11,0,0,1,1.41-1.26,3.24,3.24,0,0,1,3.22,1.18,8,8,0,0,1,1.36,2.85,14.341,14.341,0,0,1,.63,2.66,4.3,4.3,0,0,1-.28,2.25A2.54,2.54,0,0,1,81,275.52a3,3,0,0,1-1,.27,1.589,1.589,0,0,1-.47-.02Z" fill="#fff"/>
        <path id="Trazado_113821" data-name="Trazado 113821" d="M92.67,283.48a5.221,5.221,0,0,0,.78-.19,2.85,2.85,0,0,0,1.41-1.56,4.29,4.29,0,0,0-.15-3.13c-.4-1.15-1.15-2.31-1.6-3.71a5.32,5.32,0,0,1-.27-2.12,3.78,3.78,0,0,1,.73-1.86,4.83,4.83,0,0,1,2.78-1.82,6.73,6.73,0,0,1,2.24-.13,3.249,3.249,0,0,1,.8.16,9.741,9.741,0,0,0-3,.19,4.72,4.72,0,0,0-2.6,1.76,3.57,3.57,0,0,0-.65,1.73,5,5,0,0,0,.26,2c.43,1.34,1.17,2.51,1.57,3.71a4.35,4.35,0,0,1,.08,3.3,2.81,2.81,0,0,1-1.57,1.59A1.49,1.49,0,0,1,92.67,283.48Z" fill="#fff"/>
        <path id="Trazado_113822" data-name="Trazado 113822" d="M98.84,244.36a10.08,10.08,0,0,1,1-1.26c.64-.78,1.58-1.9,2.77-3.26s2.61-3,4.13-4.81c.76-.91,1.55-1.89,2.34-2.92a19.54,19.54,0,0,0,2.16-3.32,16.78,16.78,0,0,0,2-7.32,8.21,8.21,0,0,0-2.07-5.68,6.74,6.74,0,0,0-3.59-2,14.177,14.177,0,0,0-1.55-.12,1.446,1.446,0,0,0,.4-.09,5.171,5.171,0,0,1,1.18,0,6.62,6.62,0,0,1,3.82,2,8.43,8.43,0,0,1,2.29,5.92,16.75,16.75,0,0,1-2,7.56,19.58,19.58,0,0,1-2.23,3.4c-.8,1-1.6,2-2.37,2.92-1.55,1.83-3,3.41-4.22,4.75s-2.15,2.33-2.9,3.15A8.36,8.36,0,0,1,98.84,244.36Z" fill="#20242d"/>
        <path id="Trazado_113823" data-name="Trazado 113823" d="M87.68,258.11a13,13,0,0,1-3.46,1.31,13,13,0,0,1-3.61.81,13.9,13.9,0,0,1,3.46-1.31,13.5,13.5,0,0,1,3.61-.81Z" fill="#20242d"/>
        <path id="Trazado_113824" data-name="Trazado 113824" d="M87.23,258c.08.14-1.11.87-2.25,2.12s-1.79,2.48-1.93,2.42a5,5,0,0,1,1.55-2.77A5.12,5.12,0,0,1,87.23,258Z" fill="#20242d"/>
        <path id="Trazado_113825" data-name="Trazado 113825" d="M137.61,234.26a9.629,9.629,0,0,1-1.16-2.07,52.781,52.781,0,0,1-3.78-10.75,9.79,9.79,0,0,1-.39-2.34,11.76,11.76,0,0,1,.75,2.24c.41,1.4,1,3.31,1.73,5.4s1.48,4,2,5.31a11.67,11.67,0,0,1,.85,2.21Z" fill="#20242d"/>
        <path id="Trazado_113826" data-name="Trazado 113826" d="M127,243.85a6.17,6.17,0,0,1-1.31,2,13.28,13.28,0,0,1-10.49,4.53,6.51,6.51,0,0,1-2.39-.43c0-.1.93.08,2.39.06a14.55,14.55,0,0,0,10.22-4.41A23.007,23.007,0,0,0,127,243.85Z" fill="#20242d"/>
        <g id="Grupo_89704" data-name="Grupo 89704">
          <path id="Trazado_113827" data-name="Trazado 113827" d="M120.07,293.26s-6.91,1.5-7.82.74,1.32-1.57,1.32-1.57-2,.23-2-.48a1.772,1.772,0,0,1,.73-1.23Z" fill="#f4bbac"/>
          <path id="Trazado_113828" data-name="Trazado 113828" d="M110.74,279.86s9.72,4.37,9.84,4.71.41,7.26-.51,8.69-13.66-5.54-13.66-5.54Z" fill="#f4bbac"/>
          <path id="Trazado_113829" data-name="Trazado 113829" d="M117.92,291.65a2.871,2.871,0,0,1-.48,0l-1.33-.18a27.863,27.863,0,0,1-4.3-.92,13.159,13.159,0,0,1-4-1.91l-1.1-.75a2.639,2.639,0,0,1-.39-.3,2.14,2.14,0,0,1,.44.23l1.13.69a14,14,0,0,0,3.94,1.84,34.131,34.131,0,0,0,4.27,1l1.31.23a1.48,1.48,0,0,1,.51.07Z" fill="#ef8876"/>
          <path id="Trazado_113830" data-name="Trazado 113830" d="M117.88,291.82a11.869,11.869,0,0,1-4.52.68c0-.06,1-.14,2.26-.33S117.86,291.76,117.88,291.82Z" fill="#ef8876"/>
        </g>
      </g>
      <rect id="Rectángulo_35595" data-name="Rectángulo 35595" width="109.75" height="47.18" transform="translate(368.58 192.86)" fill="#fff"/>
      <text id="Materia_prima" data-name="Materia prima" transform="translate(375.23 209.57)" fill="#12263f" font-size="14" font-family="Roboto-Regular, Roboto"><tspan x="0" y="0">Materia prima</tspan></text>
      <text id="Exportaciones" transform="translate(375.23 236.25)" fill="#12263f" font-size="14" font-family="Roboto-Regular, Roboto"><tspan x="0" y="0">Expo</tspan><tspan y="0" letter-spacing="0.02em">r</tspan><tspan y="0">taciones</tspan></text>
      <text id="Puntos_de_venta" data-name="Puntos de venta" transform="translate(328.26 399.58)" fill="#12263f" font-size="14" font-family="Roboto-Regular, Roboto"><tspan x="0" y="0">Pun</tspan><tspan y="0" letter-spacing="-0.01em">t</tspan><tspan y="0">os de </tspan><tspan y="0" letter-spacing="-0.01em">v</tspan><tspan y="0">enta</tspan></text>
      <text id="Ventas_por_Internet" data-name="Ventas por 
Internet" transform="translate(187.48 386.18)" fill="#fff" font-size="14" font-family="Roboto-Regular, Roboto"><tspan x="0" y="0" letter-spacing="-0.02em">V</tspan><tspan y="0">entas por </tspan><tspan x="0" y="16.8">Internet</tspan></text>
      <text id="Manejo_de_marca" data-name="Manejo de marca" transform="translate(192.9 29.04)" fill="#12263f" font-size="14" font-family="Roboto-Regular, Roboto"><tspan x="0" y="0">Manejo de ma</tspan><tspan y="0" letter-spacing="-0.01em">r</tspan><tspan y="0">ca</tspan></text>
    </g>
  </g>
</svg>
