<svg xmlns="http://www.w3.org/2000/svg" width="500.644" height="478.952" viewBox="0 0 500.644 478.952">
  <g id="Grupo_91691" data-name="Grupo 91691" transform="translate(-205 -934.048)">
    <g id="Grupo_91683" data-name="Grupo 91683" transform="translate(205.644 908.833)">
      <rect id="Rectángulo_35712" data-name="Rectángulo 35712" width="338.67" height="338.67" rx="30.3" transform="translate(-0.644 264.691) rotate(-45)" fill="#60c1dd"/>
      <path id="Trazado_119907" data-name="Trazado 119907" d="M490.837,244.363,294.212,47.738a31.234,31.234,0,0,0-22.164-9.163v2.068h.007A29.174,29.174,0,0,1,292.749,49.2L489.374,245.826a29.3,29.3,0,0,1,0,41.388L292.749,483.838a29.072,29.072,0,0,1-20.694,8.572h-.007v2.069h.007a31.13,31.13,0,0,0,22.157-9.178L490.837,288.677A31.371,31.371,0,0,0,490.837,244.363Z" fill="#2e98a5"/>
      <path id="Trazado_119908" data-name="Trazado 119908" d="M272.048,492.41a29.076,29.076,0,0,1-20.687-8.572L54.736,287.214a29.267,29.267,0,0,1,0-41.388L251.361,49.2a29.174,29.174,0,0,1,20.687-8.558V38.575a31.233,31.233,0,0,0-22.15,9.163L53.273,244.363a31.334,31.334,0,0,0,0,44.314L249.9,485.3a31.129,31.129,0,0,0,22.15,9.177Z" fill="#fff"/>
      <rect id="Rectángulo_35713" data-name="Rectángulo 35713" width="162.12" height="162.12" rx="14.505" transform="translate(54.924 55.027)" fill="#fff" stroke="#4d5057" stroke-miterlimit="10" stroke-width="2"/>
      <rect id="Rectángulo_35714" data-name="Rectángulo 35714" width="162.12" height="162.12" rx="14.505" transform="translate(289.49 55.027)" fill="#fff" stroke="#80cde4" stroke-miterlimit="10" stroke-width="2"/>
      <rect id="Rectángulo_35715" data-name="Rectángulo 35715" width="162.12" height="162.12" rx="14.505" transform="translate(54.924 291.405)" fill="#fff" stroke="#30616f" stroke-miterlimit="10" stroke-width="2"/>
      <rect id="Rectángulo_35716" data-name="Rectángulo 35716" width="162.12" height="162.12" rx="14.505" transform="translate(289.49 291.405)" fill="#fff" stroke="#7faccb" stroke-miterlimit="10" stroke-width="2"/>
      <text id="Gastos_urgentes_-_importantes" data-name="Gastos 
urgentes - 
importantes" transform="translate(65.003 130.587)" fill="#12263f" font-size="18" font-family="Roboto-Regular, Roboto"><tspan x="42.689" y="19">Gastos </tspan><tspan x="31.132" y="40.6">urgentes - </tspan><tspan x="22.312" y="62.2">importantes</tspan></text>
      <text id="Gastos_no_urgentes_-_importantes_" data-name="Gastos 
no urgentes - importantes
" transform="translate(305.909 130.587)" fill="#12263f" font-size="18" font-family="Roboto-Regular, Roboto"><tspan x="42.689" y="19">Gastos </tspan><tspan x="18.805" y="40.6">no urgentes - </tspan><tspan x="22.312" y="62.2">importantes</tspan></text>
      <text id="Gastos_no_importantes_urgentes._" data-name="Gastos no importantes urgentes.
" transform="translate(65.003 371.745)" fill="#12263f" font-size="18" font-family="Roboto-Regular, Roboto"><tspan x="30.362" y="19">Gastos no </tspan><tspan x="22.312" y="40.6">importantes </tspan><tspan x="33.474" y="62.2">urgentes.</tspan></text>
      <text id="Gastos_no_importantes_-_no_urgentes." data-name="Gastos no importantes -
no urgentes." transform="translate(305.909 371.745)" fill="#12263f" font-size="18" font-family="Roboto-Regular, Roboto"><tspan x="30.362" y="19">Gastos no </tspan><tspan x="17.601" y="40.6">importantes -</tspan><tspan x="21.147" y="62.2">no urgentes.</tspan></text>
      <g id="Grupo_91644" data-name="Grupo 91644">
        <g id="Grupo_91643" data-name="Grupo 91643">
          <g id="Grupo_91642" data-name="Grupo 91642">
            <path id="Trazado_119909" data-name="Trazado 119909" d="M128.652,104.234V87.619a16.614,16.614,0,0,0-33.229,0v16.615a4.752,4.752,0,0,0-4.747,4.747v3.56a1.186,1.186,0,0,0,1.187,1.187h40.35a1.186,1.186,0,0,0,1.186-1.187v-3.56A4.752,4.752,0,0,0,128.652,104.234ZM97.8,87.619a14.241,14.241,0,1,1,28.482,0v16.615H97.8Zm33.229,23.735H93.05v-2.373a2.376,2.376,0,0,1,2.373-2.374h33.229a2.376,2.376,0,0,1,2.374,2.374Z" fill="#3b4454"/>
            <path id="Trazado_119910" data-name="Trazado 119910" d="M112.038,68.631a1.186,1.186,0,0,0,1.187-1.187V62.7a1.187,1.187,0,0,0-2.374,0v4.748A1.186,1.186,0,0,0,112.038,68.631Z" fill="#3b4454"/>
            <path id="Trazado_119911" data-name="Trazado 119911" d="M123.9,69.818a1.182,1.182,0,0,0,.839-.348l3.563-3.56a1.187,1.187,0,0,0-1.678-1.678l-3.563,3.56a1.187,1.187,0,0,0,.839,2.026Z" fill="#3b4454"/>
            <path id="Trazado_119912" data-name="Trazado 119912" d="M99.329,69.47a1.187,1.187,0,0,0,1.678-1.678l-3.558-3.56a1.187,1.187,0,0,0-1.678,1.678Z" fill="#3b4454"/>
            <path id="Trazado_119913" data-name="Trazado 119913" d="M138.021,75.221a1.188,1.188,0,0,0-1.592-.531l-4.747,2.374a1.187,1.187,0,0,0,.531,2.248,1.2,1.2,0,0,0,.53-.125l4.747-2.374A1.187,1.187,0,0,0,138.021,75.221Z" fill="#3b4454"/>
            <path id="Trazado_119914" data-name="Trazado 119914" d="M91.863,79.312a1.187,1.187,0,0,0,.531-2.248L87.647,74.69a1.187,1.187,0,1,0-1.062,2.123l4.747,2.374A1.208,1.208,0,0,0,91.863,79.312Z" fill="#3b4454"/>
            <path id="Trazado_119915" data-name="Trazado 119915" d="M112.038,75.752A11.882,11.882,0,0,0,100.17,87.619a1.187,1.187,0,0,0,2.374,0,9.5,9.5,0,0,1,9.494-9.494,1.187,1.187,0,1,0,0-2.373Z" fill="#3b4454"/>
          </g>
        </g>
      </g>
      <g id="Grupo_91651" data-name="Grupo 91651">
        <g id="Grupo_91646" data-name="Grupo 91646">
          <g id="Grupo_91645" data-name="Grupo 91645">
            <path id="Trazado_119916" data-name="Trazado 119916" d="M170.914,72.978A20.736,20.736,0,1,0,191.65,93.714,20.725,20.725,0,0,0,170.914,72.978Zm0,38.232a17.5,17.5,0,1,1,17.5-17.5A17.486,17.486,0,0,1,170.914,111.21Z" fill="#3b4454"/>
          </g>
        </g>
        <g id="Grupo_91648" data-name="Grupo 91648">
          <g id="Grupo_91647" data-name="Grupo 91647">
            <path id="Trazado_119917" data-name="Trazado 119917" d="M170.914,83.417a1.62,1.62,0,0,0-1.62,1.62V95.469a1.62,1.62,0,1,0,3.24,0V85.037A1.62,1.62,0,0,0,170.914,83.417Z" fill="#3b4454"/>
          </g>
        </g>
        <g id="Grupo_91650" data-name="Grupo 91650">
          <g id="Grupo_91649" data-name="Grupo 91649">
            <circle id="Elipse_4098" data-name="Elipse 4098" cx="2.187" cy="2.187" r="2.187" transform="translate(168.727 99.073)" fill="#3b4454"/>
          </g>
        </g>
      </g>
      <g id="Grupo_91658" data-name="Grupo 91658">
        <g id="Grupo_91653" data-name="Grupo 91653">
          <g id="Grupo_91652" data-name="Grupo 91652">
            <path id="Trazado_119918" data-name="Trazado 119918" d="M402.675,72.978a20.736,20.736,0,1,0,20.736,20.736A20.724,20.724,0,0,0,402.675,72.978Zm0,38.232a17.5,17.5,0,1,1,17.5-17.5A17.486,17.486,0,0,1,402.675,111.21Z" fill="#60c1dd"/>
          </g>
        </g>
        <g id="Grupo_91655" data-name="Grupo 91655">
          <g id="Grupo_91654" data-name="Grupo 91654">
            <path id="Trazado_119919" data-name="Trazado 119919" d="M402.675,83.417a1.62,1.62,0,0,0-1.62,1.62V95.469a1.62,1.62,0,0,0,3.24,0V85.037A1.62,1.62,0,0,0,402.675,83.417Z" fill="#60c1dd"/>
          </g>
        </g>
        <g id="Grupo_91657" data-name="Grupo 91657">
          <g id="Grupo_91656" data-name="Grupo 91656">
            <circle id="Elipse_4099" data-name="Elipse 4099" cx="2.187" cy="2.187" r="2.187" transform="translate(400.488 99.073)" fill="#60c1dd"/>
          </g>
        </g>
      </g>
      <g id="Grupo_91662" data-name="Grupo 91662">
        <g id="Grupo_91661" data-name="Grupo 91661">
          <g id="Grupo_91660" data-name="Grupo 91660">
            <g id="Grupo_91659" data-name="Grupo 91659">
              <path id="Trazado_119920" data-name="Trazado 119920" d="M360.413,106.607V89.993a16.615,16.615,0,1,0-33.229,0v16.614a4.752,4.752,0,0,0-4.747,4.747v3.561a1.186,1.186,0,0,0,1.187,1.186h40.349a1.186,1.186,0,0,0,1.187-1.186v-3.561A4.752,4.752,0,0,0,360.413,106.607ZM329.558,89.993a14.241,14.241,0,1,1,28.482,0v16.614H329.558Zm33.229,23.735H324.811v-2.374a2.375,2.375,0,0,1,2.373-2.373h33.229a2.376,2.376,0,0,1,2.374,2.373Z" fill="#60c1dd"/>
              <path id="Trazado_119921" data-name="Trazado 119921" d="M343.8,71a1.186,1.186,0,0,0,1.186-1.187V65.071a1.186,1.186,0,1,0-2.373,0v4.747A1.186,1.186,0,0,0,343.8,71Z" fill="#60c1dd"/>
              <path id="Trazado_119922" data-name="Trazado 119922" d="M355.664,72.192a1.184,1.184,0,0,0,.839-.348l3.563-3.56a1.187,1.187,0,1,0-1.679-1.679l-3.562,3.561a1.187,1.187,0,0,0,.839,2.026Z" fill="#60c1dd"/>
              <path id="Trazado_119923" data-name="Trazado 119923" d="M331.09,71.844a1.187,1.187,0,0,0,1.678-1.678l-3.558-3.561a1.187,1.187,0,1,0-1.678,1.679Z" fill="#60c1dd"/>
              <path id="Trazado_119924" data-name="Trazado 119924" d="M369.782,77.594a1.19,1.19,0,0,0-1.593-.53l-4.747,2.373A1.187,1.187,0,0,0,364.5,81.56l4.747-2.373A1.188,1.188,0,0,0,369.782,77.594Z" fill="#60c1dd"/>
              <path id="Trazado_119925" data-name="Trazado 119925" d="M323.624,81.685a1.187,1.187,0,0,0,.531-2.248l-4.747-2.373a1.187,1.187,0,1,0-1.062,2.123l4.747,2.373A1.189,1.189,0,0,0,323.624,81.685Z" fill="#60c1dd"/>
              <path id="Trazado_119926" data-name="Trazado 119926" d="M343.8,78.125a11.881,11.881,0,0,0-11.868,11.868,1.187,1.187,0,1,0,2.374,0A9.5,9.5,0,0,1,343.8,80.5a1.187,1.187,0,0,0,0-2.374Z" fill="#60c1dd"/>
            </g>
          </g>
        </g>
        <line id="Línea_179" data-name="Línea 179" y1="46.853" x2="46.853" transform="translate(320.372 66.566)" fill="#60c1dd" stroke="#c54f4e" stroke-linecap="round" stroke-miterlimit="10" stroke-width="3"/>
      </g>
      <g id="Grupo_91669" data-name="Grupo 91669">
        <g id="Grupo_91664" data-name="Grupo 91664">
          <g id="Grupo_91663" data-name="Grupo 91663">
            <path id="Trazado_119927" data-name="Trazado 119927" d="M400.519,313.985a20.736,20.736,0,1,0,20.736,20.736A20.724,20.724,0,0,0,400.519,313.985Zm0,38.232a17.5,17.5,0,1,1,17.5-17.5A17.486,17.486,0,0,1,400.519,352.217Z" fill="#7faccb"/>
          </g>
        </g>
        <g id="Grupo_91666" data-name="Grupo 91666">
          <g id="Grupo_91665" data-name="Grupo 91665">
            <path id="Trazado_119928" data-name="Trazado 119928" d="M400.519,324.424a1.619,1.619,0,0,0-1.619,1.62v10.432a1.62,1.62,0,1,0,3.239,0V326.044A1.62,1.62,0,0,0,400.519,324.424Z" fill="#7faccb"/>
          </g>
        </g>
        <g id="Grupo_91668" data-name="Grupo 91668">
          <g id="Grupo_91667" data-name="Grupo 91667">
            <circle id="Elipse_4100" data-name="Elipse 4100" cx="2.187" cy="2.187" r="2.187" transform="translate(398.333 340.08)" fill="#7faccb"/>
          </g>
        </g>
      </g>
      <g id="Grupo_91672" data-name="Grupo 91672">
        <g id="Grupo_91671" data-name="Grupo 91671">
          <g id="Grupo_91670" data-name="Grupo 91670">
            <path id="Trazado_119929" data-name="Trazado 119929" d="M358.258,347.615V331a16.615,16.615,0,0,0-33.229,0v16.615a4.752,4.752,0,0,0-4.747,4.747v3.56a1.186,1.186,0,0,0,1.186,1.187h40.35a1.186,1.186,0,0,0,1.187-1.187v-3.56A4.752,4.752,0,0,0,358.258,347.615ZM327.4,331a14.241,14.241,0,1,1,28.482,0v16.615H327.4Zm33.229,23.735H322.655v-2.373a2.376,2.376,0,0,1,2.374-2.374h33.229a2.376,2.376,0,0,1,2.373,2.374Z" fill="#7faccb"/>
            <path id="Trazado_119930" data-name="Trazado 119930" d="M341.643,312.012a1.186,1.186,0,0,0,1.187-1.187v-4.747a1.187,1.187,0,0,0-2.374,0v4.748A1.186,1.186,0,0,0,341.643,312.012Z" fill="#7faccb"/>
            <path id="Trazado_119931" data-name="Trazado 119931" d="M353.508,313.2a1.184,1.184,0,0,0,.84-.348l3.562-3.56a1.187,1.187,0,1,0-1.678-1.678l-3.563,3.56a1.187,1.187,0,0,0,.839,2.026Z" fill="#7faccb"/>
            <path id="Trazado_119932" data-name="Trazado 119932" d="M328.934,312.851a1.187,1.187,0,0,0,1.678-1.678l-3.557-3.56a1.187,1.187,0,0,0-1.679,1.678Z" fill="#7faccb"/>
            <path id="Trazado_119933" data-name="Trazado 119933" d="M367.627,318.6a1.19,1.19,0,0,0-1.593-.531l-4.747,2.374a1.187,1.187,0,0,0,.531,2.248,1.208,1.208,0,0,0,.531-.125l4.747-2.374A1.188,1.188,0,0,0,367.627,318.6Z" fill="#7faccb"/>
            <path id="Trazado_119934" data-name="Trazado 119934" d="M321.468,322.693a1.187,1.187,0,0,0,.531-2.248l-4.747-2.374a1.187,1.187,0,1,0-1.061,2.123l4.747,2.374A1.2,1.2,0,0,0,321.468,322.693Z" fill="#7faccb"/>
            <path id="Trazado_119935" data-name="Trazado 119935" d="M341.643,319.133A11.881,11.881,0,0,0,329.776,331a1.186,1.186,0,1,0,2.373,0,9.5,9.5,0,0,1,9.494-9.494,1.187,1.187,0,1,0,0-2.373Z" fill="#7faccb"/>
          </g>
        </g>
      </g>
      <line id="Línea_180" data-name="Línea 180" y1="46.853" x2="46.853" transform="translate(378.713 307.574)" fill="none" stroke="#c54f4e" stroke-linecap="round" stroke-miterlimit="10" stroke-width="3"/>
      <g id="Grupo_91679" data-name="Grupo 91679">
        <g id="Grupo_91674" data-name="Grupo 91674">
          <g id="Grupo_91673" data-name="Grupo 91673">
            <path id="Trazado_119936" data-name="Trazado 119936" d="M163.369,313.985A20.736,20.736,0,1,0,184.1,334.721,20.724,20.724,0,0,0,163.369,313.985Zm0,38.232a17.5,17.5,0,1,1,17.5-17.5A17.486,17.486,0,0,1,163.369,352.217Z" fill="#7faccb"/>
          </g>
        </g>
        <g id="Grupo_91676" data-name="Grupo 91676">
          <g id="Grupo_91675" data-name="Grupo 91675">
            <path id="Trazado_119937" data-name="Trazado 119937" d="M163.369,324.424a1.62,1.62,0,0,0-1.62,1.62v10.432a1.62,1.62,0,0,0,3.24,0V326.044A1.62,1.62,0,0,0,163.369,324.424Z" fill="#7faccb"/>
          </g>
        </g>
        <g id="Grupo_91678" data-name="Grupo 91678">
          <g id="Grupo_91677" data-name="Grupo 91677">
            <circle id="Elipse_4101" data-name="Elipse 4101" cx="2.187" cy="2.187" r="2.187" transform="translate(161.182 340.08)" fill="#7faccb"/>
          </g>
        </g>
      </g>
      <g id="Grupo_91682" data-name="Grupo 91682">
        <g id="Grupo_91681" data-name="Grupo 91681">
          <g id="Grupo_91680" data-name="Grupo 91680">
            <path id="Trazado_119938" data-name="Trazado 119938" d="M121.107,347.615V331a16.615,16.615,0,0,0-33.229,0v16.615a4.752,4.752,0,0,0-4.747,4.747v3.56a1.186,1.186,0,0,0,1.187,1.187h40.349a1.186,1.186,0,0,0,1.187-1.187v-3.56A4.752,4.752,0,0,0,121.107,347.615ZM90.251,331a14.241,14.241,0,0,1,28.482,0v16.615H90.251Zm33.229,23.735H85.5v-2.373a2.376,2.376,0,0,1,2.374-2.374h33.229a2.376,2.376,0,0,1,2.373,2.374Z" fill="#7faccb"/>
            <path id="Trazado_119939" data-name="Trazado 119939" d="M104.492,312.012a1.186,1.186,0,0,0,1.187-1.187v-4.747a1.187,1.187,0,0,0-2.373,0v4.748A1.185,1.185,0,0,0,104.492,312.012Z" fill="#7faccb"/>
            <path id="Trazado_119940" data-name="Trazado 119940" d="M116.358,313.2a1.184,1.184,0,0,0,.839-.348l3.562-3.56a1.187,1.187,0,1,0-1.678-1.678l-3.562,3.56a1.187,1.187,0,0,0,.839,2.026Z" fill="#7faccb"/>
            <path id="Trazado_119941" data-name="Trazado 119941" d="M91.783,312.851a1.187,1.187,0,0,0,1.679-1.678l-3.558-3.56a1.187,1.187,0,1,0-1.678,1.678Z" fill="#7faccb"/>
            <path id="Trazado_119942" data-name="Trazado 119942" d="M130.476,318.6a1.19,1.19,0,0,0-1.593-.531l-4.747,2.374a1.187,1.187,0,0,0,.531,2.248,1.208,1.208,0,0,0,.531-.125l4.747-2.374A1.188,1.188,0,0,0,130.476,318.6Z" fill="#7faccb"/>
            <path id="Trazado_119943" data-name="Trazado 119943" d="M84.318,322.693a1.187,1.187,0,0,0,.53-2.248L80.1,318.071a1.187,1.187,0,1,0-1.061,2.123l4.747,2.374A1.2,1.2,0,0,0,84.318,322.693Z" fill="#7faccb"/>
            <path id="Trazado_119944" data-name="Trazado 119944" d="M104.492,319.133A11.881,11.881,0,0,0,92.625,331,1.187,1.187,0,1,0,95,331a9.5,9.5,0,0,1,9.494-9.494,1.187,1.187,0,1,0,0-2.373Z" fill="#7faccb"/>
          </g>
        </g>
      </g>
      <line id="Línea_181" data-name="Línea 181" y1="46.853" x2="46.853" transform="translate(81.066 307.574)" fill="none" stroke="#c54f4e" stroke-linecap="round" stroke-miterlimit="10" stroke-width="3"/>
      <line id="Línea_182" data-name="Línea 182" y1="46.853" x2="46.853" transform="translate(141.562 307.574)" fill="none" stroke="#c54f4e" stroke-linecap="round" stroke-miterlimit="10" stroke-width="3"/>
    </g>
  </g>
</svg>
