<svg xmlns="http://www.w3.org/2000/svg" xmlns:xlink="http://www.w3.org/1999/xlink" width="1240" height="513" viewBox="0 0 1240 513">
  <defs>
    <linearGradient id="linear-gradient" x1="20.676" y1="1.885" x2="22.624" y2="2.739" gradientUnits="objectBoundingBox">
      <stop offset="0.101" stop-color="#fff"/>
      <stop offset="1" stop-color="#231f20" stop-opacity="0"/>
    </linearGradient>
    <linearGradient id="linear-gradient-2" x1="7.248" y1="0.395" x2="8.165" y2="2.21" xlink:href="#linear-gradient"/>
    <linearGradient id="linear-gradient-3" x1="13.861" y1="0.247" x2="14.932" y2="-2.525" gradientUnits="objectBoundingBox">
      <stop offset="0" stop-color="#fff"/>
      <stop offset="1" stop-color="#231f20" stop-opacity="0"/>
    </linearGradient>
  </defs>
  <g id="Grupo_91684" data-name="Grupo 91684" transform="translate(-180 -3591)">
    <g id="Grupo_88908" data-name="Grupo 88908" transform="translate(0 -72)">
      <rect id="Rectángulo_35342" data-name="Rectángulo 35342" width="1240" height="513" rx="21" transform="translate(180 3663)" fill="#e8f6fa"/>
      <g id="Grupo_88906" data-name="Grupo 88906" transform="translate(2389.478 3633)">
        <g id="Grupo_87630" data-name="Grupo 87630" transform="translate(-2208.706 30)" style="mix-blend-mode: overlay;isolation: isolate">
          <path id="Trazado_101404" data-name="Trazado 101404" d="M-2212.052,187.515v1.766l111.9-111.9a28.979,28.979,0,0,0,0-40.939L-2136.588,0h-1.766l37.322,37.321a27.726,27.726,0,0,1,0,39.174Z" transform="translate(2212.052)" fill="#fff"/>
        </g>
        <path id="Trazado_101405" data-name="Trazado 101405" d="M-2206.478,163.426V529.06l164.37-164.371a26.1,26.1,0,0,0,0-36.893Z" transform="translate(-3 -11.788)" opacity="0.61" fill="url(#linear-gradient)"/>
        <path id="Trazado_101406" data-name="Trazado 101406" d="M-1584.256,458.122h351.948L-1390.526,299.9a25.117,25.117,0,0,0-35.512,0Z" transform="translate(214.698 83.033)" opacity="0.61" fill="url(#linear-gradient-2)"/>
        <path id="Trazado_101407" data-name="Trazado 101407" d="M-1590.727.979l70.218,70.218a39.549,39.549,0,0,0,55.937,0L-1394.354.979Z" transform="translate(168.841 29.021)" opacity="0.61" fill="url(#linear-gradient-3)"/>
      </g>
      <rect id="Rectángulo_35345" data-name="Rectángulo 35345" width="126" height="126" rx="15" transform="translate(1232.179 3943.267) rotate(45)" fill="#96d6e8"/>
      <rect id="Rectángulo_35346" data-name="Rectángulo 35346" width="59.371" height="59.371" rx="15" transform="translate(1238.198 3711.785) rotate(45)" fill="#b9e4ef"/>
    </g>
    <g id="CF1_grafico_1_copia" data-name="CF1_grafico 1 copia" transform="translate(845.479 3596.209)">
      <rect id="Rectángulo_35625" data-name="Rectángulo 35625" width="338.67" height="338.67" rx="30.3" transform="translate(10.521 250) rotate(-45)" fill="#bfe6f1"/>
      <path id="Trazado_114113" data-name="Trazado 114113" d="M461.32,441c0,.14-92.29.26-206.12.26S49.05,441.09,49.05,441s92.28-.27,206.15-.27S461.32,440.8,461.32,441Z" fill="#20242d"/>
      <g id="Grupo_89819" data-name="Grupo 89819">
        <g id="Grupo_89805" data-name="Grupo 89805">
          <g id="Grupo_89798" data-name="Grupo 89798">
            <path id="Trazado_114114" data-name="Trazado 114114" d="M319.13,430.09H136V79.05H381.22V367.32" fill="#fff"/>
            <path id="Trazado_114115" data-name="Trazado 114115" d="M381.22,367.32V346.43c0-13.6,0-33.53-.06-58.82C381.06,237,381,165,381,79.05l.23.23L136,79.31l.26-.26v.31c0,135,0,258.18-.06,350.73l-.2-.2,133.88.09h36.5l-36.5.05L136,430.29h-.2v-.2c0-92.55,0-215.78-.06-350.73v-.57H381.46v.23c0,85.92-.08,158-.1,208.57,0,25.29-.05,45.22-.06,58.82v19.54A8.935,8.935,0,0,1,381.22,367.32Z" fill="#20242d"/>
          </g>
          <rect id="Rectángulo_35626" data-name="Rectángulo 35626" width="107.11" height="57.74" transform="translate(151.51 100.82)" fill="#60c1dd"/>
          <path id="Trazado_114116" data-name="Trazado 114116" d="M361.69,114.16c0,.14-19.26.26-43,.26s-43-.12-43-.26,19.26-.26,43-.26S361.69,114,361.69,114.16Z" fill="#20242d"/>
          <path id="Trazado_114117" data-name="Trazado 114117" d="M361.69,124.51c0,.15-19.26.26-43,.26s-43-.11-43-.26,19.26-.26,43-.26S361.69,124.37,361.69,124.51Z" fill="#20242d"/>
          <path id="Trazado_114118" data-name="Trazado 114118" d="M361.69,134.87c0,.14-19.26.26-43,.26s-43-.12-43-.26,19.26-.26,43-.26S361.69,134.73,361.69,134.87Z" fill="#20242d"/>
          <path id="Trazado_114119" data-name="Trazado 114119" d="M327.46,145.23c0,.14-11.59.26-25.89.26s-25.9-.12-25.9-.26,11.6-.26,25.9-.26S327.46,145.08,327.46,145.23Z" fill="#20242d"/>
          <path id="Trazado_114120" data-name="Trazado 114120" d="M365,170.24c0,.15-47.52.26-106.13.26s-106.15-.11-106.15-.26,47.52-.26,106.15-.26S365,170.1,365,170.24Z" fill="#20242d"/>
          <path id="Trazado_114121" data-name="Trazado 114121" d="M365,176.62c0,.15-47,.26-105,.26s-105-.11-105-.26,47-.26,105-.26S365,176.48,365,176.62Z" fill="#20242d"/>
          <rect id="Rectángulo_35627" data-name="Rectángulo 35627" width="212.28" height="12.32" transform="translate(152.69 186.92)" fill="#e1e1e1"/>
          <rect id="Rectángulo_35628" data-name="Rectángulo 35628" width="212.28" height="12.32" transform="translate(150.41 299.83)" fill="#e1e1e1"/>
          <rect id="Rectángulo_35629" data-name="Rectángulo 35629" width="84.66" height="12.32" transform="translate(152.69 239.16)" fill="#e1e1e1"/>
          <rect id="Rectángulo_35630" data-name="Rectángulo 35630" width="105.85" height="12.32" transform="translate(256.84 239.16)" fill="#e1e1e1"/>
          <path id="Trazado_114122" data-name="Trazado 114122" d="M275.35,210.12c0,.14-27.24.26-60.84.26s-60.85-.12-60.85-.26,27.24-.26,60.85-.26S275.35,210,275.35,210.12Z" fill="#20242d"/>
          <path id="Trazado_114123" data-name="Trazado 114123" d="M363.79,219.81c0,.14-47.09.26-105.17.26s-105.19-.12-105.19-.26,47.09-.26,105.19-.26S363.79,219.67,363.79,219.81Z" fill="#20242d"/>
          <path id="Trazado_114124" data-name="Trazado 114124" d="M363.79,229c0,.15-47.09.26-105.17.26s-105.19-.11-105.19-.26,47.09-.26,105.19-.26S363.79,228.85,363.79,229Z" fill="#20242d"/>
          <path id="Trazado_114125" data-name="Trazado 114125" d="M236.62,259c0,.14-18.94.26-42.3.26S152,259.13,152,259s18.94-.26,42.3-.26S236.62,258.84,236.62,259Z" fill="#20242d"/>
          <path id="Trazado_114126" data-name="Trazado 114126" d="M236.62,268.45c0,.14-18.63.26-41.59.26s-41.6-.12-41.6-.26,18.62-.26,41.6-.26S236.62,268.31,236.62,268.45Z" fill="#20242d"/>
          <path id="Trazado_114127" data-name="Trazado 114127" d="M236.27,278.07c0,.14-18.78.26-42,.26s-41.95-.12-41.95-.26,18.78-.26,41.95-.26S236.27,277.92,236.27,278.07Z" fill="#20242d"/>
          <path id="Trazado_114128" data-name="Trazado 114128" d="M236.27,287.4c0,.15-18.78.26-42,.26s-41.95-.11-41.95-.26,18.78-.26,41.95-.26S236.27,287.26,236.27,287.4Z" fill="#20242d"/>
          <g id="Grupo_89799" data-name="Grupo 89799">
            <path id="Trazado_114129" data-name="Trazado 114129" d="M361.06,261.21c0,.14-19.61.26-43.81.26s-43.81-.12-43.81-.26,19.61-.26,43.81-.26S361.06,261.06,361.06,261.21Z" fill="#20242d"/>
            <path id="Trazado_114130" data-name="Trazado 114130" d="M266.71,264.22s-.06-.67-.11-1.73-.09-2.54-.11-4.3l.22.23h-6l.26-.26h0v6.02l-.23-.22c1.76,0,3.24.07,4.3.11a14.518,14.518,0,0,1,1.73.11,8.137,8.137,0,0,1-1.58.11c-1.05.05-2.59.1-4.45.12h-.22V258.2h0l.26-.26h6.23v.22c0,1.86-.07,3.4-.11,4.45a8.5,8.5,0,0,1-.19,1.61Z" fill="#20242d"/>
          </g>
          <g id="Grupo_89800" data-name="Grupo 89800">
            <path id="Trazado_114131" data-name="Trazado 114131" d="M361.06,272.8c0,.14-19.61.26-43.81.26s-43.81-.12-43.81-.26,19.61-.26,43.81-.26S361.06,272.65,361.06,272.8Z" fill="#20242d"/>
            <path id="Trazado_114132" data-name="Trazado 114132" d="M266.71,275.81s-.06-.67-.11-1.73-.09-2.54-.11-4.3l.22.22h-6l.26-.26h0v6.02l-.23-.22c1.76,0,3.24.07,4.3.11a14.518,14.518,0,0,1,1.73.11,8.137,8.137,0,0,1-1.58.11c-1.05.05-2.59.1-4.45.12h-.22v-6.25h0l.26-.26h6.23v.22c0,1.86-.07,3.4-.11,4.45A8.5,8.5,0,0,1,266.71,275.81Z" fill="#20242d"/>
          </g>
          <g id="Grupo_89801" data-name="Grupo 89801">
            <path id="Trazado_114133" data-name="Trazado 114133" d="M361.06,284.38c0,.15-19.61.27-43.81.27s-43.81-.12-43.81-.27,19.61-.26,43.81-.26S361.06,284.24,361.06,284.38Z" fill="#20242d"/>
            <path id="Trazado_114134" data-name="Trazado 114134" d="M266.71,287.4s-.06-.67-.11-1.73-.09-2.54-.11-4.3l.22.22h-6l.26-.26h0v6.07l-.23-.22c1.76,0,3.24.07,4.3.11a14.286,14.286,0,0,1,1.73.11,8.137,8.137,0,0,1-1.58.11c-1.05,0-2.59.09-4.45.12h-.22v-6.24h0l.26-.26h6.23v.23c0,1.86-.07,3.4-.11,4.44A8.712,8.712,0,0,1,266.71,287.4Z" fill="#20242d"/>
          </g>
          <g id="Grupo_89802" data-name="Grupo 89802">
            <path id="Trazado_114135" data-name="Trazado 114135" d="M361.06,380.2V365.13c0-9.75-.05-24-.09-42l.16.16-209,.1h0l.27-.26v57.06L152,380l149.28.12,43.85.07h.16l-43.79.07-149.5.2h-.25V322.88h.28l209,.1h.16v.16c0,18.05-.07,32.33-.09,42.11v14A8.137,8.137,0,0,1,361.06,380.2Z" fill="#20242d"/>
            <path id="Trazado_114136" data-name="Trazado 114136" d="M361.06,337.5c0,.15-46.66.26-104.21.26s-104.23-.11-104.23-.26,46.65-.26,104.23-.26S361.06,337.36,361.06,337.5Z" fill="#20242d"/>
            <path id="Trazado_114137" data-name="Trazado 114137" d="M361.06,351.67c0,.15-46.66.26-104.21.26s-104.23-.11-104.23-.26,46.65-.26,104.23-.26S361.06,351.53,361.06,351.67Z" fill="#20242d"/>
            <path id="Trazado_114138" data-name="Trazado 114138" d="M361.06,366c0,.14-46.66.26-104.21.26s-104.23-.12-104.23-.26,46.65-.26,104.23-.26S361.06,365.85,361.06,366Z" fill="#20242d"/>
            <path id="Trazado_114139" data-name="Trazado 114139" d="M176.33,380.7c-.14,0-.26-12.9-.26-28.82s.12-28.83.26-28.83.26,12.9.26,28.83S176.48,380.7,176.33,380.7Z" fill="#20242d"/>
            <path id="Trazado_114140" data-name="Trazado 114140" d="M247,379c-.15,0-.27-12.33-.27-27.53s.12-27.53.27-27.53.26,12.33.26,27.53S247.16,379,247,379Z" fill="#20242d"/>
            <path id="Trazado_114141" data-name="Trazado 114141" d="M321.49,381.57c-.14,0-.26-12.71-.26-28.39s.12-28.4.26-28.4.26,12.71.26,28.4S321.64,381.57,321.49,381.57Z" fill="#20242d"/>
          </g>
          <g id="Grupo_89803" data-name="Grupo 89803">
            <path id="Trazado_114142" data-name="Trazado 114142" d="M319.13,430.09l62.09-62.77H319.13Z" fill="#e1e1e1"/>
            <path id="Trazado_114143" data-name="Trazado 114143" d="M319.13,430.09c0-2.1-.1-25.95-.24-62.77v-.24h62.95l-.43.44-44.48,44.76-17.8,17.83L337,411.92l44-44.78.18.44H319.13l.24-.24C319.23,404.14,319.14,428,319.13,430.09Z" fill="#20242d"/>
          </g>
          <path id="Trazado_114144" data-name="Trazado 114144" d="M316.06,393c0,.15-36.5.26-81.51.26S153,393.14,153,393s36.49-.26,81.52-.26S316.06,392.85,316.06,393Z" fill="#20242d"/>
          <path id="Trazado_114145" data-name="Trazado 114145" d="M316.06,401.24c0,.15-36.5.26-81.51.26s-81.52-.11-81.52-.26,36.49-.26,81.52-.26S316.06,401.1,316.06,401.24Z" fill="#20242d"/>
          <path id="Trazado_114146" data-name="Trazado 114146" d="M227.22,409.49c0,.14-16.61.26-37.1.26s-37.09-.12-37.09-.26,16.6-.26,37.09-.26S227.22,409.35,227.22,409.49Z" fill="#20242d"/>
          <g id="Grupo_89804" data-name="Grupo 89804">
            <path id="Trazado_114147" data-name="Trazado 114147" d="M176.1,121.4h-9.38V117h24v4.45h-9.37v23.83H176.1Z" fill="#fff"/>
            <path id="Trazado_114148" data-name="Trazado 114148" d="M211.6,138.68H197.46l-2.79,6.55h-5.41L202,117h5.17l12.77,28.28h-5.5Zm-1.74-4.12-5.33-12.36-5.29,12.36Z" fill="#fff"/>
            <path id="Trazado_114149" data-name="Trazado 114149" d="M239.91,145.23l-7.68-10.75-7.59,10.75h-6l10.5-14.42L219.23,117h5.93l7.23,10,7.15-10h5.7l-9.9,13.66L246,145.23Z" fill="#fff"/>
          </g>
          <path id="Trazado_114150" data-name="Trazado 114150" d="M366.93,91.27c0,.15-48.21.26-107.67.26s-107.68-.11-107.68-.26S199.78,91,259.26,91,366.93,91.13,366.93,91.27Z" fill="#e1e1e1"/>
          <path id="Trazado_114151" data-name="Trazado 114151" d="M260,95.19c0,.14-24.27.26-54.2.26s-54.21-.12-54.21-.26,24.27-.26,54.21-.26S260,95.05,260,95.19Z" fill="#e1e1e1"/>
        </g>
        <g id="Grupo_89817" data-name="Grupo 89817">
          <g id="Grupo_89806" data-name="Grupo 89806">
            <rect id="Rectángulo_35631" data-name="Rectángulo 35631" width="269.24" height="382.15" rx="10.88" transform="translate(123.38 58.44)" fill="#e1e1e1"/>
            <path id="Trazado_114152" data-name="Trazado 114152" d="M381.74,440.59l.83-.06a11.59,11.59,0,0,0,2.43-.47,11.288,11.288,0,0,0,3.56-1.93,11,11,0,0,0,3.26-4.5,10.348,10.348,0,0,0,.71-3.29c.06-1.18,0-2.45,0-3.77V396.33c0-32.49,0-79.5-.09-137.59V69a10.57,10.57,0,0,0-2.4-6.41A10.7,10.7,0,0,0,384.1,59a14.82,14.82,0,0,0-3.54-.27H134.29a10.6,10.6,0,0,0-10.62,10.09c-.06,5.48,0,11,0,16.46V430.2a10.58,10.58,0,0,0,1.93,5.68,10.769,10.769,0,0,0,4.65,3.72,11.169,11.169,0,0,0,2.89.74c1,.09,2,.07,3,.07h57.59l137.59.08h37.41l-37.41.05-137.59.08H136.14c-1,0-2,0-3.06-.07a11.689,11.689,0,0,1-3-.77,11.181,11.181,0,0,1-4.83-3.86,10.92,10.92,0,0,1-2-5.9V68.77a11.13,11.13,0,0,1,11.14-10.59H380.56a15.42,15.42,0,0,1,3.64.28A11.08,11.08,0,0,1,392.84,69V258.75c0,58.09-.06,105.1-.08,137.59v34.02a10.27,10.27,0,0,1-.72,3.32,10.89,10.89,0,0,1-6.91,6.44,11.389,11.389,0,0,1-2.43.45Z" fill="#20242d"/>
          </g>
          <g id="Grupo_89807" data-name="Grupo 89807" opacity="0.3">
            <path id="Trazado_114153" data-name="Trazado 114153" d="M146.87,431.95H327l43.36-47V359.93L146.87,394.85Z"/>
          </g>
          <g id="Grupo_89808" data-name="Grupo 89808" opacity="0.3">
            <path id="Trazado_114154" data-name="Trazado 114154" d="M325.94,59.22l5.13,15.23v7.46h-5.79Z"/>
          </g>
          <g id="Grupo_89816" data-name="Grupo 89816">
            <g id="Grupo_89809" data-name="Grupo 89809">
              <path id="Trazado_114155" data-name="Trazado 114155" d="M318.52,424.79H135.39V73.75H380.61V362.02" fill="#fff"/>
              <path id="Trazado_114156" data-name="Trazado 114156" d="M380.61,362V341.11c0-13.6,0-33.53-.07-58.82,0-50.59-.05-122.65-.09-208.57l.23.23L135.39,74l.26-.26v.31c0,135-.05,258.18-.07,350.73l-.19-.2,133.87.09,36.51.05H269.26L135.39,425h-.2v-.2c0-92.55,0-215.78-.06-350.73V73.5H380.84v.23c0,85.92-.07,158-.09,208.57,0,25.29-.05,45.22-.07,58.82v19.54A9.4,9.4,0,0,1,380.61,362Z" fill="#20242d"/>
            </g>
            <rect id="Rectángulo_35632" data-name="Rectángulo 35632" width="107.11" height="57.74" transform="translate(150.89 95.52)" fill="#60c1dd"/>
            <path id="Trazado_114157" data-name="Trazado 114157" d="M361.08,108.86c0,.14-19.26.26-43,.26s-43-.12-43-.26,19.25-.26,43-.26S361.08,108.71,361.08,108.86Z" fill="#20242d"/>
            <path id="Trazado_114158" data-name="Trazado 114158" d="M361.08,119.21c0,.15-19.26.26-43,.26s-43-.11-43-.26,19.25-.26,43-.26S361.08,119.07,361.08,119.21Z" fill="#20242d"/>
            <path id="Trazado_114159" data-name="Trazado 114159" d="M361.08,129.57c0,.14-19.26.26-43,.26s-43-.12-43-.26,19.25-.26,43-.26S361.08,129.43,361.08,129.57Z" fill="#20242d"/>
            <path id="Trazado_114160" data-name="Trazado 114160" d="M326.85,139.93c0,.14-11.59.26-25.89.26s-25.9-.12-25.9-.26,11.59-.26,25.9-.26S326.85,139.78,326.85,139.93Z" fill="#20242d"/>
            <path id="Trazado_114161" data-name="Trazado 114161" d="M364.36,164.94c0,.15-47.52.26-106.14.26s-106.14-.11-106.14-.26,47.51-.26,106.14-.26S364.36,164.8,364.36,164.94Z" fill="#20242d"/>
            <path id="Trazado_114162" data-name="Trazado 114162" d="M364.36,171.32c0,.15-47,.26-105,.26s-105-.11-105-.26,47-.26,105-.26S364.36,171.18,364.36,171.32Z" fill="#20242d"/>
            <rect id="Rectángulo_35633" data-name="Rectángulo 35633" width="212.28" height="12.32" transform="translate(152.08 181.62)" fill="#e1e1e1"/>
            <rect id="Rectángulo_35634" data-name="Rectángulo 35634" width="212.28" height="12.32" transform="translate(149.79 294.53)" fill="#e1e1e1"/>
            <rect id="Rectángulo_35635" data-name="Rectángulo 35635" width="84.66" height="12.32" transform="translate(152.08 233.85)" fill="#e1e1e1"/>
            <rect id="Rectángulo_35636" data-name="Rectángulo 35636" width="105.85" height="12.32" transform="translate(256.23 233.85)" fill="#e1e1e1"/>
            <path id="Trazado_114163" data-name="Trazado 114163" d="M274.73,204.82c0,.14-27.24.26-60.84.26s-60.84-.12-60.84-.26,27.23-.26,60.84-.26S274.73,204.67,274.73,204.82Z" fill="#20242d"/>
            <path id="Trazado_114164" data-name="Trazado 114164" d="M363.18,214.51c0,.14-47.1.26-105.18.26s-105.18-.12-105.18-.26,47.08-.26,105.18-.26S363.18,214.37,363.18,214.51Z" fill="#20242d"/>
            <path id="Trazado_114165" data-name="Trazado 114165" d="M363.18,223.69c0,.15-47.1.26-105.18.26s-105.18-.11-105.18-.26,47.08-.26,105.18-.26S363.18,223.55,363.18,223.69Z" fill="#20242d"/>
            <path id="Trazado_114166" data-name="Trazado 114166" d="M236,253.69c0,.14-18.93.26-42.29.26s-42.3-.12-42.3-.26,18.93-.26,42.3-.26S236,253.54,236,253.69Z" fill="#20242d"/>
            <path id="Trazado_114167" data-name="Trazado 114167" d="M236,263.15c0,.14-18.62.26-41.59.26s-41.6-.12-41.6-.26,18.62-.26,41.6-.26S236,263,236,263.15Z" fill="#20242d"/>
            <path id="Trazado_114168" data-name="Trazado 114168" d="M235.66,272.77c0,.14-18.79.26-41.95.26s-42-.12-42-.26,18.77-.26,42-.26S235.66,272.62,235.66,272.77Z" fill="#20242d"/>
            <path id="Trazado_114169" data-name="Trazado 114169" d="M235.66,282.1c0,.15-18.79.26-41.95.26s-42-.11-42-.26,18.77-.26,42-.26S235.66,282,235.66,282.1Z" fill="#20242d"/>
            <g id="Grupo_89810" data-name="Grupo 89810">
              <path id="Trazado_114170" data-name="Trazado 114170" d="M360.45,255.91c0,.14-19.62.26-43.81.26s-43.81-.12-43.81-.26,19.61-.26,43.81-.26S360.45,255.76,360.45,255.91Z" fill="#20242d"/>
              <path id="Trazado_114171" data-name="Trazado 114171" d="M266.1,258.92a14.513,14.513,0,0,1-.11-1.73c0-1.06-.09-2.54-.11-4.3l.22.23h-6l.26-.26h0v6.02l-.22-.22c1.76,0,3.24.07,4.3.11a14.518,14.518,0,0,1,1.73.11,8.458,8.458,0,0,1-1.59.11c-1.05.05-2.58.1-4.44.12h-.23V252.9h0l.26-.26h6.23v.22c0,1.86-.08,3.4-.12,4.45A9.371,9.371,0,0,1,266.1,258.92Z" fill="#20242d"/>
            </g>
            <g id="Grupo_89811" data-name="Grupo 89811">
              <path id="Trazado_114172" data-name="Trazado 114172" d="M360.45,267.5c0,.14-19.62.26-43.81.26s-43.81-.12-43.81-.26,19.61-.26,43.81-.26S360.45,267.35,360.45,267.5Z" fill="#20242d"/>
              <path id="Trazado_114173" data-name="Trazado 114173" d="M266.1,270.51a14.52,14.52,0,0,1-.11-1.73c0-1.06-.09-2.54-.11-4.3l.22.22h-6l.26-.26h0v6.01l-.22-.22c1.76,0,3.24.07,4.3.11a14.518,14.518,0,0,1,1.73.11,8.46,8.46,0,0,1-1.59.11c-1.05.05-2.58.1-4.44.12h-.23V264.5h0c-.24.23.31-.32.26-.26h6.23v.22c0,1.86-.08,3.4-.12,4.44a9.429,9.429,0,0,1-.18,1.61Z" fill="#20242d"/>
            </g>
            <g id="Grupo_89812" data-name="Grupo 89812">
              <path id="Trazado_114174" data-name="Trazado 114174" d="M360.45,279.08c0,.15-19.62.27-43.81.27s-43.81-.12-43.81-.27,19.61-.26,43.81-.26S360.45,278.94,360.45,279.08Z" fill="#20242d"/>
              <path id="Trazado_114175" data-name="Trazado 114175" d="M266.1,282.1a14.519,14.519,0,0,1-.11-1.73c0-1.06-.09-2.54-.11-4.3l.22.22h-6l.26-.26h0v6.01l-.22-.22c1.76,0,3.24.07,4.3.11a14.52,14.52,0,0,1,1.73.11,9.759,9.759,0,0,1-1.59.11c-1.05,0-2.58.09-4.44.12h-.23v-6.24h0l.26-.26h6.23V276c0,1.86-.08,3.4-.12,4.44A9.6,9.6,0,0,1,266.1,282.1Z" fill="#20242d"/>
            </g>
            <g id="Grupo_89813" data-name="Grupo 89813">
              <path id="Trazado_114176" data-name="Trazado 114176" d="M360.45,374.9V359.83c0-9.75-.05-24-.08-42l.16.16-209,.1h0l.26-.26v57.06l-.25-.25,149.28.12,43.85.07h.17l-43.79.07-149.46.12h-.25V317.44h.27l209,.1h.16v.16c0,18.05-.07,32.33-.09,42.11v14A2.554,2.554,0,0,1,360.45,374.9Z" fill="#20242d"/>
              <path id="Trazado_114177" data-name="Trazado 114177" d="M360.45,332.2c0,.14-46.67.26-104.22.26S152,332.34,152,332.2s46.66-.26,104.23-.26S360.45,332.06,360.45,332.2Z" fill="#20242d"/>
              <path id="Trazado_114178" data-name="Trazado 114178" d="M360.45,346.37c0,.15-46.67.26-104.22.26S152,346.52,152,346.37s46.66-.26,104.23-.26S360.45,346.23,360.45,346.37Z" fill="#20242d"/>
              <path id="Trazado_114179" data-name="Trazado 114179" d="M360.45,360.7c0,.14-46.67.26-104.22.26S152,360.84,152,360.7s46.66-.26,104.23-.26S360.45,360.55,360.45,360.7Z" fill="#20242d"/>
              <path id="Trazado_114180" data-name="Trazado 114180" d="M175.72,375.4c-.15,0-.26-12.9-.26-28.82s.11-28.83.26-28.83.26,12.9.26,28.83S175.86,375.4,175.72,375.4Z" fill="#20242d"/>
              <path id="Trazado_114181" data-name="Trazado 114181" d="M246.4,373.67c-.14,0-.26-12.33-.26-27.53s.12-27.53.26-27.53.26,12.33.26,27.53S246.54,373.67,246.4,373.67Z" fill="#20242d"/>
              <path id="Trazado_114182" data-name="Trazado 114182" d="M320.88,376.27c-.14,0-.26-12.71-.26-28.39s.12-28.4.26-28.4.26,12.71.26,28.4S321,376.27,320.88,376.27Z" fill="#20242d"/>
            </g>
            <g id="Grupo_89814" data-name="Grupo 89814">
              <path id="Trazado_114183" data-name="Trazado 114183" d="M318.52,424.79l62.09-62.77H318.52Z" fill="#e1e1e1"/>
              <path id="Trazado_114184" data-name="Trazado 114184" d="M318.52,424.79c0-2.1-.1-26-.24-62.77v-.24h62.95l-.44.44L336.31,407l-17.79,17.84c.88-.91,6.87-7,17.82-18.17l44.09-44.78.18.44H318.52l.23-.24C318.61,398.84,318.52,422.69,318.52,424.79Z" fill="#20242d"/>
            </g>
            <path id="Trazado_114185" data-name="Trazado 114185" d="M315.45,387.69c0,.15-36.5.26-81.52.26s-81.52-.11-81.52-.26,36.5-.26,81.52-.26S315.45,387.55,315.45,387.69Z" fill="#20242d"/>
            <path id="Trazado_114186" data-name="Trazado 114186" d="M315.45,395.94c0,.15-36.5.26-81.52.26s-81.52-.11-81.52-.26,36.5-.26,81.52-.26S315.45,395.8,315.45,395.94Z" fill="#20242d"/>
            <path id="Trazado_114187" data-name="Trazado 114187" d="M226.6,404.19c0,.14-16.61.26-37.09.26s-37.1-.12-37.1-.26,16.61-.26,37.1-.26S226.6,404.05,226.6,404.19Z" fill="#20242d"/>
            <path id="Trazado_114188" data-name="Trazado 114188" d="M366.31,86c0,.15-48.21.26-107.66.26S151,86.12,151,86s48.2-.26,107.68-.26S366.31,85.83,366.31,86Z" fill="#e1e1e1"/>
            <path id="Trazado_114189" data-name="Trazado 114189" d="M259.38,89.89c0,.14-24.27.26-54.2.26S151,90,151,89.89s24.26-.26,54.21-.26S259.38,89.75,259.38,89.89Z" fill="#e1e1e1"/>
            <g id="Grupo_89815" data-name="Grupo 89815">
              <path id="Trazado_114190" data-name="Trazado 114190" d="M173.3,128.14a8.26,8.26,0,0,1-2.77,5.91,9.74,9.74,0,0,1-6.59,2.16,8.77,8.77,0,0,1-7-3q-2.57-3-2.57-8.28V123.5a13.92,13.92,0,0,1,1.18-5.91,8.86,8.86,0,0,1,3.38-3.92,10.56,10.56,0,0,1,11.6.79,8.81,8.81,0,0,1,2.84,6.05h-4.79a4.84,4.84,0,0,0-1.26-3.26,4.62,4.62,0,0,0-3.28-1,4.06,4.06,0,0,0-3.59,1.72,9.66,9.66,0,0,0-1.22,5.33V125a10.32,10.32,0,0,0,1.14,5.51,4,4,0,0,0,3.61,1.74,4.75,4.75,0,0,0,3.31-1,4.62,4.62,0,0,0,1.26-3.14Z" fill="#fff"/>
              <path id="Trazado_114191" data-name="Trazado 114191" d="M175.43,127.08a10.24,10.24,0,0,1,1-4.58,7.19,7.19,0,0,1,2.85-3.12,8.26,8.26,0,0,1,4.32-1.1,7.88,7.88,0,0,1,5.72,2.14,8.6,8.6,0,0,1,2.46,5.82v1.18a9,9,0,0,1-2.22,6.38,8.6,8.6,0,0,1-11.93,0,9.18,9.18,0,0,1-2.23-6.52Zm4.61.33a6.46,6.46,0,0,0,.93,3.77,3.34,3.34,0,0,0,5.28,0,7.11,7.11,0,0,0,.94-4.12,6.44,6.44,0,0,0-.94-3.74,3.07,3.07,0,0,0-2.66-1.33,3,3,0,0,0-2.62,1.32,7.17,7.17,0,0,0-.97,4.1Z" fill="#fff"/>
              <path id="Trazado_114192" data-name="Trazado 114192" d="M204,131.11a1.48,1.48,0,0,0-.84-1.33,9.49,9.49,0,0,0-2.7-.88q-6.16-1.29-6.16-5.24a4.73,4.73,0,0,1,1.91-3.84,7.67,7.67,0,0,1,5-1.54,8.28,8.28,0,0,1,5.27,1.55,4.88,4.88,0,0,1,2,4h-4.62a2.2,2.2,0,0,0-.64-1.63,3.36,3.36,0,0,0-3.8-.12,1.65,1.65,0,0,0-.64,1.34,1.43,1.43,0,0,0,.73,1.24,7.57,7.57,0,0,0,2.45.81,19.912,19.912,0,0,1,2.91.78q3.66,1.33,3.66,4.65a4.51,4.51,0,0,1-2,3.82,8.73,8.73,0,0,1-5.24,1.47,9.08,9.08,0,0,1-3.86-.78,6.4,6.4,0,0,1-2.65-2.12,5,5,0,0,1-1-2.92h4.38a2.43,2.43,0,0,0,.91,1.89,3.66,3.66,0,0,0,2.27.65,3.4,3.4,0,0,0,2-.5,1.59,1.59,0,0,0,.66-1.3Z" fill="#fff"/>
              <path id="Trazado_114193" data-name="Trazado 114193" d="M217,114.35v4.25h3V122h-3v8.63a2.05,2.05,0,0,0,.37,1.38,1.81,1.81,0,0,0,1.4.41,6.93,6.93,0,0,0,1.36-.11v3.5a9.4,9.4,0,0,1-2.8.42c-3.23,0-4.89-1.64-5-4.91V122h-2.52v-3.4h2.52v-4.25Z" fill="#fff"/>
              <path id="Trazado_114194" data-name="Trazado 114194" d="M221.34,127.08a10.24,10.24,0,0,1,1-4.58,7.19,7.19,0,0,1,2.85-3.12,8.32,8.32,0,0,1,4.33-1.1,7.87,7.87,0,0,1,5.71,2.14,8.57,8.57,0,0,1,2.47,5.82v1.18a9,9,0,0,1-2.22,6.38,8.6,8.6,0,0,1-11.93,0,9.18,9.18,0,0,1-2.23-6.52Zm4.62.33a6.46,6.46,0,0,0,.93,3.77,3.33,3.33,0,0,0,5.27,0,7,7,0,0,0,.94-4.12,6.36,6.36,0,0,0-.94-3.74,3.05,3.05,0,0,0-2.65-1.33,3,3,0,0,0-2.62,1.32,7.17,7.17,0,0,0-.89,4.1Z" fill="#fff"/>
              <path id="Trazado_114195" data-name="Trazado 114195" d="M249.93,131.11a1.48,1.48,0,0,0-.84-1.33,9.51,9.51,0,0,0-2.69-.88q-6.17-1.29-6.17-5.24a4.76,4.76,0,0,1,1.91-3.84,7.69,7.69,0,0,1,5-1.54,8.26,8.26,0,0,1,5.27,1.55,4.85,4.85,0,0,1,2,4H249.8a2.24,2.24,0,0,0-.64-1.63,3.38,3.38,0,0,0-3.81-.12,1.68,1.68,0,0,0-.64,1.34,1.45,1.45,0,0,0,.73,1.24,7.66,7.66,0,0,0,2.45.81,19.911,19.911,0,0,1,2.91.78q3.66,1.33,3.66,4.65a4.48,4.48,0,0,1-2,3.82,8.71,8.71,0,0,1-5.24,1.47,9.08,9.08,0,0,1-3.86-.78,6.43,6.43,0,0,1-2.64-2.12,5,5,0,0,1-1-2.92h4.38a2.4,2.4,0,0,0,.91,1.89,3.64,3.64,0,0,0,2.27.65,3.37,3.37,0,0,0,2-.5,1.59,1.59,0,0,0,.65-1.3Z" fill="#fff"/>
            </g>
          </g>
        </g>
        <g id="Grupo_89818" data-name="Grupo 89818">
          <path id="Trazado_114196" data-name="Trazado 114196" d="M208.19,48.92H319.61a6.33,6.33,0,0,1,6.33,6.33V84.91H201.86V55.25A6.33,6.33,0,0,1,208.19,48.92Z" fill="#20242d"/>
          <path id="Trazado_114197" data-name="Trazado 114197" d="M279.69,35.39H248.11l3.69,27.06h23.79Z" fill="#20242d"/>
          <path id="Trazado_114198" data-name="Trazado 114198" d="M318,48.92c0,.14-24.21.26-54.07.26s-54.07-.12-54.07-.26,24.2-.26,54.07-.26S318,48.78,318,48.92Z" fill="#30616f"/>
          <path id="Trazado_114199" data-name="Trazado 114199" d="M204.64,79.1c-.15,0-.26-5.09-.26-11.37s.11-11.37.26-11.37.26,5.09.26,11.37S204.78,79.1,204.64,79.1Z" fill="#30616f"/>
          <path id="Trazado_114200" data-name="Trazado 114200" d="M321.92,76.41c-.14,0-.26-4.62-.26-10.32s.12-10.33.26-10.33.26,4.63.26,10.33S322.06,76.41,321.92,76.41Z" fill="#30616f"/>
          <path id="Trazado_114201" data-name="Trazado 114201" d="M315.94,81.2c0,.14-24.85.26-55.5.26s-55.5-.12-55.5-.26,24.84-.26,55.5-.26S315.94,81.05,315.94,81.2Z" fill="#30616f"/>
        </g>
      </g>
      <g id="Grupo_89828" data-name="Grupo 89828">
        <g id="Grupo_89820" data-name="Grupo 89820">
          <path id="Trazado_114202" data-name="Trazado 114202" d="M171.85,440.78l-97-.06a21.14,21.14,0,0,1-21.12-21.14V176.35A21.13,21.13,0,0,1,74.9,155.22l97,.05a21.14,21.14,0,0,1,21.12,21.14L193,419.65a21.14,21.14,0,0,1-21.15,21.13Z" fill="#20242d"/>
          <path id="Trazado_114203" data-name="Trazado 114203" d="M171.82,163.88H153a4.67,4.67,0,0,0-4.57,4.77v3.41a4.67,4.67,0,0,1-4.57,4.77H107.2a4.68,4.68,0,0,1-4.57-4.78v-3.41a4.67,4.67,0,0,0-4.57-4.78H75a14.79,14.79,0,0,0-14.8,14.8V416.07a14.81,14.81,0,0,0,14.79,14.81l96.83.05a14.8,14.8,0,0,0,14.81-14.8V178.72a14.79,14.79,0,0,0-14.81-14.84Z" fill="#fff"/>
        </g>
        <path id="Trazado_114204" data-name="Trazado 114204" d="M60.14,262.1H186.61V418.16a12.73,12.73,0,0,1-12.73,12.73h-101a12.73,12.73,0,0,1-12.73-12.73V262.1Z" fill="#f5f5f5"/>
        <rect id="Rectángulo_35637" data-name="Rectángulo 35637" width="95.53" height="35.25" transform="translate(60.14 261.79)" fill="#e1e1e1"/>
        <path id="Trazado_114205" data-name="Trazado 114205" d="M175.35,430.89a11.26,11.26,0,0,0,11.26-11.26V262.1H155.67V430.89Z" fill="#60c1dd"/>
        <path id="Trazado_114206" data-name="Trazado 114206" d="M183.71,297.36c0,.14-28,.26-62.54.26s-62.55-.12-62.55-.26,28-.26,62.55-.26S183.71,297.21,183.71,297.36Z" fill="#20242d"/>
        <path id="Trazado_114207" data-name="Trazado 114207" d="M183.71,331.65c0,.15-28,.26-62.54.26s-62.55-.11-62.55-.26,28-.26,62.55-.26S183.71,331.51,183.71,331.65Z" fill="#20242d"/>
        <path id="Trazado_114208" data-name="Trazado 114208" d="M183.71,368c0,.14-28,.26-62.54.26s-62.55-.12-62.55-.26,28-.26,62.55-.26S183.71,367.82,183.71,368Z" fill="#20242d"/>
        <path id="Trazado_114209" data-name="Trazado 114209" d="M183.71,402.26c0,.15-28,.26-62.54.26s-62.55-.11-62.55-.26,28-.26,62.55-.26S183.71,402.12,183.71,402.26Z" fill="#20242d"/>
        <path id="Trazado_114210" data-name="Trazado 114210" d="M91.08,402.26c-.14,0-.26-31.27-.26-69.83s.12-69.84.26-69.84.27,31.26.27,69.84S91.23,402.26,91.08,402.26Z" fill="#20242d"/>
        <path id="Trazado_114211" data-name="Trazado 114211" d="M123.38,431c-.15,0-.26-37.7-.26-84.18s.11-84.19.26-84.19.26,37.68.26,84.19S123.52,431,123.38,431Z" fill="#20242d"/>
        <path id="Trazado_114212" data-name="Trazado 114212" d="M155.67,430.89c-.14,0-.26-37.68-.26-84.15s.12-84.15.26-84.15.26,37.67.26,84.15S155.81,430.89,155.67,430.89Z" fill="#20242d"/>
        <path id="Trazado_114213" data-name="Trazado 114213" d="M79.91,309.83V311l-4.76,10.6H73.37L78,311.3H72.64v2.1H71v-3.57Z" fill="#20242d"/>
        <path id="Trazado_114214" data-name="Trazado 114214" d="M112.3,318.27c0,2.14-1.82,3.47-4.69,3.47s-4.66-1.33-4.66-3.47a2.92,2.92,0,0,1,2.07-2.84,2.65,2.65,0,0,1-1.65-2.54c0-2,1.7-3.19,4.24-3.19s4.27,1.23,4.27,3.19a2.68,2.68,0,0,1-1.66,2.54,2.93,2.93,0,0,1,2.08,2.84Zm-1.68,0c0-1.29-1.14-2.1-3-2.1s-3,.81-3,2.1,1.11,2.16,3,2.16,3-.88,3-2.21ZM105,313c0,1.16.95,1.88,2.57,1.88s2.62-.72,2.62-1.88-1-1.9-2.62-1.9S105,311.78,105,313Z" fill="#20242d"/>
        <path id="Trazado_114215" data-name="Trazado 114215" d="M144.12,315.57c0,4-2.27,6.17-5.57,6.17a5.66,5.66,0,0,1-2.92-.69l.64-1.31a4.16,4.16,0,0,0,2.27.55c2.39,0,3.9-1.5,3.9-4.44v-.42A3.92,3.92,0,0,1,139,317c-2.34,0-4-1.4-4-3.57s1.82-3.71,4.16-3.71C142.34,309.7,144.12,311.82,144.12,315.57Zm-2.07-2.24c0-1.21-1-2.27-2.81-2.27a2.32,2.32,0,0,0-2.59,2.29c0,1.38,1,2.27,2.68,2.27a2.45,2.45,0,0,0,2.72-2.29Z" fill="#20242d"/>
        <path id="Trazado_114216" data-name="Trazado 114216" d="M134.4,277.65a2.5,2.5,0,1,1,.625,1.952A2.51,2.51,0,0,1,134.4,277.65Zm3.55,0c0-1.07-.42-1.59-1-1.59s-1.05.53-1.05,1.59.43,1.6,1.05,1.6,1.05-.52,1.05-1.6Zm4.94-2.65h1.71l-6.87,10.06H136Zm-1.65,7.4a2.5,2.5,0,1,1,.623,1.938A2.51,2.51,0,0,1,141.24,282.4Zm3.53,0c0-1.07-.41-1.6-1.05-1.6s-1,.52-1,1.6.43,1.59,1,1.59S144.77,283.46,144.77,282.4Z" fill="#20242d"/>
        <path id="Trazado_114217" data-name="Trazado 114217" d="M71.41,280a5.12,5.12,0,0,1,5.36-5.17,5,5,0,0,1,3.85,1.57l-.94.91a3.77,3.77,0,0,0-2.85-1.2,3.89,3.89,0,0,0,0,7.78,3.76,3.76,0,0,0,2.85-1.22l.94.91a5,5,0,0,1-3.86,1.59A5.12,5.12,0,0,1,71.41,280Z" fill="#20242d"/>
        <path id="Trazado_114218" data-name="Trazado 114218" d="M81.57,354.19H79.34v2.89H77.71v-2.89H71.17V353l6-7.7H79l-5.77,7.43h4.53v-2.56h1.58v2.56h2.23Z" fill="#20242d"/>
        <path id="Trazado_114219" data-name="Trazado 114219" d="M111.28,353.55c0,2-1.45,3.66-4.46,3.66a6.68,6.68,0,0,1-4.32-1.43l.77-1.32a5.28,5.28,0,0,0,3.53,1.26c1.78,0,2.79-.83,2.79-2.11s-.84-2.15-3.56-2.15h-2.67l.62-6.15h6.64v1.46h-5.23l-.32,3.23h1.31C109.9,350,111.28,351.46,111.28,353.55Z" fill="#20242d"/>
        <path id="Trazado_114220" data-name="Trazado 114220" d="M144.47,353.5c0,2.27-1.83,3.71-4.17,3.71-3.16,0-4.94-2.12-4.94-5.87,0-4,2.27-6.17,5.57-6.17a5.66,5.66,0,0,1,2.92.69l-.64,1.31a4.09,4.09,0,0,0-2.25-.55c-2.39,0-3.92,1.5-3.92,4.44a3.1,3.1,0,0,0,0,.42,3.9,3.9,0,0,1,3.38-1.55C142.78,349.93,144.47,351.33,144.47,353.5Zm-1.63.06c0-1.37-1-2.27-2.69-2.27a2.45,2.45,0,0,0-2.71,2.29c0,1.21,1,2.27,2.8,2.27a2.32,2.32,0,0,0,2.6-2.29Z" fill="#20242d"/>
        <path id="Trazado_114221" data-name="Trazado 114221" d="M75,380.1v11.77H73.32V381.56H70.66V380.1Z" fill="#20242d"/>
        <path id="Trazado_114222" data-name="Trazado 114222" d="M111.29,390.41v1.46h-8.46v-1.14l4.8-4.63c1.24-1.21,1.48-2,1.48-2.69,0-1.21-.86-2-2.51-2a3.71,3.71,0,0,0-3,1.28l-1.14-1a5.41,5.41,0,0,1,4.3-1.78c2.46,0,4,1.26,4,3.28,0,1.14-.34,2.16-1.94,3.69l-3.59,3.47Z" fill="#20242d"/>
        <path id="Trazado_114223" data-name="Trazado 114223" d="M143.41,388.41c0,2-1.46,3.6-4.45,3.6a6.68,6.68,0,0,1-4.32-1.43l.77-1.33a5.3,5.3,0,0,0,3.55,1.26c1.76,0,2.77-.81,2.77-2.09s-.89-2.05-2.91-2.05h-.94V385.2l3-3.64h-5.67V380.1h7.77v1.14l-3.07,3.8C142.22,385.26,143.41,386.59,143.41,388.41Z" fill="#20242d"/>
        <path id="Trazado_114224" data-name="Trazado 114224" d="M85.35,416.52c0-3.83,2.05-6,4.81-6s4.79,2.19,4.79,6-2,6-4.79,6S85.35,420.36,85.35,416.52Zm7.92,0c0-3-1.28-4.52-3.11-4.52S87,413.51,87,416.52s1.28,4.53,3.13,4.53S93.27,419.53,93.27,416.52Z" fill="#20242d"/>
        <path id="Trazado_114225" data-name="Trazado 114225" d="M140.86,417.05a3.41,3.41,0,0,1-.29,1.21l-.79,2.33h-1.06l.63-2.5a1.07,1.07,0,0,1-.71-1,1.1,1.1,0,0,1,1.13-1.15,1.08,1.08,0,0,1,1.09,1.11Z" fill="#20242d"/>
        <rect id="Rectángulo_35638" data-name="Rectángulo 35638" width="11.48" height="1.21" transform="translate(165.84 413.57)" fill="#20242d"/>
        <rect id="Rectángulo_35639" data-name="Rectángulo 35639" width="11.48" height="1.21" transform="translate(165.84 417.22)" fill="#20242d"/>
        <g id="Grupo_89823" data-name="Grupo 89823">
          <g id="Grupo_89821" data-name="Grupo 89821">
            <rect id="Rectángulo_35640" data-name="Rectángulo 35640" width="8.6" height="0.9" transform="translate(167.28 384.9)" fill="#20242d"/>
            <path id="Trazado_114226" data-name="Trazado 114226" d="M176.32,386.25h-9.48v-1.79h9.48Zm-8.6-.89h0Z" fill="#20242d"/>
          </g>
          <g id="Grupo_89822" data-name="Grupo 89822">
            <rect id="Rectángulo_35641" data-name="Rectángulo 35641" width="8.6" height="0.9" transform="translate(171.13 389.65) rotate(-90)" fill="#20242d"/>
            <path id="Trazado_114227" data-name="Trazado 114227" d="M172.48,390.09h-1.79v-9.48h1.79Zm-.91-.88h0v0Z" fill="#20242d"/>
          </g>
        </g>
        <path id="Trazado_114228" data-name="Trazado 114228" d="M175.57,312.35l-1.27-1.27-2.72,2.72-2.72-2.72-1.26,1.27,2.71,2.72-2.71,2.72,1.26,1.27,2.72-2.73,2.72,2.73,1.27-1.27-2.72-2.72Z" fill="#20242d"/>
        <g id="Grupo_89824" data-name="Grupo 89824">
          <rect id="Rectángulo_35642" data-name="Rectángulo 35642" width="8.6" height="0.9" transform="translate(167.28 350.86)" fill="#20242d"/>
          <path id="Trazado_114229" data-name="Trazado 114229" d="M176.32,352.21h-9.48v-1.79h9.48Zm-8.6-.89h0Z" fill="#20242d"/>
        </g>
        <g id="Grupo_89825" data-name="Grupo 89825">
          <rect id="Rectángulo_35643" data-name="Rectángulo 35643" width="8.6" height="0.9" transform="translate(167.28 280.14)" fill="#20242d"/>
          <path id="Trazado_114230" data-name="Trazado 114230" d="M176.32,281.49h-9.48V279.7h9.48Zm-8.6-.89h0Z" fill="#20242d"/>
        </g>
        <circle id="Elipse_4094" data-name="Elipse 4094" cx="1.44" cy="1.44" r="1.44" transform="translate(170.14 274.42)" fill="#20242d"/>
        <path id="Trazado_114231" data-name="Trazado 114231" d="M173,285.06a1.44,1.44,0,1,1-.418-1.025A1.44,1.44,0,0,1,173,285.06Z" fill="#20242d"/>
        <g id="Grupo_89826" data-name="Grupo 89826">
          <path id="Trazado_114232" data-name="Trazado 114232" d="M111.68,278.08l-.76-.77-1.65,1.65-1.65-1.65-.77.77,1.65,1.65-1.65,1.65.77.77,1.65-1.65,1.65,1.65.76-.77-1.65-1.65Z" fill="#20242d"/>
          <path id="Trazado_114233" data-name="Trazado 114233" d="M113.69,284.38h-8.25a1.47,1.47,0,0,1-1.07-.47l-2.9-3.15a1.53,1.53,0,0,1,0-2.06l2.9-3.15a1.47,1.47,0,0,1,1.07-.47h8.25a1.49,1.49,0,0,1,1.47,1.5v6.3a1.49,1.49,0,0,1-1.47,1.5Zm-8.25-8.3a.41.41,0,0,0-.33.15l-2.9,3.15a.53.53,0,0,0,0,.7l2.9,3.15a.46.46,0,0,0,.34.15h8.25a.48.48,0,0,0,.47-.5v-6.3a.48.48,0,0,0-.47-.5Z" fill="#20242d"/>
        </g>
        <g id="Grupo_89827" data-name="Grupo 89827">
          <path id="Trazado_114234" data-name="Trazado 114234" d="M118.59,225.79v20.92h-1.53V227.16H112v-1.37Z" fill="#20242d"/>
          <path id="Trazado_114235" data-name="Trazado 114235" d="M138.26,225.79v1.08l-9,19.84h-1.68l8.91-19.55H124.74v4h-1.49v-5.38Z" fill="#20242d"/>
          <path id="Trazado_114236" data-name="Trazado 114236" d="M154.42,240.83c0,3.46-2.51,6-7.32,6-3.08,0-5.92-1.13-7.38-2.81l.77-1.16a9,9,0,0,0,6.61,2.57c3.77,0,5.77-1.79,5.77-4.63s-1.91-4.64-6.1-4.64h-1.31v-1.1l6.18-7.93H140.49v-1.37h13.13v1.08l-6.28,8C152.09,235,154.42,237.42,154.42,240.83Z" fill="#20242d"/>
          <path id="Trazado_114237" data-name="Trazado 114237" d="M173.37,241c0,3.64-3,5.88-8,5.88s-7.89-2.24-7.89-5.88c0-2.64,1.61-4.46,4.45-5.21a4.77,4.77,0,0,1-3.7-4.72c0-3.35,2.81-5.41,7.14-5.41s7.21,2.06,7.21,5.41c0,2.3-1.35,3.95-3.77,4.72C171.73,236.52,173.37,238.37,173.37,241Zm-1.52,0c0-2.79-2.39-4.55-6.43-4.55s-6.37,1.76-6.37,4.55,2.34,4.57,6.37,4.57,6.43-1.79,6.43-4.57Zm-6.43-5.8c3.56,0,5.68-1.59,5.68-4.07s-2.21-4.15-5.68-4.15-5.62,1.58-5.62,4.12,2.06,4.08,5.62,4.08Z" fill="#20242d"/>
        </g>
      </g>
      <g id="Grupo_89833" data-name="Grupo 89833">
        <path id="Trazado_114238" data-name="Trazado 114238" d="M313.8,324.3v41.02h9.35Z" fill="#20242d"/>
        <g id="Grupo_89829" data-name="Grupo 89829">
          <rect id="Rectángulo_35644" data-name="Rectángulo 35644" width="47.69" height="42.53" transform="translate(266.11 324.3)" fill="#fff"/>
          <rect id="Rectángulo_35645" data-name="Rectángulo 35645" width="6.52" height="6.87" transform="translate(296.26 342.56)" fill="#60c1dd"/>
          <path id="Trazado_114239" data-name="Trazado 114239" d="M270.39,363.32v-1.88c0-1.29,0-3.12-.06-5.46,0-4.79-.06-11.62-.11-19.91v-.21h.21l39.56-.05.26.26h0v27.5H310l-28.61-.12-8.1-.06h.1l8.16-.07L310,363.2l-.24.24V336.09h0l.26.26-39.56-.05.21-.21c0,8.24-.08,15-.11,19.78,0,2.35,0,4.21-.05,5.5v1.46a3.619,3.619,0,0,1-.12.49Z" fill="#20242d"/>
          <rect id="Rectángulo_35646" data-name="Rectángulo 35646" width="47.69" height="8.2" transform="translate(266.11 324.3)" fill="#60c1dd"/>
          <path id="Trazado_114240" data-name="Trazado 114240" d="M266.11,366.83v-3c0-2,0-4.91-.06-8.59,0-7.48-.07-18.13-.12-30.94v-.22h47.91c-.05-.06.5.49.27.27h0v42.77h-.23L279.19,367l-9.69-.06h.1l9.74-.06,34.46-.12-.23.23V324.32h0c-.23-.24.32.3.25.25H266.14l.22-.22c-.05,12.75-.09,23.36-.12,30.8v10.93A1.549,1.549,0,0,1,266.11,366.83Z" fill="#20242d"/>
          <path id="Trazado_114241" data-name="Trazado 114241" d="M309.83,342.56c0,.14-8.8.26-19.65.26s-19.66-.12-19.66-.26,8.8-.26,19.66-.26S309.83,342.42,309.83,342.56Z" fill="#20242d"/>
          <path id="Trazado_114242" data-name="Trazado 114242" d="M309.83,349.43c0,.14-8.8.26-19.65.26s-19.66-.12-19.66-.26,8.8-.26,19.66-.26S309.83,349.28,309.83,349.43Z" fill="#20242d"/>
          <path id="Trazado_114243" data-name="Trazado 114243" d="M309.83,356.3c0,.14-8.8.26-19.65.26s-19.66-.12-19.66-.26,8.8-.26,19.66-.26S309.83,356.15,309.83,356.3Z" fill="#20242d"/>
          <path id="Trazado_114244" data-name="Trazado 114244" d="M276.83,363.25c-.14,0-.26-6.07-.26-13.55s.12-13.56.26-13.56.26,6.07.26,13.56S277,363.25,276.83,363.25Z" fill="#20242d"/>
          <path id="Trazado_114245" data-name="Trazado 114245" d="M283.29,363.25c-.15,0-.26-6.07-.26-13.55s.11-13.56.26-13.56.26,6.07.26,13.56S283.43,363.25,283.29,363.25Z" fill="#20242d"/>
          <path id="Trazado_114246" data-name="Trazado 114246" d="M289.81,363.25c-.15,0-.26-6.07-.26-13.55s.11-13.56.26-13.56.26,6.07.26,13.56S290,363.25,289.81,363.25Z" fill="#20242d"/>
          <path id="Trazado_114247" data-name="Trazado 114247" d="M296.26,363.25c-.14,0-.26-6.07-.26-13.55s.12-13.56.26-13.56.26,6.07.26,13.56S296.41,363.25,296.26,363.25Z" fill="#20242d"/>
          <path id="Trazado_114248" data-name="Trazado 114248" d="M302.78,363.25c-.14,0-.26-6.07-.26-13.55s.12-13.56.26-13.56.26,6.07.26,13.56S302.93,363.25,302.78,363.25Z" fill="#20242d"/>
          <rect id="Rectángulo_35647" data-name="Rectángulo 35647" width="3.53" height="1.61" transform="translate(305.72 336.71)" fill="#e1e1e1"/>
          <rect id="Rectángulo_35648" data-name="Rectángulo 35648" width="3.53" height="1.61" transform="translate(305.77 343.67)" fill="#e1e1e1"/>
          <rect id="Rectángulo_35649" data-name="Rectángulo 35649" width="3.53" height="1.61" transform="translate(305.77 350.62)" fill="#e1e1e1"/>
          <rect id="Rectángulo_35650" data-name="Rectángulo 35650" width="3.53" height="1.61" transform="translate(305.85 357.58)" fill="#e1e1e1"/>
          <rect id="Rectángulo_35651" data-name="Rectángulo 35651" width="3.53" height="1.61" transform="translate(291.86 336.71)" fill="#e1e1e1"/>
          <rect id="Rectángulo_35652" data-name="Rectángulo 35652" width="3.53" height="1.61" transform="translate(291.91 343.67)" fill="#e1e1e1"/>
          <rect id="Rectángulo_35653" data-name="Rectángulo 35653" width="3.53" height="1.61" transform="translate(291.91 350.62)" fill="#e1e1e1"/>
          <rect id="Rectángulo_35654" data-name="Rectángulo 35654" width="3.53" height="1.61" transform="translate(291.99 357.58)" fill="#e1e1e1"/>
          <rect id="Rectángulo_35655" data-name="Rectángulo 35655" width="3.53" height="1.61" transform="translate(278.94 336.71)" fill="#e1e1e1"/>
          <rect id="Rectángulo_35656" data-name="Rectángulo 35656" width="3.53" height="1.61" transform="translate(278.99 343.67)" fill="#e1e1e1"/>
          <rect id="Rectángulo_35657" data-name="Rectángulo 35657" width="3.53" height="1.61" transform="translate(278.99 350.62)" fill="#e1e1e1"/>
          <rect id="Rectángulo_35658" data-name="Rectángulo 35658" width="3.53" height="1.61" transform="translate(279.07 357.58)" fill="#e1e1e1"/>
          <rect id="Rectángulo_35659" data-name="Rectángulo 35659" width="3.53" height="1.61" transform="translate(285.68 336.71)" fill="#e1e1e1"/>
          <rect id="Rectángulo_35660" data-name="Rectángulo 35660" width="3.53" height="1.61" transform="translate(285.74 343.67)" fill="#e1e1e1"/>
          <rect id="Rectángulo_35661" data-name="Rectángulo 35661" width="3.53" height="1.61" transform="translate(285.74 350.62)" fill="#e1e1e1"/>
          <rect id="Rectángulo_35662" data-name="Rectángulo 35662" width="3.53" height="1.61" transform="translate(285.81 357.58)" fill="#e1e1e1"/>
          <rect id="Rectángulo_35663" data-name="Rectángulo 35663" width="3.53" height="1.61" transform="translate(272.61 336.71)" fill="#e1e1e1"/>
          <rect id="Rectángulo_35664" data-name="Rectángulo 35664" width="3.53" height="1.61" transform="translate(272.66 343.67)" fill="#e1e1e1"/>
          <rect id="Rectángulo_35665" data-name="Rectángulo 35665" width="3.53" height="1.61" transform="translate(272.66 350.62)" fill="#e1e1e1"/>
          <rect id="Rectángulo_35666" data-name="Rectángulo 35666" width="3.53" height="1.61" transform="translate(272.74 357.58)" fill="#e1e1e1"/>
          <rect id="Rectángulo_35667" data-name="Rectángulo 35667" width="3.53" height="1.61" transform="translate(298.27 336.71)" fill="#e1e1e1"/>
          <rect id="Rectángulo_35668" data-name="Rectángulo 35668" width="3.53" height="1.61" transform="translate(298.32 350.62)" fill="#e1e1e1"/>
          <rect id="Rectángulo_35669" data-name="Rectángulo 35669" width="3.53" height="1.61" transform="translate(298.32 357.58)" fill="#e1e1e1"/>
          <path id="Trazado_114249" data-name="Trazado 114249" d="M295.91,342.11a36.215,36.215,0,0,1,3.43-3.59,33.2,33.2,0,0,1,3.56-3.45,29.45,29.45,0,0,1-7,7Z" fill="#60c1dd"/>
          <path id="Trazado_114250" data-name="Trazado 114250" d="M304.37,342.75a35.679,35.679,0,0,1-4.69-3.83,36.654,36.654,0,0,1-4.35-4.23,70.224,70.224,0,0,1,9,8.06Z" fill="#60c1dd"/>
          <path id="Trazado_114251" data-name="Trazado 114251" d="M272,328h0a.87.87,0,0,1-.88-.88V322a.87.87,0,0,1,.88-.88h0a.87.87,0,0,1,.88.88v5.16A.87.87,0,0,1,272,328Z" fill="#20242d"/>
          <path id="Trazado_114252" data-name="Trazado 114252" d="M277.79,328h0a.87.87,0,0,1-.88-.88V322a.87.87,0,0,1,.88-.88h0a.87.87,0,0,1,.88.88v5.16A.87.87,0,0,1,277.79,328Z" fill="#20242d"/>
          <path id="Trazado_114253" data-name="Trazado 114253" d="M283.56,328h0a.88.88,0,0,1-.88-.88V322a.88.88,0,0,1,.88-.88h0a.88.88,0,0,1,.89.88v5.16a.88.88,0,0,1-.89.84Z" fill="#20242d"/>
          <path id="Trazado_114254" data-name="Trazado 114254" d="M289.34,328h0a.87.87,0,0,1-.88-.88V322a.87.87,0,0,1,.88-.88h0a.88.88,0,0,1,.88.88v5.16A.88.88,0,0,1,289.34,328Z" fill="#20242d"/>
          <path id="Trazado_114255" data-name="Trazado 114255" d="M295.11,328h0a.87.87,0,0,1-.88-.88V322a.87.87,0,0,1,.88-.88h0a.87.87,0,0,1,.88.88v5.16A.87.87,0,0,1,295.11,328Z" fill="#20242d"/>
          <path id="Trazado_114256" data-name="Trazado 114256" d="M300.88,328h0a.88.88,0,0,1-.88-.88V322a.88.88,0,0,1,.88-.88h0a.88.88,0,0,1,.89.88v5.16a.88.88,0,0,1-.89.84Z" fill="#20242d"/>
          <path id="Trazado_114257" data-name="Trazado 114257" d="M306.66,328h0a.87.87,0,0,1-.88-.88V322a.87.87,0,0,1,.88-.88h0a.87.87,0,0,1,.88.88v5.16A.87.87,0,0,1,306.66,328Z" fill="#20242d"/>
        </g>
        <rect id="Rectángulo_35670" data-name="Rectángulo 35670" width="131.97" height="10.73" transform="translate(196.82 365.33)" fill="#30616f"/>
        <rect id="Rectángulo_35671" data-name="Rectángulo 35671" width="120.47" height="31.38" transform="translate(201.61 373.47)" fill="#30616f"/>
        <rect id="Rectángulo_35672" data-name="Rectángulo 35672" width="10.43" height="68.44" transform="translate(201.61 372.51)" fill="#30616f"/>
        <rect id="Rectángulo_35673" data-name="Rectángulo 35673" width="10.43" height="68.44" transform="translate(311.64 372.51)" fill="#30616f"/>
        <path id="Trazado_114258" data-name="Trazado 114258" d="M329,376.05c0,.15-29.61.26-66.14.26s-66.15-.11-66.15-.26,29.61-.26,66.15-.26S329,375.91,329,376.05Z" fill="#20242d"/>
        <path id="Trazado_114259" data-name="Trazado 114259" d="M212.19,376.39c.14,0,.23,14.45.19,32.28S212.19,441,212,441s-.23-14.45-.19-32.29S212,376.39,212.19,376.39Z" fill="#20242d"/>
        <path id="Trazado_114260" data-name="Trazado 114260" d="M312.06,376.39c.14,0,.26,13.54.26,30.23s-.12,30.24-.26,30.24-.26-13.54-.26-30.24S311.91,376.39,312.06,376.39Z" fill="#20242d"/>
        <path id="Trazado_114261" data-name="Trazado 114261" d="M308,401.29v-5.76c0-3.72-.05-9.14-.08-16l.15.15-92.35.11h0l.26-.26v21.74l-.25-.26,65.82.12,19.44.07h.12l-19.38.08-66,.11h-.26v-22.1h.26l92.35.1h.15v.16c0,6.88-.06,12.33-.08,16.07v5.31A.427.427,0,0,1,308,401.29Z" fill="#20242d"/>
        <path id="Trazado_114262" data-name="Trazado 114262" d="M263.54,390.94a5.939,5.939,0,0,0-.19-.68,2.77,2.77,0,0,0-1.05-1.44,2.68,2.68,0,0,0-2.5-.34,2.63,2.63,0,1,0,2.5,4.58,2.82,2.82,0,0,0,1.05-1.45,6.894,6.894,0,0,1,.19-.67,1.486,1.486,0,0,1,0,.72,2.89,2.89,0,0,1-1,1.69,3,3,0,0,1-2.89.49,3.08,3.08,0,0,1,0-5.81,3,3,0,0,1,2.89.49,2.88,2.88,0,0,1,1,1.7C263.63,390.68,263.57,390.94,263.54,390.94Z" fill="#20242d"/>
        <g id="Grupo_89831" data-name="Grupo 89831">
          <g id="Grupo_89830" data-name="Grupo 89830">
            <path id="Trazado_114263" data-name="Trazado 114263" d="M274.6,347.5l10.44,10.04H264.41Z" fill="#e1e1e1"/>
            <path id="Trazado_114264" data-name="Trazado 114264" d="M264.41,357.54,274.6,347.5H254.42Z" fill="#f5f5f5"/>
            <path id="Trazado_114265" data-name="Trazado 114265" d="M215.69,357.54l8.89-12.24h28.69l-8.83,12.24Z" fill="#f5f5f5"/>
            <path id="Trazado_114266" data-name="Trazado 114266" d="M253.27,345.3l11.14,12.24H244.44Z" fill="#e1e1e1"/>
            <path id="Trazado_114267" data-name="Trazado 114267" d="M285,357.54a6.321,6.321,0,0,1-.8-.67c-.54-.51-1.26-1.17-2.16-2-1.88-1.79-4.5-4.26-7.63-7.22h.31l-10.17,10.07-.19.19-.18-.2-1-1L253.1,345.45h.35l-6.45,8.8-1.84,2.45a7.228,7.228,0,0,1-.7.84,7.709,7.709,0,0,1,.58-.92l1.75-2.53c1.56-2.21,3.74-5.27,6.33-8.92l.16-.23.19.21,10.2,11.16,1,1.05h-.37l10.21-10,.16-.15.15.15,7.51,7.35,2.08,2.08A6.1,6.1,0,0,1,285,357.54Z" fill="#20242d"/>
            <path id="Trazado_114268" data-name="Trazado 114268" d="M215.69,357.54a4.769,4.769,0,0,1,.59-1l1.78-2.6,6.29-8.89.07-.1h6.79c6,0,11.49,0,15.44.08l4.68.08a10.75,10.75,0,0,1,1.72.11,11.8,11.8,0,0,1-1.72.1l-4.68.08c-4,0-9.41.08-15.44.08h-6.66l.2-.1-6.44,8.78-1.89,2.52A6.65,6.65,0,0,1,215.69,357.54Z" fill="#20242d"/>
            <path id="Trazado_114269" data-name="Trazado 114269" d="M274.36,347.5a88.985,88.985,0,0,1-9.55.26,89.1,89.1,0,0,1-9.55-.26,86.072,86.072,0,0,1,9.55-.26A85.916,85.916,0,0,1,274.36,347.5Z" fill="#20242d"/>
          </g>
          <path id="Trazado_114270" data-name="Trazado 114270" d="M241.15,353.76A78,78,0,0,1,232,354a78.133,78.133,0,0,1-9.19-.27,82.41,82.41,0,0,1,9.19-.26,82.29,82.29,0,0,1,9.15.29Z" fill="#20242d"/>
          <path id="Trazado_114271" data-name="Trazado 114271" d="M243.62,351.29a78,78,0,0,1-9.18.27,78.139,78.139,0,0,1-9.19-.27,82.4,82.4,0,0,1,9.19-.26,82.283,82.283,0,0,1,9.18.26Z" fill="#20242d"/>
          <path id="Trazado_114272" data-name="Trazado 114272" d="M246.09,348.82a79.49,79.49,0,0,1-9.18.26,79.616,79.616,0,0,1-9.19-.26,82.411,82.411,0,0,1,9.19-.26,82.29,82.29,0,0,1,9.18.26Z" fill="#20242d"/>
        </g>
        <g id="Grupo_89832" data-name="Grupo 89832">
          <rect id="Rectángulo_35674" data-name="Rectángulo 35674" width="71.38" height="7.79" transform="translate(210.01 357.54)" fill="#f5f5f5"/>
          <rect id="Rectángulo_35675" data-name="Rectángulo 35675" width="47.79" height="7.79" transform="translate(233.6 357.54)" fill="#e1e1e1"/>
          <path id="Trazado_114273" data-name="Trazado 114273" d="M210,365.33a2,2,0,0,1,0-.53v-1.52c0-1.38-.05-3.32-.08-5.74v-.16H210c7.1-.06,18.66-.11,31.7-.11l27.93.08,8.46.08,2.3.05a4.1,4.1,0,0,1,.8.06,7,7,0,0,1-.8,0l-2.3.05-8.46.08-27.93.08c-13,0-24.6-.05-31.7-.11l.15-.15c0,2.42,0,4.36-.07,5.74v1.52a2.723,2.723,0,0,1-.08.58Z" fill="#20242d"/>
        </g>
      </g>
      <g id="Grupo_89855" data-name="Grupo 89855">
        <g id="Grupo_89837" data-name="Grupo 89837">
          <g id="Grupo_89835" data-name="Grupo 89835">
            <g id="Grupo_89834" data-name="Grupo 89834">
              <rect id="Rectángulo_35676" data-name="Rectángulo 35676" width="9.17" height="59.7" transform="translate(372.13 381.9)" fill="#30616f"/>
              <rect id="Rectángulo_35677" data-name="Rectángulo 35677" width="9.17" height="59.02" transform="translate(425.32 381.9)" fill="#30616f"/>
              <rect id="Rectángulo_35678" data-name="Rectángulo 35678" width="48.61" height="8.13" transform="translate(378.33 403.11)" fill="#30616f"/>
              <path id="Trazado_114274" data-name="Trazado 114274" d="M434.48,381.9a1,1,0,0,1,0,.3v4.27c0,3,0,7.23.06,12.51,0,10.62,0,25.32.07,41.76v.19h-9.56v-.19c.07-16.33.13-30.91.17-41.43,0-5.24.07-9.46.09-12.4v-4.52a1.712,1.712,0,0,1,0,.3q0,.315,0,.87v57.18l-.19-.19h9.16l-.19.19c0-16.44,0-31.14.06-41.76,0-5.28,0-9.55.06-12.51V382.2C434.47,382,434.48,381.9,434.48,381.9Z" fill="#20242d"/>
              <path id="Trazado_114275" data-name="Trazado 114275" d="M372.23,384.43V441.6l-.19-.19h9.16l-.19.19c0-16.56,0-31.39.06-42.1,0-5.34,0-9.65.06-12.64v-4.62a1,1,0,0,1,0,.3v4.32c0,3,0,7.3.06,12.64,0,10.71,0,25.54.06,42.1v.19h-9.56v-.19c.06-16,.1-30.32.14-40.62,0-5.12.06-9.26.08-12.13v-4.13A.94.94,0,0,1,372.23,384.43Z" fill="#20242d"/>
            </g>
            <rect id="Rectángulo_35679" data-name="Rectángulo 35679" width="89.26" height="28.2" rx="9.23" transform="translate(359.32 354.32)" fill="#30616f"/>
            <path id="Trazado_114276" data-name="Trazado 114276" d="M375.44,382.52c0-.1,14.81-.19,33.08-.19s33.08.09,33.08.19-14.81.19-33.08.19S375.44,382.63,375.44,382.52Z" fill="#20242d"/>
          </g>
          <g id="Grupo_89836" data-name="Grupo 89836" opacity="0.3">
            <path id="Trazado_114277" data-name="Trazado 114277" d="M432.56,352.49l-37.11-1.26c-2.18-.07-4.58-.08-6.26,1.31S387.1,356,386.68,358L381,385.29l1.19,2a35.15,35.15,0,0,0,15.22-20.05c.64-2.22,1.35-4.85,3.51-5.65a6.78,6.78,0,0,1,3-.15l8.77.88c4.2.42,8.56.83,12.56-.55S432.81,356.7,432.56,352.49Z"/>
          </g>
        </g>
        <g id="Grupo_89840" data-name="Grupo 89840">
          <g id="Grupo_89839" data-name="Grupo 89839">
            <g id="Grupo_89838" data-name="Grupo 89838">
              <path id="Trazado_114278" data-name="Trazado 114278" d="M408.49,173.62a5.13,5.13,0,0,1,4.34-1.43,3,3,0,0,0,1.89,0,3.88,3.88,0,0,0,.92-1,2.61,2.61,0,0,1,3.75,0,3,3,0,0,0,.72.75c1.23.68,2.66-1.62,3.88-.93a2.89,2.89,0,0,0-1.41,1.06,1.32,1.32,0,0,0,.11,1.64c1.14,1.05,3.1-1.18,4.38-.31.69.48.76,1.67,1.56,1.88a2.83,2.83,0,0,0,1,0,2.13,2.13,0,0,1,2.23,1.89c.07.93-.42,2,.26,2.68a2,2,0,0,0,1.64.27,5.55,5.55,0,0,1-.66,2.43,3.35,3.35,0,0,1,1,4.54,7.29,7.29,0,0,1,1.89,2,2.49,2.49,0,0,1,0,2.64,2.161,2.161,0,0,0-.36.51,1.21,1.21,0,0,0,0,.68,12.361,12.361,0,0,1,.47,2.6c-.05.88-.73,1.83-1.61,1.73-.2,0-.43-.1-.6,0a.59.59,0,0,0-.22.4,6,6,0,0,0,.08,1.89,2.57,2.57,0,0,1-.33,1.83,1.09,1.09,0,0,1-1.64.15c.23,1,.46,2,.68,3a1.8,1.8,0,0,1-.19,1.71c-.57.54-1.57.08-2-.6s-.5-1.51-.93-2.17a5.057,5.057,0,0,1-.51-.82c-.09-.24-.11-.52-.31-.69-.38-.34-1,.2-1,.71a2.84,2.84,0,0,0,.75,1.32,1.29,1.29,0,0,1,.29,1.41c-.13.21-.36.34-.49.55-.43.74.65,1.49.75,2.34a2.06,2.06,0,0,1-.85,1.62c-.56.53-1.62.95-1.95.25-.11-.25-.06-.54-.15-.79a1.94,1.94,0,0,0-.59-.72,4,4,0,0,1-1.14-2c.63.82,1.29,1.9.81,2.81a4.639,4.639,0,0,1-.88,1c-.6.59-1,1.38-1.58,2a2,2,0,0,1-2.29.58,1.905,1.905,0,0,1-3.24,1.81,1.75,1.75,0,0,0-.51-.47,1.37,1.37,0,0,0-.75,0,4.13,4.13,0,0,1-4-1.7l.76-.25a9.64,9.64,0,0,1-4.25-1.36,3.32,3.32,0,0,1-1.3-3.93c.3-.58.85-1.17.62-1.78a1.61,1.61,0,0,0-1-.78l-5.26-2a5,5,0,0,1-2.31-1.4,1.72,1.72,0,0,1,.2-2.42,5,5,0,0,0-1.79-2c-.87-.55-1.9-.81-2.79-1.32a2.8,2.8,0,0,1-1.61-2.44c.09-1,1.53-1.79,2.22-1-.11-1.55-2.86-1.72-3.06-3.26-.16-1.25,1.45-1.86,2.3-2.8-.16-.43-.6-.72-.77-1.16-.35-.9.6-1.78,1.49-2.18s2-.79,2.21-1.74-.56-2.09,0-2.93a1.1,1.1,0,0,1,1.46-.32c.76-1.77,4.08-.34,5.1-2a.67.67,0,0,0,.08-.6.66.66,0,0,0-.16-.35,7.509,7.509,0,0,0-1.45-1.17,1.52,1.52,0,0,1-.64-1.62c.23-.58,1.34-.53,1.31.09a1.37,1.37,0,0,1,2.08.58,1.49,1.49,0,0,1,1.86-.13,4.33,4.33,0,0,1,1.29,1.55" fill="#20242d"/>
              <path id="Trazado_114279" data-name="Trazado 114279" d="M408.27,174s-.19-.3-.6-.84a2.64,2.64,0,0,0-.95-.77,1.36,1.36,0,0,0-1.53.25l-.11.11v-.14a1.28,1.28,0,0,0-1.93-.53l-.2.17V172c0-.31-.42-.46-.75-.34a.68.68,0,0,0-.35.91,2.08,2.08,0,0,0,.8,1,7.25,7.25,0,0,1,1.19.91.86.86,0,0,1,.29.82,1,1,0,0,1-.21.39,1.522,1.522,0,0,1-.3.32,3.19,3.19,0,0,1-1.63.53c-.57.06-1.15.07-1.72.16a1.6,1.6,0,0,0-1.32.84l-.08.19-.18-.11a.93.93,0,0,0-1,.09,1.14,1.14,0,0,0-.3,1.09c.06.44.21.9.24,1.42a1.75,1.75,0,0,1-.61,1.45c-.8.74-1.9.87-2.61,1.54a1.37,1.37,0,0,0-.56,1.18c0,.43.56.72.82,1.34l.05.12-.1.1a18.687,18.687,0,0,1-1.56,1.33,1.36,1.36,0,0,0-.59,1.55c.22.55.88.89,1.49,1.25a6,6,0,0,1,.93.65,1.65,1.65,0,0,1,.57,1.11v.73L395,192c-.48-.57-1.64,0-1.77.77a2.34,2.34,0,0,0,1.24,2.16c.79.52,1.78.78,2.71,1.29a5.09,5.09,0,0,1,2.21,2.33l.1.21-.2.13a1.45,1.45,0,0,0-.11,2,4.74,4.74,0,0,0,2.23,1.32l5.38,2a2.29,2.29,0,0,1,.71.42,1.13,1.13,0,0,1,.4.85,3.19,3.19,0,0,1-.63,1.49,2.55,2.55,0,0,0,.14,2.57,4.14,4.14,0,0,0,2.18,1.75,14,14,0,0,0,2.95.68l1.22.19-1.18.38-.76.25.15-.45a3.73,3.73,0,0,0,2,1.43,3.54,3.54,0,0,0,1.25.18,3.9,3.9,0,0,0,.65-.07,1.19,1.19,0,0,1,.89.16,6.911,6.911,0,0,1,.5.53,1.589,1.589,0,0,0,.5.3,1.74,1.74,0,0,0,1.17,0,1.66,1.66,0,0,0,1-1.95l-.23-.75.67.41a1.4,1.4,0,0,0,1.35-.1,3.63,3.63,0,0,0,1.16-1.15,8.193,8.193,0,0,1,1.18-1.44c.48-.41.8-.78.77-1.3a3.78,3.78,0,0,0-.91-1.89l.54-.25a3.7,3.7,0,0,0,.71,1.48,5.569,5.569,0,0,0,.59.61,1.64,1.64,0,0,1,.34.42,1.439,1.439,0,0,1,.14.54c0,.32.07.47.2.54a.74.74,0,0,0,.6,0,2.74,2.74,0,0,0,1.22-1,1.07,1.07,0,0,0,.12-1.31c-.13-.24-.29-.48-.44-.75a1.38,1.38,0,0,1-.21-1.05c.1-.42.47-.63.57-.78a.59.59,0,0,0,.06-.56c-.12-.45-.57-.8-.9-1.38a1.27,1.27,0,0,1-.15-1.06,1.09,1.09,0,0,1,.88-.72.76.76,0,0,1,.62.28,1.459,1.459,0,0,1,.22.49,1.78,1.78,0,0,0,.33.66c.79,1,.75,2.32,1.49,2.89.36.3.88.42,1.15.17a1.374,1.374,0,0,0,.18-1.26c-.24-1.06-.48-2.12-.72-3.16l-.31-1.4.82,1.16a.69.69,0,0,0,.81.12,1,1,0,0,0,.6-.74,8,8,0,0,0-.08-2.36,3.69,3.69,0,0,1,0-.66.88.88,0,0,1,.43-.72,1.24,1.24,0,0,1,.74,0,1,1,0,0,0,.44-.08,1.79,1.79,0,0,0,.84-1.76c-.05-.73-.34-1.46-.47-2.27a1.45,1.45,0,0,1,0-.71,2.371,2.371,0,0,1,.37-.55,1.64,1.64,0,0,0,.37-.91,2.78,2.78,0,0,0-.58-1.93,9.178,9.178,0,0,0-1.54-1.51l-.18-.15.13-.19a3.12,3.12,0,0,0-.93-4.19l-.2-.12.11-.21a5.29,5.29,0,0,0,.64-2.32l.27.25a2.69,2.69,0,0,1-1.5-.12,1.41,1.41,0,0,1-.76-1.34c0-1,.32-1.82-.16-2.49a1.91,1.91,0,0,0-2-.88,2,2,0,0,1-.7,0,1.27,1.27,0,0,1-.64-.38,6.788,6.788,0,0,1-.65-1.09,1.17,1.17,0,0,0-.77-.62,2.17,2.17,0,0,0-1.05.15,6,6,0,0,1-2.26.61,1.27,1.27,0,0,1-1-.74,1.63,1.63,0,0,1,0-1.19,2.8,2.8,0,0,1,1.64-1.4v.31c-.52-.3-1.16.09-1.7.41a2.67,2.67,0,0,1-1.88.61,1.44,1.44,0,0,1-.8-.59,2.56,2.56,0,0,0-.58-.6,2.53,2.53,0,0,0-2.87,0,6.769,6.769,0,0,0-.94,1.05,1.49,1.49,0,0,1-1.28.45,9.774,9.774,0,0,1-1.18-.18,5.08,5.08,0,0,0-3.23.68,8.876,8.876,0,0,0-.95.68,3.48,3.48,0,0,1,.9-.77,5.13,5.13,0,0,1,3.3-.77c.38,0,.77.13,1.17.15a1.29,1.29,0,0,0,1.1-.4,6.641,6.641,0,0,1,1-1.09,2.81,2.81,0,0,1,3.19,0c.54.34.76,1,1.28,1.13s1.09-.27,1.64-.59a5.579,5.579,0,0,1,.91-.48,1.38,1.38,0,0,1,1.14,0l.3.18-.32.13a2.47,2.47,0,0,0-1.43,1.21,1.2,1.2,0,0,0,0,.91.86.86,0,0,0,.7.5,5.811,5.811,0,0,0,2.08-.6,2.45,2.45,0,0,1,1.25-.17,1.54,1.54,0,0,1,1.06.8,6.394,6.394,0,0,0,.61,1,.91.91,0,0,0,1,.22,2.34,2.34,0,0,1,2.43,1.07,2.31,2.31,0,0,1,.35,1.4c0,.46-.12.91-.11,1.32a.93.93,0,0,0,.5.92,2.31,2.31,0,0,0,1.24.07h.28V180a5.76,5.76,0,0,1-.69,2.54l-.09-.33a3.61,3.61,0,0,1,1.11,4.9l-.05-.35a9.461,9.461,0,0,1,1.63,1.6,3.33,3.33,0,0,1,.69,2.3,2.22,2.22,0,0,1-.48,1.19c-.29.33-.36.46-.3.84.11.72.42,1.47.48,2.32a2.29,2.29,0,0,1-1.14,2.29c-.42.26-1.13,0-1.18.1a.612.612,0,0,0-.11.31,2.472,2.472,0,0,0,0,.55,7.831,7.831,0,0,1,.06,2.53,1.44,1.44,0,0,1-2.4.82l.5-.24c.24,1.05.49,2.11.73,3.18a2.939,2.939,0,0,1,.07.9,1.29,1.29,0,0,1-.45.91,1.23,1.23,0,0,1-1,.26,2,2,0,0,1-.88-.42,3.18,3.18,0,0,1-.91-1.56,4.22,4.22,0,0,0-.69-1.43,2.42,2.42,0,0,1-.42-.85c-.07-.28-.16-.35-.23-.34a.53.53,0,0,0-.36.33.72.72,0,0,0,.11.58,7.258,7.258,0,0,1,.95,1.49,1.17,1.17,0,0,1-.16,1.09c-.25.3-.44.41-.46.58-.11.32.31.82.6,1.36a1.74,1.74,0,0,1,.23,1,1.9,1.9,0,0,1-.4.94,3.29,3.29,0,0,1-1.5,1.19,1.35,1.35,0,0,1-1.11,0,1.16,1.16,0,0,1-.49-1,.75.75,0,0,0-.3-.59,5.149,5.149,0,0,1-.64-.67,4.26,4.26,0,0,1-.83-1.71l-.33-1.42.86,1.16a4.27,4.27,0,0,1,1,2.24,1.86,1.86,0,0,1-.28,1,4.221,4.221,0,0,1-.68.71,7.712,7.712,0,0,0-1.1,1.35,4.12,4.12,0,0,1-1.36,1.33,2,2,0,0,1-1.95.08l.45-.34a2.24,2.24,0,0,1-1.36,2.68,2.27,2.27,0,0,1-2.27-.45c-.21-.2-.34-.4-.46-.48a5.285,5.285,0,0,0-1.16,0,4.15,4.15,0,0,1-1.45-.21,4.42,4.42,0,0,1-2.29-1.66l-.23-.33.38-.12.77-.25.05.57a14.27,14.27,0,0,1-3.07-.72,4.64,4.64,0,0,1-2.47-2,3.12,3.12,0,0,1-.14-3.15,3,3,0,0,0,.56-1.19c0-.34-.32-.58-.76-.75l-5.36-2a5.37,5.37,0,0,1-2.46-1.5,2.3,2.3,0,0,1-.47-1.46,1.65,1.65,0,0,1,.72-1.37l-.1.34a4.59,4.59,0,0,0-2-2.09c-.86-.48-1.86-.74-2.74-1.32a2.8,2.8,0,0,1-1.45-2.69,1.83,1.83,0,0,1,1-1.23,1.34,1.34,0,0,1,1.59.23l-.43.18c0-.61-.66-1-1.26-1.37a3.69,3.69,0,0,1-1.68-1.49,1.56,1.56,0,0,1,0-1.2,2.7,2.7,0,0,1,.71-.88,18.783,18.783,0,0,0,1.53-1.28v.23c-.13-.41-.71-.74-.83-1.42a1.77,1.77,0,0,1,.71-1.57c.85-.76,1.95-.88,2.62-1.52a1.36,1.36,0,0,0,.49-1.14,12.4,12.4,0,0,0-.23-1.38,1.48,1.48,0,0,1,.45-1.43,1.3,1.3,0,0,1,1.46-.11l-.26.09a1.92,1.92,0,0,1,1.6-1c.6-.09,1.18-.09,1.74-.15a2.77,2.77,0,0,0,1.46-.45,1.19,1.19,0,0,0,.42-.54c.06-.18-.06-.36-.22-.54a7.108,7.108,0,0,0-1.14-.89,2.22,2.22,0,0,1-.87-1.13,1.18,1.18,0,0,1,0-.72.8.8,0,0,1,.51-.49,1.06,1.06,0,0,1,.68,0,.58.58,0,0,1,.37.56l-.18-.09a1.47,1.47,0,0,1,2.24.63h-.15a1.49,1.49,0,0,1,1.71-.25,2.5,2.5,0,0,1,1,.84A4.731,4.731,0,0,1,408.27,174Z" fill="#30616f"/>
            </g>
            <path id="Trazado_114280" data-name="Trazado 114280" d="M416.46,193.53c-.55-2.57-2.44-4.64-4.52-6.23a6.61,6.61,0,0,0-2.92-1.46,2.81,2.81,0,0,0-2.87,1.16l.15,1.83c-.24,2.91,2,5.36,3.08,8.08.46,1.18.84,2.6,2,3.11a2.73,2.73,0,0,0,1.95,0C415.82,199.15,417,196.09,416.46,193.53Z" fill="#60c1dd"/>
            <path id="Trazado_114281" data-name="Trazado 114281" d="M416.71,207a5.85,5.85,0,0,0-.62-7.48c1.05-1.36.64-3.43-.47-4.75a11.569,11.569,0,0,0-4.3-2.76,7.89,7.89,0,0,0-9.27-5.62c-2.08-3-6.44-3.38-9.9-2.32a9.311,9.311,0,0,1-2.58.6,13.941,13.941,0,0,1-1.93-.24c-3.55-.43-7,2.12-8.37,5.43a6.281,6.281,0,0,1-.73,1.55,9.23,9.23,0,0,1-1.73,1.42,5.63,5.63,0,0,0-2.1,4.21c0,1.38.42,2.83-.15,4.09a19.893,19.893,0,0,0-1,1.79c-.63,1.9,1.49,3.81,1.13,5.77-.07.4-.25.78-.35,1.17a3.49,3.49,0,0,0,.24,2.44,5.07,5.07,0,0,1,.8,1.74,6,6,0,0,1-.27,1.44c-.22,1.17,2.37,5.65,3.39,6.28l30.24-.16a5.64,5.64,0,0,0,4.3-4.92,2,2,0,0,1,.27-1.12,2.46,2.46,0,0,1,.82-.55c1.93-1.07,2.13-3.75,1.89-5.94a2.9,2.9,0,0,1,0-.93,3.48,3.48,0,0,1,.69-1.14Z" fill="#20242d"/>
            <path id="Trazado_114282" data-name="Trazado 114282" d="M407.92,207a16.21,16.21,0,0,0-8.78-14,20.26,20.26,0,0,0-7.76-1.76,12.28,12.28,0,0,0-7.11,1.6c-1.66.41-7.69,6.09-7.92,12.17-.26,6.74-.31,15,.62,20,1.85,10.06,9.63,11.16,9.63,11.16v5.64l21.25.64Z" fill="#ffbf9d"/>
            <path id="Trazado_114283" data-name="Trazado 114283" d="M380.15,212.74a1.3,1.3,0,0,0,1.29,1.27,1.23,1.23,0,0,0,1.3-1.2,1.3,1.3,0,0,0-1.28-1.28,1.25,1.25,0,0,0-1.31,1.21Z" fill="#20242d"/>
            <path id="Trazado_114284" data-name="Trazado 114284" d="M378.9,209c.16.17,1.13-.58,2.52-.61s2.44.64,2.58.46-.09-.38-.55-.69a3.52,3.52,0,0,0-2.07-.58,3.34,3.34,0,0,0-2,.7C379,208.6,378.82,208.91,378.9,209Z" fill="#20242d"/>
            <path id="Trazado_114285" data-name="Trazado 114285" d="M387.33,219.79a10.108,10.108,0,0,0-2.27-.35c-.36,0-.7-.09-.77-.33a1.77,1.77,0,0,1,.22-1.06l1-2.74c1.37-3.9,2.35-7.1,2.19-7.15a47.639,47.639,0,0,0-2.76,7l-.94,2.75a2.11,2.11,0,0,0-.15,1.4.89.89,0,0,0,.6.51,2.851,2.851,0,0,0,.61.07,8.83,8.83,0,0,0,2.27-.1Z" fill="#20242d"/>
            <path id="Trazado_114286" data-name="Trazado 114286" d="M386.55,236.17A25.76,25.76,0,0,0,400,232.23s-3.31,7.11-13.45,6.42Z" fill="#ff9a6c"/>
            <path id="Trazado_114287" data-name="Trazado 114287" d="M379.33,203.74c.25.34,1.31.08,2.56.16s2.29.37,2.56.06c.12-.15,0-.48-.47-.82a3.78,3.78,0,0,0-2-.66,3.72,3.72,0,0,0-2.08.49C379.4,203.26,379.23,203.58,379.33,203.74Z" fill="#20242d"/>
            <path id="Trazado_114288" data-name="Trazado 114288" d="M395.46,212.72A1.29,1.29,0,0,1,394.2,214a1.24,1.24,0,0,1-1.33-1.18,1.31,1.31,0,0,1,1.27-1.3,1.24,1.24,0,0,1,1.32,1.2Z" fill="#20242d"/>
            <path id="Trazado_114289" data-name="Trazado 114289" d="M398,209.06c-.17.17-1.14-.57-2.53-.59s-2.43.67-2.58.5.09-.38.54-.7a3.61,3.61,0,0,1,2.07-.61,3.47,3.47,0,0,1,2,.68C397.94,208.68,398.08,209,398,209.06Z" fill="#20242d"/>
            <path id="Trazado_114290" data-name="Trazado 114290" d="M398.28,204.37c-.28.32-1.35,0-2.65-.06s-2.39.18-2.64-.15c-.11-.16.07-.48.55-.77a4.23,4.23,0,0,1,4.26.17C398.25,203.89,398.4,204.22,398.28,204.37Z" fill="#20242d"/>
            <path id="Trazado_114291" data-name="Trazado 114291" d="M406.66,216.77c0-.75.81-2.55,1.55-2.68,2-.36,5.56-.29,5.72,4.75.21,6.89-6.75,5.69-6.77,5.49S406.72,219.37,406.66,216.77Z" fill="#ffbf9d"/>
            <path id="Trazado_114292" data-name="Trazado 114292" d="M409,221.75a3.193,3.193,0,0,0,.33.17,1.21,1.21,0,0,0,.9,0,3,3,0,0,0,1.29-2.71,3.87,3.87,0,0,0-.39-1.7,1.41,1.41,0,0,0-.93-.9.62.62,0,0,0-.7.35c-.09.2,0,.34-.07.35s-.16-.11-.11-.4a.79.79,0,0,1,.26-.44,1,1,0,0,1,.66-.2,1.71,1.71,0,0,1,1.28,1,4.09,4.09,0,0,1,.48,1.91,3.11,3.11,0,0,1-1.66,3,1.27,1.27,0,0,1-1.1-.15C409,221.92,409,221.77,409,221.75Z" fill="#ff9a6c"/>
            <path id="Trazado_114293" data-name="Trazado 114293" d="M375,205.29a4,4,0,0,0,2.1-3.74c.93.25,1.84-1,2.36-1.77s1.17-1.23,1.1-2.2a1.17,1.17,0,0,1,.06-.56c.13-.26.46-.36.74-.45a4.64,4.64,0,0,0,3-3.29A9.59,9.59,0,0,0,389,194a3.73,3.73,0,0,0,6.31-.43,3.29,3.29,0,0,0,2.27,1.6,10.21,10.21,0,0,0,2.87.09,3.94,3.94,0,0,0,2.71,4.41c.24.07.53.14.65.37s0,.51-.09.77a3.11,3.11,0,0,0,2.18,3.91,2.32,2.32,0,0,0,.29,3.63c.26.14.59.32.56.61a.67.67,0,0,1-.15.29,4.57,4.57,0,0,0-1,2.31,1.67,1.67,0,0,0,1.41,1.81,2.22,2.22,0,0,0-.84,1.53c0,.6.63,1.19,1.18,1a37.88,37.88,0,0,0,3.8-1.06c1.88-2.69-.64-5.56-.91-8.84a21.461,21.461,0,0,0-3.2-9.23,15.8,15.8,0,0,0-2.53-3.27,20.359,20.359,0,0,0-3.86-2.69,18.86,18.86,0,0,0-5.59-2.51c-3.74-.78-7.57.66-11,2.34a16.909,16.909,0,0,0-3.69,2.3,14.61,14.61,0,0,0-3.05,4.2,18.129,18.129,0,0,0-2.33,7.11" fill="#20242d"/>
            <path id="Trazado_114294" data-name="Trazado 114294" d="M373.55,202.91a2.6,2.6,0,0,1,.35-.74c.14-.24.34-.51.53-.85a3.26,3.26,0,0,0,.36-1.3,10.108,10.108,0,0,0-.07-1.7,7.81,7.81,0,0,1,0-2,5.85,5.85,0,0,1,.86-2.19,6,6,0,0,1,.83-1,8,8,0,0,1,1.07-.83,4.3,4.3,0,0,0,1-.93,5.479,5.479,0,0,0,.63-1.31,8.83,8.83,0,0,1,1.61-2.7,9,9,0,0,1,2.62-2.12,8.243,8.243,0,0,1,1.65-.66,7.659,7.659,0,0,1,1.8-.25,4.846,4.846,0,0,1,.93.06l.92.14a4.44,4.44,0,0,0,1.85,0c.61-.13,1.21-.37,1.84-.54a11.61,11.61,0,0,1,1.95-.39,12.334,12.334,0,0,1,2-.06,10.859,10.859,0,0,1,2,.32,6.87,6.87,0,0,1,3.52,2.21l.26.34h-.11a8,8,0,0,1,9.39,5.7l-.05-.07a22.268,22.268,0,0,1,2.44,1.23,7,7,0,0,1,2,1.72,4.74,4.74,0,0,1,.95,2.35,3.29,3.29,0,0,1-.6,2.35v-.12a5.74,5.74,0,0,1,1.66,3.51,5.83,5.83,0,0,1-.64,3.44,5.4,5.4,0,0,1-.44.69c-.16.21-.33.41-.46.62a1.489,1.489,0,0,0-.23.69,3.421,3.421,0,0,0,0,.71,11.389,11.389,0,0,1,0,2.62,5.54,5.54,0,0,1-.63,2,3.5,3.5,0,0,1-1.05,1.15c-.35.24-.66.34-.83.47a1.629,1.629,0,0,0-.25.21.749.749,0,0,1,.23-.23c.17-.15.48-.25.82-.5a3.34,3.34,0,0,0,1-1.13,5.491,5.491,0,0,0,.6-2,11.2,11.2,0,0,0,0-2.59,4.326,4.326,0,0,1,0-.73,1.63,1.63,0,0,1,.25-.74,5.751,5.751,0,0,1,.46-.64,5.994,5.994,0,0,0,.43-.68,5.78,5.78,0,0,0,.61-3.36,5.61,5.61,0,0,0-1.63-3.39l-.06-.06v-.06a3.06,3.06,0,0,0,.56-2.22,4.43,4.43,0,0,0-.92-2.26,6.919,6.919,0,0,0-2-1.67,21,21,0,0,0-2.42-1.2h0V192a7.79,7.79,0,0,0-9.15-5.55H402l-.05-.05-.25-.33a6.69,6.69,0,0,0-3.42-2.14,10.34,10.34,0,0,0-2-.32,12,12,0,0,0-2,.06,12.184,12.184,0,0,0-1.91.38c-.62.17-1.23.41-1.86.55a5.25,5.25,0,0,1-1,.12,7.46,7.46,0,0,1-1-.08l-.91-.15a6.882,6.882,0,0,0-.9-.05,7.32,7.32,0,0,0-1.76.23,8.07,8.07,0,0,0-1.61.64,9.08,9.08,0,0,0-4.17,4.72,6.388,6.388,0,0,1-.65,1.34,4.61,4.61,0,0,1-1.07,1,8,8,0,0,0-1.06.81,6.13,6.13,0,0,0-.81,1,5.619,5.619,0,0,0-.85,2.14,7.22,7.22,0,0,0,0,2,10.168,10.168,0,0,1,.05,1.72,3.16,3.16,0,0,1-.39,1.32c-.19.34-.4.61-.54.84a5.522,5.522,0,0,0-.31.53A.307.307,0,0,1,373.55,202.91Z" fill="#30616f"/>
            <path id="Trazado_114295" data-name="Trazado 114295" d="M398.78,184.93s-.19-.1-.52-.25a4.54,4.54,0,0,0-1.52-.41,4.39,4.39,0,0,0-2.25.38,4.47,4.47,0,0,0-2,1.91,3.789,3.789,0,0,0-.33.79.84.84,0,0,0,.07.72l.17.24-.28-.08a2.9,2.9,0,0,0-2.13.3,2.83,2.83,0,0,0-1.14,1.3,3.05,3.05,0,0,0-.24,1.15v.32a1.816,1.816,0,0,1,0-.32,2.73,2.73,0,0,1,.19-1.19,2.86,2.86,0,0,1,1.17-1.41,3,3,0,0,1,2.27-.34l-.11.16a1.1,1.1,0,0,1-.1-.9,4.349,4.349,0,0,1,.34-.84,4.61,4.61,0,0,1,2.13-2,4.41,4.41,0,0,1,3.88.12,2.8,2.8,0,0,1,.37.23Z" fill="#30616f"/>
            <path id="Trazado_114296" data-name="Trazado 114296" d="M410.13,192.6a1.827,1.827,0,0,1-.23.25,4.541,4.541,0,0,1-.77.56,3.21,3.21,0,0,1-1.37.44,2.41,2.41,0,0,1-1.72-.48h.15l-.19.28a3.113,3.113,0,0,1-.23.28,4.29,4.29,0,0,1-3.34,1.35,4,4,0,0,1-1.09-.22,1.15,1.15,0,0,1-.36-.19,5.79,5.79,0,0,0,1.46.26,4.32,4.32,0,0,0,1.57-.27,4,4,0,0,0,1.6-1.07l.22-.26.19-.27.06-.1.09.07a2.3,2.3,0,0,0,1.58.46,3.21,3.21,0,0,0,1.31-.38C409.76,192.92,410.11,192.57,410.13,192.6Z" fill="#30616f"/>
            <path id="Trazado_114297" data-name="Trazado 114297" d="M413.91,198.91v.13a1,1,0,0,1-.15.33,1.79,1.79,0,0,1-1.09.77,3.52,3.52,0,0,1-2-.17,11.523,11.523,0,0,1-1.1-.41,1.88,1.88,0,0,1-1-.84l-.05-.11h.17a7.9,7.9,0,0,1-2,1.27,3.57,3.57,0,0,1-1.93.25,2.54,2.54,0,0,1-1.2-.52,1.58,1.58,0,0,1-.26-.25.589.589,0,0,1-.07-.1s.13.11.37.29a2.75,2.75,0,0,0,1.18.43,3.46,3.46,0,0,0,1.84-.27,8.1,8.1,0,0,0,2-1.26l.1-.09.06.14v.09a1.74,1.74,0,0,0,.87.75c.35.16.72.28,1.07.4a3.43,3.43,0,0,0,1.87.22,1.92,1.92,0,0,0,1.07-.67,2.722,2.722,0,0,0,.25-.38Z" fill="#30616f"/>
            <path id="Trazado_114298" data-name="Trazado 114298" d="M420.75,174.14a1.079,1.079,0,0,0-.32.07,1.55,1.55,0,0,0-.76.51,2.15,2.15,0,0,0-.49,1.33,6.361,6.361,0,0,0,.3,1.87v.11h-.12a3.86,3.86,0,0,0-2.36.78,3.06,3.06,0,0,0-1.26,2.44,2.83,2.83,0,0,0,1.06,2.28l.23.17h-.29a3.56,3.56,0,0,0-2.59,1.2,3.39,3.39,0,0,0-.83,2.14,3.71,3.71,0,0,0,.26,1.52c.14.33.25.5.24.51s0,0-.09-.12a2.179,2.179,0,0,1-.21-.37,3.42,3.42,0,0,1-.33-1.54,3.46,3.46,0,0,1,.83-2.25,3.69,3.69,0,0,1,2.72-1.29l-.06.18a3.183,3.183,0,0,1-.77-3.93,3.48,3.48,0,0,1,1-1.11,4,4,0,0,1,2.49-.79l-.09.1A5.85,5.85,0,0,1,419,176a2.27,2.27,0,0,1,.55-1.39,1.59,1.59,0,0,1,.82-.49.931.931,0,0,1,.26,0Z" fill="#30616f"/>
            <path id="Trazado_114299" data-name="Trazado 114299" d="M433.38,188.8l-.11.07-.34.17a5,5,0,0,1-1.38.34,5.5,5.5,0,0,1-2.17-.21A5.24,5.24,0,0,1,427,187.7h.16a4.39,4.39,0,0,1-3.06,2.2,3.33,3.33,0,0,1-3.47-1.75h.18a2.78,2.78,0,0,1-.81,1.19,3.749,3.749,0,0,1-1.11.66,5.09,5.09,0,0,1-2.09.27,10.515,10.515,0,0,1-1.36-.19,2.381,2.381,0,0,1-.48-.12,3,3,0,0,1,.49.06,13.109,13.109,0,0,0,1.35.13,5,5,0,0,0,2-.3,3,3,0,0,0,1.79-1.76l.08-.23.1.22a3.16,3.16,0,0,0,3.27,1.62,4.19,4.19,0,0,0,2.92-2.08l.07-.12.08.1a5.17,5.17,0,0,0,2.27,1.44,5.27,5.27,0,0,0,2.11.25,6.16,6.16,0,0,0,1.89-.49Z" fill="#30616f"/>
            <path id="Trazado_114300" data-name="Trazado 114300" d="M426.38,199a.27.27,0,0,1-.08.13.71.71,0,0,1-.39.18,3.12,3.12,0,0,1-1.52-.22,3.75,3.75,0,0,1-1.79-1.42A3.87,3.87,0,0,1,422,195h0l.16.11a4.55,4.55,0,0,1-2.76.44,5,5,0,0,1-2.11-.86,5.39,5.39,0,0,1-1.13-1,2.149,2.149,0,0,1-.32-.46,8.891,8.891,0,0,0,1.53,1.38,4.94,4.94,0,0,0,2.06.79,4.43,4.43,0,0,0,2.63-.44l.18-.09v.2h0a3.63,3.63,0,0,0,2.2,4,3.44,3.44,0,0,0,1.46.27.67.67,0,0,0,.48-.34Z" fill="#30616f"/>
            <path id="Trazado_114301" data-name="Trazado 114301" d="M405.7,174.73a5.77,5.77,0,0,0-.27,2.12,4.75,4.75,0,0,0,.72,2.18,4.83,4.83,0,0,0,2.14,1.79,4.78,4.78,0,0,0,1.58.37H410v.12a6.23,6.23,0,0,0-.2,2.23,6.411,6.411,0,0,0,.43,1.74,5.8,5.8,0,0,0,.3.61.52.52,0,0,0,.37.27.32.32,0,0,0,.27-.09c.05-.05.06-.09.07-.09a.14.14,0,0,1,0,.11.35.35,0,0,1-.3.14.61.61,0,0,1-.46-.28,5.821,5.821,0,0,1-.33-.62,6.09,6.09,0,0,1-.3-4.08l.09.13a5,5,0,0,1-1.66-.38,4.755,4.755,0,0,1-2.73-5.74c.06-.18.11-.32.15-.41S405.69,174.72,405.7,174.73Z" fill="#30616f"/>
            <path id="Trazado_114302" data-name="Trazado 114302" d="M386.75,241.24s-1,11.9,8.28,12.81,13-7.51,13-11.45l-4.43-2.76Z" fill="#ffbf9d"/>
          </g>
          <path id="Trazado_114303" data-name="Trazado 114303" d="M387.69,223.42c.12.17,0,.05.17.18a5.63,5.63,0,0,0,1.95,1.06,1.79,1.79,0,0,0,1.94-.57,1.55,1.55,0,0,0-.18-1.77,3,3,0,0,0-1.77-1h-.19a1.71,1.71,0,0,0-2,1.84A.67.67,0,0,0,387.69,223.42Z" fill="#ff9a6c"/>
          <path id="Trazado_114304" data-name="Trazado 114304" d="M392.63,221.82a9.18,9.18,0,0,1-2.77,1.41,9.62,9.62,0,0,1-3,.94,9.07,9.07,0,0,1,2.77-1.42,9.76,9.76,0,0,1,3-.93Z" fill="#20242d"/>
        </g>
        <g id="Grupo_89845" data-name="Grupo 89845">
          <path id="Trazado_114305" data-name="Trazado 114305" d="M373.44,244.57l12.95-4.31c3.8,9.32,16.19,8,21.53-.74l15.42,5.24L432,262.11l-6.52,36.62,11.92,23.59-31.92,6L377.6,315.38l-2.38-1.8-4.74-62.41Z" fill="#ca4f4e"/>
          <path id="Trazado_114306" data-name="Trazado 114306" d="M373.44,244.57s-10.27,4.27-11.35,15.64c-.41,4.38-3.51,24.94-3.51,24.94l-14.53-1.72L340.54,295s16.24,8.48,21.26,9.58c8.66,1.89,12.85-3,12.85-3Z" fill="#ca4f4e"/>
          <path id="Trazado_114307" data-name="Trazado 114307" d="M370.69,258.44a3,3,0,0,1,0,.56c0,.41,0,.94-.05,1.61a19.553,19.553,0,0,0,0,2.55c.06.99,0,2.13,0,3.38s.07,2.62.17,4.09.22,3,.35,4.69c.3,3.3.71,6.92,1.21,10.71,1,7.58,2,14.45,2.41,19.45.12,1.24.2,2.38.27,3.37s.12,1.85.14,2.55,0,1.21.06,1.62a4.755,4.755,0,0,1,0,.56,2.26,2.26,0,0,1-.07-.56c0-.4-.07-.94-.13-1.61s-.11-1.55-.21-2.54-.18-2.12-.33-3.37c-.51-5-1.51-11.83-2.52-19.42-.49-3.8-.89-7.42-1.18-10.73-.12-1.65-.25-3.22-.31-4.7s-.11-2.85-.12-4.1,0-2.39,0-3.39.06-1.85.12-2.55l.12-1.61a2.909,2.909,0,0,1,.07-.56Z" fill="#20242d"/>
          <g id="Grupo_89841" data-name="Grupo 89841">
            <path id="Trazado_114308" data-name="Trazado 114308" d="M343.39,260.6s4.42-4.29,6.11-3.77a9.23,9.23,0,0,1,3.12,1.87s1.69-1,2.6,0a15.15,15.15,0,0,1,1.82,2.81s1.61-.23,2.86,1.85,4.33,9.08,5.48,10.25a10.439,10.439,0,0,0,4.19,2.41c1.65.58,15.45,5.25,15.45,5.25l-5.08,12.66s-20.3-11.87-21.08-12.65-6.89-4.81-7.8-7.28-7.67-10-7.67-10Z" fill="#ffbf9d"/>
            <path id="Trazado_114309" data-name="Trazado 114309" d="M356.82,265.63a.86.86,0,0,1-.24.48,2.94,2.94,0,0,1-1.18.95l.07-.13a4,4,0,0,1-.62,2.77,3.548,3.548,0,0,1-.56.68,1.51,1.51,0,0,1-.89.44,1,1,0,0,1-.93-.53,2.709,2.709,0,0,1-.3-1c-.15-1.15-.3-2.23-.41-3.25a2,2,0,0,1,.36-1.47,2.889,2.889,0,0,1,1.05-.76,10.39,10.39,0,0,0,1.59-.8c.34-.25.47-.45.5-.43a1.12,1.12,0,0,1-.4.54,7.32,7.32,0,0,1-1.56.93,2.75,2.75,0,0,0-.92.72,1.64,1.64,0,0,0-.27,1.24c.14,1,.29,2.09.44,3.23.07.61.32,1.23.82,1.18a1.917,1.917,0,0,0,1.19-.93,4.07,4.07,0,0,0,.67-2.55v-.1h.08a3.1,3.1,0,0,0,1.17-.8C356.7,265.78,356.79,265.61,356.82,265.63Z" fill="#ff9a6c"/>
            <path id="Trazado_114310" data-name="Trazado 114310" d="M358.1,269.39c0,.09-.7-.17-1.18-.87s-.47-1.42-.37-1.42.27.59.69,1.2S358.16,269.29,358.1,269.39Z" fill="#ff9a6c"/>
            <path id="Trazado_114311" data-name="Trazado 114311" d="M357.6,277.55c-.12,0-.07-1.29-.55-2.75a27.249,27.249,0,0,0-1.16-2.56,5.85,5.85,0,0,1,1.71,5.31Z" fill="#ff9a6c"/>
            <path id="Trazado_114312" data-name="Trazado 114312" d="M352.28,267a1.72,1.72,0,0,1-.19.61,3.07,3.07,0,0,1-1,1.43,1.82,1.82,0,0,1-1.23.32,1.73,1.73,0,0,1-1.19-.86,4.67,4.67,0,0,1-.56-1.47,12.781,12.781,0,0,1-.3-1.63,4.9,4.9,0,0,1,.77-3.11,7.92,7.92,0,0,1,1.77-1.92,14.2,14.2,0,0,1,1.42-1c.35-.22.55-.33.56-.3s-.71.57-1.81,1.51a8,8,0,0,0-1.63,1.9,4.53,4.53,0,0,0-.69,2.89,11.868,11.868,0,0,0,.28,1.58,4.66,4.66,0,0,0,.49,1.36,1.43,1.43,0,0,0,.94.73,1.5,1.5,0,0,0,1-.23,3.33,3.33,0,0,0,1.06-1.26C352.15,267.16,352.25,267,352.28,267Z" fill="#ff9a6c"/>
          </g>
          <g id="Grupo_89842" data-name="Grupo 89842" opacity="0.3">
            <path id="Trazado_114313" data-name="Trazado 114313" d="M412.74,300.08c-1.27,1.25-2.67,2.53-4.42,2.82a9,9,0,0,1-4.58-.87l-25-9.5-2,2.76c8.59,7,19.32,13.08,29.92,15.64a12.68,12.68,0,0,0,10.19-2c2.22-1.62,3.58-4.16,4.7-6.67a62.879,62.879,0,0,0,5-18.45,124.89,124.89,0,0,1-13.81,16.27Z"/>
          </g>
          <path id="Trazado_114314" data-name="Trazado 114314" d="M419.17,252.69c-.62.66-15.14,31.65-15.14,31.65L375.86,278l-3.18,15.51s25.54,11.33,32.22,13.34c4.26,1.29,7.2,1,11.38-3s14.77-29.64,16-34.81c1.13-4.91,5.18-18-8.89-24.36Z" fill="#ca4f4e"/>
          <g id="Grupo_89843" data-name="Grupo 89843">
            <path id="Trazado_114315" data-name="Trazado 114315" d="M353.32,275.05a1.6,1.6,0,0,0,.82-2.36l-16.7-28.08A1.27,1.27,0,0,0,336,244l-15.94,4.41c-1.26.25-1.61,2.34-1.08,3.23l16.82,26.77a3.35,3.35,0,0,0,3.05,1.17" fill="#20242d"/>
            <path id="Trazado_114316" data-name="Trazado 114316" d="M353.86,274.6a3.605,3.605,0,0,1-.31-.46l-.84-1.35c-.75-1.21-1.79-2.91-3.07-5l-10-16.58c-1-1.6-1.92-3.25-2.84-4.69a1.71,1.71,0,0,0-.93-.59,1.85,1.85,0,0,0-1.06.09l-2.15.59-7.43,2-5,1.33-1.37.34a2.45,2.45,0,0,1-.48.1,2.131,2.131,0,0,1,.47-.17l1.35-.42,5-1.44,7.41-2.1,2.15-.6a1.959,1.959,0,0,1,2.28.59c1,1.53,1.89,3.11,2.88,4.73l9.93,16.65c1.24,2.12,2.25,3.85,3,5.08l.79,1.39a3.19,3.19,0,0,1,.22.51Z" fill="#30616f"/>
            <path id="Trazado_114317" data-name="Trazado 114317" d="M330.52,252.72a.88.88,0,1,1-.88-.9.89.89,0,0,1,.88.9Z" fill="#fff"/>
          </g>
          <g id="Grupo_89844" data-name="Grupo 89844">
            <path id="Trazado_114318" data-name="Trazado 114318" d="M331,258.53c-.09.54-3.69,11.46-4.23,12.52s0,3.13,0,3.13-1.26,2.61.72,4.41c0,0,.15,2.34,1.2,2.79a5.42,5.42,0,0,1,1.86,1.53s5.94,8.1,6.57,8.91a44.482,44.482,0,0,0,3.39,3.19s8.38-3.05,3.93-11l-2.52-1.6.86-6.46s2.07-1.63,1.62-2.71a1,1,0,0,0-1.35-.64s.8-2.24-1.13-2.6l-7.41,3.58s5.48-5.54,4.68-7.07-1.17-1.28-1.17-1.28l-7.11,6s1.77-6.62,2.25-8.73C334.09,258.53,331,258.53,331,258.53Z" fill="#ffbf9d"/>
            <path id="Trazado_114319" data-name="Trazado 114319" d="M343,272.91a7.441,7.441,0,0,1-1.33,1.45,24.942,24.942,0,0,1-3.78,2.9,25.41,25.41,0,0,1-4.26,2.13,7.56,7.56,0,0,1-1.89.57,14.415,14.415,0,0,1,1.79-.82,35.2,35.2,0,0,0,4.15-2.21,36.531,36.531,0,0,0,3.81-2.77,14.353,14.353,0,0,1,1.51-1.25Z" fill="#ff9a6c"/>
            <path id="Trazado_114320" data-name="Trazado 114320" d="M338.05,265.19a7.08,7.08,0,0,1-1.24,1.39,43.215,43.215,0,0,1-3.39,2.93,27.181,27.181,0,0,1-5.25,3.55,17.59,17.59,0,0,1,1.47-1.13c.91-.69,2.17-1.65,3.54-2.72s2.58-2.09,3.45-2.83a11.732,11.732,0,0,1,1.42-1.19Z" fill="#ff9a6c"/>
            <path id="Trazado_114321" data-name="Trazado 114321" d="M341.87,274.65a.471.471,0,0,1,.46-.09,1,1,0,0,1,.76,1,2.66,2.66,0,0,1-.82,1.66c-.44.52-.93,1.07-1.48,1.64a29.417,29.417,0,0,1-2.94,2.7,6.229,6.229,0,0,1-1.36.95c-.07-.09,1.88-1.68,4-3.92.53-.56,1-1.1,1.48-1.6a2.5,2.5,0,0,0,.82-1.44.92.92,0,0,0-.54-.85C342,274.6,341.88,274.69,341.87,274.65Z" fill="#ff9a6c"/>
            <path id="Trazado_114322" data-name="Trazado 114322" d="M341.2,282.1c-.1.06-.47-.36-1-.8s-1-.72-1-.82.64,0,1.22.53S341.28,282.05,341.2,282.1Z" fill="#ff9a6c"/>
            <path id="Trazado_114323" data-name="Trazado 114323" d="M341.4,286.66a3.009,3.009,0,0,1-.2.93,3.45,3.45,0,0,1-1.6,1.66,3.5,3.5,0,0,1-2.29.28c-.58-.14-.88-.36-.86-.4s.36.07.91.13a3.66,3.66,0,0,0,3.6-1.8C341.24,287,341.34,286.64,341.4,286.66Z" fill="#ff9a6c"/>
            <path id="Trazado_114324" data-name="Trazado 114324" d="M342.06,270a8.27,8.27,0,0,1-1.65,1c-1.05.54-2.51,1.26-4.16,2s-3.16,1.36-4.26,1.78a8.669,8.669,0,0,1-1.82.59,10.528,10.528,0,0,1,1.71-.85l4.21-1.87,4.2-1.9A10.459,10.459,0,0,1,342.06,270Z" fill="#ff9a6c"/>
          </g>
          <path id="Trazado_114325" data-name="Trazado 114325" d="M416.38,258.44s-.06.16-.2.47l-.63,1.36c-.56,1.21-1.38,3-2.43,5.21l-9,18.93-.05.1h-.12l-28.17-6.26.22-.15c-1,5-2.08,10.17-3.17,15.51l-.11-.21,2.22,1c9.59,4.19,18.73,8.19,27.2,11.42a22.15,22.15,0,0,0,6.34,1.64,8.87,8.87,0,0,0,5.7-1.94,15.8,15.8,0,0,0,2.2-1.94,8,8,0,0,0,.89-1.12c.26-.39.55-.76.77-1.17.48-.8.95-1.59,1.36-2.38s.83-1.57,1.21-2.34c3-6.15,5.12-11.3,6.6-14.83.72-1.77,1.28-3.14,1.66-4.1.19-.45.33-.81.44-1.06l.15-.36a3.772,3.772,0,0,1-.12.38c-.09.25-.22.61-.4,1.07-.35.95-.89,2.34-1.59,4.12-1.44,3.56-3.49,8.72-6.5,14.9-.37.77-.77,1.56-1.2,2.35s-.87,1.6-1.35,2.4c-.23.42-.52.8-.79,1.2a8.922,8.922,0,0,1-.9,1.15,14.772,14.772,0,0,1-2.25,2,11.061,11.061,0,0,1-2.71,1.52,8.33,8.33,0,0,1-3.18.51,22.292,22.292,0,0,1-6.45-1.65c-8.5-3.21-17.64-7.2-27.24-11.39l-2.22-1-.14-.06v-.16c1.1-5.34,2.17-10.54,3.18-15.51v-.18h.19l28.16,6.33-.17.09L413,265.41l2.51-5.17.67-1.35A2.9,2.9,0,0,1,416.38,258.44Z" fill="#20242d"/>
          <path id="Trazado_114326" data-name="Trazado 114326" d="M427.36,305.37a4.434,4.434,0,0,1-.69.63c-.46.39-1.16.92-2.05,1.54a37.65,37.65,0,0,1-7.48,3.94,37.09,37.09,0,0,1-8.16,2.18c-1.07.15-2,.24-2.55.27a5.216,5.216,0,0,1-.94,0,3.712,3.712,0,0,1,.93-.16c.59-.07,1.46-.2,2.51-.39a42.39,42.39,0,0,0,15.53-6.08c.91-.58,1.63-1.07,2.12-1.43a4.716,4.716,0,0,1,.78-.5Z" fill="#20242d"/>
          <path id="Trazado_114327" data-name="Trazado 114327" d="M364.7,299.63c-.08,0,.11-1,.11-2.49a16.059,16.059,0,0,0-.25-2.66,17.22,17.22,0,0,0-.91-3.15,17,17,0,0,0-1.53-2.89,15.1,15.1,0,0,0-1.68-2.09c-1.06-1.11-1.85-1.65-1.8-1.71a2.45,2.45,0,0,1,.58.34,6.242,6.242,0,0,1,.63.48,7.81,7.81,0,0,1,.79.7,13.93,13.93,0,0,1,1.77,2.08,14.93,14.93,0,0,1,2.5,6.18,14.242,14.242,0,0,1,.17,2.73,9.817,9.817,0,0,1-.08,1,5.725,5.725,0,0,1-.13.78A3,3,0,0,1,364.7,299.63Z" fill="#20242d"/>
          <path id="Trazado_114328" data-name="Trazado 114328" d="M367.59,295.79c-.06,0-.18-.74-.55-1.9a15.61,15.61,0,0,0-5.36-7.59,18.829,18.829,0,0,1-1.6-1.16,1.621,1.621,0,0,1,.5.2,8.75,8.75,0,0,1,1.26.74,14,14,0,0,1,3.42,3.38,13.8,13.8,0,0,1,2,4.36,10,10,0,0,1,.28,1.43C367.61,295.59,367.62,295.78,367.59,295.79Z" fill="#20242d"/>
        </g>
        <path id="Trazado_114329" data-name="Trazado 114329" d="M427.18,308.37a3.548,3.548,0,0,1-.43.48c-.3.29-.75.71-1.32,1.2a45.194,45.194,0,0,1-4.7,3.53,47.1,47.1,0,0,1-5.11,2.89c-.68.32-1.24.57-1.63.72a2.279,2.279,0,0,1-.62.21,16.744,16.744,0,0,1,2.12-1.17c1.32-.71,3.12-1.73,5-3s3.56-2.49,4.74-3.42a18.462,18.462,0,0,1,1.95-1.44Z" fill="#20242d"/>
        <g id="Grupo_89849" data-name="Grupo 89849">
          <path id="Trazado_114330" data-name="Trazado 114330" d="M330.94,371.85l-17.75,28.86,14.04,10.58,22.12-27.04Z" fill="#ffbf9d"/>
          <g id="Grupo_89848" data-name="Grupo 89848">
            <path id="Trazado_114331" data-name="Trazado 114331" d="M314.43,398.43l-.71.93s-20.61-5.64-23.05-2.77l31.49,23.63,7.44-10.8A22.56,22.56,0,0,1,314.43,398.43Z" fill="#60c1dd"/>
            <g id="Grupo_89846" data-name="Grupo 89846" opacity="0.6">
              <path id="Trazado_114332" data-name="Trazado 114332" d="M323.89,410.38a1.6,1.6,0,0,1-.21,2.13,1.54,1.54,0,0,1-2.12-.19,1.7,1.7,0,0,1,.24-2.26,1.61,1.61,0,0,1,2.18.44" fill="#fff"/>
            </g>
            <g id="Grupo_89847" data-name="Grupo 89847" opacity="0.6">
              <path id="Trazado_114333" data-name="Trazado 114333" d="M322.16,420.22l1.79-2.6-30.84-21.69s-1.86-.45-2.44.66Z" fill="#fff"/>
            </g>
            <path id="Trazado_114334" data-name="Trazado 114334" d="M313.54,399.36c-.11.16.61.81,1,1.87s.31,2,.5,2,.62-1,.13-2.29S313.62,399.19,313.54,399.36Z" fill="#20242d"/>
            <path id="Trazado_114335" data-name="Trazado 114335" d="M309.21,398.25c-.14.12.33.88.36,1.93s-.33,1.84-.17,1.95.91-.69.84-2S309.33,398.1,309.21,398.25Z" fill="#20242d"/>
            <path id="Trazado_114336" data-name="Trazado 114336" d="M304.37,400.8c.12.13.91-.47,1.14-1.61s-.23-2-.39-1.94-.05.87-.26,1.8S304.23,400.67,304.37,400.8Z" fill="#20242d"/>
          </g>
        </g>
        <g id="Grupo_89853" data-name="Grupo 89853">
          <path id="Trazado_114337" data-name="Trazado 114337" d="M367.53,397.75l.53,43.76,14.76-4.92,5.19-39.39Z" fill="#ffbf9d"/>
          <g id="Grupo_89852" data-name="Grupo 89852">
            <path id="Trazado_114338" data-name="Trazado 114338" d="M382.9,434s-9.65,8.06-15.2,2.35l-1,3.1-3.92,21.81a2.84,2.84,0,0,0,2,3.26,2.89,2.89,0,0,0,3-.83c3.87-4.31,18.06-20.23,17.73-22.19l-.53-5.21a2.67,2.67,0,0,0-2-2.29Z" fill="#60c1dd"/>
            <g id="Grupo_89850" data-name="Grupo 89850" opacity="0.6">
              <path id="Trazado_114339" data-name="Trazado 114339" d="M365.23,464.59l20-24.93.1,1.14c.23,1.22-.28,1.76-.81,2.61-1.58,2.51-6,8.21-16.78,20.25a2.89,2.89,0,0,1-2.51.93Z" fill="#fff"/>
            </g>
            <g id="Grupo_89851" data-name="Grupo 89851" opacity="0.6">
              <path id="Trazado_114340" data-name="Trazado 114340" d="M381.69,436.55a1.65,1.65,0,0,0-.28,2.22,1.68,1.68,0,0,0,2.26.28,1.6,1.6,0,1,0-2.1-2.39" fill="#fff"/>
            </g>
            <path id="Trazado_114341" data-name="Trazado 114341" d="M370.53,452.27a8.591,8.591,0,0,0-2.61-1.88,8.76,8.76,0,0,0-3.24-.32c0-.06.31-.3.95-.45a4.59,4.59,0,0,1,4.52,1.7C370.52,451.85,370.59,452.24,370.53,452.27Z" fill="#20242d"/>
            <path id="Trazado_114342" data-name="Trazado 114342" d="M368.87,456.05a24.089,24.089,0,0,0-2.55-.95,23.908,23.908,0,0,0-2.73-.1c-.09-.13,1.19-.82,2.86-.48A3.272,3.272,0,0,1,368.87,456.05Z" fill="#20242d"/>
            <path id="Trazado_114343" data-name="Trazado 114343" d="M373.79,447.33a27.491,27.491,0,0,0-3.83-1.72,26.682,26.682,0,0,0-4.18-.57,6.39,6.39,0,0,1,4.35,0C372.53,445.71,373.92,447.24,373.79,447.33Z" fill="#20242d"/>
            <path id="Trazado_114344" data-name="Trazado 114344" d="M373.7,440.81c-.06.16-1.65-.32-3.64-.22s-3.53.7-3.6.54A5.58,5.58,0,0,1,370,440C372.18,439.89,373.77,440.67,373.7,440.81Z" fill="#20242d"/>
            <path id="Trazado_114345" data-name="Trazado 114345" d="M368.92,440.63a2.35,2.35,0,0,1,.07-1,6.85,6.85,0,0,1,1.09-2.59,3.26,3.26,0,0,1,1.53-1.38,1.17,1.17,0,0,1,1.26.37,1.77,1.77,0,0,1,.32,1.25,4,4,0,0,1-3.87,3.3A4.63,4.63,0,0,1,365,437.8a1.51,1.51,0,0,1,.05-1.31,1.14,1.14,0,0,1,1.23-.47A4,4,0,0,1,368,437.1a7.9,7.9,0,0,1,1.68,2.26,2.308,2.308,0,0,1,.33,1,12.279,12.279,0,0,0-2.3-2.92,3.74,3.74,0,0,0-1.53-.91.61.61,0,0,0-.67.25,1.06,1.06,0,0,0,0,.87A4.13,4.13,0,0,0,369.3,440a3.49,3.49,0,0,0,3.33-2.75,1.26,1.26,0,0,0-.19-.88.62.62,0,0,0-.69-.21,2.84,2.84,0,0,0-1.31,1.14A10.27,10.27,0,0,0,368.92,440.63Z" fill="#20242d"/>
          </g>
        </g>
        <g id="Grupo_89854" data-name="Grupo 89854">
          <path id="Trazado_114346" data-name="Trazado 114346" d="M378.38,310.7s-6.57-2.86-14.17,1.69c-5.84,3.49-43.26,64-43.26,64L345.15,393l33.23-49.27L392,355.46s28.16,5.71,36.57,2.1,13-13.15,12.32-21.33a41.73,41.73,0,0,0-3.46-13.91c-9.71,1.49-16.29,5-29.59-1.34Z" fill="#20242d"/>
          <path id="Trazado_114347" data-name="Trazado 114347" d="M370,342.31s15.61-6.64,20.39,5.41c1.61,4.06.6,21.79-.2,38.39-.79,16.32-1.36,31.53-1.36,31.53l-25.57-.71-1-43.71s.29-16.1,2.81-21.29S370,342.31,370,342.31Z" fill="#20242d"/>
          <path id="Trazado_114348" data-name="Trazado 114348" d="M354.25,325l-.16.26-.47.73-1.87,2.83-7,10.61c-6,9.07-14.32,21.89-23.63,37l-.05-.25L342.51,391l2.75,1.89-.27.05c13.1-19.37,24.85-36.77,33.28-49.24h0a11.61,11.61,0,0,0,3.28-4.17,16.08,16.08,0,0,0,1.39-4.56,13.82,13.82,0,0,0-3.4-11.56,9.108,9.108,0,0,0-.89-.89l-.3-.3a10.16,10.16,0,0,1,1.25,1.13A13.79,13.79,0,0,1,383.15,335a16.629,16.629,0,0,1-1.38,4.64,12,12,0,0,1-3.34,4.27h0c-8.4,12.49-20.12,29.91-33.18,49.3l-.1.16-.16-.11-2.76-1.89-21.44-14.72-.15-.1.1-.15c9.33-15.14,17.73-27.93,23.75-37,3-4.5,5.43-8.08,7.1-10.54l1.91-2.8.51-.72A2.872,2.872,0,0,1,354.25,325Z" fill="#30616f"/>
          <path id="Trazado_114349" data-name="Trazado 114349" d="M425.35,341.19a15.482,15.482,0,0,0-.26-4.26,17.24,17.24,0,0,0-5.25-8.68,36.7,36.7,0,0,0-8.7-5.56l-2.84-1.36a7.775,7.775,0,0,1-1-.53,7.316,7.316,0,0,1,1.09.4c.69.28,1.69.69,2.9,1.25A33.72,33.72,0,0,1,420.1,328a16.86,16.86,0,0,1,5.26,8.91,11.15,11.15,0,0,1,.18,3.17,6.848,6.848,0,0,1-.12.85C425.39,341.1,425.36,341.2,425.35,341.19Z" fill="#30616f"/>
          <path id="Trazado_114350" data-name="Trazado 114350" d="M388.82,417.64a5.409,5.409,0,0,1,0-.84c0-.59,0-1.4.05-2.4.07-2.14.17-5.15.29-8.84.31-7.51.73-17.8,1.19-29.16.24-5.69.47-11.11.68-16s.79-9.46-.67-12.92a9.72,9.72,0,0,0-2.93-3.93,8.94,8.94,0,0,0-3.3-1.73,12.79,12.79,0,0,0-2.33-.48c-.55-.07-.84-.08-.84-.1h.85a12,12,0,0,1,2.38.4,9.78,9.78,0,0,1,6.51,5.71,15.59,15.59,0,0,1,1,6.06c-.05,2.2-.13,4.55-.21,7-.2,4.94-.41,10.36-.64,16.05-.52,11.36-1,21.65-1.34,29.15-.19,3.69-.35,6.7-.46,8.84q-.09,1.5-.15,2.4A4.108,4.108,0,0,1,388.82,417.64Z" fill="#30616f"/>
        </g>
      </g>
    </g>
  </g>
</svg>
