<svg xmlns="http://www.w3.org/2000/svg" width="240" height="240.138" viewBox="0 0 240 240.138">
  <g id="Grupo_91699" data-name="Grupo 91699" transform="translate(-950 -6395.523)">
    <g id="CF1_paso_copia_3" data-name="CF1_paso copia 3" transform="translate(950 6395.523)">
      <rect id="Rect치ngulo_35521" data-name="Rect치ngulo 35521" width="166.54" height="166.54" rx="14.9" transform="translate(2.24 122.376) rotate(-45)" fill="#bfe6f1"/>
      <rect id="Rect치ngulo_35522" data-name="Rect치ngulo 35522" width="240" height="240" fill="none"/>
      <g id="Grupo_89488" data-name="Grupo 89488">
        <path id="Trazado_112891" data-name="Trazado 112891" d="M98.93,69c8.9.42,14.65,2,19.32,7.48s28.12,38.84,28.12,38.84-4.13,11.56-13.15,10.58l-17.71-21.43Z" fill="#ffc6b1"/>
        <path id="Trazado_112892" data-name="Trazado 112892" d="M99.63,68.82s9.49.15,13.82,3.19,5.06,3.66,11.43,12.5S137,101.28,137,101.28A27.2,27.2,0,0,1,121.57,113L102.81,90.4Z" fill="#183037"/>
      </g>
      <path id="Trazado_112893" data-name="Trazado 112893" d="M82.86,240c2-17.07,4.94-54.82,4.94-54.82l6.75,50.43s-.15,1.71-.32,4.39H118v-4.39c.16-8.57-.77-96.42-.77-96.42L56.09,153.94c-.91,27.52-1,83.82-1,83.82-.06.64-.11,1.38-.17,2.24Z" fill="#5591ba"/>
      <path id="Trazado_112894" data-name="Trazado 112894" d="M87.8,185.18s10-2.8,17.35-10c0,0-3.35,6.27-13.3,12.1l2.12,44Z" opacity="0.2"/>
      <g id="Chest">
        <path id="Trazado_112895" data-name="Trazado 112895" d="M80.53,67.84c-5.58.54-13.38.61-18.92,1.17C57.78,70.59,50.4,77,51,81.61c2,17.15,5.63,45.47,5.63,45.47l-1.1,29.57c7.67,7.65,43.89,10.63,62.38-1.61,0,0-.6-53.52-1.87-62.54-2.28-16.22-4.28-22.24-12.65-23.68S80.53,67.84,80.53,67.84Z" fill="#30616f"/>
        <g id="Grupo_89491" data-name="Grupo 89491">
          <g id="Grupo_89489" data-name="Grupo 89489">
            <circle id="Elipse_4065" data-name="Elipse 4065" cx="17.28" cy="17.28" r="17.28" transform="matrix(0.36, -0.933, 0.933, 0.36, 74.095, 37.567)" fill="#3b4454"/>
            <path id="Trazado_112896" data-name="Trazado 112896" d="M66.44,39.68S69.13,52.87,70.23,55a6,6,0,0,0,3.42,2.81l-.11-9.26Z" fill="#3b4454"/>
            <path id="Trazado_112897" data-name="Trazado 112897" d="M70.12,20.87a6.45,6.45,0,0,0-5.38,1.84c-2.33,2.33-1.1,9.72,1.7,17l5.27.66Z" fill="#3b4454"/>
            <path id="Trazado_112898" data-name="Trazado 112898" d="M73.3,40.35c-1.07.63-2.56-1.42-3.85-2.79s-5.54-3.28-7.7,1.17,1.78,10.61,5.13,11.69c5.76,1.87,6.66-1.83,6.66-1.83l.24,21.48h0c7.1,9.27,27,8.67,18.82-1V62.72s5.23.84,7.79.47c4.25-.62,6.95-4,8.28-8.54,2.14-7.36,3-13.32,1.35-27.87C108.27,10.82,89.75,10.49,79.69,16.7S73.3,40.35,73.3,40.35Z" fill="#ffc6b1"/>
            <path id="Trazado_112899" data-name="Trazado 112899" d="M73.28,42.13c-.53,0-2.52-3.36-3.83-4.57-1.81-1.68.67-16.69.67-16.69a7.3,7.3,0,0,1,1.33-8.11C74,10,77.49,6.7,88.82,8.14c8.08,1,16.86,3.63,24,.2a12.1,12.1,0,0,1-4.33,12.81s-2.59,1.64-9.36,2.41S81.82,23.25,80.38,23c-2-.29-2.4,1.61-3.5,6.8C75.91,34.39,75.07,42.12,73.28,42.13Z" fill="#3b4454"/>
            <path id="Trazado_112900" data-name="Trazado 112900" d="M70.12,22l-6.36-3.48A3.51,3.51,0,0,1,68.61,17a3.8,3.8,0,0,1,1.51,5Z" fill="#3b4454"/>
            <path id="Trazado_112901" data-name="Trazado 112901" d="M92.64,62.7s-9.47-2-12.77-3.78a10.86,10.86,0,0,1-4.54-4.58,14.92,14.92,0,0,0,2.55,5.38c2.4,3.12,14.74,5.51,14.74,5.51Z" fill="#eaa792"/>
          </g>
          <g id="Grupo_89490" data-name="Grupo 89490">
            <path id="Trazado_112902" data-name="Trazado 112902" d="M94.3,39.71a1.9,1.9,0,1,1-1.88-2,1.93,1.93,0,0,1,1.88,2Z" fill="#3b4454"/>
            <path id="Trazado_112903" data-name="Trazado 112903" d="M93.15,30.86l-4,2.42A2.45,2.45,0,0,1,90,30a2.27,2.27,0,0,1,3.15.86Z" fill="#3b4454"/>
            <path id="Trazado_112904" data-name="Trazado 112904" d="M109.49,35.42l-3.59-3a2.25,2.25,0,0,1,3.24-.37,2.46,2.46,0,0,1,.35,3.37Z" fill="#3b4454"/>
            <path id="Trazado_112905" data-name="Trazado 112905" d="M108,39.71a1.83,1.83,0,1,1-1.81-1.92A1.86,1.86,0,0,1,108,39.71Z" fill="#3b4454"/>
            <path id="Trazado_112906" data-name="Trazado 112906" d="M99.23,37.24l-.71,11.43,6.17-1.33Z" fill="#eaa792"/>
            <path id="Trazado_112907" data-name="Trazado 112907" d="M95,53.69a1.82,1.82,0,1,1-.537-1.29A1.83,1.83,0,0,1,95,53.69Z" fill="#eaa792"/>
          </g>
        </g>
      </g>
      <g id="Grupo_89492" data-name="Grupo 89492">
        <path id="Trazado_112908" data-name="Trazado 112908" d="M39.29,47.68c4.24-4.57,7.18-8.06,11-12,2.19-2.21,3.6-3.81,5.72-6.09,1.46-1.57,2.36-2.93,3.83-3.31a11.85,11.85,0,0,0,4.45-2.4,25.471,25.471,0,0,0,2.23-2.3,37.36,37.36,0,0,1,8.32-6.76c3.23-1.94,6.74-3.3,10-5.12,2-1.09,4.15-3,2.14-5.23a5.41,5.41,0,0,0-2.36-1.43c-5.34-1.74-10.32-.31-15.84.47A41.4,41.4,0,0,0,62.1,5.03,11.24,11.24,0,0,0,59,6.47a15.89,15.89,0,0,0-3.54,4.06C52.63,14.47,47.84,18.16,44,21.06c-4.48,3.39-8.86,7-13.44,10.25a158.249,158.249,0,0,0-13.5,10.4c-3.54,3.1-3.17,5.15-2.82,6.13,2,5.58,4.71,7.8,7.81,11.46C28.56,66.94,56.7,95.69,56.7,95.69l4.38-8.08a20.46,20.46,0,0,0-4.56-25.19C50.63,57.29,44.26,51.75,39.29,47.68Z" fill="#ffc6b1"/>
        <path id="Trazado_112909" data-name="Trazado 112909" d="M64.88,68.45c-8-6.24-22.14-18.28-22.14-18.28S42.19,64.33,32,71.24c0,0,18.71,20,23.61,24.81,4.57-1,8.47-4.68,9.78-11.74C67.57,72.36,64.88,68.45,64.88,68.45Z" fill="#183037"/>
        <path id="Trazado_112910" data-name="Trazado 112910" d="M39.29,47.68a20.76,20.76,0,0,1-10.23,5.54s4.63,1.38,12.09-4Z" fill="#eaa792"/>
      </g>
      <path id="Trazado_112911" data-name="Trazado 112911" d="M101.26,152.88v20.64c0,4.14-2.73,5.92-6.1,4A13.48,13.48,0,0,1,89.07,167v-7Z" fill="#f0f0f0"/>
      <path id="Trazado_112912" data-name="Trazado 112912" d="M106.35,134.67a2.35,2.35,0,0,0-2.17-.38,3.09,3.09,0,0,0-.92,2.63v36.6c0,2.72-1,4.9-2.79,6l11-6.33V144C111.44,140.52,109.11,136.26,106.35,134.67Z" fill="#e6e6e6"/>
      <path id="Trazado_112913" data-name="Trazado 112913" d="M101.26,151.73v1.15l-12.19,7.03h-2Z" fill="#fafafa"/>
      <path id="Trazado_112914" data-name="Trazado 112914" d="M170.62,189.46a34.33,34.33,0,0,1-4.12-15.31l-.25-60.65c0-4.14-2.73-9.08-6.09-11a4.16,4.16,0,0,0-4.08-.42l-.24.14-52.5,30.28a4.21,4.21,0,0,1,4,.46c3.36,1.94,6.09,6.88,6.09,11v28.09l.25,32.56c0,11,3,11.24,4.77,16.54" fill="#fafafa"/>
      <path id="Trazado_112915" data-name="Trazado 112915" d="M116.73,222.08a37.116,37.116,0,0,1-5-17.47L111.44,144c0-3.44-2.33-7.7-5.09-9.29a2.35,2.35,0,0,0-2.17-.38,3.09,3.09,0,0,0-.92,2.63v36.6c0,2.72-1,4.9-2.79,6l-.3.17a6.08,6.08,0,0,1-6-.47,15.49,15.49,0,0,1-7.09-12.29v-7h2v7a13.48,13.48,0,0,0,6.09,10.55c3.37,1.94,6.1.16,6.1-4v-36.6c0-2.13.72-3.63,1.88-4.33l.2-.11a4.21,4.21,0,0,1,4,.46c3.36,1.94,6.09,6.88,6.09,11l.25,60.65a27,27,0,0,0,4.77,16.54" fill="#375a64"/>
      <path id="Trazado_112916" data-name="Trazado 112916" d="M111.44,173.2V144c0-3.44-2.33-7.7-5.09-9.29a2.35,2.35,0,0,0-2.17-.38,3.09,3.09,0,0,0-.92,2.63v6.58c0-4.46,4.86-2.87,4.86,5.42v26.2Z" opacity="0.08"/>
      <g id="Grupo_89493" data-name="Grupo 89493">
        <path id="Trazado_112917" data-name="Trazado 112917" d="M162.67,120.77a3.06,3.06,0,0,0-1.39,2.41c0,.88.62,1.24,1.39.8a3.06,3.06,0,0,0,1.39-2.41C164.06,120.68,163.44,120.32,162.67,120.77Z" fill="#ca4f4e"/>
        <path id="Trazado_112918" data-name="Trazado 112918" d="M156.62,106.52a3.09,3.09,0,0,0,2.74.49.85.85,0,0,0,.28-1.59,3.09,3.09,0,0,0-2.74-.48.85.85,0,0,0-.28,1.58Z" fill="#ca4f4e"/>
        <path id="Trazado_112919" data-name="Trazado 112919" d="M162.67,145.58a3.06,3.06,0,0,0-1.39,2.41c0,.89.62,1.25,1.39.8a3.06,3.06,0,0,0,1.39-2.41C164.06,145.5,163.44,145.14,162.67,145.58Z" fill="#ca4f4e"/>
        <path id="Trazado_112920" data-name="Trazado 112920" d="M162.67,162.53a3.06,3.06,0,0,0-1.39,2.41c0,.89.62,1.25,1.39.8a3.06,3.06,0,0,0,1.39-2.41C164.06,162.45,163.44,162.09,162.67,162.53Z" fill="#ca4f4e"/>
        <path id="Trazado_112921" data-name="Trazado 112921" d="M162.67,179.07a3.09,3.09,0,0,0-1.39,2.41c0,.89.62,1.25,1.39.81a3.09,3.09,0,0,0,1.39-2.41C164.06,179,163.44,178.63,162.67,179.07Z" fill="#ca4f4e"/>
      </g>
      <g id="Grupo_89494" data-name="Grupo 89494" opacity="0.5">
        <path id="Trazado_112922" data-name="Trazado 112922" d="M113.53,132.22a.5.5,0,0,1-.25-.93l40.54-23.4a.5.5,0,1,1,.5.86l-40.54,23.41a.57.57,0,0,1-.25.06Z" fill="#375a64"/>
        <path id="Trazado_112923" data-name="Trazado 112923" d="M117.24,139.36a.5.5,0,0,1-.25-.93L157.53,115a.5.5,0,1,1,.5.86L117.49,139.3a.57.57,0,0,1-.25.06Z" fill="#375a64"/>
        <path id="Trazado_112924" data-name="Trazado 112924" d="M118.23,147.56a.5.5,0,0,1-.43-.25.51.51,0,0,1,.18-.69l40.54-23.4a.5.5,0,1,1,.5.86l-40.54,23.41A.59.59,0,0,1,118.23,147.56Z" fill="#375a64"/>
        <path id="Trazado_112925" data-name="Trazado 112925" d="M118.23,155.85a.5.5,0,0,1-.25-.93l40.54-23.4a.5.5,0,1,1,.5.86l-40.54,23.41a.57.57,0,0,1-.25.06Z" fill="#375a64"/>
        <path id="Trazado_112926" data-name="Trazado 112926" d="M118.23,164.15a.5.5,0,0,1-.25-.93l40.54-23.41a.51.51,0,0,1,.68.19.49.49,0,0,1-.18.68l-40.54,23.41a.57.57,0,0,1-.25.06Z" fill="#375a64"/>
        <path id="Trazado_112927" data-name="Trazado 112927" d="M118.23,172.45a.5.5,0,0,1-.25-.93l40.54-23.41a.5.5,0,0,1,.5.87l-40.54,23.41a.57.57,0,0,1-.25.06Z" fill="#375a64"/>
        <path id="Trazado_112928" data-name="Trazado 112928" d="M118.23,180.75a.5.5,0,0,1-.25-.93l40.54-23.41a.5.5,0,1,1,.5.87l-40.54,23.4A.47.47,0,0,1,118.23,180.75Z" fill="#375a64"/>
        <path id="Trazado_112929" data-name="Trazado 112929" d="M118.23,190a.5.5,0,0,1-.43-.25.51.51,0,0,1,.2-.75l40.54-23.4a.5.5,0,1,1,.5.86L118.5,189.87a.47.47,0,0,1-.27.13Z" fill="#375a64"/>
        <path id="Trazado_112930" data-name="Trazado 112930" d="M118.23,198.26a.5.5,0,0,1-.43-.25.51.51,0,0,1,.18-.69l40.54-23.4a.5.5,0,1,1,.5.86l-40.54,23.41a.59.59,0,0,1-.25.07Z" fill="#375a64"/>
        <path id="Trazado_112931" data-name="Trazado 112931" d="M118.5,206.31a.5.5,0,0,1-.25-.93L158.79,182a.52.52,0,0,1,.69.19.51.51,0,0,1-.19.68l-40.54,23.4a.45.45,0,0,1-.25.04Z" fill="#375a64"/>
        <path id="Trazado_112932" data-name="Trazado 112932" d="M120.69,214.3a.5.5,0,0,1-.25-.93L161,190a.5.5,0,0,1,.5.87l-40.54,23.4a.45.45,0,0,1-.27.03Z" fill="#375a64"/>
      </g>
      <g id="Grupo_89495" data-name="Grupo 89495" opacity="0.5">
        <path id="Trazado_112933" data-name="Trazado 112933" d="M101.26,159v1.15L92.81,165a.45.45,0,0,1-.25.07.5.5,0,0,1-.25-.93Z" fill="#375a64"/>
        <path id="Trazado_112934" data-name="Trazado 112934" d="M101.26,168.21v1.15L95,173a.45.45,0,0,1-.25.07.5.5,0,0,1-.25-.93Z" fill="#375a64"/>
      </g>
      <g id="Hand">
        <path id="Trazado_112935" data-name="Trazado 112935" d="M166.25,117.14s-.69,6.28-.83,7.77-4.93,5-8.19,6.53-6.82,3.33-4.35,7.84c2.28,4.15,8.11,4.16,11,3.53s6.3-4.08,7.06-8.78c1-6-1.15-11.84-1-15.28S167.62,114.87,166.25,117.14Z" fill="#ffc6b1"/>
      </g>
    </g>
  </g>
</svg>
