<svg xmlns="http://www.w3.org/2000/svg" xmlns:xlink="http://www.w3.org/1999/xlink" width="1240" height="450.155" viewBox="0 0 1240 450.155">
  <defs>
    <linearGradient id="linear-gradient" x1="20.676" y1="1.885" x2="22.624" y2="2.739" gradientUnits="objectBoundingBox">
      <stop offset="0.101" stop-color="#fff"/>
      <stop offset="1" stop-color="#231f20" stop-opacity="0"/>
    </linearGradient>
    <linearGradient id="linear-gradient-2" x1="7.248" y1="0.395" x2="8.165" y2="2.21" xlink:href="#linear-gradient"/>
    <linearGradient id="linear-gradient-3" x1="13.861" y1="0.247" x2="14.932" y2="-2.525" gradientUnits="objectBoundingBox">
      <stop offset="0" stop-color="#fff"/>
      <stop offset="1" stop-color="#231f20" stop-opacity="0"/>
    </linearGradient>
  </defs>
  <g id="Grupo_91735" data-name="Grupo 91735" transform="translate(-180 -3369)">
    <g id="Grupo_90489" data-name="Grupo 90489" transform="translate(0 -294)">
      <rect id="Rectángulo_35342" data-name="Rectángulo 35342" width="1240" height="450" rx="21" transform="translate(180 3663)" fill="#e8f6fa"/>
      <g id="Grupo_88906" data-name="Grupo 88906" transform="translate(2389.478 3633)">
        <g id="Grupo_87630" data-name="Grupo 87630" transform="translate(-2208.706 30)" style="mix-blend-mode: overlay;isolation: isolate">
          <path id="Trazado_101404" data-name="Trazado 101404" d="M-2212.052,187.515v1.766l111.9-111.9a28.979,28.979,0,0,0,0-40.939L-2136.588,0h-1.766l37.322,37.321a27.726,27.726,0,0,1,0,39.174Z" transform="translate(2212.052)" fill="#fff"/>
        </g>
        <path id="Trazado_101405" data-name="Trazado 101405" d="M-2206.478,163.426V529.06l164.37-164.371a26.1,26.1,0,0,0,0-36.893Z" transform="translate(-3 -78.788)" opacity="0.61" fill="url(#linear-gradient)"/>
        <path id="Trazado_101406" data-name="Trazado 101406" d="M-1584.256,458.122h351.948L-1390.526,299.9a25.117,25.117,0,0,0-35.512,0Z" transform="translate(214.698 22.033)" opacity="0.61" fill="url(#linear-gradient-2)"/>
        <path id="Trazado_101407" data-name="Trazado 101407" d="M-1590.727.979l70.218,70.218a39.549,39.549,0,0,0,55.937,0L-1394.354.979Z" transform="translate(168.841 29.021)" opacity="0.61" fill="url(#linear-gradient-3)"/>
      </g>
      <rect id="Rectángulo_35345" data-name="Rectángulo 35345" width="126" height="126" rx="15" transform="translate(865.029 3865.267) rotate(45)" fill="#96d6e8" opacity="0.4"/>
      <rect id="Rectángulo_35346" data-name="Rectángulo 35346" width="59.371" height="59.371" rx="15" transform="translate(1238.198 3711.785) rotate(45)" fill="#b9e4ef"/>
    </g>
    <g id="CF1_informe_copia_3" data-name="CF1_informe copia 3" transform="translate(768 3394)">
      <rect id="Rectángulo_35702" data-name="Rectángulo 35702" width="600" height="400" fill="none"/>
      <g id="Grupo_91313" data-name="Grupo 91313">
        <g id="Grupo_91267" data-name="Grupo 91267">
          <g id="hand">
            <path id="Trazado_118580" data-name="Trazado 118580" d="M512.36,165.73s-1.91,2.8-2,2.79-.74-.05-2.05,1.1-1.36,1.73-.63,1.31,1.45-1.12,1.72-1-2.08,2.71-2.28,3.05.18.58.53.26,1.73-1.75,1.73-1.75-1.53,1.72-1.67,2,.22.61.6.24,1.71-1.84,1.71-1.84-1.43,1.83-1.54,2,.14.57.65.07,1.55-1.75,1.55-1.75a11.2,11.2,0,0,0-1.19,1.66c0,.25.24.42.8-.2a15.571,15.571,0,0,0,2.08-2.38c.37-.74.71-1.29.63-1.69s1-1.79,1-1.79Z" fill="#f7d4b2"/>
            <path id="Trazado_118581" data-name="Trazado 118581" d="M518.56,135.64a2,2,0,0,0-3.61.68,13.39,13.39,0,0,0-.42,2.24c-.32,3.22,1,9.62,1.38,11.65s-.59,2.91-1,4.34c-.73,2.67-1.05,5.47-2,8.07-.62,1.63-1.42,3.2-2.13,4.79,0,0,1.31.69,2.18,1.08l.88.39q1.38-2.73,2.73-5.46c1.86-3.74,4.29-7.48,4.69-11.73a32.821,32.821,0,0,0-.77-11.85,13.14,13.14,0,0,0-1.93-4.2Z" fill="#0b1d2a"/>
          </g>
          <g id="legs">
            <g id="Grupo_91261" data-name="Grupo 91261">
              <path id="Trazado_118582" data-name="Trazado 118582" d="M527.87,238.1s-.21.75,0,.9a6.25,6.25,0,0,0,3.32,1.42c.9,0,3.75-1.45,4.36-1.79l.6-.34.36-.62.55.28s1.67-.59,1.76-1.09.36-1.57-.37-1.73-3.5,1-5.3,1.43S527.87,238.1,527.87,238.1Z" fill="#142f4c"/>
              <path id="Trazado_118583" data-name="Trazado 118583" d="M533.15,233a36.1,36.1,0,0,1-3.31,3.4c-1,.75-2.27,1.3-1.9,2a5.62,5.62,0,0,0,3.24,1.58c1,.09,6.18-3.12,6.82-3.46a2.64,2.64,0,0,0,.33-3.47C537.36,231.57,533.15,233,533.15,233Z" fill="#d17271"/>
            </g>
            <g id="Grupo_91262" data-name="Grupo 91262">
              <path id="Trazado_118584" data-name="Trazado 118584" d="M512.7,232s-.2.74,0,.9a6.33,6.33,0,0,0,3.32,1.42c.91,0,3.75-1.45,4.36-1.79l.6-.34.36-.62.55.28s1.68-.59,1.76-1.09.37-1.57-.37-1.73-3.5,1-5.3,1.42S512.7,232,512.7,232Z" fill="#142f4c"/>
              <path id="Trazado_118585" data-name="Trazado 118585" d="M518,226.93a36.1,36.1,0,0,1-3.31,3.4c-1,.75-2.27,1.3-1.9,1.95a5.62,5.62,0,0,0,3.24,1.58c1,.09,6.19-3.13,6.82-3.47a2.61,2.61,0,0,0,.33-3.46C522.2,225.5,518,226.93,518,226.93Z" fill="#d17271"/>
            </g>
            <path id="Trazado_118586" data-name="Trazado 118586" d="M516.53,156.83s-3.25,26.79-3.68,30.67c-.3,2.65.52,11.85,1.41,18.62.41,3.15,1.09,9.39,1.25,10.59.53,3.77,2,10.77,2,10.77a3.74,3.74,0,0,0,3.48,1.08c2-.54,2.32-1.3,2.32-1.3s1.05-14.41,0-24.87-2.32-10.54-1.79-12.58,8.82-23.46,9-25.05S516.53,156.83,516.53,156.83Z" fill="#153b55"/>
            <path id="Trazado_118587" data-name="Trazado 118587" d="M535.11,163.68s.48,5.38.41,12.51a159.992,159.992,0,0,1-1.79,20.55c-.12,1.51,3.32,10.18,4,15.36S539,230,539,231s0,2.26-1,2.91a3.56,3.56,0,0,1-3.58,0c-1.37-.65-1.53-1.3-1.53-1.3s-2.25-8.5-4.17-16.68c-1.6-6.87-2.9-13.51-3.16-14.71-.79-3.64-.45-6.56-1.92-14.11a57.749,57.749,0,0,1-1.44-16.1c.22-7.94,6.08-8.25,8.41-8.2A15.1,15.1,0,0,1,535.11,163.68Z" fill="#153b55"/>
          </g>
          <g id="suit">
            <path id="Trazado_118588" data-name="Trazado 118588" d="M517.25,134.2c4.09-.68,7.53-.37,10.9,1.9a62.154,62.154,0,0,1,5.39,3.72,19.158,19.158,0,0,1,3.56,4.7,9.611,9.611,0,0,1,.61,4.07c.08,2.84-1.4,5.82-1.4,8.67,0,2.65-.21,5.09-1.2,6.42s-2.19,1.67-7.41.56-10.41-5.31-11.17-7.41-.32-9.35-.65-13.55q-.15-2-.48-3.93a11,11,0,0,1-.45-3.15,2.39,2.39,0,0,1,2.3-2Z" fill="#ffd52b"/>
            <path id="Trazado_118589" data-name="Trazado 118589" d="M522.54,140.4s-2.26,6-2.08,10.15.1,4.72,0,4.84a2.83,2.83,0,0,0,.6,1.4,8.09,8.09,0,0,0,2.34-1.19,16.5,16.5,0,0,0-.14-3.53,48,48,0,0,1-.12-8c.29-2,.81-2.71.7-2.95S522.54,140.4,522.54,140.4Z" fill="#d17271"/>
            <path id="Trazado_118590" data-name="Trazado 118590" d="M525,139.11a14.926,14.926,0,0,0-1.6-.81,3,3,0,0,0-1.2,1.74c-.18,1,1.6,1.83,2.09,1.62s.67-1.29.71-1.66a4.754,4.754,0,0,0,0-.89Z" fill="#d17271"/>
            <path id="Trazado_118591" data-name="Trazado 118591" d="M528.15,136.1s-.34,1.4-1.28,1.76a5.37,5.37,0,0,1-2.2.2s0,3.15.42,3.39c.13.07,3.17-.42,4-2s.57-2.35.47-2.41Z" fill="#80cde4"/>
            <path id="Trazado_118592" data-name="Trazado 118592" d="M524.67,138.06s-1.61,1.38-2.64,1.38c-.32,0-.49-.87-.47-1.71a4.14,4.14,0,0,1,1.55-2.79c.78-.45,1.09-.67,1.48-.53s1,.62,1,1A20.876,20.876,0,0,1,524.67,138.06Z" fill="#80cde4"/>
            <path id="Trazado_118593" data-name="Trazado 118593" d="M528.92,136.61s.36,2.72-.58,4.2-4.32,2-4.32,2l-2.46,6.61.45,20.74a11.2,11.2,0,0,0,7.46,2.49c4.86,0,6.74-1.77,6.74-1.77s.62-9.43.42-12.26S538.39,151.5,538,148a12.29,12.29,0,0,0-2.46-6.25c-1.09-1.7-4.23-3.54-5.09-4.09Z" fill="#153b55"/>
            <path id="Trazado_118594" data-name="Trazado 118594" d="M523.79,134.1a5.27,5.27,0,0,0-3,4.47c-.07,3.18.58,3.43.58,3.43l.21,7.39L519.3,168a24.132,24.132,0,0,1-2.89-3.16,4.459,4.459,0,0,1-.73-2.19c0-.25-.07-14,0-15.59a83.157,83.157,0,0,0-.76-9.52c-.32-1.87.36-2.71,1.07-3.08a10.76,10.76,0,0,1,3.73-.62,22.448,22.448,0,0,1,4.07.26Z" fill="#153b55"/>
            <path id="Trazado_118595" data-name="Trazado 118595" d="M529.69,141.85c-1.23,2.13-4.12,2.34-4.12,2.34l-.37,4.93-3.64.27,2.46-6.61s3.39-.48,4.32-2,.58-4.2.58-4.2l1.05.68A6.72,6.72,0,0,1,529.69,141.85Z" fill="#0b1d2a"/>
            <path id="Trazado_118596" data-name="Trazado 118596" d="M518.81,145.34l1.09-3.27a9.471,9.471,0,0,1,0-5.46,5.08,5.08,0,0,1,2.25-2.69c.94.07,1.64.18,1.64.18a5.27,5.27,0,0,0-3,4.47c-.07,3.18.58,3.43.58,3.43l.21,7.39Z" fill="#0b1d2a"/>
          </g>
          <g id="suitcase">
            <g id="Grupo_91264" data-name="Grupo 91264">
              <path id="Trazado_118597" data-name="Trazado 118597" d="M544.41,181.68h0l-4.14-2.63a.21.21,0,0,0-.22,0l-13,5.36a.44.44,0,0,0-.26.36l.45,12.84a.16.16,0,0,0,.08.14l4.15,2.64h0a.25.25,0,0,0,.19,0l13-5.36a.42.42,0,0,0,.26-.36l-.44-12.84A.18.18,0,0,0,544.41,181.68Z" fill="#8a4132"/>
              <path id="Trazado_118598" data-name="Trazado 118598" d="M544.46,181.72h0l-.55-.35h0a.23.23,0,0,0-.2,0l-13,5.36a.42.42,0,0,0-.26.36l.44,12.84a.16.16,0,0,0,.09.14l.56.36a.19.19,0,0,0,.21,0l13-5.36a.42.42,0,0,0,.26-.36l-.44-12.84a.22.22,0,0,0-.11-.15Z" fill="#663139"/>
              <path id="Trazado_118599" data-name="Trazado 118599" d="M544.69,195l-13,5.36c-.15.06-.27,0-.28-.14L531,187.41a.43.43,0,0,1,.26-.36l13-5.36c.15-.06.27,0,.28.14l.44,12.84a.42.42,0,0,1-.29.33Z" fill="#8a4132"/>
              <g id="Grupo_91263" data-name="Grupo 91263">
                <path id="Trazado_118600" data-name="Trazado 118600" d="M541.38,180.96l-1.72.72-1.15-1.24-4.26,1.76-1.03,2.14-1.72.71-.01-.45,1.49-.62,1.03-2.14,4.71-1.95,1.15,1.24,1.5-.62Z" fill="#ffd52b"/>
                <path id="Trazado_118601" data-name="Trazado 118601" d="M531.49,184.6l-.83-.52.01.45.83.52Z" fill="#ffd52b"/>
                <path id="Trazado_118602" data-name="Trazado 118602" d="M534.01,181.84l-.83-.52,4.71-1.95.83.52Z" fill="#ffd52b"/>
                <path id="Trazado_118603" data-name="Trazado 118603" d="M532.15,183.46l.83.52,1.03-2.14-.83-.52Z" fill="#ffd52b"/>
                <path id="Trazado_118604" data-name="Trazado 118604" d="M531.49,184.6l1.49-.62-.83-.52-1.49.62Z" fill="#ffd52b"/>
                <path id="Trazado_118605" data-name="Trazado 118605" d="M541.37,180.51l-.83-.51-1.25.51.58.62Z" fill="#ffd52b"/>
                <path id="Trazado_118606" data-name="Trazado 118606" d="M539.66,181.68l-.83-.52-.57-.62.25-.1Z" fill="#ffd52b"/>
              </g>
            </g>
            <path id="Trazado_118607" data-name="Trazado 118607" d="M531.21,193.34a44.371,44.371,0,0,0,13.5-5.58l-.2-5.95a.17.17,0,0,0-.22-.14l-13,5.38a.43.43,0,0,0-.28.42C531.06,189.07,531.15,191.75,531.21,193.34Z" fill="#b86351"/>
            <g id="Grupo_91265" data-name="Grupo 91265">
              <path id="Trazado_118608" data-name="Trazado 118608" d="M542.16,190.44l1.18-.49-.07-1.78-1.17.48Z" fill="#ffd52b"/>
              <path id="Trazado_118609" data-name="Trazado 118609" d="M542.16,190.44l-.35-.22-.06-1.79.35.22Z" fill="#ffd52b"/>
              <path id="Trazado_118610" data-name="Trazado 118610" d="M543.27,188.17l-.34-.22-1.18.48.35.22Z" fill="#ffd52b"/>
              <path id="Trazado_118611" data-name="Trazado 118611" d="M542.38,189.29a.51.51,0,0,1,.31-.43c.18-.08.33,0,.34.17a.5.5,0,0,1-.19.36v.2a.19.19,0,0,1-.12.17c-.07,0-.13,0-.14-.06v-.21a.19.19,0,0,1-.2-.2Z" fill="#56220a"/>
            </g>
            <g id="Grupo_91266" data-name="Grupo 91266">
              <path id="Trazado_118612" data-name="Trazado 118612" d="M534.52,193.58l1.18-.48-.06-1.79-1.18.49Z" fill="#ffd52b"/>
              <path id="Trazado_118613" data-name="Trazado 118613" d="M534.52,193.58l-.34-.22-.06-1.79.34.23Z" fill="#ffd52b"/>
              <path id="Trazado_118614" data-name="Trazado 118614" d="M535.64,191.31l-.35-.22-1.17.48.34.23Z" fill="#ffd52b"/>
              <path id="Trazado_118615" data-name="Trazado 118615" d="M534.75,192.44a.49.49,0,0,1,.31-.44c.18-.07.33,0,.34.17a.54.54,0,0,1-.19.36v.21a.19.19,0,0,1-.12.17c-.07,0-.13,0-.13-.07v-.21a.18.18,0,0,1-.21-.19Z" fill="#8a4132"/>
            </g>
          </g>
          <g id="hand-2" data-name="hand">
            <path id="Trazado_118616" data-name="Trazado 118616" d="M536,175.51a5.7,5.7,0,0,1-1,1.39,6.62,6.62,0,0,0-1,3c.1.46.43,2.15,1,2.22s2.47-.06,2.88-.81a3.64,3.64,0,0,0,.2-2.48c-.19-.7-.61-1.31-.65-1.56a7.28,7.28,0,0,1,.45-1.44Z" fill="#f7d4b2"/>
            <path id="Trazado_118617" data-name="Trazado 118617" d="M537.15,142.89a2,2,0,0,0-3.42,1.36,12.365,12.365,0,0,0,0,2.28c.27,3.23,2.72,9.26,3.5,11.18s0,3-.16,4.45c-.22,2.77-.63,6-1.12,8.7-.3,1.72-.19,3-.6,4.73a3.22,3.22,0,0,0,1.51.86,4.25,4.25,0,0,0,1.77,0q.86-2.94,1.68-5.9c1.13-4,2.84-8.17,2.44-12.41a32.8,32.8,0,0,0-2.93-11.5,13,13,0,0,0-2.67-3.75Z" fill="#0b1d2a"/>
          </g>
          <g id="head">
            <path id="Trazado_118618" data-name="Trazado 118618" d="M523.13,131.43s-.72-2.19-1.15-3.56-1.73-4.53,1.47-5.18,7.34-1.5,8.33,2.35.87,4.73-.32,6.39-2.89,4.49-3.78,4.65S523.13,131.43,523.13,131.43Z" fill="#12263f"/>
            <path id="Trazado_118619" data-name="Trazado 118619" d="M524.25,130.17s.06,3.42,0,4.53-.23,2.19-.23,2.19,0,1.22,1.72,1.66a4.62,4.62,0,0,0,1.78,0,.65.65,0,0,0,.54-.63c0-.81.06-2.39.06-3.51a38.4,38.4,0,0,1,.48-4.24Z" fill="#e2bfa1"/>
            <path id="Trazado_118620" data-name="Trazado 118620" d="M522.92,128.25s0,4.67.78,6.08,3.93.09,5.15-1.5.79-3.53.62-4.58-2.58-1.86-4.57-2a1.88,1.88,0,0,0-1.98,2Z" fill="#f7d4b2"/>
            <path id="Trazado_118621" data-name="Trazado 118621" d="M523.76,127s.2,1.33,2.55,2.14,2.56.88,2.86,0,1,1,1.07.37.55-3.6-3.24-4.09-3.87.53-3.87.53Z" fill="#12263f"/>
            <path id="Trazado_118622" data-name="Trazado 118622" d="M526.9,134.38s-.28-1.47-.36-1.62a15,15,0,0,0-2.83-.79c-.2,0-.43.74-.46.79a.73.73,0,0,0,0,.41c.05.07.11-.07.14-.11a3.58,3.58,0,0,1,.29-.59,8.471,8.471,0,0,1,1.24.34c.19.06,1.18.29,1.25.36a11.388,11.388,0,0,1,.31,1.38c0,.08.25.07.32,0A.23.23,0,0,0,526.9,134.38Z" fill="#12263f"/>
            <path id="Trazado_118623" data-name="Trazado 118623" d="M526.09,134.72a3.271,3.271,0,0,0-.69-.8,7.882,7.882,0,0,0-1.3-.34,1.65,1.65,0,0,0-.6.27,2.08,2.08,0,0,0,.4,1.57,1.7,1.7,0,0,0,1.72,0A1.32,1.32,0,0,0,526.09,134.72Z" fill="#12263f"/>
          </g>
        </g>
        <g id="Grupo_91268" data-name="Grupo 91268">
          <path id="Trazado_118624" data-name="Trazado 118624" d="M488.76,60.75,454.47,170.43l-13.68-7.44L475.08,53.31Z" fill="#53317c"/>
          <path id="Trazado_118625" data-name="Trazado 118625" d="M475.08,53.31,440.79,162.99,419.37,145.5l-38.14,53.27-7.25,10.11-45.46-35.56-73.97,92.9-93.66-84.15L53.76,301.52l-14.9-15.71L161.41,149.18l92.62,83.2,73.09-91.79L371.6,175.4l31.14-43.47-21.53-17.57Z" fill="#824ec3"/>
          <path id="Trazado_118626" data-name="Trazado 118626" d="M454.47,170.43l-13.68-7.44L419.37,145.5l13.68,7.44Z" fill="#4b2d70"/>
          <path id="Trazado_118627" data-name="Trazado 118627" d="M433.05,152.94,394.9,206.21l-13.67-7.44,38.14-53.27Z" fill="#5c378a"/>
          <path id="Trazado_118628" data-name="Trazado 118628" d="M394.9,206.21l-7.24,10.11-13.68-7.44,7.25-10.11Z" fill="#5c378a"/>
          <path id="Trazado_118629" data-name="Trazado 118629" d="M385.28,182.84,371.6,175.4l31.14-43.47,13.67,7.44Z" fill="#80cde4"/>
          <path id="Trazado_118630" data-name="Trazado 118630" d="M394.89,121.8l-13.68-7.44,93.87-61.05,13.68,7.44Z" fill="#80cde4"/>
          <path id="Trazado_118631" data-name="Trazado 118631" d="M416.41,139.37l-13.67-7.44-21.53-17.57,13.68,7.44Z" fill="#30616f"/>
          <path id="Trazado_118632" data-name="Trazado 118632" d="M387.66,216.32l-13.68-7.44-45.46-35.56,13.68,7.44Z" fill="#30616f"/>
          <path id="Trazado_118633" data-name="Trazado 118633" d="M340.79,148.03l44.49,34.81L371.6,175.4l-44.48-34.81Z" fill="#4b2d70"/>
          <path id="Trazado_118634" data-name="Trazado 118634" d="M342.2,180.76l-73.97,92.9-13.68-7.44,73.97-92.9Z" fill="#5e388d"/>
          <path id="Trazado_118635" data-name="Trazado 118635" d="M267.7,239.82l-13.67-7.44,73.09-91.79,13.67,7.44Z" fill="#80cde4"/>
          <path id="Trazado_118636" data-name="Trazado 118636" d="M268.23,273.66l-13.68-7.44-93.66-84.15,13.68,7.44Z" fill="#30616f"/>
          <path id="Trazado_118637" data-name="Trazado 118637" d="M175.09,156.62l92.61,83.2-13.67-7.44-92.62-83.2Z" fill="#4b2d70"/>
          <path id="Trazado_118638" data-name="Trazado 118638" d="M174.57,189.51,67.43,308.96l-13.67-7.44L160.89,182.07Z" fill="#60398f"/>
          <path id="Trazado_118639" data-name="Trazado 118639" d="M488.76,60.75,454.47,170.43l-21.42-17.49L394.9,206.21l-7.24,10.11L342.2,180.76l-73.97,92.9-93.66-84.15L67.43,308.96,52.54,293.25,175.09,156.62l92.61,83.2,73.09-91.79,44.49,34.81,31.13-43.47L394.89,121.8Z" fill="#488da2"/>
          <path id="Trazado_118640" data-name="Trazado 118640" d="M67.43,308.96l-13.67-7.44-14.9-15.71,13.68,7.44Z" fill="#30616f"/>
          <path id="Trazado_118641" data-name="Trazado 118641" d="M52.54,293.25l-13.68-7.44L161.41,149.18l13.68,7.44Z" fill="#80cde4"/>
        </g>
        <g id="office_worker" data-name="office worker">
          <g id="chair">
            <g id="Grupo_91269" data-name="Grupo 91269">
              <path id="Trazado_118642" data-name="Trazado 118642" d="M297.44,277.24l1.25.73V250.78l20.14,11.64v27.19l1.25.73V261.57l-22.64-13.09Z" fill="#bababa"/>
              <path id="Trazado_118643" data-name="Trazado 118643" d="M320.08,290.34l1.16-.74V260.84l-1.25.85Z" fill="#7a7a7a"/>
              <path id="Trazado_118644" data-name="Trazado 118644" d="M298.69,277.97l1.16-.74V251.44l-1.26-.69Z" fill="#7a7a7a"/>
              <path id="Trazado_118645" data-name="Trazado 118645" d="M297.44,248.48l1.15-.73,22.65,13.09-1.25.85Z" fill="#7a7a7a"/>
            </g>
            <g id="Grupo_91270" data-name="Grupo 91270">
              <path id="Trazado_118646" data-name="Trazado 118646" d="M318.62,260.07l1.25.73V238.5l20.14,11.65v27.18l1.25.73V249.29L318.62,236.2Z" fill="#7a7a7a"/>
              <path id="Trazado_118647" data-name="Trazado 118647" d="M341.26,278.06l1.16-.74V248.56l-1.25.85Z" fill="#595858"/>
              <path id="Trazado_118648" data-name="Trazado 118648" d="M319.87,260.8l1.16-.74v-20.9l-1.26-.69Z" fill="#2f7ab2"/>
              <path id="Trazado_118649" data-name="Trazado 118649" d="M318.62,236.2l1.15-.73,22.65,13.09-1.25.85Z" fill="#2f7ab2"/>
            </g>
            <path id="Trazado_118650" data-name="Trazado 118650" d="M326.22,266.56l.68-.99-2.53-3.45-27.34-15.78v-3.78l3.94-.38-1.88-21.19-4.07-6.1-.75.38,3.77,5.63,1.78,20.07-3.89.37v5.97l28.06,16.2Z" fill="#c7c8c9"/>
            <path id="Trazado_118651" data-name="Trazado 118651" d="M347.33,254.32l.68-.99-2.54-3.45L318.13,234.1v-3.78l3.95-.38-1.88-21.19-4.08-6.1-.74.38,3.76,5.64,1.78,20.06-3.89.37v5.97l28.07,16.21Z" fill="#c7c8c9"/>
            <path id="Trazado_118652" data-name="Trazado 118652" d="M300.97,242.18l21.11-12.24-1.88-21.19-21.11,12.24Z" fill="#b86351"/>
            <path id="Trazado_118653" data-name="Trazado 118653" d="M320.2,208.75l-4.08-6.1-21.1,12.24,4.07,6.1Z" fill="#8a4132"/>
            <path id="Trazado_118654" data-name="Trazado 118654" d="M297.03,246.34l21.1-12.24,27.34,15.78-21.1,12.24Z" fill="#b86351"/>
            <path id="Trazado_118655" data-name="Trazado 118655" d="M326.9,265.57l21.11-12.24-2.54-3.45-21.1,12.24Z" fill="#b86351"/>
            <path id="Trazado_118656" data-name="Trazado 118656" d="M326.22,266.56l21.11-12.24.68-.99L326.9,265.57Z" fill="#7c4c2c"/>
          </g>
          <g id="legs-2" data-name="legs">
            <g id="Grupo_91271" data-name="Grupo 91271">
              <path id="Trazado_118657" data-name="Trazado 118657" d="M322.55,292.76a1.18,1.18,0,0,0,.23.84,15.993,15.993,0,0,0,1.7,1.19l.45-.15v.47a59,59,0,0,0,5.48,2.92c.49,0,1.46-.39,1.51-.73s-1-1.62-2-2.77a7.54,7.54,0,0,0-4.38-2.24A6.88,6.88,0,0,0,322.55,292.76Z" fill="#104c89"/>
              <path id="Trazado_118658" data-name="Trazado 118658" d="M323.66,289.52s-1.74,2.3-1.11,3.24,7.36,4.54,8.14,4.85,2.36-.54,1.1-2.58-3.42-4.91-3.42-4.91Z" fill="#2771ad"/>
            </g>
            <g id="Grupo_91272" data-name="Grupo 91272">
              <path id="Trazado_118659" data-name="Trazado 118659" d="M334.87,288.74a1.21,1.21,0,0,0,.24.84,16,16,0,0,0,1.7,1.19l.45-.15v.47a60,60,0,0,0,5.47,2.92c.5,0,1.47-.39,1.52-.73s-1.05-1.62-2-2.77a7.53,7.53,0,0,0-4.39-2.24A6.91,6.91,0,0,0,334.87,288.74Z" fill="#104c89"/>
              <path id="Trazado_118660" data-name="Trazado 118660" d="M336,285.51s-1.73,2.29-1.11,3.23,7.37,4.54,8.15,4.86,2.35-.55,1.1-2.59-3.43-4.91-3.43-4.91Z" fill="#2771ad"/>
            </g>
            <path id="Trazado_118661" data-name="Trazado 118661" d="M304.67,236.93s-.16,7.86,2.33,10.35,14,8.21,18.06,9.26c2.51.66,2.39,2.3,2.29,2.87s-2.8,6-3.6,17.25c-.36,5.06-.44,12.39-.09,12.86s4.11,1.85,4.71.6c1.11-2.34,3.56-13.12,4.81-19.2,1.08-5.3,2.21-15.33,1.92-17.25s-8.42-6.69-10.52-8.79-9.09-8-9.09-8Z" fill="#142f4c"/>
            <path id="Trazado_118662" data-name="Trazado 118662" d="M322.42,233a15,15,0,0,0,.92,3.82c.57,1,13.19,9.52,15.58,11s3,2.75,3,5.42c0,1.36.25,8.63,0,15.78-.25,7-1,13.86-1,15v2.2s0,1.76-2.87,1.05c-2.38-.59-1.88-1.17-2.09-2.1s-2.35-10.24-2.28-15.33-.35-10.62-.35-11.69-1.22-5.45-6.67-7.68-10-7.24-11.91-9.39-2.15-6.89-2.15-6.89Z" fill="#142f4c"/>
          </g>
          <g id="hand-3" data-name="hand">
            <path id="Trazado_118663" data-name="Trazado 118663" d="M340.44,210.22a8.66,8.66,0,0,0,.95-1.2,10.258,10.258,0,0,1,.22-2.13c.21-.59.63-.93.76-1.57s.62-.32.37.36a6.581,6.581,0,0,0-.32,1.41,28.181,28.181,0,0,1,2.27-3c.17,0,.29.16-.09.81s-.85,1.41-.85,1.41a12.659,12.659,0,0,1,1.43-1.88c.23-.06.5.07.26.49s-1.09,1.74-1.09,1.74,1.16-1.53,1.33-1.49.26.13-.19.82l-.75,1.13a11.68,11.68,0,0,1,1.14-1.24c.12,0,.37,0,0,.52s-1.46,2.19-1.67,2.43-.65.76-.87.76-.81.67-1,.94a5.531,5.531,0,0,0-.44.77Z" fill="#f7d4b2"/>
            <path id="Trazado_118664" data-name="Trazado 118664" d="M322.47,213.69s2.48.47,5.69,1.2c3.87.88,4.38.76,5.9-.19s6.72-5.67,6.72-5.67l2.09,2a46.171,46.171,0,0,1-7.26,7.37c-1.45,1.1-7.81,2-8.8,2.19a19.78,19.78,0,0,1-4,.36Z" fill="#08090b"/>
          </g>
          <g id="computer">
            <path id="Trazado_118665" data-name="Trazado 118665" d="M315.49,247.32a.15.15,0,0,1,.1-.16l17.39-10a.53.53,0,0,1,.49,0l13.93,8h0l-17.88,10.32-13.93-8c-.08-.05-.11-.1-.1-.16v0Z" fill="#303030"/>
            <g id="Grupo_91278" data-name="Grupo 91278">
              <path id="Trazado_118666" data-name="Trazado 118666" d="M347.4,245.17l-17.88,10.32-13.93-8.05c-.14-.08-.14-.2,0-.28l17.39-10a.53.53,0,0,1,.49,0Z" fill="#fff"/>
              <g id="Grupo_91273" data-name="Grupo 91273">
                <path id="Trazado_118667" data-name="Trazado 118667" d="M330.49,254.23l-1,.57-1.26-.73.99-.57Z" fill="#a0a8b5"/>
                <path id="Trazado_118668" data-name="Trazado 118668" d="M331.79,253.47l-1,.58-1.26-.73.99-.57Z" fill="#a0a8b5"/>
                <path id="Trazado_118669" data-name="Trazado 118669" d="M333.09,252.72l-1,.58-1.26-.73.99-.58Z" fill="#a0a8b5"/>
                <path id="Trazado_118670" data-name="Trazado 118670" d="M334.39,251.97l-1,.58-1.26-.73.99-.58Z" fill="#a0a8b5"/>
                <path id="Trazado_118671" data-name="Trazado 118671" d="M335.69,251.22l-1,.58-1.26-.73.99-.58Z" fill="#a0a8b5"/>
                <path id="Trazado_118672" data-name="Trazado 118672" d="M336.99,250.47l-1,.58-1.26-.73,1-.58Z" fill="#a0a8b5"/>
                <path id="Trazado_118673" data-name="Trazado 118673" d="M338.29,249.72l-1,.58-1.26-.73.99-.58Z" fill="#a0a8b5"/>
                <path id="Trazado_118674" data-name="Trazado 118674" d="M339.59,248.97l-1,.57-1.26-.73,1-.57Z" fill="#a0a8b5"/>
                <path id="Trazado_118675" data-name="Trazado 118675" d="M340.89,248.22l-1,.57-1.26-.73,1-.57Z" fill="#a0a8b5"/>
                <path id="Trazado_118676" data-name="Trazado 118676" d="M342.19,247.47l-1,.57-1.26-.73,1-.57Z" fill="#a0a8b5"/>
                <path id="Trazado_118677" data-name="Trazado 118677" d="M343.49,246.72l-.99.57-1.27-.73,1-.57Z" fill="#a0a8b5"/>
                <path id="Trazado_118678" data-name="Trazado 118678" d="M344.79,245.97l-.99.57-1.27-.73,1-.57Z" fill="#a0a8b5"/>
                <path id="Trazado_118679" data-name="Trazado 118679" d="M346.09,245.22l-.99.57-1.27-.73,1-.57Z" fill="#a0a8b5"/>
              </g>
              <g id="Grupo_91274" data-name="Grupo 91274">
                <path id="Trazado_118680" data-name="Trazado 118680" d="M328.81,253.26l-.99.57-1.27-.73,1-.57Z" fill="#a0a8b5"/>
                <path id="Trazado_118681" data-name="Trazado 118681" d="M330.11,252.51l-.99.57-1.27-.73,1-.57Z" fill="#a0a8b5"/>
                <path id="Trazado_118682" data-name="Trazado 118682" d="M331.41,251.76l-.99.57-1.27-.73,1-.57Z" fill="#a0a8b5"/>
                <path id="Trazado_118683" data-name="Trazado 118683" d="M332.71,251.01l-.99.57-1.27-.73,1-.57Z" fill="#a0a8b5"/>
                <path id="Trazado_118684" data-name="Trazado 118684" d="M334.01,250.26l-.99.57-1.27-.73,1-.57Z" fill="#a0a8b5"/>
                <path id="Trazado_118685" data-name="Trazado 118685" d="M335.31,249.5l-.99.58-1.26-.73.99-.57Z" fill="#a0a8b5"/>
                <path id="Trazado_118686" data-name="Trazado 118686" d="M336.62,248.75l-1,.58-1.26-.73.99-.58Z" fill="#a0a8b5"/>
                <path id="Trazado_118687" data-name="Trazado 118687" d="M337.92,248l-1,.58-1.26-.73.99-.58Z" fill="#a0a8b5"/>
                <path id="Trazado_118688" data-name="Trazado 118688" d="M339.22,247.25l-1,.58-1.26-.73.99-.58Z" fill="#a0a8b5"/>
                <path id="Trazado_118689" data-name="Trazado 118689" d="M340.52,246.5l-1,.58-1.26-.73.99-.58Z" fill="#a0a8b5"/>
                <path id="Trazado_118690" data-name="Trazado 118690" d="M341.82,245.75l-1,.58-1.26-.73.99-.58Z" fill="#a0a8b5"/>
                <path id="Trazado_118691" data-name="Trazado 118691" d="M343.12,245l-1,.57-1.26-.73.99-.57Z" fill="#a0a8b5"/>
                <path id="Trazado_118692" data-name="Trazado 118692" d="M344.42,244.25l-1,.57-1.26-.73.99-.57Z" fill="#a0a8b5"/>
              </g>
              <g id="Grupo_91275" data-name="Grupo 91275">
                <path id="Trazado_118693" data-name="Trazado 118693" d="M327.14,252.29l-1,.58-1.26-.73.99-.58Z" fill="#a0a8b5"/>
                <path id="Trazado_118694" data-name="Trazado 118694" d="M328.44,251.54l-1,.58-1.26-.73.99-.58Z" fill="#a0a8b5"/>
                <path id="Trazado_118695" data-name="Trazado 118695" d="M329.74,250.79l-1,.58-1.26-.73,1-.58Z" fill="#a0a8b5"/>
                <path id="Trazado_118696" data-name="Trazado 118696" d="M331.04,250.04l-1,.58-1.26-.74.99-.57Z" fill="#a0a8b5"/>
                <path id="Trazado_118697" data-name="Trazado 118697" d="M332.34,249.29l-1,.57-1.26-.73,1-.57Z" fill="#a0a8b5"/>
                <path id="Trazado_118698" data-name="Trazado 118698" d="M333.64,248.54l-1,.57-1.26-.73,1-.57Z" fill="#a0a8b5"/>
                <path id="Trazado_118699" data-name="Trazado 118699" d="M334.94,247.79l-1,.57-1.26-.73,1-.57Z" fill="#a0a8b5"/>
                <path id="Trazado_118700" data-name="Trazado 118700" d="M336.24,247.04l-.99.57-1.27-.73,1-.57Z" fill="#a0a8b5"/>
                <path id="Trazado_118701" data-name="Trazado 118701" d="M337.54,246.29l-.99.57-1.27-.73,1-.57Z" fill="#a0a8b5"/>
                <path id="Trazado_118702" data-name="Trazado 118702" d="M338.84,245.53l-.99.58-1.27-.73,1-.57Z" fill="#a0a8b5"/>
                <path id="Trazado_118703" data-name="Trazado 118703" d="M340.14,244.78l-.99.58-1.27-.73,1-.57Z" fill="#a0a8b5"/>
                <path id="Trazado_118704" data-name="Trazado 118704" d="M341.44,244.03l-.99.58-1.27-.73,1-.58Z" fill="#a0a8b5"/>
                <path id="Trazado_118705" data-name="Trazado 118705" d="M342.74,243.28l-.99.58-1.27-.73,1-.58Z" fill="#a0a8b5"/>
              </g>
              <g id="Grupo_91276" data-name="Grupo 91276">
                <path id="Trazado_118706" data-name="Trazado 118706" d="M325.46,251.33l-.99.57-1.27-.73,1-.57Z" fill="#a0a8b5"/>
                <path id="Trazado_118707" data-name="Trazado 118707" d="M326.76,250.57l-.99.58-1.27-.73,1-.58Z" fill="#a0a8b5"/>
                <path id="Trazado_118708" data-name="Trazado 118708" d="M328.06,249.82l-.99.58-1.26-.73.99-.58Z" fill="#a0a8b5"/>
                <path id="Trazado_118709" data-name="Trazado 118709" d="M329.37,249.07l-1,.58-1.26-.73.99-.58Z" fill="#a0a8b5"/>
                <path id="Trazado_118710" data-name="Trazado 118710" d="M330.67,248.32l-1,.58-1.26-.73.99-.58Z" fill="#a0a8b5"/>
                <path id="Trazado_118711" data-name="Trazado 118711" d="M331.97,247.57l-1,.58-1.26-.73.99-.58Z" fill="#a0a8b5"/>
                <path id="Trazado_118712" data-name="Trazado 118712" d="M333.27,246.82l-1,.58-1.26-.73.99-.58Z" fill="#a0a8b5"/>
                <path id="Trazado_118713" data-name="Trazado 118713" d="M334.57,246.07l-1,.58-1.26-.74.99-.57Z" fill="#a0a8b5"/>
                <path id="Trazado_118714" data-name="Trazado 118714" d="M335.87,245.32l-1,.57-1.26-.73.99-.57Z" fill="#a0a8b5"/>
                <path id="Trazado_118715" data-name="Trazado 118715" d="M337.17,244.57l-1,.57-1.26-.73.99-.57Z" fill="#a0a8b5"/>
                <path id="Trazado_118716" data-name="Trazado 118716" d="M338.47,243.82l-1,.57-1.26-.73.99-.57Z" fill="#a0a8b5"/>
                <path id="Trazado_118717" data-name="Trazado 118717" d="M339.77,243.07l-1,.57-1.26-.73.99-.57Z" fill="#a0a8b5"/>
                <path id="Trazado_118718" data-name="Trazado 118718" d="M341.07,242.32l-1,.57-1.26-.73,1-.57Z" fill="#a0a8b5"/>
              </g>
              <g id="Grupo_91277" data-name="Grupo 91277">
                <path id="Trazado_118719" data-name="Trazado 118719" d="M323.79,250.36l-1,.57-1.26-.72,1-.58Z" fill="#a0a8b5"/>
                <path id="Trazado_118720" data-name="Trazado 118720" d="M325.09,249.61l-1,.57-1.26-.73,1-.57Z" fill="#a0a8b5"/>
                <path id="Trazado_118721" data-name="Trazado 118721" d="M326.39,248.86l-1,.57-1.26-.73,1-.57Z" fill="#a0a8b5"/>
                <path id="Trazado_118722" data-name="Trazado 118722" d="M327.69,248.11l-1,.57-1.26-.73,1-.57Z" fill="#a0a8b5"/>
                <path id="Trazado_118723" data-name="Trazado 118723" d="M328.99,247.36l-.99.57-1.27-.73,1-.57Z" fill="#a0a8b5"/>
                <path id="Trazado_118724" data-name="Trazado 118724" d="M330.29,246.6l-.99.58-1.27-.73,1-.57Z" fill="#a0a8b5"/>
                <path id="Trazado_118725" data-name="Trazado 118725" d="M331.59,245.85l-.99.58-1.27-.73,1-.57Z" fill="#a0a8b5"/>
                <path id="Trazado_118726" data-name="Trazado 118726" d="M332.89,245.1l-.99.58-1.27-.73,1-.58Z" fill="#a0a8b5"/>
                <path id="Trazado_118727" data-name="Trazado 118727" d="M334.19,244.35l-.99.58-1.27-.73,1-.58Z" fill="#a0a8b5"/>
                <path id="Trazado_118728" data-name="Trazado 118728" d="M335.49,243.6l-.99.58-1.27-.73,1-.58Z" fill="#a0a8b5"/>
                <path id="Trazado_118729" data-name="Trazado 118729" d="M336.79,242.85l-.99.58-1.26-.73.99-.58Z" fill="#a0a8b5"/>
                <path id="Trazado_118730" data-name="Trazado 118730" d="M338.1,242.1l-1,.58-1.27-.74,1-.57Z" fill="#a0a8b5"/>
                <path id="Trazado_118731" data-name="Trazado 118731" d="M339.39,241.35l-.99.57-1.26-.73.99-.57Z" fill="#a0a8b5"/>
              </g>
              <path id="Trazado_118732" data-name="Trazado 118732" d="M330.69,243.19l-6,3.47a.53.53,0,0,1-.49,0l-2.77-1.6a.15.15,0,0,1,0-.28l6-3.47a.53.53,0,0,1,.49,0l2.77,1.6C330.83,243,330.83,243.11,330.69,243.19Z" fill="#a0a8b5"/>
            </g>
            <path id="Trazado_118733" data-name="Trazado 118733" d="M331.11,240a.75.75,0,0,1,.33-.47l17.31-10c.08,0,.15-.05.2,0l.57.34c.05,0,.07.08.06.17l-2.18,15.12-17.88,10.32-.59-.35Z" fill="#5b5b5b"/>
            <g id="Grupo_91279" data-name="Grupo 91279">
              <path id="Trazado_118734" data-name="Trazado 118734" d="M329.52,255.49l17.88-10.32,2.18-15.12c0-.17-.08-.23-.24-.14L332,239.9a.75.75,0,0,0-.33.47Z" fill="#303030"/>
              <path id="Trazado_118735" data-name="Trazado 118735" d="M330.14,254.44,347,244.69l2-13.88c0-.16-.08-.21-.22-.13l-16.35,9.44a.69.69,0,0,0-.3.43Z" fill="#5b5b5b"/>
              <path id="Trazado_118736" data-name="Trazado 118736" d="M347.38,232.16l-5.51,15.03-3.76,2.18,5.5-15.03Z" fill="#686868"/>
              <path id="Trazado_118737" data-name="Trazado 118737" d="M342.46,235l-5.34,14.94-3.59,2.07,5.14-14.82Z" fill="#686868"/>
            </g>
          </g>
          <g id="suit-2" data-name="suit">
            <path id="Trazado_118738" data-name="Trazado 118738" d="M322.14,212.85c-3.64-.59-6.71-.32-9.71,1.66a57.5,57.5,0,0,0-4.8,3.23,16.648,16.648,0,0,0-3.17,4.09,8.11,8.11,0,0,0-.54,3.54c-.07,2.47.34,4.5.34,7,0,2.31-.35,4.62.52,5.78s3.4,1.83,8.05.86,9.28-4.62,9.95-6.44.29-8.14.58-11.79c.09-1.15.23-2.29.43-3.42a9.283,9.283,0,0,0,.4-2.74A2.123,2.123,0,0,0,322.14,212.85Z" fill="#0b1d2a"/>
            <path id="Trazado_118739" data-name="Trazado 118739" d="M317.43,218.25s2,5.19,1.85,8.82-.09,4.1,0,4.21a2.486,2.486,0,0,1-.53,1.22,7.55,7.55,0,0,1-2.09-1,14,14,0,0,1,.13-3.06,41.29,41.29,0,0,0,.11-7c-.27-1.72-.73-2.35-.63-2.56S317.43,218.25,317.43,218.25Z" fill="#ffd52b"/>
            <path id="Trazado_118740" data-name="Trazado 118740" d="M315.24,217.12a14.652,14.652,0,0,1,1.43-.71,2.57,2.57,0,0,1,1.07,1.52c.16.89-1.43,1.6-1.86,1.41s-.59-1.12-.64-1.45A4.475,4.475,0,0,1,315.24,217.12Z" fill="#30616f"/>
            <path id="Trazado_118741" data-name="Trazado 118741" d="M312.43,214.51s.3,1.21,1.15,1.52a4.77,4.77,0,0,0,1.95.18s0,2.74-.37,2.95c-.12.06-2.83-.37-3.6-1.74s-.5-2-.41-2.09Z" fill="#08090b"/>
            <path id="Trazado_118742" data-name="Trazado 118742" d="M315.53,216.21a5.4,5.4,0,0,0,2.35,1.2c.29,0,.44-.76.42-1.49a3.57,3.57,0,0,0-1.38-2.43c-.69-.39-1-.58-1.31-.46s-.93.54-.87.91S315.53,216.21,315.53,216.21Z" fill="#08090b"/>
          </g>
          <g id="head-2" data-name="head">
            <path id="Trazado_118743" data-name="Trazado 118743" d="M309.83,203.83s-1.33,3.37-.16,5.2,1.6,4,2.19,4,1.31.37,1.49,0,.32-4.55.4-5.54a20.656,20.656,0,0,0,.32-3.22C313.93,203.7,309.83,203.83,309.83,203.83Z" fill="#12263f"/>
            <path id="Trazado_118744" data-name="Trazado 118744" d="M315.91,209.35s-.06,3,0,3.94.2,1.9.2,1.9,0,1.06-1.53,1.45a4.24,4.24,0,0,1-1.59,0,.59.59,0,0,1-.48-.55c0-.7-.05-2.08-.05-3.06a32.486,32.486,0,0,0-.43-3.68Z" fill="#e2bfa1"/>
            <path id="Trazado_118745" data-name="Trazado 118745" d="M318.3,205.41s0,4.82-.81,6.27-4.16.09-5.45-1.54-.83-3.64-.65-4.73,2.73-1.91,4.82-2a2,2,0,0,1,2.09,2Z" fill="#f7d4b2"/>
            <path id="Trazado_118746" data-name="Trazado 118746" d="M312,207.49s.2-2.64.67-2.75,4.73,1,6.19.32,1.36-2.59.94-3.5-2-1.07-2.19-.47-2.5,0-3.58-.13-2.93-.24-3.68.81a3.75,3.75,0,0,0-.29,3.31C310.4,205.45,312,207.49,312,207.49Z" fill="#12263f"/>
          </g>
          <g id="hand-4" data-name="hand">
            <path id="Trazado_118747" data-name="Trazado 118747" d="M321.3,241.13a30.371,30.371,0,0,0,3,.64c.12-.08.47-.48,2-.49s1.9.34,1.17.49-1.61.12-1.75.33,2.95.55,3.28.66.21.48-.21.48-2.16-.14-2.16-.14,2,.24,2.27.35.2.52-.27.5-2.19-.2-2.19-.2,2,.36,2.19.43.23.46-.39.43-2-.24-2-.24a9.389,9.389,0,0,1,1.75.39c.16.15.08.42-.65.33a13.268,13.268,0,0,1-2.76-.33c-.67-.27-1.21-.43-1.39-.74s-1.71-.57-1.71-.57Z" fill="#f7d4b2"/>
            <path id="Trazado_118748" data-name="Trazado 118748" d="M303.85,222.42a1.76,1.76,0,0,1,1.13-.57c1.67-.19,2.32,1.59,2.84,2.82a28.311,28.311,0,0,1,1.8,7c.16,1.1.21,2.22.45,3.3.14.64.33,2.08,1.09,2.33.94.31,6,2,7.52,2.6s4.43,1.37,4.43,1.37a2.23,2.23,0,0,1-.72,2.21c-1.1,1.21-1.68,1.11-1.78,1.05s-12.83-2.74-13.93-4c-2.68-2.91-3.69-7.5-3.77-11.34a22.679,22.679,0,0,1,.41-5.82,2.49,2.49,0,0,1,.53-.95Z" fill="#08090b"/>
          </g>
        </g>
        <g id="businessman">
          <g id="legs-3" data-name="legs">
            <g id="Grupo_91280" data-name="Grupo 91280">
              <path id="Trazado_118749" data-name="Trazado 118749" d="M52.87,321.15s.21.72,0,.87a6.32,6.32,0,0,1-3.3,1.39c-.9,0-3.73-1.42-4.33-1.75l-.6-.33-.36-.6-.55.27s-1.66-.57-1.73-1-.36-1.53.37-1.68,3.48,1,5.27,1.38S52.87,321.15,52.87,321.15Z" fill="#663d02"/>
              <path id="Trazado_118750" data-name="Trazado 118750" d="M47.62,316.18a35.943,35.943,0,0,0,3.29,3.31c1,.72,2.26,1.26,1.9,1.89a5.62,5.62,0,0,1-3.23,1.54c-1,.09-6.15-3-6.78-3.37a2.52,2.52,0,0,1-.33-3.37C43.43,314.8,47.62,316.18,47.62,316.18Z" fill="#8a4132"/>
            </g>
            <g id="Grupo_91281" data-name="Grupo 91281">
              <path id="Trazado_118751" data-name="Trazado 118751" d="M68,315.26s.2.73,0,.88a6.33,6.33,0,0,1-3.3,1.38c-.9,0-3.74-1.41-4.34-1.74l-.6-.34-.36-.6-.54.27s-1.67-.57-1.75-1.05-.36-1.53.36-1.68,3.48,1,5.28,1.38S68,315.26,68,315.26Z" fill="#663d02"/>
              <path id="Trazado_118752" data-name="Trazado 118752" d="M62.71,310.3A36.168,36.168,0,0,0,66,313.6c1,.73,2.25,1.27,1.89,1.9a5.64,5.64,0,0,1-3.23,1.5c-1,.09-6.15-3-6.78-3.37a2.51,2.51,0,0,1-.33-3.36C58.51,308.91,62.71,310.3,62.71,310.3Z" fill="#8a4132"/>
            </g>
            <path id="Trazado_118753" data-name="Trazado 118753" d="M64.15,245s3.15,26.41,3.58,30.18-1.61,17.37-2.13,21-2.43,14.61-2.43,14.61a3.75,3.75,0,0,1-3.45,1.05c-2-.52-2.31-1.26-2.31-1.26A107.85,107.85,0,0,1,57,289.26c1-10.16,2.7-10.24,2.17-12.22s-8.78-22.79-9-24.33S64.15,245,64.15,245Z" fill="#0b1d2a"/>
            <path id="Trazado_118754" data-name="Trazado 118754" d="M45.67,251.66s-.48,5.22-.41,12.15a154.085,154.085,0,0,0,1.78,20c.12,1.46-3.92,8.76-4.55,13.79s-.68,15.72-.68,16.66,0,2.2,1,2.83a3.57,3.57,0,0,0,3.56,0c1.36-.63,1.51-1.26,1.51-1.26s6.87-26.09,7.44-28.65c.79-3.54.05-5.42,1.51-12.75,1.07-5.38,1.91-7.93,1.69-15.64s-6-8-8.37-8A15.649,15.649,0,0,0,45.67,251.66Z" fill="#0b1d2a"/>
          </g>
          <g id="hand-5" data-name="hand">
            <path id="Trazado_118755" data-name="Trazado 118755" d="M78.3,241.36a8.939,8.939,0,0,0,1.67.36,10.74,10.74,0,0,1,2.23-.83,14.089,14.089,0,0,0,2,0c.7-.19.63.46-.18.55a7.819,7.819,0,0,0-1.57.37,32.7,32.7,0,0,1,4.11.8c0,.2,0,.38-.86.32s-1.84-.16-1.84-.16a14.459,14.459,0,0,1,2.6.51c.17.19.17.54-.37.5s-2.28-.23-2.28-.23a9.62,9.62,0,0,1,2.15.59c0,.19,0,.33-.91.22l-1.5-.2a12.046,12.046,0,0,1,1.8.54c.06.12.16.38-.51.27s-2.91-.38-3.26-.46-1.08-.28-1.2-.5-1.06-.48-1.44-.55a6.259,6.259,0,0,0-1-.06Z" fill="#f7d4b2"/>
            <path id="Trazado_118756" data-name="Trazado 118756" d="M65.66,224.87s.75,2.72,1.61,6.3c1,4.3,1.41,4.76,3.11,5.81s9,3.92,9,3.92l-1,3.1a51.572,51.572,0,0,1-11-3.62c-1.81-.91-5.82-6.85-6.55-7.72a22.45,22.45,0,0,1-2.32-3.8Z" fill="#d7bbf8"/>
          </g>
          <g id="suit-3" data-name="suit">
            <path id="Trazado_118757" data-name="Trazado 118757" d="M63.43,223c-4.06-.66-7.49-.36-10.83,1.84a61.992,61.992,0,0,0-5.36,3.61,18.8,18.8,0,0,0-3.55,4.57,9.08,9.08,0,0,0-.6,3.95c-.08,2.77,1.39,5.66,1.39,8.42,0,2.58.21,5,1.19,6.24s2.18,1.62,7.37.55,10.36-5.16,11.11-7.2.32-9.08.64-13.17c.1-1.27.27-2.55.49-3.81a10.8,10.8,0,0,0,.45-3.06,2.38,2.38,0,0,0-2.3-1.94Z" fill="#e8dafd"/>
            <path id="Trazado_118758" data-name="Trazado 118758" d="M58.17,229.05s2.25,5.8,2.07,9.86-.1,4.58,0,4.69a2.941,2.941,0,0,1-.59,1.37,8.32,8.32,0,0,1-2.33-1.16,15.57,15.57,0,0,1,.14-3.43,46.331,46.331,0,0,0,.12-7.77c-.29-1.93-.81-2.63-.7-2.86S58.17,229.05,58.17,229.05Z" fill="#0b1d2a"/>
            <path id="Trazado_118759" data-name="Trazado 118759" d="M55.73,227.8a14.891,14.891,0,0,1,1.6-.79,2.84,2.84,0,0,1,1.19,1.69c.18,1-1.59,1.78-2.08,1.58s-.66-1.26-.71-1.62a4.43,4.43,0,0,1,0-.86Z" fill="#0b1d2a"/>
            <path id="Trazado_118760" data-name="Trazado 118760" d="M52.6,224.87s.33,1.36,1.27,1.71a5.47,5.47,0,0,0,2.18.2s0,3.06-.42,3.29c-.13.07-3.15-.41-4-1.94s-.56-2.27-.46-2.34Z" fill="#d7bbf8"/>
            <path id="Trazado_118761" data-name="Trazado 118761" d="M56.05,226.78a6,6,0,0,0,2.63,1.33c.32,0,.49-.84.47-1.65a4,4,0,0,0-1.55-2.72c-.77-.43-1.08-.65-1.46-.51s-1,.6-1,1A18,18,0,0,0,56.05,226.78Z" fill="#d7bbf8"/>
          </g>
          <g id="head-3" data-name="head">
            <g id="Grupo_91282" data-name="Grupo 91282">
              <path id="Trazado_118762" data-name="Trazado 118762" d="M57.59,220.34s.72-2.13,1.14-3.46,1.72-4.4-1.46-5S50,210.39,49,214.13s-.87,4.59.31,6.21,2.88,4.36,3.76,4.51S57.59,220.34,57.59,220.34Z" fill="#12263f"/>
              <path id="Trazado_118763" data-name="Trazado 118763" d="M56.48,219.11s-.07,3.32,0,4.4.22,2.13.22,2.13,0,1.18-1.71,1.61a4.79,4.79,0,0,1-1.77,0,.63.63,0,0,1-.53-.62c0-.78-.06-2.32-.06-3.41a38.16,38.16,0,0,0-.49-4.12Z" fill="#e2bfa1"/>
              <path id="Trazado_118764" data-name="Trazado 118764" d="M57.79,217.24s0,4.55-.77,5.92-3.91.08-5.13-1.46-.78-3.43-.61-4.46,2.57-1.8,4.54-1.88a1.83,1.83,0,0,1,1.97,1.88Z" fill="#f7d4b2"/>
              <path id="Trazado_118765" data-name="Trazado 118765" d="M57,216s-.2,1.3-2.54,2.09-2.54.85-2.84,0-1,1-1.06.35-.55-3.5,3.22-4,3.85.51,3.85.51Z" fill="#12263f"/>
            </g>
            <path id="Trazado_118766" data-name="Trazado 118766" d="M53.84,223.2s.28-1.43.35-1.57a15.133,15.133,0,0,1,2.82-.77c.2,0,.43.72.46.77a.64.64,0,0,1,0,.4c0,.07-.1-.07-.13-.11a3.489,3.489,0,0,0-.29-.58,8.06,8.06,0,0,0-1.23.34c-.19.06-1.18.28-1.25.35a12.377,12.377,0,0,0-.31,1.34c0,.07-.25.06-.32,0a.2.2,0,0,1-.1-.17Z" fill="#12263f"/>
            <path id="Trazado_118767" data-name="Trazado 118767" d="M54.64,223.53a3.261,3.261,0,0,1,.69-.78,7.53,7.53,0,0,1,1.29-.32,1.56,1.56,0,0,1,.6.26,2,2,0,0,1-.4,1.53c-.44.4-1.39.18-1.71,0a1.31,1.31,0,0,1-.47-.69Z" fill="#12263f"/>
          </g>
          <g id="hand-6" data-name="hand">
            <g id="Grupo_91283" data-name="Grupo 91283">
              <path id="Trazado_118768" data-name="Trazado 118768" d="M71.15,255.61s1.14,0,1.35.66a7.47,7.47,0,0,1,.12,2.53c-.09.32-2.35.24-2.69.24s-1.11-.82-1.18-1,.38-1.11.42-1.6S71.15,255.61,71.15,255.61Z" fill="#e8bd9a"/>
              <path id="Trazado_118769" data-name="Trazado 118769" d="M74.76,256.43c-.51-.19-1.07-1.3-2.33-1.35a10.708,10.708,0,0,0-1.7,0,1.85,1.85,0,0,0-1.51.89c-.21.39.33,1,.65.58a1.43,1.43,0,0,1,.52-.49c.67-.05,1.49-.13,1.67.16s-.24,2,.09,2.52,1.07.56,1.21.28,1.4-.18,1.4-.18l.74-2.25A2.18,2.18,0,0,1,74.76,256.43Z" fill="#f7d4b2"/>
              <path id="Trazado_118770" data-name="Trazado 118770" d="M67.29,254.94a6.844,6.844,0,0,0,1,0,2.73,2.73,0,0,1,1.5.44,11,11,0,0,1,1.79,1.17,6.77,6.77,0,0,1,1.21,1.53c.11.26.42.91,0,.93s-.91-1-1.28-1.44a3.581,3.581,0,0,0-.73-.6,12.6,12.6,0,0,1,1.46,1.77c.22.49.1.7-.06.78s-.36,0-.57-.3a8.079,8.079,0,0,0-1-1.12,2.56,2.56,0,0,1-.46-.44s1.26,1.37,1.35,1.56a.29.29,0,0,1-.28.44c-.28,0-.78-.67-1-.83a7.877,7.877,0,0,1-.66-.71l1.06,1.4c.12.16-.05.35-.15.42a.36.36,0,0,1-.42,0c-.16-.1-.93-1.11-1.34-1.51s-1.34-.49-1.45-.77-.14-.49-.31-.52h-.16l.06-2.17Z" fill="#f7d4b2"/>
              <path id="Trazado_118771" data-name="Trazado 118771" d="M71.14,256.13a2,2,0,0,0-.71.35c-.16.18-.47.54-.82.32s-.45-.62-.29-.52a.88.88,0,0,0,.82.11c.29-.16.41-.32.64-.33A.58.58,0,0,1,71.14,256.13Z" fill="#e8bd9a"/>
              <path id="Trazado_118772" data-name="Trazado 118772" d="M69.25,255.85a.79.79,0,0,1,.25-.24l.33-.23a1.08,1.08,0,0,0-.29-.15c-.24-.1-.32.12-.37.23s-.18.51-.13.59S69.25,255.85,69.25,255.85Z" fill="#e8bd9a"/>
              <path id="Trazado_118773" data-name="Trazado 118773" d="M67.73,258s.49-.59.69-.57.37.19.22.4-.34.48-.43.48-.48-.06-.48-.19Z" fill="#e8bd9a"/>
              <path id="Trazado_118774" data-name="Trazado 118774" d="M68.29,258.34s.51-.52.57-.55a.37.37,0,0,1,.45.18c.08.23-.22.52-.38.64s-.19.2-.41.07A.45.45,0,0,1,68.29,258.34Z" fill="#e8bd9a"/>
              <path id="Trazado_118775" data-name="Trazado 118775" d="M68.82,258.77s.45-.46.61-.44.34.12.2.33-.4.53-.51.51S68.82,258.77,68.82,258.77Z" fill="#e8bd9a"/>
              <path id="Trazado_118776" data-name="Trazado 118776" d="M69.33,259.22s.2-.28.41-.29.26.18.09.36-.23.28-.31.25S69.33,259.22,69.33,259.22Z" fill="#e8bd9a"/>
            </g>
            <path id="Trazado_118777" data-name="Trazado 118777" d="M44.29,233.14a2,2,0,0,1,2.12.46c1.82,1.47,2.86,4,3.73,6.12,3.14,7.68,3.74,10.26,4.28,10.47s11.22,3.63,11.92,3.77,1.09,1.68.54,2.86-.91.95-2.37,1-14.3-3.35-16.12-5.11-6.87-11-6.42-14.41a9.11,9.11,0,0,1,1.3-4.26,2.89,2.89,0,0,1,1.02-.9Z" fill="#d7bbf8"/>
          </g>
        </g>
        <g id="businessman-2" data-name="businessman">
          <path id="Trazado_118778" data-name="Trazado 118778" d="M101.65,247.37s-8.37,6.49-11.4,7.47S76.07,256,76.07,256s-1.27,1.26-1.27,2.2-.39,2,1.27,2.09,13.81.11,17.37-1.25,9.71-5.13,10-5.66-.16-3.08-.32-3.53S101.65,247.37,101.65,247.37Z" fill="#d7bbf8"/>
          <g id="legs-4" data-name="legs">
            <path id="Trazado_118779" data-name="Trazado 118779" d="M93.85,331.4a2.49,2.49,0,0,0,1,2.28A19.728,19.728,0,0,0,99,335.92l.51-.19.11.57s2.36.95,3.36.58a1.78,1.78,0,0,0,1.12-1.77c.06-.57-2.85-2-4.9-2.69a28,28,0,0,0-5.35-1.02Z" fill="#0c0c0c"/>
            <path id="Trazado_118780" data-name="Trazado 118780" d="M80.05,340.79a2.71,2.71,0,0,0,.23,1.47,22.449,22.449,0,0,0,3.22,2.61l.81.47.44-.14v.55a7.08,7.08,0,0,0,3.27.91c1.23-.18,2-.76,2-1.21v-.95Z" fill="#0c0c0c"/>
            <path id="Trazado_118781" data-name="Trazado 118781" d="M103.39,332.24s1.39,2.07.43,3.51-4.46-.25-7.18-1.4-4.07-4.11-1.19-4S103.39,332.24,103.39,332.24Z" fill="#2771ad"/>
            <path id="Trazado_118782" data-name="Trazado 118782" d="M90,342.21a5.35,5.35,0,0,1,.15,2.48c-.28,1.11-1.48,1.67-3.15,1.27s-6-3.11-6.71-4.55.4-1.91,1.84-1.59S90,342.21,90,342.21Z" fill="#2771ad"/>
            <path id="Trazado_118783" data-name="Trazado 118783" d="M84.63,275.26s-2,26.23-2.39,29.75,1.89,27.13,2.24,31.29c.27,3.13.61,6.11,1.79,6.41a5.9,5.9,0,0,0,3.61,0c.8-.44,2.6-12.09,2.21-17.1-1.13-14.22-.43-22.86,0-26.75s5.6-11.41,5.73-18.08-1.45-9.4-1.45-9.4Z" fill="#153b55"/>
            <path id="Trazado_118784" data-name="Trazado 118784" d="M98.9,270.3s3.46,4.31,2.3,15.19a147.9,147.9,0,0,1-2.62,16.87,31.69,31.69,0,0,0-.72,6.27c0,2,2.62,7.36,3.87,12.08.63,2.38,1.28,9.11,1.61,10.61s-.37,1.7-1.8,2.59-2.6.6-3.53-.9a104.468,104.468,0,0,1-6.71-17.27c-1.62-6.2-.93-13.18-.73-17.88s.36-16.54.86-20.77l.5-4.24Z" fill="#153b55"/>
            <path id="Trazado_118785" data-name="Trazado 118785" d="M99.67,272.06l.42,2S99,276.85,92.59,278c-6,1.07-8.11-.88-8.11-.88v-2.45Z" fill="#0a0a0a"/>
          </g>
          <path id="Trazado_118786" data-name="Trazado 118786" d="M81.44,256.35A3.89,3.89,0,0,1,82.65,253a12.77,12.77,0,0,1,2.71-1.89c4.91-2.56,12.46-4.77,14.82-4.45s3.91,4.06,3.53,9.55-3.9,15.09-4,15.88c-.09.5-.91.93-1.28,1.17a20.656,20.656,0,0,1-3.14,1.61c-3.32,1.41-6.55,2.2-9.91.53-1.46-.73-1.3-2.06-1.59-4.22s-1-4.74-1.41-8.87C82.14,260.43,81.69,258.23,81.44,256.35Z" fill="#e8dafd"/>
          <g id="head-4" data-name="head">
            <g id="Grupo_91284" data-name="Grupo 91284">
              <path id="Trazado_118787" data-name="Trazado 118787" d="M88.17,238.81a22.41,22.41,0,0,0-.43,5.89c.33,2.13,1.29,2.6,3.2,2s3.65-1.7,3.91-4.2.81-4.68-.75-5.34a5,5,0,0,0-3.76-.37,4.35,4.35,0,0,0-2.17,2.02Z" fill="#f7d4b2"/>
              <path id="Trazado_118788" data-name="Trazado 118788" d="M90.26,245.05s-.1,2.68-.15,3.57a7.331,7.331,0,0,1-.17,1.19.53.53,0,0,0,.31.61,4.17,4.17,0,0,0,3.22.06,2.13,2.13,0,0,0,1.45-2.13.29.29,0,0,0,0-.09,13.46,13.46,0,0,1-.64-4.58l.16-2.25Z" fill="#f7d4b2"/>
            </g>
            <path id="Trazado_118789" data-name="Trazado 118789" d="M90.12,248.35s-1.39,1.18-1.47,1.21-.25,1.68,2.14,2.4a4.74,4.74,0,0,0,4.91-1.8,2.2,2.2,0,0,0,0-2.09,1.68,1.68,0,0,0-.77-.64l-.38-.47a1.78,1.78,0,0,1-.89,1.63,3,3,0,0,1-2.5.39,2,2,0,0,1-1.04-.63Z" fill="#d7bbf8"/>
            <path id="Trazado_118790" data-name="Trazado 118790" d="M87.84,238.64a3.37,3.37,0,0,1,1.08,2.44c-.17,1.26.34,1.8.49,1.33s.75-1.32.94-.84a5.92,5.92,0,0,1,0,2.64c-.16,1.43,0,2.28.67,2.61a3.89,3.89,0,0,0,3.09-.45c.9-.59,2.21-3.25,2.47-5.05s.19-4.89-.44-5.56a7,7,0,0,0-3.86-1.37,21.25,21.25,0,0,1-5-.9,1.78,1.78,0,0,0-2,2.69,10.67,10.67,0,0,0,2.56,2.46Z" fill="#d17271"/>
          </g>
          <g id="hand-7" data-name="hand">
            <path id="Trazado_118791" data-name="Trazado 118791" d="M82.3,287.14s-1.18,1.33-1.23,2-1.32,2.06-1.25,2.34.21.45.35.45.89-.73.89-.73v2a18.279,18.279,0,0,0,.46,2.75c0,.09.7.46.51-.61a14,14,0,0,1-.23-2.56v-.56s.11,1.4.17,1.8a19.305,19.305,0,0,0,.31,2.06c.11.24.58.18.61,0s-.28-1.83-.3-2.25,0-1.47,0-1.47.19,1.89.31,2.64.25.82.42.82.23-.35.16-.73-.26-2.08-.26-2.2v-.42s.36,2.14.45,2.44a.34.34,0,0,0,.55.14,14.643,14.643,0,0,0-.3-1.83c-.06-.32.3-1.71.3-2.6a12,12,0,0,0-.09-1.75,8.742,8.742,0,0,1,.09-1.36Z" fill="#f7d4b2"/>
            <path id="Trazado_118792" data-name="Trazado 118792" d="M82,253.83s3-.49,4.25,4.22a30.32,30.32,0,0,1,.63,11c-.21,1.15-1.74,18.54-2.09,19s-2.14.24-2.79-.11-.45-.8-.55-1.05,1.21-15.85.8-17.32a87.761,87.761,0,0,1-1.4-12.81C81,254.43,82,253.83,82,253.83Z" fill="#d7bbf8"/>
          </g>
        </g>
        <g id="presentation">
          <path id="Trazado_118793" data-name="Trazado 118793" d="M496.62,103.93l-2.8-1.84a.39.39,0,0,0-.42,0l-74.83,47.64a1.3,1.3,0,0,0-.54.95v65.63a.31.31,0,0,0,.14.3l2.83,1.86h0a.37.37,0,0,0,.4-.06l74.84-47.64a1.28,1.28,0,0,0,.54-.94V104.25a.32.32,0,0,0-.16-.32Z" fill="#20587f"/>
          <path id="Trazado_118794" data-name="Trazado 118794" d="M496.25,170.82l-74.84,47.64c-.29.19-.54.08-.54-.25V152.58a1.28,1.28,0,0,1,.54-.94L496.25,104c.29-.19.54-.08.54.25v65.63a1.28,1.28,0,0,1-.54.94Z" fill="#60c1dd"/>
          <path id="Trazado_118795" data-name="Trazado 118795" d="M493.93,170.27,423.82,214.9c-.28.18-.51.07-.51-.23V153.18a1.2,1.2,0,0,1,.51-.89l70.11-44.63c.28-.18.51-.07.51.23v61.49a1.2,1.2,0,0,1-.51.89Z" fill="#e9f1ff"/>
          <g id="Grupo_91285" data-name="Grupo 91285">
            <path id="Trazado_118796" data-name="Trazado 118796" d="M475.07,130.83c-4.36,2.77-7.89,10.21-7.89,16.62s3.53,9.36,7.89,6.58S483,143.82,483,137.41l-7.89,5Z" fill="#5591ba"/>
            <path id="Trazado_118797" data-name="Trazado 118797" d="M476.43,128v11.6l7.89-5C484.32,128.2,480.79,125.25,476.43,128Z" fill="#5591ba"/>
          </g>
          <g id="Grupo_91288" data-name="Grupo 91288">
            <g id="Grupo_91286" data-name="Grupo 91286">
              <path id="Trazado_118798" data-name="Trazado 118798" d="M429.52,201.62l-.41.26V164.33l.41-.26Z" fill="#cfd0d1"/>
              <path id="Trazado_118799" data-name="Trazado 118799" d="M432.23,199.9l-.41.26V162.6l.41-.26Z" fill="#cfd0d1"/>
              <path id="Trazado_118800" data-name="Trazado 118800" d="M434.94,198.17l-.42.26V160.88l.42-.26Z" fill="#cfd0d1"/>
              <path id="Trazado_118801" data-name="Trazado 118801" d="M437.64,196.45l-.41.26V159.16l.41-.27Z" fill="#cfd0d1"/>
              <path id="Trazado_118802" data-name="Trazado 118802" d="M440.35,194.72l-.41.26V157.43l.41-.26Z" fill="#cfd0d1"/>
              <path id="Trazado_118803" data-name="Trazado 118803" d="M443.06,193l-.41.26V155.71l.41-.27Z" fill="#cfd0d1"/>
              <path id="Trazado_118804" data-name="Trazado 118804" d="M445.77,191.27l-.41.26V153.98l.41-.26Z" fill="#cfd0d1"/>
              <path id="Trazado_118805" data-name="Trazado 118805" d="M448.48,189.55l-.41.26V152.25l.41-.26Z" fill="#cfd0d1"/>
              <path id="Trazado_118806" data-name="Trazado 118806" d="M451.19,187.82l-.41.26V150.53l.41-.26Z" fill="#cfd0d1"/>
              <path id="Trazado_118807" data-name="Trazado 118807" d="M453.9,186.1l-.41.26V148.81l.41-.27Z" fill="#cfd0d1"/>
              <path id="Trazado_118808" data-name="Trazado 118808" d="M456.61,184.37l-.41.26V147.08l.41-.26Z" fill="#cfd0d1"/>
              <path id="Trazado_118809" data-name="Trazado 118809" d="M459.32,182.65l-.41.26V145.36l.41-.27Z" fill="#cfd0d1"/>
              <path id="Trazado_118810" data-name="Trazado 118810" d="M462.03,180.92l-.41.26V143.63l.41-.26Z" fill="#cfd0d1"/>
            </g>
            <path id="Trazado_118811" data-name="Trazado 118811" d="M429.11,201.88V179.19a9.63,9.63,0,0,1,8-4.53c5.66-.23,8.49-11.26,15.15-18.16s9.8-1.35,9.8-1.35v17.32Z" fill="#5591ba"/>
            <path id="Trazado_118812" data-name="Trazado 118812" d="M429.11,201.88v-9.82s7.83-15.93,16.15-15.91S462,166.6,462,166.6v14.33Z" fill="#ffd52b"/>
            <g id="Grupo_91287" data-name="Grupo 91287">
              <path id="Trazado_118813" data-name="Trazado 118813" d="M431.17,203.33h0l-.25.35v-.19l.3-.44.17-.1V205l-.19.12Z" fill="#1893ef"/>
              <path id="Trazado_118814" data-name="Trazado 118814" d="M432.81,203a1.64,1.64,0,0,1-.49,1.4c-.28.18-.47-.08-.47-.77a1.64,1.64,0,0,1,.49-1.38C432.64,202.1,432.81,202.38,432.81,203Zm-.77.52c0,.54.11.77.29.66s.29-.52.29-1.05-.09-.79-.29-.66-.33.53-.33,1.09Z" fill="#1893ef"/>
              <path id="Trazado_118815" data-name="Trazado 118815" d="M435.27,202.53v-.18l.15-.31a4,4,0,0,0,.53-1.41c0-.21-.07-.36-.28-.23a.9.9,0,0,0-.3.37l-.06-.16a1.15,1.15,0,0,1,.4-.47c.3-.19.43,0,.43.33a3.56,3.56,0,0,1-.49,1.42l-.11.23h0l.63-.4V202Z" fill="#1893ef"/>
              <path id="Trazado_118816" data-name="Trazado 118816" d="M437.32,200.16a1.65,1.65,0,0,1-.49,1.41c-.27.17-.46-.09-.47-.77a1.69,1.69,0,0,1,.49-1.39C437.15,199.22,437.32,199.5,437.32,200.16Zm-.76.52c0,.54.11.78.28.67a1.345,1.345,0,0,0,.29-1c0-.48-.09-.79-.29-.66s-.28.43-.28.99Z" fill="#1893ef"/>
              <path id="Trazado_118817" data-name="Trazado 118817" d="M439.83,199.3a.37.37,0,0,0,.31-.07.68.68,0,0,0,.32-.6c0-.29-.18-.3-.36-.18l-.11.06v-.21l.11-.06a.72.72,0,0,0,.31-.56c0-.16-.07-.26-.24-.15a1,1,0,0,0-.29.32l-.05-.18a1.5,1.5,0,0,1,.37-.39c.28-.18.41,0,.41.24a1,1,0,0,1-.26.65h0c.17-.06.31,0,.31.33a1.19,1.19,0,0,1-.51,1,.5.5,0,0,1-.37.09Z" fill="#1893ef"/>
              <path id="Trazado_118818" data-name="Trazado 118818" d="M441.83,197.29c0,.7-.17,1.21-.48,1.4s-.47-.08-.47-.76a1.65,1.65,0,0,1,.49-1.39C441.67,196.35,441.83,196.63,441.83,197.29Zm-.76.52c0,.54.11.77.29.66s.28-.52.28-1.05-.08-.78-.28-.66-.29.48-.29,1.05Z" fill="#1893ef"/>
              <path id="Trazado_118819" data-name="Trazado 118819" d="M444.89,196.4v-.56l-.65.41v-.18l.62-1.72.21-.13v1.28l.2-.12v.22l-.2.12v.57Zm0-.78V194.6h0a1.13,1.13,0,0,1-.12.38l-.34.93h0Z" fill="#1893ef"/>
              <path id="Trazado_118820" data-name="Trazado 118820" d="M446.35,194.42a1.64,1.64,0,0,1-.49,1.4c-.28.18-.46-.08-.47-.77a1.71,1.71,0,0,1,.49-1.39C446.18,193.47,446.35,193.76,446.35,194.42Zm-.77.51c0,.54.12.78.29.67a1.345,1.345,0,0,0,.29-1c0-.48-.09-.79-.29-.66s-.29.43-.29.99Z" fill="#1893ef"/>
              <path id="Trazado_118821" data-name="Trazado 118821" d="M449.66,191.53l-.54.34-.06.57.12-.08a.43.43,0,0,1,.3-.09c.11,0,.2.15.2.41a1.3,1.3,0,0,1-.52,1,.47.47,0,0,1-.35.1l.05-.25a.36.36,0,0,0,.3-.08.81.81,0,0,0,.33-.66c0-.26-.12-.38-.4-.2l-.2.15.09-1.05.68-.43Z" fill="#1893ef"/>
              <path id="Trazado_118822" data-name="Trazado 118822" d="M450.86,191.54c0,.71-.17,1.21-.49,1.41s-.46-.09-.46-.77a1.65,1.65,0,0,1,.49-1.39C450.69,190.6,450.86,190.88,450.86,191.54Zm-.76.52c0,.54.11.77.28.66a1.345,1.345,0,0,0,.29-1c0-.48-.09-.79-.28-.67s-.29.45-.29,1.01Z" fill="#1893ef"/>
              <path id="Trazado_118823" data-name="Trazado 118823" d="M454.13,188.64l-.14.11a1.59,1.59,0,0,0-.49,1.05h0a.89.89,0,0,1,.34-.45c.25-.16.42,0,.42.39a1.27,1.27,0,0,1-.47,1c-.3.19-.49,0-.49-.56a2.74,2.74,0,0,1,.23-1.09,1.731,1.731,0,0,1,.46-.59l.13-.11Zm-.05,1.23c0-.29-.12-.4-.29-.29a.78.78,0,0,0-.27.43.321.321,0,0,0,0,.14c0,.34.12.52.31.4a.82.82,0,0,0,.25-.68Z" fill="#1893ef"/>
              <path id="Trazado_118824" data-name="Trazado 118824" d="M455.38,188.67a1.64,1.64,0,0,1-.49,1.4c-.28.18-.46-.08-.47-.77a1.67,1.67,0,0,1,.49-1.38C455.21,187.73,455.38,188,455.38,188.67Zm-.77.52c0,.54.12.77.29.66a1.345,1.345,0,0,0,.29-1c0-.48-.09-.79-.29-.66s-.29.43-.29,1Z" fill="#1893ef"/>
              <path id="Trazado_118825" data-name="Trazado 118825" d="M458.76,185.5v.19l-.61,2.27-.2.13.61-2.22h0l-.69.44v-.23Z" fill="#1893ef"/>
              <path id="Trazado_118826" data-name="Trazado 118826" d="M459.89,185.79a1.65,1.65,0,0,1-.49,1.41c-.27.17-.46-.09-.46-.77a1.66,1.66,0,0,1,.49-1.39C459.72,184.85,459.89,185.13,459.89,185.79Zm-.76.52c0,.54.11.78.28.67a1.345,1.345,0,0,0,.29-1c0-.48-.09-.79-.28-.66S459.13,185.75,459.13,186.31Z" fill="#1893ef"/>
            </g>
          </g>
          <g id="Grupo_91292" data-name="Grupo 91292">
            <g id="Grupo_91289" data-name="Grupo 91289">
              <path id="Trazado_118827" data-name="Trazado 118827" d="M477.69,173.75l-3.88,2.47V161.21l3.88-2.47Z" fill="#ffd52b"/>
              <path id="Trazado_118828" data-name="Trazado 118828" d="M477.69,176.08l-3.88,2.47v-2.33l3.88-2.47Z" fill="#ffd52b"/>
              <path id="Trazado_118829" data-name="Trazado 118829" d="M477.69,161.91l-3.88,2.47v-3.17l3.88-2.47Z" fill="#ffd52b"/>
            </g>
            <g id="Grupo_91290" data-name="Grupo 91290">
              <path id="Trazado_118830" data-name="Trazado 118830" d="M483.19,170.25l-3.88,2.47V160.6l3.88-2.47Z" fill="#8baf1b"/>
              <path id="Trazado_118831" data-name="Trazado 118831" d="M483.19,172.58l-3.88,2.47v-4.99l3.88-2.47Z" fill="#748c10"/>
              <path id="Trazado_118832" data-name="Trazado 118832" d="M483.19,161.3l-3.88,2.47V160.6l3.88-2.47Z" fill="#748c10"/>
            </g>
            <g id="Grupo_91291" data-name="Grupo 91291">
              <path id="Trazado_118833" data-name="Trazado 118833" d="M488.69,166.74l-3.88,2.48V154.2l3.88-2.47Z" fill="#ffd52b"/>
              <path id="Trazado_118834" data-name="Trazado 118834" d="M488.69,169.08l-3.88,2.47v-4.02l3.88-2.47Z" fill="#748c10"/>
              <path id="Trazado_118835" data-name="Trazado 118835" d="M488.69,154.9l-3.88,2.47V147.21l3.88-2.47Z" fill="#ffd52b"/>
            </g>
          </g>
        </g>
        <g id="character">
          <g id="legs-5" data-name="legs">
            <path id="Trazado_118836" data-name="Trazado 118836" d="M484.88,239.11a2.51,2.51,0,0,0,.87,2.19,17.08,17.08,0,0,0,3.61,2.14l.44-.18.1.55s2.05.91,2.92.55a1.74,1.74,0,0,0,1-1.69c.05-.55-2.48-1.89-4.26-2.58a22.51,22.51,0,0,0-4.68-.98Z" fill="#0c0c0c"/>
            <path id="Trazado_118837" data-name="Trazado 118837" d="M472.88,248.11a2.921,2.921,0,0,0,.2,1.41,19.381,19.381,0,0,0,2.8,2.5l.71.45.38-.13v.53a5.84,5.84,0,0,0,2.84.88c1.07-.18,1.77-.73,1.76-1.17s0-.91,0-.91Z" fill="#0c0c0c"/>
            <path id="Trazado_118838" data-name="Trazado 118838" d="M493.18,239.91s1.21,2,.38,3.37-3.89-.24-6.25-1.35-3.54-3.93-1-3.86S493.18,239.91,493.18,239.91Z" fill="#153b55"/>
            <path id="Trazado_118839" data-name="Trazado 118839" d="M481.52,249.48a5.67,5.67,0,0,1,.13,2.37c-.25,1.07-1.29,1.61-2.74,1.22s-5.21-3-5.83-4.36.34-1.84,1.59-1.53S481.52,249.48,481.52,249.48Z" fill="#153b55"/>
            <path id="Trazado_118840" data-name="Trazado 118840" d="M476.86,185.26s-1.75,25.16-2.07,28.54,2.72,28.11,2.72,31.13-.25,4.74.78,5a4.67,4.67,0,0,0,3.14,0c.69-.43,1.47-11.1,1.13-15.9a124.713,124.713,0,0,1,.82-26.16c.4-3.74,4.87-11,5-17.34s-1.27-9-1.27-9Z" fill="#12263f"/>
            <path id="Trazado_118841" data-name="Trazado 118841" d="M489.27,180.51s2.05,3,1,13.43-.86,14.44-1.31,17.31a32.789,32.789,0,0,0-.63,6,94.067,94.067,0,0,0,2.48,13.9c.78,2.21,2,6.42,2.29,7.86s-.32,1.63-1.57,2.49-2.26.57-3.07-.86a107.294,107.294,0,0,1-5.83-16.58c-1.41-5.94-.81-12.63-.64-17.14s.31-15.86.74-19.92l.44-4.06Z" fill="#12263f"/>
            <path id="Trazado_118842" data-name="Trazado 118842" d="M490,182.2l.36,1.93s-1,2.66-6.53,3.76c-5.19,1-7-.85-7-.85v-2.35Z" fill="#153b55"/>
          </g>
          <path id="Trazado_118843" data-name="Trazado 118843" d="M491.31,158.2s2.51,1.67,3.46,6.64a35.749,35.749,0,0,1,.42,9.32c0,1.09-2,2.07-3,2.91a17,17,0,0,1-2.83,1.7L491.14,161Z" fill="#153b55"/>
          <path id="Trazado_118844" data-name="Trazado 118844" d="M474.09,167.13a4,4,0,0,1,1.05-3.24,11.31,11.31,0,0,1,2.36-1.82c4.27-2.46,10.83-4.57,12.89-4.26s3.4,3.89,3.07,9.16-3.39,14.47-3.51,15.23c-.08.48-.8.89-1.12,1.12a16.74,16.74,0,0,1-2.73,1.54c-2.89,1.35-5.7,2.12-8.62.51-1.27-.7-1.13-2-1.38-4.05s-.85-4.55-1.23-8.51C474.7,171,474.3,168.93,474.09,167.13Z" fill="#12263f"/>
          <g id="hand-8" data-name="hand">
            <path id="Trazado_118845" data-name="Trazado 118845" d="M461.07,146.71a23.9,23.9,0,0,1-.39-2.74,12.909,12.909,0,0,0-1.44-3.33c-.28-.55-.76-.57-.61,0s.59,1.7.72,2.15-1.46,1.22-1.65,1.61a4.18,4.18,0,0,0,.74,2.31c.25.14.65,0,.93.64l.29.63Z" fill="#f7d4b2"/>
            <path id="Trazado_118846" data-name="Trazado 118846" d="M475.51,164.06a7.13,7.13,0,0,0-2.4-1.42,54.523,54.523,0,0,1-5.77-4,23.723,23.723,0,0,0-1.95-1.38c-.35-.2-4-10.9-4-10.9l-1.53.44a2.55,2.55,0,0,0-1.29.85s3,11.74,3.84,13.34,8,8.33,9.52,9.74,2.87,1.83,3,2.83c.09.82.82.58,1.1.05a7.88,7.88,0,0,0,.69-4,16.758,16.758,0,0,0-.55-4.18A3.74,3.74,0,0,0,475.51,164.06Z" fill="#153b55"/>
          </g>
          <g id="head-5" data-name="head">
            <path id="Trazado_118847" data-name="Trazado 118847" d="M480.43,160.59a2.27,2.27,0,0,0,0,1.14,2.63,2.63,0,0,0,2.8,1.47c1.81-.09,3.19-1,3.47-2.21s-.32-2.43-.68-2.47a8.409,8.409,0,0,0-2.55.53C481.07,159.76,480.43,160.59,480.43,160.59Z" fill="#153b55"/>
            <g id="Grupo_91293" data-name="Grupo 91293">
              <path id="Trazado_118848" data-name="Trazado 118848" d="M480.48,149.76a23.181,23.181,0,0,0-1.34,5.47c-.08,2.07.67,2.68,2.39,2.51a4.23,4.23,0,0,0,4-3.24c.63-2.31,1.47-4.26.25-5.16a4,4,0,0,0-3.14-1,3.82,3.82,0,0,0-2.16,1.42Z" fill="#f7d4b2"/>
              <path id="Trazado_118849" data-name="Trazado 118849" d="M481.76,156.29s-.09,2.57-.13,3.43a7.217,7.217,0,0,1-.15,1.14.51.51,0,0,0,.27.58,3.33,3.33,0,0,0,2.8.06,2.07,2.07,0,0,0,1.26-2,.281.281,0,0,0,0-.09,14.05,14.05,0,0,1-.56-4.4l.14-2.15Z" fill="#f7d4b2"/>
            </g>
            <path id="Trazado_118850" data-name="Trazado 118850" d="M480.23,150.48l.2.06c.55.15,1.91.26,2,1.05a4.92,4.92,0,0,1-.38,1.93,6.371,6.371,0,0,0-.27,3c.29,1.42,1.61,1.47,2.65.95s1.77-2.08,2.24-3.32c1.14-3,1.59-4.48.55-5.91-.72-1-2.16-1.39-3.21-1.77a6.76,6.76,0,0,1-3.12-2.07c-.71-.88-1.78-2.52-3-1.8-1.42.82-1.13,4.18-.22,5.64A5.21,5.21,0,0,0,480.23,150.48Z" fill="#c66048"/>
          </g>
        </g>
        <g id="business_woman" data-name="business woman">
          <g id="hand-9" data-name="hand">
            <path id="Trazado_118851" data-name="Trazado 118851" d="M370.81,165.37s.7-.55.7-.64a4.923,4.923,0,0,1,.46-1,7.419,7.419,0,0,1,1.11-.79c.34-.22,1.22,1.38,1.22,1.38s-.12,1.12-.76,1.28-.87.09-1,.23-.47.51-.67.51S370.81,165.37,370.81,165.37Z" fill="#f7d4b2"/>
            <g id="Grupo_91294" data-name="Grupo 91294">
              <path id="Trazado_118852" data-name="Trazado 118852" d="M370.87,162.5l2.09,2.73a.26.26,0,0,0,.31.09l4.42-2.47a.17.17,0,0,0,0-.27l-2.09-2.74a.24.24,0,0,0-.3-.08l-4.43,2.46a.19.19,0,0,0,0,.28Z" fill="#3a3a3a"/>
              <path id="Trazado_118853" data-name="Trazado 118853" d="M371.06,162.31l1.92,2.52a.26.26,0,0,0,.29.08l4.06-2.27a.17.17,0,0,0,0-.26l-1.92-2.51a.22.22,0,0,0-.28-.08l-4.07,2.27a.16.16,0,0,0,0,.25Z" fill="#070707"/>
            </g>
            <path id="Trazado_118854" data-name="Trazado 118854" d="M371.38,169.67s-1.62.73-2.55,1.26-1.94,1-1.94,1,4.15-3.35,4.49-3.7,1-1,1.38-1.32a.25.25,0,0,0,0-.35,11.393,11.393,0,0,0-1.26-1.25c-.4-.3-.75-.49-.89-.4a79.415,79.415,0,0,0-7,5.77c-1.17,1.36-2.39,3.06-1.8,4s2.86,1.39,4.49,1.25a37.063,37.063,0,0,1,4.36,0s1.95-3.17,1.72-4.2A6.061,6.061,0,0,0,371.38,169.67Z" fill="#20587f"/>
          </g>
          <path id="Trazado_118855" data-name="Trazado 118855" d="M384.34,170.06s6.11.93,5.82,7.06-3.57,8.83.76,9.94,7.19,6.64,2.51,8.58-9.74.81-10.63-4,.47-8.58.79-11S383,171,383,171Z" fill="#c66048"/>
          <g id="legs-6" data-name="legs">
            <g id="Grupo_91295" data-name="Grupo 91295">
              <path id="Trazado_118856" data-name="Trazado 118856" d="M380.84,269.91l-.3,2.74-1.34,1-1.32-1.14a19.258,19.258,0,0,1-2.05,2.89,11.23,11.23,0,0,1-4.14,1.58c-.47-.08-1.14-.89-.94-1.38s2.31-4,3.95-5S380.84,269.91,380.84,269.91Z" fill="#51124a"/>
              <path id="Trazado_118857" data-name="Trazado 118857" d="M379.78,265.6a12.271,12.271,0,0,1,1.14,3.72c.06,1.46-1.75,2.13-2.86,2.36s-1.34,1.52-1.85,2.25a5.68,5.68,0,0,1-2.74,1.93,4,4,0,0,1-2.14.36c-1-.27-.55-1.87-.05-2.43a10.861,10.861,0,0,0,2.76-3.22c.52-1.15,1.67-3.74,1.67-3.74Z" fill="#d17271"/>
            </g>
            <g id="Grupo_91296" data-name="Grupo 91296">
              <path id="Trazado_118858" data-name="Trazado 118858" d="M397.87,259.23l.48,2.71-1,1.3-1.58-.73a19.8,19.8,0,0,1-1.16,3.36,11.34,11.34,0,0,1-3.53,2.67c-.48,0-1.35-.53-1.29-1.06s1.1-4.48,2.38-5.92S397.87,259.23,397.87,259.23Z" fill="#51124a"/>
              <path id="Trazado_118859" data-name="Trazado 118859" d="M395.64,255.38a12.561,12.561,0,0,1,2.14,3.25c.47,1.39-1.08,2.54-2.08,3.08s-.86,1.83-1.15,2.67a5.63,5.63,0,0,1-2.09,2.63,4.08,4.08,0,0,1-1.95.94c-1,0-1.06-1.64-.73-2.32s1.17-2.31,1.82-4a15.428,15.428,0,0,0,.48-4Z" fill="#d17271"/>
            </g>
            <path id="Trazado_118860" data-name="Trazado 118860" d="M390,201.18s-1.05,14-.89,14.46a15,15,0,0,1,0,4.56c-.29,2.1-1.55,9.61-1.49,10.33.09,1.18,2.14,3.73,2.78,4.66,4.13,6,4.4,11.53,5.39,18.54.09.66.19,1.32.22,2,0,.42.13,1.15-.15,1.5s-.5.82-2.11,1.08-1.81-.58-2.1-1.52c-.94-3-2.71-5.64-4.07-8.45-1.85-3.82-3.65-7.66-5.47-11.48-.49-1-3.6-8.58-4.07-9.62s1.75-3.5,1.55-4.65a22.494,22.494,0,0,1-.47-2.94C378.78,217.22,390,201.18,390,201.18Z" fill="#f7d4b2"/>
            <path id="Trazado_118861" data-name="Trazado 118861" d="M370.81,205s-.82,11.78-.65,15.81.34,9.52.42,10.58.58,10.94,1.49,16.58c1.13,7,3.32,19.44,3.32,19.44a3.26,3.26,0,0,0,3.16,0,1.82,1.82,0,0,0,1.23-1.84c0-6,.55-12.06.51-18.08a54.464,54.464,0,0,0-.66-9.11c-.41-2.37-1.37-4.54-1.37-7,0-.71,2-8.28,2.32-9.86s.53-11.34.69-12.65S370.81,205,370.81,205Z" fill="#f7d4b2"/>
            <path id="Trazado_118862" data-name="Trazado 118862" d="M371.69,189.1a30.8,30.8,0,0,0-1.34,7.44c-.41,4.89-1.25,27.94-1.25,27.94a11.78,11.78,0,0,0,6.95,4.67,14.89,14.89,0,0,0,9.06-.65c.54-.22,3.3-.89,3.3-1.68,0,0,3.74-20,2.47-25.36a24.16,24.16,0,0,0-4.17-9Z" fill="#d17271"/>
          </g>
          <g id="suit-4" data-name="suit">
            <path id="Trazado_118863" data-name="Trazado 118863" d="M373.26,169.39c3.18-.52,5.25.37,7.87,2.1a40.746,40.746,0,0,1,3.79,2.89c.95.79,2.24,1.45,2.86,2.57.48.88-.13,1.94-.1,2.92.06,2.16-1.83,6.33-1.83,8.5,0,2,.95,2.65.18,3.66s-1.77,3.19-5.84,2.34-8.11-4-8.69-5.63,0-9.53-.25-12.73c-.08-1-.21-2-.38-3a7.881,7.881,0,0,1,.1-2.32C371.11,169.77,372.32,169.54,373.26,169.39Z" fill="#fff"/>
            <path id="Trazado_118864" data-name="Trazado 118864" d="M381.48,171.72s.93,2.49-1.28,3.58a8,8,0,0,0-3.94,4.8c-.39,1.5-.49,12.65-.49,12.65a9,9,0,0,0,5.91,2.19c3.54-.07,5.08-1.23,5.48-1.76a1,1,0,0,0,0-1.15c-.06-.2-1.32-2,.1-7.3,1.06-3.95,1.37-7.07.56-8.13a40.471,40.471,0,0,0-4.22-3.51C382.76,172.49,381.48,171.72,381.48,171.72Z" fill="#5591ba"/>
            <path id="Trazado_118865" data-name="Trazado 118865" d="M378.17,181.38l2.48-1.47s-.33-1.68,1.54-4.08a3.37,3.37,0,0,0,.63-3.27c-.68-.45-1.34-.84-1.34-.84s.93,2.49-1.28,3.58a8,8,0,0,0-3.94,4.8,65.175,65.175,0,0,0-.4,7.4l4.11-3.64Z" fill="#20587f"/>
            <path id="Trazado_118866" data-name="Trazado 118866" d="M376.79,169.41s-2.2,1.2-1.38,3.35a17.289,17.289,0,0,1,1.1,5.7c-.05,1.13-.25,14.69-.25,14.69a9.6,9.6,0,0,1-3.33-1.88c-1.71-1.45-1.72-1.19-1.88-3.77s-.06-3.94-.55-5.39-1.66-2.34-.91-5,.59-5.68.93-6.49a3.52,3.52,0,0,1,3-1.64,26.79,26.79,0,0,1,3.27.43Z" fill="#5591ba"/>
            <path id="Trazado_118867" data-name="Trazado 118867" d="M375.41,172.76c-.82-2.15,1.38-3.35,1.38-3.35s-.62-.12-1.4-.24a2.82,2.82,0,0,0-1.46,2.38c-.15,2.13.16,4.45-.18,5l-.35.6,1.5,1.84-2,2.49,3.42,5.53c.06-3.77.13-8,.16-8.6a17.291,17.291,0,0,0-1.07-5.65Z" fill="#20587f"/>
          </g>
          <g id="head-6" data-name="head">
            <path id="Trazado_118868" data-name="Trazado 118868" d="M378.56,167.11a11,11,0,0,0,1.72,2.56,5.52,5.52,0,0,0,2.28.39l1.4-.82s3.25-5.87-1.4-9.77-8.37.28-8.94,2.25a7,7,0,0,0,.44,4.64C374.41,167.07,378.56,167.11,378.56,167.11Z" fill="#c66048"/>
            <path id="Trazado_118869" data-name="Trazado 118869" d="M376.89,166.75a20.435,20.435,0,0,1,.24,2.8,9,9,0,0,1-.26,1.62,1.19,1.19,0,0,0,.81,1.32,3.19,3.19,0,0,0,1.76-.06.47.47,0,0,0,.37-.47c0-.72,0-2.29.06-2.64s.41-2.57.41-2.57Z" fill="#e2bfa1"/>
            <path id="Trazado_118870" data-name="Trazado 118870" d="M375,163.18s0,4.22.71,5.49,3.63.08,4.76-1.35.73-3.18.57-4.14-2.39-1.67-4.22-1.75a1.7,1.7,0,0,0-1.82,1.75Z" fill="#f7d4b2"/>
            <path id="Trazado_118871" data-name="Trazado 118871" d="M380.39,161.72a3.89,3.89,0,0,1,.39,1.21,6,6,0,0,1,0,1.36,9.78,9.78,0,0,1-3.72-.42c-1.56-.61-1.6-.85-1.6-.85a2.85,2.85,0,0,1,.4-1.59l.45-.67Z" fill="#c66048"/>
            <path id="Trazado_118872" data-name="Trazado 118872" d="M384,169.24l-1.4.82s.16.89.44.87a7.15,7.15,0,0,0,1.61-.85C384.71,170,384,169.24,384,169.24Z" fill="#d17271"/>
          </g>
          <g id="hand-10" data-name="hand">
            <g id="Grupo_91298" data-name="Grupo 91298">
              <path id="Trazado_118873" data-name="Trazado 118873" d="M355.54,200a.2.2,0,0,1,0-.13l3-4.07,2.75-3.76.77-1.06a.22.22,0,0,1,.27-.06l6.83,3.94a.16.16,0,0,1,.08.13h0v.57a.269.269,0,0,1,0,.12l-.36.49,5.88,3.4a.18.18,0,0,1,.09.12h0v.58a.17.17,0,0,1,0,.12l-5.71,7.83a.23.23,0,0,1-.28.06l-13.17-7.61a.17.17,0,0,1-.09-.13V200Z" fill="#a55e00"/>
              <g id="Grupo_91297" data-name="Grupo 91297">
                <path id="Trazado_118874" data-name="Trazado 118874" d="M362.34,190.94l6.83,3.94a.17.17,0,0,1,.05.25l-.66.9,6.18,3.58a.16.16,0,0,1,.05.24l-5.71,7.83a.23.23,0,0,1-.28.06l-13.17-7.61a.16.16,0,0,1-.05-.24l3-4.07,2.75-3.76.77-1.06A.22.22,0,0,1,362.34,190.94Z" fill="#ce7c05"/>
                <path id="Trazado_118875" data-name="Trazado 118875" d="M360,195.81,370.69,202a.19.19,0,0,0,.25,0l.13-.18c.05-.06,0-.15-.07-.21l-10.66-6.15a.21.21,0,0,0-.25,0l-.13.18C359.91,195.67,360,195.76,360,195.81Z" fill="#ed9118"/>
                <path id="Trazado_118876" data-name="Trazado 118876" d="M359.17,197l10.66,6.15a.19.19,0,0,0,.24,0l.14-.18a.15.15,0,0,0-.08-.21l-10.66-6.15c-.09-.05-.2-.05-.24,0l-.14.18C359,196.85,359.08,197,359.17,197Z" fill="#ed9118"/>
                <path id="Trazado_118877" data-name="Trazado 118877" d="M358.3,198.18l10.7,6.16a.19.19,0,0,0,.24,0l.14-.19a.212.212,0,0,0-.08-.2l-10.66-6.16a.19.19,0,0,0-.24,0l-.14.19C358.18,198,358.21,198.13,358.3,198.18Z" fill="#ed9118"/>
                <path id="Trazado_118878" data-name="Trazado 118878" d="M357.43,199.37l9.06,5.23a.19.19,0,0,0,.24,0l.14-.19a.212.212,0,0,0-.08-.2L357.73,199a.19.19,0,0,0-.24,0l-.13.19C357.31,199.23,357.35,199.32,357.43,199.37Z" fill="#ed9118"/>
                <path id="Trazado_118879" data-name="Trazado 118879" d="M361.41,194.22l4.93,2.84a.11.11,0,0,0,.14,0l1.4-1.92v-.12l-4.93-2.84h-.14l-1.41,1.92S361.36,194.19,361.41,194.22Z" fill="#ed9118"/>
              </g>
            </g>
            <path id="Trazado_118880" data-name="Trazado 118880" d="M371.93,194.56a8.269,8.269,0,0,0-1.12-.12,11,11,0,0,0-1.73.5c-.57.14-1.54,1.6-1.93,1.94s-.72,1.18-.37,1.2,1.4-1.29,1.66-1.49a1.53,1.53,0,0,0,.33-.33,22.278,22.278,0,0,0-1.73,2.1c0,.14.18.54.65.16a20.525,20.525,0,0,0,1.61-1.75s-1.36,1.59-1.4,1.68.17.39.39.3a14.084,14.084,0,0,0,1.39-1.33s-.92,1.41-.93,1.49.35.3.46.14.91-1.07,1-1.19.84-.49,1-.71a2.331,2.331,0,0,1,.4-.66,2,2,0,0,1,.71-.35Z" fill="#f7d4b2"/>
            <path id="Trazado_118881" data-name="Trazado 118881" d="M387.87,177a1.56,1.56,0,0,0-1.59.47,11.258,11.258,0,0,0-2.52,4.87c-2,6-2.3,8-2.7,8.23s-8.37,3.38-8.89,3.53-.75,1.33-.27,2.21.75.68,1.87.64,10.74-3.33,12-4.78,4.65-8.74,4.12-11.35a7,7,0,0,0-1.22-3.18,2.19,2.19,0,0,0-.8-.64Z" fill="#20587f"/>
          </g>
        </g>
        <g id="office_worker-2" data-name="office worker">
          <g id="table">
            <g id="Grupo_91299" data-name="Grupo 91299">
              <path id="Trazado_118882" data-name="Trazado 118882" d="M181.44,276.41l-46.24,26.7V252l46.24-26.7Z" fill="#8a4132"/>
              <path id="Trazado_118883" data-name="Trazado 118883" d="M135.2,303.11l-1.5-.9v-51.1l1.5.89Z" fill="#8a4132"/>
              <path id="Trazado_118884" data-name="Trazado 118884" d="M179.95,224.41l1.49.89L135.2,252l-1.5-.89Z" fill="#633921"/>
            </g>
            <path id="Trazado_118885" data-name="Trazado 118885" d="M135.2,260.38a78.29,78.29,0,0,0,28.43,8.73c16,1.57,17.81.67,17.81.67v-2.66l-26-19.25-20.26,7Z" fill="#8a4132"/>
            <g id="Grupo_91300" data-name="Grupo 91300">
              <path id="Trazado_118886" data-name="Trazado 118886" d="M245.65,311.21l-46.25,26.7V286.8l46.25-26.7Z" fill="#8a4132"/>
              <path id="Trazado_118887" data-name="Trazado 118887" d="M199.4,337.91l-1.49-.9v-51.1l1.49.89Z" fill="#7c4c2c"/>
              <path id="Trazado_118888" data-name="Trazado 118888" d="M244.15,259.21l1.5.89L199.4,286.8l-1.49-.89Z" fill="#633921"/>
            </g>
            <path id="Trazado_118889" data-name="Trazado 118889" d="M249.86,257.86a.36.36,0,0,0-.21-.31l-67.62-39a1.74,1.74,0,0,0-1.53.15l-51.76,29.88c-.32.18-.48.41-.46.6v2.24a.36.36,0,0,0,.2.36l15,8.63,11.64-6.72a1.77,1.77,0,0,1,1.53-.15l41.74,24.1-10.52,6.08V286l8.29,4.79a1.77,1.77,0,0,0,1.53-.15l51.76-29.88c.3-.18.46-.4.46-.59Z" fill="#8a4132"/>
            <path id="Trazado_118890" data-name="Trazado 118890" d="M182,218.51l67.62,39c.35.2.24.6-.25.89l-51.76,29.88a1.77,1.77,0,0,1-1.53.15l-8.29-4.79L199.45,277c.49-.29.61-.69.26-.89L156.6,251.19a1.77,1.77,0,0,0-1.53.15l-11.64,6.72-15-8.64c-.35-.2-.23-.6.26-.88l51.76-29.88A1.74,1.74,0,0,1,182,218.51Z" fill="#b86351"/>
          </g>
          <g id="computer-2" data-name="computer">
            <g id="Grupo_91304" data-name="Grupo 91304">
              <g id="Grupo_91301" data-name="Grupo 91301">
                <path id="Trazado_118891" data-name="Trazado 118891" d="M200.81,245.69l3.86-2.21-1.58-8.33-1.32.25,1.29,6.74-2.32,2.36Z" fill="#153b55"/>
                <path id="Trazado_118892" data-name="Trazado 118892" d="M192.07,240.59l3.87-2.21-1.59-8.33-1.31.25,1.28,6.74L192,239.39Z" fill="#6693e2"/>
                <path id="Trazado_118893" data-name="Trazado 118893" d="M203.09,235.15l-8.75-5.1-1.31.25,8.74,5.1Z" fill="#1f4b7f"/>
                <path id="Trazado_118894" data-name="Trazado 118894" d="M203.07,242.14l-8.75-5.1-1.28-6.74,8.75,5.1Z" fill="#0b1d2a"/>
              </g>
              <g id="Grupo_91303" data-name="Grupo 91303">
                <path id="Trazado_118895" data-name="Trazado 118895" d="M184.38,200.34l1-.62a.47.47,0,0,1,.53,0l29.75,17a1.32,1.32,0,0,1,.64,1v26.63l-1,.67-31-17.78V200.68a.32.32,0,0,1,.08-.34Z" fill="#0b1d2a"/>
                <g id="Grupo_91302" data-name="Grupo 91302">
                  <path id="Trazado_118896" data-name="Trazado 118896" d="M184.83,200.41l29.75,17a1.35,1.35,0,0,1,.64,1V245.1l-31-17.78V200.68C184.19,200.33,184.47,200.21,184.83,200.41Z" fill="#e8dafd"/>
                  <path id="Trazado_118897" data-name="Trazado 118897" d="M213.85,219.07l-28.3-16.2a.155.155,0,0,0-.26.11v24l28.83,16.51v-24a.54.54,0,0,0-.27-.42Z" fill="#5879a0"/>
                </g>
              </g>
            </g>
            <path id="Trazado_118898" data-name="Trazado 118898" d="M192,239.39l8.74,5.11,2.33-2.36-8.75-5.1Z" fill="#0b1d2a"/>
            <path id="Trazado_118899" data-name="Trazado 118899" d="M192.07,240.59l-.07-1.2,8.74,5.11.07,1.19Z" fill="#153b55"/>
          </g>
          <g id="keyboard">
            <path id="Trazado_118900" data-name="Trazado 118900" d="M201.83,256.45v-.75a.1.1,0,0,0-.07-.09L177.33,241.5a.32.32,0,0,0-.3,0l-11.1,6.41a.11.11,0,0,0-.06.09v.75a.1.1,0,0,0,.06.09L190.36,263a.34.34,0,0,0,.31,0l11.09-6.41a.1.1,0,0,0,.07-.09Z" fill="#0b1d2a"/>
            <g id="Grupo_91310" data-name="Grupo 91310">
              <path id="Trazado_118901" data-name="Trazado 118901" d="M165.93,248.09l24.43,14.1a.34.34,0,0,0,.31,0l11.09-6.41c.09,0,.09-.12,0-.17L177.33,241.5a.32.32,0,0,0-.3,0l-11.1,6.41a.1.1,0,0,0,0,.18Z" fill="#e8dafd"/>
              <g id="Grupo_91305" data-name="Grupo 91305">
                <path id="Trazado_118902" data-name="Trazado 118902" d="M197.68,255.8l1.15.66,1.39-.8-1.15-.66Z" fill="#4e6c89"/>
                <path id="Trazado_118903" data-name="Trazado 118903" d="M196,254.83l1.15.67,1.39-.81-1.15-.66Z" fill="#4e6c89"/>
                <path id="Trazado_118904" data-name="Trazado 118904" d="M194.33,253.87l1.15.66,1.39-.8-1.15-.67Z" fill="#4e6c89"/>
                <path id="Trazado_118905" data-name="Trazado 118905" d="M192.66,252.9l1.14.66,1.39-.8-1.15-.66Z" fill="#4e6c89"/>
                <path id="Trazado_118906" data-name="Trazado 118906" d="M190.98,251.93l1.15.66,1.39-.8-1.15-.66Z" fill="#4e6c89"/>
                <path id="Trazado_118907" data-name="Trazado 118907" d="M189.31,250.97l1.14.66,1.39-.8-1.15-.67Z" fill="#4e6c89"/>
                <path id="Trazado_118908" data-name="Trazado 118908" d="M187.63,250l1.15.66,1.39-.8-1.15-.66Z" fill="#4e6c89"/>
                <path id="Trazado_118909" data-name="Trazado 118909" d="M185.96,249.03l1.14.66,1.39-.8-1.15-.66Z" fill="#4e6c89"/>
                <path id="Trazado_118910" data-name="Trazado 118910" d="M184.28,248.06l1.15.67,1.39-.8-1.15-.67Z" fill="#4e6c89"/>
                <path id="Trazado_118911" data-name="Trazado 118911" d="M180.93,246.13l1.15.66,1.39-.8-1.15-.66Z" fill="#4e6c89"/>
                <path id="Trazado_118912" data-name="Trazado 118912" d="M179.26,245.16l1.15.67,1.38-.8-1.14-.67Z" fill="#4e6c89"/>
                <path id="Trazado_118913" data-name="Trazado 118913" d="M177.58,244.2l1.15.66,1.39-.8-1.15-.66Z" fill="#4e6c89"/>
                <path id="Trazado_118914" data-name="Trazado 118914" d="M175.91,243.23l1.15.66,1.38-.8-1.14-.66Z" fill="#4e6c89"/>
              </g>
              <g id="Grupo_91306" data-name="Grupo 91306">
                <path id="Trazado_118915" data-name="Trazado 118915" d="M195.64,256.98l1.15.66,1.39-.8-1.15-.66Z" fill="#4e6c89"/>
                <path id="Trazado_118916" data-name="Trazado 118916" d="M193.97,256.01l1.14.66,1.39-.8-1.15-.66Z" fill="#4e6c89"/>
                <path id="Trazado_118917" data-name="Trazado 118917" d="M192.29,255.04l1.15.67,1.39-.8-1.15-.67Z" fill="#4e6c89"/>
                <path id="Trazado_118918" data-name="Trazado 118918" d="M190.62,254.08l1.14.66,1.39-.8-1.15-.66Z" fill="#4e6c89"/>
                <path id="Trazado_118919" data-name="Trazado 118919" d="M188.94,253.11l1.15.66,1.39-.8-1.15-.66Z" fill="#4e6c89"/>
                <path id="Trazado_118920" data-name="Trazado 118920" d="M187.27,252.14l1.14.67,1.39-.81-1.15-.66Z" fill="#4e6c89"/>
                <path id="Trazado_118921" data-name="Trazado 118921" d="M185.59,251.18l1.15.66,1.39-.8-1.15-.66Z" fill="#4e6c89"/>
                <path id="Trazado_118922" data-name="Trazado 118922" d="M183.92,250.21l1.14.66,1.39-.8-1.15-.66Z" fill="#4e6c89"/>
                <path id="Trazado_118923" data-name="Trazado 118923" d="M182.24,249.24l1.15.67,1.39-.81-1.15-.66Z" fill="#4e6c89"/>
                <path id="Trazado_118924" data-name="Trazado 118924" d="M178.89,247.31l1.15.66,1.39-.8-1.15-.66Z" fill="#4e6c89"/>
                <path id="Trazado_118925" data-name="Trazado 118925" d="M177.22,246.34l1.15.66,1.38-.8-1.14-.66Z" fill="#4e6c89"/>
                <path id="Trazado_118926" data-name="Trazado 118926" d="M175.54,245.38l1.15.66,1.39-.8-1.15-.67Z" fill="#4e6c89"/>
                <path id="Trazado_118927" data-name="Trazado 118927" d="M173.87,244.41l1.15.66,1.38-.8-1.14-.66Z" fill="#4e6c89"/>
              </g>
              <g id="Grupo_91307" data-name="Grupo 91307">
                <path id="Trazado_118928" data-name="Trazado 118928" d="M193.6,258.16l1.15.66,1.38-.8-1.14-.67Z" fill="#4e6c89"/>
                <path id="Trazado_118929" data-name="Trazado 118929" d="M191.93,257.19l1.14.66,1.39-.8-1.15-.66Z" fill="#4e6c89"/>
                <path id="Trazado_118930" data-name="Trazado 118930" d="M190.25,256.22l1.15.66,1.39-.8-1.15-.66Z" fill="#4e6c89"/>
                <path id="Trazado_118931" data-name="Trazado 118931" d="M188.57,255.25l1.15.67,1.39-.8-1.15-.67Z" fill="#4e6c89"/>
                <path id="Trazado_118932" data-name="Trazado 118932" d="M186.9,254.29l1.15.66,1.39-.8-1.15-.66Z" fill="#4e6c89"/>
                <path id="Trazado_118933" data-name="Trazado 118933" d="M185.23,253.32l1.14.66,1.39-.8-1.15-.66Z" fill="#4e6c89"/>
                <path id="Trazado_118934" data-name="Trazado 118934" d="M183.55,252.35l1.15.67,1.39-.8-1.15-.67Z" fill="#4e6c89"/>
                <path id="Trazado_118935" data-name="Trazado 118935" d="M181.88,251.39l1.14.66,1.39-.8-1.15-.66Z" fill="#4e6c89"/>
                <path id="Trazado_118936" data-name="Trazado 118936" d="M176.85,248.49l1.15.66,1.39-.8-1.15-.66Z" fill="#4e6c89"/>
                <path id="Trazado_118937" data-name="Trazado 118937" d="M175.18,247.52l1.14.66,1.39-.8-1.14-.66Z" fill="#4e6c89"/>
                <path id="Trazado_118938" data-name="Trazado 118938" d="M173.5,246.55l1.15.67,1.39-.81-1.15-.66Z" fill="#4e6c89"/>
                <path id="Trazado_118939" data-name="Trazado 118939" d="M171.83,245.59l1.15.66,1.38-.8-1.14-.67Z" fill="#4e6c89"/>
              </g>
              <g id="Grupo_91308" data-name="Grupo 91308">
                <path id="Trazado_118940" data-name="Trazado 118940" d="M191.56,259.33l1.15.67,1.38-.81-1.14-.66Z" fill="#4e6c89"/>
                <path id="Trazado_118941" data-name="Trazado 118941" d="M189.88,258.37l1.15.66,1.39-.8-1.15-.67Z" fill="#4e6c89"/>
                <path id="Trazado_118942" data-name="Trazado 118942" d="M188.21,257.4l1.15.66,1.39-.8-1.15-.66Z" fill="#4e6c89"/>
                <path id="Trazado_118943" data-name="Trazado 118943" d="M186.53,256.43l1.15.67,1.39-.81-1.15-.66Z" fill="#4e6c89"/>
                <path id="Trazado_118944" data-name="Trazado 118944" d="M184.86,255.47l1.15.66,1.39-.8-1.15-.67Z" fill="#4e6c89"/>
                <path id="Trazado_118945" data-name="Trazado 118945" d="M183.19,254.5l1.14.66,1.39-.8-1.15-.66Z" fill="#4e6c89"/>
                <path id="Trazado_118946" data-name="Trazado 118946" d="M181.51,253.53l1.15.66,1.39-.8-1.15-.66Z" fill="#4e6c89"/>
                <path id="Trazado_118947" data-name="Trazado 118947" d="M174.81,249.66l1.15.67,1.39-.8-1.15-.67Z" fill="#4e6c89"/>
                <path id="Trazado_118948" data-name="Trazado 118948" d="M173.14,248.7l1.14.66,1.39-.8-1.14-.66Z" fill="#4e6c89"/>
                <path id="Trazado_118949" data-name="Trazado 118949" d="M171.46,247.73l1.15.66,1.39-.8-1.15-.66Z" fill="#4e6c89"/>
                <path id="Trazado_118950" data-name="Trazado 118950" d="M169.79,246.76l1.15.67,1.38-.8-1.14-.67Z" fill="#4e6c89"/>
              </g>
              <g id="Grupo_91309" data-name="Grupo 91309">
                <path id="Trazado_118951" data-name="Trazado 118951" d="M189.52,260.51l1.15.66,1.39-.8-1.15-.66Z" fill="#4e6c89"/>
                <path id="Trazado_118952" data-name="Trazado 118952" d="M187.84,259.54l1.15.67,1.39-.81-1.15-.66Z" fill="#4e6c89"/>
                <path id="Trazado_118953" data-name="Trazado 118953" d="M186.17,258.58l1.15.66,1.39-.8-1.15-.66Z" fill="#4e6c89"/>
                <path id="Trazado_118954" data-name="Trazado 118954" d="M179.47,254.71l1.15.66,1.39-.8-1.15-.66Z" fill="#4e6c89"/>
                <path id="Trazado_118955" data-name="Trazado 118955" d="M177.8,253.74l1.14.67,1.39-.81-1.14-.66Z" fill="#4e6c89"/>
                <path id="Trazado_118956" data-name="Trazado 118956" d="M176.12,252.78l1.15.66,1.39-.8-1.15-.67Z" fill="#4e6c89"/>
                <path id="Trazado_118957" data-name="Trazado 118957" d="M172.77,250.84l1.15.66,1.39-.8-1.15-.66Z" fill="#4e6c89"/>
                <path id="Trazado_118958" data-name="Trazado 118958" d="M171.1,249.88l1.15.66,1.38-.8-1.14-.67Z" fill="#4e6c89"/>
                <path id="Trazado_118959" data-name="Trazado 118959" d="M169.42,248.91l1.15.66,1.39-.8-1.15-.66Z" fill="#4e6c89"/>
                <path id="Trazado_118960" data-name="Trazado 118960" d="M167.75,247.94l1.15.66,1.38-.8-1.14-.66Z" fill="#4e6c89"/>
              </g>
              <path id="Trazado_118961" data-name="Trazado 118961" d="M182.74,250.28l-2.04,1.18,1.67.97-1.39.8-2.82-1.63,3.43-1.98Z" fill="#4e6c89"/>
              <path id="Trazado_118962" data-name="Trazado 118962" d="M181.15,255.68l4.49,2.59,1.39-.8-4.5-2.59Z" fill="#4e6c89"/>
            </g>
          </g>
          <path id="Trazado_118963" data-name="Trazado 118963" d="M163.13,277.25l.74-1.92-2.75-.57-29.71,17.15v-4.1l4.29-5.37-2.05-20.66-4.43-1.52-.81,1.35,4.09,1.4,1.94,19.56-4.23,5.29v6.49l30.5-17.6Z" fill="#c7c8c9"/>
          <path id="Trazado_118964" data-name="Trazado 118964" d="M185.21,287.72l-21.34-12.39-.74,1.92,19.33,9.9Z" fill="#aa5b49"/>
          <g id="hand-11" data-name="hand">
            <path id="Trazado_118965" data-name="Trazado 118965" d="M171.77,250.11s1.31-.84,1.43-.9a17.38,17.38,0,0,0,2.08-.23c.54-.2,1.06-1,1.31-1.2s-.22-.28-.71,0a1.51,1.51,0,0,1-1,.22c-.13,0,2.06-1.5,2.23-1.7s0-.6-.33-.4-1.6,1-1.6,1,1.47-1.09,1.57-1.22-.11-.37-.37-.25-1.42,1.05-1.5,1.1l-.08.06s1.08-.9,1.18-1,0-.34-.24-.27a3.67,3.67,0,0,0-.86.54,5.073,5.073,0,0,0-.61.5,13.6,13.6,0,0,0,1-.94c0-.12-.26-.25-1.12.44s-1.8,1.13-1.83,1.41a.7.7,0,0,1-.35.63c-.26.14-1.45.88-1.45.88Z" fill="#fcd8b1"/>
            <path id="Trazado_118966" data-name="Trazado 118966" d="M150.45,250.11l10.47,4.31s8.48-5.27,9.17-5.84,1.28-.17,1.83,0,1.14.91.84,1.53a54.462,54.462,0,0,1-7.94,7.09c-1.75,1-3.82,2.58-5.22,2.14s-8.87-2.1-10-3.29-.76-2.71-.44-4a3.55,3.55,0,0,1,1.29-1.94Z" fill="#e6372a"/>
          </g>
          <g id="legs-7" data-name="legs">
            <path id="Trazado_118967" data-name="Trazado 118967" d="M174.88,292.83c.92-6.49,2.79-20.51,2.75-21.78,0-1.57.15-3.59-2.26-5s-4.63.92-7.54,2.29-15.44,9.09-15.44,9.09,2,6.39,6.37,5.57,8.05-3.95,9.07-4.1.92.82.77,1.94-.37,6.56-.37,7.45c0,.53-.07,2.31-.17,4.78C169.66,293.41,172.67,293.79,174.88,292.83Z" fill="#0b1d2a"/>
            <path id="Trazado_118968" data-name="Trazado 118968" d="M182.63,315.82s.45.63.9.64a5.2,5.2,0,0,0,2.3-.64l-.19-.79s1.55-.42,2.83-.88,2.71-1.55,2.94-2.41a1.9,1.9,0,0,0-.73-2.17c-.71-.45-4.4,1.41-5.81,2.57A9.43,9.43,0,0,0,182.63,315.82Z" fill="#30616f"/>
            <path id="Trazado_118969" data-name="Trazado 118969" d="M185,310.62a27.138,27.138,0,0,0,4.66-1.36c.73-.51,1.19.14,1.43.48s0,1.93-1.39,2.95-3.6,1.36-4.25,1.65-1.89,1.48-2.68,1.51-1.43-1.87-.72-2.88a15.1,15.1,0,0,1,2.95-2.35Z" fill="#ffd52b"/>
            <path id="Trazado_118970" data-name="Trazado 118970" d="M180.31,296.64a67.227,67.227,0,0,0,1,10.1c1,4.78,1.66,5.36,1.2,5.88-.64.75.32,1.54,1.14,1.37a9.73,9.73,0,0,0,4.16-2.14c.4-.39.73-1.49,0-1.54s-2,.62-2,0,.48-5.87.68-8.26.49-8.46.49-8.46Z" fill="#fcd8b1"/>
            <path id="Trazado_118971" data-name="Trazado 118971" d="M170.65,310.74s.45.63.9.64a5.13,5.13,0,0,0,2.29-.64l-.18-.79s1.55-.42,2.83-.88,2.71-1.55,2.94-2.41a1.91,1.91,0,0,0-.73-2.17c-.71-.45-4.4,1.41-5.81,2.57a9.43,9.43,0,0,0-2.24,3.68Z" fill="#30616f"/>
            <path id="Trazado_118972" data-name="Trazado 118972" d="M173.06,305.54a27.138,27.138,0,0,0,4.66-1.36c.73-.51,1.19.14,1.42.48s0,1.93-1.38,2.95-3.61,1.37-4.26,1.65-1.88,1.48-2.67,1.51-1.43-1.87-.72-2.88A15.1,15.1,0,0,1,173.06,305.54Z" fill="#ffd52b"/>
            <path id="Trazado_118973" data-name="Trazado 118973" d="M168.38,291.57a66.66,66.66,0,0,0,1.05,10.11c.94,4.77,1.65,5.35,1.2,5.88-.65.74.32,1.53,1.14,1.36a9.75,9.75,0,0,0,4.16-2.13c.4-.4.73-1.5,0-1.55s-2,.62-2,0,.49-5.88.69-8.26.48-8.47.48-8.47Z" fill="#fcd8b1"/>
            <g id="Grupo_91311" data-name="Grupo 91311">
              <path id="Trazado_118974" data-name="Trazado 118974" d="M179.88,318.14l-1.36.78V289.38l-21.88,12.65v29.55l-1.36.78V301.11l24.6-14.23Z" fill="#bababa"/>
              <path id="Trazado_118975" data-name="Trazado 118975" d="M155.28,332.36l-1.26-.79V300.31l1.36.93Z" fill="#e0e2e2"/>
              <path id="Trazado_118976" data-name="Trazado 118976" d="M178.54,318.93l-1.26-.8V290.11l1.37-.75Z" fill="#7a7a7a"/>
              <path id="Trazado_118977" data-name="Trazado 118977" d="M179.88,286.88l-1.25-.8-24.61,14.23,1.36.93Z" fill="#7a7a7a"/>
            </g>
            <g id="Grupo_91312" data-name="Grupo 91312">
              <path id="Trazado_118978" data-name="Trazado 118978" d="M161.84,307.55l-1.37.78V278.79l-21.88,12.65v29.55l-1.36.78V290.52l24.61-14.23Z" fill="#bababa"/>
              <path id="Trazado_118979" data-name="Trazado 118979" d="M137.23,321.77l-1.26-.79V289.72l1.37.93Z" fill="#e0e2e2"/>
              <path id="Trazado_118980" data-name="Trazado 118980" d="M160.47,308.33l-1.25-.79V279.51l1.36-.75Z" fill="#7a7a7a"/>
              <path id="Trazado_118981" data-name="Trazado 118981" d="M161.84,276.29l-1.26-.79-24.61,14.22,1.37.93Z" fill="#7a7a7a"/>
            </g>
            <path id="Trazado_118982" data-name="Trazado 118982" d="M152.75,304.3l-21.34-12.39,29.71-17.15,21.34,12.39Z" fill="#b86351"/>
            <path id="Trazado_118983" data-name="Trazado 118983" d="M185.21,297.83a8,8,0,0,0,2.1-1.52c.35-10.51.69-22.55.47-23.47-.38-1.63-4.08-3.07-6-2.12-1.6.78-10.47,5.53-13.49,7.16l-4.4-2.55-2.75-.57-2.44,1.41-9.23-3.9a11.55,11.55,0,0,0-3.31,5.59,20.57,20.57,0,0,0-.46,5.9,19.309,19.309,0,0,0,.51,3.78c.79,2.81,3.65,4.42,6.27,5.22a19,19,0,0,0,14.8-1.38,83.006,83.006,0,0,0,10.9-6.89l.67-.48a3.9,3.9,0,0,0,.74-.58c.16-.31.19,0,.16,1.1l5.48,3.19-2.75-.57-2.89,1.66V289c-.06,1.67,0,4.85.21,8.31C181.28,298.09,183.42,298.81,185.21,297.83Z" fill="#0b1d2a"/>
            <path id="Trazado_118984" data-name="Trazado 118984" d="M166.94,275.81l.31,2.61a19,19,0,0,1-11.21.15c-6.56-1.73-7.38-3.87-7.38-3.87l.79-2.43Z" fill="#d17271"/>
            <path id="Trazado_118985" data-name="Trazado 118985" d="M184.38,289.47l.74-1.92-2.75-.57-29.71,17.15v-4.1l4.29-5.36L154.9,274l-4.43-1.52-.81,1.35,4.09,1.4,1.94,19.57-4.23,5.28v6.49l30.5-17.6Z" fill="#c7c8c9"/>
          </g>
          <path id="Trazado_118986" data-name="Trazado 118986" d="M163.63,252.11s6.18,2.58,7,3.95c.71,1.22-.27,3.29-.56,4.12-1.13,3.26-1.25,6.62-2,9.94-.41,1.89-.77,3.8-1.14,5.69,0,0-6.39,1.53-10.41.39a20.181,20.181,0,0,1-7.08-3.93s-1.32-15.12-1.61-17.33.17-4.72,2.65-5.72a6.66,6.66,0,0,1,4,0Z" fill="#d17271"/>
          <g id="head-7" data-name="head">
            <path id="Trazado_118987" data-name="Trazado 118987" d="M160.5,252.82a1.12,1.12,0,0,0,.75-1.19c-.16-1.39-.38-4.34.71-4.16,1.41.22,3-.33,2.86-4l-.15-3.66s-1.41-3.85-6.27-2c-3.17,1.2-4.24,2.54-2.86,6.31a23,23,0,0,1,1.2,4.29,7.66,7.66,0,0,1-.17,2.49,1.89,1.89,0,0,0,1.57,2,4.64,4.64,0,0,0,2.36-.08Z" fill="#fcd8b1"/>
            <path id="Trazado_118988" data-name="Trazado 118988" d="M164.67,239.83a4.67,4.67,0,0,0-2.48,1.91c-.81,1.35-.57,3-.43,4.48s.24,3.21.5,4.8a20.593,20.593,0,0,0,.93,2.95c.6,1.8.67,3.69-1.58,4.13-4.08.79-9-1.79-9.55-3.48s.78-2.83,1.59-5.62c.65-2.28-.44-4.89-.58-7.19-.24-4.06,3.93-8.12,8-6.6,1.24.46,2.36,1.3,3.72.76a2.46,2.46,0,0,1,1.75-.26,1.11,1.11,0,0,1,.54.64C167.78,238.16,166.18,239.3,164.67,239.83Z" fill="#12263f"/>
          </g>
          <path id="Trazado_118989" data-name="Trazado 118989" d="M151.55,306.74v-6.49l-21.34-12.39v6.49Z" fill="#8a4132"/>
          <path id="Trazado_118990" data-name="Trazado 118990" d="M155.78,294.96,135.7,282.44l-1.75-17.62,19.9,10.58Z" fill="#b86351"/>
          <path id="Trazado_118991" data-name="Trazado 118991" d="M128.41,261.61,149.76,274l.8-1.35-21.34-12.39Z" fill="#b86351"/>
          <path id="Trazado_118992" data-name="Trazado 118992" d="M133.65,261.78l21.34,12.39-4.43-1.52-21.34-12.39Z" fill="#966442"/>
          <g id="hand-12" data-name="hand">
            <path id="Trazado_118993" data-name="Trazado 118993" d="M190.31,257.82a17,17,0,0,0,2.24-2.94c.25-.76,2.61-.39,3.69-.42s1.24.77.39.78-1.73-.23-1.79,0,1.12,1.35.9,2-1.77,1.41-2.34,1.48a18.487,18.487,0,0,0-2,.49Z" fill="#fcd8b1"/>
            <path id="Trazado_118994" data-name="Trazado 118994" d="M168.55,255.17a1.178,1.178,0,0,1,.25,0c1.71.47,3,1.89,4.34,3,2.3,2,4.37,4.8,4.8,4.82s11.27-5.9,11.79-6.31,2.64.76,2.33,2.62-7.7,5.72-10.38,7.31-4.72,2.58-8.4.6-5.09-2.24-5.7-3.32c-1.09-1.92-2-4.82-1.24-7C166.66,256.07,167.55,255.07,168.55,255.17Z" fill="#e6372a"/>
          </g>
          <path id="Trazado_118995" data-name="Trazado 118995" d="M150.56,272.65l-.8,1.35,4.09,1.4,1.3.33-.16-1.56Z" fill="#c7c8c9"/>
        </g>
      </g>
    </g>
  </g>
</svg>
