<svg xmlns="http://www.w3.org/2000/svg" width="189.257" height="189.257" viewBox="0 0 189.257 189.257">
  <g id="Grupo_91726" data-name="Grupo 91726" transform="translate(-1122.879 -458.742)">
    <g id="Grupo_89669" data-name="Grupo 89669" transform="translate(417.507 -539.137)">
      <rect id="Rectángulo_33009" data-name="Rectángulo 33009" width="130.825" height="130.825" rx="22" transform="translate(707.493 1092.508) rotate(-45)" fill="#fff" stroke="#3b4453" stroke-width="3"/>
    </g>
    <g id="CF1_ico_excel_copia_10" data-name="CF1_ico excel copia 10" transform="translate(1160.379 504.308)">
      <path id="Trazado_114353" data-name="Trazado 114353" d="M88.659,77.585a7.052,7.052,0,0,0,1.553-4.376V70.333a7.073,7.073,0,1,0-14.146,0v2.833a6.989,6.989,0,0,0,1.553,4.376,7.052,7.052,0,0,0-4.387,2.739,7.021,7.021,0,0,0-4.387-2.739,7,7,0,0,0,1.564-4.376V70.333a7.073,7.073,0,0,0-14.146,0v2.833a6.989,6.989,0,0,0,1.553,4.376,7.052,7.052,0,0,0-4.387,2.739,7.021,7.021,0,0,0-4.387-2.739,7,7,0,0,0,1.564-4.376V70.333a7.073,7.073,0,0,0-14.146,0v2.833a6.926,6.926,0,0,0,1.553,4.376,7.063,7.063,0,0,0-5.8,6.937v4.2h2.833v-4.2a4.2,4.2,0,0,1,4.2-4.2h8.49a4.2,4.2,0,0,1,4.2,4.2v4.2h2.833v-4.2a4.2,4.2,0,0,1,4.2-4.2h8.49a4.2,4.2,0,0,1,4.2,4.2v4.2h2.833v-4.2a4.2,4.2,0,0,1,4.2-4.2h8.49a4.2,4.2,0,0,1,4.2,4.2v4.2h3.064v-4.2a7.052,7.052,0,0,0-5.772-6.895ZM47.731,73.209a4.245,4.245,0,0,1-8.49,0V70.333a4.245,4.245,0,0,1,8.49,0Zm19.8,0a4.245,4.245,0,0,1-8.49,0V70.333a4.245,4.245,0,0,1,8.49,0Zm19.8,0a4.245,4.245,0,0,1-8.49,0V70.333a4.245,4.245,0,0,1,8.49,0Z" transform="translate(1.061 2.798)" fill="#3b4454"/>
      <path id="Trazado_114354" data-name="Trazado 114354" d="M45.087,34.411a1.48,1.48,0,0,0-.514-.094H38.906a1.4,1.4,0,0,0-1.322.934l-1.5,4.124v-.136a7.5,7.5,0,0,0-7.021-4.922h0a7.063,7.063,0,0,0,1.459-4.2V27.243a7.073,7.073,0,1,0-14.146,0v2.823a6.979,6.979,0,0,0,1.448,4.2h0a7.084,7.084,0,0,0-7.073,7.073V58.359a1.417,1.417,0,0,0,1.312,1.417h4.2V73.512L13.667,77.4a1.406,1.406,0,0,0,.388,1.962,1.469,1.469,0,0,0,.787.231h16.99a1.406,1.406,0,0,0,1.417-1.406,1.469,1.469,0,0,0-.231-.787l-2.592-3.883V47.382l.357.7a5.772,5.772,0,0,0,10.494-.441l2.3-5.74,2.267-5.656A1.427,1.427,0,0,0,45.087,34.411ZM19.1,27.243a4.245,4.245,0,0,1,8.49,0v2.823a4.245,4.245,0,1,1-8.49,0ZM16.259,56.952H13.426V54.119h2.833Zm8.5,19.8V59.775H21.937v16.98H17.508l1.364-2.1a1.469,1.469,0,0,0,.231-.787V56.952h8.49V73.922a1.4,1.4,0,0,0,.241.787l1.354,2.1ZM38.7,46.605a2.97,2.97,0,0,1-3.841,1.648,2.928,2.928,0,0,1-1.543-1.427L30.28,40.76a1.417,1.417,0,0,0-2.687.63v12.73H19.1V41.389a1.417,1.417,0,1,0-2.823,0v9.9H13.447v-9.9a4.25,4.25,0,0,1,4.2-4.2h4.25V51.286H24.76V37.139h4.2A4.67,4.67,0,0,1,33.323,40.2L34.7,43.992a1.409,1.409,0,0,0,2.655,0l.441-1.186h2.372Zm2.655-6.674H38.875L39.924,37.1H42.5Z" transform="translate(0 0.668)" fill="#3b4454"/>
      <path id="Trazado_114355" data-name="Trazado 114355" d="M93.015,15.182a1.417,1.417,0,0,0,1.417-1.417v-5.7A1.406,1.406,0,0,0,93.015,6.65H33.607A1.417,1.417,0,0,0,32.19,8.067v5.656a1.427,1.427,0,0,0,1.417,1.417h1.417V32.2h2.823V15.182H88.775V46.3H43.534v2.833H61.9v6.3l-9.193,5.247,1.4,2.456,7.8-4.45v4.638h2.823v-4.68l7.787,4.45,1.459-2.456-9.193-5.247v-6.3H94.432V46.255H91.609V15.182ZM35.023,12.348V9.525H91.609v2.823Z" transform="translate(1.06)" fill="#3b4454"/>
      <path id="Trazado_114356" data-name="Trazado 114356" d="M78.523,21.627,72.866,20.21l-.64,2.739,2.655.672L64.093,31.135l-6.3-5a1.417,1.417,0,0,0-1.711-.052l-9.9,7.073,1.637,2.3,9.036-6.443L63.1,34a1.406,1.406,0,0,0,1.7,0l11.922-8.343v2.949h2.854V23a1.417,1.417,0,0,0-1.049-1.375Z" transform="translate(1.752 0.67)" fill="#3b4454"/>
    </g>
  </g>
</svg>
