<svg xmlns="http://www.w3.org/2000/svg" width="150" height="150" viewBox="0 0 150 150">
  <g id="Grupo_91738" data-name="Grupo 91738" transform="translate(-399 -4536.703)">
    <g id="Elipse_4095" data-name="Elipse 4095" transform="translate(399 4536.703)" fill="#fff" stroke="#2c7bb2" stroke-width="5">
      <circle cx="75" cy="75" r="75" stroke="none"/>
      <circle cx="75" cy="75" r="72.5" fill="none"/>
    </g>
    <path id="CF1_ico_excel_copia_11" data-name="CF1_ico excel copia 11" d="M81.46,48.43a7.56,7.56,0,0,0,2-5.83,7.88,7.88,0,0,0-8-6.91H56.6c.93-2.84,2.42-8,2.42-12.21,0-6.62-5.62-12.21-9.15-12.21a9.59,9.59,0,0,0-5.54,1.86,1.52,1.52,0,0,0-.57,1.19V24.67L35,43.72l-.37.18v-.58a1.53,1.53,0,0,0-1.52-1.53H17.81a7.65,7.65,0,0,0-7.63,7.63V73.85a7.65,7.65,0,0,0,7.63,7.63H27a7.64,7.64,0,0,0,7.18-5,19.88,19.88,0,0,0,8.09,2h28a7,7,0,0,0,6.91-5.33,6.9,6.9,0,0,0-.55-4.58,6.83,6.83,0,0,0,3.77-6.11,6.74,6.74,0,0,0-.71-3,6.82,6.82,0,0,0,1.78-10.92ZM31.55,73.83A4.58,4.58,0,0,1,27,78.41H17.81a4.58,4.58,0,0,1-4.57-4.58V49.41a4.58,4.58,0,0,1,4.57-4.58H31.55v1.53h0ZM77.48,48.56a1.54,1.54,0,0,0,.82,1.3A3.78,3.78,0,0,1,77,57a1.5,1.5,0,0,0-.87,2.59A3.79,3.79,0,0,1,74,66.16a1.52,1.52,0,0,0-.87,2.62,3.77,3.77,0,0,1,1.11,3.64,4,4,0,0,1-3.94,2.94h-28a15.61,15.61,0,0,1-7.64-2.25V47.3l2.21-1.1a1.5,1.5,0,0,0,.7-.73l9.16-19.84a1.57,1.57,0,0,0,.14-.64V15.15h0a6.48,6.48,0,0,1,3.06-.83c1.67,0,6.1,4.16,6.1,9.16,0,5.37-2.92,13.11-2.95,13.19a1.51,1.51,0,0,0,.17,1.41,1.54,1.54,0,0,0,1.26.66h21a4.81,4.81,0,0,1,4.92,4.14A4.55,4.55,0,0,1,78.2,47.2a1.51,1.51,0,0,0-.72,1.36Z" transform="translate(427.165 4556.433)" fill="#3b4454"/>
  </g>
</svg>
