<svg xmlns="http://www.w3.org/2000/svg" width="139.36" height="139.36" viewBox="0 0 139.36 139.36">
  <g id="Grupo_91741" data-name="Grupo 91741" transform="translate(-825.32 -5494.523)">
    <g id="Grupo_89870" data-name="Grupo 89870" transform="translate(827.441 5496.645)">
      <rect id="Rectángulo_33010" data-name="Rectángulo 33010" width="95.543" height="95.543" rx="10" transform="translate(0 67.559) rotate(-45)" fill="#fff" stroke="#3b4454" stroke-width="3"/>
    </g>
    <g id="CF1_tarjeta_2" data-name="CF1_tarjeta 2" transform="translate(847.351 5522.89)">
      <path id="Trazado_114367" data-name="Trazado 114367" d="M59.99,27.9a3.705,3.705,0,1,0-2.954-1.477L50.977,34.9a3.58,3.58,0,0,0-1.155-.188,3.643,3.643,0,0,0-2.506.993L43.27,33.414a3.688,3.688,0,1,0-7.214,0l-4.046,2.291a3.643,3.643,0,0,0-2.506-.993,3.688,3.688,0,1,0,3.58,2.918l4.037-2.291a3.705,3.705,0,0,0,5.03,0l4.037,2.291a3.7,3.7,0,1,0,6.543-1.468l6.059-8.476a3.8,3.8,0,0,0,1.2.215Zm0-5.164a1.477,1.477,0,1,1-1.477,1.477A1.477,1.477,0,0,1,59.99,22.737ZM29.46,39.877a1.477,1.477,0,1,1,1.477-1.468A1.477,1.477,0,0,1,29.46,39.877Zm10.159-5.764A1.477,1.477,0,1,1,41.1,32.636a1.477,1.477,0,0,1-1.477,1.477Zm10.159,5.764a1.477,1.477,0,1,1,1.477-1.468,1.477,1.477,0,0,1-1.477,1.468Z" transform="translate(-1.649 -1.322)" fill="#3b4454"/>
      <path id="Trazado_114368" data-name="Trazado 114368" d="M71.9,63.178H13.213a.9.9,0,0,1-.9-.9V16.636a.9.9,0,0,1,.9-.9h5.218a1.11,1.11,0,0,0,0-2.211H13.213a3.133,3.133,0,0,0-3.133,3.133v45.62a3.133,3.133,0,0,0,3.133,3.133h7.626V67.85a2.524,2.524,0,0,0,2.524,2.488H34.443L29.225,80.524a1.107,1.107,0,0,0,1.969,1.011l5.737-11.2H49.176l5.728,11.2a1.1,1.1,0,0,0,.985.6,1.146,1.146,0,0,0,.51-.116,1.119,1.119,0,0,0,.474-1.495L51.655,70.339h11.09a2.515,2.515,0,0,0,2.515-2.515V65.389H71.9a1.11,1.11,0,1,0,0-2.22Zm-8.852,4.654a.3.3,0,0,1-.3.3H23.362a.3.3,0,0,1-.3-.3V65.389H63.049Z" transform="translate(0 -0.592)" fill="#3b4454"/>
      <path id="Trazado_114369" data-name="Trazado 114369" d="M24.232,15.068H74.274a.9.9,0,0,1,.9.9V26.516a1.11,1.11,0,1,0,2.22,0V15.99a3.133,3.133,0,0,0-3.133-3.133H50.573V10.674A2.775,2.775,0,0,0,47.8,7.89h-6.74a2.775,2.775,0,0,0-2.775,2.784v2.175H24.232a1.11,1.11,0,0,0,0,2.211ZM40.5,10.674a.564.564,0,0,1,.555-.564H47.8a.564.564,0,0,1,.564.564v2.175H40.5Z" transform="translate(-1.379 0)" fill="#3b4454"/>
      <path id="Trazado_114370" data-name="Trazado 114370" d="M27.25,51a1.11,1.11,0,0,0-1.11,1.11v9.738a1.11,1.11,0,0,0,1.11,1.11h4.475a1.11,1.11,0,0,0,1.1-1.11V52.065A1.11,1.11,0,0,0,31.743,51Zm3.383,9.783H28.351V53.175h2.282Z" transform="translate(-1.686 -4.525)" fill="#3b4454"/>
      <path id="Trazado_114371" data-name="Trazado 114371" d="M38.6,44.63a1.119,1.119,0,0,0-1.11,1.11v15.44a1.119,1.119,0,0,0,1.11,1.11h4.475a1.119,1.119,0,0,0,1.137-1.11V45.74a1.119,1.119,0,0,0-1.11-1.11Zm3.383,15.44H39.737V46.85H42.01Z" transform="translate(-2.877 -3.856)" fill="#3b4454"/>
      <path id="Trazado_114372" data-name="Trazado 114372" d="M49.951,51a1.11,1.11,0,0,0-1.1,1.11v9.738a1.11,1.11,0,0,0,1.1,1.11h4.475a1.11,1.11,0,0,0,1.11-1.11V52.065A1.11,1.11,0,0,0,54.444,51Zm3.392,9.783H51.061V53.175h2.282Z" transform="translate(-4.069 -4.525)" fill="#3b4454"/>
      <path id="Trazado_114373" data-name="Trazado 114373" d="M61.31,58.25a1.11,1.11,0,0,0-1.11,1.11v3.249a1.11,1.11,0,0,0,1.11,1.11h4.475a1.11,1.11,0,1,0,0-2.22H62.411V59.36a1.11,1.11,0,0,0-1.1-1.11Z" transform="translate(-5.26 -5.286)" fill="#3b4454"/>
      <path id="Trazado_114374" data-name="Trazado 114374" d="M90.208,66.01l-6.355-11a14.482,14.482,0,1,0-14.321,4.081,14.679,14.679,0,0,0,3.768.51,14.213,14.213,0,0,0,3.258-.376l6.355,11A4.207,4.207,0,1,0,90.2,66.019ZM70.114,56.917a12.262,12.262,0,1,1,9.3-1.226,12.262,12.262,0,0,1-9.3,1.226ZM87.558,69.805a2,2,0,0,1-2.685-.734L78.724,58.528a14.24,14.24,0,0,0,3.455-2l6.113,10.579a2.077,2.077,0,0,1,.269,1,2,2,0,0,1-1,1.727Z" transform="translate(-5.114 -2.386)" fill="#3b4454"/>
      <path id="Trazado_114375" data-name="Trazado 114375" d="M83.807,48.705a10.5,10.5,0,0,0-.528-7.59,1.1,1.1,0,1,0-2,.9,8.3,8.3,0,1,1-2.506-3.088,1.119,1.119,0,0,0,1.343-1.79A10.517,10.517,0,1,0,71.043,55.74a10.66,10.66,0,0,0,2.739.358,10.491,10.491,0,0,0,10.025-7.4Z" transform="translate(-5.596 -2.856)" fill="#3b4454"/>
    </g>
  </g>
</svg>
