<svg xmlns="http://www.w3.org/2000/svg" width="139.36" height="139.36" viewBox="0 0 139.36 139.36">
  <g id="Grupo_91740" data-name="Grupo 91740" transform="translate(-195.32 -5494.523)">
    <g id="Grupo_89872" data-name="Grupo 89872" transform="translate(0 -431.297)">
      <g id="Grupo_89870" data-name="Grupo 89870" transform="translate(197.441 5927.941)">
        <rect id="Rectángulo_33010" data-name="Rectángulo 33010" width="95.543" height="95.543" rx="10" transform="translate(0 67.559) rotate(-45)" fill="#fff" stroke="#60c1dd" stroke-width="3"/>
      </g>
    </g>
    <g id="CF1_tarjeta_1" data-name="CF1_tarjeta 1" transform="translate(222.714 5517.206)">
      <path id="Trazado_114359" data-name="Trazado 114359" d="M30.39,30.034a1.162,1.162,0,0,0-.818-.344H20.8L9.561,18.475a1.157,1.157,0,0,0-1.636,1.636L19.509,31.662a1.129,1.129,0,0,0,.818.344h8.762l17,17a1.186,1.186,0,0,0,.818.335h9.948L75.009,66.366a1.166,1.166,0,1,0,1.587-1.71L58.1,47.346a1.145,1.145,0,0,0-.818-.319H47.39Z" transform="translate(0 -0.77)" fill="#60c1dd"/>
      <path id="Trazado_114360" data-name="Trazado 114360" d="M15.706,36.5H8.744A1.154,1.154,0,0,0,7.59,37.654V81.577a1.154,1.154,0,0,0,1.154,1.145h6.938a1.154,1.154,0,0,0,1.154-1.154V37.654A1.154,1.154,0,0,0,15.705,36.5ZM14.544,80.416H9.922v-41.6h4.622Z" transform="translate(-0.001 -4.111)" fill="#60c1dd"/>
      <path id="Trazado_114361" data-name="Trazado 114361" d="M22.9,84.778h6.929a1.162,1.162,0,0,0,1.162-1.154V48.962A1.162,1.162,0,0,0,29.831,47.8H22.9a1.162,1.162,0,0,0-1.162,1.162V83.633A1.162,1.162,0,0,0,22.9,84.778Zm1.154-34.671h4.622V82.471H24.055Z" transform="translate(-2.575 -6.166)" fill="#60c1dd"/>
      <path id="Trazado_114362" data-name="Trazado 114362" d="M45.115,85.432V58.844a1.154,1.154,0,0,0-1.154-1.154H37.032a1.154,1.154,0,0,0-1.162,1.154V85.432a1.154,1.154,0,0,0,1.162,1.145h6.929a1.154,1.154,0,0,0,1.154-1.145ZM42.808,84.27H38.185V60.005h4.622Z" transform="translate(-5.145 -7.965)" fill="#60c1dd"/>
      <path id="Trazado_114363" data-name="Trazado 114363" d="M59.245,87.489V70.154A1.162,1.162,0,0,0,58.091,69H51.154A1.162,1.162,0,0,0,50,70.154V87.489a1.154,1.154,0,0,0,1.154,1.145h6.938a1.154,1.154,0,0,0,1.154-1.145Zm-2.307-1.162H52.315V71.307h4.622Z" transform="translate(-7.715 -10.023)" fill="#60c1dd"/>
      <path id="Trazado_114364" data-name="Trazado 114364" d="M72.2,89.66a1.154,1.154,0,0,0,1.154-1.154V75.8A1.162,1.162,0,0,0,72.2,74.64H65.284A1.162,1.162,0,0,0,64.13,75.8V88.515a1.154,1.154,0,0,0,1.154,1.145ZM66.478,76.955h4.581v10.4H66.478Z" transform="translate(-10.285 -11.048)" fill="#60c1dd"/>
      <path id="Trazado_114365" data-name="Trazado 114365" d="M86.343,90.946A1.162,1.162,0,0,0,87.5,89.793V82.864a1.162,1.162,0,0,0-1.162-1.154H79.414a1.154,1.154,0,0,0-1.154,1.154V89.8a1.154,1.154,0,0,0,1.154,1.145Zm-5.776-6.937h4.622v4.622H80.567Z" transform="translate(-12.855 -12.334)" fill="#60c1dd"/>
      <path id="Trazado_114366" data-name="Trazado 114366" d="M81.979,13.9H72.718a1.162,1.162,0,0,0-1.162,1.154V34.688H68.112a1.154,1.154,0,0,0-.818,1.972l9.245,9.228a1.162,1.162,0,0,0,1.636,0h0l9.269-9.212a1.154,1.154,0,0,0-.818-1.972H83.133V15.07a1.154,1.154,0,0,0-1.154-1.17Zm1.833,23.111-6.455,6.422L70.9,36.979h1.816a1.154,1.154,0,0,0,1.154-1.154V16.191h6.938V35.825a1.154,1.154,0,0,0,1.154,1.154Z" transform="translate(-10.799)" fill="#60c1dd"/>
    </g>
  </g>
</svg>
