<svg xmlns="http://www.w3.org/2000/svg" width="189.257" height="189.258" viewBox="0 0 189.257 189.258">
  <g id="Grupo_91743" data-name="Grupo 91743" transform="translate(-282.879 -6532.582)">
    <g id="Grupo_89874" data-name="Grupo 89874" transform="translate(-422.493 5534.703)">
      <rect id="Rectángulo_33009" data-name="Rectángulo 33009" width="130.825" height="130.825" rx="22" transform="translate(707.493 1092.508) rotate(-45)" fill="#fff" stroke="#3b4453" stroke-width="3"/>
    </g>
    <g id="Outline" transform="translate(322 6581.35)">
      <path id="Trazado_119884" data-name="Trazado 119884" d="M13.73,31.1v5.66L11,39.46l2.24,2.23,7.11-7.11a1.771,1.771,0,1,1,2.5,2.51L15.77,44.2a1.59,1.59,0,0,0,0,2.23h0a7.37,7.37,0,0,1,0,10.41l-7.9,7.9L10.11,67l3.62-3.62v12a6.33,6.33,0,0,0,6.32,6.32H56.39V78.5H28V75.34H56.39V72.18H20.05A3.17,3.17,0,0,1,16.89,69V60.19L18,59.07A10.52,10.52,0,0,0,19,45.4l6.08-6.08a4.95,4.95,0,0,0-7-7L16.89,33.6V15.29a3.17,3.17,0,0,1,3.16-3.16H86.42a3.18,3.18,0,0,1,3.16,3.16V59.54h3.16V15.29A6.35,6.35,0,0,0,86.42,9H20.05a6.34,6.34,0,0,0-6.32,6.32V27.94H9a6.32,6.32,0,0,0-6.32,6.32V47.82L0,50.52l2.24,2.23L5.4,49.59a1.57,1.57,0,0,0,.46-1.11V34.26A3.16,3.16,0,0,1,9,31.1Zm6.32,44.24h4.74V78.5H20.05a3.17,3.17,0,0,1-3.16-3.16v-.85a6.27,6.27,0,0,0,3.16.85Z" fill="#3b4454"/>
      <path id="Trazado_119885" data-name="Trazado 119885" d="M89.58,62.7A4.68,4.68,0,0,0,88,63v-.3a4.74,4.74,0,0,0-7.07-4.13,4.73,4.73,0,0,0-5.57-1.92V54.8a4.75,4.75,0,0,0-9.49,0V68l-1.65.83a8.43,8.43,0,0,0-.91,14.56l4.31,2.88A3.13,3.13,0,0,1,69,88.94V94.3h3.16V88.94a6.29,6.29,0,0,0-2.81-5.26l-2.63-1.76L65.06,80.8a5.28,5.28,0,0,1,.57-9.11l.25-.12v5.35H69V54.8a1.58,1.58,0,0,1,3.16,0V67.44h3.16V61.12a1.58,1.58,0,1,1,3.16,0V69h3.16V62.7a1.58,1.58,0,0,1,3.16,0v7.9H88V67.44a1.58,1.58,0,0,1,3.16,0V73a28.49,28.49,0,0,1-3,12.68,1.57,1.57,0,0,0-.16.71v7.9h3.16V86.77A31.81,31.81,0,0,0,94.32,73V67.44a4.75,4.75,0,0,0-4.74-4.74Z" fill="#3b4454"/>
      <path id="Trazado_119886" data-name="Trazado 119886" d="M69.5,25.71a5.85,5.85,0,1,0,4.143,1.71A5.86,5.86,0,0,0,69.5,25.71Zm0,8.55a2.69,2.69,0,1,1,1.906-.791,2.7,2.7,0,0,1-1.906.791Z" fill="#3b4454"/>
      <path id="Trazado_119887" data-name="Trazado 119887" d="M84.31,28.91a1.59,1.59,0,0,0,.41-1.78L83.4,23.94a1.58,1.58,0,0,0-1.55-1l-3,.15-.93-.93.16-3a1.58,1.58,0,0,0-1-1.54L73.9,16.3a1.57,1.57,0,0,0-1.78.4l-2,2.22H68.84l-2-2.22a1.55,1.55,0,0,0-1.77-.4l-3.19,1.32a1.56,1.56,0,0,0-1,1.54l.15,3-.93.93-3-.15a1.56,1.56,0,0,0-1.54,1l-1.32,3.19a1.57,1.57,0,0,0,.4,1.78l2.21,2v1.31l-2.21,2a1.57,1.57,0,0,0-.4,1.78l1.32,3.18a1.58,1.58,0,0,0,1.54,1l3-.15.93.92-.15,3a1.58,1.58,0,0,0,1,1.54l3.19,1.32a1.6,1.6,0,0,0,1.78-.4l2-2.22h1.31l2,2.22a1.6,1.6,0,0,0,1.78.4l3.18-1.32a1.6,1.6,0,0,0,1-1.54l-.15-3,.92-.92,3,.15a1.6,1.6,0,0,0,1.54-1L84.72,36a1.6,1.6,0,0,0-.4-1.78l-2.22-2V30.91Zm-4.85,5.18,1.91,1.73-.47,1.12-2.57-.13a1.6,1.6,0,0,0-1.19.46L75.21,39.2a1.6,1.6,0,0,0-.46,1.19L74.88,43l-1.12.47L72,41.52A1.58,1.58,0,0,0,70.86,41H68.14a1.59,1.59,0,0,0-1.17.52l-1.72,1.91L64.12,43l.13-2.57a1.52,1.52,0,0,0-.46-1.19l-1.92-1.93a1.62,1.62,0,0,0-1.2-.46l-2.57.13-.46-1.12,1.91-1.73a1.58,1.58,0,0,0,.52-1.17V30.2a1.59,1.59,0,0,0-.52-1.2l-1.91-1.72.46-1.13,2.57.13a1.54,1.54,0,0,0,1.2-.46l1.92-1.92a1.54,1.54,0,0,0,.46-1.2l-.13-2.57,1.13-.46L67,21.61a1.59,1.59,0,0,0,1.17.52h2.72A1.58,1.58,0,0,0,72,21.61l1.73-1.91,1.12.46-.13,2.57a1.62,1.62,0,0,0,.46,1.2l1.93,1.92a1.52,1.52,0,0,0,1.19.46l2.57-.13.47,1.13L79.46,29a1.59,1.59,0,0,0-.52,1.17v2.72a1.58,1.58,0,0,0,.52,1.17Z" fill="#3b4454"/>
      <path id="Trazado_119888" data-name="Trazado 119888" d="M24.79,62.7v3.16H59.55V62.7H56.39V58H53.23v4.7H50.07V54.8H46.91v7.9H43.75V50.06H40.59V62.7H37.43V54.8H34.27v7.9H31.11V58H28v4.7Z" fill="#3b4454"/>
      <path id="Trazado_119889" data-name="Trazado 119889" d="M26.37,18.45h3.16v3.16H26.37Z" fill="#3b4454"/>
      <path id="Trazado_119890" data-name="Trazado 119890" d="M32.69,18.45h15.8v3.16H32.69Z" fill="#3b4454"/>
      <path id="Trazado_119891" data-name="Trazado 119891" d="M23.21,24.78H48.49v3.16H23.21Z" fill="#3b4454"/>
      <path id="Trazado_119892" data-name="Trazado 119892" d="M29.53,31.1h19v3.16h-19Z" fill="#3b4454"/>
      <path id="Trazado_119893" data-name="Trazado 119893" d="M29.53,37.42h15.8v3.16H29.53Z" fill="#3b4454"/>
      <path id="Trazado_119894" data-name="Trazado 119894" d="M28,2.65H69V5.81H28Z" fill="#3b4454"/>
      <path id="Trazado_119895" data-name="Trazado 119895" d="M72.19,2.65h3.17V5.81H72.19Z" fill="#3b4454"/>
    </g>
  </g>
</svg>
