<svg xmlns="http://www.w3.org/2000/svg" width="189.257" height="189.258" viewBox="0 0 189.257 189.258">
  <g id="Grupo_91745" data-name="Grupo 91745" transform="translate(-1122.879 -6532.582)">
    <g id="Grupo_89876" data-name="Grupo 89876" transform="translate(417.507 5534.703)">
      <rect id="Rectángulo_33009" data-name="Rectángulo 33009" width="130.825" height="130.825" rx="22" transform="translate(707.493 1092.508) rotate(-45)" fill="#fff" stroke="#3b4453" stroke-width="3"/>
    </g>
    <g id="CF1_tarj_3" data-name="CF1_tarj 3" transform="translate(1165.613 6577.008)">
      <path id="Trazado_119901" data-name="Trazado 119901" d="M49.635,60.722,46.362,73.8a1.63,1.63,0,0,0,1.981,1.981l6.536-1.637a1.637,1.637,0,1,0-.782-3.127l-3.941.938,2.617-10.425a1.647,1.647,0,0,0-2.085-2,1.668,1.668,0,0,0-1.136,1.209Z" transform="translate(1.47 2.4)" fill="#3b4454"/>
      <path id="Trazado_119902" data-name="Trazado 119902" d="M44.173,56.392a1.647,1.647,0,0,0-1.991,1.188s-1.4,5.306-4.952,5.306-4.941-5.212-4.962-5.306a1.637,1.637,0,0,0-3.127.792c.073.313,2.012,7.777,8.131,7.777s8.048-7.464,8.121-7.777a1.637,1.637,0,0,0-1.22-1.981Z" transform="translate(0.74 2.267)" fill="#3b4454"/>
      <path id="Trazado_119903" data-name="Trazado 119903" d="M65.468,66.139c6.109,0,8.048-7.464,8.131-7.777a1.637,1.637,0,0,0-3.127-.792s-1.4,5.306-4.952,5.306-4.941-5.212-4.962-5.306a1.637,1.637,0,0,0-3.127.792C57.42,58.675,59.348,66.139,65.468,66.139Z" transform="translate(1.942 2.278)" fill="#3b4454"/>
      <path id="Trazado_119904" data-name="Trazado 119904" d="M51.4,27.2c5.317,0,9.184-6.62,9.6-7.381a1.616,1.616,0,0,0,0-1.6c-.417-.751-4.285-7.381-9.6-7.381s-9.184,6.63-9.612,7.381a1.668,1.668,0,0,0,0,1.6C42.237,20.577,46.094,27.2,51.4,27.2Zm0-13.062c2.492,0,5.025,3.044,6.255,4.91-1.23,1.856-3.763,4.9-6.255,4.9s-5.035-3.044-6.255-4.9C46.386,17.158,48.929,14.134,51.4,14.134Z" transform="translate(1.269 0.334)" fill="#3b4454"/>
      <path id="Trazado_119905" data-name="Trazado 119905" d="M52.723,18.757a1.637,1.637,0,1,1-.487-1.165,1.637,1.637,0,0,1,.487,1.165Z" transform="translate(1.603 0.6)" fill="#3b4454"/>
      <path id="Trazado_119906" data-name="Trazado 119906" d="M87.072,50.632V40.614c0-5.212-13.7-7.1-22.935-7.767V31.012a16.357,16.357,0,1,0-22.935,0v1.835c-9.205.667-22.935,2.544-22.935,7.767V50.632c-3.732.907-6.547,4.868-6.547,9.612s2.9,8.809,6.714,9.654a34.329,34.329,0,0,0,68.377,0c3.795-.844,6.693-4.848,6.693-9.654S90.762,51.539,87.072,50.632ZM18.34,66.384a6.672,6.672,0,0,1-3.273-6.14,6.672,6.672,0,0,1,3.273-6.161ZM39.607,19.357A13.083,13.083,0,1,1,52.669,32.44,13.083,13.083,0,0,1,39.607,19.357ZM60.863,33.493v5.484H44.507V33.493a16.221,16.221,0,0,0,16.357,0ZM83.8,66.791a31.077,31.077,0,1,1-62.154,0V44.481c8.34,4.253,29.94,4.316,31.077,4.316s22.716-.063,31.077-4.316ZM52.669,45.524c-19.307,0-30.305-3.127-31.077-4.816h0c.459-1.042,6.026-3.524,19.62-4.545v2.846H39.607a1.637,1.637,0,1,0,0,3.273H65.773a1.637,1.637,0,0,0,0-3.273H64.137V36.131c13.667,1.042,19.224,3.524,19.641,4.41C83.048,42.323,72.049,45.524,52.669,45.524Zm34.4,20.86v-12.3a6.682,6.682,0,0,1,3.263,6.14,6.682,6.682,0,0,1-3.263,6.161Z" transform="translate(0 0)" fill="#3b4454"/>
    </g>
  </g>
</svg>
