<svg xmlns="http://www.w3.org/2000/svg" width="150" height="150" viewBox="0 0 150 150">
  <g id="Grupo_91739" data-name="Grupo 91739" transform="translate(-1028 -4536.703)">
    <g id="Elipse_4096" data-name="Elipse 4096" transform="translate(1028 4536.703)" fill="#fff" stroke="#519cb3" stroke-width="5">
      <circle cx="75" cy="75" r="75" stroke="none"/>
      <circle cx="75" cy="75" r="72.5" fill="none"/>
    </g>
    <path id="CF1_ico_excel_copia_12" data-name="CF1_ico excel copia 12" d="M86.63,47.79a6.85,6.85,0,0,0-3.77-6.11,6.83,6.83,0,0,0-3-9.16,6.86,6.86,0,0,0-6.37-9.92h-28a19.84,19.84,0,0,0-8.08,2,7.64,7.64,0,0,0-7.18-5H21a7.64,7.64,0,0,0-7.63,7.63V51.6A7.64,7.64,0,0,0,21,59.23H36.26a1.52,1.52,0,0,0,1.53-1.52v-.59l.37.19,8.79,19v10.4a1.53,1.53,0,0,0,.57,1.19,9.54,9.54,0,0,0,5.53,1.86c3.53,0,9.16-5.59,9.16-12.21,0-4.18-1.5-9.38-2.43-12.21H78.64a7.89,7.89,0,0,0,8-6.92,7.61,7.61,0,0,0-1.95-5.83A6.8,6.8,0,0,0,86.63,47.79ZM34.74,54.65h0v1.52H21a4.59,4.59,0,0,1-4.58-4.58V27.19A4.59,4.59,0,0,1,21,22.61h9.16a4.59,4.59,0,0,1,4.58,4.58Zm46.65-.83a4.55,4.55,0,0,1,2.17,4.32,4.82,4.82,0,0,1-4.92,4.14h-21a1.53,1.53,0,0,0-1.25.67,1.49,1.49,0,0,0-.17,1.4c0,.08,2.95,7.83,2.95,13.2,0,5-4.43,9.16-6.11,9.16a6.44,6.44,0,0,1-3-.83h0V76a1.49,1.49,0,0,0-.14-.63L40.7,55.55a1.48,1.48,0,0,0-.7-.72l-2.21-1.11V27.92a15.47,15.47,0,0,1,7.63-2.25h28a3.94,3.94,0,0,1,3.93,2.93,3.79,3.79,0,0,1-1.11,3.65,1.51,1.51,0,0,0-.4,1.59,1.54,1.54,0,0,0,1.28,1,3.78,3.78,0,0,1,2.17,6.53A1.52,1.52,0,0,0,80.2,44a3.78,3.78,0,0,1,1.29,7.14,1.52,1.52,0,0,0-.1,2.66Z" transform="translate(1053.63 4557.103)" fill="#3b4454"/>
  </g>
</svg>
