<svg xmlns="http://www.w3.org/2000/svg" width="1021" height="1407" viewBox="0 0 1021 1407">
  <g id="Grupo_91717" data-name="Grupo 91717" transform="translate(291 -1330)">
    <g id="Grupo_89676" data-name="Grupo 89676" transform="translate(-581 -23)">
      <path id="Trazado_113630" data-name="Trazado 113630" d="M10,0H1011a10,10,0,0,1,10,10V1397a10,10,0,0,1-10,10H10a10,10,0,0,1-10-10V10A10,10,0,0,1,10,0Z" transform="translate(290 1353)" fill="#effbff"/>
      <path id="Trazado_113628" data-name="Trazado 113628" d="M-1584.256,757.6h988.533L-1040.117,313.2a70.547,70.547,0,0,0-99.744,0Z" transform="translate(552.426 966.277) rotate(-90)" fill="#d7eff6" opacity="0.61"/>
      <path id="Trazado_113631" data-name="Trazado 113631" d="M-1584.256,553.332h554.333l-249.2-249.2a39.56,39.56,0,0,0-55.933,0Z" transform="translate(843.332 3723.456) rotate(90)" fill="#d7eff6" opacity="0.61"/>
    </g>
  </g>
</svg>
