<svg xmlns="http://www.w3.org/2000/svg" width="189.257" height="189.257" viewBox="0 0 189.257 189.257">
  <g id="Grupo_91724" data-name="Grupo 91724" transform="translate(-282.879 -458.742)">
    <g id="Grupo_89668" data-name="Grupo 89668" transform="translate(-422.493 -539.137)">
      <rect id="Rectángulo_33009" data-name="Rectángulo 33009" width="130.825" height="130.825" rx="22" transform="translate(707.493 1092.508) rotate(-45)" fill="#fff" stroke="#3b4453" stroke-width="3"/>
    </g>
    <path id="CF1_ico_excel_copia_8" data-name="CF1_ico excel copia 8" d="M32.518,17.451a19.279,19.279,0,0,1,11.624,3.71,11.7,11.7,0,0,1,4.946,9.275,11.13,11.13,0,0,1-3.314,7.791A17.041,17.041,0,0,1,37.86,42.7l-4.328,5.824a1.323,1.323,0,0,1-2.127,0l-4.254-5.849A16.979,16.979,0,0,1,19.237,38.2a11.13,11.13,0,0,1-3.327-7.791,11.723,11.723,0,0,1,4.946-9.275A19.267,19.267,0,0,1,32.518,17.451Zm65.529,15.52h-5.12V54.154h5.12ZM91.6,30.337h7.754a1.311,1.311,0,0,1,1.323,1.4V55.465a1.323,1.323,0,0,1-1.323,1.323H91.6a1.323,1.323,0,0,1-1.311-1.323V31.734A1.311,1.311,0,0,1,91.6,30.386ZM70.581,42.48V37.274H65.486v2.993a21.369,21.369,0,0,1,5.12,2.263Zm-7.717-2.832v-3.71a1.323,1.323,0,0,1,1.311-1.323h7.754a1.311,1.311,0,0,1,1.311,1.323V44.36a19.046,19.046,0,0,1,1.657,1.5,21.826,21.826,0,0,1,1.719,1.954V26.59a1.311,1.311,0,0,1,1.237-1.323h7.791a1.323,1.323,0,0,1,1.323,1.323V55.465a1.323,1.323,0,0,1-1.323,1.323H80.907a19.784,19.784,0,0,1,.42,2.609h21.8V20.085H84.753a1.323,1.323,0,1,1,0-2.634h19.7a1.323,1.323,0,0,1,1.311,1.323V60.708a1.323,1.323,0,0,1-1.311,1.323h-23a22.815,22.815,0,0,1-.223,2.733,21.554,21.554,0,0,1-.618,3,1.323,1.323,0,1,1-2.473-.717,18.969,18.969,0,0,0,.556-2.646,19.316,19.316,0,0,0,.186-2.721,19.786,19.786,0,0,0-37.618-8.322,1.317,1.317,0,0,1-2.387-1.113A22.507,22.507,0,0,1,47.1,42.864a22.123,22.123,0,0,1,10.672-3.45V18.774a1.323,1.323,0,0,1,1.323-1.323h19.7a1.323,1.323,0,0,1,0,2.634H60.4V39.377a20.244,20.244,0,0,1,2.473.272ZM80.177,54.154h4.192V27.913H79.213V51.928a22.158,22.158,0,0,1,.927,2.226Zm12.144,20.6A1.316,1.316,0,1,1,90.454,72.9l4.093-4.068a1.323,1.323,0,0,1,.94-.4,1.3,1.3,0,0,1,.915.4l4.13,4.13a1.312,1.312,0,0,1-1.855,1.855l-1.892-1.88V84.662A8.149,8.149,0,0,1,88.661,92.8H75.379a1.323,1.323,0,1,1,0-2.634H88.673a5.515,5.515,0,0,0,5.491-5.5V72.877ZM37.588,88.124a1.312,1.312,0,0,1,1.855-1.855l4.13,4.13a1.3,1.3,0,0,1,0,1.867l-4.13,4.13a1.312,1.312,0,0,1-1.855-1.855l1.929-1.892H29.377a8.149,8.149,0,0,1-8.125-8.137V46.574a1.323,1.323,0,1,1,2.634,0v37.94a5.528,5.528,0,0,0,5.491,5.5h10.14Zm-10.82-56.39a1.323,1.323,0,1,1,0-2.634H38.281a1.323,1.323,0,0,1,0,2.634Zm0,4.946a1.323,1.323,0,1,1,0-2.634H35.35a1.323,1.323,0,0,1,0,2.634Zm0-9.769a1.323,1.323,0,1,1,0-2.634H38.281a1.323,1.323,0,0,1,0,2.634ZM60.4,80.717v5.7h6.183v-5.6a1.237,1.237,0,0,1,.767-1.237,19.625,19.625,0,0,0,4.8-3.116,19.946,19.946,0,0,0,3.71-4.365,1.312,1.312,0,1,1,2.214,1.41A22.173,22.173,0,0,1,69.2,81.632V95a10.091,10.091,0,1,1-20.182,0V81.632A22.259,22.259,0,0,1,36.747,61.685c0-.556,0-1.125,0-1.694a10.773,10.773,0,0,1,.2-1.682,1.237,1.237,0,0,1,1.484-1.1,1.311,1.311,0,0,1,1.113,1.5c-.074.495-.136.989-.173,1.484s0,.989,0,1.5a19.712,19.712,0,0,0,11.4,17.894,1.311,1.311,0,0,1,.866,1.237v5.54h6.183v-5.7L48.05,61.611l-.4.223a1.311,1.311,0,1,1-1.323-2.251l4.031-2.362a1.311,1.311,0,0,1,1.348,0l3.351,1.954,3.364-1.966a1.311,1.311,0,0,1,1.348,0l3.351,1.954L66.488,57.2a1.311,1.311,0,0,1,1.348,0l4.019,2.35A1.311,1.311,0,1,1,70.519,61.8l-.383-.223ZM51.03,59.867l-.717.42,8.78,17.2,8.78-17.177-.717-.42L63.8,61.858a1.311,1.311,0,0,1-1.348,0l-3.364-1.966-3.351,1.966a1.311,1.311,0,0,1-1.348,0Zm13.331,40.4a7.543,7.543,0,0,0,2.078-3.957H51.747a7.42,7.42,0,0,0,12.614,3.957ZM51.636,88.99v4.687H66.55V88.99ZM42.547,23.226a16.6,16.6,0,0,0-10.029-3.141A16.583,16.583,0,0,0,22.5,23.226a9.163,9.163,0,0,0-4.007,7.185,8.656,8.656,0,0,0,2.585,5.973,14.543,14.543,0,0,0,7.049,3.858,1.237,1.237,0,0,1,.8.507l3.549,4.773,3.561-4.773a1.237,1.237,0,0,1,.742-.495,14.7,14.7,0,0,0,7.111-3.871,8.656,8.656,0,0,0,2.585-5.973,9.163,9.163,0,0,0-3.932-7.185Z" transform="translate(314.697 493.119)" fill="#3b4454"/>
  </g>
</svg>
