<svg xmlns="http://www.w3.org/2000/svg" width="189.257" height="189.257" viewBox="0 0 189.257 189.257">
  <g id="Grupo_91725" data-name="Grupo 91725" transform="translate(-702.879 -458.742)">
    <g id="Grupo_89670" data-name="Grupo 89670" transform="translate(-245.485 -548.186)">
      <rect id="Rectángulo_33010" data-name="Rectángulo 33010" width="130.825" height="130.825" rx="22" transform="translate(950.485 1101.557) rotate(-45)" fill="#fff" stroke="#60c1dd" stroke-width="3"/>
    </g>
    <path id="CF1_ico_excel_copia_9" data-name="CF1_ico excel copia 9" d="M90.86,25.21h0l-.09-.11h0a1.62,1.62,0,0,0-1.1-.47h-13V21.51A1.56,1.56,0,0,0,75.07,20H70.38a1.56,1.56,0,0,0-1.56-1.57H64.14a1.56,1.56,0,0,0-1.56-1.56H57.89a1.56,1.56,0,0,0-1.56-1.56H50.09a1.56,1.56,0,0,0-1.56,1.56v7.81H11.06a1.55,1.55,0,0,0-1.11.46,10.4,10.4,0,0,0,0,14.69,1.55,1.55,0,0,0,1.11.46h13.4l-9.82,9.83a1.55,1.55,0,0,0,0,2.2,1.53,1.53,0,0,0,1.1.46H22V59a1.56,1.56,0,0,0,1,1.44,1.53,1.53,0,0,0,.6.12,1.57,1.57,0,0,0,1.1-.46L35.26,49.47l10.6,10.61a1.57,1.57,0,0,0,1.1.46,1.53,1.53,0,0,0,.6-.12,1.55,1.55,0,0,0,1-1.44V52.73H51l.65.65V63.66a1.56,1.56,0,0,0-1.56,1.56V91.76h3.12v-25H75.07v25h3.12V65.22a1.56,1.56,0,0,0-1.56-1.56H71.94V53.38l4.23-4.23a1.57,1.57,0,0,0,.46-1.1V40.24h13a1.54,1.54,0,0,0,1.1-.47h0l.09-.1h0a10.37,10.37,0,0,0,.04-14.46ZM28.42,27.75H41.84a10.38,10.38,0,0,0,0,9.37H28.42a7.13,7.13,0,0,1,0-9.37ZM11.74,37.12a7.3,7.3,0,0,1,0-9.37H24.67a10.32,10.32,0,0,0,0,9.37ZM25.11,55.21v-4a1.56,1.56,0,0,0-1.56-1.56h-4l7.94-7.94,5.6,5.6Zm23.42-5.6H47a1.56,1.56,0,0,0-1.56,1.56v4l-15-15H41.63l6.9,6.89v2.48Zm0-6.89-2.48-2.48h2.48Zm0-5.6H45.6a7.13,7.13,0,0,1,0-9.37h2.93Zm25,10.28-4.22,4.23a1.57,1.57,0,0,0-.46,1.1V63.66h-14V52.73a1.56,1.56,0,0,0,1.56-1.56,1.53,1.53,0,0,0-.46-1.1l-4.22-4.23V18.38h3.12V29.31h3.12V20H61v9.36h3.12v-7.8h3.12v9.36h3.12v-7.8H73.5ZM86.62,37.12h-10V27.75h10a10.44,10.44,0,0,0,0,9.37Zm3-1a7.3,7.3,0,0,1,0-7.34h0a7.07,7.07,0,0,1,.03,7.32Z" transform="translate(738.087 499.836)" fill="#60c1dd"/>
  </g>
</svg>
