<svg xmlns="http://www.w3.org/2000/svg" width="99.914" height="99.961" viewBox="0 0 99.914 99.961">
  <g id="Grupo_91684" data-name="Grupo 91684" transform="translate(-750.043 -1440)">
    <g id="CF1_ico_excel" data-name="CF1_ico excel" transform="translate(750 1440)">
      <path id="Trazado_113604" data-name="Trazado 113604" d="M50,3a3.63,3.63,0,0,1,2.6,1.08L95.92,47.4a3.67,3.67,0,0,1,0,5.2L52.6,95.92a3.67,3.67,0,0,1-5.2,0L4.08,52.6a3.67,3.67,0,0,1,0-5.2L47.4,4.08A3.63,3.63,0,0,1,50,3" fill="#fff"/>
      <g id="Grupo_89665" data-name="Grupo 89665">
        <path id="Trazado_113605" data-name="Trazado 113605" d="M23.74,37.08H33.3a.91.91,0,1,0,0-1.81H23.74a.91.91,0,1,0,0,1.81Z" fill="#3b4454"/>
        <path id="Trazado_113606" data-name="Trazado 113606" d="M33,41.45H29.2a.91.91,0,1,0,0,1.81H33a.91.91,0,0,0,0-1.81Z" fill="#3b4454"/>
        <path id="Trazado_113607" data-name="Trazado 113607" d="M19.94,47.74H29.2a.91.91,0,0,0,0-1.81H19.94a.91.91,0,1,0,0,1.81Z" fill="#3b4454"/>
        <path id="Trazado_113608" data-name="Trazado 113608" d="M34.21,63.82a.9.9,0,0,0-.91-.9H23.74a.91.91,0,1,0,0,1.81H33.3a.9.9,0,0,0,.91-.91Z" fill="#3b4454"/>
        <path id="Trazado_113609" data-name="Trazado 113609" d="M33,56.74H29.2a.91.91,0,1,0,0,1.81H33a.91.91,0,0,0,0-1.81Z" fill="#3b4454"/>
        <path id="Trazado_113610" data-name="Trazado 113610" d="M30.1,53.17a.9.9,0,0,0-.9-.91H19.94a.91.91,0,1,0,0,1.81H29.2A.9.9,0,0,0,30.1,53.17Z" fill="#3b4454"/>
        <path id="Trazado_113611" data-name="Trazado 113611" d="M57.68,39.09a.9.9,0,0,0,.91-.9V36.8a.91.91,0,1,0-1.81,0v1.39A.9.9,0,0,0,57.68,39.09Z" fill="#3b4454"/>
        <path id="Trazado_113612" data-name="Trazado 113612" d="M67.66,40a.89.89,0,0,0-1.28,0l-1,1a.91.91,0,0,0,1.28,1.29l1-1a.91.91,0,0,0,0-1.29Z" fill="#3b4454"/>
        <path id="Trazado_113613" data-name="Trazado 113613" d="M69.5,49.09a.91.91,0,1,0,0,1.82h1.38a.91.91,0,0,0,0-1.82Z" fill="#3b4454"/>
        <path id="Trazado_113614" data-name="Trazado 113614" d="M66.68,57.71A.91.91,0,0,0,65.4,59l1,1a.89.89,0,0,0,1.28,0,.91.91,0,0,0,0-1.28Z" fill="#3b4454"/>
        <path id="Trazado_113615" data-name="Trazado 113615" d="M56.78,61.81V63.2a.91.91,0,1,0,1.81,0V61.81a.91.91,0,0,0-1.81,0Z" fill="#3b4454"/>
        <path id="Trazado_113616" data-name="Trazado 113616" d="M48.69,57.71l-1,1a.91.91,0,0,0,0,1.28A.89.89,0,0,0,49,60l1-1a.91.91,0,0,0-1.28-1.29Z" fill="#3b4454"/>
        <path id="Trazado_113617" data-name="Trazado 113617" d="M44.49,49.09a.91.91,0,0,0,0,1.82h1.38a.91.91,0,0,0,0-1.82Z" fill="#3b4454"/>
        <path id="Trazado_113618" data-name="Trazado 113618" d="M50,41l-1-1a.89.89,0,0,0-1.28,0,.91.91,0,0,0,0,1.28l1,1A.91.91,0,0,0,50,41Z" fill="#3b4454"/>
        <path id="Trazado_113619" data-name="Trazado 113619" d="M62.56,50a.9.9,0,0,0-.9-.91H58.59V42.36a.91.91,0,1,0-1.81,0V50a.9.9,0,0,0,.9.91h4a.9.9,0,0,0,.88-.91Z" fill="#3b4454"/>
        <path id="Trazado_113620" data-name="Trazado 113620" d="M74.89,49.85a.91.91,0,0,0,.85-1,18.09,18.09,0,1,0-.17,3.82.92.92,0,0,0-.76-1,.91.91,0,0,0-1,.77A16.28,16.28,0,1,1,73.93,49a.91.91,0,0,0,1,.85Z" fill="#3b4454"/>
        <path id="Trazado_113621" data-name="Trazado 113621" d="M57.68,26.72a23.23,23.23,0,0,0-9.19,1.9h-16a.91.91,0,0,0,0,1.81h12.6a23.35,23.35,0,0,0-4.66,4,.91.91,0,1,0,1.35,1.22,21.36,21.36,0,1,1-2.13,2.77.91.91,0,0,0-.27-1.26.9.9,0,0,0-1.25.27,23.27,23.27,0,0,0,7,32.19H32.48a.91.91,0,0,0,0,1.81h16a23.28,23.28,0,1,0,9.2-44.66Z" fill="#3b4454"/>
      </g>
      <path id="Trazado_113622" data-name="Trazado 113622" d="M50,3a3.63,3.63,0,0,1,2.6,1.08L95.92,47.4a3.67,3.67,0,0,1,0,5.2L52.6,95.92a3.67,3.67,0,0,1-5.2,0L4.08,52.6a3.67,3.67,0,0,1,0-5.2L47.4,4.08A3.63,3.63,0,0,1,50,3m0-3a6.62,6.62,0,0,0-4.72,2L2,45.28a6.67,6.67,0,0,0,0,9.44L45.28,98a6.66,6.66,0,0,0,9.44,0L98,54.72a6.67,6.67,0,0,0,0-9.44L54.72,2A6.62,6.62,0,0,0,50,0Z" fill="#3b4454"/>
    </g>
  </g>
</svg>
