<svg xmlns="http://www.w3.org/2000/svg" width="189.257" height="189.258" viewBox="0 0 189.257 189.258">
  <g id="Grupo_91723" data-name="Grupo 91723" transform="translate(-1122.879 -9788.879)">
    <g id="Grupo_88937" data-name="Grupo 88937" transform="translate(417.507 8791)">
      <rect id="Rect치ngulo_33009" data-name="Rect치ngulo 33009" width="130.825" height="130.825" rx="22" transform="translate(707.493 1092.508) rotate(-45)" fill="#fff" stroke="#3b4453" stroke-width="3"/>
    </g>
    <g id="CF1_ico_3" data-name="CF1_ico 3" transform="translate(1168 9824)">
      <g id="Grupo_89658" data-name="Grupo 89658">
        <path id="Trazado_113543" data-name="Trazado 113543" d="M87.32,87.15V72.49A1.33,1.33,0,0,0,86,71.15H84.66v-4a1.34,1.34,0,0,0-1.33-1.33H81a10.66,10.66,0,1,0-15-1,9.439,9.439,0,0,0,1,1H64.66a1.34,1.34,0,0,0-1.33,1.33v5.34a1.34,1.34,0,0,0,1.33,1.33H66V87.15H60.66V84.48H62a1.33,1.33,0,0,0,1.33-1.33V77.82A1.33,1.33,0,0,0,62,76.49H60.66V67.15a1.33,1.33,0,0,0-1.33-1.33H58V63.16h1.33a1.33,1.33,0,0,0,1.33-1.34V56.49a1.32,1.32,0,0,0-1.33-1.33H58V52.49h1.33a1.33,1.33,0,0,0,1.33-1.33V45.83a1.33,1.33,0,0,0-1.33-1.34h-8V39.16h1.34A14.66,14.66,0,0,0,67.33,24.5,1.33,1.33,0,0,0,66,23.17H63.33a14.65,14.65,0,0,0-12,6.26v-7.6h1.34A10.66,10.66,0,0,0,63.33,11.17,1.33,1.33,0,0,0,62,9.84H59.33A10.651,10.651,0,0,0,50,15.352,10.65,10.65,0,0,0,40.67,9.84H38a1.33,1.33,0,0,0-1.33,1.33A10.66,10.66,0,0,0,47.33,21.83h1.34v7.6a14.65,14.65,0,0,0-12-6.26H34a1.33,1.33,0,0,0-1.33,1.33A14.66,14.66,0,0,0,47.33,39.16h1.34v5.33h-8a1.33,1.33,0,0,0-1.33,1.34v4H38a1.33,1.33,0,0,0-1.33,1.33v5.33A1.33,1.33,0,0,0,38,57.82h1.34v2.67H38a1.34,1.34,0,0,0-1.33,1.33v5.33A1.34,1.34,0,0,0,38,68.49h1.34v9.33a1.33,1.33,0,0,0,1.33,1.33H42v2.67H40.67a1.32,1.32,0,0,0-1.33,1.33v4H36.67v-4a1.33,1.33,0,0,0-1.33-1.33H34V79.15h1.34a1.34,1.34,0,0,0,1.33-1.33V72.49a1.34,1.34,0,0,0-1.33-1.34H34V61.82a1.33,1.33,0,0,0-1.33-1.33H14a1.33,1.33,0,0,0-1.33,1.33V72.49A1.33,1.33,0,0,0,14,73.82h1.33v2.67H14a1.32,1.32,0,0,0-1.33,1.33v5.33A1.32,1.32,0,0,0,14,84.48h1.33v2.67H10v2.67H90V87.15Zm-24-61.32h1.25A12,12,0,0,1,52.67,36.5H51.41A12,12,0,0,1,63.33,25.83Zm-4-13.33h1.23a8,8,0,0,1-7.89,6.67H51.44a8,8,0,0,1,7.89-6.67Zm-12,6.67A8,8,0,0,1,39.43,12.5h1.23a8,8,0,0,1,7.89,6.671Zm0,17.33a12,12,0,0,1-11.9-10.67h1.25A12,12,0,0,1,48.59,36.5ZM34,73.82v2.67H18V73.82ZM15.34,63.16h16v2.66h-16Zm0,5.33h16v2.66h-16Zm0,10.66h16v2.67h-16Zm18.66,8H18V84.48H34Zm26.66-8v2.67h-16V79.15ZM58,73.82v2.67H42V73.82ZM42,71.15V68.49H58v2.66ZM58,60.49H42V57.82H58ZM42,47.16H58v2.67H42Zm-2.66,5.33h16v2.67h-16Zm0,13.33V63.16h16v2.66ZM58,87.15H42V84.48H58Zm8-29.33a8,8,0,1,1,8,8A8,8,0,0,1,66,57.82Zm0,10.67H82v2.66H66ZM84.66,87.15h-16V84.48h16Zm0-5.33h-16V79.15h16Zm0-5.33h-16V73.82h16Z" fill="#3b4454"/>
        <path id="Trazado_113544" data-name="Trazado 113544" d="M76.66,57.82A2.66,2.66,0,0,1,74,60.49v2.67a5.34,5.34,0,0,0,5.34-5.34Z" fill="#3b4454"/>
        <path id="Trazado_113545" data-name="Trazado 113545" d="M68.66,57.82h2.67A2.66,2.66,0,0,1,74,55.16V52.49a5.33,5.33,0,0,0-5.34,5.33Z" fill="#3b4454"/>
        <path id="Trazado_113546" data-name="Trazado 113546" d="M82.21,17.83A5.15,5.15,0,0,1,78,13.62a1.33,1.33,0,1,0-2.66,0,5.15,5.15,0,0,1-4.22,4.21,1.34,1.34,0,0,0,0,2.67,5.17,5.17,0,0,1,4.22,4.21,1.33,1.33,0,0,0,2.66,0,5.17,5.17,0,0,1,4.22-4.21,1.34,1.34,0,0,0,0-2.67Zm-5.55,3.24a7.5,7.5,0,0,0-1.91-1.9,7.7,7.7,0,0,0,1.91-1.91,7.7,7.7,0,0,0,1.91,1.91,7.5,7.5,0,0,0-1.91,1.9Z" fill="#3b4454"/>
        <path id="Trazado_113547" data-name="Trazado 113547" d="M28.89,47.16A5.17,5.17,0,0,1,24.67,43,1.335,1.335,0,0,0,22,43a5.17,5.17,0,0,1-4.22,4.21,1.34,1.34,0,0,0,0,2.67A5.15,5.15,0,0,1,22,54a1.33,1.33,0,1,0,2.66,0,5.15,5.15,0,0,1,4.22-4.21,1.34,1.34,0,0,0,0-2.67ZM23.34,50.4a7.7,7.7,0,0,0-1.91-1.91,7.5,7.5,0,0,0,1.91-1.9,7.5,7.5,0,0,0,1.91,1.9,7.7,7.7,0,0,0-1.91,1.91Z" fill="#3b4454"/>
        <path id="Trazado_113548" data-name="Trazado 113548" d="M85.99,41.83v-4H83.33v4h-4v2.66h4v4h2.66v-4h4V41.83Z" fill="#3b4454"/>
        <path id="Trazado_113549" data-name="Trazado 113549" d="M31.34,33.83V32.5H28.67v1.33a8,8,0,0,0,8,8V39.16a5.33,5.33,0,0,1-5.33-5.33Z" fill="#3b4454"/>
      </g>
      <rect id="Rect치ngulo_35557" data-name="Rect치ngulo 35557" width="100" height="100" fill="none"/>
    </g>
  </g>
</svg>
