<svg xmlns="http://www.w3.org/2000/svg" width="189.257" height="189.258" viewBox="0 0 189.257 189.258">
  <g id="Grupo_91744" data-name="Grupo 91744" transform="translate(-702.879 -6532.582)">
    <g id="Grupo_89875" data-name="Grupo 89875" transform="translate(-245.485 5525.654)">
      <rect id="Rectángulo_33010" data-name="Rectángulo 33010" width="130.825" height="130.825" rx="22" transform="translate(950.485 1101.557) rotate(-45)" fill="#fff" stroke="#60c1dd" stroke-width="3"/>
    </g>
    <g id="outline" transform="translate(749.65 6580.83)">
      <circle id="Elipse_4097" data-name="Elipse 4097" cx="1.4" cy="1.4" r="1.4" transform="translate(37.79 22.13)" fill="#60c1dd"/>
      <path id="Trazado_119896" data-name="Trazado 119896" d="M60.13,27.72h7a1.4,1.4,0,0,0,1.4-1.4v-7a1.4,1.4,0,0,0-1.4-1.4h-7a1.4,1.4,0,0,0-1.4,1.4v7a1.4,1.4,0,0,0,1.4,1.4Zm1.4-7h4.19v4.19H61.53Z" fill="#60c1dd"/>
      <path id="Trazado_119897" data-name="Trazado 119897" d="M60.13,40.28h7a1.4,1.4,0,0,0,1.4-1.39v-7a1.4,1.4,0,0,0-1.4-1.39h-7a1.4,1.4,0,0,0-1.4,1.39v7a1.4,1.4,0,0,0,1.4,1.39Zm1.4-7h4.19v4.19H61.53Z" fill="#60c1dd"/>
      <path id="Trazado_119898" data-name="Trazado 119898" d="M60.13,52.85h7a1.4,1.4,0,0,0,1.4-1.4v-7a1.4,1.4,0,0,0-1.4-1.39h-7a1.4,1.4,0,0,0-1.4,1.39v7a1.4,1.4,0,0,0,1.4,1.4Zm1.4-7h4.19v4.19H61.53Z" fill="#60c1dd"/>
      <rect id="Rectángulo_35707" data-name="Rectángulo 35707" width="2.79" height="2.79" transform="translate(39.19 72.4)" fill="#60c1dd"/>
      <rect id="Rectángulo_35708" data-name="Rectángulo 35708" width="2.79" height="2.79" transform="translate(33.6 72.4)" fill="#60c1dd"/>
      <rect id="Rectángulo_35709" data-name="Rectángulo 35709" width="2.79" height="2.79" transform="translate(28.02 72.4)" fill="#60c1dd"/>
      <path id="Trazado_119899" data-name="Trazado 119899" d="M47.56,58.43H22.43a8.38,8.38,0,1,0,0,16.76h2.79V72.4H22.43a5.59,5.59,0,0,1,0-11.17H47.56a8.38,8.38,0,0,0,0-16.76H37.79V41.68a1.4,1.4,0,0,0-1.4-1.4H25.22a1.4,1.4,0,0,0-1.39,1.4v2.79h-1.4a5.59,5.59,0,0,1,0-11.17H47.56a8.38,8.38,0,0,0,8.38-8.38V16.55H53.15v8.37a5.59,5.59,0,0,1-5.59,5.59h-5l1.26-1.26a8,8,0,0,0,2.35-5.68h0a7,7,0,0,0-14,0h0a8,8,0,0,0,2.35,5.68l1.26,1.26H22.43a8.38,8.38,0,1,0,0,16.75h1.4v4.19a1.4,1.4,0,0,0,1.39,1.4h2.05l2.38,3.57a1.39,1.39,0,0,0,1.93.38,1.29,1.29,0,0,0,.39-.38l2.38-3.57h2a1.4,1.4,0,0,0,1.4-1.4V47.26h9.77a5.59,5.59,0,1,1,0,11.17ZM35,23.53a4.19,4.19,0,0,1,8.38,0h0a5.18,5.18,0,0,1-1.54,3.7l-2.65,2.66-2.66-2.66A5.17,5.17,0,0,1,35,23.57Zm0,26.53H33.6a1.38,1.38,0,0,0-1.16.62l-1.63,2.44-1.63-2.44A1.4,1.4,0,0,0,28,50.06H26.6v-7H35Z" fill="#60c1dd"/>
      <path id="Trazado_119900" data-name="Trazado 119900" d="M86.66,8.17H82.47a1.39,1.39,0,0,0-1.39,1.39V11H15.45a7,7,0,0,0-7,7V85a7,7,0,0,0,7,7H21a1.4,1.4,0,0,0,1.4-1.4V80.78H48.82v.11h0l-2.51,9a1.4,1.4,0,0,0,1.85,1.68l8.73-3.41h0l.13-.06h0l.15-.09h0a.81.81,0,0,0,.1-.09h.05l6.47-7.16H86.66a5.61,5.61,0,0,0,5.59-5.59V13.75a5.58,5.58,0,0,0-5.59-5.58ZM83.87,11h2.79a2.78,2.78,0,0,1,2.63,1.87,2.66,2.66,0,0,1,.16.92V70.36a5.47,5.47,0,0,0-2.79-.76H83.87v-12a5.48,5.48,0,0,0,0-2.67ZM56.19,85l-1-.94L72.93,64.41l1,.94ZM69.82,61.6l1,.94L53.08,82.23l-1-.94Zm6,1.67-4.15-3.74,1.88-2.07,4.14,3.74Zm5.4-7.05a2.8,2.8,0,0,1-.72,1.87l-.94,1L77.7,57.41l-2.28-2.07.93-1a2.8,2.8,0,0,1,4.87,1.87Zm-70-38.28a4.2,4.2,0,0,1,4.19-4.19H81.08v7H72.7a1.4,1.4,0,1,0,0,2.8h8.38V34.7H72.7a1.4,1.4,0,1,0,0,2.79h8.38v9.77H72.7a1.4,1.4,0,0,0,0,2.8h8.38v1.23a5.59,5.59,0,0,0-6.78,1.19l-1.87,2.07-3.74,4.14h0L54.13,74.82a7.19,7.19,0,0,0-5.38-2.42h-4v2.79h4a4.45,4.45,0,0,1,3.49,1.72l-1,1.07H15.45a7,7,0,0,0-4.19,1.4ZM19.6,89.15H15.45a4.19,4.19,0,1,1,0-8.37h4.19Zm30-1.05,1.15-4.16,1.88,1.7,1,.89ZM86.66,78H66.32L77,66.18,80.72,62h0l.36-.4V71a1.4,1.4,0,0,0,1.39,1.4h4.19a2.79,2.79,0,0,1,0,5.58Z" fill="#60c1dd"/>
    </g>
  </g>
</svg>
