<svg xmlns="http://www.w3.org/2000/svg" width="500.644" height="478.952" viewBox="0 0 500.644 478.952">
  <g id="Grupo_91684" data-name="Grupo 91684" transform="translate(-205 -934.048)">
    <g id="Grupo_91683" data-name="Grupo 91683" transform="translate(205.644 908.833)">
      <rect id="Rectángulo_35712" data-name="Rectángulo 35712" width="338.67" height="338.67" rx="30.3" transform="translate(-0.644 264.691) rotate(-45)" fill="#60c1dd"/>
      <path id="Trazado_119907" data-name="Trazado 119907" d="M490.837,244.363,294.212,47.738a31.234,31.234,0,0,0-22.164-9.163v2.068h.007A29.174,29.174,0,0,1,292.749,49.2L489.374,245.826a29.3,29.3,0,0,1,0,41.388L292.749,483.838a29.072,29.072,0,0,1-20.694,8.572h-.007v2.069h.007a31.13,31.13,0,0,0,22.157-9.178L490.837,288.677A31.371,31.371,0,0,0,490.837,244.363Z" fill="#2e98a5"/>
      <path id="Trazado_119908" data-name="Trazado 119908" d="M272.048,492.41a29.076,29.076,0,0,1-20.687-8.572L54.736,287.214a29.267,29.267,0,0,1,0-41.388L251.361,49.2a29.174,29.174,0,0,1,20.687-8.558V38.575a31.233,31.233,0,0,0-22.15,9.163L53.273,244.363a31.334,31.334,0,0,0,0,44.314L249.9,485.3a31.129,31.129,0,0,0,22.15,9.177Z" fill="#fff"/>
      <rect id="Rectángulo_35713" data-name="Rectángulo 35713" width="162.12" height="162.12" rx="14.505" transform="translate(54.924 55.027)" fill="#fff" stroke="#4d5057" stroke-miterlimit="10" stroke-width="2"/>
      <rect id="Rectángulo_35714" data-name="Rectángulo 35714" width="162.12" height="162.12" rx="14.505" transform="translate(289.49 55.027)" fill="#fff" stroke="#80cde4" stroke-miterlimit="10" stroke-width="2"/>
      <rect id="Rectángulo_35715" data-name="Rectángulo 35715" width="162.12" height="162.12" rx="14.505" transform="translate(54.924 291.405)" fill="#fff" stroke="#30616f" stroke-miterlimit="10" stroke-width="2"/>
      <rect id="Rectángulo_35716" data-name="Rectángulo 35716" width="162.12" height="162.12" rx="14.505" transform="translate(289.49 291.405)" fill="#fff" stroke="#7faccb" stroke-miterlimit="10" stroke-width="2"/>
      <path id="Trazado_119945" data-name="Trazado 119945" d="M53.623,17.321a3.9,3.9,0,0,1-1.815,1.393,7.331,7.331,0,0,1-2.711.461,5.258,5.258,0,0,1-2.777-.734,4.889,4.889,0,0,1-1.876-2.087,7.21,7.21,0,0,1-.681-3.138V12.1a6.73,6.73,0,0,1,1.349-4.482A4.7,4.7,0,0,1,48.9,6.027a4.856,4.856,0,0,1,3.226,1.024,4.461,4.461,0,0,1,1.494,2.9H51.935a2.79,2.79,0,0,0-3.023-2.549A2.987,2.987,0,0,0,46.341,8.6a5.82,5.82,0,0,0-.883,3.453V13.1a5.454,5.454,0,0,0,.984,3.426A3.191,3.191,0,0,0,49.105,17.8a5.882,5.882,0,0,0,1.661-.21,2.569,2.569,0,0,0,1.178-.71V14.008H48.982v-1.38h4.641ZM62.051,19a3.416,3.416,0,0,1-.229-1,3.628,3.628,0,0,1-2.707,1.178,3.357,3.357,0,0,1-2.307-.8,2.573,2.573,0,0,1-.9-2.017,2.688,2.688,0,0,1,1.129-2.307,5.325,5.325,0,0,1,3.177-.822H61.8v-.747a1.826,1.826,0,0,0-.51-1.358,2.049,2.049,0,0,0-1.5-.505,2.371,2.371,0,0,0-1.459.439,1.3,1.3,0,0,0-.589,1.063H56.1a2.244,2.244,0,0,1,.505-1.375A3.449,3.449,0,0,1,57.978,9.7a4.613,4.613,0,0,1,1.9-.387,3.759,3.759,0,0,1,2.575.822,2.964,2.964,0,0,1,.967,2.263v4.377a5.351,5.351,0,0,0,.334,2.083V19Zm-2.7-1.239a2.858,2.858,0,0,0,1.45-.4,2.392,2.392,0,0,0,.993-1.028V14.386H60.522q-2.988,0-2.988,1.749a1.48,1.48,0,0,0,.51,1.2A1.959,1.959,0,0,0,59.353,17.761Zm12.155-1.283a1.2,1.2,0,0,0-.5-1.024,4.78,4.78,0,0,0-1.731-.628,8.186,8.186,0,0,1-1.96-.633,2.788,2.788,0,0,1-1.072-.879A2.1,2.1,0,0,1,65.9,12.1a2.467,2.467,0,0,1,.989-1.978,3.861,3.861,0,0,1,2.527-.809,3.974,3.974,0,0,1,2.624.835,2.652,2.652,0,0,1,1.006,2.136H71.412a1.468,1.468,0,0,0-.567-1.151,2.124,2.124,0,0,0-1.428-.483,2.223,2.223,0,0,0-1.389.387,1.217,1.217,0,0,0-.5,1.011.986.986,0,0,0,.466.888,5.731,5.731,0,0,0,1.683.571,8.77,8.77,0,0,1,1.973.65,2.878,2.878,0,0,1,1.121.91,2.237,2.237,0,0,1,.365,1.3,2.434,2.434,0,0,1-1.02,2.043,4.277,4.277,0,0,1-2.646.769,4.789,4.789,0,0,1-2.021-.4,3.288,3.288,0,0,1-1.375-1.129,2.722,2.722,0,0,1-.5-1.569H67.2a1.683,1.683,0,0,0,.655,1.3,2.54,2.54,0,0,0,1.613.479,2.622,2.622,0,0,0,1.481-.374A1.148,1.148,0,0,0,71.508,16.478Zm5.95-9.29v2.3h1.775v1.257H77.459v5.9a1.32,1.32,0,0,0,.237.858,1,1,0,0,0,.809.286,3.937,3.937,0,0,0,.773-.105V19a4.742,4.742,0,0,1-1.248.175,2.025,2.025,0,0,1-1.644-.659,2.832,2.832,0,0,1-.554-1.872v-5.9H74.1V9.49h1.731v-2.3Zm3.067,6.97a5.617,5.617,0,0,1,.549-2.514A4.1,4.1,0,0,1,82.6,9.921a4.163,4.163,0,0,1,2.237-.606,4.01,4.01,0,0,1,3.142,1.345,5.174,5.174,0,0,1,1.2,3.577v.114a5.666,5.666,0,0,1-.532,2.492,4.038,4.038,0,0,1-1.521,1.718,4.211,4.211,0,0,1-2.272.615,4,4,0,0,1-3.133-1.345,5.147,5.147,0,0,1-1.2-3.56Zm1.635.193a4.068,4.068,0,0,0,.734,2.54,2.487,2.487,0,0,0,3.933-.013,4.449,4.449,0,0,0,.729-2.72,4.061,4.061,0,0,0-.743-2.536,2.361,2.361,0,0,0-1.973-.971,2.335,2.335,0,0,0-1.942.958A4.416,4.416,0,0,0,82.161,14.351Zm14.6,2.127a1.2,1.2,0,0,0-.5-1.024,4.78,4.78,0,0,0-1.731-.628,8.186,8.186,0,0,1-1.96-.633,2.788,2.788,0,0,1-1.072-.879,2.1,2.1,0,0,1-.347-1.213,2.467,2.467,0,0,1,.989-1.978,3.861,3.861,0,0,1,2.527-.809,3.974,3.974,0,0,1,2.624.835A2.652,2.652,0,0,1,98.3,12.285H96.663a1.468,1.468,0,0,0-.567-1.151,2.124,2.124,0,0,0-1.428-.483,2.223,2.223,0,0,0-1.389.387,1.217,1.217,0,0,0-.5,1.011.986.986,0,0,0,.466.888,5.731,5.731,0,0,0,1.683.571,8.77,8.77,0,0,1,1.973.65,2.878,2.878,0,0,1,1.121.91,2.237,2.237,0,0,1,.365,1.3,2.434,2.434,0,0,1-1.02,2.043,4.277,4.277,0,0,1-2.646.769,4.789,4.789,0,0,1-2.021-.4,3.288,3.288,0,0,1-1.375-1.129,2.722,2.722,0,0,1-.5-1.569h1.626a1.683,1.683,0,0,0,.655,1.3,2.54,2.54,0,0,0,1.613.479,2.622,2.622,0,0,0,1.481-.374A1.148,1.148,0,0,0,96.759,16.478ZM38.233,39.66a3.454,3.454,0,0,1-2.786,1.116,2.956,2.956,0,0,1-2.316-.883,3.823,3.823,0,0,1-.8-2.615V31.09h1.626v6.144q0,2.162,1.758,2.162a2.434,2.434,0,0,0,2.479-1.389V31.09h1.626V40.6H38.268Zm8.648-7.11a4.873,4.873,0,0,0-.8-.062,2.143,2.143,0,0,0-2.171,1.362V40.6H42.285V31.09h1.582l.026,1.1a2.532,2.532,0,0,1,2.268-1.274,1.661,1.661,0,0,1,.721.123Zm1.107,3.217a5.589,5.589,0,0,1,1.028-3.538,3.545,3.545,0,0,1,5.44-.083l.079-1.055h1.485v9.281a3.869,3.869,0,0,1-1.094,2.909,4.038,4.038,0,0,1-2.94,1.063,4.891,4.891,0,0,1-2.013-.439,3.465,3.465,0,0,1-1.5-1.2l.844-.976a3.18,3.18,0,0,0,2.558,1.292,2.491,2.491,0,0,0,1.85-.668,2.553,2.553,0,0,0,.664-1.881v-.817a3.342,3.342,0,0,1-2.663,1.125,3.248,3.248,0,0,1-2.7-1.345A5.876,5.876,0,0,1,47.989,35.766Zm1.635.185a4.264,4.264,0,0,0,.659,2.527,2.142,2.142,0,0,0,1.846.918A2.382,2.382,0,0,0,54.387,38V33.657a2.41,2.41,0,0,0-2.241-1.362,2.161,2.161,0,0,0-1.854.923A4.644,4.644,0,0,0,49.624,35.951Zm12.8,4.825a4.155,4.155,0,0,1-3.146-1.27,4.714,4.714,0,0,1-1.213-3.4v-.3a5.707,5.707,0,0,1,.541-2.527,4.217,4.217,0,0,1,1.512-1.74,3.8,3.8,0,0,1,2.1-.628A3.562,3.562,0,0,1,65.1,32.136a5.289,5.289,0,0,1,1.028,3.5v.677H59.687a3.38,3.38,0,0,0,.822,2.272,2.583,2.583,0,0,0,2,.866,2.832,2.832,0,0,0,1.459-.352,3.666,3.666,0,0,0,1.046-.932l.993.773A3.993,3.993,0,0,1,62.421,40.776Zm-.2-8.525a2.169,2.169,0,0,0-1.652.716,3.482,3.482,0,0,0-.826,2.008H64.5v-.123a3.1,3.1,0,0,0-.668-1.92A2.042,2.042,0,0,0,62.218,32.25Zm7.33-1.16.053,1.2a3.465,3.465,0,0,1,2.848-1.371q3.015,0,3.041,3.4V40.6H73.864V34.307a2.189,2.189,0,0,0-.47-1.521,1.884,1.884,0,0,0-1.437-.492,2.347,2.347,0,0,0-1.389.422,2.865,2.865,0,0,0-.932,1.107V40.6H68.01V31.09Zm10.6-2.3v2.3h1.775v1.257H80.148v5.9a1.32,1.32,0,0,0,.237.858,1,1,0,0,0,.809.286,3.937,3.937,0,0,0,.773-.105V40.6a4.742,4.742,0,0,1-1.248.175,2.025,2.025,0,0,1-1.644-.659,2.832,2.832,0,0,1-.554-1.872v-5.9H76.791V31.09h1.731v-2.3Zm7.62,11.988a4.155,4.155,0,0,1-3.146-1.27,4.714,4.714,0,0,1-1.213-3.4v-.3a5.707,5.707,0,0,1,.541-2.527,4.217,4.217,0,0,1,1.512-1.74,3.8,3.8,0,0,1,2.1-.628,3.562,3.562,0,0,1,2.883,1.222,5.289,5.289,0,0,1,1.028,3.5v.677H85.035a3.38,3.38,0,0,0,.822,2.272,2.583,2.583,0,0,0,2,.866,2.832,2.832,0,0,0,1.459-.352,3.666,3.666,0,0,0,1.046-.932l.993.773A3.993,3.993,0,0,1,87.768,40.776Zm-.2-8.525a2.169,2.169,0,0,0-1.652.716,3.482,3.482,0,0,0-.826,2.008h4.764v-.123a3.1,3.1,0,0,0-.668-1.92A2.042,2.042,0,0,0,87.566,32.25ZM98.9,38.078a1.2,1.2,0,0,0-.5-1.024,4.78,4.78,0,0,0-1.731-.628,8.186,8.186,0,0,1-1.96-.633,2.788,2.788,0,0,1-1.072-.879,2.1,2.1,0,0,1-.347-1.213,2.467,2.467,0,0,1,.989-1.978,3.861,3.861,0,0,1,2.527-.809,3.974,3.974,0,0,1,2.624.835,2.652,2.652,0,0,1,1.006,2.136H98.8a1.468,1.468,0,0,0-.567-1.151A2.124,2.124,0,0,0,96.8,32.25a2.223,2.223,0,0,0-1.389.387,1.217,1.217,0,0,0-.5,1.011.986.986,0,0,0,.466.888,5.731,5.731,0,0,0,1.683.571,8.77,8.77,0,0,1,1.973.65,2.878,2.878,0,0,1,1.121.91,2.237,2.237,0,0,1,.365,1.3,2.434,2.434,0,0,1-1.02,2.043,4.277,4.277,0,0,1-2.646.769,4.789,4.789,0,0,1-2.021-.4,3.288,3.288,0,0,1-1.375-1.129,2.722,2.722,0,0,1-.5-1.569h1.626a1.683,1.683,0,0,0,.655,1.3,2.54,2.54,0,0,0,1.613.479,2.622,2.622,0,0,0,1.481-.374A1.148,1.148,0,0,0,98.9,38.078Zm11.584-2.25H106.19V34.5h4.289ZM25.309,62.2H23.683V52.69h1.626ZM23.551,50.168a.971.971,0,0,1,.242-.668.907.907,0,0,1,.716-.272.922.922,0,0,1,.721.272.96.96,0,0,1,.246.668.929.929,0,0,1-.246.659.938.938,0,0,1-.721.264.924.924,0,0,1-.716-.264A.938.938,0,0,1,23.551,50.168ZM29.44,52.69l.044,1.055a3.512,3.512,0,0,1,2.821-1.23,2.719,2.719,0,0,1,2.716,1.529,3.6,3.6,0,0,1,1.235-1.107,3.647,3.647,0,0,1,1.8-.422q3.129,0,3.182,3.313V62.2H39.609V55.925a2.184,2.184,0,0,0-.466-1.525,2.051,2.051,0,0,0-1.564-.505,2.156,2.156,0,0,0-1.5.541,2.193,2.193,0,0,0-.694,1.455V62.2H33.746V55.969a1.814,1.814,0,0,0-2.03-2.074,2.175,2.175,0,0,0-2.188,1.362V62.2H27.9V52.69Zm22.28,4.86a5.694,5.694,0,0,1-.993,3.5,3.183,3.183,0,0,1-2.689,1.327,3.488,3.488,0,0,1-2.725-1.1v4.579H43.687V52.69h1.485l.079,1.055a3.35,3.35,0,0,1,2.76-1.23,3.243,3.243,0,0,1,2.711,1.292,5.756,5.756,0,0,1,1,3.595Zm-1.626-.185a4.2,4.2,0,0,0-.686-2.54,2.208,2.208,0,0,0-1.881-.932,2.39,2.39,0,0,0-2.215,1.31v4.544a2.4,2.4,0,0,0,2.232,1.3,2.2,2.2,0,0,0,1.859-.927A4.587,4.587,0,0,0,50.094,57.366Zm3.261-.009a5.617,5.617,0,0,1,.549-2.514,4.1,4.1,0,0,1,1.529-1.723,4.163,4.163,0,0,1,2.237-.606,4.01,4.01,0,0,1,3.142,1.345,5.174,5.174,0,0,1,1.2,3.577v.114a5.666,5.666,0,0,1-.532,2.492,4.038,4.038,0,0,1-1.521,1.718,4.211,4.211,0,0,1-2.272.615,4,4,0,0,1-3.133-1.345,5.147,5.147,0,0,1-1.2-3.56Zm1.635.193a4.068,4.068,0,0,0,.734,2.54,2.487,2.487,0,0,0,3.933-.013,4.449,4.449,0,0,0,.729-2.72,4.061,4.061,0,0,0-.743-2.536,2.361,2.361,0,0,0-1.973-.971,2.335,2.335,0,0,0-1.942.958A4.416,4.416,0,0,0,54.989,57.551Zm13.658-3.4a4.873,4.873,0,0,0-.8-.062,2.143,2.143,0,0,0-2.171,1.362V62.2H64.051V52.69h1.582l.026,1.1a2.532,2.532,0,0,1,2.268-1.274,1.661,1.661,0,0,1,.721.123Zm4.14-3.762v2.3h1.775v1.257H72.787v5.9a1.32,1.32,0,0,0,.237.858,1,1,0,0,0,.809.286,3.937,3.937,0,0,0,.773-.105V62.2a4.742,4.742,0,0,1-1.248.175,2.025,2.025,0,0,1-1.644-.659,2.832,2.832,0,0,1-.554-1.872v-5.9H69.43V52.69h1.731v-2.3ZM82.332,62.2a3.416,3.416,0,0,1-.229-1A3.628,3.628,0,0,1,79.4,62.376a3.357,3.357,0,0,1-2.307-.8,2.573,2.573,0,0,1-.9-2.017,2.688,2.688,0,0,1,1.129-2.307,5.325,5.325,0,0,1,3.177-.822h1.582v-.747a1.826,1.826,0,0,0-.51-1.358,2.049,2.049,0,0,0-1.5-.505,2.371,2.371,0,0,0-1.459.439,1.3,1.3,0,0,0-.589,1.063H76.382a2.244,2.244,0,0,1,.505-1.375,3.449,3.449,0,0,1,1.371-1.05,4.613,4.613,0,0,1,1.9-.387,3.759,3.759,0,0,1,2.575.822A2.964,2.964,0,0,1,83.7,55.6v4.377a5.351,5.351,0,0,0,.334,2.083V62.2Zm-2.7-1.239a2.858,2.858,0,0,0,1.45-.4,2.392,2.392,0,0,0,.993-1.028V57.586H80.8q-2.988,0-2.988,1.749a1.48,1.48,0,0,0,.51,1.2A1.959,1.959,0,0,0,79.634,60.961ZM87.79,52.69l.053,1.2a3.465,3.465,0,0,1,2.848-1.371q3.015,0,3.041,3.4V62.2H92.106V55.907a2.189,2.189,0,0,0-.47-1.521,1.884,1.884,0,0,0-1.437-.492,2.347,2.347,0,0,0-1.389.422,2.865,2.865,0,0,0-.932,1.107V62.2H86.252V52.69Zm10.6-2.3v2.3h1.775v1.257H98.39v5.9a1.32,1.32,0,0,0,.237.858,1,1,0,0,0,.809.286,3.937,3.937,0,0,0,.773-.105V62.2a4.742,4.742,0,0,1-1.248.175,2.025,2.025,0,0,1-1.644-.659,2.832,2.832,0,0,1-.554-1.872v-5.9H95.032V52.69h1.731v-2.3Zm7.62,11.988a4.155,4.155,0,0,1-3.146-1.27,4.714,4.714,0,0,1-1.213-3.4v-.3a5.707,5.707,0,0,1,.541-2.527,4.217,4.217,0,0,1,1.512-1.74,3.8,3.8,0,0,1,2.1-.628,3.562,3.562,0,0,1,2.883,1.222,5.289,5.289,0,0,1,1.028,3.5v.677h-6.442a3.38,3.38,0,0,0,.822,2.272,2.583,2.583,0,0,0,2,.866,2.832,2.832,0,0,0,1.459-.352,3.666,3.666,0,0,0,1.046-.932l.993.773A3.993,3.993,0,0,1,106.01,62.376Zm-.2-8.525a2.169,2.169,0,0,0-1.652.716,3.482,3.482,0,0,0-.826,2.008h4.764v-.123a3.1,3.1,0,0,0-.668-1.92A2.042,2.042,0,0,0,105.808,53.85Zm11.329,5.827a1.2,1.2,0,0,0-.5-1.024,4.78,4.78,0,0,0-1.731-.628,8.186,8.186,0,0,1-1.96-.633,2.788,2.788,0,0,1-1.072-.879,2.1,2.1,0,0,1-.347-1.213,2.467,2.467,0,0,1,.989-1.978,3.861,3.861,0,0,1,2.527-.809,3.974,3.974,0,0,1,2.624.835,2.652,2.652,0,0,1,1.006,2.136H117.04a1.468,1.468,0,0,0-.567-1.151,2.124,2.124,0,0,0-1.428-.483,2.223,2.223,0,0,0-1.389.387,1.217,1.217,0,0,0-.5,1.011.986.986,0,0,0,.466.888,5.731,5.731,0,0,0,1.683.571,8.77,8.77,0,0,1,1.973.65,2.878,2.878,0,0,1,1.121.91,2.237,2.237,0,0,1,.365,1.3,2.434,2.434,0,0,1-1.02,2.043,4.277,4.277,0,0,1-2.646.769,4.789,4.789,0,0,1-2.021-.4,3.288,3.288,0,0,1-1.375-1.129,2.722,2.722,0,0,1-.5-1.569h1.626a1.683,1.683,0,0,0,.655,1.3,2.54,2.54,0,0,0,1.613.479,2.622,2.622,0,0,0,1.481-.374A1.148,1.148,0,0,0,117.137,59.678Z" transform="translate(65.003 130.587)" fill="#12263f"/>
      <path id="Trazado_119946" data-name="Trazado 119946" d="M53.623,17.321a3.9,3.9,0,0,1-1.815,1.393,7.331,7.331,0,0,1-2.711.461,5.258,5.258,0,0,1-2.777-.734,4.889,4.889,0,0,1-1.876-2.087,7.21,7.21,0,0,1-.681-3.138V12.1a6.73,6.73,0,0,1,1.349-4.482A4.7,4.7,0,0,1,48.9,6.027a4.856,4.856,0,0,1,3.226,1.024,4.461,4.461,0,0,1,1.494,2.9H51.935a2.79,2.79,0,0,0-3.023-2.549A2.987,2.987,0,0,0,46.341,8.6a5.82,5.82,0,0,0-.883,3.453V13.1a5.454,5.454,0,0,0,.984,3.426A3.191,3.191,0,0,0,49.105,17.8a5.882,5.882,0,0,0,1.661-.21,2.569,2.569,0,0,0,1.178-.71V14.008H48.982v-1.38h4.641ZM62.051,19a3.416,3.416,0,0,1-.229-1,3.628,3.628,0,0,1-2.707,1.178,3.357,3.357,0,0,1-2.307-.8,2.573,2.573,0,0,1-.9-2.017,2.688,2.688,0,0,1,1.129-2.307,5.325,5.325,0,0,1,3.177-.822H61.8v-.747a1.826,1.826,0,0,0-.51-1.358,2.049,2.049,0,0,0-1.5-.505,2.371,2.371,0,0,0-1.459.439,1.3,1.3,0,0,0-.589,1.063H56.1a2.244,2.244,0,0,1,.505-1.375A3.449,3.449,0,0,1,57.978,9.7a4.613,4.613,0,0,1,1.9-.387,3.759,3.759,0,0,1,2.575.822,2.964,2.964,0,0,1,.967,2.263v4.377a5.351,5.351,0,0,0,.334,2.083V19Zm-2.7-1.239a2.858,2.858,0,0,0,1.45-.4,2.392,2.392,0,0,0,.993-1.028V14.386H60.522q-2.988,0-2.988,1.749a1.48,1.48,0,0,0,.51,1.2A1.959,1.959,0,0,0,59.353,17.761Zm12.155-1.283a1.2,1.2,0,0,0-.5-1.024,4.78,4.78,0,0,0-1.731-.628,8.186,8.186,0,0,1-1.96-.633,2.788,2.788,0,0,1-1.072-.879A2.1,2.1,0,0,1,65.9,12.1a2.467,2.467,0,0,1,.989-1.978,3.861,3.861,0,0,1,2.527-.809,3.974,3.974,0,0,1,2.624.835,2.652,2.652,0,0,1,1.006,2.136H71.412a1.468,1.468,0,0,0-.567-1.151,2.124,2.124,0,0,0-1.428-.483,2.223,2.223,0,0,0-1.389.387,1.217,1.217,0,0,0-.5,1.011.986.986,0,0,0,.466.888,5.731,5.731,0,0,0,1.683.571,8.77,8.77,0,0,1,1.973.65,2.878,2.878,0,0,1,1.121.91,2.237,2.237,0,0,1,.365,1.3,2.434,2.434,0,0,1-1.02,2.043,4.277,4.277,0,0,1-2.646.769,4.789,4.789,0,0,1-2.021-.4,3.288,3.288,0,0,1-1.375-1.129,2.722,2.722,0,0,1-.5-1.569H67.2a1.683,1.683,0,0,0,.655,1.3,2.54,2.54,0,0,0,1.613.479,2.622,2.622,0,0,0,1.481-.374A1.148,1.148,0,0,0,71.508,16.478Zm5.95-9.29v2.3h1.775v1.257H77.459v5.9a1.32,1.32,0,0,0,.237.858,1,1,0,0,0,.809.286,3.937,3.937,0,0,0,.773-.105V19a4.742,4.742,0,0,1-1.248.175,2.025,2.025,0,0,1-1.644-.659,2.832,2.832,0,0,1-.554-1.872v-5.9H74.1V9.49h1.731v-2.3Zm3.067,6.97a5.617,5.617,0,0,1,.549-2.514A4.1,4.1,0,0,1,82.6,9.921a4.163,4.163,0,0,1,2.237-.606,4.01,4.01,0,0,1,3.142,1.345,5.174,5.174,0,0,1,1.2,3.577v.114a5.666,5.666,0,0,1-.532,2.492,4.038,4.038,0,0,1-1.521,1.718,4.211,4.211,0,0,1-2.272.615,4,4,0,0,1-3.133-1.345,5.147,5.147,0,0,1-1.2-3.56Zm1.635.193a4.068,4.068,0,0,0,.734,2.54,2.487,2.487,0,0,0,3.933-.013,4.449,4.449,0,0,0,.729-2.72,4.061,4.061,0,0,0-.743-2.536,2.361,2.361,0,0,0-1.973-.971,2.335,2.335,0,0,0-1.942.958A4.416,4.416,0,0,0,82.161,14.351Zm14.6,2.127a1.2,1.2,0,0,0-.5-1.024,4.78,4.78,0,0,0-1.731-.628,8.186,8.186,0,0,1-1.96-.633,2.788,2.788,0,0,1-1.072-.879,2.1,2.1,0,0,1-.347-1.213,2.467,2.467,0,0,1,.989-1.978,3.861,3.861,0,0,1,2.527-.809,3.974,3.974,0,0,1,2.624.835A2.652,2.652,0,0,1,98.3,12.285H96.663a1.468,1.468,0,0,0-.567-1.151,2.124,2.124,0,0,0-1.428-.483,2.223,2.223,0,0,0-1.389.387,1.217,1.217,0,0,0-.5,1.011.986.986,0,0,0,.466.888,5.731,5.731,0,0,0,1.683.571,8.77,8.77,0,0,1,1.973.65,2.878,2.878,0,0,1,1.121.91,2.237,2.237,0,0,1,.365,1.3,2.434,2.434,0,0,1-1.02,2.043,4.277,4.277,0,0,1-2.646.769,4.789,4.789,0,0,1-2.021-.4,3.288,3.288,0,0,1-1.375-1.129,2.722,2.722,0,0,1-.5-1.569h1.626a1.683,1.683,0,0,0,.655,1.3,2.54,2.54,0,0,0,1.613.479,2.622,2.622,0,0,0,1.481-.374A1.148,1.148,0,0,0,96.759,16.478ZM21.573,31.09l.053,1.2a3.465,3.465,0,0,1,2.848-1.371q3.015,0,3.041,3.4V40.6H25.889V34.307a2.189,2.189,0,0,0-.47-1.521,1.884,1.884,0,0,0-1.437-.492,2.347,2.347,0,0,0-1.389.422,2.865,2.865,0,0,0-.932,1.107V40.6H20.035V31.09Zm7.963,4.667a5.617,5.617,0,0,1,.549-2.514,4.1,4.1,0,0,1,1.529-1.723,4.163,4.163,0,0,1,2.237-.606,4.01,4.01,0,0,1,3.142,1.345,5.174,5.174,0,0,1,1.2,3.577v.114a5.666,5.666,0,0,1-.532,2.492,4.038,4.038,0,0,1-1.521,1.718,4.211,4.211,0,0,1-2.272.615,4,4,0,0,1-3.133-1.345,5.147,5.147,0,0,1-1.2-3.56Zm1.635.193a4.068,4.068,0,0,0,.734,2.54,2.487,2.487,0,0,0,3.933-.013,4.449,4.449,0,0,0,.729-2.72,4.061,4.061,0,0,0-.743-2.536,2.361,2.361,0,0,0-1.973-.971,2.335,2.335,0,0,0-1.942.958A4.416,4.416,0,0,0,31.171,35.951ZM50.56,39.66a3.454,3.454,0,0,1-2.786,1.116,2.956,2.956,0,0,1-2.316-.883,3.823,3.823,0,0,1-.8-2.615V31.09h1.626v6.144q0,2.162,1.758,2.162a2.434,2.434,0,0,0,2.479-1.389V31.09h1.626V40.6H50.595Zm8.648-7.11a4.873,4.873,0,0,0-.8-.062,2.143,2.143,0,0,0-2.171,1.362V40.6H54.612V31.09h1.582l.026,1.1a2.532,2.532,0,0,1,2.268-1.274,1.661,1.661,0,0,1,.721.123Zm1.107,3.217a5.589,5.589,0,0,1,1.028-3.538,3.545,3.545,0,0,1,5.44-.083l.079-1.055h1.485v9.281a3.869,3.869,0,0,1-1.094,2.909,4.038,4.038,0,0,1-2.94,1.063A4.891,4.891,0,0,1,62.3,43.9a3.465,3.465,0,0,1-1.5-1.2l.844-.976A3.18,3.18,0,0,0,64.2,43.017a2.491,2.491,0,0,0,1.85-.668,2.553,2.553,0,0,0,.664-1.881v-.817a3.342,3.342,0,0,1-2.663,1.125,3.248,3.248,0,0,1-2.7-1.345A5.876,5.876,0,0,1,60.316,35.766Zm1.635.185a4.264,4.264,0,0,0,.659,2.527,2.142,2.142,0,0,0,1.846.918A2.382,2.382,0,0,0,66.714,38V33.657a2.41,2.41,0,0,0-2.241-1.362,2.161,2.161,0,0,0-1.854.923A4.644,4.644,0,0,0,61.95,35.951Zm12.8,4.825a4.155,4.155,0,0,1-3.146-1.27,4.714,4.714,0,0,1-1.213-3.4v-.3a5.707,5.707,0,0,1,.541-2.527,4.217,4.217,0,0,1,1.512-1.74,3.8,3.8,0,0,1,2.1-.628,3.562,3.562,0,0,1,2.883,1.222,5.289,5.289,0,0,1,1.028,3.5v.677H72.014a3.38,3.38,0,0,0,.822,2.272,2.583,2.583,0,0,0,2,.866,2.832,2.832,0,0,0,1.459-.352,3.666,3.666,0,0,0,1.046-.932l.993.773A3.993,3.993,0,0,1,74.747,40.776Zm-.2-8.525a2.169,2.169,0,0,0-1.652.716,3.482,3.482,0,0,0-.826,2.008H76.83v-.123a3.1,3.1,0,0,0-.668-1.92A2.042,2.042,0,0,0,74.545,32.25Zm7.33-1.16.053,1.2a3.465,3.465,0,0,1,2.848-1.371q3.015,0,3.041,3.4V40.6H86.191V34.307a2.189,2.189,0,0,0-.47-1.521,1.884,1.884,0,0,0-1.437-.492,2.347,2.347,0,0,0-1.389.422,2.865,2.865,0,0,0-.932,1.107V40.6H80.337V31.09Zm10.6-2.3v2.3H94.25v1.257H92.475v5.9a1.32,1.32,0,0,0,.237.858,1,1,0,0,0,.809.286,3.937,3.937,0,0,0,.773-.105V40.6a4.742,4.742,0,0,1-1.248.175,2.025,2.025,0,0,1-1.644-.659,2.832,2.832,0,0,1-.554-1.872v-5.9H89.117V31.09h1.731v-2.3Zm7.62,11.988a4.155,4.155,0,0,1-3.146-1.27,4.714,4.714,0,0,1-1.213-3.4v-.3a5.707,5.707,0,0,1,.541-2.527,4.217,4.217,0,0,1,1.512-1.74,3.8,3.8,0,0,1,2.1-.628,3.562,3.562,0,0,1,2.883,1.222,5.289,5.289,0,0,1,1.028,3.5v.677H97.362a3.38,3.38,0,0,0,.822,2.272,2.583,2.583,0,0,0,2,.866,2.832,2.832,0,0,0,1.459-.352,3.666,3.666,0,0,0,1.046-.932l.993.773A3.993,3.993,0,0,1,100.095,40.776Zm-.2-8.525a2.169,2.169,0,0,0-1.652.716,3.482,3.482,0,0,0-.826,2.008h4.764v-.123a3.1,3.1,0,0,0-.668-1.92A2.042,2.042,0,0,0,99.893,32.25Zm11.329,5.827a1.2,1.2,0,0,0-.5-1.024,4.78,4.78,0,0,0-1.731-.628,8.186,8.186,0,0,1-1.96-.633,2.788,2.788,0,0,1-1.072-.879,2.1,2.1,0,0,1-.347-1.213,2.467,2.467,0,0,1,.989-1.978,3.861,3.861,0,0,1,2.527-.809,3.974,3.974,0,0,1,2.624.835,2.652,2.652,0,0,1,1.006,2.136h-1.635a1.468,1.468,0,0,0-.567-1.151,2.124,2.124,0,0,0-1.428-.483,2.223,2.223,0,0,0-1.389.387,1.217,1.217,0,0,0-.5,1.011.986.986,0,0,0,.466.888,5.731,5.731,0,0,0,1.683.571,8.77,8.77,0,0,1,1.973.65,2.878,2.878,0,0,1,1.121.91,2.237,2.237,0,0,1,.365,1.3,2.434,2.434,0,0,1-1.02,2.043,4.277,4.277,0,0,1-2.646.769,4.789,4.789,0,0,1-2.021-.4,3.288,3.288,0,0,1-1.375-1.129,2.722,2.722,0,0,1-.5-1.569h1.626a1.683,1.683,0,0,0,.655,1.3,2.54,2.54,0,0,0,1.613.479,2.622,2.622,0,0,0,1.481-.374A1.148,1.148,0,0,0,111.222,38.078Zm11.584-2.25h-4.289V34.5h4.289ZM25.309,62.2H23.683V52.69h1.626ZM23.551,50.168a.971.971,0,0,1,.242-.668.907.907,0,0,1,.716-.272.922.922,0,0,1,.721.272.96.96,0,0,1,.246.668.929.929,0,0,1-.246.659.938.938,0,0,1-.721.264.924.924,0,0,1-.716-.264A.938.938,0,0,1,23.551,50.168ZM29.44,52.69l.044,1.055a3.512,3.512,0,0,1,2.821-1.23,2.719,2.719,0,0,1,2.716,1.529,3.6,3.6,0,0,1,1.235-1.107,3.647,3.647,0,0,1,1.8-.422q3.129,0,3.182,3.313V62.2H39.609V55.925a2.184,2.184,0,0,0-.466-1.525,2.051,2.051,0,0,0-1.564-.505,2.156,2.156,0,0,0-1.5.541,2.193,2.193,0,0,0-.694,1.455V62.2H33.746V55.969a1.814,1.814,0,0,0-2.03-2.074,2.175,2.175,0,0,0-2.188,1.362V62.2H27.9V52.69Zm22.28,4.86a5.694,5.694,0,0,1-.993,3.5,3.183,3.183,0,0,1-2.689,1.327,3.488,3.488,0,0,1-2.725-1.1v4.579H43.687V52.69h1.485l.079,1.055a3.35,3.35,0,0,1,2.76-1.23,3.243,3.243,0,0,1,2.711,1.292,5.756,5.756,0,0,1,1,3.595Zm-1.626-.185a4.2,4.2,0,0,0-.686-2.54,2.208,2.208,0,0,0-1.881-.932,2.39,2.39,0,0,0-2.215,1.31v4.544a2.4,2.4,0,0,0,2.232,1.3,2.2,2.2,0,0,0,1.859-.927A4.587,4.587,0,0,0,50.094,57.366Zm3.261-.009a5.617,5.617,0,0,1,.549-2.514,4.1,4.1,0,0,1,1.529-1.723,4.163,4.163,0,0,1,2.237-.606,4.01,4.01,0,0,1,3.142,1.345,5.174,5.174,0,0,1,1.2,3.577v.114a5.666,5.666,0,0,1-.532,2.492,4.038,4.038,0,0,1-1.521,1.718,4.211,4.211,0,0,1-2.272.615,4,4,0,0,1-3.133-1.345,5.147,5.147,0,0,1-1.2-3.56Zm1.635.193a4.068,4.068,0,0,0,.734,2.54,2.487,2.487,0,0,0,3.933-.013,4.449,4.449,0,0,0,.729-2.72,4.061,4.061,0,0,0-.743-2.536,2.361,2.361,0,0,0-1.973-.971,2.335,2.335,0,0,0-1.942.958A4.416,4.416,0,0,0,54.989,57.551Zm13.658-3.4a4.873,4.873,0,0,0-.8-.062,2.143,2.143,0,0,0-2.171,1.362V62.2H64.051V52.69h1.582l.026,1.1a2.532,2.532,0,0,1,2.268-1.274,1.661,1.661,0,0,1,.721.123Zm4.14-3.762v2.3h1.775v1.257H72.787v5.9a1.32,1.32,0,0,0,.237.858,1,1,0,0,0,.809.286,3.937,3.937,0,0,0,.773-.105V62.2a4.742,4.742,0,0,1-1.248.175,2.025,2.025,0,0,1-1.644-.659,2.832,2.832,0,0,1-.554-1.872v-5.9H69.43V52.69h1.731v-2.3ZM82.332,62.2a3.416,3.416,0,0,1-.229-1A3.628,3.628,0,0,1,79.4,62.376a3.357,3.357,0,0,1-2.307-.8,2.573,2.573,0,0,1-.9-2.017,2.688,2.688,0,0,1,1.129-2.307,5.325,5.325,0,0,1,3.177-.822h1.582v-.747a1.826,1.826,0,0,0-.51-1.358,2.049,2.049,0,0,0-1.5-.505,2.371,2.371,0,0,0-1.459.439,1.3,1.3,0,0,0-.589,1.063H76.382a2.244,2.244,0,0,1,.505-1.375,3.449,3.449,0,0,1,1.371-1.05,4.613,4.613,0,0,1,1.9-.387,3.759,3.759,0,0,1,2.575.822A2.964,2.964,0,0,1,83.7,55.6v4.377a5.351,5.351,0,0,0,.334,2.083V62.2Zm-2.7-1.239a2.858,2.858,0,0,0,1.45-.4,2.392,2.392,0,0,0,.993-1.028V57.586H80.8q-2.988,0-2.988,1.749a1.48,1.48,0,0,0,.51,1.2A1.959,1.959,0,0,0,79.634,60.961ZM87.79,52.69l.053,1.2a3.465,3.465,0,0,1,2.848-1.371q3.015,0,3.041,3.4V62.2H92.106V55.907a2.189,2.189,0,0,0-.47-1.521,1.884,1.884,0,0,0-1.437-.492,2.347,2.347,0,0,0-1.389.422,2.865,2.865,0,0,0-.932,1.107V62.2H86.252V52.69Zm10.6-2.3v2.3h1.775v1.257H98.39v5.9a1.32,1.32,0,0,0,.237.858,1,1,0,0,0,.809.286,3.937,3.937,0,0,0,.773-.105V62.2a4.742,4.742,0,0,1-1.248.175,2.025,2.025,0,0,1-1.644-.659,2.832,2.832,0,0,1-.554-1.872v-5.9H95.032V52.69h1.731v-2.3Zm7.62,11.988a4.155,4.155,0,0,1-3.146-1.27,4.714,4.714,0,0,1-1.213-3.4v-.3a5.707,5.707,0,0,1,.541-2.527,4.217,4.217,0,0,1,1.512-1.74,3.8,3.8,0,0,1,2.1-.628,3.562,3.562,0,0,1,2.883,1.222,5.289,5.289,0,0,1,1.028,3.5v.677h-6.442a3.38,3.38,0,0,0,.822,2.272,2.583,2.583,0,0,0,2,.866,2.832,2.832,0,0,0,1.459-.352,3.666,3.666,0,0,0,1.046-.932l.993.773A3.993,3.993,0,0,1,106.01,62.376Zm-.2-8.525a2.169,2.169,0,0,0-1.652.716,3.482,3.482,0,0,0-.826,2.008h4.764v-.123a3.1,3.1,0,0,0-.668-1.92A2.042,2.042,0,0,0,105.808,53.85Zm11.329,5.827a1.2,1.2,0,0,0-.5-1.024,4.78,4.78,0,0,0-1.731-.628,8.186,8.186,0,0,1-1.96-.633,2.788,2.788,0,0,1-1.072-.879,2.1,2.1,0,0,1-.347-1.213,2.467,2.467,0,0,1,.989-1.978,3.861,3.861,0,0,1,2.527-.809,3.974,3.974,0,0,1,2.624.835,2.652,2.652,0,0,1,1.006,2.136H117.04a1.468,1.468,0,0,0-.567-1.151,2.124,2.124,0,0,0-1.428-.483,2.223,2.223,0,0,0-1.389.387,1.217,1.217,0,0,0-.5,1.011.986.986,0,0,0,.466.888,5.731,5.731,0,0,0,1.683.571,8.77,8.77,0,0,1,1.973.65,2.878,2.878,0,0,1,1.121.91,2.237,2.237,0,0,1,.365,1.3,2.434,2.434,0,0,1-1.02,2.043,4.277,4.277,0,0,1-2.646.769,4.789,4.789,0,0,1-2.021-.4,3.288,3.288,0,0,1-1.375-1.129,2.722,2.722,0,0,1-.5-1.569h1.626a1.683,1.683,0,0,0,.655,1.3,2.54,2.54,0,0,0,1.613.479,2.622,2.622,0,0,0,1.481-.374A1.148,1.148,0,0,0,117.137,59.678Z" transform="translate(305.909 130.587)" fill="#12263f"/>
      <path id="Trazado_119947" data-name="Trazado 119947" d="M41.3,17.321a3.9,3.9,0,0,1-1.815,1.393,7.331,7.331,0,0,1-2.711.461,5.258,5.258,0,0,1-2.777-.734,4.889,4.889,0,0,1-1.876-2.087,7.21,7.21,0,0,1-.681-3.138V12.1a6.73,6.73,0,0,1,1.349-4.482,4.7,4.7,0,0,1,3.792-1.591A4.856,4.856,0,0,1,39.8,7.051a4.461,4.461,0,0,1,1.494,2.9H39.609a2.79,2.79,0,0,0-3.023-2.549A2.987,2.987,0,0,0,34.014,8.6a5.82,5.82,0,0,0-.883,3.453V13.1a5.454,5.454,0,0,0,.984,3.426A3.191,3.191,0,0,0,36.778,17.8a5.882,5.882,0,0,0,1.661-.21,2.569,2.569,0,0,0,1.178-.71V14.008H36.655v-1.38H41.3ZM49.725,19a3.416,3.416,0,0,1-.229-1,3.628,3.628,0,0,1-2.707,1.178,3.357,3.357,0,0,1-2.307-.8,2.573,2.573,0,0,1-.9-2.017,2.688,2.688,0,0,1,1.129-2.307,5.325,5.325,0,0,1,3.177-.822H49.47v-.747a1.826,1.826,0,0,0-.51-1.358,2.049,2.049,0,0,0-1.5-.505A2.371,2.371,0,0,0,46,11.063a1.3,1.3,0,0,0-.589,1.063H43.775a2.244,2.244,0,0,1,.505-1.375A3.449,3.449,0,0,1,45.651,9.7a4.613,4.613,0,0,1,1.9-.387,3.759,3.759,0,0,1,2.575.822A2.964,2.964,0,0,1,51.1,12.4v4.377a5.351,5.351,0,0,0,.334,2.083V19Zm-2.7-1.239a2.858,2.858,0,0,0,1.45-.4,2.392,2.392,0,0,0,.993-1.028V14.386H48.2q-2.988,0-2.988,1.749a1.48,1.48,0,0,0,.51,1.2A1.959,1.959,0,0,0,47.027,17.761Zm12.155-1.283a1.2,1.2,0,0,0-.5-1.024,4.78,4.78,0,0,0-1.731-.628,8.186,8.186,0,0,1-1.96-.633,2.788,2.788,0,0,1-1.072-.879,2.1,2.1,0,0,1-.347-1.213,2.467,2.467,0,0,1,.989-1.978,3.861,3.861,0,0,1,2.527-.809,3.974,3.974,0,0,1,2.624.835,2.652,2.652,0,0,1,1.006,2.136H59.085a1.468,1.468,0,0,0-.567-1.151,2.124,2.124,0,0,0-1.428-.483,2.223,2.223,0,0,0-1.389.387,1.217,1.217,0,0,0-.5,1.011.986.986,0,0,0,.466.888,5.731,5.731,0,0,0,1.683.571,8.77,8.77,0,0,1,1.973.65,2.878,2.878,0,0,1,1.121.91,2.237,2.237,0,0,1,.365,1.3,2.434,2.434,0,0,1-1.02,2.043,4.277,4.277,0,0,1-2.646.769,4.789,4.789,0,0,1-2.021-.4,3.288,3.288,0,0,1-1.375-1.129,2.722,2.722,0,0,1-.5-1.569h1.626a1.683,1.683,0,0,0,.655,1.3,2.54,2.54,0,0,0,1.613.479,2.622,2.622,0,0,0,1.481-.374A1.148,1.148,0,0,0,59.182,16.478Zm5.95-9.29v2.3h1.775v1.257H65.132v5.9a1.32,1.32,0,0,0,.237.858,1,1,0,0,0,.809.286,3.937,3.937,0,0,0,.773-.105V19a4.742,4.742,0,0,1-1.248.175,2.025,2.025,0,0,1-1.644-.659,2.832,2.832,0,0,1-.554-1.872v-5.9H61.775V9.49h1.731v-2.3Zm3.067,6.97a5.617,5.617,0,0,1,.549-2.514,4.1,4.1,0,0,1,1.529-1.723,4.163,4.163,0,0,1,2.237-.606,4.01,4.01,0,0,1,3.142,1.345,5.174,5.174,0,0,1,1.2,3.577v.114a5.666,5.666,0,0,1-.532,2.492A4.038,4.038,0,0,1,74.8,18.561a4.211,4.211,0,0,1-2.272.615A4,4,0,0,1,69.4,17.831a5.147,5.147,0,0,1-1.2-3.56Zm1.635.193a4.068,4.068,0,0,0,.734,2.54,2.487,2.487,0,0,0,3.933-.013,4.449,4.449,0,0,0,.729-2.72,4.061,4.061,0,0,0-.743-2.536,2.361,2.361,0,0,0-1.973-.971,2.335,2.335,0,0,0-1.942.958A4.416,4.416,0,0,0,69.834,14.351Zm14.6,2.127a1.2,1.2,0,0,0-.5-1.024,4.78,4.78,0,0,0-1.731-.628,8.186,8.186,0,0,1-1.96-.633,2.788,2.788,0,0,1-1.072-.879,2.1,2.1,0,0,1-.347-1.213,2.467,2.467,0,0,1,.989-1.978,3.861,3.861,0,0,1,2.527-.809,3.974,3.974,0,0,1,2.624.835,2.652,2.652,0,0,1,1.006,2.136H84.336a1.468,1.468,0,0,0-.567-1.151,2.124,2.124,0,0,0-1.428-.483,2.223,2.223,0,0,0-1.389.387,1.217,1.217,0,0,0-.5,1.011.986.986,0,0,0,.466.888,5.731,5.731,0,0,0,1.683.571,8.77,8.77,0,0,1,1.973.65,2.878,2.878,0,0,1,1.121.91,2.237,2.237,0,0,1,.365,1.3,2.434,2.434,0,0,1-1.02,2.043,4.277,4.277,0,0,1-2.646.769,4.789,4.789,0,0,1-2.021-.4A3.288,3.288,0,0,1,79,17.642a2.722,2.722,0,0,1-.5-1.569h1.626a1.683,1.683,0,0,0,.655,1.3,2.54,2.54,0,0,0,1.613.479,2.622,2.622,0,0,0,1.481-.374A1.148,1.148,0,0,0,84.433,16.478ZM94.171,9.49l.053,1.2a3.465,3.465,0,0,1,2.848-1.371q3.015,0,3.041,3.4V19H98.487V12.707a2.189,2.189,0,0,0-.47-1.521,1.884,1.884,0,0,0-1.437-.492,2.347,2.347,0,0,0-1.389.422,2.865,2.865,0,0,0-.932,1.107V19H92.633V9.49Zm7.963,4.667a5.617,5.617,0,0,1,.549-2.514,4.1,4.1,0,0,1,1.529-1.723,4.163,4.163,0,0,1,2.237-.606,4.01,4.01,0,0,1,3.142,1.345,5.174,5.174,0,0,1,1.2,3.577v.114a5.666,5.666,0,0,1-.532,2.492,4.038,4.038,0,0,1-1.521,1.718,4.211,4.211,0,0,1-2.272.615,4,4,0,0,1-3.133-1.345,5.147,5.147,0,0,1-1.2-3.56Zm1.635.193a4.068,4.068,0,0,0,.734,2.54,2.487,2.487,0,0,0,3.933-.013,4.449,4.449,0,0,0,.729-2.72,4.061,4.061,0,0,0-.743-2.536,2.361,2.361,0,0,0-1.973-.971,2.335,2.335,0,0,0-1.942.958A4.416,4.416,0,0,0,103.769,14.351ZM25.309,40.6H23.683V31.09h1.626ZM23.551,28.568a.971.971,0,0,1,.242-.668.907.907,0,0,1,.716-.272.922.922,0,0,1,.721.272.96.96,0,0,1,.246.668.929.929,0,0,1-.246.659.938.938,0,0,1-.721.264.924.924,0,0,1-.716-.264A.938.938,0,0,1,23.551,28.568ZM29.44,31.09l.044,1.055a3.512,3.512,0,0,1,2.821-1.23,2.719,2.719,0,0,1,2.716,1.529,3.6,3.6,0,0,1,1.235-1.107,3.647,3.647,0,0,1,1.8-.422q3.129,0,3.182,3.313V40.6H39.609V34.325a2.184,2.184,0,0,0-.466-1.525,2.051,2.051,0,0,0-1.564-.505,2.156,2.156,0,0,0-1.5.541,2.193,2.193,0,0,0-.694,1.455V40.6H33.746V34.369a1.814,1.814,0,0,0-2.03-2.074,2.175,2.175,0,0,0-2.188,1.362V40.6H27.9V31.09Zm22.28,4.86a5.694,5.694,0,0,1-.993,3.5,3.183,3.183,0,0,1-2.689,1.327,3.488,3.488,0,0,1-2.725-1.1v4.579H43.687V31.09h1.485l.079,1.055a3.35,3.35,0,0,1,2.76-1.23,3.243,3.243,0,0,1,2.711,1.292,5.756,5.756,0,0,1,1,3.595Zm-1.626-.185a4.2,4.2,0,0,0-.686-2.54,2.208,2.208,0,0,0-1.881-.932,2.39,2.39,0,0,0-2.215,1.31v4.544a2.4,2.4,0,0,0,2.232,1.3,2.2,2.2,0,0,0,1.859-.927A4.587,4.587,0,0,0,50.094,35.766Zm3.261-.009a5.617,5.617,0,0,1,.549-2.514,4.1,4.1,0,0,1,1.529-1.723,4.163,4.163,0,0,1,2.237-.606,4.01,4.01,0,0,1,3.142,1.345,5.174,5.174,0,0,1,1.2,3.577v.114a5.666,5.666,0,0,1-.532,2.492,4.038,4.038,0,0,1-1.521,1.718,4.211,4.211,0,0,1-2.272.615,4,4,0,0,1-3.133-1.345,5.147,5.147,0,0,1-1.2-3.56Zm1.635.193a4.068,4.068,0,0,0,.734,2.54,2.487,2.487,0,0,0,3.933-.013,4.449,4.449,0,0,0,.729-2.72,4.061,4.061,0,0,0-.743-2.536,2.361,2.361,0,0,0-1.973-.971,2.335,2.335,0,0,0-1.942.958A4.416,4.416,0,0,0,54.989,35.951Zm13.658-3.4a4.873,4.873,0,0,0-.8-.062,2.143,2.143,0,0,0-2.171,1.362V40.6H64.051V31.09h1.582l.026,1.1a2.532,2.532,0,0,1,2.268-1.274,1.661,1.661,0,0,1,.721.123Zm4.14-3.762v2.3h1.775v1.257H72.787v5.9a1.32,1.32,0,0,0,.237.858,1,1,0,0,0,.809.286,3.937,3.937,0,0,0,.773-.105V40.6a4.742,4.742,0,0,1-1.248.175,2.025,2.025,0,0,1-1.644-.659,2.832,2.832,0,0,1-.554-1.872v-5.9H69.43V31.09h1.731v-2.3ZM82.332,40.6a3.416,3.416,0,0,1-.229-1A3.628,3.628,0,0,1,79.4,40.776a3.357,3.357,0,0,1-2.307-.8,2.573,2.573,0,0,1-.9-2.017,2.688,2.688,0,0,1,1.129-2.307,5.325,5.325,0,0,1,3.177-.822h1.582v-.747a1.826,1.826,0,0,0-.51-1.358,2.049,2.049,0,0,0-1.5-.505,2.371,2.371,0,0,0-1.459.439,1.3,1.3,0,0,0-.589,1.063H76.382a2.244,2.244,0,0,1,.505-1.375,3.449,3.449,0,0,1,1.371-1.05,4.613,4.613,0,0,1,1.9-.387,3.759,3.759,0,0,1,2.575.822A2.964,2.964,0,0,1,83.7,34v4.377a5.351,5.351,0,0,0,.334,2.083V40.6Zm-2.7-1.239a2.858,2.858,0,0,0,1.45-.4,2.392,2.392,0,0,0,.993-1.028V35.986H80.8q-2.988,0-2.988,1.749a1.48,1.48,0,0,0,.51,1.2A1.959,1.959,0,0,0,79.634,39.361ZM87.79,31.09l.053,1.2a3.465,3.465,0,0,1,2.848-1.371q3.015,0,3.041,3.4V40.6H92.106V34.307a2.189,2.189,0,0,0-.47-1.521,1.884,1.884,0,0,0-1.437-.492,2.347,2.347,0,0,0-1.389.422,2.865,2.865,0,0,0-.932,1.107V40.6H86.252V31.09Zm10.6-2.3v2.3h1.775v1.257H98.39v5.9a1.32,1.32,0,0,0,.237.858,1,1,0,0,0,.809.286,3.937,3.937,0,0,0,.773-.105V40.6a4.742,4.742,0,0,1-1.248.175,2.025,2.025,0,0,1-1.644-.659,2.832,2.832,0,0,1-.554-1.872v-5.9H95.032V31.09h1.731v-2.3Zm7.62,11.988a4.155,4.155,0,0,1-3.146-1.27,4.714,4.714,0,0,1-1.213-3.4v-.3a5.707,5.707,0,0,1,.541-2.527,4.217,4.217,0,0,1,1.512-1.74,3.8,3.8,0,0,1,2.1-.628,3.562,3.562,0,0,1,2.883,1.222,5.289,5.289,0,0,1,1.028,3.5v.677h-6.442a3.38,3.38,0,0,0,.822,2.272,2.583,2.583,0,0,0,2,.866,2.832,2.832,0,0,0,1.459-.352,3.666,3.666,0,0,0,1.046-.932l.993.773A3.993,3.993,0,0,1,106.01,40.776Zm-.2-8.525a2.169,2.169,0,0,0-1.652.716,3.482,3.482,0,0,0-.826,2.008h4.764v-.123a3.1,3.1,0,0,0-.668-1.92A2.042,2.042,0,0,0,105.808,32.25Zm11.329,5.827a1.2,1.2,0,0,0-.5-1.024,4.78,4.78,0,0,0-1.731-.628,8.186,8.186,0,0,1-1.96-.633,2.788,2.788,0,0,1-1.072-.879,2.1,2.1,0,0,1-.347-1.213,2.467,2.467,0,0,1,.989-1.978,3.861,3.861,0,0,1,2.527-.809,3.974,3.974,0,0,1,2.624.835,2.652,2.652,0,0,1,1.006,2.136H117.04a1.468,1.468,0,0,0-.567-1.151,2.124,2.124,0,0,0-1.428-.483,2.223,2.223,0,0,0-1.389.387,1.217,1.217,0,0,0-.5,1.011.986.986,0,0,0,.466.888,5.731,5.731,0,0,0,1.683.571,8.77,8.77,0,0,1,1.973.65,2.878,2.878,0,0,1,1.121.91,2.237,2.237,0,0,1,.365,1.3,2.434,2.434,0,0,1-1.02,2.043,4.277,4.277,0,0,1-2.646.769,4.789,4.789,0,0,1-2.021-.4,3.288,3.288,0,0,1-1.375-1.129,2.722,2.722,0,0,1-.5-1.569h1.626a1.683,1.683,0,0,0,.655,1.3,2.54,2.54,0,0,0,1.613.479,2.622,2.622,0,0,0,1.481-.374A1.148,1.148,0,0,0,117.137,38.078ZM40.575,61.26a3.454,3.454,0,0,1-2.786,1.116,2.956,2.956,0,0,1-2.316-.883,3.823,3.823,0,0,1-.8-2.615V52.69H36.3v6.144Q36.3,61,38.053,61a2.434,2.434,0,0,0,2.479-1.389V52.69h1.626V62.2H40.611Zm8.648-7.11a4.873,4.873,0,0,0-.8-.062,2.143,2.143,0,0,0-2.171,1.362V62.2H44.627V52.69h1.582l.026,1.1A2.532,2.532,0,0,1,48.5,52.514a1.661,1.661,0,0,1,.721.123Zm1.107,3.217a5.589,5.589,0,0,1,1.028-3.538,3.545,3.545,0,0,1,5.44-.083l.079-1.055h1.485v9.281a3.869,3.869,0,0,1-1.094,2.909,4.038,4.038,0,0,1-2.94,1.063,4.891,4.891,0,0,1-2.013-.439,3.465,3.465,0,0,1-1.5-1.2l.844-.976a3.18,3.18,0,0,0,2.558,1.292,2.491,2.491,0,0,0,1.85-.668,2.553,2.553,0,0,0,.664-1.881v-.817a3.342,3.342,0,0,1-2.663,1.125,3.248,3.248,0,0,1-2.7-1.345A5.876,5.876,0,0,1,50.331,57.366Zm1.635.185a4.264,4.264,0,0,0,.659,2.527A2.142,2.142,0,0,0,54.471,61a2.382,2.382,0,0,0,2.259-1.4V55.257a2.41,2.41,0,0,0-2.241-1.362,2.161,2.161,0,0,0-1.854.923A4.644,4.644,0,0,0,51.966,57.551Zm12.8,4.825a4.155,4.155,0,0,1-3.146-1.27,4.714,4.714,0,0,1-1.213-3.4v-.3a5.707,5.707,0,0,1,.541-2.527,4.217,4.217,0,0,1,1.512-1.74,3.8,3.8,0,0,1,2.1-.628,3.562,3.562,0,0,1,2.883,1.222,5.289,5.289,0,0,1,1.028,3.5v.677H62.029a3.38,3.38,0,0,0,.822,2.272,2.583,2.583,0,0,0,2,.866A2.832,2.832,0,0,0,66.31,60.7a3.666,3.666,0,0,0,1.046-.932l.993.773A3.993,3.993,0,0,1,64.763,62.376Zm-.2-8.525a2.169,2.169,0,0,0-1.652.716,3.482,3.482,0,0,0-.826,2.008h4.764v-.123a3.1,3.1,0,0,0-.668-1.92A2.042,2.042,0,0,0,64.561,53.85Zm7.33-1.16.053,1.2a3.465,3.465,0,0,1,2.848-1.371q3.015,0,3.041,3.4V62.2H76.206V55.907a2.189,2.189,0,0,0-.47-1.521,1.884,1.884,0,0,0-1.437-.492,2.347,2.347,0,0,0-1.389.422,2.865,2.865,0,0,0-.932,1.107V62.2H70.353V52.69Zm10.6-2.3v2.3h1.775v1.257H82.49v5.9a1.32,1.32,0,0,0,.237.858,1,1,0,0,0,.809.286,3.937,3.937,0,0,0,.773-.105V62.2a4.742,4.742,0,0,1-1.248.175,2.025,2.025,0,0,1-1.644-.659,2.832,2.832,0,0,1-.554-1.872v-5.9H79.133V52.69h1.731v-2.3Zm7.62,11.988a4.155,4.155,0,0,1-3.146-1.27,4.714,4.714,0,0,1-1.213-3.4v-.3a5.707,5.707,0,0,1,.541-2.527,4.217,4.217,0,0,1,1.512-1.74,3.8,3.8,0,0,1,2.1-.628,3.562,3.562,0,0,1,2.883,1.222,5.289,5.289,0,0,1,1.028,3.5v.677H87.377a3.38,3.38,0,0,0,.822,2.272,2.583,2.583,0,0,0,2,.866,2.832,2.832,0,0,0,1.459-.352,3.666,3.666,0,0,0,1.046-.932l.993.773A3.993,3.993,0,0,1,90.111,62.376Zm-.2-8.525a2.169,2.169,0,0,0-1.652.716,3.482,3.482,0,0,0-.826,2.008h4.764v-.123a3.1,3.1,0,0,0-.668-1.92A2.042,2.042,0,0,0,89.908,53.85Zm11.329,5.827a1.2,1.2,0,0,0-.5-1.024,4.78,4.78,0,0,0-1.731-.628,8.186,8.186,0,0,1-1.96-.633,2.788,2.788,0,0,1-1.072-.879A2.1,2.1,0,0,1,95.63,55.3a2.467,2.467,0,0,1,.989-1.978,3.861,3.861,0,0,1,2.527-.809,3.974,3.974,0,0,1,2.624.835,2.652,2.652,0,0,1,1.006,2.136h-1.635a1.468,1.468,0,0,0-.567-1.151,2.124,2.124,0,0,0-1.428-.483,2.223,2.223,0,0,0-1.389.387,1.217,1.217,0,0,0-.5,1.011.986.986,0,0,0,.466.888,5.731,5.731,0,0,0,1.683.571,8.77,8.77,0,0,1,1.973.65,2.878,2.878,0,0,1,1.121.91,2.237,2.237,0,0,1,.365,1.3,2.434,2.434,0,0,1-1.02,2.043,4.277,4.277,0,0,1-2.646.769,4.789,4.789,0,0,1-2.021-.4A3.288,3.288,0,0,1,95.8,60.842a2.722,2.722,0,0,1-.5-1.569h1.626a1.683,1.683,0,0,0,.655,1.3,2.54,2.54,0,0,0,1.613.479,2.622,2.622,0,0,0,1.481-.374A1.148,1.148,0,0,0,101.237,59.678Zm3.779,1.67a1.018,1.018,0,0,1,.25-.7.954.954,0,0,1,.751-.281.983.983,0,0,1,.76.281,1,1,0,0,1,.259.7.944.944,0,0,1-.259.677,1,1,0,0,1-.76.272.9.9,0,0,1-1-.949Z" transform="translate(65.003 371.745)" fill="#12263f"/>
      <path id="Trazado_119948" data-name="Trazado 119948" d="M41.3,17.321a3.9,3.9,0,0,1-1.815,1.393,7.331,7.331,0,0,1-2.711.461,5.258,5.258,0,0,1-2.777-.734,4.889,4.889,0,0,1-1.876-2.087,7.21,7.21,0,0,1-.681-3.138V12.1a6.73,6.73,0,0,1,1.349-4.482,4.7,4.7,0,0,1,3.792-1.591A4.856,4.856,0,0,1,39.8,7.051a4.461,4.461,0,0,1,1.494,2.9H39.609a2.79,2.79,0,0,0-3.023-2.549A2.987,2.987,0,0,0,34.014,8.6a5.82,5.82,0,0,0-.883,3.453V13.1a5.454,5.454,0,0,0,.984,3.426A3.191,3.191,0,0,0,36.778,17.8a5.882,5.882,0,0,0,1.661-.21,2.569,2.569,0,0,0,1.178-.71V14.008H36.655v-1.38H41.3ZM49.725,19a3.416,3.416,0,0,1-.229-1,3.628,3.628,0,0,1-2.707,1.178,3.357,3.357,0,0,1-2.307-.8,2.573,2.573,0,0,1-.9-2.017,2.688,2.688,0,0,1,1.129-2.307,5.325,5.325,0,0,1,3.177-.822H49.47v-.747a1.826,1.826,0,0,0-.51-1.358,2.049,2.049,0,0,0-1.5-.505A2.371,2.371,0,0,0,46,11.063a1.3,1.3,0,0,0-.589,1.063H43.775a2.244,2.244,0,0,1,.505-1.375A3.449,3.449,0,0,1,45.651,9.7a4.613,4.613,0,0,1,1.9-.387,3.759,3.759,0,0,1,2.575.822A2.964,2.964,0,0,1,51.1,12.4v4.377a5.351,5.351,0,0,0,.334,2.083V19Zm-2.7-1.239a2.858,2.858,0,0,0,1.45-.4,2.392,2.392,0,0,0,.993-1.028V14.386H48.2q-2.988,0-2.988,1.749a1.48,1.48,0,0,0,.51,1.2A1.959,1.959,0,0,0,47.027,17.761Zm12.155-1.283a1.2,1.2,0,0,0-.5-1.024,4.78,4.78,0,0,0-1.731-.628,8.186,8.186,0,0,1-1.96-.633,2.788,2.788,0,0,1-1.072-.879,2.1,2.1,0,0,1-.347-1.213,2.467,2.467,0,0,1,.989-1.978,3.861,3.861,0,0,1,2.527-.809,3.974,3.974,0,0,1,2.624.835,2.652,2.652,0,0,1,1.006,2.136H59.085a1.468,1.468,0,0,0-.567-1.151,2.124,2.124,0,0,0-1.428-.483,2.223,2.223,0,0,0-1.389.387,1.217,1.217,0,0,0-.5,1.011.986.986,0,0,0,.466.888,5.731,5.731,0,0,0,1.683.571,8.77,8.77,0,0,1,1.973.65,2.878,2.878,0,0,1,1.121.91,2.237,2.237,0,0,1,.365,1.3,2.434,2.434,0,0,1-1.02,2.043,4.277,4.277,0,0,1-2.646.769,4.789,4.789,0,0,1-2.021-.4,3.288,3.288,0,0,1-1.375-1.129,2.722,2.722,0,0,1-.5-1.569h1.626a1.683,1.683,0,0,0,.655,1.3,2.54,2.54,0,0,0,1.613.479,2.622,2.622,0,0,0,1.481-.374A1.148,1.148,0,0,0,59.182,16.478Zm5.95-9.29v2.3h1.775v1.257H65.132v5.9a1.32,1.32,0,0,0,.237.858,1,1,0,0,0,.809.286,3.937,3.937,0,0,0,.773-.105V19a4.742,4.742,0,0,1-1.248.175,2.025,2.025,0,0,1-1.644-.659,2.832,2.832,0,0,1-.554-1.872v-5.9H61.775V9.49h1.731v-2.3Zm3.067,6.97a5.617,5.617,0,0,1,.549-2.514,4.1,4.1,0,0,1,1.529-1.723,4.163,4.163,0,0,1,2.237-.606,4.01,4.01,0,0,1,3.142,1.345,5.174,5.174,0,0,1,1.2,3.577v.114a5.666,5.666,0,0,1-.532,2.492A4.038,4.038,0,0,1,74.8,18.561a4.211,4.211,0,0,1-2.272.615A4,4,0,0,1,69.4,17.831a5.147,5.147,0,0,1-1.2-3.56Zm1.635.193a4.068,4.068,0,0,0,.734,2.54,2.487,2.487,0,0,0,3.933-.013,4.449,4.449,0,0,0,.729-2.72,4.061,4.061,0,0,0-.743-2.536,2.361,2.361,0,0,0-1.973-.971,2.335,2.335,0,0,0-1.942.958A4.416,4.416,0,0,0,69.834,14.351Zm14.6,2.127a1.2,1.2,0,0,0-.5-1.024,4.78,4.78,0,0,0-1.731-.628,8.186,8.186,0,0,1-1.96-.633,2.788,2.788,0,0,1-1.072-.879,2.1,2.1,0,0,1-.347-1.213,2.467,2.467,0,0,1,.989-1.978,3.861,3.861,0,0,1,2.527-.809,3.974,3.974,0,0,1,2.624.835,2.652,2.652,0,0,1,1.006,2.136H84.336a1.468,1.468,0,0,0-.567-1.151,2.124,2.124,0,0,0-1.428-.483,2.223,2.223,0,0,0-1.389.387,1.217,1.217,0,0,0-.5,1.011.986.986,0,0,0,.466.888,5.731,5.731,0,0,0,1.683.571,8.77,8.77,0,0,1,1.973.65,2.878,2.878,0,0,1,1.121.91,2.237,2.237,0,0,1,.365,1.3,2.434,2.434,0,0,1-1.02,2.043,4.277,4.277,0,0,1-2.646.769,4.789,4.789,0,0,1-2.021-.4A3.288,3.288,0,0,1,79,17.642a2.722,2.722,0,0,1-.5-1.569h1.626a1.683,1.683,0,0,0,.655,1.3,2.54,2.54,0,0,0,1.613.479,2.622,2.622,0,0,0,1.481-.374A1.148,1.148,0,0,0,84.433,16.478ZM94.171,9.49l.053,1.2a3.465,3.465,0,0,1,2.848-1.371q3.015,0,3.041,3.4V19H98.487V12.707a2.189,2.189,0,0,0-.47-1.521,1.884,1.884,0,0,0-1.437-.492,2.347,2.347,0,0,0-1.389.422,2.865,2.865,0,0,0-.932,1.107V19H92.633V9.49Zm7.963,4.667a5.617,5.617,0,0,1,.549-2.514,4.1,4.1,0,0,1,1.529-1.723,4.163,4.163,0,0,1,2.237-.606,4.01,4.01,0,0,1,3.142,1.345,5.174,5.174,0,0,1,1.2,3.577v.114a5.666,5.666,0,0,1-.532,2.492,4.038,4.038,0,0,1-1.521,1.718,4.211,4.211,0,0,1-2.272.615,4,4,0,0,1-3.133-1.345,5.147,5.147,0,0,1-1.2-3.56Zm1.635.193a4.068,4.068,0,0,0,.734,2.54,2.487,2.487,0,0,0,3.933-.013,4.449,4.449,0,0,0,.729-2.72,4.061,4.061,0,0,0-.743-2.536,2.361,2.361,0,0,0-1.973-.971,2.335,2.335,0,0,0-1.942.958A4.416,4.416,0,0,0,103.769,14.351ZM20.6,40.6H18.972V31.09H20.6ZM18.84,28.568a.971.971,0,0,1,.242-.668.907.907,0,0,1,.716-.272.922.922,0,0,1,.721.272.96.96,0,0,1,.246.668.929.929,0,0,1-.246.659.938.938,0,0,1-.721.264.924.924,0,0,1-.716-.264A.938.938,0,0,1,18.84,28.568Zm5.889,2.522.044,1.055a3.512,3.512,0,0,1,2.821-1.23,2.719,2.719,0,0,1,2.716,1.529,3.6,3.6,0,0,1,1.235-1.107,3.647,3.647,0,0,1,1.8-.422q3.129,0,3.182,3.313V40.6H34.9V34.325a2.184,2.184,0,0,0-.466-1.525,2.051,2.051,0,0,0-1.564-.505,2.156,2.156,0,0,0-1.5.541,2.193,2.193,0,0,0-.694,1.455V40.6H29.035V34.369a1.814,1.814,0,0,0-2.03-2.074,2.175,2.175,0,0,0-2.188,1.362V40.6H23.191V31.09Zm22.28,4.86a5.694,5.694,0,0,1-.993,3.5,3.183,3.183,0,0,1-2.689,1.327,3.488,3.488,0,0,1-2.725-1.1v4.579H38.976V31.09h1.485l.079,1.055a3.35,3.35,0,0,1,2.76-1.23,3.243,3.243,0,0,1,2.711,1.292,5.756,5.756,0,0,1,1,3.595Zm-1.626-.185a4.2,4.2,0,0,0-.686-2.54,2.208,2.208,0,0,0-1.881-.932A2.39,2.39,0,0,0,40.6,33.6v4.544a2.4,2.4,0,0,0,2.232,1.3,2.2,2.2,0,0,0,1.859-.927A4.587,4.587,0,0,0,45.383,35.766Zm3.261-.009a5.617,5.617,0,0,1,.549-2.514,4.1,4.1,0,0,1,1.529-1.723,4.163,4.163,0,0,1,2.237-.606A4.01,4.01,0,0,1,56.1,32.259a5.174,5.174,0,0,1,1.2,3.577v.114a5.666,5.666,0,0,1-.532,2.492,4.038,4.038,0,0,1-1.521,1.718,4.211,4.211,0,0,1-2.272.615,4,4,0,0,1-3.133-1.345,5.147,5.147,0,0,1-1.2-3.56Zm1.635.193a4.068,4.068,0,0,0,.734,2.54,2.487,2.487,0,0,0,3.933-.013,4.449,4.449,0,0,0,.729-2.72,4.061,4.061,0,0,0-.743-2.536,2.361,2.361,0,0,0-1.973-.971,2.335,2.335,0,0,0-1.942.958A4.416,4.416,0,0,0,50.278,35.951Zm13.658-3.4a4.873,4.873,0,0,0-.8-.062,2.143,2.143,0,0,0-2.171,1.362V40.6H59.34V31.09h1.582l.026,1.1a2.532,2.532,0,0,1,2.268-1.274,1.661,1.661,0,0,1,.721.123Zm4.14-3.762v2.3h1.775v1.257H68.076v5.9a1.32,1.32,0,0,0,.237.858,1,1,0,0,0,.809.286,3.937,3.937,0,0,0,.773-.105V40.6a4.742,4.742,0,0,1-1.248.175A2.025,2.025,0,0,1,67,40.117a2.832,2.832,0,0,1-.554-1.872v-5.9H64.719V31.09H66.45v-2.3ZM77.621,40.6a3.416,3.416,0,0,1-.229-1,3.628,3.628,0,0,1-2.707,1.178,3.357,3.357,0,0,1-2.307-.8,2.573,2.573,0,0,1-.9-2.017,2.688,2.688,0,0,1,1.129-2.307,5.325,5.325,0,0,1,3.177-.822h1.582v-.747a1.826,1.826,0,0,0-.51-1.358,2.049,2.049,0,0,0-1.5-.505,2.371,2.371,0,0,0-1.459.439,1.3,1.3,0,0,0-.589,1.063H71.671a2.244,2.244,0,0,1,.505-1.375,3.449,3.449,0,0,1,1.371-1.05,4.613,4.613,0,0,1,1.9-.387,3.759,3.759,0,0,1,2.575.822A2.964,2.964,0,0,1,78.992,34v4.377a5.351,5.351,0,0,0,.334,2.083V40.6Zm-2.7-1.239a2.858,2.858,0,0,0,1.45-.4,2.392,2.392,0,0,0,.993-1.028V35.986H76.092q-2.988,0-2.988,1.749a1.48,1.48,0,0,0,.51,1.2A1.959,1.959,0,0,0,74.923,39.361Zm8.156-8.271.053,1.2a3.465,3.465,0,0,1,2.848-1.371q3.015,0,3.041,3.4V40.6H87.395V34.307a2.189,2.189,0,0,0-.47-1.521,1.884,1.884,0,0,0-1.437-.492,2.347,2.347,0,0,0-1.389.422,2.865,2.865,0,0,0-.932,1.107V40.6H81.541V31.09Zm10.6-2.3v2.3h1.775v1.257H93.679v5.9a1.32,1.32,0,0,0,.237.858,1,1,0,0,0,.809.286,3.937,3.937,0,0,0,.773-.105V40.6a4.742,4.742,0,0,1-1.248.175,2.025,2.025,0,0,1-1.644-.659,2.832,2.832,0,0,1-.554-1.872v-5.9H90.321V31.09h1.731v-2.3Zm7.62,11.988a4.155,4.155,0,0,1-3.146-1.27,4.714,4.714,0,0,1-1.213-3.4v-.3a5.707,5.707,0,0,1,.541-2.527,4.217,4.217,0,0,1,1.512-1.74,3.8,3.8,0,0,1,2.1-.628,3.562,3.562,0,0,1,2.883,1.222,5.289,5.289,0,0,1,1.028,3.5v.677H98.566a3.38,3.38,0,0,0,.822,2.272,2.583,2.583,0,0,0,2,.866,2.832,2.832,0,0,0,1.459-.352,3.666,3.666,0,0,0,1.046-.932l.993.773A3.993,3.993,0,0,1,101.3,40.776Zm-.2-8.525a2.169,2.169,0,0,0-1.652.716,3.482,3.482,0,0,0-.826,2.008h4.764v-.123a3.1,3.1,0,0,0-.668-1.92A2.042,2.042,0,0,0,101.1,32.25Zm11.329,5.827a1.2,1.2,0,0,0-.5-1.024,4.78,4.78,0,0,0-1.731-.628,8.186,8.186,0,0,1-1.96-.633,2.788,2.788,0,0,1-1.072-.879,2.1,2.1,0,0,1-.347-1.213,2.467,2.467,0,0,1,.989-1.978,3.861,3.861,0,0,1,2.527-.809,3.974,3.974,0,0,1,2.624.835,2.652,2.652,0,0,1,1.006,2.136h-1.635a1.468,1.468,0,0,0-.567-1.151,2.124,2.124,0,0,0-1.428-.483,2.223,2.223,0,0,0-1.389.387,1.217,1.217,0,0,0-.5,1.011.986.986,0,0,0,.466.888,5.731,5.731,0,0,0,1.683.571,8.77,8.77,0,0,1,1.973.65,2.878,2.878,0,0,1,1.121.91,2.237,2.237,0,0,1,.365,1.3,2.434,2.434,0,0,1-1.02,2.043,4.277,4.277,0,0,1-2.646.769,4.789,4.789,0,0,1-2.021-.4,3.288,3.288,0,0,1-1.375-1.129,2.722,2.722,0,0,1-.5-1.569h1.626a1.683,1.683,0,0,0,.655,1.3,2.54,2.54,0,0,0,1.613.479,2.622,2.622,0,0,0,1.481-.374A1.148,1.148,0,0,0,112.426,38.078Zm11.584-2.25h-4.289V34.5h4.289ZM23.916,52.69l.053,1.2a3.465,3.465,0,0,1,2.848-1.371q3.015,0,3.041,3.4V62.2H28.231V55.907a2.189,2.189,0,0,0-.47-1.521,1.884,1.884,0,0,0-1.437-.492,2.347,2.347,0,0,0-1.389.422A2.865,2.865,0,0,0,24,55.424V62.2H22.378V52.69Zm7.963,4.667a5.617,5.617,0,0,1,.549-2.514,4.1,4.1,0,0,1,1.529-1.723,4.163,4.163,0,0,1,2.237-.606,4.01,4.01,0,0,1,3.142,1.345,5.174,5.174,0,0,1,1.2,3.577v.114A5.666,5.666,0,0,1,40,60.042a4.038,4.038,0,0,1-1.521,1.718,4.211,4.211,0,0,1-2.272.615,4,4,0,0,1-3.133-1.345,5.147,5.147,0,0,1-1.2-3.56Zm1.635.193a4.068,4.068,0,0,0,.734,2.54,2.487,2.487,0,0,0,3.933-.013,4.449,4.449,0,0,0,.729-2.72,4.061,4.061,0,0,0-.743-2.536,2.361,2.361,0,0,0-1.973-.971,2.335,2.335,0,0,0-1.942.958A4.416,4.416,0,0,0,33.513,57.551ZM52.9,61.26a3.454,3.454,0,0,1-2.786,1.116,2.956,2.956,0,0,1-2.316-.883,3.823,3.823,0,0,1-.8-2.615V52.69h1.626v6.144Q48.622,61,50.38,61a2.434,2.434,0,0,0,2.479-1.389V52.69h1.626V62.2H52.937Zm8.648-7.11a4.873,4.873,0,0,0-.8-.062A2.143,2.143,0,0,0,58.58,55.45V62.2H56.954V52.69h1.582l.026,1.1a2.532,2.532,0,0,1,2.268-1.274,1.661,1.661,0,0,1,.721.123Zm1.107,3.217a5.589,5.589,0,0,1,1.028-3.538,3.545,3.545,0,0,1,5.44-.083l.079-1.055h1.485v9.281A3.869,3.869,0,0,1,69.6,64.881a4.038,4.038,0,0,1-2.94,1.063,4.891,4.891,0,0,1-2.013-.439,3.465,3.465,0,0,1-1.5-1.2l.844-.976a3.18,3.18,0,0,0,2.558,1.292,2.491,2.491,0,0,0,1.85-.668,2.553,2.553,0,0,0,.664-1.881v-.817a3.342,3.342,0,0,1-2.663,1.125,3.248,3.248,0,0,1-2.7-1.345A5.876,5.876,0,0,1,62.658,57.366Zm1.635.185a4.264,4.264,0,0,0,.659,2.527A2.142,2.142,0,0,0,66.8,61a2.382,2.382,0,0,0,2.259-1.4V55.257a2.41,2.41,0,0,0-2.241-1.362,2.161,2.161,0,0,0-1.854.923A4.644,4.644,0,0,0,64.293,57.551Zm12.8,4.825a4.155,4.155,0,0,1-3.146-1.27,4.714,4.714,0,0,1-1.213-3.4v-.3a5.707,5.707,0,0,1,.541-2.527,4.217,4.217,0,0,1,1.512-1.74,3.8,3.8,0,0,1,2.1-.628,3.562,3.562,0,0,1,2.883,1.222,5.289,5.289,0,0,1,1.028,3.5v.677H74.356a3.38,3.38,0,0,0,.822,2.272,2.583,2.583,0,0,0,2,.866,2.832,2.832,0,0,0,1.459-.352,3.666,3.666,0,0,0,1.046-.932l.993.773A3.993,3.993,0,0,1,77.09,62.376Zm-.2-8.525a2.169,2.169,0,0,0-1.652.716,3.482,3.482,0,0,0-.826,2.008h4.764v-.123a3.1,3.1,0,0,0-.668-1.92A2.042,2.042,0,0,0,76.887,53.85Zm7.33-1.16.053,1.2a3.465,3.465,0,0,1,2.848-1.371q3.015,0,3.041,3.4V62.2H88.533V55.907a2.189,2.189,0,0,0-.47-1.521,1.884,1.884,0,0,0-1.437-.492,2.347,2.347,0,0,0-1.389.422,2.865,2.865,0,0,0-.932,1.107V62.2H82.679V52.69Zm10.6-2.3v2.3h1.775v1.257H94.817v5.9a1.32,1.32,0,0,0,.237.858,1,1,0,0,0,.809.286,3.937,3.937,0,0,0,.773-.105V62.2a4.742,4.742,0,0,1-1.248.175,2.025,2.025,0,0,1-1.644-.659,2.832,2.832,0,0,1-.554-1.872v-5.9H91.46V52.69h1.731v-2.3Zm7.62,11.988a4.155,4.155,0,0,1-3.146-1.27,4.714,4.714,0,0,1-1.213-3.4v-.3a5.707,5.707,0,0,1,.541-2.527,4.217,4.217,0,0,1,1.512-1.74,3.8,3.8,0,0,1,2.1-.628,3.562,3.562,0,0,1,2.883,1.222,5.289,5.289,0,0,1,1.028,3.5v.677H99.7a3.38,3.38,0,0,0,.822,2.272,2.583,2.583,0,0,0,2,.866,2.832,2.832,0,0,0,1.459-.352,3.666,3.666,0,0,0,1.046-.932l.993.773A3.993,3.993,0,0,1,102.437,62.376Zm-.2-8.525a2.169,2.169,0,0,0-1.652.716,3.482,3.482,0,0,0-.826,2.008h4.764v-.123a3.1,3.1,0,0,0-.668-1.92A2.042,2.042,0,0,0,102.235,53.85Zm11.329,5.827a1.2,1.2,0,0,0-.5-1.024,4.78,4.78,0,0,0-1.731-.628,8.186,8.186,0,0,1-1.96-.633,2.788,2.788,0,0,1-1.072-.879,2.1,2.1,0,0,1-.347-1.213,2.467,2.467,0,0,1,.989-1.978,3.861,3.861,0,0,1,2.527-.809,3.974,3.974,0,0,1,2.624.835,2.652,2.652,0,0,1,1.006,2.136h-1.635a1.468,1.468,0,0,0-.567-1.151,2.124,2.124,0,0,0-1.428-.483,2.223,2.223,0,0,0-1.389.387,1.217,1.217,0,0,0-.5,1.011.986.986,0,0,0,.466.888,5.731,5.731,0,0,0,1.683.571,8.77,8.77,0,0,1,1.973.65,2.878,2.878,0,0,1,1.121.91,2.237,2.237,0,0,1,.365,1.3,2.434,2.434,0,0,1-1.02,2.043,4.277,4.277,0,0,1-2.646.769,4.789,4.789,0,0,1-2.021-.4,3.288,3.288,0,0,1-1.375-1.129,2.722,2.722,0,0,1-.5-1.569h1.626a1.683,1.683,0,0,0,.655,1.3,2.54,2.54,0,0,0,1.613.479,2.622,2.622,0,0,0,1.481-.374A1.148,1.148,0,0,0,113.564,59.678Zm3.779,1.67a1.018,1.018,0,0,1,.25-.7.954.954,0,0,1,.751-.281.983.983,0,0,1,.76.281,1,1,0,0,1,.259.7.944.944,0,0,1-.259.677,1,1,0,0,1-.76.272.9.9,0,0,1-1-.949Z" transform="translate(305.909 371.745)" fill="#12263f"/>
      <g id="Grupo_91644" data-name="Grupo 91644">
        <g id="Grupo_91643" data-name="Grupo 91643">
          <g id="Grupo_91642" data-name="Grupo 91642">
            <path id="Trazado_119909" data-name="Trazado 119909" d="M128.652,104.234V87.619a16.614,16.614,0,0,0-33.229,0v16.615a4.752,4.752,0,0,0-4.747,4.747v3.56a1.186,1.186,0,0,0,1.187,1.187h40.35a1.186,1.186,0,0,0,1.186-1.187v-3.56A4.752,4.752,0,0,0,128.652,104.234ZM97.8,87.619a14.241,14.241,0,1,1,28.482,0v16.615H97.8Zm33.229,23.735H93.05v-2.373a2.376,2.376,0,0,1,2.373-2.374h33.229a2.376,2.376,0,0,1,2.374,2.374Z" fill="#3b4454"/>
            <path id="Trazado_119910" data-name="Trazado 119910" d="M112.038,68.631a1.186,1.186,0,0,0,1.187-1.187V62.7a1.187,1.187,0,0,0-2.374,0v4.748A1.186,1.186,0,0,0,112.038,68.631Z" fill="#3b4454"/>
            <path id="Trazado_119911" data-name="Trazado 119911" d="M123.9,69.818a1.182,1.182,0,0,0,.839-.348l3.563-3.56a1.187,1.187,0,0,0-1.678-1.678l-3.563,3.56a1.187,1.187,0,0,0,.839,2.026Z" fill="#3b4454"/>
            <path id="Trazado_119912" data-name="Trazado 119912" d="M99.329,69.47a1.187,1.187,0,0,0,1.678-1.678l-3.558-3.56a1.187,1.187,0,0,0-1.678,1.678Z" fill="#3b4454"/>
            <path id="Trazado_119913" data-name="Trazado 119913" d="M138.021,75.221a1.188,1.188,0,0,0-1.592-.531l-4.747,2.374a1.187,1.187,0,0,0,.531,2.248,1.2,1.2,0,0,0,.53-.125l4.747-2.374A1.187,1.187,0,0,0,138.021,75.221Z" fill="#3b4454"/>
            <path id="Trazado_119914" data-name="Trazado 119914" d="M91.863,79.312a1.187,1.187,0,0,0,.531-2.248L87.647,74.69a1.187,1.187,0,1,0-1.062,2.123l4.747,2.374A1.208,1.208,0,0,0,91.863,79.312Z" fill="#3b4454"/>
            <path id="Trazado_119915" data-name="Trazado 119915" d="M112.038,75.752A11.882,11.882,0,0,0,100.17,87.619a1.187,1.187,0,0,0,2.374,0,9.5,9.5,0,0,1,9.494-9.494,1.187,1.187,0,1,0,0-2.373Z" fill="#3b4454"/>
          </g>
        </g>
      </g>
      <g id="Grupo_91651" data-name="Grupo 91651">
        <g id="Grupo_91646" data-name="Grupo 91646">
          <g id="Grupo_91645" data-name="Grupo 91645">
            <path id="Trazado_119916" data-name="Trazado 119916" d="M170.914,72.978A20.736,20.736,0,1,0,191.65,93.714,20.725,20.725,0,0,0,170.914,72.978Zm0,38.232a17.5,17.5,0,1,1,17.5-17.5A17.486,17.486,0,0,1,170.914,111.21Z" fill="#3b4454"/>
          </g>
        </g>
        <g id="Grupo_91648" data-name="Grupo 91648">
          <g id="Grupo_91647" data-name="Grupo 91647">
            <path id="Trazado_119917" data-name="Trazado 119917" d="M170.914,83.417a1.62,1.62,0,0,0-1.62,1.62V95.469a1.62,1.62,0,1,0,3.24,0V85.037A1.62,1.62,0,0,0,170.914,83.417Z" fill="#3b4454"/>
          </g>
        </g>
        <g id="Grupo_91650" data-name="Grupo 91650">
          <g id="Grupo_91649" data-name="Grupo 91649">
            <circle id="Elipse_4098" data-name="Elipse 4098" cx="2.187" cy="2.187" r="2.187" transform="translate(168.727 99.073)" fill="#3b4454"/>
          </g>
        </g>
      </g>
      <g id="Grupo_91658" data-name="Grupo 91658">
        <g id="Grupo_91653" data-name="Grupo 91653">
          <g id="Grupo_91652" data-name="Grupo 91652">
            <path id="Trazado_119918" data-name="Trazado 119918" d="M402.675,72.978a20.736,20.736,0,1,0,20.736,20.736A20.724,20.724,0,0,0,402.675,72.978Zm0,38.232a17.5,17.5,0,1,1,17.5-17.5A17.486,17.486,0,0,1,402.675,111.21Z" fill="#60c1dd"/>
          </g>
        </g>
        <g id="Grupo_91655" data-name="Grupo 91655">
          <g id="Grupo_91654" data-name="Grupo 91654">
            <path id="Trazado_119919" data-name="Trazado 119919" d="M402.675,83.417a1.62,1.62,0,0,0-1.62,1.62V95.469a1.62,1.62,0,0,0,3.24,0V85.037A1.62,1.62,0,0,0,402.675,83.417Z" fill="#60c1dd"/>
          </g>
        </g>
        <g id="Grupo_91657" data-name="Grupo 91657">
          <g id="Grupo_91656" data-name="Grupo 91656">
            <circle id="Elipse_4099" data-name="Elipse 4099" cx="2.187" cy="2.187" r="2.187" transform="translate(400.488 99.073)" fill="#60c1dd"/>
          </g>
        </g>
      </g>
      <g id="Grupo_91662" data-name="Grupo 91662">
        <g id="Grupo_91661" data-name="Grupo 91661">
          <g id="Grupo_91660" data-name="Grupo 91660">
            <g id="Grupo_91659" data-name="Grupo 91659">
              <path id="Trazado_119920" data-name="Trazado 119920" d="M360.413,106.607V89.993a16.615,16.615,0,1,0-33.229,0v16.614a4.752,4.752,0,0,0-4.747,4.747v3.561a1.186,1.186,0,0,0,1.187,1.186h40.349a1.186,1.186,0,0,0,1.187-1.186v-3.561A4.752,4.752,0,0,0,360.413,106.607ZM329.558,89.993a14.241,14.241,0,1,1,28.482,0v16.614H329.558Zm33.229,23.735H324.811v-2.374a2.375,2.375,0,0,1,2.373-2.373h33.229a2.376,2.376,0,0,1,2.374,2.373Z" fill="#60c1dd"/>
              <path id="Trazado_119921" data-name="Trazado 119921" d="M343.8,71a1.186,1.186,0,0,0,1.186-1.187V65.071a1.186,1.186,0,1,0-2.373,0v4.747A1.186,1.186,0,0,0,343.8,71Z" fill="#60c1dd"/>
              <path id="Trazado_119922" data-name="Trazado 119922" d="M355.664,72.192a1.184,1.184,0,0,0,.839-.348l3.563-3.56a1.187,1.187,0,1,0-1.679-1.679l-3.562,3.561a1.187,1.187,0,0,0,.839,2.026Z" fill="#60c1dd"/>
              <path id="Trazado_119923" data-name="Trazado 119923" d="M331.09,71.844a1.187,1.187,0,0,0,1.678-1.678l-3.558-3.561a1.187,1.187,0,1,0-1.678,1.679Z" fill="#60c1dd"/>
              <path id="Trazado_119924" data-name="Trazado 119924" d="M369.782,77.594a1.19,1.19,0,0,0-1.593-.53l-4.747,2.373A1.187,1.187,0,0,0,364.5,81.56l4.747-2.373A1.188,1.188,0,0,0,369.782,77.594Z" fill="#60c1dd"/>
              <path id="Trazado_119925" data-name="Trazado 119925" d="M323.624,81.685a1.187,1.187,0,0,0,.531-2.248l-4.747-2.373a1.187,1.187,0,1,0-1.062,2.123l4.747,2.373A1.189,1.189,0,0,0,323.624,81.685Z" fill="#60c1dd"/>
              <path id="Trazado_119926" data-name="Trazado 119926" d="M343.8,78.125a11.881,11.881,0,0,0-11.868,11.868,1.187,1.187,0,1,0,2.374,0A9.5,9.5,0,0,1,343.8,80.5a1.187,1.187,0,0,0,0-2.374Z" fill="#60c1dd"/>
            </g>
          </g>
        </g>
        <line id="Línea_179" data-name="Línea 179" y1="46.853" x2="46.853" transform="translate(320.372 66.566)" fill="#60c1dd" stroke="#c54f4e" stroke-linecap="round" stroke-miterlimit="10" stroke-width="3"/>
      </g>
      <g id="Grupo_91669" data-name="Grupo 91669">
        <g id="Grupo_91664" data-name="Grupo 91664">
          <g id="Grupo_91663" data-name="Grupo 91663">
            <path id="Trazado_119927" data-name="Trazado 119927" d="M400.519,313.985a20.736,20.736,0,1,0,20.736,20.736A20.724,20.724,0,0,0,400.519,313.985Zm0,38.232a17.5,17.5,0,1,1,17.5-17.5A17.486,17.486,0,0,1,400.519,352.217Z" fill="#7faccb"/>
          </g>
        </g>
        <g id="Grupo_91666" data-name="Grupo 91666">
          <g id="Grupo_91665" data-name="Grupo 91665">
            <path id="Trazado_119928" data-name="Trazado 119928" d="M400.519,324.424a1.619,1.619,0,0,0-1.619,1.62v10.432a1.62,1.62,0,1,0,3.239,0V326.044A1.62,1.62,0,0,0,400.519,324.424Z" fill="#7faccb"/>
          </g>
        </g>
        <g id="Grupo_91668" data-name="Grupo 91668">
          <g id="Grupo_91667" data-name="Grupo 91667">
            <circle id="Elipse_4100" data-name="Elipse 4100" cx="2.187" cy="2.187" r="2.187" transform="translate(398.333 340.08)" fill="#7faccb"/>
          </g>
        </g>
      </g>
      <g id="Grupo_91672" data-name="Grupo 91672">
        <g id="Grupo_91671" data-name="Grupo 91671">
          <g id="Grupo_91670" data-name="Grupo 91670">
            <path id="Trazado_119929" data-name="Trazado 119929" d="M358.258,347.615V331a16.615,16.615,0,0,0-33.229,0v16.615a4.752,4.752,0,0,0-4.747,4.747v3.56a1.186,1.186,0,0,0,1.186,1.187h40.35a1.186,1.186,0,0,0,1.187-1.187v-3.56A4.752,4.752,0,0,0,358.258,347.615ZM327.4,331a14.241,14.241,0,1,1,28.482,0v16.615H327.4Zm33.229,23.735H322.655v-2.373a2.376,2.376,0,0,1,2.374-2.374h33.229a2.376,2.376,0,0,1,2.373,2.374Z" fill="#7faccb"/>
            <path id="Trazado_119930" data-name="Trazado 119930" d="M341.643,312.012a1.186,1.186,0,0,0,1.187-1.187v-4.747a1.187,1.187,0,0,0-2.374,0v4.748A1.186,1.186,0,0,0,341.643,312.012Z" fill="#7faccb"/>
            <path id="Trazado_119931" data-name="Trazado 119931" d="M353.508,313.2a1.184,1.184,0,0,0,.84-.348l3.562-3.56a1.187,1.187,0,1,0-1.678-1.678l-3.563,3.56a1.187,1.187,0,0,0,.839,2.026Z" fill="#7faccb"/>
            <path id="Trazado_119932" data-name="Trazado 119932" d="M328.934,312.851a1.187,1.187,0,0,0,1.678-1.678l-3.557-3.56a1.187,1.187,0,0,0-1.679,1.678Z" fill="#7faccb"/>
            <path id="Trazado_119933" data-name="Trazado 119933" d="M367.627,318.6a1.19,1.19,0,0,0-1.593-.531l-4.747,2.374a1.187,1.187,0,0,0,.531,2.248,1.208,1.208,0,0,0,.531-.125l4.747-2.374A1.188,1.188,0,0,0,367.627,318.6Z" fill="#7faccb"/>
            <path id="Trazado_119934" data-name="Trazado 119934" d="M321.468,322.693a1.187,1.187,0,0,0,.531-2.248l-4.747-2.374a1.187,1.187,0,1,0-1.061,2.123l4.747,2.374A1.2,1.2,0,0,0,321.468,322.693Z" fill="#7faccb"/>
            <path id="Trazado_119935" data-name="Trazado 119935" d="M341.643,319.133A11.881,11.881,0,0,0,329.776,331a1.186,1.186,0,1,0,2.373,0,9.5,9.5,0,0,1,9.494-9.494,1.187,1.187,0,1,0,0-2.373Z" fill="#7faccb"/>
          </g>
        </g>
      </g>
      <line id="Línea_180" data-name="Línea 180" y1="46.853" x2="46.853" transform="translate(378.713 307.574)" fill="none" stroke="#c54f4e" stroke-linecap="round" stroke-miterlimit="10" stroke-width="3"/>
      <g id="Grupo_91679" data-name="Grupo 91679">
        <g id="Grupo_91674" data-name="Grupo 91674">
          <g id="Grupo_91673" data-name="Grupo 91673">
            <path id="Trazado_119936" data-name="Trazado 119936" d="M163.369,313.985A20.736,20.736,0,1,0,184.1,334.721,20.724,20.724,0,0,0,163.369,313.985Zm0,38.232a17.5,17.5,0,1,1,17.5-17.5A17.486,17.486,0,0,1,163.369,352.217Z" fill="#7faccb"/>
          </g>
        </g>
        <g id="Grupo_91676" data-name="Grupo 91676">
          <g id="Grupo_91675" data-name="Grupo 91675">
            <path id="Trazado_119937" data-name="Trazado 119937" d="M163.369,324.424a1.62,1.62,0,0,0-1.62,1.62v10.432a1.62,1.62,0,0,0,3.24,0V326.044A1.62,1.62,0,0,0,163.369,324.424Z" fill="#7faccb"/>
          </g>
        </g>
        <g id="Grupo_91678" data-name="Grupo 91678">
          <g id="Grupo_91677" data-name="Grupo 91677">
            <circle id="Elipse_4101" data-name="Elipse 4101" cx="2.187" cy="2.187" r="2.187" transform="translate(161.182 340.08)" fill="#7faccb"/>
          </g>
        </g>
      </g>
      <g id="Grupo_91682" data-name="Grupo 91682" transform="translate(-6)">
        <g id="Grupo_91681" data-name="Grupo 91681">
          <g id="Grupo_91680" data-name="Grupo 91680">
            <path id="Trazado_119938" data-name="Trazado 119938" d="M121.107,347.615V331a16.615,16.615,0,0,0-33.229,0v16.615a4.752,4.752,0,0,0-4.747,4.747v3.56a1.186,1.186,0,0,0,1.187,1.187h40.349a1.186,1.186,0,0,0,1.187-1.187v-3.56A4.752,4.752,0,0,0,121.107,347.615ZM90.251,331a14.241,14.241,0,0,1,28.482,0v16.615H90.251Zm33.229,23.735H85.5v-2.373a2.376,2.376,0,0,1,2.374-2.374h33.229a2.376,2.376,0,0,1,2.373,2.374Z" fill="#7faccb"/>
            <path id="Trazado_119939" data-name="Trazado 119939" d="M104.492,312.012a1.186,1.186,0,0,0,1.187-1.187v-4.747a1.187,1.187,0,0,0-2.373,0v4.748A1.185,1.185,0,0,0,104.492,312.012Z" fill="#7faccb"/>
            <path id="Trazado_119940" data-name="Trazado 119940" d="M116.358,313.2a1.184,1.184,0,0,0,.839-.348l3.562-3.56a1.187,1.187,0,1,0-1.678-1.678l-3.562,3.56a1.187,1.187,0,0,0,.839,2.026Z" fill="#7faccb"/>
            <path id="Trazado_119941" data-name="Trazado 119941" d="M91.783,312.851a1.187,1.187,0,0,0,1.679-1.678l-3.558-3.56a1.187,1.187,0,1,0-1.678,1.678Z" fill="#7faccb"/>
            <path id="Trazado_119942" data-name="Trazado 119942" d="M130.476,318.6a1.19,1.19,0,0,0-1.593-.531l-4.747,2.374a1.187,1.187,0,0,0,.531,2.248,1.208,1.208,0,0,0,.531-.125l4.747-2.374A1.188,1.188,0,0,0,130.476,318.6Z" fill="#7faccb"/>
            <path id="Trazado_119943" data-name="Trazado 119943" d="M84.318,322.693a1.187,1.187,0,0,0,.53-2.248L80.1,318.071a1.187,1.187,0,1,0-1.061,2.123l4.747,2.374A1.2,1.2,0,0,0,84.318,322.693Z" fill="#7faccb"/>
            <path id="Trazado_119944" data-name="Trazado 119944" d="M104.492,319.133A11.881,11.881,0,0,0,92.625,331,1.187,1.187,0,1,0,95,331a9.5,9.5,0,0,1,9.494-9.494,1.187,1.187,0,1,0,0-2.373Z" fill="#7faccb"/>
          </g>
        </g>
      </g>
      <line id="Línea_181" data-name="Línea 181" y1="46.853" x2="46.853" transform="translate(137.503 307.574)" fill="none" stroke="#c54f4e" stroke-linecap="round" stroke-miterlimit="10" stroke-width="3"/>
      <line id="Línea_182" data-name="Línea 182" y1="46.853" x2="46.853" transform="translate(315.535 307.574)" fill="none" stroke="#c54f4e" stroke-linecap="round" stroke-miterlimit="10" stroke-width="3"/>
    </g>
  </g>
</svg>
