<svg xmlns="http://www.w3.org/2000/svg" width="273" height="293.388" viewBox="0 0 273 293.388">
  <g id="Grupo_91693" data-name="Grupo 91693" transform="translate(9243 8982.388)">
    <path id="Trazado_119946" data-name="Trazado 119946" d="M16,0H257a16,16,0,0,1,16,16V198a16,16,0,0,1-16,16H16A16,16,0,0,1,0,198V16A16,16,0,0,1,16,0Z" transform="translate(-9243 -8903)" fill="#3b4454"/>
    <g id="Grupo_91688" data-name="Grupo 91688" transform="translate(-9175.06 -8980.267)">
      <rect id="Rectángulo_33009" data-name="Rectángulo 33009" width="96.15" height="96.15" rx="13" transform="translate(0 67.988) rotate(-45)" fill="#fff" stroke="#3b4453" stroke-width="3"/>
    </g>
    <path id="Trazado_119949" data-name="Trazado 119949" d="M0,0H217V63H0Z" transform="translate(-9214 -8781)" fill="#fff"/>
    <path id="Trazado_119955" data-name="Trazado 119955" d="M6.727-3.023A1.127,1.127,0,0,0,6.3-3.961a5.292,5.292,0,0,0-1.5-.7,14.353,14.353,0,0,1-1.75-.7A3.314,3.314,0,0,1,.844-8.336,2.676,2.676,0,0,1,1.395-10a3.562,3.562,0,0,1,1.559-1.125,6.065,6.065,0,0,1,2.266-.4,5.305,5.305,0,0,1,2.2.438A3.482,3.482,0,0,1,8.93-9.848,3.254,3.254,0,0,1,9.469-8H6.734a1.375,1.375,0,0,0-.426-1.078,1.66,1.66,0,0,0-1.152-.383A1.872,1.872,0,0,0,4-9.137a1,1,0,0,0-.426.824,1,1,0,0,0,.469.793,5.911,5.911,0,0,0,1.648.734,10.1,10.1,0,0,1,1.938.816,3.256,3.256,0,0,1,1.844,2.93A2.778,2.778,0,0,1,8.344-.7,5,5,0,0,1,5.258.156a6.122,6.122,0,0,1-2.5-.5A3.775,3.775,0,0,1,1.066-1.7,3.542,3.542,0,0,1,.5-3.687H3.25A1.744,1.744,0,0,0,3.723-2.34a2.234,2.234,0,0,0,1.535.434A1.765,1.765,0,0,0,6.332-2.2.967.967,0,0,0,6.727-3.023ZM14.844.156A4.345,4.345,0,0,1,11.7-1a4.006,4.006,0,0,1-1.2-3.02v-.219a5.191,5.191,0,0,1,.48-2.289,3.516,3.516,0,0,1,1.4-1.535,4.233,4.233,0,0,1,2.188-.543A3.659,3.659,0,0,1,17.375-7.5a4.344,4.344,0,0,1,1.031,3.082V-3.4H13.172a1.9,1.9,0,0,0,.617,1.117,1.836,1.836,0,0,0,1.234.406,2.366,2.366,0,0,0,1.953-.875l1.2,1.422A3.363,3.363,0,0,1,16.785-.246,4.713,4.713,0,0,1,14.844.156Zm-.3-6.734q-1.156,0-1.375,1.531h2.656v-.2a1.3,1.3,0,0,0-.32-.98A1.275,1.275,0,0,0,14.547-6.578ZM31.3-4.164A5.1,5.1,0,0,1,30.41-1.02,2.843,2.843,0,0,1,28.016.156,2.437,2.437,0,0,1,26.1-.7V3.25H23.469v-11.7H25.93l.078.781A2.437,2.437,0,0,1,28-8.609a2.866,2.866,0,0,1,2.43,1.152A5.16,5.16,0,0,1,31.3-4.289Zm-2.633-.164q0-2.25-1.312-2.25a1.239,1.239,0,0,0-1.25.672v3.328a1.279,1.279,0,0,0,1.266.7q1.258,0,1.3-2.172ZM37.57-6.07,36.7-6.133a1.558,1.558,0,0,0-1.594.781V0H32.477V-8.453h2.469l.086,1.086a2.039,2.039,0,0,1,1.852-1.242,2.567,2.567,0,0,1,.734.094ZM42.461.156A4.345,4.345,0,0,1,39.313-1a4.006,4.006,0,0,1-1.2-3.02v-.219a5.191,5.191,0,0,1,.48-2.289,3.516,3.516,0,0,1,1.4-1.535,4.233,4.233,0,0,1,2.188-.543A3.659,3.659,0,0,1,44.992-7.5a4.344,4.344,0,0,1,1.031,3.082V-3.4H40.789a1.9,1.9,0,0,0,.617,1.117,1.836,1.836,0,0,0,1.234.406,2.366,2.366,0,0,0,1.953-.875l1.2,1.422A3.363,3.363,0,0,1,44.4-.246,4.713,4.713,0,0,1,42.461.156Zm-.3-6.734q-1.156,0-1.375,1.531h2.656v-.2a1.3,1.3,0,0,0-.32-.98A1.275,1.275,0,0,0,42.164-6.578Zm9.344,4.2a.608.608,0,0,0-.352-.539,5.348,5.348,0,0,0-1.336-.422A6.092,6.092,0,0,1,48.2-3.91a2.722,2.722,0,0,1-.977-.863,2.061,2.061,0,0,1-.336-1.164,2.336,2.336,0,0,1,.961-1.918,3.958,3.958,0,0,1,2.516-.754,4.386,4.386,0,0,1,2.688.758,2.37,2.37,0,0,1,1.016,1.992H51.422q0-1.016-1.07-1.016a1.061,1.061,0,0,0-.7.23.714.714,0,0,0-.281.574.655.655,0,0,0,.344.57,3.248,3.248,0,0,0,1.1.359,9.485,9.485,0,0,1,1.324.336,2.406,2.406,0,0,1,1.906,2.352A2.214,2.214,0,0,1,53.02-.57a4.505,4.505,0,0,1-2.66.727,4.6,4.6,0,0,1-1.937-.391A3.24,3.24,0,0,1,47.094-1.3a2.406,2.406,0,0,1-.477-1.414h2.461a1.017,1.017,0,0,0,.391.855,1.607,1.607,0,0,0,.961.27,1.264,1.264,0,0,0,.809-.219A.7.7,0,0,0,51.508-2.375ZM59.367.156A4.345,4.345,0,0,1,56.219-1a4.006,4.006,0,0,1-1.2-3.02v-.219a5.191,5.191,0,0,1,.48-2.289,3.516,3.516,0,0,1,1.4-1.535,4.233,4.233,0,0,1,2.188-.543A3.659,3.659,0,0,1,61.9-7.5,4.344,4.344,0,0,1,62.93-4.422V-3.4H57.7a1.9,1.9,0,0,0,.617,1.117,1.836,1.836,0,0,0,1.234.406A2.366,2.366,0,0,0,61.5-2.75l1.2,1.422A3.363,3.363,0,0,1,61.309-.246,4.713,4.713,0,0,1,59.367.156Zm-.3-6.734q-1.156,0-1.375,1.531h2.656v-.2a1.3,1.3,0,0,0-.32-.98A1.275,1.275,0,0,0,59.07-6.578Zm7.336-1.875.086.992a2.867,2.867,0,0,1,2.414-1.148,2.412,2.412,0,0,1,1.973.789,3.757,3.757,0,0,1,.676,2.375V0H68.914V-5.336a1.426,1.426,0,0,0-.258-.941,1.193,1.193,0,0,0-.937-.3,1.256,1.256,0,0,0-1.148.609V0H63.938V-8.453Zm9.672-2.1v2.1h1.391v1.828H76.078v3.867a.987.987,0,0,0,.172.664.922.922,0,0,0,.68.188,3.862,3.862,0,0,0,.656-.047V-.07A4.859,4.859,0,0,1,76.1.156a2.758,2.758,0,0,1-2.008-.641,2.626,2.626,0,0,1-.648-1.945v-4.2H72.367V-8.453h1.078v-2.1ZM83.266,0a2.973,2.973,0,0,1-.25-.758,2.448,2.448,0,0,1-2.031.914,3,3,0,0,1-2.031-.723,2.3,2.3,0,0,1-.836-1.816,2.364,2.364,0,0,1,1.016-2.078,5.174,5.174,0,0,1,2.953-.7H82.9v-.448q0-1.17-1.008-1.17a.824.824,0,0,0-.937.926H78.32a2.36,2.36,0,0,1,1.043-1.99,4.383,4.383,0,0,1,2.66-.765,3.843,3.843,0,0,1,2.555.789,2.743,2.743,0,0,1,.961,2.164v3.742A3.832,3.832,0,0,0,85.9-.133V0ZM81.617-1.719a1.469,1.469,0,0,0,.816-.211,1.322,1.322,0,0,0,.465-.477V-3.758h-.766q-1.375,0-1.375,1.234A.754.754,0,0,0,81-1.941.876.876,0,0,0,81.617-1.719Zm7.8-6.734.086.992a2.867,2.867,0,0,1,2.414-1.148,2.412,2.412,0,0,1,1.973.789,3.757,3.757,0,0,1,.676,2.375V0H91.922V-5.336a1.426,1.426,0,0,0-.258-.941,1.193,1.193,0,0,0-.937-.3,1.256,1.256,0,0,0-1.148.609V0H86.945V-8.453Zm13.961,5.32,1.336-5.32h2.773L104.727,0h-2.687L99.281-8.453h2.781ZM112.258.156A4.345,4.345,0,0,1,109.109-1a4.006,4.006,0,0,1-1.2-3.02v-.219a5.191,5.191,0,0,1,.48-2.289,3.516,3.516,0,0,1,1.4-1.535,4.233,4.233,0,0,1,2.188-.543A3.659,3.659,0,0,1,114.789-7.5a4.344,4.344,0,0,1,1.031,3.082V-3.4h-5.234a1.9,1.9,0,0,0,.617,1.117,1.836,1.836,0,0,0,1.234.406,2.366,2.366,0,0,0,1.953-.875l1.2,1.422A3.363,3.363,0,0,1,114.2-.246,4.713,4.713,0,0,1,112.258.156Zm-.3-6.734q-1.156,0-1.375,1.531h2.656v-.2a1.3,1.3,0,0,0-.32-.98A1.275,1.275,0,0,0,111.961-6.578ZM119.3-8.453l.086.992A2.867,2.867,0,0,1,121.8-8.609a2.412,2.412,0,0,1,1.973.789,3.757,3.757,0,0,1,.676,2.375V0H121.8V-5.336a1.426,1.426,0,0,0-.258-.941,1.193,1.193,0,0,0-.937-.3,1.256,1.256,0,0,0-1.148.609V0h-2.633V-8.453Zm9.672-2.1v2.1h1.391v1.828h-1.391v3.867a.987.987,0,0,0,.172.664.922.922,0,0,0,.68.188,3.862,3.862,0,0,0,.656-.047V-.07a4.859,4.859,0,0,1-1.484.227,2.758,2.758,0,0,1-2.008-.641,2.626,2.626,0,0,1-.648-1.945v-4.2h-1.078V-8.453h1.078v-2.1ZM136.156,0a2.973,2.973,0,0,1-.25-.758,2.448,2.448,0,0,1-2.031.914,3,3,0,0,1-2.031-.723,2.3,2.3,0,0,1-.836-1.816,2.364,2.364,0,0,1,1.016-2.078,5.174,5.174,0,0,1,2.953-.7h.813v-.448q0-1.17-1.008-1.17a.824.824,0,0,0-.937.926h-2.633a2.36,2.36,0,0,1,1.043-1.99,4.383,4.383,0,0,1,2.66-.765,3.843,3.843,0,0,1,2.555.789,2.743,2.743,0,0,1,.961,2.164v3.742a3.832,3.832,0,0,0,.359,1.781V0Zm-1.648-1.719a1.469,1.469,0,0,0,.816-.211,1.322,1.322,0,0,0,.465-.477V-3.758h-.766q-1.375,0-1.375,1.234a.754.754,0,0,0,.242.582A.876.876,0,0,0,134.508-1.719Zm9.8-.656a.608.608,0,0,0-.352-.539,5.348,5.348,0,0,0-1.336-.422A6.092,6.092,0,0,1,141-3.91a2.722,2.722,0,0,1-.977-.863,2.061,2.061,0,0,1-.336-1.164,2.336,2.336,0,0,1,.961-1.918,3.958,3.958,0,0,1,2.516-.754,4.386,4.386,0,0,1,2.688.758,2.37,2.37,0,0,1,1.016,1.992h-2.641q0-1.016-1.07-1.016a1.061,1.061,0,0,0-.7.23.714.714,0,0,0-.281.574.655.655,0,0,0,.344.57,3.248,3.248,0,0,0,1.1.359,9.485,9.485,0,0,1,1.324.336,2.406,2.406,0,0,1,1.906,2.352A2.214,2.214,0,0,1,145.824-.57a4.505,4.505,0,0,1-2.66.727,4.6,4.6,0,0,1-1.937-.391A3.24,3.24,0,0,1,139.9-1.3a2.406,2.406,0,0,1-.477-1.414h2.461a1.017,1.017,0,0,0,.391.855,1.607,1.607,0,0,0,.961.27,1.264,1.264,0,0,0,.809-.219A.7.7,0,0,0,144.313-2.375Zm15.6-1.789a5.1,5.1,0,0,1-.887,3.145A2.843,2.843,0,0,1,156.633.156,2.437,2.437,0,0,1,154.719-.7V3.25h-2.633v-11.7h2.461l.078.781a2.437,2.437,0,0,1,1.992-.937,2.866,2.866,0,0,1,2.43,1.152,5.16,5.16,0,0,1,.867,3.168Zm-2.633-.164q0-2.25-1.312-2.25a1.239,1.239,0,0,0-1.25.672v3.328a1.279,1.279,0,0,0,1.266.7q1.258,0,1.3-2.172Zm3.461.023a4.989,4.989,0,0,1,.492-2.254,3.52,3.52,0,0,1,1.414-1.52,4.259,4.259,0,0,1,2.164-.531A3.887,3.887,0,0,1,167.8-7.434a4.512,4.512,0,0,1,1.094,3.2v.094A4.378,4.378,0,0,1,167.8-1a3.9,3.9,0,0,1-2.973,1.16,3.942,3.942,0,0,1-2.9-1.082,4.232,4.232,0,0,1-1.18-2.934Zm2.633.164a3.145,3.145,0,0,0,.367,1.719,1.223,1.223,0,0,0,1.086.547q1.406,0,1.438-2.164V-4.3q0-2.273-1.453-2.273-1.32,0-1.43,1.961Zm11.8-1.93-.867-.062a1.558,1.558,0,0,0-1.594.781V0h-2.633V-8.453h2.469l.086,1.086a2.039,2.039,0,0,1,1.852-1.242,2.567,2.567,0,0,1,.734.094Z" transform="translate(-9195 -8803)" fill="#fff"/>
    <path id="Trazado_119956" data-name="Trazado 119956" d="M5.852-2.563a1.423,1.423,0,0,0-.441-1.06A3.944,3.944,0,0,0,3.924-4.4,4.766,4.766,0,0,1,1.8-5.561a2.555,2.555,0,0,1-.667-1.815,2.628,2.628,0,0,1,.653-1.839,2.774,2.774,0,0,1,1.794-.854v-1.5H4.6v1.5A2.635,2.635,0,0,1,6.388-9.1a3.464,3.464,0,0,1,.639,2.208H5.77a2.381,2.381,0,0,0-.458-1.536A1.5,1.5,0,0,0,4.074-9a1.707,1.707,0,0,0-1.244.421A1.567,1.567,0,0,0,2.4-7.4a1.432,1.432,0,0,0,.455,1.113,4.188,4.188,0,0,0,1.5.753,6.3,6.3,0,0,1,1.627.746,2.617,2.617,0,0,1,.861.947,2.737,2.737,0,0,1,.277,1.265A2.534,2.534,0,0,1,6.422-.718,3.077,3.077,0,0,1,4.478.116V1.422H3.466V.116A2.948,2.948,0,0,1,1.473-.79,3.056,3.056,0,0,1,.752-2.933H2.017a2.012,2.012,0,0,0,.5,1.463,1.884,1.884,0,0,0,1.415.513,2.123,2.123,0,0,0,1.408-.431A1.454,1.454,0,0,0,5.852-2.563ZM18.676,0H12.154V-.909L15.6-4.737a8.185,8.185,0,0,0,1.056-1.412,2.356,2.356,0,0,0,.291-1.125,1.786,1.786,0,0,0-.472-1.278,1.649,1.649,0,0,0-1.258-.5,1.953,1.953,0,0,0-1.466.537,2.05,2.05,0,0,0-.523,1.494H11.963a2.936,2.936,0,0,1,.885-2.222,3.282,3.282,0,0,1,2.369-.848,3.153,3.153,0,0,1,2.194.728,2.483,2.483,0,0,1,.807,1.938q0,1.47-1.873,3.5L13.679-1.032h5ZM20.6-4.99,21.1-9.953h5.1v1.169H22.176l-.3,2.714A3.212,3.212,0,0,1,23.536-6.5a2.746,2.746,0,0,1,2.16.9,3.523,3.523,0,0,1,.8,2.43,3.4,3.4,0,0,1-.831,2.423,3.027,3.027,0,0,1-2.321.885,3.146,3.146,0,0,1-2.153-.731,2.919,2.919,0,0,1-.95-2.023h1.2a2.009,2.009,0,0,0,.608,1.289,1.892,1.892,0,0,0,1.3.434,1.706,1.706,0,0,0,1.384-.6,2.515,2.515,0,0,0,.5-1.661,2.308,2.308,0,0,0-.543-1.6,1.849,1.849,0,0,0-1.446-.6,2.085,2.085,0,0,0-1.3.362l-.335.273Zm13.521.745a5.784,5.784,0,0,1-.759,3.3A2.7,2.7,0,0,1,30.987.137,2.718,2.718,0,0,1,28.629-.919a5.49,5.49,0,0,1-.793-3.155V-5.763a5.655,5.655,0,0,1,.759-3.261,2.719,2.719,0,0,1,2.379-1.066,2.744,2.744,0,0,1,2.365,1.029,5.458,5.458,0,0,1,.779,3.175ZM32.854-5.975A4.634,4.634,0,0,0,32.4-8.316a1.553,1.553,0,0,0-1.429-.735,1.532,1.532,0,0,0-1.415.731A4.525,4.525,0,0,0,29.1-6.07v2.023a4.708,4.708,0,0,0,.468,2.382A1.55,1.55,0,0,0,30.987-.9a1.529,1.529,0,0,0,1.391-.725A4.538,4.538,0,0,0,32.854-3.9Zm2.974,7.957-.718-.492a3.3,3.3,0,0,0,.67-1.846V-1.5h1.237v.991A3.114,3.114,0,0,1,36.678.875,3.233,3.233,0,0,1,35.827,1.982Zm8.9-6.228a5.784,5.784,0,0,1-.759,3.3A2.7,2.7,0,0,1,41.6.137,2.718,2.718,0,0,1,39.238-.919a5.49,5.49,0,0,1-.793-3.155V-5.763A5.655,5.655,0,0,1,39.2-9.023a2.719,2.719,0,0,1,2.379-1.066,2.744,2.744,0,0,1,2.365,1.029,5.458,5.458,0,0,1,.779,3.175ZM43.463-5.975a4.634,4.634,0,0,0-.451-2.341,1.553,1.553,0,0,0-1.429-.735,1.532,1.532,0,0,0-1.415.731A4.525,4.525,0,0,0,39.71-6.07v2.023a4.708,4.708,0,0,0,.468,2.382A1.55,1.55,0,0,0,41.6-.9a1.529,1.529,0,0,0,1.391-.725A4.538,4.538,0,0,0,43.463-3.9Zm9.126,1.729a5.784,5.784,0,0,1-.759,3.3A2.7,2.7,0,0,1,49.458.137,2.718,2.718,0,0,1,47.1-.919a5.49,5.49,0,0,1-.793-3.155V-5.763a5.655,5.655,0,0,1,.759-3.261,2.719,2.719,0,0,1,2.379-1.066A2.744,2.744,0,0,1,51.81-9.061a5.458,5.458,0,0,1,.779,3.175ZM51.324-5.975a4.634,4.634,0,0,0-.451-2.341,1.553,1.553,0,0,0-1.429-.735,1.532,1.532,0,0,0-1.415.731,4.525,4.525,0,0,0-.458,2.249v2.023a4.708,4.708,0,0,0,.468,2.382A1.55,1.55,0,0,0,49.458-.9a1.529,1.529,0,0,0,1.391-.725A4.538,4.538,0,0,0,51.324-3.9ZM60.45-4.245a5.784,5.784,0,0,1-.759,3.3A2.7,2.7,0,0,1,57.319.137,2.718,2.718,0,0,1,54.961-.919a5.49,5.49,0,0,1-.793-3.155V-5.763a5.655,5.655,0,0,1,.759-3.261,2.719,2.719,0,0,1,2.379-1.066,2.744,2.744,0,0,1,2.365,1.029,5.458,5.458,0,0,1,.779,3.175ZM59.186-5.975a4.634,4.634,0,0,0-.451-2.341,1.553,1.553,0,0,0-1.429-.735,1.532,1.532,0,0,0-1.415.731,4.525,4.525,0,0,0-.458,2.249v2.023A4.708,4.708,0,0,0,55.9-1.665,1.55,1.55,0,0,0,57.319-.9,1.529,1.529,0,0,0,58.71-1.62,4.538,4.538,0,0,0,59.186-3.9Z" transform="translate(-9138 -8744)" fill="#12263f"/>
    <g id="Grupo_91690" data-name="Grupo 91690" transform="translate(-9131.088 -8933.539)">
      <path id="Trazado_100539" data-name="Trazado 100539" d="M1323.122,521.635l-4.652-4.142a4.507,4.507,0,0,1,6-6.723l13.506,12.005a4.5,4.5,0,0,1,.367,6.356,4.453,4.453,0,0,1-.367.367L1324.473,541.5a4.507,4.507,0,1,1-6-6.723l4.652-4.142h-24.161a4.5,4.5,0,0,1,0-9Z" transform="translate(-1292.958 -508.123)" fill="#60c1dd"/>
      <path id="Trazado_100540" data-name="Trazado 100540" d="M1318.3,540.967a6,6,0,0,1-4-10.487l1.7-1.519h-20.217a6,6,0,1,1,0-12.006H1316l-1.708-1.519a6.008,6.008,0,1,1,8-8.968l13.506,12.006a6,6,0,0,1,.5,8.474,5.893,5.893,0,0,1-.5.5l-13.506,12.005A5.978,5.978,0,0,1,1318.3,540.967Zm-22.51-21.01a3,3,0,1,0,0,6h24.161a1.5,1.5,0,0,1,1,2.623l-4.649,4.139a3,3,0,0,0-.246,4.237l.009.01a3.118,3.118,0,0,0,4.241.24L1333.8,525.2a3.017,3.017,0,0,0,.215-4.26c-.068-.075-.14-.147-.215-.215L1320.3,508.723a3,3,0,0,0-4.007,4.469l4.652,4.142a1.5,1.5,0,0,1-1,2.623Z" transform="translate(-1289.782 -504.944)" fill="#3b4454"/>
    </g>
  </g>
</svg>
