<?xml version="1.0" encoding="utf-8"?>
<!-- Generator: Adobe Illustrator 25.4.1, SVG Export Plug-In . SVG Version: 6.00 Build 0)  -->
<svg version="1.1" id="Layer_1" xmlns="http://www.w3.org/2000/svg" xmlns:xlink="http://www.w3.org/1999/xlink" x="0px" y="0px"
	 viewBox="0 0 646.1 617.3" style="enable-background:new 0 0 646.1 617.3;" xml:space="preserve">
<style type="text/css">
	.st0{fill:#30616F;}
	.st1{fill:url(#Elipse_4083_00000036944450286999288430000014694222748867004857_);}
	.st2{fill:#F9F9F9;}
	.st3{fill:#4891A6;}
	.st4{fill:url(#Elipse_4081_00000024692527625603616090000007115332356491135404_);}
	.st5{fill:#60C1DD;}
	.st6{fill:url(#Elipse_4079_00000117639701461588574680000011378044750172256179_);}
	.st7{fill:#80CDE4;}
	.st8{fill:url(#Elipse_4075_00000112602484730365506560000015951974264905476786_);}
	.st9{fill:#BFE6F1;}
	.st10{fill:url(#Elipse_4077_00000104670164609901758810000014006339506303921570_);}
	.st11{fill:url(#Elipse_4073_00000072268474718591490270000013024877334463518391_);}
	.st12{clip-path:url(#SVGID_00000093178859290095724950000016497620820312269755_);}
	.st13{fill:#3B4454;}
	.st14{opacity:0.3;enable-background:new    ;}
	.st15{opacity:0.3;fill:#FFFFFF;enable-background:new    ;}
	.st16{opacity:0.4;fill:#FFFFFF;enable-background:new    ;}
	.st17{opacity:0.2;fill:#FFFFFF;enable-background:new    ;}
	.st18{opacity:0.1;fill:#FFFFFF;enable-background:new    ;}
	.st19{opacity:0.3;}
	.st20{fill:#FFFFFF;}
	.st21{opacity:0.4;}
	.st22{opacity:0.2;enable-background:new    ;}
	.st23{opacity:0.5;enable-background:new    ;}
	.st24{fill:#007CFF;}
	.st25{opacity:0.6;fill:#FFFFFF;enable-background:new    ;}
	.st26{fill:#FCB373;}
	.st27{fill:#263237;}
	.st28{fill:#EC873E;}
	.st29{fill:none;stroke:#1A2E35;stroke-width:0.72;stroke-linecap:round;stroke-linejoin:round;}
	.st30{opacity:0.7;fill:#FFFFFF;enable-background:new    ;}
	.st31{opacity:0.5;fill:#FFFFFF;enable-background:new    ;}
</style>
<g>
	<path id="Trazado_113627" class="st0" d="M348.4,321.5l-9.6-8.1l-118,140.5c-7.2,8.6-19.3,11.4-29.6,6.8
		c-40.7-18.1-88.3,0.2-106.4,40.9S85,589.9,125.7,608c40.7,18.1,88.3-0.2,106.4-40.9c10.7-24.2,8.9-52.1-4.8-74.6
		c-5.6-9.3-4.7-21.2,2.4-29.5L348.4,321.5z M237,534.3c0.1,43.4-35.1,78.6-78.5,78.7c-43.4,0.1-78.6-35.1-78.7-78.5
		s35.1-78.6,78.5-78.7c17.1,0,33.8,5.6,47.5,15.9l-0.3,0.3l9.6,8.1l0,0C229.2,494.7,237,514.1,237,534.3z"/>
	
		<linearGradient id="Elipse_4083_00000047054357222456103100000001572240812168807040_" gradientUnits="userSpaceOnUse" x1="-1261.9087" y1="4.509" x2="-1261.1165" y2="3.7166" gradientTransform="matrix(127.084 0 0 127.084 160476.6719 11.6316)">
		<stop  offset="0" style="stop-color:#EBEAEA"/>
		<stop  offset="1" style="stop-color:#FFFFFF"/>
	</linearGradient>
	
		<circle id="Elipse_4083" style="fill:url(#Elipse_4083_00000047054357222456103100000001572240812168807040_);" cx="158.6" cy="534.3" r="71.2"/>
	<circle id="Elipse_4084" class="st2" cx="158.6" cy="534.3" r="65"/>
	<g>
		<path d="M103.8,537.5c-0.1,1.3-0.6,2.2-1.4,2.9s-1.8,1-3.1,1c-1.4,0-2.6-0.5-3.4-1.5c-0.9-1-1.3-2.4-1.3-4.1v-1.2
			c0-1.1,0.2-2.1,0.6-2.9s1-1.5,1.7-2s1.6-0.7,2.5-0.7c1.3,0,2.3,0.4,3.1,1.1c0.8,0.7,1.2,1.7,1.3,3h-1.6c-0.1-1-0.4-1.7-0.9-2.1
			c-0.5-0.4-1.1-0.6-1.9-0.6c-1,0-1.8,0.4-2.4,1.1c-0.6,0.7-0.9,1.8-0.9,3.2v1.2c0,1.3,0.3,2.3,0.8,3.1s1.3,1.2,2.3,1.2
			c0.9,0,1.6-0.2,2-0.6c0.5-0.4,0.8-1.1,0.9-2.1L103.8,537.5L103.8,537.5z"/>
		<path d="M105.3,536.8c0-0.9,0.2-1.7,0.5-2.4s0.8-1.2,1.4-1.6c0.6-0.4,1.3-0.6,2.1-0.6c1.2,0,2.2,0.4,2.9,1.3
			c0.8,0.8,1.1,2,1.1,3.4v0.1c0,0.9-0.2,1.6-0.5,2.3s-0.8,1.2-1.4,1.6c-0.6,0.4-1.3,0.6-2.1,0.6c-1.2,0-2.2-0.4-2.9-1.3
			C105.6,539.4,105.3,538.2,105.3,536.8L105.3,536.8z M106.9,536.9c0,1,0.2,1.8,0.7,2.4c0.5,0.6,1.1,0.9,1.8,0.9
			c0.8,0,1.4-0.3,1.8-0.9c0.5-0.6,0.7-1.5,0.7-2.6c0-1-0.2-1.8-0.7-2.4c-0.5-0.6-1.1-0.9-1.9-0.9s-1.4,0.3-1.8,0.9
			C107.1,535,106.9,535.8,106.9,536.9z"/>
		<path d="M116.8,532.4v1.1c0.7-0.9,1.6-1.3,2.7-1.3c1.9,0,2.8,1.1,2.9,3.2v5.9h-1.5v-5.9c0-0.6-0.2-1.1-0.4-1.4
			c-0.3-0.3-0.7-0.5-1.3-0.5c-0.5,0-0.9,0.1-1.3,0.4c-0.4,0.3-0.7,0.6-0.9,1v6.4h-1.5v-8.9H116.8z"/>
		<path d="M125.4,541.3v-7.7H124v-1.2h1.4v-0.9c0-1,0.3-1.7,0.8-2.2s1.2-0.8,2.2-0.8c0.4,0,0.7,0,1,0.1l-0.1,1.2
			c-0.3,0-0.5-0.1-0.8-0.1c-0.5,0-0.9,0.1-1.1,0.4c-0.3,0.3-0.4,0.7-0.4,1.2v0.9h1.9v1.2H127v7.7h-1.6V541.3z"/>
		<path d="M130.6,530c0-0.2,0.1-0.5,0.2-0.6c0.2-0.2,0.4-0.3,0.7-0.3s0.5,0.1,0.7,0.3s0.2,0.4,0.2,0.6s-0.1,0.5-0.2,0.6
			c-0.2,0.2-0.4,0.2-0.7,0.2s-0.5-0.1-0.7-0.2C130.6,530.5,130.6,530.3,130.6,530z M132.2,541.3h-1.5v-8.9h1.5V541.3z"/>
		<path d="M134.3,536.8c0-1.4,0.3-2.5,1-3.3c0.6-0.8,1.5-1.2,2.5-1.2s1.9,0.4,2.5,1.1v-4.7h1.5v12.7h-1.4l-0.1-1
			c-0.6,0.7-1.5,1.1-2.5,1.1s-1.9-0.4-2.5-1.3C134.6,539.4,134.3,538.2,134.3,536.8L134.3,536.8z M135.8,536.9c0,1,0.2,1.8,0.6,2.4
			s1,0.9,1.7,0.9c1,0,1.7-0.4,2.1-1.3v-4.1c-0.5-0.8-1.2-1.3-2.1-1.3c-0.7,0-1.3,0.3-1.7,0.9C136,535,135.8,535.8,135.8,536.9z"/>
		<path d="M147.9,541.5c-1.2,0-2.2-0.4-3-1.2s-1.1-1.9-1.1-3.2v-0.3c0-0.9,0.2-1.7,0.5-2.4s0.8-1.2,1.4-1.6c0.6-0.4,1.3-0.6,2-0.6
			c1.2,0,2.1,0.4,2.7,1.1c0.6,0.8,1,1.9,1,3.3v0.6h-6c0,0.9,0.3,1.6,0.8,2.1s1.1,0.8,1.9,0.8c0.5,0,1-0.1,1.4-0.3s0.7-0.5,1-0.9
			l0.9,0.7C150.5,540.9,149.4,541.5,147.9,541.5z M147.7,533.5c-0.6,0-1.1,0.2-1.6,0.7c-0.4,0.4-0.7,1.1-0.8,1.9h4.5V536
			c0-0.8-0.3-1.4-0.6-1.8C148.8,533.7,148.3,533.5,147.7,533.5z"/>
		<path d="M154.6,532.4v1.1c0.7-0.9,1.6-1.3,2.7-1.3c1.9,0,2.8,1.1,2.9,3.2v5.9h-1.5v-5.9c0-0.6-0.2-1.1-0.4-1.4
			c-0.3-0.3-0.7-0.5-1.3-0.5c-0.5,0-0.9,0.1-1.3,0.4c-0.4,0.3-0.7,0.6-0.9,1v6.4h-1.5v-8.9H154.6z"/>
		<path d="M166,540.2c0.5,0,1-0.2,1.4-0.5s0.6-0.7,0.7-1.2h1.4c0,0.5-0.2,1-0.5,1.5s-0.8,0.8-1.3,1.1s-1.1,0.4-1.7,0.4
			c-1.2,0-2.2-0.4-2.9-1.2s-1.1-1.9-1.1-3.3v-0.3c0-0.9,0.2-1.6,0.5-2.3s0.8-1.2,1.4-1.6c0.6-0.4,1.3-0.6,2.1-0.6
			c1,0,1.8,0.3,2.5,0.9c0.7,0.6,1,1.4,1.1,2.3h-1.4c0-0.6-0.3-1.1-0.7-1.4c-0.4-0.4-0.9-0.6-1.5-0.6c-0.8,0-1.4,0.3-1.8,0.8
			c-0.4,0.6-0.6,1.4-0.6,2.4v0.3c0,1,0.2,1.8,0.6,2.4C164.6,540,165.2,540.2,166,540.2z"/>
		<path d="M171.3,530c0-0.2,0.1-0.5,0.2-0.6c0.2-0.2,0.4-0.3,0.7-0.3s0.5,0.1,0.7,0.3s0.2,0.4,0.2,0.6s-0.1,0.5-0.2,0.6
			c-0.2,0.2-0.4,0.2-0.7,0.2s-0.5-0.1-0.7-0.2C171.4,530.5,171.3,530.3,171.3,530z M172.9,541.3h-1.5v-8.9h1.5V541.3z"/>
		<path d="M180.9,541.3c-0.1-0.2-0.2-0.5-0.2-0.9c-0.7,0.7-1.6,1.1-2.5,1.1s-1.6-0.2-2.2-0.7c-0.6-0.5-0.8-1.1-0.8-1.9
			c0-0.9,0.4-1.7,1.1-2.2c0.7-0.5,1.7-0.8,3-0.8h1.5v-0.7c0-0.5-0.2-1-0.5-1.3s-0.8-0.5-1.4-0.5c-0.5,0-1,0.1-1.4,0.4
			c-0.4,0.3-0.6,0.6-0.6,1h-1.5c0-0.4,0.2-0.9,0.5-1.3c0.3-0.4,0.7-0.7,1.3-1c0.5-0.2,1.1-0.4,1.8-0.4c1,0,1.8,0.3,2.4,0.8
			c0.6,0.5,0.9,1.2,0.9,2.1v4.1c0,0.8,0.1,1.5,0.3,2v0.1h-1.7V541.3z M178.4,540.1c0.5,0,0.9-0.1,1.4-0.4c0.4-0.2,0.7-0.6,0.9-1V537
			h-1.2c-1.9,0-2.8,0.5-2.8,1.6c0,0.5,0.2,0.9,0.5,1.1C177.4,540,177.9,540.1,178.4,540.1z"/>
		<path d="M186.2,541.3h-1.5v-12.7h1.5V541.3z"/>
		<path d="M188.7,530c0-0.2,0.1-0.5,0.2-0.6c0.2-0.2,0.4-0.3,0.7-0.3s0.5,0.1,0.7,0.3s0.2,0.4,0.2,0.6s-0.1,0.5-0.2,0.6
			c-0.2,0.2-0.4,0.2-0.7,0.2s-0.5-0.1-0.7-0.2C188.7,530.5,188.7,530.3,188.7,530z M190.3,541.3h-1.5v-8.9h1.5V541.3z"/>
		<path d="M192.4,536.8c0-1.4,0.3-2.5,1-3.3c0.6-0.8,1.5-1.2,2.5-1.2s1.9,0.4,2.5,1.1v-4.7h1.5v12.7h-1.4l-0.1-1
			c-0.6,0.7-1.5,1.1-2.5,1.1s-1.9-0.4-2.5-1.3C192.7,539.4,192.4,538.2,192.4,536.8L192.4,536.8z M193.9,536.9c0,1,0.2,1.8,0.6,2.4
			c0.4,0.6,1,0.9,1.7,0.9c1,0,1.7-0.4,2.1-1.3v-4.1c-0.5-0.8-1.2-1.3-2.1-1.3c-0.7,0-1.3,0.3-1.7,0.9
			C194.1,535,193.9,535.8,193.9,536.9z"/>
		<path d="M207.8,541.3c-0.1-0.2-0.2-0.5-0.2-0.9c-0.7,0.7-1.6,1.1-2.5,1.1s-1.6-0.2-2.2-0.7c-0.6-0.5-0.8-1.1-0.8-1.9
			c0-0.9,0.4-1.7,1.1-2.2c0.7-0.5,1.7-0.8,3-0.8h1.5v-0.7c0-0.5-0.2-1-0.5-1.3s-0.8-0.5-1.4-0.5c-0.5,0-1,0.1-1.4,0.4
			c-0.4,0.3-0.6,0.6-0.6,1h-1.5c0-0.4,0.2-0.9,0.5-1.3c0.3-0.4,0.7-0.7,1.3-1s1.1-0.4,1.8-0.4c1,0,1.8,0.3,2.4,0.8s0.9,1.2,0.9,2.1
			v4.1c0,0.8,0.1,1.5,0.3,2v0.1h-1.7V541.3z M205.3,540.1c0.5,0,0.9-0.1,1.4-0.4c0.4-0.2,0.7-0.6,0.9-1V537h-1.2
			c-1.9,0-2.8,0.5-2.8,1.6c0,0.5,0.2,0.9,0.5,1.1C204.4,540,204.8,540.1,205.3,540.1z"/>
		<path d="M211.1,536.8c0-1.4,0.3-2.5,1-3.3c0.6-0.8,1.5-1.2,2.5-1.2s1.9,0.4,2.5,1.1v-4.7h1.5v12.7h-1.4l-0.1-1
			c-0.6,0.7-1.5,1.1-2.5,1.1s-1.9-0.4-2.5-1.3C211.4,539.4,211.1,538.2,211.1,536.8L211.1,536.8z M212.6,536.9c0,1,0.2,1.8,0.6,2.4
			s1,0.9,1.7,0.9c1,0,1.7-0.4,2.1-1.3v-4.1c-0.5-0.8-1.2-1.3-2.1-1.3c-0.7,0-1.3,0.3-1.7,0.9C212.8,535,212.6,535.8,212.6,536.9z"/>
	</g>
</g>
<g>
	<path id="Trazado_113626" class="st3" d="M478.9,448.7c-11.7,0-23.3,2.5-34,7.5c-10.3,4.8-22.6,2-29.9-6.7L296.5,308.3l-9.6,8.1
		L407,459.5c6.9,8.2,7.8,19.7,2.4,28.9c-22.5,38.4-9.6,87.7,28.8,110.1c38.4,22.5,87.7,9.6,110.1-28.8s9.6-87.7-28.8-110.1
		C507.2,452.4,493.2,448.6,478.9,448.7L478.9,448.7z M478.9,607.6c-43.3,0-78.5-35.1-78.5-78.5c0-43.3,35.1-78.5,78.5-78.5
		c43.3,0,78.5,35.1,78.5,78.5l0,0C557.3,572.5,522.2,607.6,478.9,607.6L478.9,607.6z"/>
	
		<linearGradient id="Elipse_4081_00000018959023838334904660000010126485884016563367_" gradientUnits="userSpaceOnUse" x1="-1261.9791" y1="4.4688" x2="-1261.1868" y2="3.6765" gradientTransform="matrix(127.084 0 0 127.084 160805.9062 11.6316)">
		<stop  offset="0" style="stop-color:#EBEAEA"/>
		<stop  offset="1" style="stop-color:#FFFFFF"/>
	</linearGradient>
	
		<circle id="Elipse_4081" style="fill:url(#Elipse_4081_00000018959023838334904660000010126485884016563367_);" cx="478.9" cy="529.2" r="71.2"/>
	<circle id="Elipse_4082" class="st2" cx="478.9" cy="529.2" r="65"/>
	<g>
		<path d="M437.1,515.8c-0.1,1.3-0.6,2.2-1.4,2.9s-1.8,1-3.1,1c-1.4,0-2.6-0.5-3.4-1.5c-0.9-1-1.3-2.4-1.3-4.1V513
			c0-1.1,0.2-2.1,0.6-2.9s1-1.5,1.7-2s1.6-0.7,2.5-0.7c1.3,0,2.3,0.4,3.1,1.1c0.8,0.7,1.2,1.7,1.3,3h-1.6c-0.1-1-0.4-1.7-0.9-2.1
			s-1.1-0.6-1.9-0.6c-1,0-1.8,0.4-2.4,1.1s-0.9,1.8-0.9,3.2v1.2c0,1.3,0.3,2.3,0.8,3.1s1.3,1.2,2.3,1.2c0.9,0,1.6-0.2,2-0.6
			c0.5-0.4,0.8-1.1,0.9-2.1h1.7V515.8z"/>
		<path d="M438.6,515c0-0.9,0.2-1.7,0.5-2.4s0.8-1.2,1.4-1.6s1.3-0.6,2.1-0.6c1.2,0,2.2,0.4,2.9,1.3c0.8,0.8,1.1,2,1.1,3.4v0.1
			c0,0.9-0.2,1.6-0.5,2.3s-0.8,1.2-1.4,1.6c-0.6,0.4-1.3,0.6-2.1,0.6c-1.2,0-2.2-0.4-2.9-1.3C438.9,517.6,438.6,516.4,438.6,515
			L438.6,515z M440.2,515.2c0,1,0.2,1.8,0.7,2.4c0.5,0.6,1.1,0.9,1.8,0.9c0.8,0,1.4-0.3,1.8-0.9c0.5-0.6,0.7-1.5,0.7-2.6
			c0-1-0.2-1.8-0.7-2.4c-0.5-0.6-1.1-0.9-1.9-0.9s-1.4,0.3-1.8,0.9C440.4,513.3,440.2,514.1,440.2,515.2z"/>
		<path d="M450.1,510.7v1c0.7-0.8,1.5-1.2,2.6-1.2c1.2,0,2.1,0.5,2.5,1.4c0.3-0.4,0.7-0.8,1.2-1c0.5-0.3,1-0.4,1.7-0.4
			c2,0,3,1,3,3.1v6h-1.5v-5.9c0-0.6-0.1-1.1-0.4-1.4c-0.3-0.3-0.8-0.5-1.5-0.5c-0.6,0-1,0.2-1.4,0.5s-0.6,0.8-0.7,1.4v5.9h-1.5v-5.8
			c0-1.3-0.6-1.9-1.9-1.9c-1,0-1.7,0.4-2.1,1.3v6.5h-1.5v-8.9h1.5V510.7z"/>
		<path d="M471,515.2c0,1.4-0.3,2.5-0.9,3.3s-1.5,1.2-2.5,1.2c-1.1,0-1.9-0.3-2.6-1v4.3h-1.5v-12.4h1.4l0.1,1
			c0.6-0.8,1.5-1.2,2.6-1.2s1.9,0.4,2.5,1.2s0.9,1.9,0.9,3.4V515.2z M469.5,515.1c0-1-0.2-1.8-0.6-2.4s-1-0.9-1.8-0.9
			c-0.9,0-1.6,0.4-2.1,1.2v4.3c0.5,0.8,1.2,1.2,2.1,1.2c0.7,0,1.3-0.3,1.7-0.9C469.3,517.1,469.5,516.2,469.5,515.1z"/>
		<path d="M476.7,519.8c-1.2,0-2.2-0.4-3-1.2s-1.1-1.9-1.1-3.2v-0.3c0-0.9,0.2-1.7,0.5-2.4s0.8-1.2,1.4-1.6s1.3-0.6,2-0.6
			c1.2,0,2.1,0.4,2.7,1.1c0.6,0.8,1,1.9,1,3.3v0.6h-6c0,0.9,0.3,1.6,0.8,2.1s1.1,0.8,1.9,0.8c0.5,0,1-0.1,1.4-0.3s0.7-0.5,1-0.9
			l0.9,0.7C479.3,519.2,478.2,519.8,476.7,519.8z M476.5,511.8c-0.6,0-1.1,0.2-1.5,0.7c-0.4,0.4-0.7,1.1-0.8,1.9h4.5v-0.1
			c0-0.8-0.3-1.4-0.6-1.8C477.6,512,477.1,511.8,476.5,511.8z"/>
		<path d="M484,508.5v2.2h1.7v1.2H484v5.5c0,0.4,0.1,0.6,0.2,0.8s0.4,0.3,0.8,0.3c0.2,0,0.4,0,0.7-0.1v1.2c-0.4,0.1-0.8,0.2-1.2,0.2
			c-0.7,0-1.2-0.2-1.5-0.6c-0.3-0.4-0.5-1-0.5-1.8v-5.5h-1.6v-1.2h1.6v-2.2L484,508.5L484,508.5z"/>
		<path d="M491.1,519.8c-1.2,0-2.2-0.4-3-1.2s-1.1-1.9-1.1-3.2v-0.3c0-0.9,0.2-1.7,0.5-2.4s0.8-1.2,1.4-1.6s1.3-0.6,2-0.6
			c1.2,0,2.1,0.4,2.7,1.1c0.6,0.8,1,1.9,1,3.3v0.6h-6c0,0.9,0.3,1.6,0.8,2.1s1.1,0.8,1.9,0.8c0.5,0,1-0.1,1.4-0.3s0.7-0.5,1-0.9
			l0.9,0.7C493.7,519.2,492.6,519.8,491.1,519.8z M490.9,511.8c-0.6,0-1.1,0.2-1.5,0.7c-0.4,0.4-0.7,1.1-0.8,1.9h4.5v-0.1
			c0-0.8-0.3-1.4-0.6-1.8C492.1,512,491.6,511.8,490.9,511.8z"/>
		<path d="M497.8,510.7v1.1c0.7-0.9,1.6-1.3,2.7-1.3c1.9,0,2.8,1.1,2.9,3.2v5.9h-1.5v-5.9c0-0.6-0.2-1.1-0.4-1.4
			c-0.3-0.3-0.7-0.5-1.3-0.5c-0.5,0-0.9,0.1-1.3,0.4c-0.4,0.3-0.7,0.6-0.9,1v6.4h-1.5v-8.9L497.8,510.7L497.8,510.7z"/>
		<path d="M509.3,518.5c0.5,0,1-0.2,1.4-0.5s0.6-0.7,0.7-1.2h1.4c0,0.5-0.2,1-0.5,1.5s-0.8,0.8-1.3,1.1s-1.1,0.4-1.7,0.4
			c-1.2,0-2.2-0.4-2.9-1.2c-0.7-0.8-1.1-1.9-1.1-3.3V515c0-0.9,0.2-1.6,0.5-2.3s0.8-1.2,1.4-1.6s1.3-0.6,2.1-0.6
			c1,0,1.8,0.3,2.5,0.9s1,1.4,1.1,2.3h-1.4c0-0.6-0.3-1.1-0.7-1.4c-0.4-0.4-0.9-0.6-1.5-0.6c-0.8,0-1.4,0.3-1.8,0.8
			c-0.4,0.6-0.6,1.4-0.6,2.4v0.3c0,1,0.2,1.8,0.6,2.4C507.9,518.2,508.5,518.5,509.3,518.5z"/>
		<path d="M514.5,508.3c0-0.2,0.1-0.5,0.2-0.6c0.2-0.2,0.4-0.3,0.7-0.3s0.5,0.1,0.7,0.3c0.2,0.2,0.2,0.4,0.2,0.6s-0.1,0.5-0.2,0.6
			c-0.2,0.2-0.4,0.2-0.7,0.2s-0.5-0.1-0.7-0.2C514.6,508.8,514.5,508.5,514.5,508.3z M516.2,519.6h-1.5v-8.9h1.5V519.6z"/>
		<path d="M524.1,519.6c-0.1-0.2-0.2-0.5-0.2-0.9c-0.7,0.7-1.6,1.1-2.5,1.1s-1.6-0.2-2.2-0.7c-0.6-0.5-0.8-1.1-0.8-1.9
			c0-0.9,0.4-1.7,1.1-2.2c0.7-0.5,1.7-0.8,3-0.8h1.5v-0.7c0-0.5-0.2-1-0.5-1.3s-0.8-0.5-1.4-0.5c-0.5,0-1,0.1-1.4,0.4
			c-0.4,0.3-0.6,0.6-0.6,1h-1.5c0-0.4,0.2-0.9,0.5-1.3c0.3-0.4,0.7-0.7,1.3-1c0.5-0.2,1.1-0.4,1.8-0.4c1,0,1.8,0.3,2.4,0.8
			c0.6,0.5,0.9,1.2,0.9,2.1v4.1c0,0.8,0.1,1.5,0.3,2v0.1h-1.7V519.6z M521.6,518.4c0.5,0,0.9-0.1,1.4-0.4c0.4-0.2,0.7-0.6,0.9-1
			v-1.8h-1.2c-1.9,0-2.8,0.5-2.8,1.6c0,0.5,0.2,0.9,0.5,1.1C520.7,518.3,521.1,518.4,521.6,518.4z"/>
		<path d="M438.9,537.6l2.1-6.7h1.6l-3.6,10.3c-0.6,1.5-1.4,2.2-2.6,2.2h-0.3l-0.6-0.1v-1.2h0.4c0.5,0,0.9-0.1,1.2-0.3
			c0.3-0.2,0.5-0.6,0.7-1.1l0.3-0.9l-3.2-8.8h1.7L438.9,537.6z"/>
		<path d="M447.8,535.3c0-1.4,0.3-2.5,1-3.3c0.6-0.8,1.5-1.2,2.5-1.2s1.9,0.4,2.5,1.1v-4.7h1.5v12.7h-1.4l-0.1-1
			c-0.6,0.7-1.5,1.1-2.5,1.1s-1.9-0.4-2.5-1.3C448.1,537.9,447.8,536.7,447.8,535.3L447.8,535.3z M449.3,535.5c0,1,0.2,1.8,0.6,2.4
			c0.4,0.6,1,0.9,1.7,0.9c1,0,1.7-0.4,2.1-1.3v-4.1c-0.5-0.8-1.2-1.3-2.1-1.3c-0.7,0-1.3,0.3-1.7,0.9
			C449.5,533.5,449.3,534.4,449.3,535.5z"/>
		<path d="M457.7,528.6c0-0.2,0.1-0.5,0.2-0.6c0.2-0.2,0.4-0.3,0.7-0.3c0.3,0,0.5,0.1,0.7,0.3s0.2,0.4,0.2,0.6s-0.1,0.5-0.2,0.6
			c-0.2,0.2-0.4,0.2-0.7,0.2c-0.3,0-0.5-0.1-0.7-0.2C457.8,529,457.7,528.8,457.7,528.6z M459.4,539.9h-1.5V531h1.5V539.9z"/>
		<path d="M463.5,539.9H462v-12.7h1.5V539.9z"/>
		<path d="M465.9,528.6c0-0.2,0.1-0.5,0.2-0.6c0.2-0.2,0.4-0.3,0.7-0.3c0.3,0,0.5,0.1,0.7,0.3s0.2,0.4,0.2,0.6s-0.1,0.5-0.2,0.6
			c-0.2,0.2-0.4,0.2-0.7,0.2c-0.3,0-0.5-0.1-0.7-0.2C466,529,465.9,528.8,465.9,528.6z M467.6,539.9H466V531h1.5v8.9H467.6z"/>
		<path d="M469.6,535.3c0-1.4,0.3-2.5,1-3.3c0.6-0.8,1.5-1.2,2.6-1.2s1.9,0.4,2.5,1.2l0.1-1h1.4v8.7c0,1.2-0.3,2.1-1,2.7
			c-0.7,0.7-1.6,1-2.8,1c-0.6,0-1.3-0.1-1.9-0.4c-0.6-0.3-1.1-0.7-1.4-1.1l0.8-0.9c0.7,0.8,1.5,1.2,2.4,1.2c0.7,0,1.3-0.2,1.7-0.6
			c0.4-0.4,0.6-1,0.6-1.8V539c-0.6,0.7-1.4,1.1-2.5,1.1c-1,0-1.9-0.4-2.5-1.3S469.6,536.8,469.6,535.3z M471.2,535.5
			c0,1,0.2,1.8,0.6,2.4c0.4,0.6,1,0.9,1.7,0.9c1,0,1.7-0.4,2.1-1.3v-4.1c-0.5-0.9-1.2-1.3-2.1-1.3c-0.7,0-1.3,0.3-1.7,0.9
			C471.4,533.5,471.2,534.4,471.2,535.5z"/>
		<path d="M483.2,540c-1.2,0-2.2-0.4-3-1.2s-1.1-1.9-1.1-3.2v-0.3c0-0.9,0.2-1.7,0.5-2.4s0.8-1.2,1.4-1.6c0.6-0.4,1.3-0.6,2-0.6
			c1.2,0,2.1,0.4,2.7,1.1c0.6,0.8,1,1.9,1,3.3v0.6h-6c0,0.9,0.3,1.6,0.8,2.1s1.1,0.8,1.9,0.8c0.5,0,1-0.1,1.4-0.3s0.7-0.5,1-0.9
			l0.9,0.7C485.8,539.4,484.7,540,483.2,540z M483,532c-0.6,0-1.1,0.2-1.6,0.7c-0.4,0.4-0.7,1.1-0.8,1.9h4.5v-0.1
			c0-0.8-0.3-1.4-0.6-1.8C484.1,532.2,483.6,532,483,532z"/>
		<path d="M489.9,530.9l0.1,1.1c0.7-0.9,1.6-1.3,2.7-1.3c1.9,0,2.8,1.1,2.9,3.2v5.9h-1.5v-5.9c0-0.6-0.2-1.1-0.4-1.4
			c-0.3-0.3-0.7-0.5-1.3-0.5c-0.5,0-0.9,0.1-1.3,0.4c-0.4,0.3-0.7,0.6-0.9,1v6.4h-1.5v-8.9H489.9z"/>
		<path d="M501.3,538.8c0.5,0,1-0.2,1.4-0.5s0.6-0.7,0.7-1.2h1.4c0,0.5-0.2,1-0.5,1.5s-0.8,0.8-1.3,1.1s-1.1,0.4-1.7,0.4
			c-1.2,0-2.2-0.4-2.9-1.2c-0.7-0.8-1.1-1.9-1.1-3.3v-0.3c0-0.9,0.2-1.6,0.5-2.3s0.8-1.2,1.4-1.6c0.6-0.4,1.3-0.6,2.1-0.6
			c1,0,1.8,0.3,2.5,0.9c0.7,0.6,1,1.4,1.1,2.3h-1.4c0-0.6-0.3-1.1-0.7-1.4c-0.4-0.4-0.9-0.6-1.5-0.6c-0.8,0-1.4,0.3-1.8,0.8
			c-0.4,0.6-0.6,1.4-0.6,2.4v0.3c0,1,0.2,1.8,0.6,2.4C499.9,538.5,500.5,538.8,501.3,538.8z"/>
		<path d="M506.6,528.6c0-0.2,0.1-0.5,0.2-0.6c0.2-0.2,0.4-0.3,0.7-0.3c0.3,0,0.5,0.1,0.7,0.3s0.2,0.4,0.2,0.6s-0.1,0.5-0.2,0.6
			c-0.2,0.2-0.4,0.2-0.7,0.2c-0.3,0-0.5-0.1-0.7-0.2C506.7,529,506.6,528.8,506.6,528.6z M508.2,539.9h-1.5V531h1.5V539.9z"/>
		<path d="M516.2,539.9c-0.1-0.2-0.2-0.5-0.2-0.9c-0.7,0.7-1.6,1.1-2.5,1.1s-1.6-0.2-2.2-0.7s-0.8-1.1-0.8-1.9
			c0-0.9,0.4-1.7,1.1-2.2c0.7-0.5,1.7-0.8,3-0.8h1.5v-0.7c0-0.5-0.2-1-0.5-1.3s-0.8-0.5-1.4-0.5c-0.5,0-1,0.1-1.4,0.4
			c-0.4,0.3-0.6,0.6-0.6,1h-1.5c0-0.4,0.2-0.9,0.5-1.3c0.3-0.4,0.7-0.7,1.3-1c0.5-0.2,1.1-0.4,1.8-0.4c1,0,1.8,0.3,2.4,0.8
			s0.9,1.2,0.9,2.1v4.1c0,0.8,0.1,1.5,0.3,2v0.1h-1.7V539.9z M513.7,538.7c0.5,0,0.9-0.1,1.4-0.4c0.4-0.2,0.7-0.6,0.9-1v-1.8h-1.2
			c-1.9,0-2.8,0.5-2.8,1.6c0,0.5,0.2,0.9,0.5,1.1C512.7,538.6,513.2,538.7,513.7,538.7z"/>
		<path d="M445.4,555.8c0,1.4-0.3,2.5-0.9,3.3s-1.5,1.2-2.5,1.2c-1.1,0-1.9-0.3-2.6-1v4.3h-1.5v-12.4h1.4l0.1,1
			c0.6-0.8,1.5-1.2,2.6-1.2s1.9,0.4,2.5,1.2s0.9,1.9,0.9,3.4V555.8z M443.9,555.6c0-1-0.2-1.8-0.6-2.4s-1-0.9-1.8-0.9
			c-0.9,0-1.6,0.4-2.1,1.2v4.3c0.5,0.8,1.2,1.2,2.1,1.2c0.7,0,1.3-0.3,1.7-0.9C443.7,557.6,443.9,556.7,443.9,555.6z"/>
		<path d="M451.7,552.6c-0.2,0-0.5-0.1-0.8-0.1c-1,0-1.7,0.4-2,1.3v6.3h-1.5v-8.9h1.5v1c0.5-0.8,1.2-1.2,2.1-1.2
			c0.3,0,0.5,0,0.7,0.1L451.7,552.6L451.7,552.6z"/>
		<path d="M452.5,555.6c0-0.9,0.2-1.7,0.5-2.4s0.8-1.2,1.4-1.6c0.6-0.4,1.3-0.6,2.1-0.6c1.2,0,2.2,0.4,2.9,1.3
			c0.8,0.8,1.1,2,1.1,3.4v0.1c0,0.9-0.2,1.6-0.5,2.3s-0.8,1.2-1.4,1.6c-0.6,0.4-1.3,0.6-2.1,0.6c-1.2,0-2.2-0.4-2.9-1.3
			C452.8,558.2,452.5,557,452.5,555.6L452.5,555.6z M454,555.8c0,1,0.2,1.8,0.7,2.4c0.5,0.6,1.1,0.9,1.8,0.9c0.8,0,1.4-0.3,1.8-0.9
			c0.5-0.6,0.7-1.5,0.7-2.6c0-1-0.2-1.8-0.7-2.4c-0.5-0.6-1.1-0.9-1.9-0.9s-1.4,0.3-1.8,0.9C454.3,553.8,454,554.6,454,555.8z"/>
		<path d="M463.3,560.1v-7.7h-1.4v-1.2h1.4v-0.9c0-1,0.3-1.7,0.8-2.2s1.2-0.8,2.2-0.8c0.4,0,0.7,0,1,0.1l-0.1,1.2
			c-0.3,0-0.5-0.1-0.8-0.1c-0.5,0-0.9,0.1-1.1,0.4c-0.3,0.3-0.4,0.7-0.4,1.2v0.9h1.9v1.2h-1.9v7.7h-1.6V560.1z"/>
		<path d="M471.9,560.3c-1.2,0-2.2-0.4-3-1.2s-1.1-1.9-1.1-3.2v-0.3c0-0.9,0.2-1.7,0.5-2.4s0.8-1.2,1.4-1.6c0.6-0.4,1.3-0.6,2-0.6
			c1.2,0,2.1,0.4,2.7,1.1c0.6,0.8,1,1.9,1,3.3v0.6h-6c0,0.9,0.3,1.6,0.8,2.1s1.1,0.8,1.9,0.8c0.5,0,1-0.1,1.4-0.3s0.7-0.5,1-0.9
			l0.9,0.7C474.5,559.7,473.4,560.3,471.9,560.3z M471.7,552.3c-0.6,0-1.1,0.2-1.5,0.7c-0.4,0.4-0.7,1.1-0.8,1.9h4.5v-0.1
			c0-0.8-0.3-1.4-0.6-1.8C472.8,552.5,472.3,552.3,471.7,552.3z"/>
		<path d="M482.3,557.8c0-0.4-0.2-0.7-0.5-1c-0.3-0.2-0.9-0.4-1.6-0.6c-0.8-0.2-1.4-0.4-1.8-0.6c-0.5-0.2-0.8-0.5-1-0.8
			s-0.3-0.7-0.3-1.1c0-0.7,0.3-1.3,0.9-1.9c0.6-0.5,1.4-0.8,2.4-0.8s1.8,0.3,2.5,0.8c0.6,0.5,0.9,1.2,0.9,2h-1.5
			c0-0.4-0.2-0.8-0.5-1.1c-0.4-0.3-0.8-0.5-1.3-0.5c-0.6,0-1,0.1-1.3,0.4c-0.3,0.2-0.5,0.6-0.5,0.9c0,0.4,0.1,0.6,0.4,0.8
			s0.8,0.4,1.6,0.5c0.8,0.2,1.4,0.4,1.9,0.6c0.5,0.2,0.8,0.5,1.1,0.9c0.2,0.3,0.3,0.7,0.3,1.2c0,0.8-0.3,1.4-1,1.9
			c-0.6,0.5-1.5,0.7-2.5,0.7c-0.7,0-1.3-0.1-1.9-0.4c-0.6-0.3-1-0.6-1.3-1.1s-0.5-0.9-0.5-1.5h1.5c0,0.5,0.2,0.9,0.6,1.2
			s0.9,0.4,1.5,0.4s1-0.1,1.4-0.3C482.2,558.5,482.3,558.1,482.3,557.8z"/>
		<path d="M485.9,548.8c0-0.2,0.1-0.5,0.2-0.6c0.2-0.2,0.4-0.3,0.7-0.3c0.3,0,0.5,0.1,0.7,0.3s0.2,0.4,0.2,0.6s-0.1,0.5-0.2,0.6
			c-0.2,0.2-0.4,0.2-0.7,0.2c-0.3,0-0.5-0.1-0.7-0.2C485.9,549.3,485.9,549.1,485.9,548.8z M487.5,560.1H486v-8.9h1.5V560.1z"/>
		<path d="M489.5,555.6c0-0.9,0.2-1.7,0.5-2.4s0.8-1.2,1.4-1.6c0.6-0.4,1.3-0.6,2.1-0.6c1.2,0,2.2,0.4,2.9,1.3
			c0.8,0.8,1.1,2,1.1,3.4v0.1c0,0.9-0.2,1.6-0.5,2.3s-0.8,1.2-1.4,1.6c-0.6,0.4-1.3,0.6-2.1,0.6c-1.2,0-2.2-0.4-2.9-1.3
			C489.8,558.2,489.5,557,489.5,555.6L489.5,555.6z M491.1,555.8c0,1,0.2,1.8,0.7,2.4c0.5,0.6,1.1,0.9,1.8,0.9
			c0.8,0,1.4-0.3,1.8-0.9c0.5-0.6,0.7-1.5,0.7-2.6c0-1-0.2-1.8-0.7-2.4c-0.5-0.6-1.1-0.9-1.9-0.9s-1.4,0.3-1.8,0.9
			S491.1,554.6,491.1,555.8z"/>
		<path d="M501,551.2v1.1c0.7-0.9,1.6-1.3,2.7-1.3c1.9,0,2.8,1.1,2.9,3.2v5.9h-1.5v-5.9c0-0.6-0.2-1.1-0.4-1.4
			c-0.3-0.3-0.7-0.5-1.3-0.5c-0.5,0-0.9,0.1-1.3,0.4c-0.4,0.3-0.7,0.6-0.9,1v6.4h-1.5v-8.9H501z"/>
		<path d="M514.4,560.1c-0.1-0.2-0.2-0.5-0.2-0.9c-0.7,0.7-1.6,1.1-2.5,1.1c-0.9,0-1.6-0.2-2.2-0.7s-0.8-1.1-0.8-1.9
			c0-0.9,0.4-1.7,1.1-2.2s1.7-0.8,3-0.8h1.5V554c0-0.5-0.2-1-0.5-1.3s-0.8-0.5-1.4-0.5c-0.5,0-1,0.1-1.4,0.4c-0.4,0.3-0.6,0.6-0.6,1
			h-1.5c0-0.4,0.2-0.9,0.5-1.3c0.3-0.4,0.7-0.7,1.3-1c0.5-0.2,1.1-0.4,1.8-0.4c1,0,1.8,0.3,2.4,0.8c0.6,0.5,0.9,1.2,0.9,2.1v4.1
			c0,0.8,0.1,1.5,0.3,2v0.1h-1.7V560.1z M511.9,559c0.5,0,0.9-0.1,1.4-0.4c0.4-0.2,0.7-0.6,0.9-1v-1.8H513c-1.9,0-2.8,0.5-2.8,1.6
			c0,0.5,0.2,0.9,0.5,1.1C511,558.8,511.4,559,511.9,559z"/>
		<path d="M519.7,560.1h-1.5v-12.7h1.5V560.1z"/>
	</g>
</g>
<g>
	<path id="Trazado_113624" class="st5" d="M553,153.3c-43.6,0-80.1,36.3-80.4,79.9c-0.1,6.7,0.7,13.3,2.3,19.8
		c2.7,10.9-2.1,22.3-11.9,27.9l-159.2,92l6.3,10.9l160.4-92.6c9.4-5.4,21.2-4.3,29.3,2.9c33.3,29.5,84.1,26.5,113.6-6.8
		s26.5-84.1-6.8-113.6C591.8,160.5,572.7,153.3,553,153.3L553,153.3z M553.1,312.2c-26.3,0-50.9-13.2-65.4-35.2l-4.6-7.9l0,0
		c-19.6-38.7-4.1-85.9,34.6-105.4s85.9-4.1,105.4,34.6s4.1,85.9-34.6,105.4C577.6,309.3,565.4,312.2,553.1,312.2L553.1,312.2z"/>
	
		<linearGradient id="Elipse_4079_00000134945062051860088900000007105091373929041855_" gradientUnits="userSpaceOnUse" x1="-1261.9727" y1="4.5935" x2="-1261.1804" y2="3.8012" gradientTransform="matrix(127.084 0 0 127.084 160879.2969 -299.6184)">
		<stop  offset="0" style="stop-color:#EBEAEA"/>
		<stop  offset="1" style="stop-color:#FFFFFF"/>
	</linearGradient>
	
		<circle id="Elipse_4079" style="fill:url(#Elipse_4079_00000134945062051860088900000007105091373929041855_);" cx="553.1" cy="233.8" r="71.2"/>
	<circle id="Elipse_4080" class="st2" cx="553.1" cy="233.8" r="65"/>
	<g>
		<path d="M523.1,234.8c0,1.2-0.2,2.2-0.6,3.1c-0.4,0.9-1,1.5-1.7,2s-1.6,0.7-2.5,0.7s-1.8-0.2-2.5-0.7s-1.3-1.1-1.7-2
			s-0.6-1.9-0.6-3V234c0-1.2,0.2-2.2,0.6-3.1c0.4-0.9,1-1.6,1.7-2c0.7-0.5,1.6-0.7,2.5-0.7c1,0,1.8,0.2,2.5,0.7s1.3,1.1,1.7,2
			s0.6,1.9,0.6,3.1V234.8z M521.5,234c0-1.4-0.3-2.5-0.9-3.3c-0.6-0.8-1.4-1.1-2.4-1.1s-1.8,0.4-2.4,1.1c-0.6,0.8-0.9,1.8-0.9,3.2
			v0.9c0,1.4,0.3,2.5,0.9,3.3c0.6,0.8,1.4,1.2,2.4,1.2s1.8-0.4,2.4-1.1c0.6-0.7,0.8-1.8,0.9-3.2V234z"/>
		<path d="M532.7,236.1c0,1.4-0.3,2.5-0.9,3.3c-0.6,0.8-1.5,1.2-2.5,1.2c-1.1,0-2-0.4-2.6-1.2l-0.1,1h-1.4v-12.7h1.5v4.7
			c0.6-0.8,1.5-1.1,2.5-1.1c1.1,0,1.9,0.4,2.6,1.2c0.6,0.8,0.9,1.9,0.9,3.4V236.1z M531.2,235.9c0-1-0.2-1.8-0.6-2.4
			c-0.4-0.6-1-0.8-1.7-0.8c-1,0-1.7,0.5-2.2,1.4v3.9c0.5,0.9,1.2,1.4,2.2,1.4c0.7,0,1.3-0.3,1.7-0.8
			C531,237.9,531.2,237,531.2,235.9z"/>
		<path d="M536.2,231.5v10c0,1.7-0.8,2.6-2.3,2.6c-0.3,0-0.6,0-0.9-0.1v-1.2c0.2,0,0.4,0.1,0.7,0.1s0.6-0.1,0.8-0.3s0.3-0.5,0.3-1
			v-10h1.4V231.5z M534.6,229.1c0-0.2,0.1-0.4,0.2-0.6c0.2-0.2,0.4-0.3,0.7-0.3s0.5,0.1,0.7,0.3s0.2,0.4,0.2,0.6
			c0,0.2-0.1,0.5-0.2,0.6c-0.2,0.2-0.4,0.2-0.7,0.2s-0.5-0.1-0.7-0.2C534.6,229.6,534.6,229.4,534.6,229.1z"/>
		<path d="M542.4,240.6c-1.2,0-2.2-0.4-3-1.2s-1.1-1.9-1.1-3.2v-0.3c0-0.9,0.2-1.7,0.5-2.4s0.8-1.2,1.4-1.6c0.6-0.4,1.3-0.6,2-0.6
			c1.2,0,2.1,0.4,2.7,1.1c0.6,0.8,1,1.9,1,3.3v0.6h-6c0,0.9,0.3,1.6,0.8,2.1s1.1,0.8,1.9,0.8c0.5,0,1-0.1,1.4-0.3s0.7-0.5,1-0.9
			l0.9,0.7C545,240,543.9,240.6,542.4,240.6z M542.2,232.6c-0.6,0-1.1,0.2-1.5,0.7c-0.4,0.4-0.7,1.1-0.8,1.9h4.5V235
			c0-0.8-0.3-1.4-0.6-1.8C543.4,232.8,542.9,232.6,542.2,232.6z"/>
		<path d="M549.7,229.4v2.2h1.7v1.2h-1.7v5.5c0,0.4,0.1,0.6,0.2,0.8c0.1,0.2,0.4,0.3,0.8,0.3c0.2,0,0.4,0,0.7-0.1v1.2
			c-0.4,0.1-0.8,0.2-1.2,0.2c-0.7,0-1.2-0.2-1.5-0.6c-0.3-0.4-0.5-1-0.5-1.8v-5.5h-1.6v-1.2h1.6v-2.2L549.7,229.4L549.7,229.4z"/>
		<path d="M553.2,229.1c0-0.2,0.1-0.5,0.2-0.6c0.2-0.2,0.4-0.3,0.7-0.3s0.5,0.1,0.7,0.3s0.2,0.4,0.2,0.6c0,0.2-0.1,0.5-0.2,0.6
			c-0.2,0.2-0.4,0.2-0.7,0.2s-0.5-0.1-0.7-0.2C553.2,229.6,553.2,229.4,553.2,229.1z M554.8,240.4h-1.5v-8.9h1.5V240.4z"/>
		<path d="M560.2,238.4l2.2-6.9h1.6l-3.2,8.9h-1.2l-3.2-8.9h1.6L560.2,238.4z"/>
		<path d="M565.5,229.1c0-0.2,0.1-0.5,0.2-0.6c0.2-0.2,0.4-0.3,0.7-0.3s0.5,0.1,0.7,0.3s0.2,0.4,0.2,0.6c0,0.2-0.1,0.5-0.2,0.6
			c-0.2,0.2-0.4,0.2-0.7,0.2s-0.5-0.1-0.7-0.2C565.5,229.6,565.5,229.4,565.5,229.1z M567.1,240.4h-1.5v-8.9h1.5V240.4z"/>
		<path d="M569.2,235.9c0-1.4,0.3-2.5,1-3.3c0.6-0.8,1.5-1.2,2.5-1.2s1.9,0.4,2.5,1.1v-4.7h1.5v12.7h-1.4l-0.1-1
			c-0.6,0.7-1.5,1.1-2.5,1.1s-1.9-0.4-2.5-1.3s-1-2-1-3.3V235.9z M570.7,236.1c0,1,0.2,1.8,0.6,2.4c0.4,0.6,1,0.9,1.7,0.9
			c1,0,1.7-0.4,2.1-1.3V234c-0.5-0.8-1.2-1.3-2.1-1.3c-0.7,0-1.3,0.3-1.7,0.9C570.9,234.1,570.7,234.9,570.7,236.1z"/>
		<path d="M584.6,240.4c-0.1-0.2-0.2-0.5-0.2-0.9c-0.7,0.7-1.6,1.1-2.5,1.1s-1.6-0.2-2.2-0.7c-0.6-0.5-0.8-1.1-0.8-1.9
			c0-0.9,0.4-1.7,1.1-2.2c0.7-0.5,1.7-0.8,3-0.8h1.5v-0.7c0-0.5-0.2-1-0.5-1.3s-0.8-0.5-1.4-0.5c-0.5,0-1,0.1-1.4,0.4
			c-0.4,0.3-0.6,0.6-0.6,1H579c0-0.4,0.2-0.9,0.5-1.3c0.3-0.4,0.7-0.7,1.3-1c0.5-0.2,1.1-0.4,1.8-0.4c1,0,1.8,0.3,2.4,0.8
			c0.6,0.5,0.9,1.2,0.9,2.1v4.1c0,0.8,0.1,1.5,0.3,2v0.1L584.6,240.4L584.6,240.4z M582,239.3c0.5,0,0.9-0.1,1.4-0.4
			c0.4-0.2,0.7-0.6,0.9-1v-1.8h-1.2c-1.9,0-2.8,0.5-2.8,1.6c0,0.5,0.2,0.9,0.5,1.1C581.1,239.1,581.5,239.3,582,239.3z"/>
		<path d="M587.9,235.9c0-1.4,0.3-2.5,1-3.3c0.6-0.8,1.5-1.2,2.5-1.2s1.9,0.4,2.5,1.1v-4.7h1.5v12.7H594l-0.1-1
			c-0.6,0.7-1.5,1.1-2.5,1.1s-1.9-0.4-2.5-1.3s-1-2-1-3.3V235.9z M589.4,236.1c0,1,0.2,1.8,0.6,2.4c0.4,0.6,1,0.9,1.7,0.9
			c1,0,1.7-0.4,2.1-1.3V234c-0.5-0.8-1.2-1.3-2.1-1.3c-0.7,0-1.3,0.3-1.7,0.9C589.6,234.1,589.4,234.9,589.4,236.1z"/>
	</g>
</g>
<g>
	<path id="Trazado_113623" class="st7" d="M405.3,88.3c-0.1-44.4-36.1-80.4-80.5-80.5c-44.4,0-80.9,36.8-80.5,81.2
		c0.3,35,23.2,65.8,56.6,76.2c10.5,3.3,17.7,13.1,17.6,24.2v173.9h12.6V189.2c0-11,7.1-20.7,17.5-24
		C382.3,154.7,405.3,123.6,405.3,88.3z M324.8,166.7c43.5,0,78.7-35.3,78.7-78.7c0-43.5-35.3-78.7-78.7-78.7
		C281.3,9.3,246,44.5,246,88S281.3,166.7,324.8,166.7L324.8,166.7z"/>
	
		<linearGradient id="Elipse_4075_00000132061048746608634920000007388578822100589717_" gradientUnits="userSpaceOnUse" x1="-1261.8853" y1="4.5648" x2="-1261.0929" y2="3.7724" gradientTransform="matrix(127.084 0 0 127.084 160639.875 -441.4622)">
		<stop  offset="0" style="stop-color:#EBEAEA"/>
		<stop  offset="1" style="stop-color:#FFFFFF"/>
	</linearGradient>
	
		<circle id="Elipse_4075" style="fill:url(#Elipse_4075_00000132061048746608634920000007388578822100589717_);" cx="324.8" cy="88.3" r="71.2"/>
	<circle id="Elipse_4076" class="st2" cx="324.8" cy="88.3" r="65"/>
	<g>
		<path d="M288.2,95.5h-1.6v-12h1.6V95.5z"/>
		<path d="M292.3,86.6v1.1c0.7-0.9,1.6-1.3,2.7-1.3c1.9,0,2.8,1.1,2.9,3.2v5.9h-1.5v-5.9c0-0.6-0.2-1.1-0.4-1.4
			c-0.3-0.3-0.7-0.5-1.3-0.5c-0.5,0-0.9,0.1-1.3,0.4s-0.7,0.6-0.9,1v6.4H291v-8.9C291,86.6,292.3,86.6,292.3,86.6z"/>
		<path d="M302.2,84.4v2.2h1.7v1.2h-1.7v5.5c0,0.4,0.1,0.6,0.2,0.8c0.1,0.2,0.4,0.3,0.8,0.3c0.2,0,0.4,0,0.7-0.1v1.2
			c-0.4,0.1-0.8,0.2-1.2,0.2c-0.7,0-1.2-0.2-1.5-0.6s-0.5-1-0.5-1.8v-5.5h-1.6v-1.2h1.6v-2.2H302.2z"/>
		<path d="M309.4,95.7c-1.2,0-2.2-0.4-3-1.2c-0.8-0.8-1.1-1.9-1.1-3.2V91c0-0.9,0.2-1.7,0.5-2.4c0.3-0.7,0.8-1.2,1.4-1.6
			s1.3-0.6,2-0.6c1.2,0,2.1,0.4,2.7,1.1c0.6,0.8,1,1.9,1,3.3v0.6h-6c0,0.9,0.3,1.6,0.8,2.1s1.1,0.8,1.9,0.8c0.5,0,1-0.1,1.4-0.3
			s0.7-0.5,1-0.9l0.9,0.7C312,95.1,310.9,95.7,309.4,95.7z M309.2,87.7c-0.6,0-1.1,0.2-1.6,0.7c-0.4,0.4-0.7,1.1-0.8,1.9h4.5v-0.1
			c0-0.8-0.3-1.4-0.6-1.8C310.3,87.9,309.8,87.7,309.2,87.7z"/>
		<path d="M314.3,91c0-1.4,0.3-2.5,1-3.3c0.6-0.8,1.5-1.2,2.6-1.2s1.9,0.4,2.5,1.2l0.1-1h1.4v8.7c0,1.2-0.3,2.1-1,2.7
			c-0.7,0.7-1.6,1-2.8,1c-0.6,0-1.3-0.1-1.9-0.4s-1.1-0.7-1.4-1.1l0.8-0.9c0.7,0.8,1.5,1.2,2.4,1.2c0.7,0,1.3-0.2,1.7-0.6
			s0.6-1,0.6-1.8v-0.8c-0.6,0.7-1.4,1.1-2.5,1.1c-1,0-1.9-0.4-2.5-1.3C314.6,93.6,314.3,92.4,314.3,91z M315.8,91.1
			c0,1,0.2,1.8,0.6,2.4s1,0.9,1.7,0.9c1,0,1.7-0.4,2.1-1.3V89c-0.5-0.9-1.2-1.3-2.1-1.3c-0.7,0-1.3,0.3-1.7,0.9
			C316,89.2,315.8,90,315.8,91.1z"/>
		<path d="M328.4,88c-0.2,0-0.5-0.1-0.8-0.1c-1,0-1.7,0.4-2,1.3v6.3h-1.5v-8.9h1.5v1c0.5-0.8,1.2-1.2,2.1-1.2c0.3,0,0.5,0,0.7,0.1
			L328.4,88L328.4,88z"/>
		<path d="M329.8,84.2c0-0.2,0.1-0.5,0.2-0.6c0.2-0.2,0.4-0.3,0.7-0.3c0.3,0,0.5,0.1,0.7,0.3c0.2,0.2,0.2,0.4,0.2,0.6
			s-0.1,0.5-0.2,0.6c-0.2,0.2-0.4,0.2-0.7,0.2c-0.3,0-0.5-0.1-0.7-0.2C329.9,84.7,329.8,84.5,329.8,84.2z M331.5,95.5H330v-8.9h1.5
			V95.5z"/>
		<path d="M333.5,91c0-1.4,0.3-2.5,1-3.3c0.6-0.8,1.5-1.2,2.5-1.2s1.9,0.4,2.5,1.1v-4.7h1.5v12.7h-1.4l-0.1-1
			c-0.6,0.7-1.5,1.1-2.5,1.1s-1.9-0.4-2.5-1.3C333.8,93.6,333.5,92.4,333.5,91L333.5,91z M335.1,91.1c0,1,0.2,1.8,0.6,2.4
			s1,0.9,1.7,0.9c1,0,1.7-0.4,2.1-1.3V89c-0.5-0.8-1.2-1.3-2.1-1.3c-0.7,0-1.3,0.3-1.7,0.9S335.1,90,335.1,91.1z"/>
		<path d="M348.9,95.5c-0.1-0.2-0.2-0.5-0.2-0.9c-0.7,0.7-1.6,1.1-2.5,1.1s-1.6-0.2-2.2-0.7s-0.8-1.1-0.8-1.9c0-0.9,0.4-1.7,1.1-2.2
			s1.7-0.8,3-0.8h1.5v-0.7c0-0.5-0.2-1-0.5-1.3s-0.8-0.5-1.4-0.5c-0.5,0-1,0.1-1.4,0.4s-0.6,0.6-0.6,1h-1.5c0-0.4,0.2-0.9,0.5-1.3
			s0.7-0.7,1.3-1c0.5-0.2,1.1-0.4,1.8-0.4c1,0,1.8,0.3,2.4,0.8s0.9,1.2,0.9,2.1v4.1c0,0.8,0.1,1.5,0.3,2v0.1h-1.7V95.5z M346.4,94.3
			c0.5,0,0.9-0.1,1.4-0.4c0.4-0.2,0.7-0.6,0.9-1v-1.8h-1.2c-1.9,0-2.8,0.5-2.8,1.6c0,0.5,0.2,0.9,0.5,1.1
			C345.5,94.2,345.9,94.3,346.4,94.3z"/>
		<path d="M352.3,91c0-1.4,0.3-2.5,1-3.3c0.6-0.8,1.5-1.2,2.5-1.2s1.9,0.4,2.5,1.1v-4.7h1.5v12.7h-1.4l-0.1-1
			c-0.6,0.7-1.5,1.1-2.5,1.1s-1.9-0.4-2.5-1.3C352.6,93.6,352.3,92.4,352.3,91L352.3,91z M353.8,91.1c0,1,0.2,1.8,0.6,2.4
			s1,0.9,1.7,0.9c1,0,1.7-0.4,2.1-1.3V89c-0.5-0.8-1.2-1.3-2.1-1.3c-0.7,0-1.3,0.3-1.7,0.9C354,89.2,353.8,90,353.8,91.1z"/>
	</g>
</g>
<g>
	<path id="Trazado_113625" class="st9" d="M345.6,379.2l-160.4-92.7c-9.7-5.6-14.5-16.9-11.9-27.7c10.3-43.3-16.4-86.8-59.7-97.2
		c-43.3-10.3-86.8,16.4-97.2,59.7s16.4,86.8,59.7,97.2c25.8,6.2,53-0.8,72.7-18.5c8.1-7.3,20-8.5,29.4-3.1L339.3,390L345.6,379.2z
		 M95,318.6c-43.3,0-78.5-35.1-78.5-78.5s35.1-78.5,78.5-78.5c43.3,0,78.5,35.1,78.5,78.5C173.4,283.5,138.3,318.6,95,318.6
		L95,318.6z"/>
	
		<linearGradient id="Elipse_4077_00000042730174004990836190000003684537739660921278_" gradientUnits="userSpaceOnUse" x1="-1261.7853" y1="4.6439" x2="-1260.9929" y2="3.8516" gradientTransform="matrix(127.084 0 0 127.084 160397.375 -299.6184)">
		<stop  offset="0" style="stop-color:#EBEAEA"/>
		<stop  offset="1" style="stop-color:#FFFFFF"/>
	</linearGradient>
	
		<circle id="Elipse_4077" style="fill:url(#Elipse_4077_00000042730174004990836190000003684537739660921278_);" cx="95" cy="240.2" r="71.2"/>
	<circle id="Elipse_4078" class="st2" cx="95" cy="240.2" r="65"/>
	<g>
		<path d="M41.4,232.2c-0.1,1.3-0.6,2.2-1.4,2.9c-0.8,0.7-1.8,1-3.1,1c-1.4,0-2.6-0.5-3.4-1.5c-0.9-1-1.3-2.4-1.3-4.1v-1.2
			c0-1.1,0.2-2.1,0.6-2.9c0.4-0.8,1-1.5,1.7-2s1.6-0.7,2.5-0.7c1.3,0,2.3,0.4,3.1,1.1c0.8,0.7,1.2,1.7,1.3,3h-1.6
			c-0.1-1-0.4-1.7-0.9-2.1c-0.5-0.4-1.1-0.6-1.9-0.6c-1,0-1.8,0.4-2.4,1.1c-0.6,0.7-0.9,1.8-0.9,3.2v1.2c0,1.3,0.3,2.3,0.8,3.1
			s1.3,1.2,2.3,1.2c0.9,0,1.6-0.2,2-0.6c0.5-0.4,0.8-1.1,0.9-2.1L41.4,232.2L41.4,232.2z"/>
		<path d="M42.9,231.5c0-0.9,0.2-1.7,0.5-2.4s0.8-1.2,1.4-1.6c0.6-0.4,1.3-0.6,2.1-0.6c1.2,0,2.2,0.4,2.9,1.3c0.8,0.8,1.1,2,1.1,3.4
			v0.1c0,0.9-0.2,1.6-0.5,2.3s-0.8,1.2-1.4,1.6s-1.3,0.6-2.1,0.6c-1.2,0-2.2-0.4-2.9-1.3c-0.8-0.8-1.1-2-1.1-3.3V231.5z M44.5,231.7
			c0,1,0.2,1.8,0.7,2.4c0.5,0.6,1.1,0.9,1.8,0.9c0.8,0,1.4-0.3,1.8-0.9c0.5-0.6,0.7-1.5,0.7-2.6c0-1-0.2-1.8-0.7-2.4
			c-0.5-0.6-1.1-0.9-1.9-0.9c-0.8,0-1.4,0.3-1.8,0.9C44.7,229.7,44.5,230.6,44.5,231.7z"/>
		<path d="M54.4,227.1v1c0.7-0.8,1.5-1.2,2.6-1.2c1.2,0,2.1,0.5,2.5,1.4c0.3-0.4,0.7-0.8,1.2-1c0.5-0.3,1-0.4,1.7-0.4c2,0,3,1,3,3.1
			v6H64v-5.9c0-0.6-0.1-1.1-0.4-1.4c-0.3-0.3-0.8-0.5-1.5-0.5c-0.6,0-1,0.2-1.4,0.5s-0.6,0.8-0.7,1.4v5.9h-1.5v-5.8
			c0-1.3-0.6-1.9-1.9-1.9c-1,0-1.7,0.4-2.1,1.3v6.5H53v-8.9h1.4V227.1z"/>
		<path d="M75.3,231.7c0,1.4-0.3,2.5-0.9,3.3s-1.5,1.2-2.5,1.2c-1.1,0-1.9-0.3-2.6-1v4.3h-1.5v-12.4h1.4l0.1,1
			c0.6-0.8,1.5-1.2,2.6-1.2s1.9,0.4,2.5,1.2s0.9,1.9,0.9,3.4V231.7z M73.8,231.5c0-1-0.2-1.8-0.6-2.4c-0.4-0.6-1-0.9-1.8-0.9
			c-0.9,0-1.6,0.4-2.1,1.2v4.3c0.5,0.8,1.2,1.2,2.1,1.2c0.7,0,1.3-0.3,1.7-0.9C73.6,233.5,73.8,232.6,73.8,231.5z"/>
		<path d="M76.9,231.5c0-0.9,0.2-1.7,0.5-2.4s0.8-1.2,1.4-1.6c0.6-0.4,1.3-0.6,2.1-0.6c1.2,0,2.2,0.4,2.9,1.3c0.8,0.8,1.1,2,1.1,3.4
			v0.1c0,0.9-0.2,1.6-0.5,2.3s-0.8,1.2-1.4,1.6c-0.6,0.4-1.3,0.6-2.1,0.6c-1.2,0-2.2-0.4-2.9-1.3c-0.8-0.8-1.1-2-1.1-3.3V231.5z
			 M78.4,231.7c0,1,0.2,1.8,0.7,2.4c0.5,0.6,1.1,0.9,1.8,0.9c0.8,0,1.4-0.3,1.8-0.9c0.5-0.6,0.7-1.5,0.7-2.6c0-1-0.2-1.8-0.7-2.4
			c-0.5-0.6-1.1-0.9-1.9-0.9s-1.4,0.3-1.8,0.9C78.6,229.7,78.4,230.6,78.4,231.7z"/>
		<path d="M91.2,228.5c-0.2,0-0.5-0.1-0.8-0.1c-1,0-1.7,0.4-2,1.3v6.3h-1.5v-8.9h1.5v1c0.5-0.8,1.2-1.2,2.1-1.2c0.3,0,0.5,0,0.7,0.1
			C91.2,227,91.2,228.5,91.2,228.5z"/>
		<path d="M95.1,225v2.2h1.7v1.2h-1.7v5.5c0,0.4,0.1,0.6,0.2,0.8s0.4,0.3,0.8,0.3c0.2,0,0.4,0,0.7-0.1v1.2c-0.4,0.1-0.8,0.2-1.2,0.2
			c-0.7,0-1.2-0.2-1.5-0.6c-0.3-0.4-0.5-1-0.5-1.8v-5.5H92v-1.2h1.6V225H95.1z"/>
		<path d="M104,236c-0.1-0.2-0.2-0.5-0.2-0.9c-0.7,0.7-1.6,1.1-2.5,1.1s-1.6-0.2-2.2-0.7s-0.8-1.1-0.8-1.9c0-0.9,0.4-1.7,1.1-2.2
			s1.7-0.8,3-0.8h1.5v-0.7c0-0.5-0.2-1-0.5-1.3s-0.8-0.5-1.4-0.5c-0.5,0-1,0.1-1.4,0.4c-0.4,0.3-0.6,0.6-0.6,1h-1.5
			c0-0.4,0.2-0.9,0.5-1.3c0.3-0.4,0.7-0.7,1.3-1c0.5-0.2,1.1-0.4,1.8-0.4c1,0,1.8,0.3,2.4,0.8s0.9,1.2,0.9,2.1v4.1
			c0,0.8,0.1,1.5,0.3,2v0.1L104,236L104,236z M101.5,234.9c0.5,0,0.9-0.1,1.4-0.4c0.4-0.2,0.7-0.6,0.9-1v-1.8h-1.2
			c-1.9,0-2.8,0.5-2.8,1.6c0,0.5,0.2,0.9,0.5,1.1C100.6,234.7,101,234.9,101.5,234.9z"/>
		<path d="M109.2,227.1v1c0.7-0.8,1.5-1.2,2.6-1.2c1.2,0,2.1,0.5,2.5,1.4c0.3-0.4,0.7-0.8,1.2-1c0.5-0.3,1-0.4,1.7-0.4
			c2,0,3,1,3,3.1v6h-1.5v-5.9c0-0.6-0.1-1.1-0.4-1.4c-0.3-0.3-0.8-0.5-1.5-0.5c-0.6,0-1,0.2-1.4,0.5s-0.6,0.8-0.7,1.4v5.9h-1.5v-5.8
			c0-1.3-0.6-1.9-1.9-1.9c-1,0-1.7,0.4-2.1,1.3v6.5h-1.5v-8.9h1.5V227.1z"/>
		<path d="M122.5,224.8c0-0.2,0.1-0.5,0.2-0.6c0.2-0.2,0.4-0.3,0.7-0.3c0.3,0,0.5,0.1,0.7,0.3s0.2,0.4,0.2,0.6
			c0,0.2-0.1,0.5-0.2,0.6c-0.2,0.2-0.4,0.2-0.7,0.2c-0.3,0-0.5-0.1-0.7-0.2C122.6,225.2,122.5,225,122.5,224.8z M124.2,236h-1.5
			v-8.9h1.5V236z"/>
		<path d="M130.3,236.2c-1.2,0-2.2-0.4-3-1.2s-1.1-1.9-1.1-3.2v-0.3c0-0.9,0.2-1.7,0.5-2.4s0.8-1.2,1.4-1.6c0.6-0.4,1.3-0.6,2-0.6
			c1.2,0,2.1,0.4,2.7,1.1c0.6,0.8,1,1.9,1,3.3v0.6h-6c0,0.9,0.3,1.6,0.8,2.1s1.1,0.8,1.9,0.8c0.5,0,1-0.1,1.4-0.3s0.7-0.5,1-0.9
			l0.9,0.7C132.9,235.6,131.8,236.2,130.3,236.2z M130.1,228.2c-0.6,0-1.1,0.2-1.6,0.7c-0.4,0.4-0.7,1.1-0.8,1.9h4.5v-0.1
			c0-0.8-0.3-1.4-0.6-1.8C131.3,228.4,130.8,228.2,130.1,228.2z"/>
		<path d="M137,227.1v1.1c0.7-0.9,1.6-1.3,2.7-1.3c1.9,0,2.8,1.1,2.9,3.2v5.9h-1.5v-5.9c0-0.6-0.2-1.1-0.4-1.4
			c-0.3-0.3-0.7-0.5-1.3-0.5c-0.5,0-0.9,0.1-1.3,0.4c-0.4,0.3-0.7,0.6-0.9,1v6.4h-1.5v-8.9H137z"/>
		<path d="M147,225v2.2h1.7v1.2H147v5.5c0,0.4,0.1,0.6,0.2,0.8c0.1,0.2,0.4,0.3,0.8,0.3c0.2,0,0.4,0,0.7-0.1v1.2
			c-0.4,0.1-0.8,0.2-1.2,0.2c-0.7,0-1.2-0.2-1.5-0.6c-0.3-0.4-0.5-1-0.5-1.8v-5.5h-1.6v-1.2h1.6V225H147z"/>
		<path d="M149.8,231.5c0-0.9,0.2-1.7,0.5-2.4s0.8-1.2,1.4-1.6c0.6-0.4,1.3-0.6,2.1-0.6c1.2,0,2.2,0.4,2.9,1.3
			c0.8,0.8,1.1,2,1.1,3.4v0.1c0,0.9-0.2,1.6-0.5,2.3s-0.8,1.2-1.4,1.6c-0.6,0.4-1.3,0.6-2.1,0.6c-1.2,0-2.2-0.4-2.9-1.3
			c-0.8-0.8-1.1-2-1.1-3.3V231.5z M151.4,231.7c0,1,0.2,1.8,0.7,2.4c0.5,0.6,1.1,0.9,1.8,0.9c0.8,0,1.4-0.3,1.8-0.9
			c0.5-0.6,0.7-1.5,0.7-2.6c0-1-0.2-1.8-0.7-2.4c-0.5-0.6-1.1-0.9-1.9-0.9c-0.8,0-1.4,0.3-1.8,0.9
			C151.6,229.7,151.4,230.6,151.4,231.7z"/>
		<path d="M61.5,251.9c0,1.4-0.3,2.5-0.9,3.3c-0.6,0.8-1.5,1.2-2.5,1.2c-1.1,0-1.9-0.3-2.6-1v4.3H54v-12.4h1.4l0.1,1
			c0.6-0.8,1.5-1.2,2.6-1.2s1.9,0.4,2.5,1.2s0.9,1.9,0.9,3.4V251.9z M60,251.8c0-1-0.2-1.8-0.6-2.4s-1-0.9-1.8-0.9
			c-0.9,0-1.6,0.4-2.1,1.2v4.3c0.5,0.8,1.2,1.2,2.1,1.2c0.7,0,1.3-0.3,1.7-0.9C59.8,253.8,60,252.9,60,251.8z"/>
		<path d="M67.7,248.8c-0.2,0-0.5-0.1-0.8-0.1c-1,0-1.7,0.4-2,1.3v6.3h-1.5v-8.9h1.5v1c0.5-0.8,1.2-1.2,2.1-1.2c0.3,0,0.5,0,0.7,0.1
			C67.7,247.3,67.7,248.8,67.7,248.8z"/>
		<path d="M68.6,251.8c0-0.9,0.2-1.7,0.5-2.4s0.8-1.2,1.4-1.6c0.6-0.4,1.3-0.6,2.1-0.6c1.2,0,2.2,0.4,2.9,1.3c0.8,0.8,1.1,2,1.1,3.4
			v0.1c0,0.9-0.2,1.6-0.5,2.3s-0.8,1.2-1.4,1.6s-1.3,0.6-2.1,0.6c-1.2,0-2.2-0.4-2.9-1.3C68.9,254.4,68.6,253.2,68.6,251.8
			L68.6,251.8z M70.1,251.9c0,1,0.2,1.8,0.7,2.4c0.5,0.6,1.1,0.9,1.8,0.9c0.8,0,1.4-0.3,1.8-0.9c0.5-0.6,0.7-1.5,0.7-2.6
			c0-1-0.2-1.8-0.7-2.4c-0.5-0.6-1.1-0.9-1.9-0.9s-1.4,0.3-1.8,0.9C70.3,250,70.1,250.8,70.1,251.9z"/>
		<path d="M79.4,256.3v-7.7H78v-1.2h1.4v-0.9c0-1,0.3-1.7,0.8-2.2s1.2-0.8,2.2-0.8c0.4,0,0.7,0,1,0.1l-0.1,1.2
			c-0.3,0-0.5-0.1-0.8-0.1c-0.5,0-0.9,0.1-1.1,0.4c-0.3,0.3-0.4,0.7-0.4,1.2v0.9h1.9v1.2H81v7.7h-1.6V256.3z"/>
		<path d="M88,256.5c-1.2,0-2.2-0.4-3-1.2s-1.1-1.9-1.1-3.2v-0.3c0-0.9,0.2-1.7,0.5-2.4s0.8-1.2,1.4-1.6c0.6-0.4,1.3-0.6,2-0.6
			c1.2,0,2.1,0.4,2.7,1.1c0.6,0.8,1,1.9,1,3.3v0.6h-6c0,0.9,0.3,1.6,0.8,2.1s1.1,0.8,1.9,0.8c0.5,0,1-0.1,1.4-0.3s0.7-0.5,1-0.9
			l0.9,0.7C90.6,255.9,89.5,256.5,88,256.5z M87.8,248.5c-0.6,0-1.1,0.2-1.6,0.7c-0.4,0.4-0.7,1.1-0.8,1.9h4.5V251
			c0-0.8-0.3-1.4-0.6-1.8C88.9,248.7,88.4,248.5,87.8,248.5z"/>
		<path d="M98.4,253.9c0-0.4-0.2-0.7-0.5-1c-0.3-0.2-0.9-0.4-1.6-0.6c-0.8-0.2-1.4-0.4-1.8-0.6c-0.5-0.2-0.8-0.5-1-0.8
			s-0.3-0.7-0.3-1.1c0-0.7,0.3-1.3,0.9-1.9c0.6-0.5,1.4-0.8,2.4-0.8s1.8,0.3,2.5,0.8c0.6,0.5,0.9,1.2,0.9,2h-1.5
			c0-0.4-0.2-0.8-0.5-1.1c-0.4-0.3-0.8-0.5-1.3-0.5c-0.6,0-1,0.1-1.3,0.4s-0.5,0.6-0.5,0.9c0,0.4,0.1,0.6,0.4,0.8s0.8,0.4,1.6,0.5
			c0.8,0.2,1.4,0.4,1.9,0.6c0.5,0.2,0.8,0.5,1.1,0.9s0.3,0.7,0.3,1.2c0,0.8-0.3,1.4-1,1.9s-1.5,0.7-2.5,0.7c-0.7,0-1.3-0.1-1.9-0.4
			c-0.6-0.3-1-0.6-1.3-1.1s-0.5-0.9-0.5-1.5h1.5c0,0.5,0.2,0.9,0.6,1.2s0.9,0.4,1.5,0.4s1-0.1,1.4-0.3
			C98.2,254.6,98.4,254.3,98.4,253.9z"/>
		<path d="M101.9,245c0-0.2,0.1-0.5,0.2-0.6c0.2-0.2,0.4-0.3,0.7-0.3c0.3,0,0.5,0.1,0.7,0.3s0.2,0.4,0.2,0.6c0,0.2-0.1,0.5-0.2,0.6
			c-0.2,0.2-0.4,0.2-0.7,0.2c-0.3,0-0.5-0.1-0.7-0.2C102,245.5,101.9,245.3,101.9,245z M103.6,256.3h-1.5v-8.9h1.5V256.3z"/>
		<path d="M105.6,251.8c0-0.9,0.2-1.7,0.5-2.4s0.8-1.2,1.4-1.6c0.6-0.4,1.3-0.6,2.1-0.6c1.2,0,2.2,0.4,2.9,1.3
			c0.8,0.8,1.1,2,1.1,3.4v0.1c0,0.9-0.2,1.6-0.5,2.3s-0.8,1.2-1.4,1.6s-1.3,0.6-2.1,0.6c-1.2,0-2.2-0.4-2.9-1.3
			C105.9,254.4,105.6,253.2,105.6,251.8L105.6,251.8z M107.2,251.9c0,1,0.2,1.8,0.7,2.4c0.5,0.6,1.1,0.9,1.8,0.9
			c0.8,0,1.4-0.3,1.8-0.9c0.5-0.6,0.7-1.5,0.7-2.6c0-1-0.2-1.8-0.7-2.4c-0.5-0.6-1.1-0.9-1.9-0.9s-1.4,0.3-1.8,0.9
			C107.4,250,107.2,250.8,107.2,251.9z"/>
		<path d="M117.1,247.4v1.1c0.7-0.9,1.6-1.3,2.7-1.3c1.9,0,2.8,1.1,2.9,3.2v5.9h-1.5v-5.9c0-0.6-0.2-1.1-0.4-1.4
			c-0.3-0.3-0.7-0.5-1.3-0.5c-0.5,0-0.9,0.1-1.3,0.4c-0.4,0.3-0.7,0.6-0.9,1v6.4h-1.5v-8.9H117.1z"/>
		<path d="M130.5,256.3c-0.1-0.2-0.2-0.5-0.2-0.9c-0.7,0.7-1.6,1.1-2.5,1.1c-0.9,0-1.6-0.2-2.2-0.7c-0.6-0.5-0.8-1.1-0.8-1.9
			c0-0.9,0.4-1.7,1.1-2.2s1.7-0.8,3-0.8h1.5v-0.7c0-0.5-0.2-1-0.5-1.3s-0.8-0.5-1.4-0.5c-0.5,0-1,0.1-1.4,0.4
			c-0.4,0.3-0.6,0.6-0.6,1H125c0-0.4,0.2-0.9,0.5-1.3c0.3-0.4,0.7-0.7,1.3-1c0.5-0.2,1.1-0.4,1.8-0.4c1,0,1.8,0.3,2.4,0.8
			c0.6,0.5,0.9,1.2,0.9,2.1v4.1c0,0.8,0.1,1.5,0.3,2v0.1L130.5,256.3L130.5,256.3z M128,255.1c0.5,0,0.9-0.1,1.4-0.4
			c0.4-0.2,0.7-0.6,0.9-1V252h-1.2c-1.9,0-2.8,0.5-2.8,1.6c0,0.5,0.2,0.9,0.5,1.1C127,255,127.5,255.1,128,255.1z"/>
		<path d="M135.8,256.3h-1.5v-12.7h1.5V256.3z"/>
	</g>
</g>
<g id="Grupo_89671" transform="translate(475.452 323.179)">
	
		<linearGradient id="Elipse_4073_00000155862212387959329420000014680917209936862126_" gradientUnits="userSpaceOnUse" x1="-2217.5061" y1="2.8215" x2="-2216.7131" y2="2.0286" gradientTransform="matrix(240.332 0 0 240.332 532693 -568.7217)">
		<stop  offset="0" style="stop-color:#EBEAEA"/>
		<stop  offset="1" style="stop-color:#FFFFFF"/>
	</linearGradient>
	
		<circle id="Elipse_4073" style="fill:url(#Elipse_4073_00000155862212387959329420000014680917209936862126_);" cx="-149.5" cy="14.2" r="134.6"/>
	<circle id="Elipse_4074" class="st2" cx="-149.5" cy="14.2" r="128.1"/>
</g>
<g>
	<g>
		<defs>
			<circle id="SVGID_1_" cx="324.1" cy="337.4" r="114.4"/>
		</defs>
		<clipPath id="SVGID_00000075153564804647679620000004040071833003394222_">
			<use xlink:href="#SVGID_1_"  style="overflow:visible;"/>
		</clipPath>
		<g id="Grupo_89672" style="clip-path:url(#SVGID_00000075153564804647679620000004040071833003394222_);">
			<g id="Grupo_88995" transform="translate(-32.422 39.235)">
				<g id="Grupo_88972" transform="translate(132.106)">
					<path id="Trazado_110700" class="st13" d="M303.1,360h-88.4c-1.7,0-3.1-1.3-3.1-3c0-0.1,0-0.2,0-0.3l7.4-130.5
						c0.1-1.8,1.6-3.2,3.4-3.3h88.4c1.7,0,3.1,1.3,3.1,3c0,0,0,0,0,0c0,0.1,0,0.2,0,0.2l-7.4,130.5C306.4,358.6,304.9,360,303.1,360
						L303.1,360z"/>
					<path id="Trazado_110701" class="st14" d="M303.1,360h-88.4c-1.7,0-3.1-1.3-3.1-3c0-0.1,0-0.2,0-0.3l7.4-130.5
						c0.1-1.8,1.6-3.2,3.4-3.3h88.4c1.7,0,3.1,1.3,3.1,3c0,0,0,0,0,0c0,0.1,0,0.2,0,0.2l-7.4,130.5C306.4,358.6,304.9,360,303.1,360
						L303.1,360z"/>
					<path id="Trazado_110702" class="st13" d="M312,226.3l-7.4,130.5c-0.1,1.8-1.6,3.2-3.4,3.3h-88.4c-1.7,0-3.1-1.3-3.1-3
						c0-0.1,0-0.2,0-0.3l1.9-33l5.5-97.5c0.1-1.8,1.6-3.2,3.4-3.3H309c1.7,0,3,1.3,3.1,3c0,0,0,0,0,0C312,226.1,312,226.2,312,226.3
						L312,226.3z"/>
					<path id="Trazado_110703" class="st15" d="M309.7,266.6l-5.1,90.2c-0.1,1.8-1.6,3.2-3.4,3.3h-88.4c-1.7,0-3-1.3-3.1-3
						c0-0.1,0-0.2,0-0.3l5.1-90.2L309.7,266.6z"/>
					<path id="Trazado_110704" class="st16" d="M301.1,261.2h-77l1.2-20.3h77L301.1,261.2z"/>
					<path id="Trazado_110705" class="st17" d="M298.8,231.5h4l-0.4,6.4h-4L298.8,231.5z"/>
					<path id="Trazado_110706" class="st17" d="M294.1,231.5h4l-0.4,6.4h-4L294.1,231.5z"/>
					<path id="Trazado_110707" class="st17" d="M289.4,231.5h4l-0.4,6.4h-4L289.4,231.5z"/>
					<path id="Trazado_110708" class="st17" d="M284.7,231.5h4l-0.4,6.4h-4L284.7,231.5z"/>
					<path id="Trazado_110709" class="st17" d="M280,231.5h4l-0.4,6.4h-4L280,231.5z"/>
					<path id="Trazado_110710" class="st17" d="M275.3,231.5h4l-0.4,6.4h-4L275.3,231.5z"/>
					<path id="Trazado_110711" class="st15" d="M238.5,235.7h-13l0.2-2.7h13L238.5,235.7z"/>
					<g id="Grupo_88965" transform="translate(46.156 21.214)">
						<g id="Grupo_88963" transform="translate(0 5.714)">
							<path id="Trazado_110712" class="st13" d="M214.8,229.1v0.9h-5.1v-0.7l3-2.7c0.5-0.4,0.9-0.9,1-1.6c0-0.7-0.4-1.2-1.4-1.2
								c-0.7,0-1.4,0.2-1.8,0.7l-0.6-0.6c0.7-0.7,1.6-1.1,2.6-1c1.4,0,2.4,0.7,2.3,1.9c-0.1,0.9-0.5,1.7-1.3,2.2l-2.2,2L214.8,229.1
								z"/>
							<path id="Trazado_110713" class="st13" d="M215.6,229.4c0-0.4,0.4-0.7,0.7-0.7c0.3,0,0.6,0.3,0.6,0.6c0,0,0,0.1,0,0.1
								c0,0.4-0.3,0.7-0.7,0.7C215.9,230.1,215.6,229.8,215.6,229.4C215.6,229.5,215.6,229.5,215.6,229.4L215.6,229.4z"/>
							<path id="Trazado_110714" class="st13" d="M223.9,228.3h-1.3l-0.1,1.7h-1l0.1-1.7h-3.9v-0.7l3.8-4.5h1l-3.6,4.4h2.7l0.1-1.5
								h1l-0.1,1.5h1.3L223.9,228.3z"/>
							<path id="Trazado_110715" class="st13" d="M224.6,226.6c0.1-2.2,1.4-3.6,3-3.6s2.7,1.3,2.6,3.6s-1.4,3.6-3,3.6
								S224.5,228.8,224.6,226.6z M229.3,226.6c0.1-1.8-0.6-2.7-1.7-2.7s-1.9,0.9-2,2.7s0.6,2.6,1.7,2.6S229.2,228.3,229.3,226.6z"
								/>
							<path id="Trazado_110716" class="st13" d="M231.2,226.6c0.1-2.2,1.4-3.6,3.1-3.6s2.7,1.3,2.6,3.6s-1.4,3.6-3,3.6
								S231.1,228.8,231.2,226.6z M235.9,226.6c0.1-1.8-0.6-2.7-1.7-2.7s-1.9,0.9-2,2.7s0.6,2.6,1.7,2.6S235.8,228.3,235.9,226.6
								L235.9,226.6z"/>
							<path id="Trazado_110717" class="st13" d="M237.5,229.4c0-0.4,0.3-0.7,0.7-0.7c0.3,0,0.6,0.3,0.6,0.6c0,0,0,0,0,0.1
								c0,0.4-0.3,0.7-0.7,0.7C237.8,230.1,237.5,229.8,237.5,229.4C237.5,229.5,237.5,229.5,237.5,229.4L237.5,229.4z"/>
							<path id="Trazado_110718" class="st13" d="M245.4,228.1c-0.1,1.3-1.2,2-2.9,2s-2.7-0.8-2.6-2c0-0.8,0.6-1.4,1.3-1.7
								c-0.6-0.2-1-0.8-0.9-1.5c0.1-1.2,1.1-1.8,2.6-1.8s2.5,0.7,2.4,1.8c0,0.7-0.4,1.2-1.1,1.5C245,226.6,245.5,227.3,245.4,228.1
								L245.4,228.1z M244.5,228.1c0-0.8-0.6-1.2-1.7-1.2s-1.8,0.5-1.8,1.2s0.6,1.3,1.7,1.3S244.4,228.8,244.5,228.1L244.5,228.1z
								 M241.4,225c0,0.7,0.5,1.1,1.4,1.1s1.6-0.4,1.6-1.1s-0.5-1.1-1.5-1.1S241.4,224.3,241.4,225L241.4,225z"/>
							<path id="Trazado_110719" class="st13" d="M251.6,226.5c0.1,1.9-1.4,3.5-3.3,3.6c0,0,0,0,0,0h-0.2c-0.6,0-1.2-0.1-1.7-0.4
								l0.4-0.8c1.2,0.7,2.8,0.3,3.4-1c0.2-0.4,0.3-0.9,0.3-1.3v-0.2c-0.5,0.6-1.3,1-2.1,0.9c-1.1,0.1-2.1-0.6-2.2-1.7
								c0-0.1,0-0.3,0-0.4c0.1-1.3,1.3-2.3,2.6-2.2c0,0,0,0,0,0l0,0C250.8,223,251.7,224.3,251.6,226.5z M250.4,225.2
								c0-0.7-0.5-1.3-1.6-1.3c-0.8-0.1-1.5,0.5-1.6,1.3l0,0c0,0.8,0.5,1.3,1.5,1.3C249.6,226.6,250.3,226,250.4,225.2L250.4,225.2
								L250.4,225.2z"/>
						</g>
						<g id="Grupo_88964" transform="translate(9.36)">
							<path id="Trazado_110720" class="st13" d="M210.7,223l-0.2,2.8h-0.4l0.1-2.4h-0.6v-0.3L210.7,223z"/>
							<path id="Trazado_110721" class="st13" d="M211.2,225.6c0-0.2,0.1-0.3,0.3-0.3c0.1,0,0.3,0.1,0.3,0.3l0,0
								c0,0.1-0.1,0.3-0.3,0.3C211.3,225.8,211.2,225.7,211.2,225.6L211.2,225.6z"/>
							<path id="Trazado_110722" class="st13" d="M213.1,223l-0.2,2.8h-0.4l0.1-2.4H212v-0.3L213.1,223z"/>
							<path id="Trazado_110723" class="st13" d="M213.6,224.4c-0.1-0.7,0.4-1.3,1.1-1.4h0.1c0.6,0,1.1,0.5,1,1.4s-0.6,1.4-1.2,1.4
								S213.6,225.3,213.6,224.4z M215.5,224.4c0-0.7-0.2-1.1-0.7-1.1s-0.8,0.4-0.8,1.1s0.3,1.1,0.7,1.1S215.5,225.1,215.5,224.4
								L215.5,224.4z"/>
							<path id="Trazado_110724" class="st13" d="M216.3,224.4c0.1-0.9,0.6-1.4,1.2-1.4s1.1,0.5,1.1,1.4s-0.6,1.4-1.2,1.4
								S216.2,225.3,216.3,224.4z M218.2,224.4c0-0.7-0.2-1.1-0.7-1.1s-0.8,0.4-0.8,1.1s0.2,1.1,0.7,1.1S218.1,225.1,218.2,224.4
								L218.2,224.4z"/>
							<path id="Trazado_110725" class="st13" d="M218.8,225.6c0-0.2,0.1-0.3,0.3-0.3c0.1,0,0.3,0.1,0.3,0.2l0,0
								c0,0.1-0.1,0.3-0.3,0.3C218.9,225.8,218.8,225.7,218.8,225.6L218.8,225.6z"/>
							<path id="Trazado_110726" class="st13" d="M222,225c0,0.5-0.5,0.8-1.2,0.8s-1.1-0.3-1.1-0.8c0-0.3,0.2-0.6,0.5-0.7
								c-0.2-0.1-0.4-0.3-0.4-0.6c0-0.5,0.5-0.8,1.1-0.8s1,0.3,1,0.8c0,0.3-0.2,0.5-0.4,0.6C221.8,224.4,222,224.7,222,225z
								 M221.6,225c0-0.3-0.2-0.5-0.7-0.5s-0.7,0.2-0.7,0.5s0.2,0.5,0.7,0.5S221.6,225.3,221.6,225L221.6,225z M220.4,223.8
								c0,0.3,0.2,0.5,0.6,0.5s0.6-0.2,0.7-0.5s-0.2-0.4-0.6-0.4S220.4,223.5,220.4,223.8L220.4,223.8z"/>
							<path id="Trazado_110727" class="st13" d="M222.4,224.4c-0.1-0.7,0.4-1.3,1.1-1.4h0.1c0.6,0,1.1,0.5,1.1,1.4
								s-0.6,1.4-1.2,1.4S222.4,225.3,222.4,224.4z M224.3,224.4c0-0.7-0.2-1.1-0.7-1.1s-0.8,0.4-0.8,1.1s0.2,1.1,0.7,1.1
								S224.2,225.1,224.3,224.4L224.3,224.4z"/>
							<path id="Trazado_110728" class="st13" d="M227,224.6h-0.7v0.7h-0.3v-0.7h-0.7v-0.3h0.7v-0.7h0.3v0.7h0.7L227,224.6z"/>
							<path id="Trazado_110729" class="st13" d="M228.3,223l-0.2,2.8h-0.4l0.1-2.4h-0.6v-0.3L228.3,223z"/>
							<path id="Trazado_110730" class="st13" d="M228.8,225.6c0-0.2,0.1-0.3,0.3-0.3l0,0l0,0c0.1,0,0.2,0.1,0.2,0.2l0,0
								c0,0.1-0.1,0.3-0.3,0.3C228.9,225.8,228.8,225.7,228.8,225.6L228.8,225.6z"/>
							<path id="Trazado_110731" class="st13" d="M231.7,225c0,0.5-0.4,0.9-1.1,0.9c-0.4,0-0.7-0.1-1-0.3l0.2-0.3
								c0.2,0.2,0.5,0.3,0.8,0.3c0.4,0,0.7-0.2,0.7-0.5s-0.2-0.5-0.7-0.5h-0.2v-0.2l0.8-0.8h-1.4v-0.3h1.8v0.3l-0.8,0.9
								C231.4,224.3,231.7,224.6,231.7,225z"/>
							<path id="Trazado_110732" class="st13" d="M232.1,224.4c-0.1-0.7,0.4-1.3,1.1-1.4c0,0,0,0,0,0h0.1c0.6,0,1.1,0.5,1.1,1.4
								s-0.6,1.4-1.2,1.4S232,225.3,232.1,224.4z M233.9,224.4c0-0.7-0.2-1.1-0.7-1.1s-0.8,0.4-0.8,1.1s0.2,1.1,0.7,1.1
								S233.9,225.1,233.9,224.4L233.9,224.4z"/>
							<path id="Trazado_110733" class="st13" d="M234.7,224.4c-0.1-0.7,0.4-1.3,1.1-1.4h0.1c0.6,0,1.1,0.5,1.1,1.4
								s-0.6,1.4-1.2,1.4S234.7,225.3,234.7,224.4z M236.6,224.4c0-0.7-0.2-1.1-0.7-1.1s-0.8,0.4-0.8,1.1s0.2,1.1,0.7,1.1
								S236.6,225.1,236.6,224.4z"/>
							<path id="Trazado_110734" class="st13" d="M237.3,225.6c0-0.2,0.1-0.3,0.3-0.3c0.1,0,0.2,0.1,0.3,0.2c0,0,0,0,0,0l0,0
								c0,0.1-0.1,0.3-0.3,0.3C237.4,225.8,237.3,225.7,237.3,225.6C237.3,225.6,237.3,225.6,237.3,225.6L237.3,225.6z"/>
							<path id="Trazado_110735" class="st13" d="M238.2,224.4c-0.1-0.7,0.4-1.3,1.1-1.4h0.1c0.6,0,1.1,0.5,1.1,1.4
								s-0.6,1.4-1.2,1.4S238.2,225.3,238.2,224.4z M240.1,224.4c0-0.7-0.2-1.1-0.7-1.1s-0.8,0.4-0.8,1.1s0.2,1.1,0.7,1.1
								S240.1,225.1,240.1,224.4L240.1,224.4z"/>
							<path id="Trazado_110736" class="st13" d="M243,224.4c0,0.8-0.6,1.4-1.4,1.5c-0.2,0-0.5-0.1-0.7-0.2l0.2-0.3
								c0.2,0.1,0.4,0.1,0.5,0.1c0.5,0,1-0.4,1-0.9c0,0,0-0.1,0-0.1v-0.1c-0.2,0.3-0.5,0.4-0.8,0.4c-0.4,0.1-0.8-0.2-0.9-0.7
								c0,0,0,0,0,0c0,0,0-0.1,0-0.1c0-0.5,0.5-0.9,1-0.9c0,0,0,0,0,0C242.6,223,243.1,223.5,243,224.4z M242.5,223.9
								c0-0.3-0.2-0.5-0.6-0.5c-0.3,0-0.6,0.2-0.6,0.5c0,0,0,0,0,0l0,0c0,0.3,0.2,0.5,0.6,0.5C242.2,224.4,242.5,224.2,242.5,223.9
								L242.5,223.9z"/>
						</g>
					</g>
					<path id="Trazado_110737" class="st18" d="M305.5,223c-8.4,20.8-34.1,71.8-94,100.8l5.5-97.5c0.1-1.8,1.6-3.2,3.4-3.3H305.5z"
						/>
					<g id="Grupo_88971" transform="translate(8.303 49.434)">
						<g id="Grupo_88968">
							<g id="Grupo_88966" transform="translate(0.648 0)">
								<path id="Trazado_110738" class="st13" d="M290.6,223H281c-0.7,0-1.3,0.6-1.4,1.3l-0.2,3.4c-0.1,0.7,0.4,1.2,1,1.3
									c0,0,0,0,0,0h9.8c0.7,0,1.3-0.6,1.4-1.3l0.2-3.4c0.1-0.7-0.4-1.2-1.1-1.3c0,0,0,0,0,0L290.6,223z"/>
								<path id="Trazado_110739" class="st13" d="M274.2,223h-9.7c-0.7,0-1.3,0.6-1.4,1.3l-0.2,3.4c-0.1,0.7,0.4,1.2,1.1,1.3
									c0,0,0,0,0,0h9.8c0.7,0,1.3-0.6,1.4-1.3l0.2-3.4c0.1-0.6-0.4-1.2-1.1-1.3H274.2z"/>
								<path id="Trazado_110740" class="st13" d="M290.1,232.4h-9.7c-0.7,0-1.3,0.6-1.4,1.3l-0.2,3.4c-0.1,0.7,0.4,1.2,1.1,1.3h9.8
									c0.7,0,1.3-0.6,1.4-1.3l0.2-3.4c0-0.6-0.4-1.2-1.1-1.2L290.1,232.4z"/>
								<path id="Trazado_110741" class="st13" d="M273.7,232.3H264c-0.7,0-1.3,0.6-1.4,1.3l-0.2,3.4c-0.1,0.7,0.4,1.2,1.1,1.3h9.8
									c0.7,0,1.3-0.6,1.4-1.3l0.2-3.4c0.1-0.7-0.4-1.2-1.1-1.3c0,0,0,0,0,0L273.7,232.3z"/>
								<path id="Trazado_110742" class="st13" d="M257.3,232.4h-9.7c-0.7,0-1.3,0.6-1.4,1.3l-0.2,3.4c-0.1,0.6,0.4,1.2,1.1,1.3h9.8
									c0.7,0,1.3-0.6,1.4-1.3l0.2-3.4c0.1-0.6-0.4-1.2-1.1-1.3H257.3z"/>
								<path id="Trazado_110743" class="st13" d="M240.9,232.4h-9.7c-0.7,0-1.3,0.6-1.4,1.3l-0.2,3.4c-0.1,0.7,0.4,1.2,1.1,1.3h9.8
									c0.7,0,1.3-0.6,1.4-1.3l0.2-3.4c0.1-0.7-0.4-1.2-1.1-1.3L240.9,232.4z"/>
								<path id="Trazado_110744" class="st13" d="M224.5,232.5h-9.6c-0.7,0-1.3,0.6-1.4,1.3l-0.2,3.4c-0.1,0.6,0.4,1.2,1,1.3
									c0,0,0,0,0,0h9.8c0.7,0,1.4-0.6,1.4-1.3l0.2-3.4c0.1-0.6-0.4-1.2-1-1.3c0,0,0,0,0,0C224.6,232.5,224.6,232.5,224.5,232.5
									L224.5,232.5z"/>
								<path id="Trazado_110745" class="st13" d="M289.2,244.9H280c-0.9,0-1.6,0.7-1.6,1.5l-0.3,4.7c-0.1,0.8,0.6,1.5,1.3,1.5h9.3
									c0.9,0,1.6-0.7,1.6-1.5l0.3-4.7c0.1-0.8-0.5-1.5-1.3-1.5H289.2z"/>
								<path id="Trazado_110746" class="st13" d="M272.7,244.8h-9.2c-0.9,0-1.6,0.7-1.6,1.6l-0.3,4.7c-0.1,0.8,0.5,1.5,1.3,1.5h9.3
									c0.9,0,1.6-0.7,1.6-1.5l0.3-4.7C274.2,245.6,273.6,244.9,272.7,244.8C272.8,244.8,272.8,244.8,272.7,244.8L272.7,244.8z"/>
								<path id="Trazado_110747" class="st13" d="M256.4,244.9h-9.2c-0.9,0-1.6,0.7-1.6,1.5l-0.3,4.7c-0.1,0.8,0.6,1.5,1.3,1.5h9.3
									c0.9,0,1.6-0.7,1.6-1.5l0.3-4.7c0.1-0.8-0.5-1.5-1.3-1.5c0,0,0,0,0,0H256.4z"/>
								<path id="Trazado_110748" class="st13" d="M239.9,245h-9.2c-0.9,0-1.6,0.7-1.6,1.5l-0.3,4.7c-0.1,0.8,0.5,1.5,1.3,1.5h9.3
									c0.9,0,1.6-0.7,1.6-1.5l0.3-4.7c0.1-0.8-0.5-1.5-1.3-1.5H239.9z"/>
								<path id="Trazado_110749" class="st13" d="M223.5,245h-9.2c-0.9,0-1.6,0.7-1.6,1.6l-0.3,4.7c-0.1,0.8,0.5,1.5,1.3,1.5
									c0,0,0,0,0,0h9.3c0.9,0,1.6-0.7,1.6-1.5l0.3-4.7C225,245.8,224.4,245.1,223.5,245C223.6,245,223.6,245,223.5,245L223.5,245z
									"/>
								<path id="Trazado_110750" class="st13" d="M270,292.8h-9.2c-0.9,0-1.6,0.7-1.6,1.5l-0.3,4.7c-0.1,0.8,0.5,1.5,1.3,1.5
									c0,0,0,0,0,0h9.3c0.9,0,1.6-0.7,1.6-1.5l0.3-4.7c0.1-0.8-0.6-1.5-1.3-1.5H270z"/>
								<path id="Trazado_110751" class="st13" d="M253.6,292.8h-9.2c-0.9,0-1.6,0.7-1.6,1.6l-0.3,4.7c-0.1,0.8,0.5,1.5,1.3,1.5
									c0,0,0,0,0,0h9.3c0.9,0,1.6-0.7,1.6-1.5l0.3-4.7c0.1-0.8-0.5-1.5-1.3-1.5c0,0,0,0,0,0L253.6,292.8z"/>
								<path id="Trazado_110752" class="st13" d="M237.2,292.9H228c-0.9,0-1.6,0.7-1.6,1.5l-0.3,4.7c-0.1,0.8,0.5,1.5,1.3,1.5h9.3
									c0.9,0,1.6-0.7,1.6-1.6l0.3-4.7c0.1-0.8-0.5-1.5-1.3-1.5c0,0,0,0,0,0L237.2,292.9z"/>
								<path id="Trazado_110753" class="st13" d="M220.8,293h-9.2c-0.9,0-1.6,0.7-1.6,1.5l-0.3,4.7c0,0.8,0.6,1.5,1.3,1.5h9.3
									c0.9,0,1.6-0.7,1.6-1.5l0.3-4.7c0.1-0.8-0.5-1.5-1.3-1.6c0,0,0,0,0,0L220.8,293z"/>
								<path id="Trazado_110754" class="st13" d="M287.1,280.9h-9.2c-0.9,0-1.6,0.7-1.6,1.6l-0.2,4.1v0.6l-0.7,12
									c-0.1,0.8,0.5,1.5,1.3,1.5h9.3c0.9,0,1.6-0.7,1.6-1.5l0.7-12v-0.6l0.2-4.1c0.1-0.8-0.5-1.5-1.3-1.5c0,0,0,0,0,0L287.1,280.9
									z"/>
								<path id="Trazado_110755" class="st13" d="M270.7,280.8h-9.2c-0.9,0-1.6,0.7-1.6,1.6l-0.3,4.7c-0.1,0.8,0.5,1.5,1.3,1.5h9.3
									c0.9,0,1.6-0.7,1.6-1.5l0.3-4.7c0.1-0.8-0.5-1.5-1.3-1.5c0,0,0,0,0,0L270.7,280.8z"/>
								<path id="Trazado_110756" class="st13" d="M254.3,280.9h-9.2c-0.9,0-1.6,0.7-1.6,1.6l-0.3,4.7c-0.1,0.8,0.5,1.5,1.3,1.5h9.3
									c0.9,0,1.6-0.7,1.6-1.5l0.3-4.7c0.1-0.8-0.5-1.5-1.3-1.5L254.3,280.9z"/>
								<path id="Trazado_110757" class="st13" d="M237.9,280.9h-9.2c-0.9,0-1.6,0.7-1.6,1.6l-0.3,4.7c-0.1,0.8,0.5,1.5,1.3,1.5h9.3
									c0.9,0,1.6-0.7,1.6-1.5l0.3-4.7c0.1-0.8-0.5-1.5-1.3-1.5c0,0,0,0,0,0L237.9,280.9z"/>
								<path id="Trazado_110758" class="st13" d="M221.5,281h-9.2c-0.9,0-1.6,0.7-1.6,1.5l-0.3,4.7c-0.1,0.8,0.5,1.5,1.3,1.5h9.3
									c0.9,0,1.6-0.7,1.6-1.5l0.3-4.7c0.1-0.8-0.5-1.5-1.3-1.5c0,0,0,0,0,0L221.5,281z"/>
								<path id="Trazado_110759" class="st13" d="M287.8,268.9h-9.2c-0.9,0-1.6,0.7-1.6,1.6l-0.3,4.7c-0.1,0.8,0.5,1.5,1.3,1.6h9.3
									c0.9,0,1.6-0.7,1.6-1.6l0.3-4.7c0.1-0.8-0.5-1.5-1.3-1.6c0,0,0,0,0,0H287.8z"/>
								<path id="Trazado_110760" class="st13" d="M271.4,268.8h-9.2c-0.9,0-1.6,0.7-1.6,1.5l-0.3,4.7c-0.1,0.8,0.5,1.5,1.3,1.5h9.3
									c0.9,0,1.6-0.7,1.6-1.6l0.3-4.7c0.1-0.8-0.5-1.5-1.3-1.5L271.4,268.8z"/>
								<path id="Trazado_110761" class="st13" d="M255,268.9h-9.2c-0.9,0-1.6,0.7-1.6,1.6l-0.3,4.7c-0.1,0.8,0.5,1.5,1.3,1.6h9.3
									c0.9,0,1.6-0.7,1.6-1.6l0.3-4.7c0.1-0.8-0.5-1.5-1.3-1.6L255,268.9z"/>
								<path id="Trazado_110762" class="st13" d="M238.6,268.9h-9.2c-0.9,0-1.6,0.7-1.6,1.6l-0.3,4.7c-0.1,0.8,0.5,1.5,1.3,1.5
									c0,0,0,0,0,0h9.3c0.9,0,1.6-0.7,1.7-1.5l0.3-4.7c0.1-0.8-0.5-1.5-1.3-1.5c0,0,0,0,0,0L238.6,268.9z"/>
								<path id="Trazado_110763" class="st13" d="M222.2,269H213c-0.9,0-1.6,0.7-1.6,1.5l-0.3,4.7c-0.1,0.8,0.5,1.5,1.3,1.5
									c0,0,0,0,0,0h9.3c0.9,0,1.6-0.7,1.6-1.6l0.3-4.7c0.1-0.8-0.6-1.5-1.3-1.5L222.2,269z"/>
								<path id="Trazado_110764" class="st13" d="M288.4,256.9h-9.2c-0.9,0-1.6,0.7-1.6,1.5l-0.3,4.7c-0.1,0.8,0.5,1.5,1.3,1.5
									c0,0,0,0,0,0h9.3c0.9,0,1.6-0.7,1.6-1.6l0.3-4.7c0.1-0.8-0.5-1.5-1.3-1.5c0,0,0,0,0,0L288.4,256.9z"/>
								<path id="Trazado_110765" class="st13" d="M272.1,256.8h-9.2c-0.9,0-1.6,0.7-1.6,1.5l-0.3,4.7c-0.1,0.8,0.5,1.5,1.3,1.5
									c0,0,0,0,0,0h9.3c0.9,0,1.6-0.7,1.6-1.6l0.3-4.7c0.1-0.8-0.5-1.5-1.3-1.5L272.1,256.8z"/>
								<path id="Trazado_110766" class="st13" d="M255.7,256.9h-9.2c-0.9,0-1.6,0.7-1.6,1.5l-0.3,4.7c-0.1,0.8,0.5,1.5,1.3,1.5
									c0,0,0,0,0,0h9.3c0.9,0,1.6-0.7,1.6-1.6l0.3-4.7c0.1-0.8-0.5-1.5-1.3-1.5L255.7,256.9z"/>
								<path id="Trazado_110767" class="st13" d="M239.2,256.9h-9.2c-0.9,0-1.6,0.7-1.6,1.5l-0.3,4.7c-0.1,0.8,0.5,1.5,1.3,1.5h9.3
									c0.9,0,1.6-0.7,1.6-1.6l0.3-4.7c0.1-0.8-0.5-1.5-1.3-1.5L239.2,256.9z"/>
								<path id="Trazado_110768" class="st13" d="M222.8,257h-9.1c-0.9,0-1.6,0.7-1.6,1.5l-0.3,4.7c-0.1,0.8,0.6,1.5,1.3,1.5h9.3
									c0.9,0,1.6-0.7,1.6-1.5l0.3-4.7c0.1-0.8-0.5-1.5-1.3-1.5L222.8,257z"/>
							</g>
							<path id="Trazado_110769" class="st13" d="M290.6,223H281c-0.7,0-1.3,0.6-1.4,1.3l-0.2,3.4c-0.1,0.7,0.4,1.2,1,1.3
								c0,0,0,0,0,0h9.8c0.7,0,1.3-0.6,1.4-1.3l0.2-3.4c0.1-0.7-0.4-1.2-1.1-1.3c0,0,0,0,0,0L290.6,223z"/>
							<path id="Trazado_110770" class="st13" d="M274.2,223h-9.6c-0.7,0-1.3,0.6-1.4,1.3l-0.2,3.4c-0.1,0.7,0.4,1.2,1.1,1.3
								c0,0,0,0,0,0h9.8c0.7,0,1.3-0.6,1.4-1.3l0.2-3.4c0.1-0.7-0.4-1.2-1.1-1.3c0,0,0,0,0,0H274.2z"/>
							<path id="Trazado_110771" class="st13" d="M290.1,232.4h-9.7c-0.7,0-1.3,0.6-1.4,1.3l-0.2,3.4c-0.1,0.7,0.4,1.2,1.1,1.3
								c0,0,0,0,0,0h9.8c0.7,0,1.3-0.6,1.4-1.3l0.2-3.4c0.1-0.6-0.4-1.2-1-1.3C290.2,232.4,290.2,232.4,290.1,232.4L290.1,232.4z"/>
							<path id="Trazado_110772" class="st13" d="M273.7,232.3H264c-0.7,0-1.3,0.6-1.4,1.3l-0.2,3.4c-0.1,0.6,0.4,1.2,1.1,1.3h9.8
								c0.7,0,1.3-0.6,1.4-1.3l0.2-3.4c0.1-0.7-0.4-1.2-1.1-1.3L273.7,232.3z"/>
							<path id="Trazado_110773" class="st13" d="M257.3,232.4h-9.7c-0.7,0-1.3,0.6-1.4,1.3l-0.2,3.4c-0.1,0.7,0.4,1.2,1.1,1.3
								c0,0,0,0,0,0h9.8c0.7,0,1.3-0.6,1.4-1.3l0.2-3.4c0-0.6-0.4-1.2-1.1-1.2L257.3,232.4z"/>
							<path id="Trazado_110774" class="st13" d="M240.9,232.4h-9.7c-0.7,0-1.3,0.6-1.4,1.3l-0.2,3.4c-0.1,0.7,0.4,1.2,1.1,1.3h9.8
								c0.7,0,1.3-0.6,1.4-1.3l0.2-3.4C242.1,233.1,241.6,232.5,240.9,232.4C241,232.4,241,232.4,240.9,232.4L240.9,232.4z"/>
							<path id="Trazado_110775" class="st13" d="M224.5,232.5h-9.7c-0.7,0-1.3,0.6-1.4,1.3l-0.2,3.4c-0.1,0.6,0.4,1.2,1,1.3
								c0,0,0,0,0,0h9.8c0.7,0,1.3-0.6,1.4-1.3l0.2-3.4c0.1-0.6-0.4-1.2-1-1.3H224.5z"/>
							<path id="Trazado_110776" class="st13" d="M289.1,244.9H280c-0.9,0-1.6,0.7-1.6,1.5l-0.3,4.7c-0.1,0.8,0.5,1.5,1.3,1.5h9.3
								c0.9,0,1.6-0.7,1.6-1.5l0.3-4.7c0.1-0.8-0.5-1.5-1.3-1.5c0,0,0,0,0,0H289.1z"/>
							<path id="Trazado_110777" class="st13" d="M272.7,244.8h-9.2c-0.9,0-1.6,0.7-1.6,1.6l-0.3,4.7c-0.1,0.8,0.5,1.5,1.3,1.5h9.3
								c0.9,0,1.6-0.7,1.6-1.5l0.3-4.7c0.1-0.8-0.5-1.5-1.3-1.5L272.7,244.8z"/>
							<path id="Trazado_110778" class="st13" d="M256.3,244.9h-9.2c-0.9,0-1.6,0.7-1.6,1.5l-0.3,4.7c-0.1,0.8,0.6,1.5,1.3,1.5h9.3
								c0.9,0,1.6-0.7,1.6-1.5l0.3-4.7C257.8,245.6,257.2,244.9,256.3,244.9C256.4,244.9,256.4,244.9,256.3,244.9L256.3,244.9z"/>
							<path id="Trazado_110779" class="st13" d="M239.9,245h-9.2c-0.9,0-1.6,0.7-1.6,1.5l-0.3,4.7c-0.1,0.8,0.5,1.5,1.3,1.5h9.3
								c0.9,0,1.6-0.7,1.6-1.5l0.3-4.7c0.1-0.8-0.5-1.5-1.3-1.5c0,0,0,0,0,0H239.9z"/>
							<path id="Trazado_110780" class="st13" d="M223.5,245h-9.2c-0.9,0-1.6,0.7-1.6,1.6l-0.3,4.7c-0.1,0.8,0.5,1.5,1.3,1.5
								c0,0,0,0,0,0h9.3c0.9,0,1.6-0.7,1.6-1.5l0.3-4.7c0.1-0.8-0.5-1.5-1.3-1.5c0,0,0,0,0,0L223.5,245z"/>
							<path id="Trazado_110781" class="st13" d="M270,292.8h-9.2c-0.9,0-1.6,0.7-1.6,1.5l-0.3,4.7c-0.1,0.8,0.5,1.5,1.3,1.5h9.3
								c0.9,0,1.6-0.7,1.6-1.5l0.3-4.7c0.1-0.8-0.5-1.5-1.3-1.5c0,0,0,0,0,0H270z"/>
							<path id="Trazado_110782" class="st13" d="M253.6,292.8h-9.2c-0.9,0-1.6,0.7-1.6,1.6l-0.3,4.7c-0.1,0.8,0.5,1.5,1.3,1.5h9.3
								c0.9,0,1.6-0.7,1.6-1.5l0.3-4.8c0.1-0.8-0.5-1.5-1.3-1.5L253.6,292.8z"/>
							<path id="Trazado_110783" class="st13" d="M237.2,292.9H228c-0.9,0-1.6,0.7-1.6,1.5l-0.3,4.7c-0.1,0.8,0.5,1.5,1.3,1.5h9.3
								c0.9,0,1.6-0.7,1.6-1.6l0.3-4.7c0.1-0.8-0.5-1.5-1.3-1.5L237.2,292.9z"/>
							<path id="Trazado_110784" class="st13" d="M220.8,293h-9.2c-0.9,0-1.6,0.7-1.6,1.5l-0.3,4.7c-0.1,0.8,0.5,1.5,1.3,1.5
								c0,0,0,0,0,0h9.3c0.9,0,1.6-0.7,1.6-1.5l0.3-4.7c0.1-0.8-0.5-1.5-1.3-1.5H220.8z"/>
							<path id="Trazado_110785" class="st13" d="M287.1,280.9h-9.2c-0.9,0-1.6,0.7-1.6,1.6l-0.2,4.1v0.6l-0.7,12
								c-0.1,0.8,0.5,1.5,1.3,1.5h9.3c0.9,0,1.6-0.7,1.6-1.5l0.7-12v-0.6l0.2-4.1c0.1-0.8-0.5-1.5-1.3-1.5c0,0,0,0,0,0L287.1,280.9z
								"/>
							<path id="Trazado_110786" class="st13" d="M270.7,280.8h-9.2c-0.9,0-1.6,0.7-1.6,1.6l-0.3,4.8c-0.1,0.8,0.5,1.5,1.3,1.5h9.3
								c0.9,0,1.6-0.7,1.6-1.5l0.3-4.7c0.1-0.8-0.5-1.5-1.3-1.5c0,0,0,0,0,0L270.7,280.8z"/>
							<path id="Trazado_110787" class="st13" d="M254.3,280.9h-9.2c-0.9,0-1.6,0.7-1.6,1.6l-0.3,4.7c-0.1,0.8,0.5,1.5,1.3,1.5h9.3
								c0.9,0,1.6-0.7,1.6-1.5l0.3-4.7c0.1-0.8-0.5-1.5-1.3-1.5c0,0,0,0,0,0L254.3,280.9z"/>
							<path id="Trazado_110788" class="st13" d="M237.9,280.9h-9.2c-0.9,0-1.6,0.7-1.6,1.6l-0.3,4.7c-0.1,0.8,0.5,1.5,1.3,1.5h9.3
								c0.9,0,1.6-0.7,1.6-1.5l0.3-4.7c0.1-0.8-0.5-1.5-1.3-1.5c0,0,0,0,0,0L237.9,280.9z"/>
							<path id="Trazado_110789" class="st13" d="M221.4,281h-9.2c-0.9,0-1.6,0.7-1.6,1.6l-0.3,4.7c-0.1,0.8,0.5,1.5,1.3,1.5h9.3
								c0.9,0,1.6-0.7,1.6-1.5l0.3-4.7c0.1-0.8-0.5-1.5-1.3-1.5c0,0,0,0,0,0L221.4,281z"/>
							<path id="Trazado_110790" class="st13" d="M287.8,268.9h-9.2c-0.9,0-1.6,0.7-1.6,1.6l-0.3,4.7c-0.1,0.8,0.5,1.5,1.3,1.6
								c0,0,0,0,0,0h9.3c0.9,0,1.6-0.7,1.6-1.6l0.3-4.7c0.1-0.8-0.5-1.5-1.3-1.6H287.8z"/>
							<path id="Trazado_110791" class="st13" d="M271.4,268.8h-9.2c-0.9,0-1.6,0.7-1.6,1.5l-0.3,4.7c-0.1,0.8,0.5,1.5,1.3,1.5h9.3
								c0.9,0,1.6-0.7,1.6-1.6l0.3-4.7c0.1-0.8-0.5-1.5-1.3-1.5L271.4,268.8z"/>
							<path id="Trazado_110792" class="st13" d="M255,268.9h-9.2c-0.9,0-1.6,0.7-1.7,1.5l-0.3,4.7c-0.1,0.8,0.5,1.5,1.3,1.6h9.3
								c0.9,0,1.6-0.7,1.6-1.6l0.3-4.7C256.5,269.6,255.9,268.9,255,268.9L255,268.9z"/>
							<path id="Trazado_110793" class="st13" d="M238.6,268.9h-9.2c-0.9,0-1.6,0.7-1.6,1.6l-0.3,4.7c-0.1,0.8,0.5,1.5,1.3,1.5
								c0,0,0,0,0,0h9.3c0.9,0,1.6-0.7,1.6-1.5l0.3-4.7c0.1-0.8-0.5-1.5-1.3-1.5c0,0,0,0,0,0H238.6z"/>
							<path id="Trazado_110794" class="st13" d="M222.2,269H213c-0.9,0-1.6,0.7-1.6,1.5l-0.3,4.7c-0.1,0.8,0.5,1.5,1.3,1.5h9.3
								c0.9,0,1.6-0.7,1.6-1.6l0.3-4.7c0.1-0.8-0.5-1.5-1.3-1.5c0,0,0,0,0,0L222.2,269z"/>
							<path id="Trazado_110795" class="st13" d="M288.5,256.9h-9.2c-0.9,0-1.6,0.7-1.6,1.5l-0.3,4.7c-0.1,0.8,0.5,1.5,1.3,1.5h9.3
								c0.9,0,1.6-0.7,1.6-1.6l0.3-4.7c0.1-0.8-0.5-1.5-1.3-1.5L288.5,256.9z"/>
							<path id="Trazado_110796" class="st13" d="M272.1,256.8h-9.2c-0.9,0-1.6,0.7-1.6,1.5l-0.3,4.7c-0.1,0.8,0.5,1.5,1.3,1.5
								c0,0,0,0,0,0h9.3c0.9,0,1.6-0.7,1.6-1.6l0.3-4.7c0.1-0.8-0.5-1.5-1.3-1.5L272.1,256.8z"/>
							<path id="Trazado_110797" class="st13" d="M255.7,256.9h-9.2c-0.9,0-1.6,0.7-1.6,1.5l-0.3,4.7c-0.1,0.8,0.5,1.5,1.3,1.5
								c0,0,0,0,0,0h9.3c0.9,0,1.6-0.7,1.6-1.6l0.3-4.7c0.1-0.8-0.5-1.5-1.3-1.5L255.7,256.9z"/>
							<path id="Trazado_110798" class="st13" d="M239.2,256.9h-9.2c-0.9,0-1.6,0.7-1.6,1.5l-0.3,4.7c-0.1,0.8,0.5,1.5,1.3,1.5h9.3
								c0.9,0,1.6-0.7,1.6-1.6l0.3-4.7c0.1-0.8-0.5-1.5-1.3-1.5L239.2,256.9z"/>
							<path id="Trazado_110799" class="st13" d="M222.8,257h-9.2c-0.9,0-1.6,0.7-1.6,1.5l-0.3,4.7c-0.1,0.8,0.6,1.5,1.3,1.5h9.3
								c0.9,0,1.6-0.7,1.6-1.5l0.3-4.7c0.1-0.8-0.5-1.5-1.3-1.5L222.8,257z"/>
							<g id="Grupo_88967" class="st19">
								<path id="Trazado_110800" class="st20" d="M290.6,223H281c-0.7,0-1.3,0.6-1.4,1.3l-0.2,3.4c-0.1,0.7,0.4,1.2,1,1.3
									c0,0,0,0,0,0h9.8c0.7,0,1.3-0.6,1.4-1.3l0.2-3.4c0.1-0.7-0.4-1.2-1.1-1.3c0,0,0,0,0,0L290.6,223z"/>
								<path id="Trazado_110801" class="st20" d="M274.2,223h-9.6c-0.7,0-1.3,0.6-1.4,1.3l-0.2,3.4c-0.1,0.7,0.4,1.2,1.1,1.3
									c0,0,0,0,0,0h9.8c0.7,0,1.3-0.6,1.4-1.3l0.2-3.4c0.1-0.7-0.4-1.2-1.1-1.3c0,0,0,0,0,0H274.2z"/>
								<path id="Trazado_110802" class="st20" d="M290.1,232.4h-9.7c-0.7,0-1.3,0.6-1.4,1.3l-0.2,3.4c-0.1,0.7,0.4,1.2,1.1,1.3
									c0,0,0,0,0,0h9.8c0.7,0,1.3-0.6,1.4-1.3l0.2-3.4c0.1-0.6-0.4-1.2-1-1.3C290.2,232.4,290.2,232.4,290.1,232.4L290.1,232.4z"
									/>
								<path id="Trazado_110803" class="st20" d="M273.7,232.3H264c-0.7,0-1.3,0.6-1.4,1.3l-0.2,3.4c-0.1,0.6,0.4,1.2,1.1,1.3h9.8
									c0.7,0,1.3-0.6,1.4-1.3l0.2-3.4c0.1-0.7-0.4-1.2-1.1-1.3L273.7,232.3z"/>
								<path id="Trazado_110804" class="st20" d="M257.3,232.4h-9.7c-0.7,0-1.3,0.6-1.4,1.3l-0.2,3.4c-0.1,0.7,0.4,1.2,1.1,1.3
									c0,0,0,0,0,0h9.8c0.7,0,1.3-0.6,1.4-1.3l0.2-3.4c0-0.6-0.4-1.2-1.1-1.2L257.3,232.4z"/>
								<path id="Trazado_110805" class="st20" d="M240.9,232.4h-9.7c-0.7,0-1.3,0.6-1.4,1.3l-0.2,3.4c-0.1,0.7,0.4,1.2,1.1,1.3h9.8
									c0.7,0,1.3-0.6,1.4-1.3l0.2-3.4C242.1,233.1,241.6,232.5,240.9,232.4C241,232.4,241,232.4,240.9,232.4L240.9,232.4z"/>
								<path id="Trazado_110806" class="st20" d="M224.5,232.5h-9.7c-0.7,0-1.3,0.6-1.4,1.3l-0.2,3.4c-0.1,0.6,0.4,1.2,1,1.3
									c0,0,0,0,0,0h9.8c0.7,0,1.3-0.6,1.4-1.3l0.2-3.4c0.1-0.6-0.4-1.2-1-1.3H224.5z"/>
								<path id="Trazado_110807" class="st20" d="M289.1,244.9H280c-0.9,0-1.6,0.7-1.6,1.5l-0.3,4.7c-0.1,0.8,0.5,1.5,1.3,1.5h9.3
									c0.9,0,1.6-0.7,1.6-1.5l0.3-4.7c0.1-0.8-0.5-1.5-1.3-1.5c0,0,0,0,0,0H289.1z"/>
								<path id="Trazado_110808" class="st20" d="M272.7,244.8h-9.2c-0.9,0-1.6,0.7-1.6,1.6l-0.3,4.7c-0.1,0.8,0.5,1.5,1.3,1.5h9.3
									c0.9,0,1.6-0.7,1.6-1.5l0.3-4.7c0.1-0.8-0.5-1.5-1.3-1.5L272.7,244.8z"/>
								<path id="Trazado_110809" class="st20" d="M256.3,244.9h-9.2c-0.9,0-1.6,0.7-1.6,1.5l-0.3,4.7c-0.1,0.8,0.6,1.5,1.3,1.5h9.3
									c0.9,0,1.6-0.7,1.6-1.5l0.3-4.7C257.8,245.6,257.2,244.9,256.3,244.9C256.4,244.9,256.4,244.9,256.3,244.9L256.3,244.9z"/>
								<path id="Trazado_110810" class="st20" d="M239.9,245h-9.2c-0.9,0-1.6,0.7-1.6,1.5l-0.3,4.7c-0.1,0.8,0.5,1.5,1.3,1.5h9.3
									c0.9,0,1.6-0.7,1.6-1.5l0.3-4.7c0.1-0.8-0.5-1.5-1.3-1.5c0,0,0,0,0,0H239.9z"/>
								<path id="Trazado_110811" class="st20" d="M223.5,245h-9.2c-0.9,0-1.6,0.7-1.6,1.6l-0.3,4.7c-0.1,0.8,0.5,1.5,1.3,1.5
									c0,0,0,0,0,0h9.3c0.9,0,1.6-0.7,1.6-1.5l0.3-4.7c0.1-0.8-0.5-1.5-1.3-1.5c0,0,0,0,0,0L223.5,245z"/>
								<path id="Trazado_110812" class="st20" d="M270,292.8h-9.2c-0.9,0-1.6,0.7-1.6,1.5l-0.3,4.7c-0.1,0.8,0.5,1.5,1.3,1.5h9.3
									c0.9,0,1.6-0.7,1.6-1.5l0.3-4.7c0.1-0.8-0.5-1.5-1.3-1.5c0,0,0,0,0,0H270z"/>
								<path id="Trazado_110813" class="st20" d="M253.6,292.8h-9.2c-0.9,0-1.6,0.7-1.6,1.6l-0.3,4.7c-0.1,0.8,0.5,1.5,1.3,1.5h9.3
									c0.9,0,1.6-0.7,1.6-1.5l0.3-4.8c0.1-0.8-0.5-1.5-1.3-1.5L253.6,292.8z"/>
								<path id="Trazado_110814" class="st20" d="M237.2,292.9H228c-0.9,0-1.6,0.7-1.6,1.5l-0.3,4.7c-0.1,0.8,0.5,1.5,1.3,1.5h9.3
									c0.9,0,1.6-0.7,1.6-1.6l0.3-4.7c0.1-0.8-0.5-1.5-1.3-1.5L237.2,292.9z"/>
								<path id="Trazado_110815" class="st20" d="M220.8,293h-9.2c-0.9,0-1.6,0.7-1.6,1.5l-0.3,4.7c-0.1,0.8,0.5,1.5,1.3,1.5
									c0,0,0,0,0,0h9.3c0.9,0,1.6-0.7,1.6-1.5l0.3-4.7c0.1-0.8-0.5-1.5-1.3-1.5H220.8z"/>
								<path id="Trazado_110816" class="st20" d="M287.1,280.9h-9.2c-0.9,0-1.6,0.7-1.6,1.6l-0.2,4.1v0.6l-0.7,12
									c-0.1,0.8,0.5,1.5,1.3,1.5h9.3c0.9,0,1.6-0.7,1.6-1.5l0.7-12v-0.6l0.2-4.1c0.1-0.8-0.5-1.5-1.3-1.5c0,0,0,0,0,0L287.1,280.9
									z"/>
								<path id="Trazado_110817" class="st20" d="M270.7,280.8h-9.2c-0.9,0-1.6,0.7-1.6,1.6l-0.3,4.8c-0.1,0.8,0.5,1.5,1.3,1.5h9.3
									c0.9,0,1.6-0.7,1.6-1.5l0.3-4.7c0.1-0.8-0.5-1.5-1.3-1.5c0,0,0,0,0,0L270.7,280.8z"/>
								<path id="Trazado_110818" class="st20" d="M254.3,280.9h-9.2c-0.9,0-1.6,0.7-1.6,1.6l-0.3,4.7c-0.1,0.8,0.5,1.5,1.3,1.5h9.3
									c0.9,0,1.6-0.7,1.6-1.5l0.3-4.7c0.1-0.8-0.5-1.5-1.3-1.5c0,0,0,0,0,0L254.3,280.9z"/>
								<path id="Trazado_110819" class="st20" d="M237.9,280.9h-9.2c-0.9,0-1.6,0.7-1.6,1.6l-0.3,4.7c-0.1,0.8,0.5,1.5,1.3,1.5h9.3
									c0.9,0,1.6-0.7,1.6-1.5l0.3-4.7c0.1-0.8-0.5-1.5-1.3-1.5c0,0,0,0,0,0L237.9,280.9z"/>
								<path id="Trazado_110820" class="st20" d="M221.4,281h-9.2c-0.9,0-1.6,0.7-1.6,1.6l-0.3,4.7c-0.1,0.8,0.5,1.5,1.3,1.5h9.3
									c0.9,0,1.6-0.7,1.6-1.5l0.3-4.7c0.1-0.8-0.5-1.5-1.3-1.5c0,0,0,0,0,0L221.4,281z"/>
								<path id="Trazado_110821" class="st20" d="M287.8,268.9h-9.2c-0.9,0-1.6,0.7-1.6,1.6l-0.3,4.7c-0.1,0.8,0.5,1.5,1.3,1.6
									c0,0,0,0,0,0h9.3c0.9,0,1.6-0.7,1.6-1.6l0.3-4.7c0.1-0.8-0.5-1.5-1.3-1.6H287.8z"/>
								<path id="Trazado_110822" class="st20" d="M271.4,268.8h-9.2c-0.9,0-1.6,0.7-1.6,1.5l-0.3,4.7c-0.1,0.8,0.5,1.5,1.3,1.5h9.3
									c0.9,0,1.6-0.7,1.6-1.6l0.3-4.7c0.1-0.8-0.5-1.5-1.3-1.5L271.4,268.8z"/>
								<path id="Trazado_110823" class="st20" d="M255,268.9h-9.2c-0.9,0-1.6,0.7-1.7,1.5l-0.3,4.7c-0.1,0.8,0.5,1.5,1.3,1.6h9.3
									c0.9,0,1.6-0.7,1.6-1.6l0.3-4.7C256.5,269.6,255.9,268.9,255,268.9L255,268.9z"/>
								<path id="Trazado_110824" class="st20" d="M238.6,268.9h-9.2c-0.9,0-1.6,0.7-1.6,1.6l-0.3,4.7c-0.1,0.8,0.5,1.5,1.3,1.5
									c0,0,0,0,0,0h9.3c0.9,0,1.6-0.7,1.6-1.5l0.3-4.7c0.1-0.8-0.5-1.5-1.3-1.5c0,0,0,0,0,0H238.6z"/>
								<path id="Trazado_110825" class="st20" d="M222.2,269H213c-0.9,0-1.6,0.7-1.6,1.5l-0.3,4.7c-0.1,0.8,0.5,1.5,1.3,1.5h9.3
									c0.9,0,1.6-0.7,1.6-1.6l0.3-4.7c0.1-0.8-0.5-1.5-1.3-1.5c0,0,0,0,0,0L222.2,269z"/>
								<path id="Trazado_110826" class="st20" d="M288.5,256.9h-9.2c-0.9,0-1.6,0.7-1.6,1.5l-0.3,4.7c-0.1,0.8,0.5,1.5,1.3,1.5h9.3
									c0.9,0,1.6-0.7,1.6-1.6l0.3-4.7c0.1-0.8-0.5-1.5-1.3-1.5L288.5,256.9z"/>
								<path id="Trazado_110827" class="st20" d="M272.1,256.8h-9.2c-0.9,0-1.6,0.7-1.6,1.5l-0.3,4.7c-0.1,0.8,0.5,1.5,1.3,1.5
									c0,0,0,0,0,0h9.3c0.9,0,1.6-0.7,1.6-1.6l0.3-4.7c0.1-0.8-0.5-1.5-1.3-1.5L272.1,256.8z"/>
								<path id="Trazado_110828" class="st20" d="M255.7,256.9h-9.2c-0.9,0-1.6,0.7-1.6,1.5l-0.3,4.7c-0.1,0.8,0.5,1.5,1.3,1.5
									c0,0,0,0,0,0h9.3c0.9,0,1.6-0.7,1.6-1.6l0.3-4.7c0.1-0.8-0.5-1.5-1.3-1.5L255.7,256.9z"/>
								<path id="Trazado_110829" class="st20" d="M239.2,256.9h-9.2c-0.9,0-1.6,0.7-1.6,1.5l-0.3,4.7c-0.1,0.8,0.5,1.5,1.3,1.5h9.3
									c0.9,0,1.6-0.7,1.6-1.6l0.3-4.7c0.1-0.8-0.5-1.5-1.3-1.5L239.2,256.9z"/>
								<path id="Trazado_110830" class="st20" d="M222.8,257h-9.2c-0.9,0-1.6,0.7-1.6,1.5l-0.3,4.7c-0.1,0.8,0.6,1.5,1.3,1.5h9.3
									c0.9,0,1.6-0.7,1.6-1.5l0.3-4.7c0.1-0.8-0.5-1.5-1.3-1.5L222.8,257z"/>
							</g>
						</g>
						<g id="Grupo_88969" transform="translate(53.335 0)" class="st21">
							<path id="Trazado_110831" d="M236.9,229h-9.7c-0.7,0-1.2-0.5-1.2-1.2v-0.1l0.2-3.4c0.1-0.7,0.6-1.3,1.4-1.3h9.7
								c0.7,0,1.2,0.5,1.2,1.2v0.1l-0.2,3.4C238.2,228.4,237.7,229,236.9,229L236.9,229z"/>
							<path id="Trazado_110832" d="M220.6,228.9h-9.7c-0.7,0-1.2-0.5-1.2-1.2c0,0,0-0.1,0-0.1l0.2-3.4c0-0.7,0.6-1.3,1.4-1.3h9.7
								c0.7,0,1.2,0.5,1.2,1.2v0.1l-0.2,3.4C221.9,228.4,221.3,228.9,220.6,228.9L220.6,228.9z"/>
						</g>
						<g id="Grupo_88970" transform="translate(3.573 9.323)" class="st21">
							<path id="Trazado_110833" d="M286.2,229h-9.7c-0.7,0-1.2-0.5-1.2-1.2v-0.1l0.2-3.4c0.1-0.7,0.7-1.3,1.4-1.3h9.7
								c0.7,0,1.2,0.5,1.2,1.2v0v0.1l-0.2,3.4C287.5,228.4,286.9,229,286.2,229L286.2,229z"/>
							<path id="Trazado_110834" d="M269.8,228.9h-9.7c-0.7,0-1.2-0.5-1.2-1.2v0c0,0,0-0.1,0-0.1l0.2-3.4c0.1-0.7,0.7-1.3,1.4-1.3
								h9.6c0.7,0,1.2,0.5,1.2,1.2c0,0,0,0.1,0,0.1l-0.2,3.4C271,228.3,270.5,228.9,269.8,228.9z"/>
							<path id="Trazado_110835" d="M253.4,229h-9.7c-0.7,0-1.2-0.5-1.2-1.2c0,0,0-0.1,0-0.1l0.2-3.4c0-0.7,0.6-1.3,1.4-1.3h9.7
								c0.7,0,1.2,0.5,1.2,1.2v0c0,0,0,0.1,0,0.1l-0.2,3.4C254.7,228.4,254.1,229,253.4,229z"/>
							<path id="Trazado_110836" d="M237,229.1h-9.6c-0.6,0-1.2-0.5-1.2-1.2c0,0,0,0,0,0v-0.1l0.2-3.4c0-0.7,0.7-1.3,1.4-1.3h9.7
								c0.7,0,1.2,0.5,1.2,1.2c0,0,0,0.1,0,0.1l-0.2,3.4C238.4,228.5,237.7,229.1,237,229.1z"/>
							<path id="Trazado_110837" d="M220.6,229.1h-9.7c-0.7,0-1.2-0.5-1.2-1.2v0c0,0,0-0.1,0-0.1l0.2-3.4c0-0.7,0.6-1.3,1.4-1.3h9.7
								c0.6,0,1.2,0.5,1.2,1.2c0,0,0,0,0,0c0,0,0,0.1,0,0.1l-0.2,3.4C221.9,228.6,221.3,229.1,220.6,229.1z"/>
						</g>
						<path id="Trazado_110838" class="st22" d="M239.4,226h18.9c0.4,0,0.7-0.3,0.7-0.7l0,0c0-0.4-0.2-0.7-0.6-0.7c0,0,0,0,0,0
							h-18.9c-0.4,0-0.7,0.3-0.8,0.7l0,0C238.7,225.7,239,226,239.4,226C239.3,226,239.3,226,239.4,226L239.4,226z"/>
						<path id="Trazado_110839" class="st22" d="M214.6,226h18.9c0.4,0,0.7-0.3,0.7-0.7l0,0c0-0.4-0.2-0.7-0.6-0.7c0,0,0,0,0,0h-19
							c-0.4,0-0.7,0.3-0.7,0.7l0,0C213.9,225.7,214.1,226,214.6,226C214.5,226,214.5,226,214.6,226L214.6,226z"/>
						<path id="Trazado_110840" class="st13" d="M219.4,226.6h-2.5c-0.7,0-1.2-0.5-1.2-1.2v-0.1l0,0c0-0.7,0.6-1.2,1.3-1.3h2.5
							c0.7,0,1.2,0.5,1.2,1.2v0.1l0,0C220.7,226,220.1,226.6,219.4,226.6L219.4,226.6z"/>
						<path id="Trazado_110841" class="st13" d="M254.7,226.6h-2.5c-0.7,0-1.2-0.5-1.2-1.2c0,0,0,0,0-0.1l0,0c0-0.7,0.6-1.2,1.3-1.3
							h2.5c0.7,0,1.2,0.5,1.2,1.2v0.1l0,0C255.9,226,255.4,226.5,254.7,226.6L254.7,226.6z"/>
						<path id="Trazado_110842" class="st23" d="M289.1,244.9H280c-0.9,0-1.6,0.7-1.6,1.5l-0.3,4.7c-0.1,0.8,0.5,1.5,1.3,1.5h9.3
							c0.9,0,1.6-0.7,1.6-1.5l0.3-4.7c0.1-0.8-0.5-1.5-1.3-1.5c0,0,0,0,0,0H289.1z"/>
						<path id="Trazado_110843" class="st23" d="M272.7,244.8h-9.2c-0.9,0-1.6,0.7-1.6,1.6l-0.3,4.7c-0.1,0.8,0.5,1.5,1.3,1.5h9.3
							c0.9,0,1.6-0.7,1.6-1.5l0.3-4.7c0.1-0.8-0.5-1.5-1.3-1.5L272.7,244.8z"/>
						<path id="Trazado_110844" class="st23" d="M256.3,244.9h-9.2c-0.9,0-1.6,0.7-1.6,1.5l-0.3,4.7c-0.1,0.8,0.6,1.5,1.3,1.5h9.3
							c0.9,0,1.6-0.7,1.6-1.5l0.3-4.7C257.8,245.6,257.2,244.9,256.3,244.9C256.4,244.9,256.4,244.9,256.3,244.9L256.3,244.9z"/>
						<path id="Trazado_110845" class="st23" d="M239.9,245h-9.2c-0.9,0-1.6,0.7-1.6,1.5l-0.3,4.7c-0.1,0.8,0.5,1.5,1.3,1.5h9.3
							c0.9,0,1.6-0.7,1.6-1.5l0.3-4.7c0.1-0.8-0.5-1.5-1.3-1.5c0,0,0,0,0,0H239.9z"/>
						<path id="Trazado_110846" class="st23" d="M223.5,245h-9.2c-0.9,0-1.6,0.7-1.6,1.6l-0.3,4.7c-0.1,0.8,0.5,1.5,1.3,1.5
							c0,0,0,0,0,0h9.3c0.9,0,1.6-0.7,1.6-1.5l0.3-4.7c0.1-0.8-0.5-1.5-1.3-1.5c0,0,0,0,0,0L223.5,245z"/>
						<path id="Trazado_110847" class="st23" d="M270,292.8h-9.2c-0.9,0-1.6,0.7-1.6,1.5l-0.3,4.7c-0.1,0.8,0.5,1.5,1.3,1.5h9.3
							c0.9,0,1.6-0.7,1.6-1.5l0.3-4.7c0.1-0.8-0.5-1.5-1.3-1.5c0,0,0,0,0,0H270z"/>
						<path id="Trazado_110848" class="st23" d="M253.6,292.8h-9.2c-0.9,0-1.6,0.7-1.6,1.6l-0.3,4.7c-0.1,0.8,0.5,1.5,1.3,1.5h9.3
							c0.9,0,1.6-0.7,1.6-1.5l0.3-4.8c0.1-0.8-0.5-1.5-1.3-1.5L253.6,292.8z"/>
						<path id="Trazado_110849" class="st23" d="M237.2,292.9H228c-0.9,0-1.6,0.7-1.6,1.5l-0.3,4.7c-0.1,0.8,0.5,1.5,1.3,1.5h9.3
							c0.9,0,1.6-0.7,1.6-1.6l0.3-4.7c0.1-0.8-0.5-1.5-1.3-1.5L237.2,292.9z"/>
						<path id="Trazado_110850" class="st23" d="M220.8,293h-9.2c-0.9,0-1.6,0.7-1.6,1.5l-0.3,4.7c-0.1,0.8,0.5,1.5,1.3,1.5
							c0,0,0,0,0,0h9.3c0.9,0,1.6-0.7,1.6-1.5l0.3-4.7c0.1-0.8-0.5-1.5-1.3-1.5H220.8z"/>
						<path id="Trazado_110851" class="st14" d="M287.1,280.9h-9.2c-0.9,0-1.6,0.7-1.6,1.6l-0.2,4.1v0.6l-0.7,12
							c-0.1,0.8,0.5,1.5,1.3,1.5h9.3c0.9,0,1.6-0.7,1.6-1.5l0.7-12v-0.6l0.2-4.1c0.1-0.8-0.5-1.5-1.3-1.5c0,0,0,0,0,0L287.1,280.9z"
							/>
						<path id="Trazado_110852" class="st23" d="M270.7,280.8h-9.2c-0.9,0-1.6,0.7-1.6,1.6l-0.3,4.8c-0.1,0.8,0.5,1.5,1.3,1.5h9.3
							c0.9,0,1.6-0.7,1.6-1.5l0.3-4.7c0.1-0.8-0.5-1.5-1.3-1.5c0,0,0,0,0,0L270.7,280.8z"/>
						<path id="Trazado_110853" class="st23" d="M254.3,280.9h-9.2c-0.9,0-1.6,0.7-1.6,1.6l-0.3,4.7c-0.1,0.8,0.5,1.5,1.3,1.5h9.3
							c0.9,0,1.6-0.7,1.6-1.5l0.3-4.7c0.1-0.8-0.5-1.5-1.3-1.5c0,0,0,0,0,0L254.3,280.9z"/>
						<path id="Trazado_110854" class="st23" d="M237.9,280.9h-9.2c-0.9,0-1.6,0.7-1.6,1.6l-0.3,4.7c-0.1,0.8,0.5,1.5,1.3,1.5h9.3
							c0.9,0,1.6-0.7,1.6-1.5l0.3-4.7c0.1-0.8-0.5-1.5-1.3-1.5c0,0,0,0,0,0L237.9,280.9z"/>
						<path id="Trazado_110855" class="st14" d="M221.4,281h-9.2c-0.9,0-1.6,0.7-1.6,1.6l-0.3,4.7c-0.1,0.8,0.5,1.5,1.3,1.5h9.3
							c0.9,0,1.6-0.7,1.6-1.5l0.3-4.7c0.1-0.8-0.5-1.5-1.3-1.5c0,0,0,0,0,0L221.4,281z"/>
						<path id="Trazado_110856" class="st23" d="M287.8,268.9h-9.2c-0.9,0-1.6,0.7-1.6,1.6l-0.3,4.7c-0.1,0.8,0.5,1.5,1.3,1.6
							c0,0,0,0,0,0h9.3c0.9,0,1.6-0.7,1.6-1.6l0.3-4.7c0.1-0.8-0.5-1.5-1.3-1.6H287.8z"/>
						<path id="Trazado_110857" class="st23" d="M271.4,268.8h-9.2c-0.9,0-1.6,0.7-1.6,1.5l-0.3,4.7c-0.1,0.8,0.5,1.5,1.3,1.5h9.3
							c0.9,0,1.6-0.7,1.6-1.6l0.3-4.7c0.1-0.8-0.5-1.5-1.3-1.5L271.4,268.8z"/>
						<path id="Trazado_110858" class="st23" d="M255,268.9h-9.2c-0.9,0-1.6,0.7-1.7,1.5l-0.3,4.7c-0.1,0.8,0.5,1.5,1.3,1.6h9.3
							c0.9,0,1.6-0.7,1.6-1.6l0.3-4.7C256.5,269.6,255.9,268.9,255,268.9L255,268.9z"/>
						<path id="Trazado_110859" class="st23" d="M238.6,268.9h-9.2c-0.9,0-1.6,0.7-1.6,1.6l-0.3,4.7c-0.1,0.8,0.5,1.5,1.3,1.5
							c0,0,0,0,0,0h9.3c0.9,0,1.6-0.7,1.6-1.5l0.3-4.7c0.1-0.8-0.5-1.5-1.3-1.5c0,0,0,0,0,0H238.6z"/>
						<path id="Trazado_110860" class="st14" d="M222.2,269H213c-0.9,0-1.6,0.7-1.6,1.5l-0.3,4.7c-0.1,0.8,0.5,1.5,1.3,1.5h9.3
							c0.9,0,1.6-0.7,1.6-1.6l0.3-4.7c0.1-0.8-0.5-1.5-1.3-1.5c0,0,0,0,0,0L222.2,269z"/>
						<path id="Trazado_110861" class="st23" d="M288.5,256.9h-9.2c-0.9,0-1.6,0.7-1.6,1.5l-0.3,4.7c-0.1,0.8,0.5,1.5,1.3,1.5h9.3
							c0.9,0,1.6-0.7,1.6-1.6l0.3-4.7c0.1-0.8-0.5-1.5-1.3-1.5L288.5,256.9z"/>
						<path id="Trazado_110862" class="st23" d="M272.1,256.8h-9.2c-0.9,0-1.6,0.7-1.6,1.5l-0.3,4.7c-0.1,0.8,0.5,1.5,1.3,1.5
							c0,0,0,0,0,0h9.3c0.9,0,1.6-0.7,1.6-1.6l0.3-4.7c0.1-0.8-0.5-1.5-1.3-1.5L272.1,256.8z"/>
						<path id="Trazado_110863" class="st23" d="M255.7,256.9h-9.2c-0.9,0-1.6,0.7-1.6,1.5l-0.3,4.7c-0.1,0.8,0.5,1.5,1.3,1.5
							c0,0,0,0,0,0h9.3c0.9,0,1.6-0.7,1.6-1.6l0.3-4.7c0.1-0.8-0.5-1.5-1.3-1.5L255.7,256.9z"/>
						<path id="Trazado_110864" class="st23" d="M239.2,256.9h-9.2c-0.9,0-1.6,0.7-1.6,1.5l-0.3,4.7c-0.1,0.8,0.5,1.5,1.3,1.5h9.3
							c0.9,0,1.6-0.7,1.6-1.6l0.3-4.7c0.1-0.8-0.5-1.5-1.3-1.5L239.2,256.9z"/>
						<path id="Trazado_110865" class="st23" d="M222.8,257h-9.2c-0.9,0-1.6,0.7-1.6,1.5l-0.3,4.7c-0.1,0.8,0.6,1.5,1.3,1.5h9.3
							c0.9,0,1.6-0.7,1.6-1.5l0.3-4.7c0.1-0.8-0.5-1.5-1.3-1.5L222.8,257z"/>
					</g>
				</g>
				<g id="Grupo_88973" transform="translate(0 85.465)">
					<path id="Trazado_110866" class="st7" d="M225.4,301.6c0,0-5.5,1.2-7.8,0s-1.5-18.6-3.9-19c-5.5-0.8-4.6,22.3-2.2,27.2
						s14.4,2.8,14.4,2.8L225.4,301.6z"/>
					<path id="Trazado_110867" class="st17" d="M225.4,301.6c0,0-5.5,1.2-7.8,0s-1.5-18.6-3.9-19c-5.5-0.8-4.6,22.3-2.2,27.2
						s14.4,2.8,14.4,2.8L225.4,301.6z"/>
					<path id="Trazado_110868" class="st7" d="M225.9,342.6c0,0-8.2-118.3,1.5-119.6s12,40.3,8.3,118.1L225.9,342.6z"/>
					<path id="Trazado_110869" class="st15" d="M225.9,342.6c0,0-8.2-118.3,1.5-119.6s12,40.3,8.3,118.1L225.9,342.6z"/>
					<path id="Trazado_110870" class="st13" d="M214.5,333.9h31.9l-2.7,20.4h-26.6L214.5,333.9z"/>
					<path id="Trazado_110871" class="st7" d="M235.5,261.8c0,0,8.8,0.8,9.1,0s0.3-17.5,4-16.5s2.1,21.1,0,23.5s-13.1,3.6-13.1,3.6
						S234.1,264.9,235.5,261.8z"/>
					<path id="Trazado_110872" class="st16" d="M235.5,261.8c0,0,8.8,0.8,9.1,0s0.3-17.5,4-16.5s2.1,21.1,0,23.5s-13.1,3.6-13.1,3.6
						S234.1,264.9,235.5,261.8z"/>
					<path id="Trazado_110873" class="st24" d="M229.9,331.8c-0.6-9-1.3-18-1.8-27s-1-18-1.4-27c-0.4-9-0.7-18-0.8-27
						c0-4.5,0-9,0.1-13.5c0.1-2.3,0.2-4.6,0.4-6.8c0.1-1.2,0.2-2.3,0.4-3.4c0.1-0.6,0.3-1.2,0.4-1.8l0.2-0.4
						c0.1-0.2,0.2-0.3,0.3-0.5c0.1-0.1,0.2-0.2,0.4-0.2c0.2-0.1,0.4-0.1,0.6,0c0.2,0.1,0.5,0.3,0.6,0.5c0.3,0.6,0.5,1.2,0.6,1.8
						c0.1,0.6,0.2,1.1,0.3,1.7c0.2,1.2,0.3,2.3,0.4,3.4c0.3,2.3,0.4,4.6,0.6,6.8c0.3,4.5,0.5,9,0.7,13.5c0.3,9,0.6,18,0.7,27.1
						s0.2,18,0.2,27c0,9-0.1,18-0.2,27.1c-0.1-9-0.2-18-0.4-27c-0.1-9-0.3-18-0.5-27s-0.4-18-0.8-27c-0.2-4.5-0.4-9-0.7-13.5
						c-0.2-2.2-0.3-4.5-0.6-6.7c-0.1-1.1-0.3-2.2-0.4-3.3c-0.1-0.5-0.2-1.1-0.3-1.6c-0.1-0.5-0.3-1-0.5-1.4c0-0.1-0.1-0.1,0,0
						s0.3-0.1,0.2,0l-0.1,0.2l-0.1,0.3c-0.2,0.5-0.3,1-0.4,1.5c-0.2,1.1-0.3,2.2-0.4,3.3c-0.2,2.2-0.3,4.5-0.4,6.7
						c-0.1,4.5-0.2,9-0.1,13.5c0.1,9,0.3,18,0.6,27s0.6,18,1,27S229.5,322.8,229.9,331.8z"/>
					<path id="Trazado_110874" class="st24" d="M236.6,265.7c2.3-0.2,4.6-0.5,6.8-0.9c0.5-0.1,1.1-0.2,1.6-0.4
						c0.2-0.1,0.5-0.2,0.7-0.3c0.1,0,0.1-0.1,0.2-0.1l0,0v-0.1c0-1.2,0-2.4,0.1-3.6c0.2-2.3,0.5-4.6,0.9-6.8
						c0.3-2.3,0.8-4.5,1.4-6.7c-0.2,2.3-0.3,4.6-0.5,6.8l-0.6,6.8c-0.1,1.1-0.2,2.2-0.2,3.3v0.1c0,0.3,0,0.5-0.2,0.7
						c-0.1,0.2-0.3,0.3-0.5,0.4c-0.3,0.1-0.6,0.3-0.9,0.3c-0.6,0.1-1.2,0.2-1.8,0.3C241.3,265.9,239,265.9,236.6,265.7L236.6,265.7z
						"/>
					<path id="Trazado_110875" class="st24" d="M236.6,269.6l3.8-0.9c1.3-0.3,2.5-0.6,3.8-0.9c1.2-0.3,2.4-0.6,3.6-1.1
						c0.2,0,0.4-0.7,0.5-1.2c0.1-0.6,0.2-1.2,0.3-1.8c0.3-2.5,0.4-5.1,0.7-7.7l0.3-3.8c0.1-1.3,0.2-2.6,0.4-3.8
						c0.2,2.6,0.3,5.1,0.2,7.7c0,2.6-0.1,5.2-0.4,7.7c-0.1,0.7-0.2,1.3-0.3,2c-0.1,0.3-0.2,0.7-0.3,1c-0.1,0.2-0.2,0.4-0.3,0.6
						c-0.2,0.2-0.4,0.4-0.6,0.4c-1.3,0.4-2.6,0.7-3.9,0.9C241.7,269.1,239.2,269.4,236.6,269.6L236.6,269.6z"/>
					<path id="Trazado_110876" class="st24" d="M222.7,304.8c-2.3,0.2-4.6-0.1-6.8-0.7c-0.3-0.1-0.6-0.2-0.9-0.4
						c-0.2-0.1-0.3-0.2-0.4-0.4c-0.1-0.1-0.2-0.3-0.3-0.5c-0.2-0.6-0.4-1.1-0.5-1.7c-0.2-1.1-0.4-2.3-0.4-3.4
						c-0.3-4.5-0.3-9,0.2-13.5c0.4,4.5,0.6,9,1,13.4c0.1,1.1,0.2,2.2,0.4,3.3c0.1,0.5,0.2,1,0.4,1.5c0,0.1,0.1,0.2,0.1,0.3
						c0.1,0.1,0,0.1,0.2,0.2c0.2,0.1,0.4,0.3,0.7,0.4c1,0.4,2.1,0.7,3.1,0.9C220.5,304.4,221.6,304.6,222.7,304.8z"/>
					<path id="Trazado_110877" class="st24" d="M212,286.3c0.2,1.3,0.3,2.6,0.4,3.9l0.3,3.9l0.6,7.8c0.1,1.3,0.2,2.6,0.4,3.9
						c0.1,0.6,0.2,1.2,0.3,1.8c0.1,0.5,0.6,0.7,1.2,1c1.2,0.5,2.4,0.8,3.7,1c1.3,0.3,2.6,0.4,3.9,0.6c-2.7,0.2-5.4-0.1-7.9-0.8
						c-0.3-0.1-0.7-0.3-1-0.5c-0.3-0.2-0.6-0.5-0.8-0.9c-0.2-0.7-0.4-1.3-0.5-2c-0.2-1.3-0.3-2.7-0.4-4c-0.2-2.6-0.3-5.3-0.3-7.9
						S211.8,288.9,212,286.3z"/>
				</g>
				<g id="Grupo_88975" transform="translate(36.344 56.688)">
					<path id="Trazado_110878" class="st13" d="M230.1,366.6l23.6-2.1v-35.2h8.3v35.1l23.7,2.1c2.1,0.2,3.6,2,3.6,4.1v3.1h-62.9
						v-3.1C226.4,368.5,228,366.8,230.1,366.6z"/>
					<path id="Trazado_110879" class="st18" d="M230.1,366.6l23.6-2.1v-35.2h8.3v35.1l23.7,2.1c2.1,0.2,3.6,2,3.6,4.1v3.1h-62.9
						v-3.1C226.4,368.5,228,366.8,230.1,366.6z"/>
					<path id="Trazado_110880" class="st13" d="M281.6,377.7c0,3,2.5,5.4,5.5,5.4c3,0,5.4-2.5,5.4-5.5s-2.5-5.4-5.5-5.4
						c-1.4,0-2.8,0.6-3.8,1.6C282.2,374.8,281.6,376.2,281.6,377.7z"/>
					<path id="Trazado_110881" class="st13" d="M234,377.7c0,3-2.5,5.4-5.5,5.4c-3,0-5.4-2.5-5.4-5.5s2.5-5.4,5.5-5.4
						c1.4,0,2.8,0.6,3.8,1.6C233.5,374.8,234,376.2,234,377.7z"/>
					<path id="Trazado_110882" class="st13" d="M258.6,335.7H257c-2.6,0-4.7-2.1-4.7-4.7c0,0,0,0,0,0v-27.5h11.2v27.5
						C263.4,333.6,261.3,335.7,258.6,335.7L258.6,335.7z"/>
					<path id="Trazado_110883" class="st17" d="M258.6,335.7H257c-2.6,0-4.7-2.1-4.7-4.7c0,0,0,0,0,0v-27.5h11.2v27.5
						C263.4,333.6,261.3,335.7,258.6,335.7L258.6,335.7z"/>
					<path id="Trazado_110884" class="st13" d="M233.3,242.2c0,0,2.6,51.2,13.6,60h-11.8c0,0-10.5-17.5-11.3-60L233.3,242.2z"/>
					<path id="Trazado_110885" class="st18" d="M233.3,242.2c0,0,2.6,51.2,13.6,60h-11.8c0,0-10.5-17.5-11.3-60L233.3,242.2z"/>
					<path id="Trazado_110886" class="st7" d="M233.9,298h49.3c3.3,0,5.9,2.7,5.9,5.9v2.5h-61.2v-2.6
						C227.9,300.7,230.6,298,233.9,298z"/>
					<g id="Grupo_88974" transform="translate(15.919 79.263)">
						<path id="Rectngulo_35372" class="st13" d="M211.7,223h61.9c1.1,0,2,0.9,2,2v0.3c0,1.1-0.9,2-2,2h-61.9c-1.1,0-2-0.9-2-2
							V225C209.7,223.9,210.6,223,211.7,223z"/>
						<path id="Rectngulo_35373" class="st25" d="M211.7,223h61.9c1.1,0,2,0.9,2,2v0.3c0,1.1-0.9,2-2,2h-61.9c-1.1,0-2-0.9-2-2
							V225C209.7,223.9,210.6,223,211.7,223z"/>
					</g>
					<path id="Trazado_110887" class="st7" d="M221.8,253.4h18.9c5.5,0,9.5-5,8.9-11.1l-0.8-8.2c-0.6-6.2-5.6-11.1-11.1-11.1h-19
						c-5.5,0-9.5,5-8.9,11.1l0.8,8.2C211.2,248.4,216.2,253.4,221.8,253.4z"/>
				</g>
				<g id="Grupo_88987" transform="translate(69.576 12.251)">
					<path id="Trazado_110888" class="st26" d="M287.2,286.7l5.3,0.6c0,0,3.5-1.5,3.6-1.7s4.7,1.7,4.7,1.7l0.9,3.3
						c0,0-6.6,0.7-7.8,0l-7,0.3L287.2,286.7z"/>
					<path id="Trazado_110889" class="st7" d="M290.1,291.8h-20.6c-2.1,0-5-5.1-7.2-10c-2.1-4.5-3.6-8.8-3.6-8.8l2.2-5.5l2.2-5.4
						c4.2,2.9,9.3,22.5,9.3,22.5l17.7,2.4C290.1,286.9,290.6,291.8,290.1,291.8z"/>
					<path id="Trazado_110890" class="st7" d="M289.2,286.7l-1,5.7h2.6v-5.7L289.2,286.7z"/>
					<path id="Trazado_110891" class="st25" d="M289.2,286.7l-1,5.7h2.6v-5.7L289.2,286.7z"/>
					<path id="Trazado_110892" class="st22" d="M262.3,281.7c-2.1-4.5-3.6-8.8-3.6-8.8l2.2-5.5C261.8,269.9,263.9,276.2,262.3,281.7
						z"/>
					<path id="Trazado_110893" class="st13" d="M266.3,244.1c0,0-2.1,8,0.5,11.5c0,0-23.2,0.3-29.8-3.9s0.8-24.8,10.4-28
						C257,220.5,272.8,228.4,266.3,244.1z"/>
					<path id="Trazado_110894" class="st26" d="M312.1,395.7l-5.1,1c0,0-27.9-66.9-32.3-67s-49.7,20.6-61,9.1s5-39.3,5-39.3
						s27.3-3.9,29.3,2.3c0.5,1.8,0.9,3.7,1.2,5.5c0.3,1.8,0.5,3.5,0.5,3.5l0,0c0.8-0.2,28.3-7.3,39,0S312.1,395.7,312.1,395.7z"/>
					<path id="Trazado_110895" class="st26" d="M233.3,341.4c0,0,1.8,0,30.4-1.3c0,0-5.3,49.1-7.6,75.9l5.9,0.3
						c0,0,24.1-69.5,23.9-78.7s-10.7-11.8-10.7-11.8S254.8,337.7,233.3,341.4z"/>
					<path id="Trazado_110896" class="st13" d="M233.3,341.5c0.3,0,3.2,0,25.5-1.1l-0.4-6.4C250.3,337.4,241.9,339.9,233.3,341.5
						L233.3,341.5z"/>
					<path id="Trazado_110897" class="st14" d="M263.7,340.2c0,0-5.3,49.1-7.6,75.9l5.9,0.3c0,0,24.1-69.5,23.9-78.7
						s-10.7-11.8-10.7-11.8c-5.4,3-11.1,5.7-16.8,8c-8.1,3.4-16.5,5.9-25.1,7.5c0.3,0,3.2,0,25.5-1.1L263.7,340.2z"/>
					<path id="Trazado_110898" class="st13" d="M213.7,338.7c6.8,6.9,30.8,5.1,47.2,5.1l9.9-36.6l-19.9,1.7l-1.4-3.6
						c-0.6-1.5-1.2-3.1-1.4-3.6c-2.1-6.2-29.4-2.3-29.4-2.3S202.4,327.2,213.7,338.7z"/>
					<path id="Trazado_110899" class="st14" d="M233.8,314l17.1-5.1l-1.4-3.6C244.1,307.8,238.8,310.7,233.8,314z"/>
					<g id="Grupo_88977" transform="translate(9.053 71.742)">
						<g id="Grupo_88976" transform="translate(0 0.401)">
							<path id="Trazado_110900" class="st13" d="M210.4,223l-0.7,4.3l29.3,2.3l0.8-5L210.4,223z"/>
							<path id="Trazado_110901" class="st22" d="M210.4,223l-0.7,4.3l29.3,2.3l0.8-5L210.4,223z"/>
						</g>
						
							<rect id="Rectngulo_35374" x="215.5" y="226" transform="matrix(0.1023 -0.9948 0.9948 0.1023 -28.7212 421.6496)" class="st13" width="7.4" height="1.5"/>
						
							<rect id="Rectngulo_35375" x="227.1" y="223.9" transform="matrix(6.418397e-02 -0.9979 0.9979 6.418397e-02 -11.859 441.6188)" class="st20" width="4.9" height="6.4"/>
						
							<rect id="Rectngulo_35376" x="233.6" y="226.8" transform="matrix(0.1023 -0.9948 0.9948 0.1023 -13.2718 440.2787)" class="st13" width="7.4" height="1.5"/>
					</g>
					<path id="Trazado_110902" class="st27" d="M326.5,402.7c-1.2-0.3-2.5-0.4-3.7-0.3l0,0c0,0-4.7-1.8-10.6-10.9l-4.7,0.7
						c-1.6,0.3-2.9,1.6-3.2,3.2c0,0.2,0,0.5,0,0.7c0.2,1.1,0.5,2.3,0.9,3.4c1.3,3.7,2.9,7.3,4.6,10.8l0.8-0.3l-2.6-6.9
						c-0.9-2.4,2-0.4,3.6,1.8s3.8,4.4,8.9,2.4C326.3,404.8,328.6,403.5,326.5,402.7z"/>
					<path id="Trazado_110903" class="st26" d="M310,388.2c0,0,2.9,4.1,6.5,8.4c1.7,2.3,3.9,4.2,6.3,5.7c0,0-3.5,2.3-6.2,0.5
						s-8.7-9.5-12.3-7.4c0-0.8,0.1-1.5,0.3-2.3C304.9,392,310,388.2,310,388.2z"/>
					<path id="Trazado_110904" class="st27" d="M274.2,425.5c-1-0.7-2.2-1.3-3.4-1.6l0,0c0,0-3.8-3.4-6-14l-4.7-1
						c-1.6-0.3-3.3,0.5-4.2,1.9c-0.1,0.2-0.2,0.4-0.3,0.6c-0.2,1.2-0.3,2.3-0.3,3.5c-0.1,3.9,0.1,7.8,0.5,11.7h0.8v-7.4
						c0-2.5,2.1,0.3,2.7,3s2,5.5,7.5,5.3C273.3,427.3,275.9,426.9,274.2,425.5z"/>
					<path id="Trazado_110905" class="st26" d="M263.8,406.1c0,0,1.3,4.8,3.1,10.2c0.8,2.8,2.1,5.3,3.9,7.6c0,0-4.1,0.9-5.9-1.8
						s-4.7-12-8.9-11.3c0.3-0.7,0.6-1.4,1.1-2C257.7,407.8,263.8,406.1,263.8,406.1z"/>
					<path id="Trazado_110906" class="st14" d="M263.8,406.1c0,0,1.3,4.8,3.1,10.2c0.8,2.8,2.1,5.3,3.9,7.6c0,0-4.1,0.9-5.9-1.8
						s-4.7-12-8.9-11.3c0.3-0.7,0.6-1.4,1.1-2C257.7,407.8,263.8,406.1,263.8,406.1z"/>
					<g id="Grupo_88978" transform="translate(9.554 31.432)">
						<path id="Trazado_110907" class="st7" d="M253.5,230.6c0,0-2.8,17-6.1,21.6c-0.2,0.2-0.3,0.4-0.4,0.6
							c-2.5,2.7-5.6,8.4-7.1,11.3c-0.5,1.1-0.9,1.7-0.9,1.7l-29.2-1.3c0,0,0.9-5.7,1.8-11.4c0.7-4.1,1.5-9,2.6-13.5
							c0.4-1.8,0.9-3.6,1.3-5.2c0.7-2.8,1.8-5.5,3.1-8c0.5-1,1.2-1.8,2.1-2.4c0,0,1.2-0.1,3.4-0.1h0.2c7.5,0.1,14.9,1.3,22.1,3.7
							C248.7,228.4,251.1,229.4,253.5,230.6z"/>
						<path id="Trazado_110908" class="st7" d="M227.5,224.2c0,0,4.2,10,11.8,10s7.9-5.6,7.9-5.6S239.6,223.6,227.5,224.2z"/>
						<path id="Trazado_110909" class="st7" d="M237.2,223.4c-5.1-1.4-7.7,0.5-10.6,5.1l6.6,2.7l5.5,15.8l6-13.9l4.6,0.2
							C249.2,233.1,248.6,226.5,237.2,223.4z"/>
						<path id="Trazado_110910" class="st25" d="M237.2,223.4c-5.1-1.4-7.7,0.5-10.6,5.1l6.6,2.7l5.5,15.8l6-13.9l4.6,0.2
							C249.2,233.1,248.6,226.5,237.2,223.4z"/>
						<path id="Trazado_110911" class="st22" d="M247.4,252.2c-0.2,0.2-0.3,0.4-0.4,0.6c-2.5,2.7-5.6,8.4-7.1,11.3
							c-6.8-0.9-20.2-2.9-22-6.3c-1.6-3.1-3-12.5-3.7-18.2c0.4-1.8,0.9-3.6,1.3-5.2l9.9-2.7c0,0,1.6,10.3,1.9,15.2
							C227.5,250.9,242.3,252,247.4,252.2z"/>
					</g>
					<g id="Grupo_88979" transform="translate(32.075 23.448)">
						<path id="Trazado_110912" class="st26" d="M220,234.9c0,1.8,1.1,2.2,1.1,2.2c0.4,3.3-4.2,11.6-4.2,11.6l-7.1-14.8
							c4.1-1.6,5-6.2,5.2-8.9c0.1-0.7,0.1-1.4,0-2.1l7.7,4.8c-0.6,1.1-1.2,2.2-1.7,3.4C220.3,232.4,220,233.6,220,234.9L220,234.9z"
							/>
						<path id="Trazado_110913" class="st22" d="M222.1,227.2c-0.5,1.2-1,2.3-1.4,3.6c-0.4,1.2-0.6,2.5-0.5,3.8
							c-4.3,0.3-6.1-9.2-6.1-9.2v-0.1c0-0.7-0.1-1.4-0.2-2.1L222.1,227.2z"/>
					</g>
					<g id="Grupo_88984" transform="translate(33.013 3.549)">
						<path id="Trazado_110914" class="st26" d="M226.2,226.8c7.4,2.3,8.6,7,6.8,14.8c-2.2,9.8-6.4,15.9-15.1,11.1
							C206.2,246,213.9,223,226.2,226.8z"/>
						<path id="Trazado_110915" class="st28" d="M228.4,239.7c0.2,1.3,0.6,2.6,1.2,3.8c-0.6,0.5-1.5,0.6-2.2,0.2L228.4,239.7z"/>
						<g id="Grupo_88980" transform="translate(12.785 13.218)">
							<path id="Trazado_110916" class="st13" d="M211.2,224.5c-0.2,0.6-0.7,1-1.1,0.9s-0.6-0.7-0.4-1.3s0.7-1,1.1-0.9
								S211.4,223.9,211.2,224.5z"/>
							<path id="Trazado_110917" class="st13" d="M210.6,223.1l1.5-0.2C212.1,223,211.1,223.9,210.6,223.1z"/>
						</g>
						<g id="Grupo_88981" transform="translate(20.473 15.241)">
							<path id="Trazado_110918" class="st13" d="M211.2,224.5c-0.2,0.6-0.7,1-1.1,0.9s-0.6-0.7-0.4-1.3s0.6-1,1.1-0.9
								S211.4,223.8,211.2,224.5z"/>
							<path id="Trazado_110919" class="st13" d="M210.6,223.1l1.5-0.1C212.1,223,211.1,224,210.6,223.1z"/>
						</g>
						<path id="Trazado_110920" class="st29" d="M225.5,232.5c-1.1-0.5-2.5-0.5-3.6,0.1"/>
						<path id="Trazado_110921" class="st29" d="M231,233.9c1.1,0.1,2.1,0.6,2.8,1.5"/>
						<path id="Trazado_110922" class="st13" d="M214.3,236.9c0,0,5.3-5.1,6.3-9.9c0,0,16.6-1.5,12.8,13.7c0,0,5.5-12.9-7.2-17
							s-18.4,14.4-13.4,22C212.7,245.6,211,240,214.3,236.9z"/>
						<path id="Trazado_110923" class="st29" d="M221.9,243.5c0.3,1.9,1.9,3.2,3.8,3.2"/>
						<g id="Grupo_88983" transform="translate(3.282 11.491)">
							<path id="Trazado_110924" class="st13" d="M209.7,223.8c0,0.1,0,0.2,0.1,0.2l0,0l7.6,1.8c-0.2,1.5,0.5,3,1.9,3.6
								c1.8,0.9,4,0.3,5.1-1.4c0.1-0.2,0.2-0.3,0.2-0.5c0.3-0.2,0.6-0.3,1-0.3c0.2,0.1,0.3,0.2,0.4,0.4c-0.2,1.5,0.6,2.9,1.9,3.5
								c1.8,0.9,4,0.3,5.1-1.4c0.9-1.5,0.4-3.5-1.2-4.4c0,0,0,0,0,0l-0.3-0.2c-1.8-0.9-4-0.3-5.1,1.4c-0.1,0.2-0.2,0.3-0.2,0.5
								c-0.1-0.1-0.2-0.2-0.4-0.2c-0.3-0.1-0.7-0.1-1,0.1c0.3-1.5-0.5-2.9-1.9-3.6c-1.8-0.9-4-0.3-5.1,1.4c-0.1,0.2-0.2,0.4-0.3,0.7
								l-7.5-1.8C209.8,223.7,209.7,223.7,209.7,223.8L209.7,223.8z M226.8,226.8c1-1.5,2.9-2,4.4-1.2c1.4,0.6,2.1,2.2,1.5,3.6
								c0,0.1-0.1,0.2-0.2,0.3c-1,1.5-2.9,2-4.4,1.2c-1.4-0.6-2.1-2.3-1.5-3.7C226.8,226.9,226.8,226.8,226.8,226.8L226.8,226.8z
								 M218.2,225c1-1.5,2.9-2,4.4-1.2c1.4,0.6,2.1,2.3,1.5,3.7c0,0,0,0,0,0c0,0.1-0.1,0.2-0.2,0.3c-1,1.5-2.9,2-4.4,1.2
								c-1.4-0.6-2.1-2.3-1.5-3.7c0,0,0,0,0,0C218.2,225.2,218.2,225.1,218.2,225L218.2,225z"/>
							<g id="Grupo_88982" class="st19">
								<path id="Trazado_110925" class="st20" d="M209.7,223.8c0,0.1,0,0.2,0.1,0.2l0,0l7.6,1.8c-0.2,1.5,0.5,3,1.9,3.6
									c1.8,0.9,4,0.3,5.1-1.4c0.1-0.2,0.2-0.3,0.2-0.5c0.3-0.2,0.6-0.3,1-0.3c0.2,0.1,0.3,0.2,0.4,0.4c-0.2,1.5,0.6,2.9,1.9,3.5
									c1.8,0.9,4,0.3,5.1-1.4c0.9-1.5,0.4-3.5-1.2-4.4c0,0,0,0,0,0l-0.3-0.2c-1.8-0.9-4-0.3-5.1,1.4c-0.1,0.2-0.2,0.3-0.2,0.5
									c-0.1-0.1-0.2-0.2-0.4-0.2c-0.3-0.1-0.7-0.1-1,0.1c0.3-1.5-0.5-2.9-1.9-3.6c-1.8-0.9-4-0.3-5.1,1.4
									c-0.1,0.2-0.2,0.4-0.3,0.7l-7.5-1.8C209.8,223.7,209.7,223.7,209.7,223.8L209.7,223.8z M226.8,226.8c1-1.5,2.9-2,4.4-1.2
									c1.4,0.6,2.1,2.2,1.5,3.6c0,0.1-0.1,0.2-0.2,0.3c-1,1.5-2.9,2-4.4,1.2c-1.4-0.6-2.1-2.3-1.5-3.7
									C226.8,226.9,226.8,226.8,226.8,226.8L226.8,226.8z M218.2,225c1-1.5,2.9-2,4.4-1.2c1.4,0.6,2.1,2.3,1.5,3.7c0,0,0,0,0,0
									c0,0.1-0.1,0.2-0.2,0.3c-1,1.5-2.9,2-4.4,1.2c-1.4-0.6-2.1-2.3-1.5-3.7c0,0,0,0,0,0C218.2,225.2,218.2,225.1,218.2,225
									L218.2,225z"/>
							</g>
						</g>
						<path id="Trazado_110926" class="st26" d="M215,238.7c0.4-1.8-0.8-3.6-2.6-4c-2.4-0.4-4.9,3.9,0.5,6.8
							C213.7,242,214.4,241.3,215,238.7z"/>
					</g>
					<g id="Grupo_88985" transform="translate(48.051 66.081)">
						<path id="Trazado_110927" class="st7" d="M210.6,224.9c4.1-0.9,8.3-1.5,12.6-1.8c5.1-0.2,10.8-0.3,9.4,2.4l-20.7,0.2
							L210.6,224.9z"/>
						<path id="Trazado_110928" class="st30" d="M210.6,224.9c4.1-0.9,8.3-1.5,12.6-1.8c5.1-0.2,10.8-0.3,9.4,2.4l-20.7,0.2
							L210.6,224.9z"/>
						<rect id="Rectngulo_35377" x="209.7" y="224.9" class="st13" width="24" height="0.8"/>
					</g>
					
						<rect id="Rectngulo_35378" x="260.4" y="276.6" transform="matrix(0.9094 -0.416 0.416 0.9094 -93.8973 134.142)" class="st13" width="1.1" height="11.9"/>
					<path id="Trazado_110929" class="st26" d="M248.8,286.3l6.9,1.6c0.7-1,1.7-1.8,2.8-2.4c2.5-0.6,5-1.2,7.5-1.5l1.4,6.9
						c0,0-9.6,1-10.4,0.8l-8.3-0.8L248.8,286.3z"/>
					<g id="Grupo_88986" transform="translate(16.18 32.479)">
						<path id="Trazado_110930" class="st7" d="M214,223c-4.7,1.4-5.1,26.4-3.3,29.7s24.4,6.6,24.4,6.6l1.4-5.1c0,0-18.7-6.5-19-7
							s1.2-14.9,1.2-17.7S214,223,214,223z"/>
						<path id="Trazado_110931" class="st7" d="M235.7,253.2l-1,7l2-0.3l1.3-6.3L235.7,253.2z"/>
						<path id="Trazado_110932" class="st25" d="M235.7,253.2l-1,7l2-0.3l1.3-6.3L235.7,253.2z"/>
					</g>
				</g>
				<g id="Grupo_88993" transform="translate(87.333 81.041)">
					<g id="Grupo_88988" transform="translate(55.914 6.006)">
						<path id="Trazado_110933" class="st13" d="M215.6,352.7h-5.1L209.7,223h6.7L215.6,352.7z"/>
						<path id="Trazado_110934" class="st16" d="M216.4,223.2l-0.1,20.5l-0.7,109h-5.1l-0.7-109l-0.1-20.5L216.4,223.2z"/>
						<path id="Trazado_110935" class="st22" d="M216.4,223.2l-0.1,20.7h-6.5l-0.1-20.7H216.4z"/>
					</g>
					<g id="Grupo_88989" transform="translate(101.528 6.006)">
						<path id="Trazado_110936" class="st13" d="M223.9,352.7h-5.1L209.7,223h6.7L223.9,352.7z"/>
						<path id="Trazado_110937" class="st31" d="M223.9,352.7h-5.1l-8.7-123.4l-0.4-6.1h6.7l0.4,6.1L223.9,352.7z"/>
						<path id="Trazado_110938" class="st22" d="M216.8,229h-6.7l-0.4-5.8h6.7L216.8,229z"/>
					</g>
					<g id="Grupo_88990" transform="translate(2.807 6.006)">
						<path id="Trazado_110939" class="st13" d="M214.8,352.7h-5.1l7.5-129.8h6.7L214.8,352.7z"/>
						<path id="Trazado_110940" class="st31" d="M223.9,223.2l-0.5,6.1l-8.7,123.4h-5.1l7.1-123.4l0.4-6.1L223.9,223.2z"/>
						<path id="Trazado_110941" class="st22" d="M217.2,223.2h6.7l-0.5,5.8h-6.7L217.2,223.2z"/>
					</g>
					<g id="Grupo_88991" transform="translate(4.931 2.816)">
						<path id="Trazado_110942" class="st13" d="M209.7,223h108.7v3.8c0,1.4-1.1,2.5-2.5,2.5H212.3c-1.4,0-2.6-1.1-2.6-2.6
							c0,0,0,0,0,0V223z"/>
						<path id="Trazado_110943" class="st25" d="M209.7,223h108.7v3.8c0,1.4-1.1,2.5-2.5,2.5H212.3c-1.4,0-2.6-1.1-2.6-2.6
							c0,0,0,0,0,0V223z"/>
					</g>
					<rect id="Rectngulo_35379" x="214.6" y="225.8" class="st22" width="108.7" height="3.2"/>
					<g id="Grupo_88992">
						<path id="Trazado_110944" class="st13" d="M326.5,226.6h-115c-1,0-1.8-0.8-1.8-1.8l0,0c0-1,0.8-1.8,1.8-1.8h115
							c1,0,1.8,0.8,1.8,1.8l0,0C328.4,225.8,327.5,226.6,326.5,226.6L326.5,226.6z"/>
						<path id="Trazado_110945" class="st25" d="M326.5,226.6h-115c-1,0-1.8-0.8-1.8-1.8l0,0c0-1,0.8-1.8,1.8-1.8h115
							c1,0,1.8,0.8,1.8,1.8l0,0C328.4,225.8,327.5,226.6,326.5,226.6L326.5,226.6z"/>
					</g>
				</g>
				<g id="Grupo_88994" transform="translate(135.847 51.106)">
					<path id="Trazado_110946" class="st13" d="M261.6,249.8v2.1c0,0.6-1.1,1.1-1.7,1.1h-48.6c-0.6,0-1.6-0.4-1.6-1.1v-2.1H261.6z"
						/>
					<path id="Trazado_110947" class="st25" d="M261.6,249.8v2.1c0,0.6-1.1,1.1-1.7,1.1h-48.6c-0.6,0-1.6-0.4-1.6-1.1v-2.1H261.6z"
						/>
					<path id="Trazado_110948" class="st22" d="M261.6,249.8v2.1c0,0.6-1.1,1.1-1.7,1.1h-32c-0.6,0-1.7-0.4-1.7-1.1v-2.1H261.6z"/>
					<path id="Trazado_110949" class="st13" d="M269.5,224.2l-5.8,26.3c-0.2,0.9-1,1.5-1.9,1.6h-31.6c-0.7-0.1-1.3-0.7-1.2-1.5
						c0,0,0,0,0,0c0-0.1,0-0.2,0.1-0.3l5.8-26.1c0.2-0.8,1-1.3,1.8-1.3h31.6C269.1,223,269.6,223.4,269.5,224.2z"/>
					<path id="Trazado_110950" class="st25" d="M269.5,224.2l-5.8,26.3c-0.2,0.9-1,1.5-1.9,1.6h-31.6c-0.7-0.1-1.3-0.7-1.2-1.5
						c0,0,0,0,0,0c0-0.1,0-0.2,0.1-0.3l5.8-26.1c0.2-0.8,1-1.3,1.8-1.3h31.6C269.1,223,269.6,223.4,269.5,224.2z"/>
					<path id="Trazado_110951" class="st16" d="M269.5,224.2l-5.8,26.3c-0.2,0.9-1,1.5-1.9,1.6h-30.5c-0.8-0.1-1.3-0.7-1.2-1.5
						c0-0.1,0-0.2,0.1-0.3l5.8-26.1c0.2-0.8,1-1.3,1.9-1.3h30.5C269.1,223,269.6,223.4,269.5,224.2z"/>
					<path id="Trazado_110952" class="st22" d="M250.9,241.1c1.5,0,3-1.6,3.4-3.6s-0.5-3.6-2-3.6c-0.3,0-0.5,0.1-0.8,0.1
						c-0.3,1.4-1.2,2.6-2.5,3.2c0,0.1,0,0.1,0,0.2C248.5,239.5,249.4,241.1,250.9,241.1z"/>
				</g>
			</g>
		</g>
	</g>
</g>
</svg>
