<svg xmlns="http://www.w3.org/2000/svg" width="600" height="400" viewBox="0 0 600 400">
  <g id="Grupo_91689" data-name="Grupo 91689" transform="translate(-768 -2451)">
    <g id="CF1_informe_copia" data-name="CF1_informe copia" transform="translate(768 2451)">
      <rect id="Rectángulo_35703" data-name="Rectángulo 35703" width="186.22" height="186.22" rx="16.66" transform="translate(46.605 191.786) rotate(-45)" fill="#bfe6f1"/>
      <rect id="Rectángulo_35704" data-name="Rectángulo 35704" width="600" height="400" fill="none"/>
      <g id="Grupo_91335" data-name="Grupo 91335">
        <g id="Grupo_91327" data-name="Grupo 91327">
          <g id="Grupo_91317" data-name="Grupo 91317">
            <g id="Grupo_91314" data-name="Grupo 91314">
              <path id="Trazado_118996" data-name="Trazado 118996" d="M209.17,199.28l-.02,2.85-96.14,55.68.02-2.85Z" fill="#2574a8"/>
              <path id="Trazado_118997" data-name="Trazado 118997" d="M113.03,254.96l-.02,2.85L47.57,220.02l.02-2.84Z" fill="#3497da"/>
              <path id="Trazado_118998" data-name="Trazado 118998" d="M209.17,199.28l-96.14,55.68L47.59,217.18l96.14-55.68Z" fill="#1a5175"/>
            </g>
            <path id="Trazado_118999" data-name="Trazado 118999" d="M54.97,205.98l-6.52-3.12v13.48l6.52,4.7Z" fill="#1a5175"/>
            <g id="Grupo_91315" data-name="Grupo 91315">
              <path id="Trazado_119000" data-name="Trazado 119000" d="M203.34,189.04l-.02,11.22L113,252.56l.02-11.22Z" fill="#a8a8a8"/>
              <path id="Trazado_119001" data-name="Trazado 119001" d="M52.74,206.58v11.23L113,252.56l.02-11.22Z" fill="#ebebeb"/>
              <path id="Trazado_119002" data-name="Trazado 119002" d="M48.65,218.62l5.95.38.67,3.44,10.42-6.02-6.63-3.82Z" fill="#fbab20"/>
              <path id="Trazado_119003" data-name="Trazado 119003" d="M142.6,153.97,56.02,204.1v4.33l57,32.91,90.32-52.3Z" fill="#dcdcdc"/>
            </g>
            <g id="Grupo_91316" data-name="Grupo 91316">
              <path id="Trazado_119004" data-name="Trazado 119004" d="M209.17,182.83l-.02,2.85-96.14,55.68.02-2.85Z" fill="#2574a8"/>
              <path id="Trazado_119005" data-name="Trazado 119005" d="M113.03,238.51l-.02,2.85L47.57,203.58l.02-2.85Z" fill="#3497da"/>
              <path id="Trazado_119006" data-name="Trazado 119006" d="M209.17,182.83l-96.14,55.68L47.59,200.73l96.14-55.68Z" fill="#22a6ef"/>
              <path id="Trazado_119007" data-name="Trazado 119007" d="M190.27,184.93l-73.65,42.65L66.49,198.64l73.65-42.66Z" fill="#1a5175"/>
              <path id="Trazado_119008" data-name="Trazado 119008" d="M180.16,186.04l-61.62,35.69L76.6,197.52l61.62-35.69Z" fill="#22a6ef"/>
              <path id="Trazado_119009" data-name="Trazado 119009" d="M132.68,208.84l-12.23,7.09L86.64,196.41l12.23-7.09Z" fill="#1a5175"/>
            </g>
            <path id="Trazado_119010" data-name="Trazado 119010" d="M50.59,220.46l-3.02-1.56V201.88l3.02,1.84Z" fill="#3497da"/>
          </g>
          <g id="Grupo_91321" data-name="Grupo 91321">
            <g id="Grupo_91318" data-name="Grupo 91318">
              <path id="Trazado_119011" data-name="Trazado 119011" d="M219.44,177.74l-.02,2.89-97.45,56.44.01-2.89Z" fill="#e88102"/>
              <path id="Trazado_119012" data-name="Trazado 119012" d="M121.98,234.18l-.01,2.89-66.33-38.3.02-2.88Z" fill="#e88102"/>
              <path id="Trazado_119013" data-name="Trazado 119013" d="M219.44,177.74l-97.46,56.44L55.66,195.89l97.45-56.44Z" fill="#8a4c01"/>
            </g>
            <path id="Trazado_119014" data-name="Trazado 119014" d="M63.13,184.54l-6.6-3.17v13.67l6.6,4.77Z" fill="#8a4c01"/>
            <g id="Grupo_91319" data-name="Grupo 91319">
              <path id="Trazado_119015" data-name="Trazado 119015" d="M213.53,167.37l-.03,11.37-91.55,53.01.03-11.37Z" fill="#ebebeb"/>
              <path id="Trazado_119016" data-name="Trazado 119016" d="M60.88,185.14v11.39l61.07,35.22.03-11.37Z" fill="#a8a8a8"/>
              <path id="Trazado_119017" data-name="Trazado 119017" d="M151.95,131.82,64.2,182.63v4.39l57.78,33.36,91.55-53.01Z" fill="#dcdcdc"/>
            </g>
            <g id="Grupo_91320" data-name="Grupo 91320">
              <path id="Trazado_119018" data-name="Trazado 119018" d="M219.44,161.07l-.02,2.89L121.97,220.4l.01-2.89Z" fill="#e88102"/>
              <path id="Trazado_119019" data-name="Trazado 119019" d="M121.98,217.51l-.01,2.89L55.64,182.1l.02-2.88Z" fill="#e88102"/>
              <path id="Trazado_119020" data-name="Trazado 119020" d="M219.44,161.07l-97.46,56.44L55.66,179.22l97.45-56.44Z" fill="#fbab20"/>
            </g>
            <path id="Trazado_119021" data-name="Trazado 119021" d="M58.69,199.21l-3.05-1.57V180.39l3.05,1.86Z" fill="#e88102"/>
          </g>
          <g id="Grupo_91326" data-name="Grupo 91326">
            <g id="Grupo_91322" data-name="Grupo 91322">
              <path id="Trazado_119022" data-name="Trazado 119022" d="M211.09,159.18l-.02,2.5-84.48,48.94.01-2.51Z" fill="#587a24"/>
              <path id="Trazado_119023" data-name="Trazado 119023" d="M126.6,208.11l-.01,2.51-57.51-33.2.02-2.51Z" fill="#6e992c"/>
              <path id="Trazado_119024" data-name="Trazado 119024" d="M211.09,159.18,126.6,208.11l-57.5-33.2,84.49-55.19Z" fill="#445e1b"/>
            </g>
            <path id="Trazado_119025" data-name="Trazado 119025" d="M75.58,158.81l-5.72-2.74v18.11l5.72,4.13Z" fill="#445e1b"/>
            <g id="Grupo_91323" data-name="Grupo 91323">
              <path id="Trazado_119026" data-name="Trazado 119026" d="M205.97,143.93l-.02,16.12-79.37,45.96.02-16.12Z" fill="#a8a8a8"/>
              <path id="Trazado_119027" data-name="Trazado 119027" d="M73.63,159.34v16.13l52.95,30.54.02-16.12Z" fill="#ebebeb"/>
              <path id="Trazado_119028" data-name="Trazado 119028" d="M152.59,113.11,76.51,157.16v3.81l50.09,28.92,79.37-45.96Z" fill="#dcdcdc"/>
            </g>
            <g id="Grupo_91324" data-name="Grupo 91324">
              <path id="Trazado_119029" data-name="Trazado 119029" d="M211.09,138.47l-.02,2.5L126.59,189.9l.01-2.5Z" fill="#587a24"/>
              <path id="Trazado_119030" data-name="Trazado 119030" d="M126.6,187.4l-.01,2.5L69.08,156.7l.02-2.5Z" fill="#6e992c"/>
              <path id="Trazado_119031" data-name="Trazado 119031" d="M211.09,138.47,126.6,187.4,69.1,154.2l84.49-48.93Z" fill="#7eb033"/>
              <path id="Trazado_119032" data-name="Trazado 119032" d="M195.59,140.19l-66.04,38.24L84.59,152.48l66.05-38.25Z" fill="#638a28"/>
            </g>
            <path id="Trazado_119033" data-name="Trazado 119033" d="M71.73,177.8l-2.65-1.37V155.21l2.65,1.62Z" fill="#6e992c"/>
            <path id="Trazado_119034" data-name="Trazado 119034" d="M62.53,172.72l5.95.39.67,3.44,15.56-8.99-6.62-3.82Z" fill="#de361f"/>
            <g id="Grupo_91325" data-name="Grupo 91325">
              <path id="Trazado_119035" data-name="Trazado 119035" d="M125.3,133.76l36.1,20.84-11.61,6.72-36.1-20.84Z" fill="#7eb033"/>
              <path id="Trazado_119036" data-name="Trazado 119036" d="M184.24,140.61l-17.02,9.86-36.1-20.84,17.03-9.85Z" fill="#7eb033"/>
            </g>
          </g>
        </g>
        <g id="Grupo_91334" data-name="Grupo 91334">
          <g id="Grupo_91329" data-name="Grupo 91329">
            <path id="Trazado_119037" data-name="Trazado 119037" d="M133.63,287.01l-3.3-1.89-.27-93.2,3.3,1.89Z" fill="#822021"/>
            <path id="Trazado_119038" data-name="Trazado 119038" d="M133.36,193.81l-3.3-1.89,129.76-74.91,3.3,1.88Z" fill="#932425"/>
            <path id="Trazado_119039" data-name="Trazado 119039" d="M201.6,154.53c3.63.17,5,2.78,3,5.84a12.56,12.56,0,0,1-10.11,5.23c-3.63-.17-5-2.78-3-5.84a12.56,12.56,0,0,1,10.11-5.23Z" fill="#f93e3f"/>
            <g id="Grupo_91328" data-name="Grupo 91328">
              <path id="Trazado_119040" data-name="Trazado 119040" d="M133.36,193.81l.27,93.2,69.03-39.85V153.8Z" fill="#f93e3f"/>
              <path id="Trazado_119041" data-name="Trazado 119041" d="M263.12,118.89,202.66,153.8v93.36l60.72-35.06Z" fill="#f93e3f"/>
            </g>
          </g>
          <path id="Trazado_119042" data-name="Trazado 119042" d="M259.87,124.12l.24,84.24s-8,33.85-55.8,35.51l-1.68-78.76,1-7C236.47,151,259.87,124.12,259.87,124.12Z" fill="#babbbd"/>
          <g id="Grupo_91330" data-name="Grupo 91330">
            <path id="Trazado_119043" data-name="Trazado 119043" d="M202.89,249.37l-5.55-3.23-.22-77.81v-6.42h0l5.52,3.21h0Z" fill="#717274"/>
          </g>
          <path id="Trazado_119044" data-name="Trazado 119044" d="M192.19,164.74l10.47-4.48.24,83S182.58,278.34,138.71,280l-.26-84.23C190.75,174.72,192.19,164.74,192.19,164.74Z" fill="#babbbd"/>
          <g id="Grupo_91331" data-name="Grupo 91331">
            <path id="Trazado_119045" data-name="Trazado 119045" d="M144.26,283.22l-5.55-3.23-.25-84.23,5.56,3.23Z" fill="#717274"/>
          </g>
          <path id="Trazado_119046" data-name="Trazado 119046" d="M259.89,131.17l.22,85.23s-8.84,31.86-57.21,33l-.24-84.23C253.43,152.41,259.89,131.17,259.89,131.17Z" fill="#f2f2f2"/>
          <path id="Trazado_119047" data-name="Trazado 119047" d="M265,145.57l1.1,89.4s-18,20.53-63.2,14.4l-.22-84.23C244.88,161.9,265,145.57,265,145.57Z" fill="#fff"/>
          <g id="Grupo_91332" data-name="Grupo 91332">
            <path id="Trazado_119048" data-name="Trazado 119048" d="M260.39,221.09a50.72,50.72,0,0,1-7.93,4.77c-.94.45-2,.91-3,1.36A75.641,75.641,0,0,1,232.11,232l-.68.1a108.591,108.591,0,0,1-26.14.65v5.37a131.8,131.8,0,0,0,14.05.41,109.64,109.64,0,0,0,12.94-1.14,77.771,77.771,0,0,0,18.9-5.13,61.189,61.189,0,0,0,9.21-4.95Z" fill="#e6e6e6"/>
            <path id="Trazado_119049" data-name="Trazado 119049" d="M260.39,205.7a52.33,52.33,0,0,1-8.78,5.24c-.94.45-1.93.89-3,1.33a81.942,81.942,0,0,1-17.09,4.88l-.67.11a114.079,114.079,0,0,1-25.57,1.32v5.34a135.9,135.9,0,0,0,14,0,121.827,121.827,0,0,0,12.85-1.44,80.48,80.48,0,0,0,17.49-4.83,78.233,78.233,0,0,0,10.25-5.45l.51-.3Z" fill="#e6e6e6"/>
            <path id="Trazado_119050" data-name="Trazado 119050" d="M260.39,190.33a60.139,60.139,0,0,1-9.68,5.68c-.94.43-1.92.86-3,1.29a88.55,88.55,0,0,1-16.84,4.95l-.66.13a121.4,121.4,0,0,1-25,2v5.33c4.86.07,9.5-.1,13.9-.46a122.121,122.121,0,0,0,12.75-1.76A84.149,84.149,0,0,0,248,202.94a86.993,86.993,0,0,0,9.53-4.82c1-.56,2-1.09,2.84-1.58Z" fill="#e6e6e6"/>
            <path id="Trazado_119051" data-name="Trazado 119051" d="M260.39,175.13a74.811,74.811,0,0,1-10.59,6c-.92.42-1.9.83-2.92,1.25a97.929,97.929,0,0,1-16.59,5l-.65.13a129.1,129.1,0,0,1-24.35,2.62v5.34c4.86-.1,9.46-.42,13.81-.91,4.5-.52,8.72-1.24,12.66-2.06a91.071,91.071,0,0,0,14.65-4.22,95.119,95.119,0,0,0,8.82-4.18c2-1,3.69-1.93,5.16-2.76Z" fill="#e6e6e6"/>
            <path id="Trazado_119052" data-name="Trazado 119052" d="M260.39,160.31l-.4.23a88.18,88.18,0,0,1-11,5.93c-.92.41-1.88.81-2.89,1.22a111,111,0,0,1-16.34,5.09l-.64.14a141.459,141.459,0,0,1-23.81,3.25v5.36c4.87-.27,9.47-.74,13.78-1.35,4.51-.65,8.7-1.47,12.57-2.37a102.649,102.649,0,0,0,13.24-3.92c3.21-1.21,5.87-2.5,8.1-3.55,2.94-1.39,5.41-2.69,7.41-3.82Z" fill="#e6e6e6"/>
          </g>
          <path id="Trazado_119053" data-name="Trazado 119053" d="M204.09,164.3h0c-.17.12-.36.24-.55.35s-.4.22-.62.32h0l-.28.13h0a12.7,12.7,0,0,1-5.51.91,11.52,11.52,0,0,1-4.92-1.28l4.91-2.83h0l6.56-3.78C206.5,159.83,206.64,162.49,204.09,164.3Z" fill="#4e4e4f"/>
          <path id="Trazado_119054" data-name="Trazado 119054" d="M202.65,165.13l.25,84.24s-10.86,32.2-58.64,33.85L144,199C190,184.7,202.65,165.13,202.65,165.13Z" fill="#d4d4d4"/>
          <path id="Trazado_119055" data-name="Trazado 119055" d="M202.67,165.13l.23,84.24s-10.53,34.33-55.84,36V199.84C190.65,185.55,202.67,165.13,202.67,165.13Z" fill="#f7f7f7"/>
          <g id="Grupo_91333" data-name="Grupo 91333">
            <path id="Trazado_119056" data-name="Trazado 119056" d="M200.19,235a47.75,47.75,0,0,1-8.76,13.36c-.66.73-1.36,1.47-2.1,2.21a57.58,57.58,0,0,1-13.72,10.1q-2.42,1.31-5,2.4a74.482,74.482,0,0,1-17.92,4.9V273a79,79,0,0,0,23.28-6.81,63.09,63.09,0,0,0,17.68-12.58,59.509,59.509,0,0,0,6.57-8Z" fill="#cfcfcf"/>
            <path id="Trazado_119057" data-name="Trazado 119057" d="M200.19,220.75a48.389,48.389,0,0,1-9.27,13.06c-.68.7-1.4,1.41-2.16,2.14A63.62,63.62,0,0,1,175,245.83c-1.61.86-3.29,1.66-5,2.42a83.412,83.412,0,0,1-17.27,5.23v5.06a87.941,87.941,0,0,0,23.24-7.46,68.289,68.289,0,0,0,17.52-12.3,62.068,62.068,0,0,0,6.77-7.8Z" fill="#cfcfcf"/>
            <path id="Trazado_119058" data-name="Trazado 119058" d="M200.19,206.59a49.14,49.14,0,0,1-9.76,12.68c-.69.67-1.43,1.36-2.21,2.06A70.44,70.44,0,0,1,174.29,231c-1.59.85-3.25,1.67-5,2.44A94.47,94.47,0,0,1,152.66,239v5.07a100.35,100.35,0,0,0,23.22-8.12,75.2,75.2,0,0,0,17.36-12,65.1,65.1,0,0,0,6.95-7.62Z" fill="#cfcfcf"/>
            <path id="Trazado_119059" data-name="Trazado 119059" d="M200.19,192.45c-.67,1.24-3.6,6.21-10.22,12.25-.71.65-1.47,1.31-2.27,2a79.55,79.55,0,0,1-14,9.44c-1.58.84-3.23,1.67-5,2.46a110.7,110.7,0,0,1-16.05,5.83v5.15a114.08,114.08,0,0,0,23.23-8.83A83.17,83.17,0,0,0,193.08,209a67.05,67.05,0,0,0,7.11-7.39Z" fill="#cfcfcf"/>
            <path id="Trazado_119060" data-name="Trazado 119060" d="M200.19,178.33c-.76,1.26-3.83,5.95-10.66,11.77-.72.63-1.5,1.27-2.32,1.92a92.719,92.719,0,0,1-14.14,9.22c-1.57.84-3.2,1.67-4.92,2.48a133.215,133.215,0,0,1-15.49,6.09v5.3a134.5,134.5,0,0,0,23.27-9.58,95.487,95.487,0,0,0,17-11.45,72.352,72.352,0,0,0,7.23-7.11Z" fill="#cfcfcf"/>
          </g>
        </g>
      </g>
      <path id="Trazado_119061" data-name="Trazado 119061" d="M428.76,231.75H360.01V211.22l-44.31-.13h-44" fill="none" stroke="#7faccb" stroke-linecap="round" stroke-miterlimit="10" stroke-width="2" stroke-dasharray="0 4"/>
      <path id="Trazado_119062" data-name="Trazado 119062" d="M271.7,153.48h68.25l1-79.05h87.81" fill="none" stroke="#7faccb" stroke-linecap="round" stroke-miterlimit="10" stroke-width="2" stroke-dasharray="0 4"/>
      <path id="Trazado_119063" data-name="Trazado 119063" d="M271.7,165h79.49V105.27h77.57" fill="none" stroke="#7faccb" stroke-linecap="round" stroke-miterlimit="10" stroke-width="2" stroke-dasharray="0 4"/>
      <path id="Trazado_119064" data-name="Trazado 119064" d="M271.7,176.52h90.12V138.47h66.94" fill="none" stroke="#7faccb" stroke-linecap="round" stroke-miterlimit="10" stroke-width="2" stroke-dasharray="0 4"/>
      <path id="Trazado_119065" data-name="Trazado 119065" d="M271.7,188.05H373.89V167.41l10.87-.04h40" fill="none" stroke="#7faccb" stroke-linecap="round" stroke-miterlimit="10" stroke-width="2" stroke-dasharray="0 4"/>
      <path id="Trazado_119066" data-name="Trazado 119066" d="M271.7,199.57H424.76" fill="none" stroke="#7faccb" stroke-linecap="round" stroke-miterlimit="10" stroke-width="2" stroke-dasharray="0 4"/>
      <path id="Trazado_119067" data-name="Trazado 119067" d="M271.7,234.14h67.53v57.22h89.53" fill="none" stroke="#7faccb" stroke-linecap="round" stroke-miterlimit="10" stroke-width="2" stroke-dasharray="0 4"/>
      <text id="Portada_Introducción_Antecedentes_Problematización_Objetivos_Justificación_Conclusión_Bibliografía" data-name="Portada
Introducción
Antecedentes
Problematización
Objetivos
Justificación
Conclusión
Bibliografía" transform="translate(437.67 80.85)" fill="#12263f" font-size="12" font-family="Roboto-Regular, Roboto"><tspan x="0" y="0" letter-spacing="-0.01em">P</tspan><tspan y="0">o</tspan><tspan y="0" letter-spacing="0.02em">r</tspan><tspan y="0">tada</tspan><tspan x="0" y="31">Int</tspan><tspan y="31" letter-spacing="-0.01em">r</tspan><tspan y="31">oducción</tspan><tspan x="0" y="62">Antecedentes</tspan><tspan x="0" y="93">P</tspan><tspan y="93" letter-spacing="-0.01em">r</tspan><tspan y="93">oblematización</tspan><tspan x="0" y="124">Objeti</tspan><tspan y="124" letter-spacing="-0.01em">v</tspan><tspan y="124">os</tspan><tspan x="0" y="155">Justificación</tspan><tspan x="0" y="186">Conclusión</tspan><tspan x="0" y="217">Bibliog</tspan><tspan y="217" letter-spacing="-0.02em">r</tspan><tspan y="217">afía</tspan></text>
      <path id="Trazado_119068" data-name="Trazado 119068" d="M271.7,222.62h44l32.53.08v37.7h80.53" fill="none" stroke="#7faccb" stroke-linecap="round" stroke-miterlimit="10" stroke-width="2" stroke-dasharray="0 4"/>
    </g>
  </g>
</svg>
