<svg xmlns="http://www.w3.org/2000/svg" width="240.04" height="240" viewBox="0 0 240.04 240">
  <g id="Grupo_91698" data-name="Grupo 91698" transform="translate(-420 -6060.832)">
    <g id="CF1_paso_copia_2" data-name="CF1_paso copia 2" transform="translate(420 6060.832)">
      <rect id="Rectángulo_35517" data-name="Rectángulo 35517" width="166.54" height="166.54" rx="14.9" transform="translate(2.234 120) rotate(-45)" fill="#bfe6f1"/>
      <rect id="Rectángulo_35518" data-name="Rectángulo 35518" width="240" height="240" fill="none"/>
      <g id="Grupo_89454" data-name="Grupo 89454">
        <g id="Grupo_89449" data-name="Grupo 89449">
          <g id="Grupo_89446" data-name="Grupo 89446">
            <path id="Trazado_112749" data-name="Trazado 112749" d="M217.92,125.14a2.1,2.1,0,0,0-2.44-.32,1.55,1.55,0,0,0,.18-2.12,2.07,2.07,0,0,0-2.07-.67,2.38,2.38,0,0,0-1.63,1.28,2,2,0,0,0,.16,2c-2.16,1.5-4.28,3.07-6.35,4.69a.94.94,0,0,0-.43.55,1,1,0,0,0,.17.58l.84,1.53q3.78-2.67,7.7-5.15a2.75,2.75,0,0,0,2.13,1,2.35,2.35,0,0,0,2-1.18,2,2,0,0,0-.26-2.19Z" fill="#e1e1e1"/>
            <path id="Trazado_112750" data-name="Trazado 112750" d="M217.92,125.14a1.27,1.27,0,0,1,.31.41,2,2,0,0,1,.17,1.46,2.26,2.26,0,0,1-1.62,1.58,2.76,2.76,0,0,1-2.8-1h.13l-7.69,5.16-.11.08-.07-.12-.7-1.28a2.34,2.34,0,0,1-.32-.73.65.65,0,0,1,.1-.45,1.379,1.379,0,0,1,.29-.3l6.45-4.75v.17a2.18,2.18,0,0,1,.15-2.66,2.49,2.49,0,0,1,2.27-.84,2.07,2.07,0,0,1,1,.46,1.63,1.63,0,0,1,.53.88,1.46,1.46,0,0,1-.49,1.61l-.07-.11a1.78,1.78,0,0,1,1.12-.25,2.25,2.25,0,0,1,.81.22,1.43,1.43,0,0,1,.55.41,3,3,0,0,0-.58-.35,2.49,2.49,0,0,0-.78-.18,1.68,1.68,0,0,0-1.05.26l-.07-.11a1.31,1.31,0,0,0,.41-1.46,1.66,1.66,0,0,0-1.43-1.2,2.31,2.31,0,0,0-2.07.8,2,2,0,0,0-.13,2.38l.06.09-.09.07-6.42,4.76c-.19.15-.34.32-.3.52a1.86,1.86,0,0,0,.29.63l.7,1.29h-.18l7.72-5.13h.07l.06.07a2.57,2.57,0,0,0,2.61.94A2.13,2.13,0,0,0,218.3,127a2,2,0,0,0-.12-1.4,4.4,4.4,0,0,0-.26-.46Z" fill="#0b1d2a"/>
          </g>
          <g id="Grupo_89447" data-name="Grupo 89447">
            <path id="Trazado_112751" data-name="Trazado 112751" d="M191.73,112.75a2.1,2.1,0,0,0-2.45.18,1.55,1.55,0,0,0-.26-2.1,2,2,0,0,0-2.16-.23,2.36,2.36,0,0,0-1.34,1.58,2,2,0,0,0,.58,2c-1.8,1.92-3.56,3.89-5.25,5.9a.71.71,0,0,0-.02,1.16l1.13,1.32q3.16-3.39,6.48-6.61a2.78,2.78,0,0,0,2.3.57,2.33,2.33,0,0,0,1.72-1.56,2,2,0,0,0-.73-2.21Z" fill="#e1e1e1"/>
            <path id="Trazado_112752" data-name="Trazado 112752" d="M191.73,112.75a1.19,1.19,0,0,1,.39.33,2.07,2.07,0,0,1,.47,1.4,2.25,2.25,0,0,1-1.27,1.88,2.76,2.76,0,0,1-2.94-.38h.13l-6.45,6.63-.1.1-.09-.1-1-1.12a2.31,2.31,0,0,1-.47-.64.72.72,0,0,1,0-.46,1.82,1.82,0,0,1,.22-.36l5.34-6v.17a2.19,2.19,0,0,1-.39-2.63,2.49,2.49,0,0,1,2-1.29,2,2,0,0,1,1.1.24,1.68,1.68,0,0,1,.7.75,1.45,1.45,0,0,1-.15,1.68l-.09-.09a1.74,1.74,0,0,1,1.05-.47,2.41,2.41,0,0,1,.83,0,1.32,1.32,0,0,1,.62.29,2.83,2.83,0,0,0-.63-.23,2.39,2.39,0,0,0-.81,0,1.73,1.73,0,0,0-1,.47l-.09-.09a1.33,1.33,0,0,0,.1-1.52,1.66,1.66,0,0,0-1.65-.88,2.3,2.3,0,0,0-1.86,1.21,2,2,0,0,0,.36,2.36l.08.08-.07.08-5.31,6a.63.63,0,0,0-.19.58,2.27,2.27,0,0,0,.42.56l.95,1.11h-.19l6.51-6.61.06-.06.07.06a2.58,2.58,0,0,0,2.74.39,2.16,2.16,0,0,0,1.23-1.75,2.12,2.12,0,0,0-.4-1.35,2.521,2.521,0,0,0-.22-.34Z" fill="#0b1d2a"/>
          </g>
          <path id="Trazado_112753" data-name="Trazado 112753" d="M172.8,131.93a23.409,23.409,0,0,1-.68-4.32,8.23,8.23,0,0,1,.87-4.23,7.77,7.77,0,0,1,3.41-3.08,15.12,15.12,0,0,1,4.48-1.27,1.69,1.69,0,0,0,1-.41,2.56,2.56,0,0,0,1-1.35c.09.5.36,1.38.44,1.88.43-.18,1.34-.14,1.76-.32,0,2.52,1.13,4.55,1.38,7.06a6.67,6.67,0,0,1-10.21,6.3" fill="#f9ae40"/>
          <path id="Trazado_112754" data-name="Trazado 112754" d="M203.49,135a24.34,24.34,0,0,0-22-10.72c-8.49.7-18.43,5.14-24.36,11.26s-8,13.44-10.23,21.66l61.39-.17C208.2,149.86,207.43,141,203.49,135Z" fill="#f9ae40"/>
          <path id="Trazado_112755" data-name="Trazado 112755" d="M207.16,130.94c.07-.64.11-1.75.18-2.39-4.18.17-9.1-1.19-13-.12a14.23,14.23,0,0,0-9.29,8.27,7.49,7.49,0,0,0,.27,5.44,6.09,6.09,0,0,0,4,3.53c1.81.67,3.2,1.19,5.11.88a17.13,17.13,0,0,0,9.82-5.37c2.55-2.81,3.84-6.58,4.64-10.14C208.41,131.06,207.65,130.92,207.16,130.94Z" fill="#f9ae40"/>
          <path id="Trazado_112756" data-name="Trazado 112756" d="M193.66,126.74h-.12l-.33-.16-.54-.26a6.923,6.923,0,0,0-.75-.33,21.59,21.59,0,0,0-5-1.38,27.31,27.31,0,0,0-7.69,0,33.66,33.66,0,0,0-9.07,2.55,46,46,0,0,0-8.21,4.65,38.856,38.856,0,0,0-3.21,2.59,33.59,33.59,0,0,0-2.53,2.56A34.808,34.808,0,0,0,153,141c-.35.51-.58.93-.76,1.2l-.2.31c-.05.07-.07.11-.08.1l.06-.11.18-.32c.16-.28.38-.71.71-1.23a34,34,0,0,1,5.65-6.78,39,39,0,0,1,3.21-2.63,45,45,0,0,1,8.25-4.69,33.13,33.13,0,0,1,9.14-2.55,26.39,26.39,0,0,1,7.74.08,19.82,19.82,0,0,1,5,1.46c.29.12.53.24.74.35l.53.29.32.17A.46.46,0,0,1,193.66,126.74Z" fill="#0b1d2a"/>
          <path id="Trazado_112757" data-name="Trazado 112757" d="M207.34,136a11,11,0,0,1-.72,2,15.64,15.64,0,0,1-10.68,8.65,11.69,11.69,0,0,1-5,0,8.58,8.58,0,0,1-4.62-2.7,7.4,7.4,0,0,1-1.77-5,9,9,0,0,1,1.47-4.77,11.37,11.37,0,0,1,3.2-3.21,15.381,15.381,0,0,1,3.55-1.72,18.64,18.64,0,0,1,3.13-.91,14.321,14.321,0,0,1,4-.06l.4.05h-.41c-.35,0-.87-.06-1.54-.07a13.611,13.611,0,0,0-2.43.22,19.179,19.179,0,0,0-3.09.94,15.29,15.29,0,0,0-3.49,1.73,11.15,11.15,0,0,0-3.12,3.15,8.85,8.85,0,0,0-1.42,4.65,7.19,7.19,0,0,0,1.71,4.86,8.49,8.49,0,0,0,4.48,2.62,11.55,11.55,0,0,0,4.9,0,15.39,15.39,0,0,0,7.3-3.91,15.7,15.7,0,0,0,3.34-4.55,14.542,14.542,0,0,0,.61-1.42l.14-.37Z" fill="#0b1d2a"/>
          <g id="Grupo_89448" data-name="Grupo 89448" opacity="0.3">
            <path id="Trazado_112758" data-name="Trazado 112758" d="M159.33,135.68a8,8,0,0,0-1.05,2.6,2.65,2.65,0,0,0,.89,2.52c1.42,1,3.39-.24,4.38-1.68s1.8-3.24,3.45-3.8a2.61,2.61,0,0,0,4.55,1.3c.9-1.05,1.08-2.86,2.41-3.23.68-.18,1.4.13,2.1,0,1.81-.23,2.3-2.73,3.85-3.69.92-.58,2.09-.52,3.14-.81s2.11-1.28,1.76-2.31-1.53-1.15-2.52-1.16a30.76,30.76,0,0,0-23.14,10.32" fill="#fff"/>
          </g>
          <path id="Trazado_112759" data-name="Trazado 112759" d="M176.12,121.36a9.21,9.21,0,0,0-3.29,3.71,4.61,4.61,0,0,1,1.2-2.25,4.56,4.56,0,0,1,2.09-1.46Z" fill="#fff"/>
          <path id="Trazado_112760" data-name="Trazado 112760" d="M161.9,133.34a2.671,2.671,0,0,1-.41.42c-.28.26-.68.64-1.16,1.12a42.381,42.381,0,0,0-3.54,3.93,41.672,41.672,0,0,0-3,4.34c-.35.58-.63,1.06-.82,1.39a3.18,3.18,0,0,1-.32.5,3.15,3.15,0,0,1,.23-.55c.17-.35.42-.83.75-1.43a35,35,0,0,1,3-4.41,33.69,33.69,0,0,1,3.62-3.9c.5-.46.92-.82,1.21-1.06A2.909,2.909,0,0,1,161.9,133.34Z" fill="#fff"/>
          <path id="Trazado_112761" data-name="Trazado 112761" d="M166.32,130a3.077,3.077,0,0,1-.78.62c-.44.3-.81.56-.86.51s.25-.4.71-.72S166.29,129.92,166.32,130Z" fill="#fff"/>
          <path id="Trazado_112762" data-name="Trazado 112762" d="M191.09,131.6a11.033,11.033,0,0,0-1.28.71,7.65,7.65,0,0,0-3.56,5.75c-.09.9,0,1.46-.07,1.46a1.241,1.241,0,0,1-.08-.39,6.84,6.84,0,0,1,0-1.08,7.23,7.23,0,0,1,3.64-5.89,6,6,0,0,1,1-.46,1.43,1.43,0,0,1,.35-.1Z" fill="#fff"/>
          <path id="Trazado_112763" data-name="Trazado 112763" d="M193.41,130.43c0,.07-.18.23-.46.37s-.54.2-.57.14.17-.23.46-.37S193.38,130.37,193.41,130.43Z" fill="#fff"/>
        </g>
        <g id="Grupo_89450" data-name="Grupo 89450">
          <path id="Trazado_112764" data-name="Trazado 112764" d="M211.22,144.08a5.17,5.17,0,0,0-8.95-1.66,6,6,0,0,0-1.18,4.41A8.24,8.24,0,0,0,203,151a9.77,9.77,0,0,0,11.11,2.72,6.31,6.31,0,0,0,3.27-3A4.74,4.74,0,0,0,212,144.2" fill="#ca4f4e"/>
          <path id="Trazado_112765" data-name="Trazado 112765" d="M211.23,144.08a1.79,1.79,0,0,0-1.48-1.79l.72,1.61a1.74,1.74,0,0,0-1.63.66c-.09.12-.16.3-.05.41a.38.38,0,0,0,.28.05l1.48-.18a4.77,4.77,0,0,0,.2,2.28,5.56,5.56,0,0,0,1.09-1.92l1.27,1.06a2.25,2.25,0,0,0-.37-1.28,3.63,3.63,0,0,0,1.35-.13.276.276,0,0,0,.28-.26c-.01-.14-.13-.16-.22-.2a5,5,0,0,0-3-.21" fill="#30616f"/>
          <path id="Trazado_112766" data-name="Trazado 112766" d="M211,144.6a9.77,9.77,0,0,0,.89-4.51,1.091,1.091,0,0,1,1,.43.91.91,0,0,1,0,.63,10.7,10.7,0,0,1-1.93,3.84" fill="#30616f"/>
          <path id="Trazado_112767" data-name="Trazado 112767" d="M202.38,147.88a1.28,1.28,0,0,1-.16-.3,3.55,3.55,0,0,1-.28-.87,4.68,4.68,0,0,1,2.42-5.14,4.62,4.62,0,0,1,.85-.34,1.34,1.34,0,0,1,.33-.06,5.512,5.512,0,0,0-1.12.51,4.91,4.91,0,0,0-2,2.12,5,5,0,0,0-.38,2.89A9.219,9.219,0,0,0,202.38,147.88Z" fill="#fff"/>
          <path id="Trazado_112768" data-name="Trazado 112768" d="M203.53,149.4a1.054,1.054,0,0,1-.43-.31c-.19-.23-.25-.47-.21-.48s.17.16.34.38S203.56,149.37,203.53,149.4Z" fill="#fff"/>
        </g>
        <g id="Grupo_89451" data-name="Grupo 89451">
          <path id="Trazado_112769" data-name="Trazado 112769" d="M173.53,154.53h-1.84l-.76-.08c-.54-.07-1.16-.12-1.84-.26l-1.07-.18c-.37-.07-.74-.17-1.14-.26-.8-.17-1.62-.43-2.5-.69a37.481,37.481,0,0,1-5.48-2.26,38.321,38.321,0,0,1-5-3.16c-.72-.56-1.41-1.09-2-1.64-.31-.27-.61-.52-.88-.78l-.77-.76c-.5-.47-.9-.95-1.27-1.36-.18-.2-.36-.39-.51-.57l-.4-.5-.54-.7a1.16,1.16,0,0,1-.18-.25,1.4,1.4,0,0,1,.21.22l.58.67.41.49.52.56c.38.39.78.86,1.29,1.33l.78.74c.27.26.57.51.88.77.6.54,1.29,1.06,2,1.62a36.3,36.3,0,0,0,10.44,5.39c.87.26,1.69.52,2.48.7.4.09.77.2,1.14.27l1.06.2c.67.14,1.29.2,1.83.28.27,0,.52.08.75.1l.64.06.88.08Z" fill="#0b1d2a"/>
          <path id="Trazado_112770" data-name="Trazado 112770" d="M156.08,149.11a13.32,13.32,0,0,0-10.19.88,31.52,31.52,0,0,0,10.19-.88" fill="#0b1d2a"/>
          <path id="Trazado_112771" data-name="Trazado 112771" d="M156.23,149.18c1.78-2.71,1-7.22,1-7.22-.21-.63-1,3.79-1,7.22" fill="#0b1d2a"/>
          <path id="Trazado_112772" data-name="Trazado 112772" d="M151.78,145.79c1.3-2,.73-5.29.73-5.29-.15-.46-.74,2.78-.73,5.29" fill="#0b1d2a"/>
          <path id="Trazado_112773" data-name="Trazado 112773" d="M160.44,151.15c1.3-2,.73-5.29.73-5.29-.15-.46-.74,2.78-.73,5.29" fill="#0b1d2a"/>
          <path id="Trazado_112774" data-name="Trazado 112774" d="M151.87,145.86a9.92,9.92,0,0,0-7.59.66,23.66,23.66,0,0,0,7.59-.66" fill="#0b1d2a"/>
          <path id="Trazado_112775" data-name="Trazado 112775" d="M160.85,151.6a14,14,0,0,0-10.43,2.47,33.18,33.18,0,0,0,10.43-2.47" fill="#0b1d2a"/>
        </g>
        <g id="Grupo_89453" data-name="Grupo 89453">
          <g id="Grupo_89452" data-name="Grupo 89452">
            <path id="Trazado_112776" data-name="Trazado 112776" d="M171.54,142.6a16.44,16.44,0,0,1-.67-4.73.69.69,0,0,1,.14-.51.59.59,0,0,1,.63,0,1.59,1.59,0,0,0,.62.22,8.35,8.35,0,0,0-.62,5.21" fill="#0b1d2a"/>
            <path id="Trazado_112777" data-name="Trazado 112777" d="M177.33,142.74a4.76,4.76,0,0,0-5.77-.35c-.93-.91-3-1-4.23-.62a6.72,6.72,0,1,0,5.37,12.16,4.22,4.22,0,0,0,5.07-.61,6.79,6.79,0,0,0,1.9-5,7.29,7.29,0,0,0-2.34-5.58Z" fill="#ca4f4e"/>
          </g>
          <path id="Trazado_112778" data-name="Trazado 112778" d="M164,150.58a1.358,1.358,0,0,1-.21-.27,5.141,5.141,0,0,1-.38-.85,4.85,4.85,0,0,1,1.84-5.49,3.86,3.86,0,0,1,.81-.45c.21-.08.33-.11.33-.09a7.557,7.557,0,0,0-1,.68,5.27,5.27,0,0,0-1.69,2.38,6.124,6.124,0,0,0,.3,4.09Z" fill="#fff"/>
          <path id="Trazado_112779" data-name="Trazado 112779" d="M168.41,142.83c0,.07-.15.19-.39.27s-.46.09-.48,0,.16-.18.4-.26S168.39,142.77,168.41,142.83Z" fill="#fff"/>
        </g>
        <path id="Trazado_112780" data-name="Trazado 112780" d="M138.21,153.78l4.39,3.89h72.65l4.88-4.32Z" fill="#0b1d2a"/>
      </g>
      <g id="Grupo_89455" data-name="Grupo 89455">
        <path id="Trazado_112781" data-name="Trazado 112781" d="M30.06,141.52a2.7,2.7,0,0,1,.91-2.59,4.06,4.06,0,0,1,2.68-.92,4.44,4.44,0,0,1,2.41.66,3,3,0,0,1,.41,4.9,4.26,4.26,0,0,1-2.93,1.05,3.49,3.49,0,0,1-2.44-.91,3,3,0,0,1-1-2.19" fill="#d57271"/>
        <path id="Trazado_112782" data-name="Trazado 112782" d="M20.81,144.1c-3.62.63-7.2-3.41-8-6a.9.9,0,0,1,0-.83.92.92,0,0,1,.87-.2,8.47,8.47,0,0,1,7.16,7.06" fill="#30616f"/>
        <path id="Trazado_112783" data-name="Trazado 112783" d="M16.75,142.1a2.7,2.7,0,0,1,.91-2.6,4.06,4.06,0,0,1,2.67-.91,4.37,4.37,0,0,1,2.42.66,3,3,0,0,1,.41,4.89,4.28,4.28,0,0,1-2.93,1.05,3.52,3.52,0,0,1-2.45-.91,3,3,0,0,1-1-2.18" fill="#d57271"/>
        <path id="Trazado_112784" data-name="Trazado 112784" d="M35.45,143c0-1.88,1.36-4.18,2.47-5.7a9.31,9.31,0,0,1,4.5-3.29.59.59,0,0,1,.39,0,.57.57,0,0,1,.23.33A6.65,6.65,0,0,1,35.45,143" fill="#30616f"/>
        <path id="Trazado_112785" data-name="Trazado 112785" d="M48.67,139.82a17.26,17.26,0,0,0,1.93-2.65,6,6,0,0,0,.83-3.13.55.55,0,0,0-.17-.44.57.57,0,0,0-.46,0,10,10,0,0,0-7.83,8.7l-.11.54a7.71,7.71,0,0,0,5.72.88A11.9,11.9,0,0,0,53,142a6.42,6.42,0,0,0,2.71-3.81,8.57,8.57,0,0,0-7.04,1.63Z" fill="#30616f"/>
        <path id="Trazado_112786" data-name="Trazado 112786" d="M26.12,136.5a12.94,12.94,0,0,0-6.4-3.29,9.15,9.15,0,0,0,8,10.24l.14-.26a6.68,6.68,0,0,0-1.74-6.69Z" fill="#30616f"/>
        <path id="Trazado_112787" data-name="Trazado 112787" d="M13.53,141.8S17,159.39,26,164.8H48.09c3.29-1.34,5.43-7.53,6-8.68,1.69-3.35,4.7-14.3,4.7-14.3Z" fill="#0b1d2a"/>
        <path id="Trazado_112788" data-name="Trazado 112788" d="M56.26,144a2.932,2.932,0,0,1-.42,0l-1.21.06c-1.05.05-2.57.1-4.45.15-3.75.1-8.94.17-14.68.12s-10.92-.22-14.67-.39c-1.88-.08-3.4-.16-4.45-.23l-1.2-.09a2,2,0,0,1-.42,0,2.662,2.662,0,0,1,.42,0h1.21l4.44.13c3.76.11,8.94.24,14.68.3s10.91,0,14.67,0h5.66a1.39,1.39,0,0,1,.42-.05Z" fill="#30616f"/>
      </g>
      <g id="Grupo_89458" data-name="Grupo 89458">
        <g id="Grupo_89457" data-name="Grupo 89457">
          <path id="Trazado_112789" data-name="Trazado 112789" d="M102,186.23c-.22.05,1.39,8.14,1.39,8.14h4.12l1.83-7.82a13.08,13.08,0,0,0-7.34-.32Z" fill="#0b1d2a"/>
          <g id="Grupo_89456" data-name="Grupo 89456">
            <path id="Trazado_112790" data-name="Trazado 112790" d="M99.52,231.79s-6.07-17-5.22-21.6,2.67-5.59,4.13-7,2.67-2.67,3-4.13,0-7.28,0-7.28-1.1-1.7-.73-2.31,9.34,0,9.34,0a4.11,4.11,0,0,1-.72,2.06s-.25,6.8.12,7.53,5.94,6.92,6.79,10.08-3.35,22.69-3.35,22.69Z" fill="#f5f5f5"/>
            <path id="Trazado_112791" data-name="Trazado 112791" d="M99.52,231.79h13.4l-.08.07c.52-2.47,1.08-5.27,1.65-8.36s1.16-6.44,1.57-10c.1-.91.18-1.82.2-2.75a6.331,6.331,0,0,0-.08-1.38,7.16,7.16,0,0,0-.49-1.31,32.179,32.179,0,0,0-3.24-4.9c-.61-.8-1.25-1.6-1.89-2.4-.32-.4-.65-.8-1-1.22a2.241,2.241,0,0,1-.23-.34,1.67,1.67,0,0,1-.11-.41c0-.27-.05-.53-.07-.79-.09-2.11,0-4.23,0-6.39h0a4.318,4.318,0,0,0,.27-.48,3.73,3.73,0,0,0,.43-1.51l.13.13c-2-.13-4.08-.23-6.06-.26a17.5,17.5,0,0,0-2.91.11.82.82,0,0,0-.26.09.59.59,0,0,0-.06.26,2.25,2.25,0,0,0,.15.66,7,7,0,0,0,.63,1.25h0c.09,1.55.15,3.08.16,4.58a20.869,20.869,0,0,1-.09,2.24,4.32,4.32,0,0,1-.81,2.06,12.31,12.31,0,0,1-1.38,1.65c-.49.51-1,1-1.49,1.47a16.005,16.005,0,0,0-1.43,1.42,7.83,7.83,0,0,0-1.07,1.64,13.2,13.2,0,0,0-1.1,3.58,8.929,8.929,0,0,0,0,1.79,10.925,10.925,0,0,0,.21,1.72,59.652,59.652,0,0,0,1.36,6.17c1,3.72,1.94,6.64,2.58,8.65l.76,2.3c.08.25.15.45.19.59a1.361,1.361,0,0,1,.06.2.433.433,0,0,0-.08-.19l-.21-.59c-.19-.52-.46-1.29-.8-2.28-.67-2-1.64-4.92-2.66-8.64-.49-1.86-1-3.91-1.39-6.18-.09-.56-.17-1.14-.22-1.74a9.35,9.35,0,0,1,0-1.83,13.41,13.41,0,0,1,1.1-3.65,8.23,8.23,0,0,1,1.1-1.68,15.261,15.261,0,0,1,1.45-1.45c.5-.46,1-1,1.47-1.46a14.05,14.05,0,0,0,1.36-1.62,4.26,4.26,0,0,0,.76-2,20.131,20.131,0,0,0,.08-2.21c0-1.49-.07-3-.16-4.57v.07a8.811,8.811,0,0,1-.66-1.3,2.34,2.34,0,0,1-.16-.75.7.7,0,0,1,.11-.42.76.76,0,0,1,.41-.18,18.408,18.408,0,0,1,3-.12c2,0,4,.13,6.06.26h.13v.12a4.17,4.17,0,0,1-.45,1.63c-.09.18-.2.35-.3.51v-.07c-.07,2.15-.13,4.28,0,6.36a6.481,6.481,0,0,0,.07.77,1.13,1.13,0,0,0,.08.34,2.61,2.61,0,0,0,.2.3c.31.41.64.81,1,1.21.64.81,1.28,1.6,1.89,2.4a32.25,32.25,0,0,1,3.26,5,7.26,7.26,0,0,1,.51,1.37,6.911,6.911,0,0,1,.08,1.43,23.983,23.983,0,0,1-.21,2.77c-.42,3.62-1,7-1.6,10.06s-1.15,5.88-1.69,8.35v.07H99.48Z" fill="#0b1d2a"/>
          </g>
          <path id="Trazado_112792" data-name="Trazado 112792" d="M111.76,230a96.559,96.559,0,0,0,3-17.35,2.16,2.16,0,0,0-.45-1.88c-.62-.54-1.56-.25-2.35,0a14.09,14.09,0,0,1-7.12.37c-2.3-.47-4.58-1.52-6.9-1.14a2.22,2.22,0,0,0-1.52.8,2.74,2.74,0,0,0-.18,2,136.581,136.581,0,0,0,4.33,17.2Z" fill="#30616f"/>
        </g>
        <path id="Trazado_112793" data-name="Trazado 112793" d="M113.28,211.5a3.22,3.22,0,0,1-.43.47,10.347,10.347,0,0,1-1.38,1.11,12.3,12.3,0,0,1-11.16,1.4,10.58,10.58,0,0,1-1.6-.73,3.64,3.64,0,0,1-.55-.35c0-.05.81.44,2.21.91a12.73,12.73,0,0,0,11-1.38C112.61,212.13,113.25,211.46,113.28,211.5Z" fill="#0b1d2a"/>
      </g>
      <g id="Grupo_89459" data-name="Grupo 89459">
        <path id="Trazado_112794" data-name="Trazado 112794" d="M27.56,213c-1.87-1.23-2.12-4.11-1-6a6.38,6.38,0,0,1,5.73-2.86,10.82,10.82,0,0,1,6.13,2.49,8.78,8.78,0,0,1,2.66,3.09,4.44,4.44,0,0,1,0,4,5.52,5.52,0,0,1-4.3,2.37,11.81,11.81,0,0,1-9.25-3" fill="#d57271"/>
        <path id="Trazado_112795" data-name="Trazado 112795" d="M30.67,212a6.15,6.15,0,0,1-.51-2.65,6.08,6.08,0,0,1,.43-2.67c.07,0-.21,1.19-.18,2.66S30.74,212,30.67,212Z" fill="#0b1d2a"/>
        <path id="Trazado_112796" data-name="Trazado 112796" d="M33.37,212.34a20.82,20.82,0,0,1,.31-5.53,51.059,51.059,0,0,1-.31,5.53Z" fill="#0b1d2a"/>
        <path id="Trazado_112797" data-name="Trazado 112797" d="M36,212.64c-.07,0,.5-.91.85-2.12s.36-2.25.44-2.25A5.81,5.81,0,0,1,36,212.64Z" fill="#0b1d2a"/>
      </g>
      <g id="Grupo_89460" data-name="Grupo 89460">
        <path id="Trazado_112798" data-name="Trazado 112798" d="M39.93,203.72c-.31-2.21,1.68-4.31,3.88-4.73a6.39,6.39,0,0,1,5.94,2.41,10.85,10.85,0,0,1,2.19,6.24,8.78,8.78,0,0,1-.56,4,4.45,4.45,0,0,1-3,2.63,5.5,5.5,0,0,1-4.62-1.65,11.82,11.82,0,0,1-3.86-8.94" fill="#d57271"/>
        <path id="Trazado_112799" data-name="Trazado 112799" d="M42.76,205.37a6.19,6.19,0,0,1,1.66-2.14,6.08,6.08,0,0,1,2.29-1.45c0,.07-1,.64-2.12,1.64S42.83,205.41,42.76,205.37Z" fill="#0b1d2a"/>
        <path id="Trazado_112800" data-name="Trazado 112800" d="M44.28,207.64a12.081,12.081,0,0,1,2.06-1.86,11.73,11.73,0,0,1,2.29-1.56A20.358,20.358,0,0,1,46.5,206a20.494,20.494,0,0,1-2.22,1.64Z" fill="#0b1d2a"/>
        <path id="Trazado_112801" data-name="Trazado 112801" d="M45.81,209.82c0-.07,1-.22,2.15-.76s1.93-1.21,2-1.15a4.54,4.54,0,0,1-1.87,1.38A4.4,4.4,0,0,1,45.81,209.82Z" fill="#0b1d2a"/>
      </g>
      <path id="Trazado_112802" data-name="Trazado 112802" d="M24.8,211.08l8.29,14.55H55.85l8.09-14.41Z" fill="#0b1d2a"/>
      <g id="Grupo_89464" data-name="Grupo 89464">
        <g id="Grupo_89463" data-name="Grupo 89463">
          <path id="Trazado_112803" data-name="Trazado 112803" d="M99.48,103.4l-.67,11a18,18,0,0,1-2.77,8,9,9,0,0,1-.64.85A11.83,11.83,0,0,0,93,131v31.09c.32.06,16.85.1,17.2,0V131.21s.37-4.65-2.24-7.78a13.72,13.72,0,0,1-3.3-9c-.07-2.3-.42-11-.42-11Z" fill="#652827"/>
          <rect id="Rectángulo_35519" data-name="Rectángulo 35519" width="13.13" height="18.3" transform="translate(97.04 131.92)" fill="#ececec"/>
          <g id="Grupo_89462" data-name="Grupo 89462">
            <g id="Grupo_89461" data-name="Grupo 89461">
              <path id="Trazado_112804" data-name="Trazado 112804" d="M102.13,143.11h.35a1.5,1.5,0,0,1,.72.63,1.4,1.4,0,0,1,0,1.42,1.49,1.49,0,0,1-2.78-.42,1.39,1.39,0,0,1,.44-1.35,1.43,1.43,0,0,1,.87-.38.59.59,0,0,1,.35,0,2.912,2.912,0,0,1-.33.05,1.52,1.52,0,0,0-.77.42,1.24,1.24,0,0,0-.34,1.17,1.28,1.28,0,0,0,2.37.35,1.21,1.21,0,0,0,0-1.21,1.52,1.52,0,0,0-.6-.63C102.25,143.15,102.13,143.13,102.13,143.11Z" fill="#0b1d2a"/>
              <path id="Trazado_112805" data-name="Trazado 112805" d="M101.9,140.26a.64.64,0,0,1,.35.06,1.5,1.5,0,0,1,.72.63,1.4,1.4,0,0,1,0,1.41,1.49,1.49,0,0,1-2.79-.42,1.36,1.36,0,0,1,.44-1.34,1.45,1.45,0,0,1,.87-.39h.35a2.912,2.912,0,0,1-.33.05,1.45,1.45,0,0,0-.77.42,1.19,1.19,0,0,0-.33,1.16,1.36,1.36,0,0,0,1,1,1.38,1.38,0,0,0,1.31-.66,1.21,1.21,0,0,0,0-1.21,1.43,1.43,0,0,0-.6-.62q-.112-.041-.22-.09Z" fill="#0b1d2a"/>
              <path id="Trazado_112806" data-name="Trazado 112806" d="M104.45,141.41a.6.6,0,0,1,.34.06,1.46,1.46,0,0,1,.72.63,1.38,1.38,0,0,1,0,1.41,1.56,1.56,0,0,1-1.54.79,1.58,1.58,0,0,1-1.25-1.2,1.43,1.43,0,0,1,.44-1.35,1.52,1.52,0,0,1,.88-.39.58.58,0,0,1,.34,0,2.468,2.468,0,0,1-.33.05,1.43,1.43,0,0,0-.76.42A1.21,1.21,0,0,0,103,143a1.27,1.27,0,0,0,2.36.36,1.24,1.24,0,0,0,0-1.22,1.56,1.56,0,0,0-.61-.62C104.56,141.46,104.44,141.43,104.45,141.41Z" fill="#0b1d2a"/>
              <path id="Trazado_112807" data-name="Trazado 112807" d="M104.22,138.55h.34a1.47,1.47,0,0,1,.73.63,1.4,1.4,0,0,1,0,1.42,1.49,1.49,0,0,1-2.78-.42,1.39,1.39,0,0,1,.44-1.35,1.43,1.43,0,0,1,.87-.38.59.59,0,0,1,.35,0,3.419,3.419,0,0,1-.34.05,1.54,1.54,0,0,0-.76.42,1.24,1.24,0,0,0-.34,1.17,1.27,1.27,0,0,0,2.36.35,1.22,1.22,0,0,0,0-1.21,1.48,1.48,0,0,0-.61-.63C104.34,138.59,104.22,138.57,104.22,138.55Z" fill="#0b1d2a"/>
              <path id="Trazado_112808" data-name="Trazado 112808" d="M106.8,139.79a.64.64,0,0,1,.35.06,1.47,1.47,0,0,1,.72.62,1.4,1.4,0,0,1,0,1.42,1.49,1.49,0,0,1-2.78-.42,1.36,1.36,0,0,1,.44-1.34,1.45,1.45,0,0,1,.87-.39.7.7,0,0,1,.35,0,1.272,1.272,0,0,0-.33.06,1.45,1.45,0,0,0-.77.42,1.22,1.22,0,0,0-.34,1.16,1.37,1.37,0,0,0,1.06,1,1.35,1.35,0,0,0,1.3-.66,1.19,1.19,0,0,0,0-1.21,1.43,1.43,0,0,0-.6-.62Q106.933,139.847,106.8,139.79Z" fill="#0b1d2a"/>
              <path id="Trazado_112809" data-name="Trazado 112809" d="M101.62,137.41a1.756,1.756,0,0,1,.35.05,1.5,1.5,0,0,1,.72.63,1.4,1.4,0,0,1,0,1.42,1.49,1.49,0,0,1-2.78-.42,1.39,1.39,0,0,1,.44-1.35,1.52,1.52,0,0,1,.87-.39.63.63,0,0,1,.35.05,2.91,2.91,0,0,1-.33,0,1.52,1.52,0,0,0-.77.42,1.24,1.24,0,0,0-.34,1.17,1.27,1.27,0,0,0,2.36.35,1.19,1.19,0,0,0,0-1.21,1.52,1.52,0,0,0-.6-.63C101.74,137.45,101.62,137.43,101.62,137.41Z" fill="#0b1d2a"/>
              <path id="Trazado_112810" data-name="Trazado 112810" d="M104.67,138.62a2.14,2.14,0,0,0,.06-1.37c.22,0,.52,0,.58.2a.49.49,0,0,1,0,.24,2.87,2.87,0,0,1-.53,1" fill="#0b1d2a"/>
              <path id="Trazado_112811" data-name="Trazado 112811" d="M108.82,139.81a5.629,5.629,0,0,0-.38-1.13,1.37,1.37,0,0,0-1-.69,1,1,0,0,0-.68.12.55.55,0,0,0-.31.56c0,.21.31.25.48.12a.45.45,0,0,0,0-.56.72.72,0,0,0-.52-.28,1.19,1.19,0,0,0-.57.1c-.33.14-.6.31-.79.4a1.06,1.06,0,0,1-.3.13,1.935,1.935,0,0,1,.25-.22,8.789,8.789,0,0,1,.77-.48,1.45,1.45,0,0,1,.65-.14.93.93,0,0,1,.7.36.66.66,0,0,1-.07.88.6.6,0,0,1-.49.12.48.48,0,0,1-.39-.37.83.83,0,0,1,.43-.84,1.28,1.28,0,0,1,.85-.13,1.53,1.53,0,0,1,1.09.83,2.42,2.42,0,0,1,.25.89A.88.88,0,0,1,108.82,139.81Z" fill="#0b1d2a"/>
              <path id="Trazado_112812" data-name="Trazado 112812" d="M101.79,134.64a.923.923,0,0,0-.26.29,1.16,1.16,0,0,0-.09,1,1.71,1.71,0,0,0,1,1.09,1.21,1.21,0,0,0,.86,0,.76.76,0,0,0,.54-.64.54.54,0,0,0-.14-.38.55.55,0,0,0-.38-.11.64.64,0,0,0-.57.51,1.05,1.05,0,0,0,.12.76,2.06,2.06,0,0,0,.48.53,2.55,2.55,0,0,0,.92.51c.25,0,.33-.15.35-.13s0,.2-.35.22a.9.9,0,0,1-.47-.14,3.23,3.23,0,0,1-.55-.32,2,2,0,0,1-.56-.57,1.29,1.29,0,0,1-.17-.92.87.87,0,0,1,.77-.69.72.72,0,0,1,.57.17.69.69,0,0,1,.23.57,1,1,0,0,1-.71.86,1.48,1.48,0,0,1-1,0,1.9,1.9,0,0,1-1.1-1.26,1.25,1.25,0,0,1,.18-1.11C101.63,134.66,101.79,134.63,101.79,134.64Z" fill="#0b1d2a"/>
            </g>
            <path id="Trazado_112813" data-name="Trazado 112813" d="M107.93,138a3.91,3.91,0,0,1,.61.18,2.11,2.11,0,0,0,.7.08,1.08,1.08,0,0,0,.77-.37l.06.16-.79-.1-.41-.06.38-.16a1.3,1.3,0,0,0,.74-.8v-.13a.69.69,0,0,0-.23.11l-.61.34-.39.22.22-.39.07-.14a1.36,1.36,0,0,0,.09-.84.366.366,0,0,0-.14-.31c-.07-.03-.12,0-.22.12a2.54,2.54,0,0,0-.7,1.33v.16l-.13-.09-.66-.45.13-.09a2.13,2.13,0,0,0,.44,1.1c.17.23.3.33.28.35a1.14,1.14,0,0,1-.36-.29,2.09,2.09,0,0,1-.53-1.14v-.18l.16.1.68.43-.15.07a2.7,2.7,0,0,1,.73-1.47.8.8,0,0,1,.19-.16.32.32,0,0,1,.33,0,.71.71,0,0,1,.26.47,1.73,1.73,0,0,1-.11,1l-.09.16L109,137l.61-.34a.68.68,0,0,1,.39-.13.29.29,0,0,1,.22.18.46.46,0,0,1,0,.23,1.54,1.54,0,0,1-.89,1v-.21l.79.12h.18l-.11.13a1.24,1.24,0,0,1-.93.41,1.91,1.91,0,0,1-.74-.14,2.23,2.23,0,0,1-.59-.25Z" fill="#0b1d2a"/>
          </g>
          <path id="Trazado_112814" data-name="Trazado 112814" d="M100.14,103.4V97.84a9.57,9.57,0,0,1,3.38,0l.15,5.53Z" fill="#0b1d2a"/>
          <rect id="Rectángulo_35520" data-name="Rectángulo 35520" width="1.84" height="18.3" transform="translate(92.99 131.92)" fill="#ececec"/>
        </g>
        <path id="Trazado_112815" data-name="Trazado 112815" d="M99.48,103.4h4.73c.12,2.76.28,6.71.49,11.63a15.25,15.25,0,0,0,.69,3.79,12.68,12.68,0,0,0,1.9,3.71c.42.58.94,1.13,1.34,1.79a9,9,0,0,1,1,2.11,13.66,13.66,0,0,1,.64,4.81h0v30.99h-.09c-.56.05-1,0-1.55.05H104c-3.77,0-7.43,0-11-.07h-.1V130.58a14.93,14.93,0,0,1,.25-2.43,11.05,11.05,0,0,1,1.66-4.29c.43-.62.91-1.14,1.3-1.73a15.76,15.76,0,0,0,1-1.78,17.789,17.789,0,0,0,1.22-3.6,17.37,17.37,0,0,0,.49-3.36c.14-2.12.26-3.94.35-5.42s.18-2.61.23-3.4a4.746,4.746,0,0,1,.06-.87v.9c0,.79-.1,1.93-.18,3.41s-.18,3.29-.3,5.4a19.62,19.62,0,0,1-1.69,7,14.77,14.77,0,0,1-1,1.81c-.39.59-.88,1.14-1.29,1.73a11,11,0,0,0-1.62,4.22,15.871,15.871,0,0,0-.23,2.41v31.5L93,162v-.06h17.14v.08h-.12V131.2h0a13.47,13.47,0,0,0-.61-4.73,8.85,8.85,0,0,0-1-2.07c-.38-.64-.9-1.18-1.32-1.78a12.81,12.81,0,0,1-1.92-3.77,15.07,15.07,0,0,1-.68-3.83c-.18-4.92-.32-8.87-.42-11.63H99.48Z" fill="#0b1d2a"/>
      </g>
      <g id="Grupo_89471" data-name="Grupo 89471">
        <g id="Grupo_89465" data-name="Grupo 89465">
          <path id="Trazado_112816" data-name="Trazado 112816" d="M189.47,66.46l-.21-.09a29.2,29.2,0,0,0-7.06-2.32,15.41,15.41,0,0,0-7,.66,44.335,44.335,0,0,0-4.29,1.84h0a42.278,42.278,0,0,0-4.2-2.06,15.3,15.3,0,0,0-7-1,29.451,29.451,0,0,0-7.18,2l-.21.08A18,18,0,0,0,160,69.12a13.511,13.511,0,0,0,2.2.18,13.73,13.73,0,0,0-3.21,3,19.54,19.54,0,0,0-3.42,9.53l.25-.08a30.47,30.47,0,0,0,7.89-3.59,13.869,13.869,0,0,0,2-1.68,5,5,0,0,0,.07,1,35.84,35.84,0,0,0,4.86,14.79c1.2-3.07,3.75-9.35,4.26-13.57.08-.63.13-1.26.17-1.89a13.36,13.36,0,0,0,1.49,1.33,19.44,19.44,0,0,0,9.53,3.42.809.809,0,0,0-.08-.25,30.471,30.471,0,0,0-3.59-7.89,14.16,14.16,0,0,0-3.86-3.7,13.32,13.32,0,0,0,3,0,18,18,0,0,0,7.91-3.26Z" fill="#ca4f4e"/>
          <path id="Trazado_112817" data-name="Trazado 112817" d="M172,56.94c-.15,0-.73,5.33-1.3,11.93s-.9,12-.75,12,.73-5.33,1.29-11.93S172.1,57,172,56.94Z" fill="#0b1d2a"/>
          <path id="Trazado_112818" data-name="Trazado 112818" d="M170.83,69.59a6.3,6.3,0,0,0-2.23,1.22c-1.14.79-2,1.54-1.91,1.66a6.12,6.12,0,0,0,2.22-1.22C170.05,70.46,170.91,69.72,170.83,69.59Z" fill="#0b1d2a"/>
          <path id="Trazado_112819" data-name="Trazado 112819" d="M170.39,72.12c-.08.13.56.66,1.32,1.32s1.35,1.24,1.47,1.14-.32-.84-1.12-1.54S170.47,72,170.39,72.12Z" fill="#0b1d2a"/>
        </g>
        <g id="Grupo_89466" data-name="Grupo 89466">
          <path id="Trazado_112820" data-name="Trazado 112820" d="M111.28,61.52l-.16-.12a26.1,26.1,0,0,0-5.51-3.68,13.77,13.77,0,0,0-6.21-1.1,38.361,38.361,0,0,0-4.12.55h0a37.06,37.06,0,0,0-3.12-2.76,13.78,13.78,0,0,0-5.76-2.56,26.17,26.17,0,0,0-6.62,0h-.2a16,16,0,0,0,5.79,5,12.16,12.16,0,0,0,1.86.68,12,12,0,0,0-3.48,1.82,17.44,17.44,0,0,0-5.2,7.37h.24a26.88,26.88,0,0,0,7.62-1.21,12,12,0,0,0,2.08-1c-.06.28-.11.56-.16.84A31.9,31.9,0,0,0,89,79.18c1.76-2.35,5.45-7.13,6.89-10.64.21-.52.41-1.05.59-1.58a12.391,12.391,0,0,0,1,1.5,17.32,17.32,0,0,0,7.37,5.2,1.93,1.93,0,0,1,0-.24,27,27,0,0,0-1.21-7.63,12.78,12.78,0,0,0-2.44-4.09,12.09,12.09,0,0,0,2.55.71,16.19,16.19,0,0,0,7.53-.89Z" fill="#ca4f4e"/>
          <path id="Trazado_112821" data-name="Trazado 112821" d="M98.5,49.18c-.13,0-1.9,4.4-4,9.94A104.76,104.76,0,0,0,91,69.23c.12.05,1.89-4.4,4-9.94A102.569,102.569,0,0,0,98.5,49.18Z" fill="#0b1d2a"/>
          <path id="Trazado_112822" data-name="Trazado 112822" d="M94.53,59.78a9.732,9.732,0,0,0-4.2,1.52,5.31,5.31,0,0,0,2.2-.51,5.41,5.41,0,0,0,2-1.01Z" fill="#0b1d2a"/>
          <path id="Trazado_112823" data-name="Trazado 112823" d="M93.55,61.85c-.1.09.33.69.82,1.45s.87,1.38,1,1.33-.07-.81-.59-1.6S93.65,61.76,93.55,61.85Z" fill="#0b1d2a"/>
        </g>
        <g id="Grupo_89467" data-name="Grupo 89467">
          <path id="Trazado_112824" data-name="Trazado 112824" d="M49.84,44l-.11-.17a26.29,26.29,0,0,0-4-5.26,13.74,13.74,0,0,0-5.52-3,39.66,39.66,0,0,0-4.08-.81h0a39.843,39.843,0,0,0-2.05-3.63,13.79,13.79,0,0,0-4.63-4.27,26.37,26.37,0,0,0-6.26-2.18L23,24.62a16.15,16.15,0,0,0,3.87,6.59,13.26,13.26,0,0,0,1.54,1.24,12.06,12.06,0,0,0-3.88.6,17.38,17.38,0,0,0-7.3,5.29l.22.06A27.25,27.25,0,0,0,25,39.73a12.24,12.24,0,0,0,2.28-.25c-.14.24-.29.49-.42.74A31.86,31.86,0,0,0,23,53.54c2.42-1.65,7.46-5,9.95-7.84.37-.43.73-.86,1.08-1.3a13.2,13.2,0,0,0,.42,1.73,17.41,17.41,0,0,0,5.3,7.3l.06-.23a26.83,26.83,0,0,0,1.33-7.61,12.58,12.58,0,0,0-1-4.66,11.52,11.52,0,0,0,2.18,1.49A16,16,0,0,0,49.84,44Z" fill="#ca4f4e"/>
          <path id="Trazado_112825" data-name="Trazado 112825" d="M41.73,28.22c-.1-.08-3.21,3.56-6.95,8.14s-6.68,8.35-6.58,8.43,3.22-3.55,7-8.13A97.768,97.768,0,0,0,41.73,28.22Z" fill="#0b1d2a"/>
          <path id="Trazado_112826" data-name="Trazado 112826" d="M34.55,37a5.55,5.55,0,0,0-2.25-.22,5.54,5.54,0,0,0-2.25.26,5.58,5.58,0,0,0,2.25.22A5.35,5.35,0,0,0,34.55,37Z" fill="#0b1d2a"/>
          <path id="Trazado_112827" data-name="Trazado 112827" d="M33,38.62c-.13.05.08.76.3,1.63s.38,1.59.51,1.58.19-.78-.05-1.7A2.788,2.788,0,0,0,33,38.62Z" fill="#0b1d2a"/>
        </g>
        <g id="Grupo_89468" data-name="Grupo 89468">
          <path id="Trazado_112828" data-name="Trazado 112828" d="M211.58,78.41s-15.34-4-10.33-20.06C201.25,58.35,216.78,64.09,211.58,78.41Z" fill="#30616f"/>
          <path id="Trazado_112829" data-name="Trazado 112829" d="M199.19,53.8a91.414,91.414,0,0,0,4.36,9.2,91.938,91.938,0,0,0,4.85,8.93,97.057,97.057,0,0,0-4.4-9.2,91.944,91.944,0,0,0-4.81-8.93Z" fill="#0b1d2a"/>
          <path id="Trazado_112830" data-name="Trazado 112830" d="M209.56,68.53c.06-.14-.71-.64-1.72-1.11s-1.89-.75-2-.61.71.63,1.72,1.11S209.49,68.67,209.56,68.53Z" fill="#0b1d2a"/>
          <path id="Trazado_112831" data-name="Trazado 112831" d="M203.47,62c-.16,0-.47.9-.7,2.09a4.56,4.56,0,0,0-.15,2.19c.16,0,.47-.9.7-2.09a4.56,4.56,0,0,0,.15-2.19Z" fill="#0b1d2a"/>
        </g>
        <g id="Grupo_89469" data-name="Grupo 89469">
          <path id="Trazado_112832" data-name="Trazado 112832" d="M124.37,81.3S119.72,66.16,136,62C136,62,139.3,78.22,124.37,81.3Z" fill="#30616f"/>
          <path id="Trazado_112833" data-name="Trazado 112833" d="M138.82,57.85a96,96,0,0,0-5.53,8.52,94.786,94.786,0,0,0-5.06,8.82,94,94,0,0,0,5.54-8.53A89.837,89.837,0,0,0,138.82,57.85Z" fill="#0b1d2a"/>
          <path id="Trazado_112834" data-name="Trazado 112834" d="M131.73,74.4c.15,0,.17-.93,0-2.05s-.35-2-.5-2-.18.93-.05,2S131.57,74.42,131.73,74.4Z" fill="#0b1d2a"/>
          <path id="Trazado_112835" data-name="Trazado 112835" d="M134.06,65.81c-.06-.15-1,.08-2.15.5a4.772,4.772,0,0,0-1.94,1,4.52,4.52,0,0,0,2.14-.51C133.24,66.41,134.11,66,134.06,65.81Z" fill="#0b1d2a"/>
        </g>
        <g id="Grupo_89470" data-name="Grupo 89470">
          <path id="Trazado_112836" data-name="Trazado 112836" d="M54.27,63.05S49.62,47.91,65.93,43.73C65.93,43.73,69.2,60,54.27,63.05Z" fill="#30616f"/>
          <path id="Trazado_112837" data-name="Trazado 112837" d="M68.73,39.6a90.47,90.47,0,0,0-5.54,8.52,90.608,90.608,0,0,0-5,8.82,95.322,95.322,0,0,0,5.53-8.53,95.458,95.458,0,0,0,5.01-8.81Z" fill="#0b1d2a"/>
          <path id="Trazado_112838" data-name="Trazado 112838" d="M61.63,56.15c.15,0,.17-.94,0-2s-.35-2-.5-2-.18.93-.05,2S61.47,56.17,61.63,56.15Z" fill="#0b1d2a"/>
          <path id="Trazado_112839" data-name="Trazado 112839" d="M64,47.56c-.06-.15-1,.08-2.14.5a5.929,5.929,0,0,0-2,1A4.67,4.67,0,0,0,62,48.58,5.413,5.413,0,0,0,64,47.56Z" fill="#0b1d2a"/>
        </g>
        <path id="Trazado_112840" data-name="Trazado 112840" d="M3,5.58,3.53,6,5.05,7.1,7.51,9c.48.37,1,.76,1.56,1.19s1.18.84,1.83,1.3l4.3,3.06c1.58,1.09,3.34,2.23,5.21,3.48s3.93,2.5,6.09,3.85,4.5,2.69,7,4.11,5.08,2.79,7.8,4.27c1.35.75,2.78,1.42,4.21,2.15s2.9,1.45,4.4,2.17l4.62,2.12c.78.35,1.56.73,2.36,1.08l2.44,1c1.63.69,3.28,1.41,5,2.09l5.17,2c1.73.7,3.53,1.29,5.34,1.94s3.62,1.31,5.5,1.89l5.65,1.81,5.82,1.67c7.85,2.18,16.07,4.09,24.58,5.63s16.89,2.55,25,3.23l6,.45,5.94.26c2,.11,3.9.1,5.81.13s3.81.08,5.69,0l5.54-.09c1.82-.06,3.62-.16,5.39-.24l2.64-.12c.87-.05,1.73-.13,2.59-.19l5.07-.4c1.65-.15,3.28-.34,4.88-.51s3.16-.31,4.69-.55c3.06-.45,6-.78,8.79-1.3s5.46-.91,8-1.45,4.87-1,7-1.51,4.23-1,6.09-1.46l5.09-1.38c.77-.21,1.49-.39,2.16-.59l1.89-.58,2.95-.89,1.82-.55.62-.17-.61.21-1.81.57-2.94.93-1.88.59c-.67.21-1.4.39-2.16.61l-5.08,1.41c-1.87.49-3.91,1-6.1,1.49s-4.55,1-7,1.53-5.16,1-8,1.48-5.73.87-8.79,1.32c-1.53.24-3.11.38-4.7.56s-3.23.37-4.89.53l-5.07.4-2.59.2-2.64.12c-1.78.08-3.58.19-5.4.25l-5.55.09c-1.88.06-3.77,0-5.69,0s-3.86,0-5.82-.13l-5.95-.26-6-.44c-8.13-.68-16.52-1.73-25-3.23s-16.74-3.46-24.6-5.64l-5.82-1.68L80.16,47c-1.88-.58-3.7-1.26-5.51-1.89s-3.61-1.25-5.34-2l-5.18-2c-1.69-.68-3.34-1.41-5-2.1l-2.44-1c-.8-.35-1.58-.73-2.36-1.08L49.71,34.8c-1.5-.72-3-1.47-4.4-2.19s-2.86-1.4-4.22-2.15c-2.71-1.49-5.36-2.83-7.79-4.29s-4.8-2.76-6.95-4.14-4.23-2.59-6.08-3.88-3.62-2.4-5.2-3.51l-4.28-3.08c-.64-.46-1.25-.89-1.82-1.32L7.45,9.05,5,7.16,3.51,6C3.17,5.73,3,5.58,3,5.58Z" fill="#0b1d2a"/>
      </g>
      <g id="Grupo_89473" data-name="Grupo 89473">
        <g id="Grupo_89472" data-name="Grupo 89472">
          <path id="Trazado_112841" data-name="Trazado 112841" d="M158.94,185h44.7a13,13,0,0,1,13,13v17.91a13,13,0,0,1-13,13h-44.7a12,12,0,0,1-12-12V197a12,12,0,0,1,12-12Z" transform="translate(17.26 -13.97) rotate(4.62)" fill="#f4dcdc"/>
          <path id="Trazado_112842" data-name="Trazado 112842" d="M206.14,202.85s-9.55-.66-21.32-1.58-21.32-1.7-21.31-1.75,9.55.65,21.32,1.57S206.14,202.8,206.14,202.85Z" fill="#fff"/>
        </g>
        <path id="Trazado_112843" data-name="Trazado 112843" d="M165.16,187.52s-2.14-.15-4.77-.46-4.76-.59-4.75-.64,2.14.16,4.77.46S165.17,187.47,165.16,187.52Z" fill="#fff"/>
      </g>
      <g id="Grupo_89480" data-name="Grupo 89480">
        <g id="Grupo_89474" data-name="Grupo 89474">
          <path id="Trazado_112844" data-name="Trazado 112844" d="M201.54,199.49h0a7.71,7.71,0,0,0-1.92-.63,4.33,4.33,0,0,0-1.92.17c-.39.13-.54.24-1.16.5h0c-.61-.3-.75-.41-1.14-.56a4.3,4.3,0,0,0-1.9-.28,8.07,8.07,0,0,0-1.95.53h-.06a4.86,4.86,0,0,0,2.11,1,3,3,0,0,0,.6,0,3.581,3.581,0,0,0-.87.82,5.26,5.26,0,0,0-.93,2.59h.07a8.31,8.31,0,0,0,2.14-1,3.889,3.889,0,0,0,.53-.46,2.105,2.105,0,0,0,0,.26,9.69,9.69,0,0,0,1.32,4,18.641,18.641,0,0,0,1.16-3.69q0-.255,0-.51a3.519,3.519,0,0,0,.41.36,5.26,5.26,0,0,0,2.58.93v-.07a8.161,8.161,0,0,0-1-2.14,3.84,3.84,0,0,0-1-1,3.57,3.57,0,0,0,.8,0,5,5,0,0,0,2.13-.82Z" fill="#ca4f4e"/>
          <path id="Trazado_112845" data-name="Trazado 112845" d="M196.78,196.9s-.19,1.45-.35,3.24a32.634,32.634,0,0,0-.2,3.26c.04.01.19-1.45.35-3.24A32.634,32.634,0,0,0,196.78,196.9Z" fill="#0b1d2a"/>
          <path id="Trazado_112846" data-name="Trazado 112846" d="M196.48,200.34a1.66,1.66,0,0,0-.6.33c-.31.22-.55.42-.52.45a1.66,1.66,0,0,0,.6-.33,1.68,1.68,0,0,0,.52-.45Z" fill="#0b1d2a"/>
          <path id="Trazado_112847" data-name="Trazado 112847" d="M196.36,201a5.051,5.051,0,0,0,.36.36c.21.19.37.33.4.31s-.09-.23-.3-.42A1.054,1.054,0,0,0,196.36,201Z" fill="#0b1d2a"/>
        </g>
        <g id="Grupo_89475" data-name="Grupo 89475">
          <path id="Trazado_112848" data-name="Trazado 112848" d="M180.31,198.15h0a7,7,0,0,0-1.5-1,3.69,3.69,0,0,0-1.68-.3A10.361,10.361,0,0,0,176,197h0c-.46-.4-.55-.54-.85-.75a3.73,3.73,0,0,0-1.56-.7,7.23,7.23,0,0,0-1.8,0h-.06a4.31,4.31,0,0,0,1.58,1.35,2.3,2.3,0,0,0,.5.18,3.27,3.27,0,0,0-.94.5,4.73,4.73,0,0,0-1.42,2h.07a7.41,7.41,0,0,0,2.07-.33,2.628,2.628,0,0,0,.56-.27c0,.08,0,.16,0,.23a8.57,8.57,0,0,0,.18,3.76,16.59,16.59,0,0,0,1.87-2.89l.16-.42a2.482,2.482,0,0,0,.26.4,4.63,4.63,0,0,0,2,1.41v-.06a7.41,7.41,0,0,0-.33-2.07,3.37,3.37,0,0,0-.66-1.11,3.2,3.2,0,0,0,.69.19A4.48,4.48,0,0,0,180.31,198.15Z" fill="#ca4f4e"/>
          <path id="Trazado_112849" data-name="Trazado 112849" d="M176.84,194.8s-.51,1.19-1.07,2.7-1,2.73-1,2.74.51-1.19,1.07-2.7S176.87,194.81,176.84,194.8Z" fill="#0b1d2a"/>
          <path id="Trazado_112850" data-name="Trazado 112850" d="M175.76,197.68a1.658,1.658,0,0,0-.6.14c-.32.14-.56.22-.55.26a1.62,1.62,0,0,0,.6-.14A1.51,1.51,0,0,0,175.76,197.68Z" fill="#0b1d2a"/>
          <path id="Trazado_112851" data-name="Trazado 112851" d="M175.5,198.24a3.759,3.759,0,0,0,.22.39c.13.2.24.38.27.36s0-.22-.16-.43S175.52,198.21,175.5,198.24Z" fill="#0b1d2a"/>
        </g>
        <g id="Grupo_89476" data-name="Grupo 89476">
          <path id="Trazado_112852" data-name="Trazado 112852" d="M163.63,193.4v-.05a7.37,7.37,0,0,0-1.1-1.42,3.65,3.65,0,0,0-1.49-.83c-.36-.11-.52-.1-1.11-.22h0c-.3-.53-.35-.68-.56-1a3.68,3.68,0,0,0-1.26-1.16,7.43,7.43,0,0,0-1.7-.59h0a4.45,4.45,0,0,0,1,1.79,3.389,3.389,0,0,0,.42.33,3.35,3.35,0,0,0-1.05.17,4.74,4.74,0,0,0-2,1.43h.07a7.08,7.08,0,0,0,2.06.36,3.18,3.18,0,0,0,.62-.07l-.11.2a8.63,8.63,0,0,0-1.05,3.62,16,16,0,0,0,2.7-2.13c.1-.11.2-.23.29-.35a4.05,4.05,0,0,0,.12.47,4.66,4.66,0,0,0,1.44,2v-.06a7.21,7.21,0,0,0,.36-2.07,3.38,3.38,0,0,0-.26-1.26,3.4,3.4,0,0,0,.59.4,4.26,4.26,0,0,0,2.02.44Z" fill="#ca4f4e"/>
          <path id="Trazado_112853" data-name="Trazado 112853" d="M161.43,189.11a26.8,26.8,0,0,0-1.89,2.21,28.478,28.478,0,0,0-1.79,2.29s.88-1,1.89-2.21S161.45,189.13,161.43,189.11Z" fill="#0b1d2a"/>
          <path id="Trazado_112854" data-name="Trazado 112854" d="M159.48,191.48a1.79,1.79,0,0,0-.62-.06,1.77,1.77,0,0,0-.6.07,1.28,1.28,0,0,0,.61.06,1.39,1.39,0,0,0,.61-.07Z" fill="#0b1d2a"/>
          <path id="Trazado_112855" data-name="Trazado 112855" d="M159,191.93a1.345,1.345,0,0,0,.09.44,1.4,1.4,0,0,0,.13.43,1,1,0,0,0,0-.46C159.16,192.09,159.08,191.91,159,191.93Z" fill="#0b1d2a"/>
        </g>
        <g id="Grupo_89477" data-name="Grupo 89477">
          <path id="Trazado_112856" data-name="Trazado 112856" d="M207.54,202.73a4.06,4.06,0,0,1-2.8-5.44S209,198.84,207.54,202.73Z" fill="#30616f"/>
          <path id="Trazado_112857" data-name="Trazado 112857" d="M204.18,196.05a24,24,0,0,0,1.18,2.5,24.654,24.654,0,0,0,1.32,2.42,24.443,24.443,0,0,0-1.18-2.49A24.172,24.172,0,0,0,204.18,196.05Z" fill="#0b1d2a"/>
          <path id="Trazado_112858" data-name="Trazado 112858" d="M207,200.05a2.448,2.448,0,0,0-.47-.3,1.21,1.21,0,0,0-.53-.17,1.944,1.944,0,0,0,.47.31C206.75,200.02,207,200.09,207,200.05Z" fill="#0b1d2a"/>
          <path id="Trazado_112859" data-name="Trazado 112859" d="M205.34,198.29a2.627,2.627,0,0,0-.19.57,1.26,1.26,0,0,0,0,.59,2.114,2.114,0,0,0,.19-.57,1.26,1.26,0,0,0,0-.59Z" fill="#0b1d2a"/>
        </g>
        <g id="Grupo_89478" data-name="Grupo 89478">
          <path id="Trazado_112860" data-name="Trazado 112860" d="M183.87,203.52a4.07,4.07,0,0,1,3.16-5.25S187.92,202.68,183.87,203.52Z" fill="#30616f"/>
          <path id="Trazado_112861" data-name="Trazado 112861" d="M187.79,197.15a24.352,24.352,0,0,0-1.5,2.32,26.74,26.74,0,0,0-1.38,2.39,23.919,23.919,0,0,0,1.51-2.32,25.1,25.1,0,0,0,1.37-2.39Z" fill="#0b1d2a"/>
          <path id="Trazado_112862" data-name="Trazado 112862" d="M185.86,201.65a1.07,1.07,0,0,0,0-.56,1.11,1.11,0,0,0-.13-.54,1.743,1.743,0,0,0,0,.56A1.19,1.19,0,0,0,185.86,201.65Z" fill="#0b1d2a"/>
          <path id="Trazado_112863" data-name="Trazado 112863" d="M186.49,199.31a1.559,1.559,0,0,0-.58.14c-.31.14-.54.24-.52.28s.27,0,.58-.14S186.51,199.35,186.49,199.31Z" fill="#0b1d2a"/>
        </g>
        <g id="Grupo_89479" data-name="Grupo 89479">
          <path id="Trazado_112864" data-name="Trazado 112864" d="M164.83,198.56a4.07,4.07,0,0,1,3.17-5.24S168.89,197.73,164.83,198.56Z" fill="#30616f"/>
          <path id="Trazado_112865" data-name="Trazado 112865" d="M168.76,192.2a23,23,0,0,0-1.51,2.31,25.1,25.1,0,0,0-1.37,2.39,22,22,0,0,0,1.5-2.31,26.741,26.741,0,0,0,1.38-2.39Z" fill="#0b1d2a"/>
          <path id="Trazado_112866" data-name="Trazado 112866" d="M166.83,196.69v-.56a1.06,1.06,0,0,0-.14-.54,2.208,2.208,0,0,0,.14,1.1Z" fill="#0b1d2a"/>
          <path id="Trazado_112867" data-name="Trazado 112867" d="M167.46,194.36a1.662,1.662,0,0,0-.58.13c-.31.13-.54.24-.53.28s.28,0,.58-.13S167.48,194.4,167.46,194.36Z" fill="#0b1d2a"/>
        </g>
        <path id="Trazado_112868" data-name="Trazado 112868" d="M150.91,183l.14.1.42.31.66.51.43.32.49.36,1.17.83,1.42.94a17.166,17.166,0,0,0,1.65,1c.59.32,1.22.73,1.89,1.11s1.38.76,2.11,1.16c.37.21.76.39,1.15.58l1.19.59,1.26.58.64.29.66.28,1.35.57,1.4.54c.48.19,1,.36,1.45.53s1,.36,1.5.51l1.53.5,1.58.45c2.13.59,4.37,1.11,6.68,1.53s4.58.69,6.79.88l1.64.12,1.61.07h4.62l1.47-.07h.71l.71-.05,1.37-.11,1.33-.14a8.814,8.814,0,0,0,1.27-.15c.83-.12,1.64-.21,2.39-.35s1.48-.25,2.16-.4,1.32-.26,1.91-.41,1.15-.26,1.66-.39l1.38-.38.59-.16.51-.15.8-.25.49-.14h.01l-.49.16-.8.25-.51.16-.59.17-1.38.38-1.66.41c-.59.15-1.23.27-1.91.41s-1.4.27-2.16.4-1.56.24-2.39.36c-.41.07-.84.1-1.27.15l-1.33.15-1.38.11h-1.42l-1.46.07h-4.64l-1.61-.07-1.64-.12c-2.21-.19-4.49-.47-6.8-.88s-4.55-.94-6.68-1.53l-1.58-.46-1.54-.49c-.51-.16-1-.34-1.5-.52s-1-.33-1.45-.53l-1.4-.54-1.35-.57-.66-.28-.65-.3-1.25-.58c-.41-.19-.8-.39-1.19-.59s-.78-.38-1.15-.58c-.74-.41-1.46-.77-2.11-1.17s-1.31-.75-1.89-1.12-1.15-.71-1.65-1.05-1-.66-1.41-1l-1.17-.83-.49-.36-.42-.33-.67-.51-.4-.32Z" fill="#0b1d2a"/>
      </g>
      <g id="Grupo_89481" data-name="Grupo 89481">
        <path id="Trazado_112869" data-name="Trazado 112869" d="M171.85,192h-.58l.36-4.36h.57Z" fill="#12263f"/>
        <path id="Trazado_112870" data-name="Trazado 112870" d="M173.6,188.89v.41a1.14,1.14,0,0,1,1-.39c.68.05,1,.47.94,1.24l-.17,2.14h-.56l.18-2.15a.82.82,0,0,0-.12-.53.68.68,0,0,0-.48-.21.78.78,0,0,0-.48.11.91.91,0,0,0-.35.35l-.19,2.31h-.55l.26-3.25Z" fill="#12263f"/>
        <path id="Trazado_112871" data-name="Trazado 112871" d="M177.34,191.7l1-2.43h.57l-1.43,3.16h-.42l-.91-3.34h.56Z" fill="#12263f"/>
        <path id="Trazado_112872" data-name="Trazado 112872" d="M179.51,188.5a.33.33,0,0,1,.11-.22.29.29,0,0,1,.25-.08.33.33,0,0,1,.24.12.3.3,0,0,1,.06.23.35.35,0,0,1-.1.22.38.38,0,0,1-.49,0A.37.37,0,0,1,179.51,188.5Zm.27,4.15h-.55l.26-3.25h.55Z" fill="#12263f"/>
        <path id="Trazado_112873" data-name="Trazado 112873" d="M181.75,188.75l-.06.79.6.05v.43l-.61-.05-.16,2a.45.45,0,0,0,.06.3.31.31,0,0,0,.26.12,1.3,1.3,0,0,0,.27,0v.44a1.56,1.56,0,0,1-.43,0,.69.69,0,0,1-.54-.27,1,1,0,0,1-.14-.65l.17-2h-.59v-.42h.59l.06-.78Z" fill="#12263f"/>
        <path id="Trazado_112874" data-name="Trazado 112874" d="M184.68,193.05a1.24,1.24,0,0,1-.05-.35,1.27,1.27,0,0,1-1,.33,1.15,1.15,0,0,1-.76-.34.85.85,0,0,1-.25-.71.9.9,0,0,1,.45-.76,1.84,1.84,0,0,1,1.1-.19h.54v-.25a.63.63,0,0,0-.13-.48.7.7,0,0,0-.5-.21.78.78,0,0,0-.51.11.44.44,0,0,0-.23.34h-.56a.75.75,0,0,1,.21-.46,1.17,1.17,0,0,1,.5-.32,1.58,1.58,0,0,1,.66-.08,1.28,1.28,0,0,1,.85.35,1,1,0,0,1,.27.8l-.12,1.5a1.78,1.78,0,0,0,.06.72h-.53Zm-.89-.5a1,1,0,0,0,.51-.1.78.78,0,0,0,.37-.32l.05-.66h-.43c-.68-.05-1,.12-1.07.51a.5.5,0,0,0,.14.43.74.74,0,0,0,.43.14Z" fill="#12263f"/>
        <path id="Trazado_112875" data-name="Trazado 112875" d="M187.35,192.87a.85.85,0,0,0,.54-.14.66.66,0,0,0,.28-.43h.52a1,1,0,0,1-.23.52,1.19,1.19,0,0,1-.51.36,1.37,1.37,0,0,1-.63.1,1.32,1.32,0,0,1-1-.53,1.75,1.75,0,0,1-.3-1.24v-.09a2.12,2.12,0,0,1,.24-.83,1.33,1.33,0,0,1,.55-.53,1.44,1.44,0,0,1,.78-.15,1.32,1.32,0,0,1,.88.4,1.17,1.17,0,0,1,.32.88h-.52a.76.76,0,0,0-.2-.53.74.74,0,0,0-.51-.25.79.79,0,0,0-.68.25,1.44,1.44,0,0,0-.31.86v.11a1.32,1.32,0,0,0,.16.88A.78.78,0,0,0,187.35,192.87Z" fill="#12263f"/>
        <path id="Trazado_112876" data-name="Trazado 112876" d="M189.57,189.31a.35.35,0,0,1,.1-.22.33.33,0,0,1,.25-.08.31.31,0,0,1,.24.12.358.358,0,0,1-.04.45.29.29,0,0,1-.25.07.31.31,0,0,1-.24-.11A.3.3,0,0,1,189.57,189.31Zm.27,4.15h-.56l.26-3.25.56.05Z" fill="#12263f"/>
        <path id="Trazado_112877" data-name="Trazado 112877" d="M190.71,191.87A1.89,1.89,0,0,1,191,191a1.31,1.31,0,0,1,.57-.55,1.51,1.51,0,0,1,1.81.4,1.78,1.78,0,0,1,.31,1.26h0a2,2,0,0,1-.25.83,1.44,1.44,0,0,1-.57.55,1.38,1.38,0,0,1-.79.14,1.34,1.34,0,0,1-1-.54,1.77,1.77,0,0,1-.31-1.25Zm.55.11a1.39,1.39,0,0,0,.18.89.86.86,0,0,0,1.35.1,1.51,1.51,0,0,0,.32-.91,1.37,1.37,0,0,0-.18-.88.82.82,0,0,0-.65-.39.81.81,0,0,0-.69.28,1.58,1.58,0,0,0-.33.93Zm1.41-2.92.68.05-.88.82h-.45Z" fill="#12263f"/>
        <path id="Trazado_112878" data-name="Trazado 112878" d="M195,190.62v.4a1.16,1.16,0,0,1,1-.38c.68.05,1,.47.94,1.24l-.17,2.14h-.56l.18-2.15a.76.76,0,0,0-.12-.53.68.68,0,0,0-.48-.21.78.78,0,0,0-.48.11.91.91,0,0,0-.35.35l-.19,2.31h-.55l.26-3.25Z" fill="#12263f"/>
      </g>
      <g id="Grupo_89484" data-name="Grupo 89484">
        <g id="Grupo_89483" data-name="Grupo 89483">
          <g id="Grupo_89482" data-name="Grupo 89482">
            <path id="Trazado_112879" data-name="Trazado 112879" d="M190.57,208.31a33.761,33.761,0,0,0-1.26-5.09,8.66,8.66,0,0,0-8.13,1.91s.49,8.8,5.88,8.64l2.29,8.81s-2.5,1.76-2.28,2.2l6.31-1.5c-.34-.65-3.07-.88-3.07-.88l-2.14-9S191.38,212.35,190.57,208.31Z" fill="#fff"/>
            <path id="Trazado_112880" data-name="Trazado 112880" d="M190.57,208.31a.391.391,0,0,1,0,.1v.3a3.109,3.109,0,0,1,.06.51,4.43,4.43,0,0,1-.53,2.55,4,4,0,0,1-2,1.66v-.06c.57,2.4,1.31,5.47,2.15,9l-.07-.06a15.224,15.224,0,0,1,1.59.23,8,8,0,0,1,.81.21,1.47,1.47,0,0,1,.74.48l.06.09h-.11l-6.31,1.51H187v-.06a.28.28,0,0,1,0-.26,1.178,1.178,0,0,1,.11-.19,2.548,2.548,0,0,1,.26-.3c.19-.2.4-.37.6-.55a16.32,16.32,0,0,1,1.32-1v.09l-.78-3c-.52-2-1-3.94-1.51-5.81l.09.06a4.23,4.23,0,0,1-2.92-1,6.94,6.94,0,0,1-1.75-2.41,13.77,13.77,0,0,1-.88-2.68,16.6,16.6,0,0,1-.4-2.63h0a9.3,9.3,0,0,1,2.07-1.44,9.08,9.08,0,0,1,2.22-.67,9.58,9.58,0,0,1,3.91.21h0c.28.79.44,1.52.6,2.15s.26,1.17.35,1.6l.2,1,.05.26a.441.441,0,0,1,0,.09v-.09l-.06-.26-.22-1c-.1-.43-.22-1-.38-1.6a21.893,21.893,0,0,0-.61-2.12h0a9.36,9.36,0,0,0-3.86-.18,8.6,8.6,0,0,0-2.17.67,8.28,8.28,0,0,0-2,1.42v-.06a17.459,17.459,0,0,0,.4,2.6,13.549,13.549,0,0,0,.89,2.65,6.84,6.84,0,0,0,1.7,2.35,4.19,4.19,0,0,0,2.8,1h.07v.07l1.52,5.81c.26,1,.53,2,.78,3v.06h0c-.45.32-.89.65-1.3,1a7.633,7.633,0,0,0-.59.53l-.25.29c-.07.09-.13.23-.11.26l-.1-.05,6.31-1.49-.06.12a1.23,1.23,0,0,0-.65-.4,5.279,5.279,0,0,0-.78-.21,14.875,14.875,0,0,0-1.57-.23h-.06v-.05c-.83-3.55-1.55-6.62-2.11-9h0a3.94,3.94,0,0,0,1.94-1.61,3.88,3.88,0,0,0,.55-1.81,4,4,0,0,0,0-.69,3.108,3.108,0,0,0,0-.5v-.31C190.57,208.34,190.56,208.31,190.57,208.31Z" fill="#0b1d2a"/>
          </g>
          <path id="Trazado_112881" data-name="Trazado 112881" d="M189.31,203.12a2.851,2.851,0,0,1-.26.22l-.33.22a4.421,4.421,0,0,1-.45.28,10.257,10.257,0,0,1-1.24.61,12.661,12.661,0,0,1-1.61.53,12.279,12.279,0,0,1-1.67.27,11.069,11.069,0,0,1-1.38,0,4,4,0,0,1-.53,0l-.4-.05-.34-.06a1.82,1.82,0,0,1,.35,0h.39a4.353,4.353,0,0,0,.53,0,11.3,11.3,0,0,0,1.37-.05,13.9,13.9,0,0,0,1.65-.28,15.708,15.708,0,0,0,1.59-.51,12.242,12.242,0,0,0,1.24-.59,3.77,3.77,0,0,0,.46-.26,3.082,3.082,0,0,0,.34-.2Z" fill="#0b1d2a"/>
        </g>
        <path id="Trazado_112882" data-name="Trazado 112882" d="M182.35,208.68a10.42,10.42,0,0,0,1.59,2.82,3.64,3.64,0,0,0,2.83,1.37,3.31,3.31,0,0,0,2.78-2.25,5.71,5.71,0,0,0,0-3.89.27.27,0,0,0-.27-.2,1.8,1.8,0,0,0-.8.08,3.818,3.818,0,0,0-.53.45,4.72,4.72,0,0,1-2.92.79,3.105,3.105,0,0,0-2.72.83" fill="#652827"/>
      </g>
      <g id="Grupo_89487" data-name="Grupo 89487">
        <g id="Grupo_89486" data-name="Grupo 89486">
          <g id="Grupo_89485" data-name="Grupo 89485">
            <path id="Trazado_112883" data-name="Trazado 112883" d="M178.34,211.17a34.679,34.679,0,0,0,2.84-4.4,8.67,8.67,0,0,0-7-4.6s-6.06,6.4-2.24,10.21l-4.82,7.72s-3-.6-3.17-.14l5.43,3.55c.24-.69-1.47-2.84-1.47-2.84l5.08-7.75S176,214.55,178.34,211.17Z" fill="#fff"/>
            <path id="Trazado_112884" data-name="Trazado 112884" d="M178.34,211.17l-.06.09-.18.25a3.269,3.269,0,0,1-.33.39,4.52,4.52,0,0,1-2.22,1.36A3.92,3.92,0,0,1,173,213h.07L168,220.72v-.1c.32.41.63.85.92,1.31a5.29,5.29,0,0,1,.4.74,1.4,1.4,0,0,1,.17.87v.11l-.1-.07L163.93,220h-.07v-.06a.35.35,0,0,1,.2-.17h.62a7.357,7.357,0,0,1,.81.06c.54.06,1.09.15,1.64.25l-.1.05,1.64-2.63,3.18-5.09v.11a4.35,4.35,0,0,1-1.27-2.82,7,7,0,0,1,.56-2.93,13.341,13.341,0,0,1,1.33-2.48,18.364,18.364,0,0,1,1.64-2.1h0a7.87,7.87,0,0,1,4.48,1.66,9.42,9.42,0,0,1,1.5,1.45,8.8,8.8,0,0,1,1,1.54h0a19.2,19.2,0,0,1-1.15,1.91c-.35.54-.66,1-.92,1.36l-.59.83-.16.22s-.05.07-.06.06v-.07l.14-.22.58-.85.9-1.37c.34-.55.75-1.18,1.12-1.91h0a9.39,9.39,0,0,0-2.52-2.93,7.74,7.74,0,0,0-4.41-1.61h.06a16.369,16.369,0,0,0-1.61,2.08,13.74,13.74,0,0,0-1.32,2.46,6.86,6.86,0,0,0-.54,2.85,4.15,4.15,0,0,0,1.23,2.7v.11l-3.17,5.09-1.65,2.63h-.06c-.54-.1-1.09-.19-1.62-.25a7.182,7.182,0,0,0-.79-.06h-.39c-.11,0-.25.06-.26.1v-.1l5.43,3.55h-.13a1.33,1.33,0,0,0-.16-.75,6,6,0,0,0-.38-.71c-.29-.46-.6-.89-.91-1.3h0v-.05c2-3,3.75-5.67,5.11-7.74h0a3.85,3.85,0,0,0,4.19-.54,3.411,3.411,0,0,0,.51-.47,4.766,4.766,0,0,0,.34-.38l.19-.24Z" fill="#0b1d2a"/>
          </g>
          <path id="Trazado_112885" data-name="Trazado 112885" d="M181.25,206.7a1.918,1.918,0,0,1-.34,0l-.39-.09a5.189,5.189,0,0,1-.52-.14,9.711,9.711,0,0,1-1.29-.48,10.67,10.67,0,0,1-2.84-1.83,12.6,12.6,0,0,1-1-1c-.13-.15-.24-.29-.33-.41a3.781,3.781,0,0,1-.24-.32,1.221,1.221,0,0,1-.18-.29l.22.26.25.31c.1.11.21.25.35.39a11.3,11.3,0,0,0,1,1,12.622,12.622,0,0,0,1.34,1,12.837,12.837,0,0,0,1.47.81,13.128,13.128,0,0,0,1.27.5c.18.07.36.11.5.15l.39.11Z" fill="#0b1d2a"/>
        </g>
        <path id="Trazado_112886" data-name="Trazado 112886" d="M172.43,205.47a10.29,10.29,0,0,0-1,3.09,3.63,3.63,0,0,0,1,3A3.32,3.32,0,0,0,176,212a5.81,5.81,0,0,0,2.85-2.64.28.28,0,0,0,0-.34,1.58,1.58,0,0,0-.6-.52,4,4,0,0,0-.69-.09,4.68,4.68,0,0,1-2.58-1.57c-.74-.72-1.21-1.41-2.47-1.4" fill="#652827"/>
      </g>
      <line id="Línea_161" data-name="Línea 161" y1="2.77" transform="translate(181.1 198.6)" fill="none" stroke="#12263f" stroke-miterlimit="10" stroke-width="0.75"/>
      <line id="Línea_162" data-name="Línea 162" x1="1.98" y1="2.39" transform="translate(175.94 198.98)" fill="none" stroke="#12263f" stroke-miterlimit="10" stroke-width="0.75"/>
      <line id="Línea_163" data-name="Línea 163" y1="1.85" x2="2.8" transform="translate(184.58 199.52)" fill="none" stroke="#12263f" stroke-miterlimit="10" stroke-width="0.75"/>
      <line id="Línea_164" data-name="Línea 164" x2="2.12" y2="0.65" transform="translate(186.13 203.56)" fill="none" stroke="#12263f" stroke-miterlimit="10" stroke-width="0.75"/>
      <line id="Línea_165" data-name="Línea 165" x1="3.63" y2="1.15" transform="translate(173.91 203.41)" fill="none" stroke="#12263f" stroke-miterlimit="10" stroke-width="0.75"/>
      <path id="Trazado_112887" data-name="Trazado 112887" d="M78.71,143h8v3.44h-8v9H75.06v-9h-8V143h8v-8.35h3.65Z" fill="#5591ba"/>
      <path id="Trazado_112888" data-name="Trazado 112888" d="M134.41,143h8v3.44h-8v9h-3.66v-9h-8V143h8v-8.35h3.66Z" fill="#5591ba"/>
      <path id="Trazado_112889" data-name="Trazado 112889" d="M78.71,208.39h8v3.44h-8v9H75.06v-9h-8v-3.44h8v-8.34h3.65Z" fill="#5591ba"/>
      <path id="Trazado_112890" data-name="Trazado 112890" d="M134.41,208.39h8v3.44h-8v9h-3.66v-9h-8v-3.44h8v-8.34h3.66Z" fill="#5591ba"/>
    </g>
  </g>
</svg>
