<svg xmlns="http://www.w3.org/2000/svg" width="273" height="293.388" viewBox="0 0 273 293.388">
  <g id="Grupo_91695" data-name="Grupo 91695" transform="translate(9826 8982.388)">
    <path id="Trazado_119945" data-name="Trazado 119945" d="M16,0H257a16,16,0,0,1,16,16V198a16,16,0,0,1-16,16H16A16,16,0,0,1,0,198V16A16,16,0,0,1,16,0Z" transform="translate(-9826 -8903)" fill="#3b4454"/>
    <g id="Grupo_91684" data-name="Grupo 91684" transform="translate(-9757.554 -8980.267)">
      <rect id="Rectángulo_33009" data-name="Rectángulo 33009" width="96.15" height="96.15" rx="13" transform="translate(0 67.988) rotate(-45)" fill="#fff" stroke="#3b4453" stroke-width="3"/>
    </g>
    <path id="Trazado_119948" data-name="Trazado 119948" d="M0,0H216V63H0Z" transform="translate(-9797 -8781)" fill="#fff"/>
    <path id="Trazado_119951" data-name="Trazado 119951" d="M6.727-3.023A1.127,1.127,0,0,0,6.3-3.961a5.292,5.292,0,0,0-1.5-.7,14.353,14.353,0,0,1-1.75-.7A3.314,3.314,0,0,1,.844-8.336,2.676,2.676,0,0,1,1.395-10a3.562,3.562,0,0,1,1.559-1.125,6.065,6.065,0,0,1,2.266-.4,5.305,5.305,0,0,1,2.2.438A3.482,3.482,0,0,1,8.93-9.848,3.254,3.254,0,0,1,9.469-8H6.734a1.375,1.375,0,0,0-.426-1.078,1.66,1.66,0,0,0-1.152-.383A1.872,1.872,0,0,0,4-9.137a1,1,0,0,0-.426.824,1,1,0,0,0,.469.793,5.911,5.911,0,0,0,1.648.734,10.1,10.1,0,0,1,1.938.816,3.256,3.256,0,0,1,1.844,2.93A2.778,2.778,0,0,1,8.344-.7,5,5,0,0,1,5.258.156a6.122,6.122,0,0,1-2.5-.5A3.775,3.775,0,0,1,1.066-1.7,3.542,3.542,0,0,1,.5-3.687H3.25A1.744,1.744,0,0,0,3.723-2.34a2.234,2.234,0,0,0,1.535.434A1.765,1.765,0,0,0,6.332-2.2.967.967,0,0,0,6.727-3.023ZM14.844.156A4.345,4.345,0,0,1,11.7-1a4.006,4.006,0,0,1-1.2-3.02v-.219a5.191,5.191,0,0,1,.48-2.289,3.516,3.516,0,0,1,1.4-1.535,4.233,4.233,0,0,1,2.188-.543A3.659,3.659,0,0,1,17.375-7.5a4.344,4.344,0,0,1,1.031,3.082V-3.4H13.172a1.9,1.9,0,0,0,.617,1.117,1.836,1.836,0,0,0,1.234.406,2.366,2.366,0,0,0,1.953-.875l1.2,1.422A3.363,3.363,0,0,1,16.785-.246,4.713,4.713,0,0,1,14.844.156Zm-.3-6.734q-1.156,0-1.375,1.531h2.656v-.2a1.3,1.3,0,0,0-.32-.98A1.275,1.275,0,0,0,14.547-6.578ZM26.227,0H23.586V-8.453h2.641Zm-2.8-10.641a1.186,1.186,0,0,1,.406-.927,1.527,1.527,0,0,1,1.055-.362,1.527,1.527,0,0,1,1.055.362,1.186,1.186,0,0,1,.406.927,1.186,1.186,0,0,1-.406.927,1.527,1.527,0,0,1-1.055.362,1.527,1.527,0,0,1-1.055-.362A1.186,1.186,0,0,1,23.43-10.641Zm6.836,2.188.086.992a2.867,2.867,0,0,1,2.414-1.148,2.412,2.412,0,0,1,1.973.789,3.757,3.757,0,0,1,.676,2.375V0H32.773V-5.336a1.426,1.426,0,0,0-.258-.941,1.193,1.193,0,0,0-.937-.3,1.256,1.256,0,0,0-1.148.609V0H27.8V-8.453ZM39.648,0H37.008V-8.453h2.641Zm-2.8-10.641a1.186,1.186,0,0,1,.406-.927,1.527,1.527,0,0,1,1.055-.362,1.527,1.527,0,0,1,1.055.362,1.186,1.186,0,0,1,.406.927,1.186,1.186,0,0,1-.406.927,1.527,1.527,0,0,1-1.055.362,1.527,1.527,0,0,1-1.055-.362A1.186,1.186,0,0,1,36.852-10.641Zm7.992,8.766a1.171,1.171,0,0,0,.859-.3,1.1,1.1,0,0,0,.3-.84h2.469a2.922,2.922,0,0,1-1,2.281,3.705,3.705,0,0,1-2.566.891A3.751,3.751,0,0,1,42-1a4.556,4.556,0,0,1-1.062-3.2v-.109a5.149,5.149,0,0,1,.473-2.262,3.441,3.441,0,0,1,1.363-1.508,4.065,4.065,0,0,1,2.109-.527A3.658,3.658,0,0,1,47.5-7.7a3.242,3.242,0,0,1,.969,2.477H46a1.445,1.445,0,0,0-.32-1.008,1.106,1.106,0,0,0-.859-.352q-1.023,0-1.2,1.3a9.206,9.206,0,0,0-.055,1.141,3.616,3.616,0,0,0,.3,1.766A1.055,1.055,0,0,0,44.844-1.875ZM52.359,0H49.719V-8.453h2.641Zm-2.8-10.641a1.186,1.186,0,0,1,.406-.927,1.527,1.527,0,0,1,1.055-.362,1.527,1.527,0,0,1,1.055.362,1.186,1.186,0,0,1,.406.927,1.186,1.186,0,0,1-.406.927,1.527,1.527,0,0,1-1.055.362,1.527,1.527,0,0,1-1.055-.362A1.186,1.186,0,0,1,49.563-10.641ZM58.742,0a2.973,2.973,0,0,1-.25-.758,2.448,2.448,0,0,1-2.031.914A3,3,0,0,1,54.43-.566a2.3,2.3,0,0,1-.836-1.816,2.364,2.364,0,0,1,1.016-2.078,5.174,5.174,0,0,1,2.953-.7h.813v-.448q0-1.17-1.008-1.17a.824.824,0,0,0-.937.926H53.8a2.36,2.36,0,0,1,1.043-1.99,4.383,4.383,0,0,1,2.66-.765,3.843,3.843,0,0,1,2.555.789,2.743,2.743,0,0,1,.961,2.164v3.742a3.832,3.832,0,0,0,.359,1.781V0ZM57.094-1.719a1.469,1.469,0,0,0,.816-.211,1.322,1.322,0,0,0,.465-.477V-3.758h-.766q-1.375,0-1.375,1.234a.754.754,0,0,0,.242.582A.876.876,0,0,0,57.094-1.719ZM70.547.156A4.345,4.345,0,0,1,67.4-1a4.006,4.006,0,0,1-1.2-3.02v-.219a5.191,5.191,0,0,1,.48-2.289,3.516,3.516,0,0,1,1.4-1.535,4.233,4.233,0,0,1,2.188-.543A3.659,3.659,0,0,1,73.078-7.5a4.344,4.344,0,0,1,1.031,3.082V-3.4H68.875a1.9,1.9,0,0,0,.617,1.117,1.836,1.836,0,0,0,1.234.406A2.366,2.366,0,0,0,72.68-2.75l1.2,1.422A3.363,3.363,0,0,1,72.488-.246,4.713,4.713,0,0,1,70.547.156Zm-.3-6.734q-1.156,0-1.375,1.531h2.656v-.2a1.3,1.3,0,0,0-.32-.98A1.275,1.275,0,0,0,70.25-6.578ZM77.945,0H75.3V-12h2.641Zm9.18-1.875a1.171,1.171,0,0,0,.859-.3,1.1,1.1,0,0,0,.3-.84H90.75a2.922,2.922,0,0,1-1,2.281,3.705,3.705,0,0,1-2.566.891A3.751,3.751,0,0,1,84.281-1a4.556,4.556,0,0,1-1.062-3.2v-.109a5.149,5.149,0,0,1,.473-2.262,3.441,3.441,0,0,1,1.363-1.508,4.065,4.065,0,0,1,2.109-.527,3.658,3.658,0,0,1,2.617.914,3.242,3.242,0,0,1,.969,2.477H88.281a1.445,1.445,0,0,0-.32-1.008,1.106,1.106,0,0,0-.859-.352q-1.023,0-1.2,1.3a9.206,9.206,0,0,0-.055,1.141,3.616,3.616,0,0,0,.3,1.766A1.055,1.055,0,0,0,87.125-1.875ZM94.641,0H92V-8.453h2.641Zm-2.8-10.641a1.186,1.186,0,0,1,.406-.927A1.527,1.527,0,0,1,93.3-11.93a1.527,1.527,0,0,1,1.055.362,1.186,1.186,0,0,1,.406.927,1.186,1.186,0,0,1-.406.927,1.527,1.527,0,0,1-1.055.362,1.527,1.527,0,0,1-1.055-.362A1.186,1.186,0,0,1,91.844-10.641Zm7.992,8.766a1.171,1.171,0,0,0,.859-.3,1.1,1.1,0,0,0,.3-.84h2.469a2.922,2.922,0,0,1-1,2.281A3.705,3.705,0,0,1,99.9.156,3.751,3.751,0,0,1,96.992-1,4.556,4.556,0,0,1,95.93-4.2v-.109A5.149,5.149,0,0,1,96.4-6.574a3.441,3.441,0,0,1,1.363-1.508,4.065,4.065,0,0,1,2.109-.527,3.658,3.658,0,0,1,2.617.914,3.242,3.242,0,0,1,.969,2.477h-2.469a1.445,1.445,0,0,0-.32-1.008,1.106,1.106,0,0,0-.859-.352q-1.023,0-1.2,1.3a9.206,9.206,0,0,0-.055,1.141,3.616,3.616,0,0,0,.3,1.766A1.055,1.055,0,0,0,99.836-1.875ZM107.352,0h-2.641V-12h2.641Zm1.289-4.3a4.989,4.989,0,0,1,.492-2.254,3.52,3.52,0,0,1,1.414-1.52,4.259,4.259,0,0,1,2.164-.531A3.887,3.887,0,0,1,115.7-7.434a4.512,4.512,0,0,1,1.094,3.2v.094A4.378,4.378,0,0,1,115.7-1a3.9,3.9,0,0,1-2.973,1.16,3.942,3.942,0,0,1-2.9-1.082,4.232,4.232,0,0,1-1.18-2.934Zm2.633.164a3.145,3.145,0,0,0,.367,1.719,1.223,1.223,0,0,0,1.086.547q1.406,0,1.438-2.164V-4.3q0-2.273-1.453-2.273-1.32,0-1.43,1.961Zm14.242,2.266a1.171,1.171,0,0,0,.859-.3,1.1,1.1,0,0,0,.3-.84h2.469a2.922,2.922,0,0,1-1,2.281,3.705,3.705,0,0,1-2.566.891A3.751,3.751,0,0,1,122.672-1a4.556,4.556,0,0,1-1.062-3.2v-.109a5.149,5.149,0,0,1,.473-2.262,3.441,3.441,0,0,1,1.363-1.508,4.065,4.065,0,0,1,2.109-.527,3.658,3.658,0,0,1,2.617.914,3.242,3.242,0,0,1,.969,2.477h-2.469a1.445,1.445,0,0,0-.32-1.008,1.106,1.106,0,0,0-.859-.352q-1.023,0-1.2,1.3a9.206,9.206,0,0,0-.055,1.141,3.616,3.616,0,0,0,.3,1.766A1.055,1.055,0,0,0,125.516-1.875Zm4.406-2.43a4.989,4.989,0,0,1,.492-2.254,3.52,3.52,0,0,1,1.414-1.52,4.259,4.259,0,0,1,2.164-.531,3.887,3.887,0,0,1,2.992,1.176,4.512,4.512,0,0,1,1.094,3.2v.094A4.378,4.378,0,0,1,136.98-1a3.9,3.9,0,0,1-2.973,1.16,3.942,3.942,0,0,1-2.9-1.082,4.232,4.232,0,0,1-1.18-2.934Zm2.633.164a3.145,3.145,0,0,0,.367,1.719,1.223,1.223,0,0,0,1.086.547q1.406,0,1.438-2.164V-4.3q0-2.273-1.453-2.273-1.32,0-1.43,1.961Zm9.1-4.312.086.992a2.867,2.867,0,0,1,2.414-1.148,2.412,2.412,0,0,1,1.973.789,3.757,3.757,0,0,1,.676,2.375V0h-2.641V-5.336a1.426,1.426,0,0,0-.258-.941,1.193,1.193,0,0,0-.937-.3,1.256,1.256,0,0,0-1.148.609V0h-2.633V-8.453Z" transform="translate(-9763 -8803)" fill="#fff"/>
    <path id="Trazado_119953" data-name="Trazado 119953" d="M5.852-2.563a1.423,1.423,0,0,0-.441-1.06A3.944,3.944,0,0,0,3.924-4.4,4.766,4.766,0,0,1,1.8-5.561a2.555,2.555,0,0,1-.667-1.815,2.628,2.628,0,0,1,.653-1.839,2.774,2.774,0,0,1,1.794-.854v-1.5H4.6v1.5A2.635,2.635,0,0,1,6.388-9.1a3.464,3.464,0,0,1,.639,2.208H5.77a2.381,2.381,0,0,0-.458-1.536A1.5,1.5,0,0,0,4.074-9a1.707,1.707,0,0,0-1.244.421A1.567,1.567,0,0,0,2.4-7.4a1.432,1.432,0,0,0,.455,1.113,4.188,4.188,0,0,0,1.5.753,6.3,6.3,0,0,1,1.627.746,2.617,2.617,0,0,1,.861.947,2.737,2.737,0,0,1,.277,1.265A2.534,2.534,0,0,1,6.422-.718,3.077,3.077,0,0,1,4.478.116V1.422H3.466V.116A2.948,2.948,0,0,1,1.473-.79,3.056,3.056,0,0,1,.752-2.933H2.017a2.012,2.012,0,0,0,.5,1.463,1.884,1.884,0,0,0,1.415.513,2.123,2.123,0,0,0,1.408-.431A1.454,1.454,0,0,0,5.852-2.563ZM16.311,0H15.039V-8.429l-2.55.937V-8.641L16.112-10h.2ZM20.1,1.982l-.718-.492a3.3,3.3,0,0,0,.67-1.846V-1.5h1.237v.991A3.114,3.114,0,0,1,20.956.875,3.233,3.233,0,0,1,20.1,1.982ZM29-4.245a5.784,5.784,0,0,1-.759,3.3A2.7,2.7,0,0,1,25.874.137,2.718,2.718,0,0,1,23.516-.919a5.49,5.49,0,0,1-.793-3.155V-5.763a5.655,5.655,0,0,1,.759-3.261A2.719,2.719,0,0,1,25.86-10.09a2.744,2.744,0,0,1,2.365,1.029A5.458,5.458,0,0,1,29-5.886ZM27.74-5.975a4.634,4.634,0,0,0-.451-2.341,1.553,1.553,0,0,0-1.429-.735,1.532,1.532,0,0,0-1.415.731,4.525,4.525,0,0,0-.458,2.249v2.023a4.708,4.708,0,0,0,.468,2.382A1.55,1.55,0,0,0,25.874-.9a1.529,1.529,0,0,0,1.391-.725A4.538,4.538,0,0,0,27.74-3.9Zm9.126,1.729a5.784,5.784,0,0,1-.759,3.3A2.7,2.7,0,0,1,33.735.137,2.718,2.718,0,0,1,31.377-.919a5.49,5.49,0,0,1-.793-3.155V-5.763a5.655,5.655,0,0,1,.759-3.261,2.719,2.719,0,0,1,2.379-1.066,2.744,2.744,0,0,1,2.365,1.029,5.458,5.458,0,0,1,.779,3.175ZM35.6-5.975a4.634,4.634,0,0,0-.451-2.341,1.553,1.553,0,0,0-1.429-.735,1.532,1.532,0,0,0-1.415.731,4.525,4.525,0,0,0-.458,2.249v2.023a4.708,4.708,0,0,0,.468,2.382A1.55,1.55,0,0,0,33.735-.9a1.529,1.529,0,0,0,1.391-.725A4.538,4.538,0,0,0,35.6-3.9Zm9.126,1.729a5.784,5.784,0,0,1-.759,3.3A2.7,2.7,0,0,1,41.6.137,2.718,2.718,0,0,1,39.238-.919a5.49,5.49,0,0,1-.793-3.155V-5.763A5.655,5.655,0,0,1,39.2-9.023a2.719,2.719,0,0,1,2.379-1.066,2.744,2.744,0,0,1,2.365,1.029,5.458,5.458,0,0,1,.779,3.175ZM43.463-5.975a4.634,4.634,0,0,0-.451-2.341,1.553,1.553,0,0,0-1.429-.735,1.532,1.532,0,0,0-1.415.731A4.525,4.525,0,0,0,39.71-6.07v2.023a4.708,4.708,0,0,0,.468,2.382A1.55,1.55,0,0,0,41.6-.9a1.529,1.529,0,0,0,1.391-.725A4.538,4.538,0,0,0,43.463-3.9Zm2.974,7.957-.718-.492a3.3,3.3,0,0,0,.67-1.846V-1.5h1.237v.991A3.114,3.114,0,0,1,47.288.875,3.233,3.233,0,0,1,46.437,1.982Zm8.9-6.228a5.784,5.784,0,0,1-.759,3.3A2.7,2.7,0,0,1,52.206.137,2.718,2.718,0,0,1,49.848-.919a5.49,5.49,0,0,1-.793-3.155V-5.763a5.655,5.655,0,0,1,.759-3.261,2.719,2.719,0,0,1,2.379-1.066,2.744,2.744,0,0,1,2.365,1.029,5.458,5.458,0,0,1,.779,3.175ZM54.072-5.975a4.634,4.634,0,0,0-.451-2.341,1.553,1.553,0,0,0-1.429-.735,1.532,1.532,0,0,0-1.415.731,4.525,4.525,0,0,0-.458,2.249v2.023a4.708,4.708,0,0,0,.468,2.382A1.55,1.55,0,0,0,52.206-.9,1.529,1.529,0,0,0,53.6-1.62,4.538,4.538,0,0,0,54.072-3.9ZM63.2-4.245a5.784,5.784,0,0,1-.759,3.3A2.7,2.7,0,0,1,60.067.137,2.718,2.718,0,0,1,57.709-.919a5.49,5.49,0,0,1-.793-3.155V-5.763a5.655,5.655,0,0,1,.759-3.261,2.719,2.719,0,0,1,2.379-1.066,2.744,2.744,0,0,1,2.365,1.029A5.458,5.458,0,0,1,63.2-5.886ZM61.934-5.975a4.634,4.634,0,0,0-.451-2.341,1.553,1.553,0,0,0-1.429-.735,1.532,1.532,0,0,0-1.415.731,4.525,4.525,0,0,0-.458,2.249v2.023a4.708,4.708,0,0,0,.468,2.382A1.55,1.55,0,0,0,60.067-.9a1.529,1.529,0,0,0,1.391-.725A4.538,4.538,0,0,0,61.934-3.9ZM71.06-4.245a5.784,5.784,0,0,1-.759,3.3A2.7,2.7,0,0,1,67.929.137,2.718,2.718,0,0,1,65.57-.919a5.49,5.49,0,0,1-.793-3.155V-5.763a5.655,5.655,0,0,1,.759-3.261,2.719,2.719,0,0,1,2.379-1.066A2.744,2.744,0,0,1,70.28-9.061a5.458,5.458,0,0,1,.779,3.175ZM69.795-5.975a4.634,4.634,0,0,0-.451-2.341,1.553,1.553,0,0,0-1.429-.735,1.532,1.532,0,0,0-1.415.731,4.525,4.525,0,0,0-.458,2.249v2.023a4.708,4.708,0,0,0,.468,2.382A1.55,1.55,0,0,0,67.929-.9,1.529,1.529,0,0,0,69.32-1.62,4.538,4.538,0,0,0,69.795-3.9Z" transform="translate(-9722 -8744)" fill="#12263f"/>
    <g id="Grupo_91685" data-name="Grupo 91685" transform="translate(-9713.118 -8933.539)">
      <path id="Trazado_100539" data-name="Trazado 100539" d="M1323.122,521.635l-4.652-4.142a4.507,4.507,0,0,1,6-6.723l13.506,12.005a4.5,4.5,0,0,1,.367,6.356,4.453,4.453,0,0,1-.367.367L1324.473,541.5a4.507,4.507,0,1,1-6-6.723l4.652-4.142h-24.161a4.5,4.5,0,0,1,0-9Z" transform="translate(-1292.958 -508.123)" fill="#60c1dd"/>
      <path id="Trazado_100540" data-name="Trazado 100540" d="M1318.3,540.967a6,6,0,0,1-4-10.487l1.7-1.519h-20.217a6,6,0,1,1,0-12.006H1316l-1.708-1.519a6.008,6.008,0,1,1,8-8.968l13.506,12.006a6,6,0,0,1,.5,8.474,5.893,5.893,0,0,1-.5.5l-13.506,12.005A5.978,5.978,0,0,1,1318.3,540.967Zm-22.51-21.01a3,3,0,1,0,0,6h24.161a1.5,1.5,0,0,1,1,2.623l-4.649,4.139a3,3,0,0,0-.246,4.237l.009.01a3.118,3.118,0,0,0,4.241.24L1333.8,525.2a3.017,3.017,0,0,0,.215-4.26c-.068-.075-.14-.147-.215-.215L1320.3,508.723a3,3,0,0,0-4.007,4.469l4.652,4.142a1.5,1.5,0,0,1-1,2.623Z" transform="translate(-1289.782 -504.944)" fill="#3b4454"/>
    </g>
  </g>
</svg>
